<svg width="48" height="48" viewBox="0 0 48 48" fill="none" xmlns="http://www.w3.org/2000/svg">
<rect width="48" height="48" rx="16" fill="#D8E1FD" fill-opacity="0.2"/>
<path d="M20.0008 34H28.0008C32.0208 34 32.7408 32.39 32.9508 30.43L33.7008 22.43C33.9708 19.99 33.2708 18 29.0008 18H19.0008C14.7308 18 14.0308 19.99 14.3008 22.43L15.0508 30.43C15.2608 32.39 15.9808 34 20.0008 34Z" stroke="#292D32" stroke-width="1.5" stroke-miterlimit="10" stroke-linecap="round" stroke-linejoin="round"/>
<path d="M20 18V17.2C20 15.43 20 14 23.2 14H24.8C28 14 28 15.43 28 17.2V18" stroke="#292D32" stroke-width="1.5" stroke-miterlimit="10" stroke-linecap="round" stroke-linejoin="round"/>
<path d="M26 25V26C26 26.01 26 26.01 26 26.02C26 27.11 25.99 28 24 28C22.02 28 22 27.12 22 26.03V25C22 24 22 24 23 24H25C26 24 26 24 26 25Z" stroke="#292D32" stroke-width="1.5" stroke-miterlimit="10" stroke-linecap="round" stroke-linejoin="round"/>
<path d="M33.65 23C31.34 24.68 28.7 25.68 26 26.02" stroke="#292D32" stroke-width="1.5" stroke-miterlimit="10" stroke-linecap="round" stroke-linejoin="round"/>
<path d="M14.6191 23.27C16.8691 24.81 19.4091 25.74 21.9991 26.03" stroke="#292D32" stroke-width="1.5" stroke-miterlimit="10" stroke-linecap="round" stroke-linejoin="round"/>
</svg>
