<svg width="48" height="48" viewBox="0 0 48 48" fill="none" xmlns="http://www.w3.org/2000/svg">
<rect width="48" height="48" rx="16" fill="#C8093B" fill-opacity="0.05"/>
<path d="M16.2599 23.02V27.99C16.2599 29.81 16.2599 29.81 17.9799 30.97L22.7099 33.7C23.4199 34.11 24.5799 34.11 25.2899 33.7L30.0199 30.97C31.7399 29.81 31.7399 29.81 31.7399 27.99V23.02C31.7399 21.2 31.7399 21.2 30.0199 20.04L25.2899 17.31C24.5799 16.9 23.4199 16.9 22.7099 17.31L17.9799 20.04C16.2599 21.2 16.2599 21.2 16.2599 23.02Z" fill="#EB003D" stroke="#EB003D" stroke-width="2" stroke-linecap="round" stroke-linejoin="round"/>
<path d="M24.6299 22.99L25.1999 23.88C25.2899 24.02 25.4899 24.16 25.6399 24.2L26.6599 24.46C27.2899 24.62 27.4599 25.16 27.0499 25.66L26.3799 26.47C26.2799 26.6 26.1999 26.83 26.2099 26.99L26.2699 28.04C26.3099 28.69 25.8499 29.02 25.2499 28.78L24.2699 28.39C24.1199 28.33 23.8699 28.33 23.7199 28.39L22.7399 28.78C22.1399 29.02 21.6799 28.68 21.7199 28.04L21.7799 26.99C21.7899 26.83 21.7099 26.59 21.6099 26.47L20.9399 25.66C20.5299 25.16 20.6999 24.62 21.3299 24.46L22.3499 24.2C22.5099 24.16 22.7099 24.01 22.7899 23.88L23.3599 22.99C23.7199 22.45 24.2799 22.45 24.6299 22.99Z" stroke="white" stroke-width="2" stroke-linecap="round" stroke-linejoin="round"/>
</svg>
