<svg width="48" height="48" viewBox="0 0 48 48" fill="none" xmlns="http://www.w3.org/2000/svg">
<rect width="48" height="48" rx="16" fill="#C8093B" fill-opacity="0.05"/>
<path d="M24.1601 22.87C24.0601 22.86 23.9401 22.86 23.8301 22.87C21.4501 22.79 19.5601 20.84 19.5601 18.44C19.5601 15.99 21.5401 14 24.0001 14C26.4501 14 28.4401 15.99 28.4401 18.44C28.4301 20.84 26.5401 22.79 24.1601 22.87Z" stroke="#EB003D" stroke-width="1.5" stroke-linecap="round" stroke-linejoin="round"/>
<path d="M19.16 26.56C16.74 28.18 16.74 30.82 19.16 32.43C21.91 34.27 26.42 34.27 29.17 32.43C31.59 30.81 31.59 28.17 29.17 26.56C26.43 24.73 21.92 24.73 19.16 26.56Z" stroke="#EB003D" stroke-width="1.5" stroke-linecap="round" stroke-linejoin="round"/>
</svg>
