<svg width="48" height="48" viewBox="0 0 48 48" fill="none" xmlns="http://www.w3.org/2000/svg">
<rect width="48" height="48" rx="16" fill="#C8093B" fill-opacity="0.05"/>
<path d="M18.73 31.7C19.55 30.82 20.8 30.89 21.52 31.85L22.53 33.2C23.34 34.27 24.65 34.27 25.46 33.2L26.47 31.85C27.19 30.89 28.44 30.82 29.26 31.7C31.04 33.6 32.49 32.97 32.49 30.31V19.04C32.5 15.01 31.56 14 27.78 14H20.22C16.44 14 15.5 15.01 15.5 19.04V30.3C15.5 32.97 16.96 33.59 18.73 31.7Z" stroke="#EB003D" stroke-width="1.5" stroke-linecap="round" stroke-linejoin="round"/>
<path d="M20 19H28" stroke="#EB003D" stroke-width="1.5" stroke-linecap="round" stroke-linejoin="round"/>
<path d="M21 23H27" stroke="#EB003D" stroke-width="1.5" stroke-linecap="round" stroke-linejoin="round"/>
</svg>
