<svg width="48" height="48" viewBox="0 0 48 48" fill="none" xmlns="http://www.w3.org/2000/svg">
<rect width="48" height="48" rx="16" fill="#C8093B" fill-opacity="0.05"/>
<path d="M29 30.4301H25L20.55 33.39C19.89 33.83 19 33.3601 19 32.5601V30.4301C16 30.4301 14 28.4301 14 25.4301V19.43C14 16.43 16 14.43 19 14.43H29C32 14.43 34 16.43 34 19.43V25.4301C34 28.4301 32 30.4301 29 30.4301Z" stroke="#EB003D" stroke-width="1.5" stroke-miterlimit="10" stroke-linecap="round" stroke-linejoin="round"/>
<path d="M24.0001 23.36V23.15C24.0001 22.47 24.4201 22.11 24.8401 21.82C25.2501 21.54 25.66 21.18 25.66 20.52C25.66 19.6 24.9201 18.86 24.0001 18.86C23.0801 18.86 22.3401 19.6 22.3401 20.52" stroke="#EB003D" stroke-width="1.5" stroke-linecap="round" stroke-linejoin="round"/>
<path d="M23.9955 25.75H24.0045" stroke="#EB003D" stroke-width="1.5" stroke-linecap="round" stroke-linejoin="round"/>
</svg>
