<svg width="48" height="48" viewBox="0 0 48 48" fill="none" xmlns="http://www.w3.org/2000/svg">
<rect width="48" height="48" rx="16" fill="#C8093B" fill-opacity="0.05"/>
<path d="M16.756 20.046C16.756 19.17 17.008 18.486 17.512 17.994C18.028 17.49 18.688 17.238 19.492 17.238C20.296 17.238 20.95 17.49 21.454 17.994C21.97 18.486 22.228 19.17 22.228 20.046C22.228 20.922 21.97 21.612 21.454 22.116C20.95 22.62 20.296 22.872 19.492 22.872C18.688 22.872 18.028 22.62 17.512 22.116C17.008 21.612 16.756 20.922 16.756 20.046ZM27.736 17.472L20.554 30H18.538L25.72 17.472H27.736ZM19.492 18.48C18.736 18.48 18.358 19.002 18.358 20.046C18.358 21.102 18.736 21.63 19.492 21.63C19.852 21.63 20.128 21.504 20.32 21.252C20.524 20.988 20.626 20.586 20.626 20.046C20.626 19.002 20.248 18.48 19.492 18.48ZM24.082 27.408C24.082 26.532 24.334 25.848 24.838 25.356C25.354 24.852 26.014 24.6 26.818 24.6C27.61 24.6 28.258 24.852 28.762 25.356C29.278 25.848 29.536 26.532 29.536 27.408C29.536 28.284 29.278 28.974 28.762 29.478C28.258 29.982 27.61 30.234 26.818 30.234C26.014 30.234 25.354 29.982 24.838 29.478C24.334 28.974 24.082 28.284 24.082 27.408ZM26.8 25.842C26.044 25.842 25.666 26.364 25.666 27.408C25.666 28.452 26.044 28.974 26.8 28.974C27.556 28.974 27.934 28.452 27.934 27.408C27.934 26.364 27.556 25.842 26.8 25.842Z" fill="#EB003D"/>
</svg>
