<svg width="48" height="48" viewBox="0 0 48 48" fill="none" xmlns="http://www.w3.org/2000/svg">
<rect width="48" height="48" rx="16" fill="#C8093B" fill-opacity="0.05"/>
<path d="M26.2617 27.998H21.2617" stroke="#EB003D" stroke-width="1.5" stroke-miterlimit="10" stroke-linecap="round" stroke-linejoin="round"/>
<path d="M24.66 14.5181L24.63 14.5881L21.73 21.3181H18.88C18.2 21.3181 17.55 21.4581 16.96 21.7081L18.71 17.5281L18.75 17.4281L18.82 17.2681C18.84 17.2081 18.86 17.1481 18.89 17.0981C20.2 14.0681 21.68 13.3781 24.66 14.5181Z" stroke="#EB003D" stroke-width="1.5" stroke-linecap="round" stroke-linejoin="round"/>
<path d="M30.05 21.5181C29.6 21.3781 29.12 21.3181 28.64 21.3181H21.73L24.63 14.5881L24.66 14.5181C24.81 14.5681 24.95 14.6381 25.1 14.6981L27.31 15.6281C28.54 16.1381 29.4 16.6681 29.92 17.3081C30.02 17.4281 30.1 17.5381 30.17 17.6681C30.26 17.8081 30.33 17.9481 30.37 18.0981C30.41 18.1881 30.44 18.2781 30.46 18.3581C30.73 19.1981 30.57 20.2281 30.05 21.5181Z" stroke="#EB003D" stroke-width="1.5" stroke-linecap="round" stroke-linejoin="round"/>
<path d="M33.5217 26.1984V28.1484C33.5217 28.3484 33.5117 28.5484 33.5017 28.7484C33.3117 32.2384 31.3617 33.9984 27.6617 33.9984H19.8617C19.6217 33.9984 19.3817 33.9784 19.1517 33.9484C15.9717 33.7384 14.2717 32.0384 14.0617 28.8584C14.0317 28.6284 14.0117 28.3884 14.0117 28.1484V26.1984C14.0117 24.1884 15.2317 22.4584 16.9717 21.7084C17.5717 21.4584 18.2117 21.3184 18.8917 21.3184H28.6517C29.1417 21.3184 29.6217 21.3884 30.0617 21.5184C32.0517 22.1284 33.5217 23.9884 33.5217 26.1984Z" stroke="#EB003D" stroke-width="1.5" stroke-linecap="round" stroke-linejoin="round"/>
<path d="M18.71 17.5281L16.96 21.7081C15.22 22.4581 14 24.1881 14 26.1981V23.2681C14 20.4281 16.02 18.0581 18.71 17.5281Z" stroke="#EB003D" stroke-width="1.5" stroke-linecap="round" stroke-linejoin="round"/>
<path d="M33.5186 23.2677V26.1977C33.5186 23.9977 32.0586 22.1277 30.0586 21.5277C30.5786 20.2277 30.7286 19.2077 30.4786 18.3577C30.4586 18.2677 30.4286 18.1777 30.3886 18.0977C32.2486 19.0577 33.5186 21.0277 33.5186 23.2677Z" stroke="#EB003D" stroke-width="1.5" stroke-linecap="round" stroke-linejoin="round"/>
</svg>
