<svg width="48" height="48" viewBox="0 0 48 48" fill="none" xmlns="http://www.w3.org/2000/svg">
<rect width="48" height="48" rx="16" fill="#C8093B" fill-opacity="0.05"/>
<path d="M22.75 14.4499C23.44 13.8599 24.57 13.8599 25.27 14.4499L26.85 15.8101C27.15 16.0701 27.71 16.28 28.11 16.28H29.81C30.87 16.28 31.74 17.15 31.74 18.21V19.91C31.74 20.3 31.95 20.87 32.21 21.17L33.57 22.75C34.16 23.44 34.16 24.57 33.57 25.27L32.21 26.85C31.95 27.15 31.74 27.71 31.74 28.11V29.8101C31.74 30.8701 30.87 31.74 29.81 31.74H28.11C27.72 31.74 27.15 31.95 26.85 32.21L25.27 33.5699C24.58 34.1599 23.45 34.1599 22.75 33.5699L21.17 32.21C20.87 31.95 20.31 31.74 19.91 31.74H18.18C17.12 31.74 16.25 30.8701 16.25 29.8101V28.1C16.25 27.71 16.04 27.15 15.79 26.85L14.44 25.26C13.86 24.57 13.86 23.45 14.44 22.76L15.79 21.17C16.04 20.87 16.25 20.31 16.25 19.92V18.21C16.25 17.15 17.12 16.28 18.18 16.28H19.91C20.3 16.28 20.87 16.0701 21.17 15.8101L22.75 14.4499Z" stroke="#EB003D" stroke-width="1.5" stroke-linecap="round" stroke-linejoin="round"/>
<path d="M21.89 26.82L23.34 27.94C23.53 28.13 23.95 28.22 24.23 28.22H26C26.56 28.22 27.17 27.8 27.31 27.24L28.43 23.82C28.66 23.17 28.24 22.6 27.54 22.6H25.67C25.39 22.6 25.16 22.3701 25.2 22.0401L25.43 20.5401C25.52 20.1201 25.24 19.65 24.82 19.51C24.45 19.37 23.98 19.56 23.79 19.84L21.87 22.69" stroke="#EB003D" stroke-width="1.5" stroke-miterlimit="10"/>
<path d="M19.5 26.8199V22.24C19.5 21.58 19.78 21.35 20.44 21.35H20.91C21.56 21.35 21.85 21.58 21.85 22.24V26.8199C21.85 27.4699 21.57 27.71 20.91 27.71H20.44C19.78 27.71 19.5 27.4799 19.5 26.8199Z" stroke="#EB003D" stroke-width="1.5" stroke-linecap="round" stroke-linejoin="round"/>
</svg>
