<svg width="48" height="48" viewBox="0 0 48 48" fill="none" xmlns="http://www.w3.org/2000/svg">
<rect width="48" height="48" rx="16" fill="#C8093B" fill-opacity="0.05"/>
<path d="M24 27C27.7279 27 30.75 24.0899 30.75 20.5C30.75 16.9101 27.7279 14 24 14C20.2721 14 17.25 16.9101 17.25 20.5C17.25 24.0899 20.2721 27 24 27Z" fill="#EB003D" stroke="#EB003D" stroke-width="1.5" stroke-linecap="round" stroke-linejoin="round"/>
<path d="M19.52 25.52L19.51 32.9C19.51 33.8 20.14 34.24 20.92 33.87L23.6 32.6C23.82 32.49 24.19 32.49 24.41 32.6L27.1 33.87C27.87 34.23 28.51 33.8 28.51 32.9V25.34" fill="#EB003D"/>
<path d="M19.52 25.52L19.51 32.9C19.51 33.8 20.14 34.24 20.92 33.87L23.6 32.6C23.82 32.49 24.19 32.49 24.41 32.6L27.1 33.87C27.87 34.23 28.51 33.8 28.51 32.9V25.34" stroke="#EB003D" stroke-width="1.5" stroke-linecap="round" stroke-linejoin="round"/>
</svg>
