<svg width="48" height="48" viewBox="0 0 48 48" fill="none" xmlns="http://www.w3.org/2000/svg">
<rect width="48" height="48" rx="16" fill="#C8093B" fill-opacity="0.05"/>
<path d="M23.74 29.75H29.66C29.57 29.83 29.48 29.9 29.39 29.98L25.12 33.18C23.71 34.23 21.41 34.23 19.99 33.18L15.71 29.98C14.77 29.28 14 27.73 14 26.56V19.15C14 17.93 14.93 16.58 16.07 16.15L21.05 14.28C21.87 13.97 23.23 13.97 24.05 14.28L29.02 16.15C29.97 16.51 30.78 17.51 31.03 18.53H23.73C23.51 18.53 23.31 18.54 23.12 18.54C21.27 18.65 20.79 19.32 20.79 21.43V26.86C20.8 29.16 21.39 29.75 23.74 29.75Z" fill="#EB003D" stroke="#EB003D" stroke-width="1.5" stroke-linecap="round" stroke-linejoin="round"/>
<path d="M20.8 23.22H34" stroke="#EB003D" stroke-width="1.5" stroke-miterlimit="10" stroke-linecap="round" stroke-linejoin="round"/>
<path d="M34 21.42V26.97C33.98 29.19 33.37 29.74 31.06 29.74H23.7401C21.3901 29.74 20.8 29.15 20.8 26.84V21.41C20.8 19.31 21.2801 18.64 23.1301 18.52C23.3201 18.52 23.5201 18.51 23.7401 18.51H31.06C33.41 18.52 34 19.1 34 21.42Z" fill="white" stroke="#EB003D" stroke-width="1.5" stroke-linecap="round" stroke-linejoin="round"/>
<path d="M23.3201 27.26H24.6501" stroke="#EB003D" stroke-width="1.5" stroke-miterlimit="10" stroke-linecap="round" stroke-linejoin="round"/>
<path d="M26.75 27.26H30.02" stroke="#EB003D" stroke-width="1.5" stroke-miterlimit="10" stroke-linecap="round" stroke-linejoin="round"/>
</svg>
