<svg width="48" height="48" viewBox="0 0 48 48" fill="none" xmlns="http://www.w3.org/2000/svg">
<rect width="48" height="48" rx="10.9714" fill="#C8093B" fill-opacity="0.05"/>
<path d="M30.328 34.5C29.413 34.5 28.1277 34.1691 26.203 33.0938C23.8626 31.7813 22.0523 30.5696 19.7244 28.2478C17.4801 26.0049 16.3879 24.5527 14.8593 21.7711C13.1324 18.6305 13.4268 16.9842 13.7559 16.2806C14.1477 15.4397 14.7262 14.9367 15.4738 14.4375C15.8985 14.1593 16.3479 13.9208 16.8163 13.725C16.8632 13.7049 16.9068 13.6856 16.9457 13.6683C17.1777 13.5638 17.5293 13.4058 17.9746 13.5746C18.2718 13.6861 18.5371 13.9144 18.9524 14.3246C19.8041 15.1646 20.968 17.0353 21.3974 17.9541C21.6857 18.5733 21.8765 18.9821 21.8769 19.4405C21.8769 19.9772 21.6069 20.3911 21.2793 20.8378C21.2179 20.9217 21.1569 21.0019 21.0979 21.0797C20.7412 21.5485 20.6629 21.6839 20.7144 21.9258C20.819 22.4119 21.5985 23.8589 22.8796 25.1372C24.1607 26.4155 25.566 27.1458 26.054 27.2499C26.3062 27.3038 26.4444 27.2222 26.9282 26.8528C26.9976 26.7999 27.0688 26.745 27.1434 26.6902C27.643 26.3185 28.0377 26.0555 28.5618 26.0555H28.5646C29.0207 26.0555 29.4112 26.2533 30.058 26.5796C30.9018 27.0052 32.8288 28.1541 33.674 29.0067C34.0851 29.4211 34.3143 29.6855 34.4263 29.9822C34.5951 30.4289 34.4362 30.7791 34.3326 31.0135C34.3152 31.0524 34.296 31.095 34.2759 31.1424C34.0785 31.61 33.8386 32.0584 33.5591 32.4821C33.0609 33.2274 32.556 33.8044 31.7132 34.1967C31.2804 34.4014 30.8068 34.5052 30.328 34.5Z" fill="#EB003D"/>
</svg>
