<svg width="48" height="48" viewBox="0 0 48 48" fill="none" xmlns="http://www.w3.org/2000/svg">
<rect width="48" height="48" rx="16" fill="#C8093B" fill-opacity="0.05"/>
<path d="M19.48 30.35L22.58 32.75C22.98 33.15 23.88 33.35 24.48 33.35H28.28C29.48 33.35 30.78 32.45 31.08 31.25L33.48 23.95C33.98 22.55 33.08 21.35 31.58 21.35H27.58C26.98 21.35 26.48 20.85 26.58 20.15L27.08 16.95C27.28 16.05 26.68 15.05 25.78 14.75C24.98 14.45 23.98 14.85 23.58 15.45L19.48 21.55" fill="#EB003D"/>
<path d="M19.48 30.35L22.58 32.75C22.98 33.15 23.88 33.35 24.48 33.35H28.28C29.48 33.35 30.78 32.45 31.08 31.25L33.48 23.95C33.98 22.55 33.08 21.35 31.58 21.35H27.58C26.98 21.35 26.48 20.85 26.58 20.15L27.08 16.95C27.28 16.05 26.68 15.05 25.78 14.75C24.98 14.45 23.98 14.85 23.58 15.45L19.48 21.55" stroke="#EB003D" stroke-width="1.125" stroke-miterlimit="10"/>
<path d="M14.38 30.35V20.55C14.38 19.15 14.98 18.65 16.38 18.65H17.38C18.78 18.65 19.38 19.15 19.38 20.55V30.35C19.38 31.75 18.78 32.25 17.38 32.25H16.38C14.98 32.25 14.38 31.75 14.38 30.35Z" fill="#EB003D" stroke="#EB003D" stroke-width="1.125" stroke-linecap="round" stroke-linejoin="round"/>
</svg>
