<?xml version="1.0" encoding="utf-8"?>
<!-- Generator: Adobe Illustrator 27.0.0, SVG Export Plug-In . SVG Version: 6.00 Build 0)  -->
<svg version="1.1" id="Calque_1" xmlns="http://www.w3.org/2000/svg" xmlns:xlink="http://www.w3.org/1999/xlink" x="0px" y="0px"
	 viewBox="0 0 500 500" style="enable-background:new 0 0 500 500;" xml:space="preserve">
<style type="text/css">
	.st0{fill:#A8DAE8;}
	.st1{fill:#6BC4CB;}
	.st2{fill:#F1B5AC;}
	.st3{fill:#265EA9;}
	.st4{fill:#93D3E6;}
	.st5{fill:#273C7E;}
	.st6{fill:#D24D27;}
	.st7{fill:#721813;}
	.st8{fill:#983222;}
	.st9{fill:#F2958E;}
	.st10{fill:#FFFFFF;}
	.st11{fill:#1F1725;}
	.st12{fill:#08519C;}
	.st13{fill:#661514;}
	.st14{fill:#252D5F;}
	.st15{fill:#7A1716;}
	.st16{fill:#F4973B;}
	.st17{fill:#E28725;}
	.st18{fill:#CD4627;}
	.st19{fill:#664627;}
	.st20{fill:#1E2E57;}
	.st21{fill:#D65027;}
	.st22{fill:#52351B;}
	.st23{fill:#AA2623;}
	.st24{fill:#761715;}
	.st25{fill:#4F331B;}
	.st26{fill:#B8544A;}
	.st27{fill:#1EA9B8;}
	.st28{fill:#742723;}
	.st29{fill:#A7D4B4;}
	.st30{fill:#66C0B9;}
	.st31{fill:#D0918E;}
	.st32{fill:#B87B7B;}
	.st33{fill:#FDC312;}
	.st34{fill:#F49824;}
	.st35{fill:#DD8427;}
	.st36{fill:#EB6B25;}
	.st37{opacity:0.4;fill:#855958;}
	.st38{fill:#F6A52A;}
	.st39{fill:#95D3E6;}
	.st40{fill:#3B69B1;}
	.st41{fill:#436EB4;}
	.st42{fill:#075358;}
	.st43{fill:#014245;}
	.st44{fill:#C23927;}
	.st45{fill:#0D65A7;}
	.st46{fill:#2C92BF;}
	.st47{fill:#217FA1;}
	.st48{fill:#0E7089;}
	.st49{fill:#0B9399;}
	.st50{fill:#79C8D7;}
	.st51{fill:#685453;}
	.st52{fill:#EC6181;}
	.st53{fill:#B82E4D;}
	.st54{fill:#E83856;}
	.st55{fill:#EA592C;}
</style>
<g>
	<g>
		<path class="st0" d="M350.9,320.7c-1,0.3-3.4,0.7-6.8,1c-5.3,0.6-13,1.2-21.2,1.6c-7.8,0.4-16.1,0.6-23.3,0.5c-0.6,0-1.2,0-1.9,0
			c-6.6-0.2-11.7-0.4-15.6-0.7c-1.5-0.1-2.8-0.2-4-0.3c-4.4-0.4-6.1-0.8-6.1-0.8c-1-4.5,8.1-59.9,11-69.7c2.9-9.8,13.2-24,13.2-24
			c0.1-1.5,0.2-3.2,0.4-5c0.4-4.4,1.1-9.5,1.8-14.2c1.1-7.9,2.2-14.7,2.2-14.7c18.8,0.6,27.3-1.7,27.3-1.7c0,0,0.9,1.8,1.9,4.2
			c0,0,0,0,0,0c1.5,3.6,3.4,8.4,3,9.9c-0.4,1.8-2.8,4.5-4.1,5.9c-0.5,0.6-0.8,0.9-0.8,0.9c0.3,4.1,5.4,39.2,9.4,52.9
			C341.6,280.3,350.9,320.7,350.9,320.7z"/>
		<path class="st1" d="M333.1,206.8c-0.4,1.8-2.8,4.5-4.1,5.9c-5.4,1.7-6.1,0.1-6.1,0.1c7.5-2.1,7.3-13.5,7.2-16
			C331.6,200.5,333.5,205.3,333.1,206.8z"/>
		<path class="st1" d="M309.1,212.9c0,0-4.2,5.1-9.4,2.8c0,0-0.5,13.6-1.5,16.2c-1,2.6-9.5,18.8-14.2,46.1
			c-3.5,20-5.1,37.2-5.7,44.8c-4.4-0.4-6.1-0.8-6.1-0.8c-1-4.5,8.1-59.9,11-69.7c2.9-9.8,13.2-24,13.2-24c0.1-1.5,0.2-3.2,0.4-5
			c0.4-4.4,1.1-9.5,1.8-14.2C300.4,210.9,303.8,213.4,309.1,212.9z"/>
		<path class="st2" d="M286.2,246.3c0,0-0.9,3.5-2.1,3.9c-1.2,0.4-7.8-6.2-16.1-14.6c-8.2-8.3-15.8-19.4-15.8-19.4
			c1.9-6.6,18.3-26.3,18.3-26.3s3.9,2.1,7.4,6.2c0.8,0.9,1.4,1.8,1.9,2.6c2.2,3.3,2.6,5.4,2.6,5.4c-4,5.4-12.2,10.8-12.2,10.8
			s5.8,10.1,9,16.1c0,0,0,0,0,0c0.1,0.2,0.3,0.5,0.4,0.7C282.9,237.9,286.2,246.3,286.2,246.3z"/>
		<path class="st3" d="M328.2,192.6c0,0-1.6,0.4-4.9,0.9c-0.3,0-0.6,0.1-1,0.1c-3.8,0.5-9.6,0.9-17.5,0.8c-0.3,0-0.7,0-1,0
			c-0.9,0-1.9,0-2.9-0.1c0,0-1.1,6.8-2.3,14.8c-0.6,4.2-1.2,8.6-1.6,12.6c-0.1,0.5-0.1,1-0.1,1.4c-0.1-0.3-0.1-0.6-0.2-1
			c-2.2-9.4-6.4-26.9-6.4-26.9c-2,2.8-7.9,8.7-7.9,8.7s-0.9-2.1-2.2-4.5c-0.7-1.2-1.4-2.4-2.3-3.5c-2.5-3.2-7.7-5.8-7.7-5.8
			c0.9-1.1,12.4-16.6,18-19.9c2.5-1.5,5.5-3,8.5-4.3c0.3-0.2,0.6-0.3,0.9-0.4c3.3-1.4,6.3-2.5,8.1-2.9c0,0,5.1,0.4,7.6,0.9
			c0.8,0.2,1.7,0.4,2.7,0.7c0.4,0.1,0.8,0.3,1.1,0.4c1.6,0.7,3.2,1.8,4.2,3.6c1.8,3.1,3.1,3.6,3.3,8
			C324.7,180.7,328.2,192.6,328.2,192.6z"/>
		<g>
			<path class="st4" d="M304.7,194.5c0,0.2-0.2,0.4-0.4,0.5c0,0-0.1,0-0.1,0c-0.2,0-0.4-0.1-0.5-0.4l0-0.1l-7.2-28.5
				c0.3-0.2,0.6-0.3,0.9-0.4l7.2,28.8C304.7,194.4,304.7,194.4,304.7,194.5z"/>
		</g>
		<path class="st2" d="M330.1,154c-3.4,3.5-10,4.5-15.8,2.8c-0.5-0.2-1.1-0.3-1.6-0.6c-0.3-0.1-0.6-0.2-0.8-0.3
			c-4.2-1.9-7.3-5.6-8.9-7.8c-0.8-1.1-1.2-1.8-1.2-1.8c-1.2,0-2.2-0.5-3-1.2c-3.3-2.9-3.4-10.1-0.7-11.3c3.2-1.5,3.7,2.5,3.7,2.5
			s1.4-6.2,4.3-10c0.3-0.3,0.5-0.7,0.8-1c2.8-2.8,7.1-6.8,8.8-8.3c0,0,0,0,0,0c0.4-0.4,0.7-0.6,0.7-0.6c9.6,2.1,12.9,0.7,12.9,0.7
			s0.1,0.4,0.3,1c0.1,0.3,0.2,0.6,0.3,1c1.2,3.5,3.6,10.9,4.9,15.2C336.7,140.2,334,150,330.1,154z"/>
		<path class="st5" d="M297.4,355.7c-0.6,15.7,0,61.5,0,61.5s-1.1,0-2,0h-1c-0.4,0-15.7-50.9-16.3-63.1c-0.6-12.2,6.7-21.7,6.7-21.7
			l-2.5-9.3c1.2,0.1,2.5,0.2,3.9,0.3c3.2,0.2,7.1,0.3,11.7,0.5c0.6,0,1.2,0,1.9,0C299.3,328.2,297.9,342.5,297.4,355.7z"/>
		<path class="st5" d="M364,413.8l-3.5,0.7l-0.1,0c0,0-12.5-20.8-19.4-30.8c-7-10-13.9-22.4-15.1-31.6c-1.1-9.2,1.6-21.5,1.6-21.5
			l-4.5-7.3c2.1-0.1,4.1-0.2,6.1-0.3c5.8-0.4,11.1-0.8,15.1-1.3c0.7,4.6,3.2,20.8,5.4,34.2C352.1,371.8,364,413.8,364,413.8z"/>
		<path class="st2" d="M296.3,246.8c-0.9,0.5-4.6-2.3-7.4-1.4c0,0,5,2.6,4.4,4.1c-0.5,1.2-4.8-0.6-5.9-1.2c0.9,0.7,3.3,3.9,2.8,4.7
			c-0.6,0.9-4.6-2.8-4.6-2.8s1.6,3.3,0.6,4.3c-1,1-2.1-4.4-2.1-4.4s1.1-2.5,2.1-3.9c1.4-1.9,3.2-5.1,5.3-4.2
			C293.6,242.9,297.1,246.3,296.3,246.8z"/>
		<path class="st2" d="M353.6,216.2c-0.6,5.5-2.7,7.9-5.8,8.5c-1.5,0.3-3.2,0.1-5.1-0.3c-5.8-1.4-8.1-9.1-10.1-16.4
			c-2-7.3-6.9-22.8-7.7-28.5c-0.9-5.7-0.5-9.2-0.5-9.2s-1.4-0.1-2.4-1c-0.1-0.1-0.2-0.2-0.2-0.3c-0.1-0.5,1-1,1.9-1.4
			c-1.5,0.5-3.7,1.1-4.1,0.6c-0.7-0.8,3.4-4.2,3.6-4.3c-0.3,0.1-5,2.1-5.6,1.5c-0.6-0.6,4.2-3.6,4.8-4c-0.6,0.3-6,2.5-6.6,1.6
			c-0.6-1,5.3-4.6,7.3-5.4c1.9-0.7,3.6,1.1,3.6,1.1s2.7-0.5,2.6,1.6c0,0,2.5,1.3,2,4.1c-0.5,2.9-1.9,5.8-1.9,5.8
			c0.2,0.4,11.1,17.3,15.7,23.9C349.8,200.8,354.5,208.2,353.6,216.2z"/>
		<path class="st6" d="M360.4,414.6l1.4,3.9h16.8C378.5,418.5,370.2,409.7,360.4,414.6z"/>
		<path class="st2" d="M314.3,156.8l-0.2,3l-0.5,7c-2.7,1.4-8-2.1-8-3.4c0-0.6-0.5-3.8-1.1-7.1c-0.7-4-1.5-8.2-1.5-8.2
			c1.6,2.2,4.7,5.9,8.9,7.8C312.7,156.2,313.5,156.5,314.3,156.8z"/>
		<g>
			<path class="st7" d="M336.6,113.7c0,0.1,0,0.1,0,0.2c-0.2,2.4-3.6,4-6.9,4.3c-0.2-0.6-0.3-1-0.3-1s-3.4,1.4-12.9-0.7
				c0,0-6,5.4-9.5,9c-2,2.1-3.4,5.4-4.2,7.8c-0.6,1.8-0.9,3.1-0.9,3.1s-0.4-3.5-3.1-2.7c-0.2,0.1-0.4,0.1-0.6,0.2
				c-1.3,0.6-2,2.8-1.8,5.1c0.1,1.8,0.6,3.7,1.7,5.2c0.3,0.4,0.6,0.7,0.9,1c-0.4,0.7-0.8,1.7-1.2,3c-2.4,6.8,5,12.5,8.8,16.1
				c2.9,2.7,5.8,9.3,4,14.3c0,0,0,0,0,0c-0.6,1.5-1.6,2.9-3.2,4c-6.8,4.5-13.3,1.6-13.3,1.6c3.9-3,1.4-9.7-4.1-12.8
				c-5.5-3.1-8-5.5-8.1-13.9c-0.1-8.4,9.8-15.2,9.8-15.2l2.7-5.2c0,0,0-0.1,0-0.1c0,0,0-0.1,0.1-0.1l1.3-2.6
				c-0.7-3.2-2.4-11.3,0.6-17.9c3-6.6,11.8-11.1,23.5-10C331.5,107.5,336.6,110.8,336.6,113.7z"/>
			<path class="st8" d="M302.7,133.2c-0.6,1.8-0.9,3.1-0.9,3.1s-0.5-4-3.7-2.5c-2.3,1.1-2.5,7-0.2,10.3c-2.5-1.5-5.3-3.9-3.7-7
				c0,0,0-0.1,0-0.1c0,0,0-0.1,0.1-0.1C296.7,132.4,301.5,132.8,302.7,133.2z"/>
		</g>
		<g>
			<path class="st4" d="M323.2,193.5C323.2,193.5,323.2,193.5,323.2,193.5c0,0.3-0.1,0.5-0.4,0.6c0,0-0.1,0-0.1,0
				c-0.2,0-0.4-0.2-0.5-0.4l0,0l-6.4-29.3c0.4,0.1,0.8,0.3,1.1,0.4L323.2,193.5z"/>
		</g>
		<path class="st9" d="M270.1,214.9c0,0,5.8,10.1,9,16.1c-5.2-7.2-11.8-14.5-11.8-14.5c3.5-2.6,9.9-13.5,12.4-17.8
			c2.2,3.3,2.6,5.4,2.6,5.4C278.3,209.4,270.1,214.9,270.1,214.9z"/>
		<path class="st9" d="M296.3,246.8c-0.9,0.5-4.6-2.3-7.4-1.4c0,0,5,2.6,4.4,4.1c-0.5,1.2-4.8-0.6-5.9-1.2c0.9,0.7,3.3,3.9,2.8,4.7
			c-0.6,0.9-4.6-2.8-4.6-2.8s1.6,3.3,0.6,4.3c-1,1-2.1-4.4-2.1-4.4s1.1-2.5,2.1-3.9c1.4-1.9,3.2-5.1,5.3-4.2
			C293.6,242.9,297.1,246.3,296.3,246.8z"/>
		<path class="st9" d="M347.8,224.8c-1.5,0.3-3.2,0.1-5.1-0.3c-5.8-1.4-8.1-9.1-10.1-16.4c-2-7.3-6.9-22.8-7.7-28.5
			c-0.9-5.7-0.5-9.2-0.5-9.2s-1.4-0.1-2.4-1c-0.1-0.1-0.2-0.2-0.2-0.3c0.8,0.2,3.4,0.7,5.4-1.2c0,0-1.4,5.9,0,13.1
			c1.4,7.2,6.4,18.2,11.6,26.4C342.5,213,345.9,220.1,347.8,224.8z"/>
		<path class="st9" d="M314.3,156.8l-0.2,3c-4.3,0-7.6-1.9-9.6-3.4c-0.7-4-1.5-8.2-1.5-8.2c1.6,2.2,4.7,5.9,8.9,7.8
			C312.7,156.2,313.5,156.5,314.3,156.8z"/>
		<path class="st9" d="M312.7,156.2c-0.3-0.1-0.6-0.2-0.8-0.3c-4.2-1.9-7.3-5.6-8.9-7.8c-0.8-1.1-1.2-1.8-1.2-1.8
			c-1.2,0-2.2-0.5-3-1.2c-3.3-2.9-3.4-10.1-0.7-11.3c3.2-1.5,3.7,2.5,3.7,2.5s1.4-6.2,4.3-10c-2,5-2.4,10-0.9,17.4
			C306.2,148.7,309.8,153.2,312.7,156.2z"/>
		<path class="st9" d="M330,119.1c-4.4,0.4-10.9-0.7-14.3-2.1c0.4-0.4,0.7-0.6,0.7-0.6c9.6,2.1,12.9,0.7,12.9,0.7s0.1,0.4,0.3,1
			C329.8,118.4,329.9,118.7,330,119.1z"/>
		<g>
			<path class="st8" d="M264,218c-0.3,0-0.5-0.2-0.5-0.4c0-0.3,0.2-0.5,0.4-0.5c3.3-0.3,7.1-3.4,7.2-3.4c0.2-0.2,0.5-0.1,0.7,0.1
				c0.2,0.2,0.1,0.5-0.1,0.7C271.6,214.5,267.7,217.6,264,218C264.1,218,264,218,264,218z"/>
		</g>
		<g>
			<path class="st8" d="M321.9,143.1c-0.3,0-0.5,0-0.8,0c-0.1,0-0.2-0.1-0.2-0.3c0-0.1,0.1-0.2,0.3-0.2c3.5,0.1,4.9-0.6,5.3-0.9
				c-1.1-2.1-3.4-9.9-3.4-10.3c0-0.1,0.1-0.2,0.3-0.2c0.1,0,0.2,0.1,0.2,0.2c0.1,0.6,2.4,8.5,3.4,10.3c0.1,0.1,0,0.2,0,0.3
				C326.8,142,325.8,143.1,321.9,143.1z"/>
		</g>
		<path class="st7" d="M306.5,129.4c1.2-1.3,4.2-5.5,10.1-3.6c0,0-0.5,0.8-5.1,1.8C307,128.8,306.5,129.4,306.5,129.4z"/>
		<path class="st7" d="M323.1,126.6c0,0,2.6-2,5.8-1.5c3.2,0.5,3.5,2.3,3.5,2.3S329.6,126.7,323.1,126.6z"/>
		<path class="st10" d="M311.5,146c0.6,0.1,3.3,2,8.7,2.1c5.4,0,8.3-1.4,8.3-1.4s-2.6,5.9-8.5,6.3C314.1,153.4,311.5,146,311.5,146z
			"/>
		<g>
			<path class="st8" d="M300.1,143.1C300.1,143.1,300.1,143.1,300.1,143.1c-0.2,0-0.3-0.1-0.2-0.3c0.3-2.8-1.8-6.6-1.9-6.6
				c-0.1-0.1,0-0.3,0.1-0.3c0.1-0.1,0.3,0,0.3,0.1c0.1,0.2,2.3,4,1.9,6.9C300.4,143,300.3,143.1,300.1,143.1z"/>
		</g>
		<g>
			<path class="st8" d="M299.2,141c-0.5,0-1-0.1-1.2-0.6c-0.4-0.9,0.9-2,1-2.1c0.1-0.1,0.3-0.1,0.4,0c0.1,0.1,0.1,0.3,0,0.4
				c-0.3,0.3-1.1,1.1-0.9,1.6c0.2,0.4,1.1,0.3,1.4,0.2c0.1,0,0.3,0,0.3,0.2c0,0.1,0,0.3-0.2,0.3C300,140.9,299.6,141,299.2,141z"/>
		</g>
		<path class="st11" d="M313.9,132.6c0,1.4-0.5,2.5-1.1,2.5c-0.6,0-1.1-1.1-1.1-2.5c0-1.4,0.5-2.5,1.1-2.5
			C313.4,130,313.9,131.2,313.9,132.6z"/>
		<path class="st11" d="M328.2,132.1c0,1.7-0.5,3-1.1,3s-1.1-1.4-1.1-3c0-1.7,0.5-3,1.1-3S328.2,130.4,328.2,132.1z"/>
		<path class="st12" d="M298.6,209.2c-0.6,4.2-1.2,8.6-1.6,12.6l-0.4,0.5c-2.2-9.4-6.4-26.9-6.4-26.9c-2,2.8-7.9,8.7-7.9,8.7
			s-0.9-2.1-2.2-4.5c3.2-2.6,10.3-8.8,11.4-13.7C291.5,185.8,292,201.6,298.6,209.2z"/>
		<path class="st13" d="M306.5,164.2c2.9,2.7,5.8,9.3,4,14.3c-0.2-3.8-1.4-10.1-7.4-12.9c-8.8-4.2-12.6-17.1-7.8-24.8
			c0.4-0.6,0.7-1.2,1-1.8c0.1,1.8,0.6,3.7,1.7,5.2c0.3,0.4,0.6,0.7,0.9,1c-0.4,0.7-0.8,1.7-1.2,3
			C295.2,154.9,302.6,160.6,306.5,164.2z"/>
		<path class="st13" d="M336.6,113.8c-0.2,2.4-3.6,4-6.9,4.3c-0.2-0.6-0.3-1-0.3-1s-3.4,1.4-12.9-0.7c0,0-6,5.4-9.5,9
			c-2,2.1-3.4,5.4-4.2,7.8c-0.6,1.8-0.9,3.1-0.9,3.1s-0.4-3.5-3.1-2.7c2.2-5.5,3.8-10.7,8.5-14.4C313.7,114,323.2,109.5,336.6,113.8
			z"/>
		<path class="st14" d="M343.5,378.1c7,13.7,13.6,29.2,17,36.5l-0.1,0c0,0-12.5-20.8-19.4-30.8c-7-10-13.9-22.4-15.1-31.6
			c-1.1-9.2,1.6-21.5,1.6-21.5l-4.5-7.3c2.1-0.1,4.1-0.2,6.1-0.3l1.8,8C328.1,341,334.1,359.7,343.5,378.1z"/>
		<path class="st15" d="M362.7,415.8c0,0-0.1,0-0.1-0.1C362.7,415.7,362.7,415.8,362.7,415.8z"/>
		<path class="st14" d="M295.4,417.2h-1c-0.4,0-15.7-50.9-16.3-63.1c-0.6-12.2,6.7-21.7,6.7-21.7l-2.5-9.3c1.2,0.1,2.5,0.2,3.9,0.3
			c0,4.6,0,12.4,0,12.4s-4.6,5.7-2.1,25.9C286.2,379.5,293.7,410.2,295.4,417.2z"/>
		<g>
			<path class="st0" d="M246.7,412.2l-3.8,0.3l-0.7,0.1c0,0-3.5-5.9-10.3-16.4c-6.9-10.5-11.7-21.1-17.1-35.6
				c-5.5-14.4,1.3-25.6,1.3-25.6s-6-12.6-10.5-25.5c-4-11.5-11.3-32-12.9-36.5c-0.2-0.6-0.3-0.9-0.3-0.9s-2.1,11-3.4,18.5
				c-0.1,0.7-0.3,1.6-0.4,2.7c-1.7,11.3-6.1,42.6-6.1,42.6c5.2,12.9,2.7,26.9-1.8,38.1c-4.5,11.2-18.2,37.2-18.2,37.2l-0.3,0.1
				l-3,0.6c0,0,4-90.8,4.2-109.6c0.2-18.8,0.4-58.6,0.4-58.6l3.7-13.7c0,0,0-0.1,0-0.2c0-0.2-0.1-0.6-0.1-1.1
				c-0.1-1.2-0.4-3.2-0.6-5.7c0-0.3-0.1-0.7-0.1-1c-1-9-2.6-24.1-3.6-36.2c-0.4-4.3-0.7-8.2-0.8-11.4c-0.2-3.2-0.2-6.5,0-9.7
				c0.2-4.4,0.7-8.8,1.2-12.6c1.1-8.1,2.5-14,2.5-14l0.1,0c2.9-0.6,5.9-1.3,8.8-2c-0.5,3.6-0.8,9.4-1.1,15.5
				c-0.2,4.4-0.4,8.9-0.5,12.7c-0.2,5.3-0.2,9.2-0.2,9.2l37.7-0.6c0-3.2,0.2-6.4,0.6-9.6c0.5-4.2,1.2-8.2,2-11.9
				c1.4-6.3,2.9-11.6,3.9-14.5c2.4,0.5,5,1.1,7.5,1.7c-0.7,3-1.6,7.8-2.4,13.3c-0.6,3.9-1.1,8.1-1.6,12.1c-0.7,6.4-1.3,12.7-1.5,17
				c-0.2,5.9,0.1,16.8,0.4,26.5c0.2,5.5,0.4,10.7,0.6,14.2c0,0.3,0,0.7,0.1,1c0.1,2.4,0.2,3.9,0.2,3.9s0.1,0.6,0.2,1.8
				c0.1,0.3,0.1,0.6,0.1,1c1.9,14.8,10.9,84.1,12.5,100.8C235,348.7,246.7,412.2,246.7,412.2z"/>
			<path class="st1" d="M188.6,293.4c-1.7,11.3-6.1,42.6-6.1,42.6c5.2,12.9,2.7,26.9-1.8,38.1c-4.5,11.2-18.2,37.2-18.2,37.2
				l-0.3,0.1c4.3-10.3,16.3-40.1,18.1-52c2.2-14.4,0-25.2,0-25.2L188.6,293.4z"/>
			<path class="st1" d="M242.9,412.5l-0.7,0.1c0,0-3.5-5.9-10.3-16.4c-6.9-10.5-11.7-21.1-17.1-35.6c-5.5-14.4,1.3-25.6,1.3-25.6
				s-6-12.6-10.5-25.5c-4-11.5-11.3-32-12.9-36.5l0.2-1l27.3,62c-3,19.7,3.3,32.4,6.7,45.1C229.7,389.2,238.9,405.5,242.9,412.5z"/>
			<path class="st16" d="M217.1,136.8c-0.1,0.2-0.1,0.4-0.2,0.6c-2,6.3-6.2,21.3-6.2,35.4l-37.7,0.6c0,0,0.5-27.5,1.8-37.3
				c1.6-0.4,3.3-0.8,5.1-1.2c4.8-1.1,9.8-2.3,13.2-2.8c0.1,1.5,0.2,2.9,0.4,3.3c0.5,1.1,1.7,3.3,5.4,2.8c3.7-0.5,5-2.3,5-2.7
				c0-0.1,0.1-0.7,0.1-1.6C204,133.9,210,135.2,217.1,136.8z"/>
			<path class="st16" d="M162.6,160c-0.4,4.7-0.6,9.6-0.3,14.4c0.2,3.2,0.5,7.1,0.8,11.4l-0.2-0.1h0c-1.5,0-2.9-0.3-4.3-0.6
				c-7.1-1.8-12-7-12-7c-0.3-16.9,3.7-30.2,5.2-32.5c2.1-3.1,3.5-5.2,13.3-7.3c0.3-0.1,0.6-0.1,0.9-0.2l-0.1,0
				C165.9,138.1,163.6,148.1,162.6,160z"/>
			<path class="st16" d="M247.4,159c0,8.2-2.7,22.6-2.7,22.6c-3.2,1.4-12.6,2.8-18.1,3.5c-2.4,0.3-4,0.5-4,0.5
				c-1.6,5.3-3,21-3.1,21.9c0,0,0,0,0,0l-0.1,0c-0.3-8.3-0.6-17.4-0.5-23.6c0-1.1,0.1-2,0.1-2.9c0.5-11,3.4-34.2,5.4-42.5
				C232,140.1,247.5,143.3,247.4,159z"/>
			<path class="st17" d="M232.3,163.9c-2.4,7-4.9,17.8-5.6,21.1c-2.4,0.3-4,0.5-4,0.5c-1.6,5.3-3,21-3.1,21.9c0,0,0,0,0,0l-0.1,0
				c-0.3-8.3-0.6-17.4-0.5-23.6c0-0.1,0.1-0.1,0.1-0.2C225.6,169.7,232.3,163.9,232.3,163.9z"/>
			<path class="st17" d="M163.1,185.8l-0.2-0.1h0c-1.5,0-2.9-0.3-4.3-0.6c-0.1-0.9,0.4-17.2,4-25.1c-0.4,4.7-0.6,9.6-0.3,14.4
				C162.4,177.6,162.7,181.5,163.1,185.8z"/>
			<path class="st17" d="M217.1,136.8c-0.1,0.2-0.1,0.4-0.2,0.6c-4.8,1.8-12.4,4-20,3.9c-9.1-0.1-14.6-4.1-17-6.3
				c4.8-1.1,9.8-2.3,13.2-2.8c0.1,1.5,0.2,2.9,0.4,3.3c0.5,1.1,1.7,3.3,5.4,2.8c3.7-0.5,5-2.3,5-2.7c0-0.1,0.1-0.7,0.1-1.6
				C204,133.9,210,135.2,217.1,136.8z"/>
			<g>
				<path class="st18" d="M220.2,222.6c-9.9,2.2-19.4,3-27.7,3c-12,0-21.3-1.6-25.7-2.5c0-0.3-0.1-0.7-0.1-1
					c7,1.5,28.8,5.1,53.4-0.4C220.2,221.9,220.2,222.3,220.2,222.6z"/>
				<path class="st18" d="M220.8,229.3c-5.2,1-14,2.3-25.8,2.5v35c0,0.3-0.2,0.5-0.5,0.5c-0.3,0-0.5-0.2-0.5-0.5v-35
					c-1,0-1.9,0-2.8,0c-12.5,0-20-1.2-23.5-1.9c0-0.2-0.1-0.6-0.1-1.1c3.6,0.8,12.3,2.2,27,2c12-0.2,20.9-1.5,26.2-2.5
					C220.7,228.6,220.7,228.9,220.8,229.3z"/>
			</g>
			<path class="st2" d="M222.7,106.1c-1.9,4.9-7.7,5.2-7.7,5.2s-0.1,0.2-0.2,0.6c0,0,0,0,0,0c-0.7,2.4-3.7,10.9-10.2,14.7
				c-2,1.2-4.3,1.9-7,1.9c-1.8,0-3.4-0.3-4.8-0.9c-9.2-3.3-12.2-15-12.2-15h-0.3c-4.3-0.1-6-5-6-9.2c0-1.1,0.1-2.1,0.3-3v0
				c0.1-0.6,0.3-1.1,0.5-1.5c0.4-0.9,1-1.4,1.7-1.3c2.6,0.3,3.1,4.3,3.2,6.6c0,0.5,0,1.1,0,1.6c0,0,0.1-0.3,0.2-0.7
				c0.6-2.2,2.7-9.3,4.4-13.2c2.1-4.8,2.6-6,4.7-5.1c2.1,0.9,15.3,2.6,17.6,1.4c0,0,2.8,1.2,4.7,4.7c0.4,0.8,0.7,1.5,1,2.3
				c0.7,2,1.3,4.1,1.7,5.9c0,0,0,0,0,0.1c0.1,0.3,0.1,0.5,0.2,0.8c0,0,0,0.1,0,0.1c0.4,1.9,0.6,3.1,0.6,3.1s2-5.8,4.4-6.5
				c0.3-0.1,0.7-0.1,1,0C222.7,99,224.4,101.9,222.7,106.1z"/>
			<path class="st19" d="M220.6,98.7c-0.3-0.1-0.7-0.1-1,0c-2.4,0.6-4.4,6.5-4.4,6.5s-0.5-3.6-1.7-7.5c-0.2-0.8-0.5-1.7-0.8-2.5
				c-0.3-0.9-0.6-1.6-1-2.3c-1.9-3.5-4.7-4.7-4.7-4.7c-2.2,1.3-15.4-0.5-17.6-1.4c-2.1-0.9-2.7,0.3-4.7,5.1c-0.8,2-1.8,4.7-2.6,7.2
				c-1.1,3.6-2,6.7-2,6.7s0-0.7,0-1.6c-0.1-2.3-0.7-6.3-3.2-6.6c-0.7-0.1-1.3,0.4-1.7,1.3c-0.4,0.7-0.5,1.5-0.5,1.5
				c-0.8-1.6,0.2-5.5,2-9.6c0.6-1.3,1.2-2.6,1.9-3.9c2.9-5.4,6.3-7.8,9.2-7c0,0,1.9-6.7,9.8-8c7.9-1.2,14.6,2.4,19.1,9
				c1.9,2.8,2.9,6.3,3.4,9.5C220.8,94.9,220.6,98.7,220.6,98.7z"/>
			<polygon class="st8" points="174.7,100.4 174.7,100.4 174.7,100.4 			"/>
			<path class="st8" d="M180.2,104.2c0,0.5,0,1.1,0,1.6C180.2,105.8,180.2,105.1,180.2,104.2z"/>
			<path class="st20" d="M162.6,411.4c0,0-7.3,0.4-15.6,7.1c0,0,12,0.3,17.5,0C164.5,418.5,163.9,414.5,162.6,411.4z"/>
			<path class="st20" d="M241.8,412.3c0,0,2.6-2.5,8.5-0.9c5.8,1.6,8.1,7.2,8.1,7.2h-15.2L241.8,412.3z"/>
			<path class="st2" d="M161.7,223.8c0.1,1.1,0.2,2.4,0.5,3.6c-5.6-1.1-17.4-9.2-17.4-9.2s-0.8-1.8-1.3-5.4
				c-0.3-2.2-0.6-5.1-0.6-8.6c0.1-9.2,0.9-20.9,3.7-26.1c0,0,4.9,5.2,12,7c1.4,0.4,2.8,0.6,4.3,0.6h0c0.9,3.3-0.4,16.9-0.5,18.2
				c0,0.1,0,0.1,0,0.1c2.1,1,4.4,3.8,5,4.6C166.4,209.8,161.1,214.4,161.7,223.8z"/>
			<path class="st21" d="M173.7,151.6c-0.2,4.4-0.4,8.9-0.5,12.7l-11,0.5c0.2-4.4,0.7-8.8,1.2-12.6
				C165.5,151.6,169.2,150.9,173.7,151.6z"/>
			<path class="st21" d="M222.2,151.8c-0.6,3.9-1.1,8.1-1.6,12.1c-2.6-0.1-6.5-0.4-9.4-0.7c0.5-4.2,1.2-8.2,2-11.9
				C215.7,151.3,219.1,151.4,222.2,151.8z"/>
			<g>
				<path class="st18" d="M174.4,220.5c-0.2,0-0.4-0.2-0.5-0.4c-1.5-6.8-3.1-35.4-3.2-36.6c0-0.1,0-0.3,0.1-0.4
					c0.1-0.1,0.2-0.1,0.4-0.2c2.5,0.1,5,0.1,7.5,0.1c18.7,0,32.8-2,32.9-2c0.1,0,0.3,0,0.4,0.1c0.1,0.1,0.2,0.2,0.2,0.4l1.2,35.9
					c0,0.3-0.2,0.5-0.5,0.5L174.4,220.5C174.4,220.5,174.4,220.5,174.4,220.5z M171.8,184c0.2,4,1.7,28.6,3,35.5l37.6-2.5l-1.1-34.9
					c-2.8,0.4-15.9,2-32.5,2C176.4,184.1,174,184,171.8,184z"/>
			</g>
			<g>
				<path class="st18" d="M222.7,186c0,0-0.1,0-0.1,0c-0.3-0.1-0.4-0.3-0.4-0.6c0.2-0.8,0.5-2,0.8-3.5c1.6-6.8,4.5-19.4,7.7-24.1
					c0.2-0.2,0.5-0.3,0.7-0.1c0.2,0.2,0.3,0.5,0.1,0.7c-3.1,4.5-6,17-7.5,23.7c-0.4,1.5-0.6,2.8-0.9,3.6
					C223.1,185.8,222.9,186,222.7,186z"/>
			</g>
			<g>
				<path class="st2" d="M204.7,126.6c-0.1,1.1-0.3,2.9-0.4,4.5c-0.1,1-0.2,2.1-0.3,2.8c-0.1,0.9-0.1,1.5-0.1,1.6
					c0,0.4-1.2,2.1-5,2.7c-3.7,0.5-4.9-1.7-5.4-2.8c-0.2-0.4-0.3-1.8-0.4-3.3c0-0.4-0.1-0.8-0.1-1.3c-0.1-1.3-0.1-2.5-0.1-3.2
					c1.5,0.5,3.1,0.8,4.8,0.9C200.4,128.5,202.7,127.8,204.7,126.6z"/>
				<path class="st9" d="M204.7,126.6c-0.1,1.1-0.3,2.9-0.4,4.5c-5.6,1.8-9.4,0.6-11.2-0.2c-0.1-1.3-0.1-2.5-0.1-3.2
					c1.5,0.5,3.1,0.8,4.8,0.9C200.4,128.5,202.7,127.8,204.7,126.6z"/>
			</g>
			<path class="st9" d="M180.4,112.7c-4.3-0.1-6-5-6-9.2c0-1.1,0.1-2.1,0.3-3v0c0.1-0.6,0.3-1.1,0.5-1.5c0.4-0.9,1-1.4,1.7-1.3
				c2.6,0.3,3.1,4.3,3.2,6.6c0,0.5,0,1.1,0,1.6c0,0,0.1-0.3,0.2-0.7C180.1,107.7,180.1,110.3,180.4,112.7z"/>
			<path class="st9" d="M222.7,106.1c-1.9,4.9-7.7,5.2-7.7,5.2s-0.1,0.2-0.2,0.6c0.7-4.4,0.2-8.1-0.2-9.8c0.4,1.9,0.6,3.1,0.6,3.1
				s2-5.8,4.4-6.5c0.3-0.1,0.7-0.1,1,0C222.7,99,224.4,101.9,222.7,106.1z"/>
			<path class="st9" d="M162.4,204c-1.9,0.1-3.1,0.8-3.1,0.8c0.6-3.1-0.3-14.5-0.7-19.6c1.4,0.4,2.8,0.6,4.3,0.6h0
				C163.8,189.1,162.5,202.7,162.4,204z"/>
			<path class="st9" d="M162.1,227.5c-5.6-1.1-17.4-9.2-17.4-9.2s-0.8-1.8-1.3-5.4c2.8,2.5,10.4,8.8,18.3,10.9
				C161.7,225,161.9,226.2,162.1,227.5z"/>
			<g>
				<path class="st2" d="M244.7,181.5c-0.3,2.2-1.8,11.2-4.9,21.3c-3.6,11.6-7.1,20.8-7.1,20.8s0,3.5-4.5,15.1
					c-3,7.7-5.8,12.3-7.3,14.8c-0.2-1.3-0.8-4.3-3.3-9.5c-1.8-3.7-3.8-5.8-5.4-6.9c-0.9-0.6-1.7-1-2.2-1.2c2.5-7,8.8-16.1,8.8-16.1
					s0.2-4.6,0.8-12.4c0.1-0.8,1.5-16.5,3.1-21.9c0,0,1.6-0.2,4-0.5C232.2,184.3,241.6,182.9,244.7,181.5z"/>
				<path class="st9" d="M226.7,185c-2.4,9.4-5.8,29.2-5.9,37.1l-8.5,14.9c-0.9-0.6-1.7-1-2.2-1.2c2.5-7,8.8-16.1,8.8-16.1
					s0.2-4.6,0.8-12.4c0.1-0.8,1.5-16.5,3.1-21.9C222.7,185.5,224.3,185.3,226.7,185z"/>
			</g>
			<path class="st11" d="M191.9,104.1c0,1.4-0.4,2.6-0.9,2.6c-0.5,0-0.9-1.2-0.9-2.6c0-1.4,0.4-2.6,0.9-2.6
				C191.5,101.5,191.9,102.7,191.9,104.1z"/>
			<path class="st11" d="M208.1,104.1c0,1.4-0.4,2.6-0.9,2.6c-0.5,0-0.9-1.2-0.9-2.6c0-1.4,0.4-2.6,0.9-2.6
				C207.7,101.5,208.1,102.7,208.1,104.1z"/>
			<g>
				<g>
					<path class="st8" d="M201.7,114.4c-0.8,0-1.8-0.1-2.9-0.3c-0.1,0-0.2-0.2-0.2-0.3c0-0.1,0.2-0.2,0.3-0.2c3.6,0.6,5.4,0,6-0.3
						c-2.8-3.6-3.5-11-3.5-11.4c0-0.1,0.1-0.3,0.2-0.3c0.1,0,0.3,0.1,0.3,0.2c0,0.1,0.7,7.9,3.6,11.3c0,0.1,0.1,0.1,0.1,0.2
						c0,0.1,0,0.1-0.1,0.2C205.3,113.6,204.3,114.4,201.7,114.4z"/>
				</g>
				<g>
					<path class="st8" d="M216.7,108.3C216.7,108.3,216.7,108.3,216.7,108.3c-0.2,0-0.3-0.2-0.2-0.3c0.5-3.1,3.2-6.5,3.3-6.6
						c0.1-0.1,0.2-0.1,0.3,0c0.1,0.1,0.1,0.2,0,0.4c0,0-2.7,3.5-3.2,6.4C217,108.2,216.9,108.3,216.7,108.3z"/>
				</g>
				<g>
					<path class="st8" d="M178.4,108.7C178.4,108.7,178.4,108.7,178.4,108.7c-0.2,0-0.3-0.1-0.2-0.3c0.2-3.5-1.5-7.8-1.6-7.9
						c-0.1-0.1,0-0.3,0.1-0.3c0.1-0.1,0.3,0,0.3,0.1c0.1,0.2,1.9,4.5,1.6,8.1C178.6,108.6,178.5,108.7,178.4,108.7z"/>
				</g>
				<g>
					<path class="st8" d="M177.4,106.6c-0.2,0-0.4,0-0.6-0.2c-0.1-0.1-0.3-0.3-0.3-0.6c0-1.1,1.2-1.8,1.3-1.9c0.1-0.1,0.3,0,0.3,0.1
						c0.1,0.1,0,0.3-0.1,0.3c0,0-1,0.6-1,1.4c0,0.2,0.1,0.2,0.1,0.2c0.2,0.1,0.8,0,1.1-0.1c0.1-0.1,0.3,0,0.3,0.1
						c0.1,0.1,0,0.3-0.1,0.3C178.3,106.4,177.9,106.6,177.4,106.6z"/>
				</g>
				<g>
					<path class="st8" d="M218.3,106.9c-0.6,0-1.1-0.2-1.2-0.3c-0.1-0.1-0.2-0.2-0.1-0.3c0.1-0.1,0.2-0.2,0.3-0.1
						c0.3,0.1,1.2,0.4,1.5,0.1c0.2-0.3-0.4-1.1-0.9-1.7c-0.1-0.1-0.1-0.3,0-0.3c0.1-0.1,0.3-0.1,0.4,0c0.3,0.3,1.5,1.6,0.9,2.3
						C219,106.8,218.7,106.9,218.3,106.9z"/>
				</g>
			</g>
			<path class="st22" d="M185.7,99.3c0,0,0.1-0.1,0.3-0.2c0.2-0.1,0.5-0.4,1-0.6c0.4-0.2,0.9-0.4,1.4-0.6c0.3-0.1,0.6-0.2,0.8-0.2
				c0.3-0.1,0.6-0.2,0.9-0.2c0.3,0,0.6-0.1,0.9-0.1c0.3-0.1,0.6-0.1,0.9,0c0.6,0,1.1,0,1.6,0.1c0.9,0.2,1.5,0.4,1.5,0.4
				c0.2,0.1,0.3,0.3,0.2,0.5c-0.1,0.2-0.2,0.3-0.3,0.3l-0.1,0c0,0-0.6,0-1.4,0c-0.4-0.1-0.9,0.1-1.4,0.1c-0.3,0-0.5,0-0.8,0.1
				c-0.3,0-0.5,0.1-0.8,0.1c-0.3,0-0.5,0.1-0.8,0.2c-0.3,0.1-0.5,0.1-0.8,0.2c-0.5,0.2-1,0.3-1.4,0.4c-0.4,0.1-0.7,0.2-1,0.3
				c-0.2,0.1-0.4,0.1-0.4,0.1c-0.2,0.1-0.4,0-0.5-0.2C185.6,99.6,185.6,99.5,185.7,99.3L185.7,99.3z"/>
			<path class="st22" d="M202.4,98.6c0,0,0.1-0.1,0.3-0.3c0.1-0.1,0.2-0.2,0.3-0.3c0.1-0.1,0.3-0.2,0.5-0.4c0.4-0.3,0.9-0.5,1.5-0.8
				c0.3-0.1,0.6-0.2,0.9-0.3c0.3-0.1,0.6-0.2,1-0.2c0.3,0,0.7-0.1,1-0.1c0.3,0,0.6,0,0.9,0c0.3,0,0.6,0.1,0.9,0.1
				c0.3,0,0.5,0.1,0.8,0.2c0.9,0.3,1.5,0.6,1.5,0.6c0.2,0.1,0.3,0.3,0.2,0.5c-0.1,0.1-0.2,0.2-0.4,0.2h-0.1c0,0-0.6,0-1.5-0.1
				c-0.2,0-0.4-0.1-0.7,0c-0.2,0-0.5,0-0.8,0c-0.3,0-0.5,0-0.8,0c-0.3,0-0.6,0.1-0.8,0.1c-0.6,0-1.1,0.3-1.6,0.3
				c-0.5,0.2-1,0.3-1.4,0.5c-0.2,0.1-0.4,0.1-0.6,0.2c-0.2,0.1-0.4,0.1-0.5,0.2c-0.3,0.1-0.4,0.1-0.4,0.1c-0.2,0-0.4-0.1-0.4-0.3
				C202.2,98.8,202.2,98.7,202.4,98.6L202.4,98.6z"/>
			<path class="st23" d="M207.8,116c0,0-0.3,1.3-1.1,3c-1.2,2.8-3.6,6.4-7.6,6.6c-3.6,0.1-5.9-2.5-7.3-4.8c-1-1.8-1.5-3.4-1.5-3.4
				C190.6,117.2,202.3,117.9,207.8,116z"/>
			<path class="st10" d="M207.8,116c0,0-0.3,1.3-1.1,3c-6.1,2.4-11.9,2.1-14.9,1.8c-1-1.8-1.5-3.4-1.5-3.4
				C190.6,117.2,202.3,117.9,207.8,116z"/>
			<g>
				<path class="st8" d="M186.9,237.4c-1.4,0-3.5-0.4-6.1-2.2c-0.1-0.1-0.1-0.2-0.1-0.3c0.1-0.1,0.2-0.1,0.3-0.1
					c4.8,3.2,7.7,1.7,7.7,1.7c0.1-0.1,0.3,0,0.3,0.1c0.1,0.1,0,0.3-0.1,0.3C189,237,188.2,237.4,186.9,237.4z"/>
			</g>
			<path class="st24" d="M197.6,253c0.6,0,1.3,0.1,1.9,0.2C198.9,253.4,198.2,253.3,197.6,253z"/>
			<path class="st25" d="M182.2,99.1c-1.1,3.6-2,6.7-2,6.7s0-0.7,0-1.6c-0.1-2.3-0.7-6.3-3.2-6.6c-0.7-0.1-1.3,0.4-1.7,1.3
				c-0.4,0.7-0.5,1.5-0.5,1.5c-0.8-1.6,0.2-5.5,2-9.6C177.5,93,179.2,96.3,182.2,99.1z"/>
			<path class="st25" d="M220.6,98.7c-0.3-0.1-0.7-0.1-1,0c-2.4,0.6-4.4,6.5-4.4,6.5s-0.5-3.6-1.7-7.5c2.8-2.3,4.9-4.9,6.5-7.2
				C220.8,94.9,220.6,98.7,220.6,98.7z"/>
			<path class="st26" d="M202.8,422.4C202.8,422.4,202.8,422.4,202.8,422.4c-0.1-0.3-0.2-0.5-0.2-0.5
				C202.6,422,202.7,422.2,202.8,422.4z"/>
			<path class="st27" d="M202.8,422.4c0-0.2-0.1-0.3-0.2-0.5l0,0c-0.6-1.8-2.1-3.6-3.1-3.2c-1.9,0.6,0.8,7.5,2.8,6.4
				c0.3-0.2,0.4-0.4,0.5-0.7C203,423.9,203,423.1,202.8,422.4z"/>
			<path class="st28" d="M231.7,421.2c-0.1-0.3-0.2-0.5-0.2-0.5S231.6,420.9,231.7,421.2z"/>
			<path class="st28" d="M240.1,420.6c-0.1-0.5-0.3-0.8-0.3-0.8S239.9,420.2,240.1,420.6z"/>
			<path class="st28" d="M241.8,417.2c0,0-0.1,0-0.3-0.1C241.6,417.2,241.7,417.2,241.8,417.2z"/>
			<path class="st29" d="M241.8,413.6v3.6c0,0-0.1,0-0.2-0.1c-0.1,0-0.2-0.1-0.3-0.1c-3.6-0.5-17.1,1.6-27.3,3.3
				c-5.1,0.9-9.4,1.7-11.1,2c-0.1-0.3-0.2-0.5-0.2-0.5c-0.7-1.8-2.1-3.6-3.1-3.2c2.9-1,5.7-1.8,8.5-2.5
				C226.2,411.8,241.8,413.6,241.8,413.6z"/>
			<path class="st28" d="M202.8,424.4c-0.1,0.2-0.3,0.5-0.5,0.7C202.5,424.9,202.7,424.6,202.8,424.4z"/>
			<polygon class="st28" points="202.6,421.9 202.6,421.9 202.6,421.9 			"/>
			<path class="st30" d="M213.9,420.4c-5.1,0.9-9.4,1.7-11.1,2c-0.1-0.3-0.2-0.5-0.2-0.5c-0.7-1.8-2.1-3.6-3.1-3.2
				c2.9-1,5.7-1.8,8.5-2.5C209.8,417.6,212,419.1,213.9,420.4z"/>
			<g>
				<g>
					<path class="st31" d="M220.9,416.1c-0.1,0-0.2,0-0.3,0c-0.7,0-1.3-0.5-1.5-1.2l-17-94l-20.5-113.2c-0.1-0.8,0.4-1.6,1.2-1.7
						c0.8-0.1,1.6,0.4,1.7,1.2l21.5,118.8l16,88.5C222.2,415.2,221.7,415.9,220.9,416.1z"/>
				</g>
				<path class="st32" d="M220.9,416.1c-0.1,0-0.2,0-0.3,0c-0.7,0-1.3-0.5-1.5-1.2l-17-94c1.2,1.6,2.6,3.2,3.9,5l16,88.5
					C222.2,415.2,221.7,415.9,220.9,416.1z"/>
			</g>
			<g>
				<path class="st33" d="M242.5,421.9c-1.1,0.8-1.9-0.4-2.3-1.3c-0.1-0.4-0.2-0.7-0.3-0.7c0,0.1,0.1,0.4,0.3,0.7
					c0.1,0.4,0,0.8-0.3,1.3c-0.8,1.1-5.1-1.2-5.1-1.2s0,1.1-1.1,1.8c-0.8,0.5-1.5-0.7-1.9-1.4c-0.1-0.3-0.2-0.5-0.2-0.5
					s0.1,0.2,0.2,0.5c0.2,0.6,0.1,1.6-1.7,2.1c-2.7,0.9-4.4-0.8-4.4-0.8s-0.4,1.2-2.2,1.7c-1.9,0.5-4-1.7-4-1.7s0,1.2-0.8,2.1
					c-0.2,0.2-0.5,0.4-0.8,0.6c-1.5,0.7-3.7-1.1-4-1.3c0.1,0.1,0.3,1-2.8,1.7c-3.4,0.8-5.7-0.6-5.7-0.6c-1.7,1.3-3.1,0-3.1,0
					c0.3-0.1,0.4-0.4,0.5-0.7c0.3-0.7,0.1-1.5,0-2c1.9-0.3,6.7-1.2,12.3-2.2c10-1.7,22.6-3.6,26.1-3.1c0.1,0,0.3,0,0.3,0.1
					c0.1,0,0.2,0,0.2,0.1C241.8,417.2,244.1,420.7,242.5,421.9z"/>
				<path class="st34" d="M218.6,424.6c-0.2,0.2-0.5,0.4-0.8,0.6c-1.5,0.7-3.7-1.1-4-1.3c0.1,0.1,0.3,1-2.8,1.7
					c-3.4,0.8-5.7-0.6-5.7-0.6c-1.7,1.3-3.1,0-3.1,0c0.3-0.1,0.4-0.4,0.5-0.7c0.3-0.7,0.1-1.5,0-2c1.9-0.3,6.7-1.2,12.3-2.2
					C216.1,421.8,217.4,423.3,218.6,424.6z"/>
			</g>
			<g>
				<path class="st34" d="M191.4,227.1c-0.3,0.2-0.5,0.4-0.5,0.4c0.1,0.1,0.1,0.2,0.2,0.3c1.3,2.1-0.1,4.2-0.5,4.7
					c-0.1,0.1-0.1,0.1-0.1,0.1c0.1,0.1,0.1,0.3,0.1,0.4c0.2,0.5,0.3,1,0.2,1.4c0,1.8-1.7,2.4-2,2.5c-0.4,0.1-0.3,2.9-4.7,2.5
					c-4.5-0.4-9.7-6.2-9.7-6.2c-4.8-2.6-12.3-5.6-12.3-5.6c-0.2-1.2-0.4-2.3-0.5-3.4c-0.7-9.6,4.7-14.3,5.8-15.4
					c0.1-0.1,0.2-0.2,0.2-0.3l10.7,8.2c7.8-6.2,10.7-4.5,12.8-1.1c1.7,2.7,0.7,6.5,0.2,7.8c-0.1,0.2-0.2,0.4-0.2,0.5
					c0,0,0,0.1,0,0.1C192.4,225.6,191.9,226.6,191.4,227.1z"/>
				<g>
					<g>
						<path class="st8" d="M190.7,232.9c-0.7,0.2-1.8,0.5-3.2,0.5c-2,0-4.5-0.6-7-2.8c-0.1-0.1-0.1-0.2,0-0.4c0.1-0.1,0.2-0.1,0.3,0
							c4.3,3.7,8.4,2.6,9.8,2.1c-0.1,0.1-0.1,0.1-0.1,0.1C190.6,232.7,190.6,232.8,190.7,232.9z"/>
					</g>
					<g>
						<path class="st8" d="M190.9,227.5c0.1,0.1,0.1,0.2,0.2,0.3c-0.3,0.1-0.6,0.1-0.9,0.1c-1.5,0-3.8-0.6-6.9-3.1
							c-0.1-0.1-0.1-0.2,0-0.3c0.1-0.1,0.2-0.1,0.3,0c4.2,3.4,6.8,3.1,7.8,2.8C191.2,227.3,190.9,227.5,190.9,227.5z"/>
					</g>
					<g>
						<path class="st8" d="M191.4,223.3c-0.1,0.2-0.2,0.4-0.2,0.5c-1.3-0.2-3.6-2.5-5.1-5.5c-0.1-0.1,0-0.3,0.1-0.3
							c0.1-0.1,0.3,0,0.3,0.1C188.1,221.3,190.5,223.3,191.4,223.3z"/>
					</g>
				</g>
				<path class="st35" d="M190.9,234.3c0,1.8-1.7,2.4-2,2.5c-0.4,0.1-0.3,2.9-4.7,2.5c-4.5-0.4-9.7-6.2-9.7-6.2
					c-4.8-2.6-12.3-5.6-12.3-5.6c-0.2-1.2-0.4-2.3-0.5-3.4C165.5,226.5,181.3,236.9,190.9,234.3z"/>
			</g>
			<g>
				<path class="st34" d="M221,254.1c0,0-0.8,1.2-2.5,3.3c-0.2,0.3-0.5,0.6-0.8,1c-1.2,1.5-2.6,3.3-4.4,5.4
					c-5.1,6.1-10.1,12.2-14.9,13.6c-3.8,1.1-6.6,0.3-6.8-1.2c-0.1-0.4,0-0.8,0.3-1.2c0-0.1,0.1-0.2,0.2-0.3c0,0-0.2-0.1-0.4-0.2h0
					c-0.9-0.4-2.7-1.6-1.9-4.1c0,0,0,0-0.1-0.1c-0.1-0.1-0.2-0.2-0.3-0.4c-0.8-0.8-2.3-2.9-1.5-4.8c0,0,0,0,0,0
					c0-0.1,0.1-0.2,0.1-0.3c0,0-0.1-0.1-0.3-0.3c-0.7-0.8-2.4-3.1-0.7-5.6c1.8-2.7,5.1-6.1,10.6-6.1c0.6,0,1.3,0.1,1.9,0.2
					c0,0,5-8.7,6.8-12.1c0-0.1,0.1-0.2,0.1-0.2c0.2-0.3,0.3-0.6,0.5-0.9c1.4-2.7,2.1-4.4,2.1-4.4c0.2,0,0.5,0.1,0.9,0.2
					c0.6,0.2,1.5,0.6,2.5,1.4c1.6,1.2,3.4,3.2,5.2,6.7c2.4,5,3.1,7.9,3.3,9.3c0,0.1,0,0.1,0,0.2C221,253.9,221,254.1,221,254.1z"/>
				<g>
					<path class="st8" d="M194.1,261.6c0,0.1,0,0.3-0.2,0.3c-2.3,0.5-4.8,2.2-6,3.3c0-0.1,0.1-0.2,0.1-0.3c0,0-0.1-0.1-0.3-0.3
						c1.3-1.1,3.7-2.7,6-3.2C193.9,261.4,194,261.5,194.1,261.6z"/>
				</g>
				<g>
					<path class="st8" d="M196.5,266.5c0,0.1-0.1,0.3-0.2,0.3c-3.2,0.4-5.6,2.5-6.6,3.6c-0.1-0.1-0.2-0.2-0.3-0.4
						c1.1-1.2,3.6-3.3,6.9-3.7C196.4,266.3,196.5,266.4,196.5,266.5z"/>
				</g>
				<g>
					<path class="st8" d="M197,272.5c-2.2,1.9-4,2.4-5.2,2.5c0-0.1,0.1-0.2,0.2-0.3c0,0-0.2-0.1-0.4-0.2c1.1-0.1,2.9-0.5,5.1-2.4
						c0.1-0.1,0.3-0.1,0.3,0C197.2,272.2,197.1,272.4,197,272.5z"/>
				</g>
				<path class="st35" d="M212.5,237.2c-2.9,3.7-10.9,15.4-12.9,16c0,0,5-8.7,6.8-12.1c0-0.1,0.1-0.2,0.1-0.2
					c0.2-0.3,0.3-0.6,0.5-0.9c1.4-2.7,2.1-4.4,2.1-4.4c0.2,0,0.5,0.1,0.9,0.2C210.6,236,211.5,236.4,212.5,237.2z"/>
				<path class="st35" d="M221,254.1c0,0-0.8,1.2-2.5,3.3c-0.2,0.3-0.5,0.6-0.8,1c-1.2,1.5-2.6,3.3-4.4,5.4
					c-5.1,6.1-10.1,12.2-14.9,13.6c-3.8,1.1-6.6,0.3-6.8-1.2c1.9-0.6,4.4-1.5,7.7-2.6c8.4-2.9,18.1-15.4,21.6-20.3
					c0,0.1,0,0.1,0,0.2C221,253.9,221,254.1,221,254.1z"/>
			</g>
		</g>
		<path class="st6" d="M292.5,411.5c-1.2,3.7-1.7,6.6-1.7,6.6s6.7,0,10-0.6l-3.4-6.4L292.5,411.5z"/>
	</g>
	<g>
		<path class="st36" d="M66.7,306.1l-3.3,114c0,0-2.2,0-4.9,0c-3.6,0-8,0-8.7,0c-1.1,0.1,12.4-85.5,16-108.4
			C66.3,308.2,66.7,306.1,66.7,306.1z"/>
		<polygon class="st36" points="105.2,420.1 89.5,420.1 86.5,413.5 87.1,401.8 100.8,401.8 		"/>
		<path class="st37" d="M65.8,311.7c0.6-3.5,0.9-5.6,0.9-5.6l-3.3,114c0,0-2.2,0-4.9,0L65.8,311.7z"/>
		<polygon class="st37" points="95.4,420.1 89.5,420.1 86.5,413.5 87.1,401.8 93.1,401.8 		"/>
		<polygon class="st38" points="136.1,419.9 111.8,419.9 111.8,401.8 87.1,401.8 86.2,420.1 63.4,420.1 66.7,306.1 118.7,306.1 		
			"/>
		<path class="st36" d="M111.2,318.3c0,0.8-0.6,1.4-1.4,1.4H79.3c-0.8,0-1.4-0.6-1.4-1.4v-3.7c0-0.8,0.6-1.4,1.4-1.4h30.6
			c0.8,0,1.4,0.6,1.4,1.4V318.3z"/>
		<polygon class="st16" points="136.1,419.9 115.8,419.9 117.3,306.1 118.7,306.1 		"/>
		<polygon class="st39" points="70.5,374.1 122.8,374.1 94.5,335.2 		"/>
		<g>
			<path class="st40" d="M117.3,371.5C117.3,371.5,117.3,371.5,117.3,371.5H75.6c-0.1,0-0.2-0.1-0.3-0.2c-0.1-0.1-0.1-0.2,0-0.4
				l19.2-31c0.1-0.1,0.2-0.2,0.3-0.2c0.1,0,0.2,0.1,0.3,0.1l22.5,31c0.1,0.1,0.1,0.2,0.1,0.3C117.7,371.3,117.5,371.5,117.3,371.5z
				 M76.2,370.8h40.4l-21.8-30.1L76.2,370.8z"/>
		</g>
		<g>
			<path class="st33" d="M132.9,416.5c0,0.1,0,0.2-0.1,0.3c-0.1,0.1-0.2,0.1-0.3,0.1h-18.3c-0.2,0-0.3-0.2-0.3-0.3v-17.3H83.3v17.5
				c0,0.2-0.2,0.3-0.3,0.3H66.7c-0.1,0-0.2,0-0.3-0.1c-0.1-0.1-0.1-0.2-0.1-0.2L70,306.1h0.7L67,416.4h15.6v-17.5
				c0-0.2,0.2-0.3,0.3-0.3h31.3c0.2,0,0.3,0.2,0.3,0.3v17.3h17.5l-16.4-110.1h0.7L132.9,416.5z"/>
		</g>
		<path class="st33" d="M74.7,316.5c0,1.4-0.6,2.5-1.3,2.5c-0.7,0-1.3-1.1-1.3-2.5c0-1.4,0.6-2.6,1.3-2.6
			C74.2,313.9,74.7,315.1,74.7,316.5z"/>
		<path class="st33" d="M115.7,316.5c0,1.4-0.6,2.5-1.3,2.5c-0.7,0-1.3-1.1-1.3-2.5c0-1.4,0.6-2.6,1.3-2.6
			C115.1,313.9,115.7,315.1,115.7,316.5z"/>
		<polygon class="st41" points="94.5,364.4 91,350.5 100.6,350.5 96.6,364.4 		"/>
		<path class="st41" d="M94,367.7c0-1,0.8-1.7,1.7-1.7s1.7,0.8,1.7,1.7s-0.8,1.7-1.7,1.7S94,368.6,94,367.7z"/>
	</g>
	<g>
		<path class="st34" d="M450.2,371.5l-1,5.9l-6.7,39.9c-6,1.4-11.7,2.1-16.9,2.4c-16.4,0.9-27.9-2.4-27.9-2.4l-5.3-43.8l-0.2-1.9
			H450.2z"/>
		<path class="st35" d="M450.2,371.5l-1,5.9c-5.2,1-10.4,1.4-15.4,1.6c-18.4,0.5-34.7-3.6-41.4-5.6l-0.2-1.9H450.2z"/>
		<path class="st35" d="M450.2,371.5l-1,5.9l-6.7,39.9c-6,1.4-11.7,2.1-16.9,2.4c1.8-7,6.1-25.8,8.2-40.7c0.4-2.6,0.6-5.1,0.8-7.5
			H450.2z"/>
		<g>
			<path class="st42" d="M418.8,368.8h-5.6c0,0-1-5.2-2-10.4c-0.9-4.8-1.9-9.5-2-10.1c0,0,1.5,1.3,4.8,0.9l3.4,14L418.8,368.8z"/>
			<path class="st43" d="M418.8,368.8h-5.6c0,0-1-5.2-2-10.4c1.7,1.6,4.3,3.7,6.3,4.8L418.8,368.8z"/>
		</g>
		<g>
			<path class="st27" d="M423.5,338.6l-3,0.7l-3.5,0.8l-1.8-6c2.4,0.3,4.3-0.4,5.3-1.1c0.9-0.5,1.3-1,1.3-1L423.5,338.6z"/>
			<path class="st42" d="M423.5,338.6l-3,0.7V333c0.9-0.5,1.3-1,1.3-1L423.5,338.6z"/>
		</g>
		<polygon class="st21" points="405.2,368.8 392.5,368.8 394.3,354.9 401,354.9 		"/>
		<polygon class="st44" points="405.2,368.8 399.5,368.8 398.7,354.9 401,354.9 		"/>
		<g>
			<path class="st27" d="M391.1,350.1c-0.9,4.5-4.5,6-5,5.5c-0.6-0.5-0.3-1.3,0.9-3.4c0.8-1.4,1.1-3.4,1.1-4.6c0-0.6,0-1,0-1
				l3.1,0.4C391.3,348.2,391.2,349.2,391.1,350.1z"/>
			<path class="st42" d="M391.1,350.1c-0.9-0.8-2.2-1.8-3-2.4c0-0.6,0-1,0-1l3.1,0.4C391.3,348.2,391.2,349.2,391.1,350.1z"/>
		</g>
		<path class="st29" d="M413.9,349.2l8-6.7h11l0,0l-9.5-3.9l-6.5,1.5l-7.8,8.1C409.1,348.3,410.3,349.9,413.9,349.2z"/>
		<path class="st29" d="M415.1,334.2c0,0,1.4-2.4,6.7-2.2C421.7,332,420.1,334.9,415.1,334.2z"/>
		<polygon class="st45" points="390.7,340.1 387.8,340.1 387,346.5 390,347 		"/>
		<g>
			<polygon class="st46" points="409.1,346 404,349.3 390,347 390,346.2 390.5,340.1 404.6,340.1 407.8,344.2 			"/>
			<path class="st45" d="M409.1,346l-5.1,3.3l-14-2.4l0.1-0.8c2.7,0.1,12.5,0.5,12.5,0.5l5.3-2.4L409.1,346z"/>
		</g>
		<g>
			<polygon class="st47" points="401.6,348.9 401.6,351.2 392.7,351.2 392.7,347.3 			"/>
			<polygon class="st48" points="401.6,348.9 401.6,350.5 392.7,348 392.7,347.3 			"/>
		</g>
		<g>
			<polygon class="st34" points="401,354.9 394.3,354.9 394.3,351.2 399.9,351.2 			"/>
			<polygon class="st35" points="401,354.9 398.6,354.9 396.4,351.2 399.9,351.2 			"/>
		</g>
		<g>
			<polygon class="st21" points="389.3,342 389,345 387.8,344.9 386.3,344.7 386.6,341.7 389.1,342 			"/>
			<polygon class="st44" points="389.3,342 389,345 387.8,344.9 389.1,342 			"/>
		</g>
		<g>
			<polygon class="st27" points="440.9,368.8 418.8,368.8 417.3,362.9 413.9,349.2 422,342.5 433,342.5 438.5,360.9 			"/>
			<path class="st49" d="M440.9,368.8h-22.1l-1.5-5.9c1.7,0.3,6.6,1,10.1,1c2.8,0,7.8-1.8,11.1-3L440.9,368.8z"/>
		</g>
		<g>
			<path class="st33" d="M451.6,370.6c0,1-0.8,1.8-1.8,1.8h-57.2c-1,0-1.8-0.8-1.8-1.8c0-0.5,0.2-1,0.5-1.3c0.3-0.3,0.8-0.5,1.3-0.5
				h57.2C450.8,368.8,451.6,369.6,451.6,370.6z"/>
			<path class="st34" d="M451.6,370.6c0,1-0.8,1.8-1.8,1.8h-20.6l1.8-3.7h18.8C450.8,368.8,451.6,369.6,451.6,370.6z"/>
		</g>
		<path class="st50" d="M421.1,368.8c-0.1,0.9-0.2,2.1-0.3,3.7c-0.5,5.7-1.5,15.3-2.7,22.3c-0.9,5.2-1.9,9-3,8.8
			c-3.3-0.4-2.1-9.9-2.3-10.2c-0.2-0.3-2.9,10.7-5.7,10.2c-2.7-0.4-0.2-10.6,0-11.4c-0.4,0.8-4.6,10-6.9,9c-2.4-1,1.7-12.7,1.8-13.1
			c0.1-0.4-5.8,8.4-7.7,7.5c-1.8-0.9,0.3-3.8,2.1-9.6c1.1-3.5,3.7-9.4,5.7-13.6c0.7-1.5,1.3-2.8,1.8-3.7H421.1z"/>
		<path class="st21" d="M458.4,389.7c-0.6-1.1-4.3-1.2-7.6-1.7c-0.3-0.1-0.6-0.1-1-0.2c-0.5-0.1-1-0.2-1.4-0.4c0,0,0,0-0.1,0
			c-2.3-0.8-5.2-2.2-7.5-2.8c-0.3-0.1-0.6-0.2-0.9-0.2c-0.3,0-0.6-0.1-0.9-0.1c-0.8,0-1.5,0.2-1.9,0.9l-1.8-5.5l-0.3-0.9l-1.5-4.6
			l-0.3-0.9l-1.4-4.5c0,0,2-0.7,3.8-0.4c0.5,0.1,1,0.2,1.4,0.5c0.1,0.1,0.2,0.2,0.3,0.3c0.2,0.2,0.8-2.1,2.8-3.6
			c0.2-0.2,0.5-0.3,0.8-0.5c0.9-0.5,2.1-0.9,3.6-0.9c0.2,0,0.4,0,0.7,0c0.2,0,0.4,0,0.6,0.1c2.6,0.3,4.6,1.7,6.2,3.6
			c0.2,0.2,0.4,0.5,0.6,0.7c1.6,2.2,2.7,4.9,3.8,7.7c0.1,0.3,0.2,0.5,0.3,0.8c0,0,0,0.1,0,0.1c1.2,3.1,1.5,6.5,1.7,9v0
			c0.1,1.1,0.1,2,0.1,2.7C458.3,389.2,458.4,389.5,458.4,389.7z"/>
		<path class="st51" d="M458.5,390.2c0-0.2,0-0.4-0.1-0.5C458.4,389.9,458.4,390.1,458.5,390.2C458.5,390.2,458.5,390.2,458.5,390.2
			z"/>
		<path class="st51" d="M458.4,390.2C458.4,390.2,458.4,390.2,458.4,390.2C458.5,390.2,458.5,390.2,458.4,390.2z"/>
		<path class="st44" d="M458.4,390.2c0-0.1-0.1-0.2-0.1-0.5c-0.8-1.4-6.3-1.1-10-2.3c0,0,0,0,0,0c0,0,0,0,0,0
			c-4-1.3-9.6-4.6-11.3-2.2c-0.8,1.1,4.3,2.4,8,3.7C448.8,390.1,458.1,392.3,458.4,390.2C458.4,390.2,458.4,390.2,458.4,390.2z"/>
		<g>
			<path class="st52" d="M455.7,419.9l-13.2,3.2c0,0,0.7,3.6,0.6,3.6l13.3-2.7L455.7,419.9z"/>
			<polygon class="st53" points="429.1,422.5 429.2,425.8 443.1,426.7 442.5,423.1 			"/>
			<path class="st54" d="M442.5,417.5c-0.4-0.2-13.4,5-13.4,5l13.4,0.5l13.2-3.2C455.7,419.9,442.9,417.7,442.5,417.5z"/>
		</g>
		<path class="st0" d="M425.7,397.4c-4.1,0.6-2.5-12.7-2.2-14.9c-0.3,2-2.2,12.6-5,12.4c-0.1,0-0.2,0-0.3-0.1
			c-2.4-1.1,0.3-13.2,0.6-14.6c-0.4,1.3-3.6,11.3-5.9,10.8c-2.5-0.6,0-13.4,0-13.4s-4.9,10.9-7.6,10c-1.8-0.6,0.3-9.4,2.1-15.1
			c0.5-1.5,0.9-2.8,1.2-3.7h20.6c0,0.9,0.1,2.1,0.1,3.7C429.3,380.8,429,396.9,425.7,397.4z"/>
		<g>
			<path class="st55" d="M440.8,384.6c-0.3-0.1-0.6-0.2-0.9-0.2c-0.3-1.7-0.5-3.3-0.7-4.7h0c0-0.3-0.1-0.6-0.1-0.9
				c-0.3-1.8-0.7-3.4-1.1-4.9h0c-0.1-0.3-0.2-0.6-0.3-0.9c-0.5-1.7-1.2-3.2-2.1-4.6c0.5,0.1,1,0.2,1.4,0.5c0.7,1.2,1.2,2.5,1.7,4
				c0.1,0.3,0.2,0.6,0.3,0.9c0.4,1.5,0.8,3.2,1.1,5c0.1,0.3,0.1,0.6,0.2,0.9c0.2,1.5,0.5,3.1,0.7,4.8
				C440.8,384.5,440.8,384.5,440.8,384.6z"/>
		</g>
		<g>
			<path class="st55" d="M450.8,387.9c-0.3-0.1-0.6-0.1-1-0.2c-0.6-3-1.7-6-2.8-8.8c-0.1-0.3-0.2-0.6-0.4-0.9
				c-0.8-2-1.7-3.9-2.6-5.6c-0.1-0.3-0.3-0.6-0.4-0.8c-1.4-2.6-2.7-4.7-3.5-6.1c0.2-0.2,0.5-0.3,0.8-0.5c0.9,1.4,2.2,3.6,3.6,6.3
				c0.1,0.3,0.3,0.5,0.4,0.8c0.9,1.8,1.8,3.7,2.7,5.7c0.1,0.3,0.2,0.6,0.4,0.9C449.1,381.7,450.2,384.8,450.8,387.9z"/>
		</g>
		<g>
			<path class="st55" d="M458.3,388.9c-1.3-3.6-3.2-7.4-5.1-11c-0.2-0.3-0.3-0.6-0.5-0.8c-1.3-2.3-2.6-4.5-3.9-6.5
				c-0.2-0.3-0.3-0.5-0.5-0.8c-1.5-2.4-2.9-4.3-3.9-5.6c0.2,0,0.4,0,0.7,0c0.2,0,0.4,0,0.6,0.1c1,1.3,2.2,3.1,3.5,5.1
				c0.2,0.3,0.3,0.5,0.5,0.8c1.3,2.1,2.6,4.3,3.9,6.7c0.1,0.3,0.3,0.6,0.4,0.8c1.5,2.8,3,5.7,4.1,8.5v0
				C458.3,387.2,458.3,388.2,458.3,388.9z"/>
		</g>
		<g>
			<path class="st55" d="M452.4,368.6c-0.8,0.5-1.7,1-2.7,1.5c-0.3,0.1-0.6,0.3-0.9,0.4c-1.2,0.6-2.5,1.1-3.9,1.6
				c-0.3,0.1-0.6,0.2-0.9,0.3c-1.6,0.5-3.3,0.9-5.2,1.2c-0.3,0-0.6,0.1-0.9,0.1h0c-1.4,0.2-2.9,0.3-4.4,0.3l-0.3-0.9
				c1.6,0,3.1-0.1,4.5-0.3c0.3,0,0.6-0.1,0.9-0.1c1.8-0.3,3.5-0.7,5-1.2c0.3-0.1,0.6-0.2,0.9-0.3c1.4-0.5,2.7-1,3.9-1.6
				c0.3-0.1,0.6-0.3,0.9-0.4c1-0.5,1.9-1,2.6-1.5C452.1,368.1,452.3,368.3,452.4,368.6z"/>
		</g>
		<g>
			<path class="st55" d="M456.5,377.1c-0.7,0.2-1.5,0.4-2.4,0.5c-0.3,0.1-0.6,0.1-0.9,0.2c-1.6,0.3-3.3,0.7-5.2,0.9
				c-0.3,0.1-0.6,0.1-0.9,0.1c-2.2,0.3-4.6,0.6-7,0.7c-0.3,0-0.6,0-0.9,0h0c-0.8,0-1.6,0.1-2.5,0.1c-0.5,0-0.9,0-1.4,0l-0.3-0.9
				c1.3,0.1,2.7,0.1,4,0c0.3,0,0.6,0,0.9,0c2.3-0.1,4.6-0.4,6.7-0.7c0.3,0,0.6-0.1,0.9-0.1c1.9-0.3,3.6-0.6,5.1-0.9
				c0.3-0.1,0.6-0.1,0.9-0.2c0.9-0.2,1.8-0.4,2.5-0.6C456.3,376.5,456.4,376.8,456.5,377.1C456.5,377,456.5,377.1,456.5,377.1z"/>
		</g>
	</g>
</g>
</svg>
