<?xml version="1.0" encoding="utf-8"?>
<!-- Generator: Adobe Illustrator 27.0.0, SVG Export Plug-In . SVG Version: 6.00 Build 0)  -->
<svg version="1.1" id="Calque_1" xmlns="http://www.w3.org/2000/svg" xmlns:xlink="http://www.w3.org/1999/xlink" x="0px" y="0px"
	 viewBox="0 0 500 500" style="enable-background:new 0 0 500 500;" xml:space="preserve">
<style type="text/css">
	.st0{fill:#282F68;}
	.st1{fill:#262857;}
	.st2{fill:#FDC312;}
	.st3{fill:#E6AC24;}
	.st4{fill:#F4973B;}
	.st5{fill:#E28725;}
	.st6{fill:#A8DAE8;}
	.st7{fill:#6BC4CB;}
	.st8{fill:#693D39;}
	.st9{fill:#721813;}
	.st10{fill:#581414;}
	.st11{fill:#F1B5AC;}
	.st12{fill:#EA8683;}
	.st13{fill:#F2958E;}
	.st14{fill:#81504B;}
	.st15{fill:#5F3431;}
	.st16{fill:#1F1725;}
	.st17{fill:#FFFFFF;}
	.st18{fill:#983222;}
	.st19{fill:#1E2E57;}
	.st20{fill:#D65027;}
	.st21{fill:#482220;}
	.st22{fill:#5D2F2C;}
	.st23{fill:#E83B54;}
	.st24{fill:#DC2347;}
	.st25{fill:#BF3C27;}
	.st26{fill:#A7D4B4;}
	.st27{filter:url(#Adobe_OpacityMaskFilter);}
	.st28{filter:url(#Adobe_OpacityMaskFilter_00000069369619864032440220000015209477461436028582_);}
	.st29{mask:url(#SVGID_1_);fill:url(#SVGID_00000062181696095930156370000003482236388262984612_);}
	.st30{opacity:0.4;fill:url(#SVGID_00000160186697595667033010000018102540205924258959_);}
	.st31{opacity:0.1;fill:#B3DBDB;}
	.st32{opacity:0.2;fill:#7FCAD5;}
	.st33{fill:#C23927;}
	.st34{fill:#2C92BF;}
	.st35{fill:#0D65A7;}
	.st36{fill:#3F67AF;}
	.st37{fill:#0A5D95;}
	.st38{fill:#21509F;}
	.st39{fill:#1E4380;}
	.st40{fill:#EA592C;}
</style>
<g>
	<path class="st0" d="M326.9,409.2l-1.9,3.6l-0.4,0.8c0,0-8.7-9.6-18-21.2c-9.3-11.6-27.1-34.4-34.8-49.2
		c-7.7-14.8-28.5-72.9-28.5-72.9s0,0,0,0.1l-12.1,73c3,7.7,4.1,20.5,0,41c-4.1,20.5-9.6,41.5-9.6,41.5l-0.3-0.1l-4.9-1.1
		c0,0-6.6-54.4-7.3-103.2c-0.1-4.6-0.1-9.1-0.1-13.4c0,0,0,0,0,0c0.1-41.1,3.4-67.1,3-67.3c2.4,1.4,9.8,6,13.8,6.1
		c0,0,0.3-5.4,0.7-12.8c0,0,0,0,0-0.1l4.2-0.1l15.1-0.5l3.6-0.1c1.1,7.3,1.9,13.6,1.9,13.6s3.1,0,7.1-0.8c4-0.8,9.1-2.4,13-5.4
		c3.6,5.5,8.5,23,10.3,37.8c1.8,14.8,7.8,61.7,7.8,61.7s11.8,6.4,17.8,17.5C313.3,368.9,326.9,409.2,326.9,409.2z"/>
	<path class="st1" d="M326.9,409.2l-1.9,3.6c-4-8.3-18.7-45.3-21.1-51.2c-2.7-6.6-18-16.4-18-16.4s-5.9-43-11.2-64.5
		c-5.2-21.4-9.8-32.3-9.8-32.3c-4.6,2-15.4,0-15.4,0l-3.6-15l3.6-0.1c1.1,7.3,1.9,13.6,1.9,13.6s3.1,0,7.1-0.8c4-0.8,9.1-2.4,13-5.4
		c3.6,5.5,8.5,23,10.3,37.8c1.8,14.8,7.8,61.7,7.8,61.7s11.8,6.4,17.8,17.5C313.3,368.9,326.9,409.2,326.9,409.2z"/>
	<path class="st1" d="M230.8,233.9l-4.7,17.5c0,0-6.7,0.5-8.5,1.8c-1.1,0.8-5.2,29.9-8.5,54.9c0.1-41.1,3.4-67.1,3-67.3
		c2.4,1.4,9.8,6,13.8,6.1c0,0,0.3-5.4,0.7-12.8c0,0,0,0,0-0.1L230.8,233.9z"/>
	<path class="st1" d="M231.3,343.4c3,7.7,4.1,20.5,0,41c-4.1,20.5-9.6,41.5-9.6,41.5l-0.3-0.1c1.6-10.6,4.5-30.5,5.2-37.5
		c1-9.8,2.7-24.6,2.3-28.9c-0.4-4.3-2.8-17.1-2.8-17.1s6.2-32.1,10-45.1c3.6-12.4,6.9-25.6,7.2-26.8L231.3,343.4z"/>
	<path class="st2" d="M171.3,166.5c-0.2,0-0.5,0.4-1.2,0.9c-1.1,0.8-3.2,1.7-7,1.6c-0.2,0-0.4,0-0.7,0c-3.4-0.2-6.6-1.3-8.9-2.3
		c-2.2-0.9-3.6-1.8-3.6-1.8s0.1-1.2,0.3-3c0.4-3.8,1.1-10.5,1.4-14.2c0.3-2.6-0.4-7.1-1-11.2c-0.7-4.6-1.5-8.8-1-9.4
		c0.9-1.1,2.5,5.4,2.5,5.4s-0.5-9.3,1-10.2c1.5-0.9,3.2,6.9,3.2,6.9s0.6-12.3,2.6-13c1.6-0.5,2.5,4.6,2.8,6.9
		c0.1,0.7,0.1,1.1,0.1,1.1s0.1-0.6,0.2-1.5c0.4-3.1,1.6-9.7,3.6-9.5c2.6,0.2,2.8,15.9,2.8,15.9s2.4,3.6,2,8.3
		c-0.1,1.3-0.2,2.5-0.4,3.5c-0.4,2.8-0.9,4.8-1.1,5c-0.2,0.3,0.5,8.8,1,13C170.8,163.1,171.3,166.5,171.3,166.5z"/>
	<path class="st3" d="M171.3,166.5c-0.2,0-0.5,0.4-1.2,0.9c-1.1,0.8-3.2,1.7-7,1.6c0.4-2.4,1.7-10.4,2.7-14.4c0,0-2.2,3.7-5.3,5.3
		c-2.1,1.1-7.1,1.7-10.1,2c0.4-3.8,1.1-10.5,1.4-14.2c0.3-2.6-0.4-7.1-1-11.2l13.8,3.2l-4-10.4c0,0,0.6-4.6,1.5-6.2
		c0.1-0.2,0.2-0.3,0.3-0.4c0.2-0.2,0.5-0.1,0.7,0.3c1.4,2.4,6.3,14.2,7.4,17.9c-0.4,2.8-0.9,4.8-1.1,5c-0.2,0.3,0.5,8.8,1,13
		C170.8,163.1,171.3,166.5,171.3,166.5z"/>
	<path class="st4" d="M231.3,175.2c0,0-2.6,11.2-3.1,25.1c-0.3,8.2-1,23-1.6,33.8c0,0,0,0,0,0.1c-0.4,7.4-0.7,12.8-0.7,12.8
		c-4-0.1-11.4-4.6-13.8-6.1c-0.4-0.3-0.7-0.4-0.8-0.4c-0.3,0,0.9-10.7,1.4-19.6c0.2-4.3,0.5-11.9,0.7-18.5c0.2-7,0.4-13,0.4-13
		c-3-1.1-6.4-4.4-6.9-9.3c-0.3-2.7,0.5-7.3,1.4-11.7c0.7-3.4,1.5-6.6,2-9c1.2-5.5-1.4-16.1-1.4-16.1c1.2-1.2,2.3-2,3.4-2.3
		c0.4-0.1,0.8-0.2,1.4-0.3c0.1,0,0.1,0,0.2,0c0,0,0.1,0,0.1,0c0.3,0,0.6,0,0.9-0.1c3.3-0.2,8.2,0,11.9,0.1c-0.6,0.5-1.9,1.6-2.1,2.2
		c-0.2,0.8-0.3,8.9,1.2,17.1C227.6,168.2,231.3,175.2,231.3,175.2z"/>
	<path class="st5" d="M213.4,202.3c0.2-7,0.4-13,0.4-13c-3-1.1-6.4-4.4-6.9-9.3c-0.3-2.7,0.5-7.3,1.4-11.7c0.8,5.4,3.4,19.3,10.7,24
		L213.4,202.3z"/>
	<path class="st4" d="M273.1,239.3c-0.5,0.5-1,0.9-1.6,1.4c-7.8,6.2-20.1,6.3-20.1,6.3s-0.7-6.3-1.9-13.6c-0.4-2.4-0.8-4.8-1.2-7.3
		c-0.5-2.7-1-5.3-1.6-7.6c-0.2-0.8-0.4-1.5-0.6-2.2c-2.9-10.1-8.9-40.9-8.8-41.3c0.1-0.3,7.4-9.2,10.2-17.2
		c1.9-5.3,1.5-11.1,1.1-14.3c-0.2-1.2-0.4-2.1-0.4-2.5h1.8c0,0,10.2,0.9,17.7,2.3c-0.6,1.5-1.6,4.4-2.4,9.3
		c-0.7,3.9-0.7,10.1-0.5,15c0,0,0,0,0,0c0.1,4.5,0.4,8,0.4,8v0c-0.4,4.1-1.9,30.5-0.7,36.9c0.5,3,2.5,9.1,4.4,14.7
		C271,233.7,273.1,239.3,273.1,239.3z"/>
	<path class="st5" d="M268.9,227.4c-4.4-0.8-10.6-2-13.6-2.7c-2.4-0.6-5,0.3-6.9,1.3c-0.5-2.7-1-5.3-1.6-7.6l0.5-0.2l15.3,0.8
		c-3.5-10.5-2.1-27.8-2.1-27.8c-3.9,1.6-10.4,0-10.4,0s5.1-1,8.5-6.1c3.1-4.7,5.8-15.4,6.2-17.4c0.1,4.5,0.4,8,0.4,8v0
		c-0.4,4.1-1.9,30.5-0.7,36.9C265.1,215.7,267,221.8,268.9,227.4z"/>
	<path class="st6" d="M249.6,233.3c-0.6,0.3-2,0.5-3.8,0.6c-3.9,0.3-9.8,0.3-14.3,0.3c-2,0-3.7-0.1-4.9-0.1
		c0.6-10.8,1.3-25.6,1.6-33.9c0.1-2.9,0.3-5.7,0.5-8.3c0.9-9.4,2.4-16.2,2.5-16.7l0,0c0,0-3.6-6.9-5.2-15.1c-0.6-3.3-1-6.6-1.2-9.4
		c0-0.4,0-0.8-0.1-1.1c-0.2-3.6-0.1-6.1,0-6.6c0.2-0.6,1.5-1.7,2.1-2.2c1.3,0.1,2.5,0.1,3.3,0.2c0.2,0,0.4,0,0.6,0
		c-0.3,0.9-4.4,2.2-3.5,4.3c0.8,1.8,2.9,5.5,9.4,4.6c5.2-0.7,9.7-3.3,12-6.4c0.2,1.4,0.4,3.3,0.4,5.3c0,0.3,0,0.7,0,1.1
		c-0.1,2.5-0.5,5.3-1.4,7.9c-2.8,8-10.1,16.9-10.2,17.2v0c0,0.2,0.2,1.3,0.5,3.2c0,0.2,0.1,0.4,0.1,0.6c1.6,8.6,5.8,29.5,8.1,37.5
		C247.5,220.7,248.7,227.4,249.6,233.3z"/>
	<path class="st6" d="M294.2,211.9c0,0-2.5-4.3-8.8-7.2c-1.4-0.7-2.8-1.2-4.1-1.6c-3.2-1.1-5.6-1.5-6.6-1.7h0
		c-0.3,0-0.5-0.1-0.5-0.1c0,0,0,0,0-0.1c-0.1-0.5-0.4-1.2-0.7-2v0c-0.1-0.2-0.1-0.4-0.2-0.6c-1.6-4.9-4.8-13.9-6.7-19.2
		c-0.6-1.6-1-2.8-1.3-3.6c0-0.1-0.1-0.2-0.1-0.3c0,0-0.1-0.8-0.1-2.2v0c-0.3-4.6-0.7-15.1,0.2-20.9c0.8-4.9,1.8-7.9,2.4-9.3
		c3.4,0.7,6.2,1.4,7.3,2.3c3.5,2.7,11.5,24.7,13.7,34.4c1.3,5.8,3,16.1,4.2,23.4c0.1,0.4,0.1,0.7,0.2,1.1c0.4,2.7,0.8,5,1,6.3
		C294.1,211.4,294.2,211.9,294.2,211.9z"/>
	<path class="st6" d="M210.4,159.4c-0.6,2.7-1.5,6.5-2.3,10.3c-0.8,4-1.4,7.9-1.1,10.4l-0.4-0.5c0,0-10.7,9.2-23,13
		c-4.2,1.3-7.4,2-9.9,2.4c-0.3,0-0.5,0.1-0.8,0.1c-4.4,0.6-6.1,0.1-5.9,0c0,0,1.2-2.4,2.5-5.5c1.7-4.1,3.7-9.5,3.7-12.7
		c0-0.4,0-0.7-0.1-1.1l0.2-0.4c0.4-0.2,1.3-0.9,2.5-1.9c0.2-0.1,0.4-0.3,0.6-0.5c6.2-5,19.3-16.4,24.2-21c3.9-3.7,6.4-6.7,8.4-8.7
		C209,143.3,211.5,153.9,210.4,159.4z"/>
	<path class="st7" d="M207,180l-0.4-0.5c0,0-10.7,9.2-23,13c-4.2,1.3-7.4,2-9.9,2.4c-0.3,0-0.5,0.1-0.8,0.1c-4.4,0.6-6.1,0.1-5.9,0
		c0,0,1.2-2.4,2.5-5.5c4.6-0.6,12.9-2.3,21.3-6.7c6.7-3.4,12.9-9,17.3-13.2C207.3,173.6,206.7,177.6,207,180z"/>
	<path class="st7" d="M281.3,203.1l-6.6-1.7h0l-0.5-0.1c-0.1-0.5-0.4-1.2-0.7-2v0c-0.1-0.2-0.1-0.4-0.2-0.6
		c-1.6-4.9-6.2-17.7-8.1-23.1l1.4-8.2L281.3,203.1z"/>
	<path class="st7" d="M232.5,179.2l-1.1,55c-2,0-3.7-0.1-4.9-0.1c0.6-10.8,1.3-25.6,1.6-33.9c0.1-2.9-0.1-6.4,0.2-9l2.9-16l0,0
		L232.5,179.2z"/>
	<path class="st8" d="M237.4,175C237.4,175,237.4,175,237.4,175L237.4,175L237.4,175z"/>
	<path class="st7" d="M249.6,233.3c-0.6,0.3-2,0.5-3.8,0.6c-1.2-8.5-5.5-38.8-6.3-45c-0.5-3.9-1.1-7.6-1.5-10.2
		c1.6,8.6,5.8,29.5,8.1,37.5C247.5,220.7,248.7,227.4,249.6,233.3z"/>
	<path class="st9" d="M260.5,120.6c-0.2,0.3-0.3,0.7-0.5,1c-3.9,6.7-13.5,16.4-17.1,17.3c-0.3-2.6-0.9-8.8-1.6-13
		c1.4-2.7,2.2-5.6,2.3-8.6c0,0,5-2.2,6.2-5.8c0.7-2.2,0-5.3-1.1-7.5c-0.7-1.5-1.6-2.6-2.2-2.5c-0.1,0-0.3,0.1-0.4,0.2
		c-1.5,1.1-4.1,6.7-4.1,6.7s-3.5-8.8-7-11.7c-3.5-2.9-5.9-4.7-8.4-2.3c-2.4,2.4-4.4,3.9-5.8,4.6c-3.6,1.8-8.5,2.4-9.7,3.3
		c-0.7,0.5-1.2,5-0.7,10.4c-0.1-0.1-0.3-0.3-0.6-0.7c-1.3-1.7-4.1-6.4-4.5-11.9c-0.6-6.6,3.3-12,5.8-13.7c2.5-1.7,5.9-0.9,5.9-0.9
		s5.8-8.3,14.8-8.3c9,0,20.5,13.2,26.1,20.4C263.4,104.5,263.8,114,260.5,120.6z"/>
	<path class="st10" d="M242.1,108.3c0,0-3.5-8.8-7-11.7c-3.5-2.9-5.9-4.7-8.4-2.3c-2.4,2.4-4.4,3.9-5.8,4.6
		c-3.6,1.8-8.5,2.4-9.7,3.3c-0.7,0.5-1.2,5-0.7,10.4c-0.1-0.1-0.3-0.3-0.6-0.7c-0.7-2.8-2.3-7.5-1-9.7c1.7-3,8-2.7,12.5-4.9
		s5-8.2,12.6-4.2c2.9,1.5,7.5,4.5,12.1,8.4C244.6,102.8,242.1,108.3,242.1,108.3z"/>
	<path class="st10" d="M260.5,120.6c-0.2,0.3-0.3,0.7-0.5,1c-3.9,6.7-13.5,16.4-17.1,17.3c-0.3-2.6-0.9-8.8-1.6-13
		c1.4-2.7,2.2-5.6,2.3-8.6c0,0,5-2.2,6.2-5.8c0.7-2.2,0-5.3-1.1-7.5C253.7,108.7,258.3,114.4,260.5,120.6z"/>
	<g>
		<path class="st11" d="M248.8,143.4c-2.3,3.1-6.8,5.6-12,6.4c-6.5,0.9-8.6-2.7-9.4-4.6c-0.9-2,3.2-3.3,3.5-4.3
			c0.1-0.2,0-0.7-0.1-1.3c-0.2-1.1-0.7-2.8-1.2-4.1c2.1-0.2,4.1-1.2,6-2.7c2-1.5,3.8-3.6,5.2-6c0.2-0.4,0.4-0.7,0.6-1.1
			c0,0.3,0.1,0.5,0.1,0.8c0.5,3.5,1,7.9,1.3,10.8c0,0.6,0.1,1.1,0.1,1.5c0.1,0.8,0.1,1.3,0.1,1.3l5.3,0.6c0,0,0,0.1,0.1,0.2
			C248.4,141.3,248.6,142.2,248.8,143.4z"/>
		<path class="st12" d="M242.7,137.5c-3.9,1.7-9.3,2.1-12,2.2c-0.2-1.1-0.7-2.8-1.2-4.1c2.1-0.2,4.1-1.2,6-2.7c2-1.5,3.8-3.6,5.2-6
			l0.7-0.3C241.9,130.2,242.4,134.7,242.7,137.5z"/>
	</g>
	<g>
		<path class="st11" d="M249.8,111.5c-1.2,3.6-6.2,5.8-6.2,5.8c-0.1,2.9-0.9,5.9-2.3,8.6c-1.4,2.8-3.5,5.3-5.8,7.1
			c-0.5,0.4-1,0.7-1.5,1c-1.5,0.9-3,1.5-4.5,1.7c0,0,0,0-0.1,0c-7,0.8-12.9-2.7-16.4-11.5c-1.4-3.6-2.2-7.7-2.5-11.4
			c-0.5-5.4,0-9.9,0.7-10.4c1.2-0.9,6.1-1.6,9.7-3.3c1.3-0.7,3.3-2.1,5.8-4.6c1.5-1.5,3-1.4,4.7-0.4c1.1,0.6,2.3,1.6,3.7,2.7
			c3.5,2.9,7,11.7,7,11.7s3-6.7,4.5-6.8C248,101.3,251,107.9,249.8,111.5z"/>
		<path class="st13" d="M249.8,111.5c-1.2,3.6-6.2,5.8-6.2,5.8c-0.1,2.9-0.9,5.9-2.3,8.6c-1.4,2.8-3.5,5.3-5.8,7.1
			c-0.5,0.4-1,0.7-1.5,1c2-4.1,5.3-11.8,5.5-18.9c0.2-7.4-5.2-16.6-8.2-21.1c1.1,0.6,2.3,1.6,3.7,2.7c3.5,2.9,7,11.7,7,11.7
			s3-6.7,4.5-6.8C248,101.3,251,107.9,249.8,111.5z"/>
	</g>
	<g>
		<path class="st11" d="M173.1,176.8c0,1.6-0.5,3.7-1.2,6c-1.8,5.7-5,12.2-5,12.2c-0.3,0.1-0.6,0.2-1,0.2c-3.1,0.2-8-3.3-10.7-10.7
			c-3-8.2-2.4-17.2-2.3-18.1c0,0,0.2,0,0.6,0.1c2.3,1,5.4,2.1,8.9,2.3c0.7,0.1,1.4,0.1,2.1,0c2.9-0.1,4.6-0.9,5.6-1.6
			c0.9,1.5,2.7,4.8,3,8.4C173.1,176.1,173.1,176.5,173.1,176.8z"/>
		<path class="st13" d="M173.1,176.8c0,1.6-0.5,3.7-1.2,6c-1.1-5.6-4.7-10.8-7.5-13.8c2.9-0.1,4.6-0.9,5.6-1.6
			c0.9,1.5,2.7,4.8,3,8.4C173.1,176.1,173.1,176.5,173.1,176.8z"/>
	</g>
	<g>
		<path class="st11" d="M292.2,217.4c-2.5,1.5-12.2,2.8-20.5,2.7c0.1-1.1-0.1-3.3-0.2-5.8c-0.4-5.2-1-11.5-1-11.5
			c0.4,0,2.6-1,4.3-1.3c1.4,0.2,5.6,0.9,10.7,3.3c4.5,2.1,7.1,4.9,8.2,6.3c0.4,0.5,0.6,0.9,0.6,0.9
			C294.3,213.2,294.2,216.2,292.2,217.4z"/>
		<path class="st13" d="M292.2,217.4c-2.5,1.5-12.2,2.8-20.5,2.7c0.1-1.1-0.1-3.3-0.2-5.8c8.4,1.4,10.9,1.2,15.5,0
			c2.4-0.6,4.8-2,6.7-3.2c0.4,0.5,0.6,0.9,0.6,0.9C294.3,213.2,294.2,216.2,292.2,217.4z"/>
	</g>
	<path class="st9" d="M233.3,105c0,0-3.3-2.2-6.9-0.8c-3.6,1.4-2.7,3-1.5,3.2C226.2,107.7,231.9,105.2,233.3,105z"/>
	<path class="st9" d="M217.3,108.7c-0.7-0.3-4.5-1.6-6.9,2.2l0.1,1.8c0,0,2.6-2,4.6-2.5C217.1,109.8,218,109.1,217.3,108.7z"/>
	<path class="st14" d="M214.1,140.7c0.3,0,0.6,0,0.9-0.1C214.7,140.6,214.4,140.7,214.1,140.7z"/>
	<path class="st14" d="M213.8,140.7c0.1,0,0.1,0,0.2,0C213.9,140.7,213.8,140.7,213.8,140.7z"/>
	<path class="st15" d="M213.8,140.7c-1.7,0.2-2.9,0.5-4.8,2.6l0,0c1.2-1.2,2.3-2,3.4-2.3C212.7,140.9,213.2,140.8,213.8,140.7z"/>
	<path class="st15" d="M214,140.7c0,0,0.1,0,0.1,0C214,140.7,214,140.7,214,140.7z"/>
	<path class="st11" d="M294.1,211.3c0,0,0-0.2-0.1-0.7c0.1,0.8,0.2,1.3,0.2,1.3C294.2,211.5,294.1,211.3,294.1,211.3z"/>
	<polygon class="st14" points="294.2,211.9 294.2,211.9 294.2,211.9 	"/>
	<path class="st16" d="M214.9,115.1c0,1.3-0.5,2.3-1,2.3c-0.6,0-1-1-1-2.3c0-1.3,0.5-2.3,1-2.3C214.5,112.8,214.9,113.8,214.9,115.1
		z"/>
	<path class="st16" d="M225.8,112.2c0,1.3-0.5,2.3-1,2.3c-0.6,0-1-1-1-2.3c0-1.3,0.5-2.3,1-2.3C225.4,109.9,225.8,110.9,225.8,112.2
		z"/>
	<path class="st17" d="M221.4,127.7c0,0,1.9,0.4,5.2-0.7c3.3-1.1,7.4-4,7.4-4s-2.2,7.3-5.9,8.4C224.4,132.4,221.4,127.7,221.4,127.7
		z"/>
	<g>
		<g>
			<path class="st18" d="M216.6,125c-0.1,0-0.1,0-0.2-0.1c0-0.1-0.1-0.1,0-0.2c0,0,0.5-2.2,0.9-5.7c0.4-3.6,0-8.4,0-8.5
				c0-0.1,0.1-0.2,0.2-0.2c0.1,0,0.2,0.1,0.2,0.2c0,0,0.5,4.9,0,8.6c-0.4,2.8-0.7,4.7-0.8,5.5c1-0.2,3.8-0.8,4.3-2.2
				c0-0.1,0.2-0.2,0.3-0.1c0.1,0,0.2,0.2,0.1,0.3C220.9,124.5,216.8,125,216.6,125C216.7,125,216.6,125,216.6,125z"/>
		</g>
		<g>
			<path class="st18" d="M243.7,114.7C243.7,114.7,243.7,114.7,243.7,114.7c-0.1,0-0.2-0.1-0.2-0.2c0.2-3.4,2.7-8.4,2.8-8.6
				c0.1-0.1,0.2-0.2,0.3-0.1c0.1,0.1,0.2,0.2,0.1,0.3c0,0.1-2.6,5.1-2.8,8.4C244,114.6,243.9,114.7,243.7,114.7z"/>
		</g>
		<g>
			<path class="st18" d="M244.7,112.4c-0.2,0-0.3,0-0.4,0c0,0,0,0,0,0c0,0-0.1,0-0.2,0c-0.1,0-0.2-0.2-0.2-0.3
				c0.1-0.3,0.3-0.2,0.4-0.2c0.3,0.1,0.9,0.2,2.1-0.6c0.3-0.2,0.4-0.4,0.4-0.7c0-0.7-1.2-1.5-1.6-1.8c-0.1-0.1-0.1-0.2-0.1-0.3
				c0.1-0.1,0.2-0.1,0.3-0.1c0.2,0.1,1.8,1.1,1.8,2.2c0,0.4-0.2,0.8-0.6,1.1C245.8,112.2,245.2,112.4,244.7,112.4z"/>
		</g>
	</g>
	<g>
		<path class="st19" d="M249.1,148.8c0,0.3,0,0.7,0,1.1c-2.5,2.5-6.6,4.6-12.5,4.7h-0.2c-5.8,0-9.5-1.8-11.5-3.9
			c0-0.4,0-0.8-0.1-1.1c1.7,2,5.1,4.4,11.8,4.3C243.1,153.8,247,151.2,249.1,148.8z"/>
	</g>
	<g>
		<path class="st19" d="M177,183.9c-0.6,4.1-2.2,8.2-3.4,10.9c-0.3,0-0.5,0.1-0.8,0.1c1.2-2.7,2.9-7,3.5-11.2
			c0.7-4.4,0-8.2-0.6-10.4c0.2-0.1,0.4-0.3,0.6-0.5C176.9,175.1,177.8,179.2,177,183.9z"/>
	</g>
	<g>
		<path class="st19" d="M265.3,175.9c-0.2,0-0.3-0.1-0.3-0.3c0-0.4,1.1-13,3.9-19c0.1-0.2,0.3-0.2,0.5-0.2c0.2,0.1,0.2,0.3,0.2,0.5
			c-2.7,5.8-3.8,18-3.8,18.6C265.6,175.7,265.5,175.9,265.3,175.9C265.3,175.9,265.3,175.9,265.3,175.9z"/>
	</g>
	<polygon class="st20" points="243.2,175.2 244.7,180.4 259.8,179.9 259.3,174.4 	"/>
	<g>
		<path class="st21" d="M255.3,190.9c-0.1,0-0.3-0.1-0.3-0.2c-0.1-0.2,0-0.4,0.2-0.4c8.6-2.8,9.5-10.6,9.5-10.7
			c0-0.2,0.2-0.3,0.4-0.3c0.2,0,0.3,0.2,0.3,0.4c0,0.1-0.9,8.4-10,11.3C255.3,190.9,255.3,190.9,255.3,190.9z"/>
	</g>
	<g>
		<path class="st21" d="M216.9,191.2c0,0-0.1,0-0.1,0c-0.2-0.1-5.2-2.1-6.7-4c-0.1-0.1-0.1-0.4,0-0.5c0.1-0.1,0.4-0.1,0.5,0
			c1.4,1.7,6.4,3.8,6.5,3.8c0.2,0.1,0.3,0.3,0.2,0.4C217.2,191.1,217.1,191.2,216.9,191.2z"/>
	</g>
	<g>
		<path class="st19" d="M293,204.3c-7.9-7.2-16.1-6-19.5-5c-0.1-0.2-0.1-0.4-0.2-0.6c3.4-0.9,11.6-2.2,19.5,4.6
			C292.9,203.6,293,204,293,204.3z"/>
	</g>
	<g>
		<path class="st22" d="M168.8,129.6c-0.1,0-0.2-0.1-0.3-0.2c-0.5-2.7-3.5-7.2-4.7-7.2c0,0,0,0-0.1,0c-0.1,0-0.3,0.1-0.4,0.3
			c-0.7,1.1-0.5,4.2-0.4,4.7c0,0.1,0,0.3-0.2,0.3c-0.1,0-0.3,0-0.3-0.2c-0.1-0.4-0.4-3.8,0.4-5.1c0.2-0.3,0.5-0.5,0.8-0.6
			c1.8-0.3,4.8,5.2,5.3,7.6C169.1,129.4,169,129.6,168.8,129.6C168.8,129.6,168.8,129.6,168.8,129.6z"/>
	</g>
	<g>
		<path class="st23" d="M166.9,149.8c0,0-1.2,2.5-4.6,5.9c-3.4,3.3-13.1,9.6-16.5,11.5c-3.3,1.9-6.7,2.4-7.4,0.5
			c-0.2-0.5-0.2-1.4-0.1-2.5c0.3-3.2,1.5-8,2.6-10.3c1.4-3,0.4-5.4,0.8-9c0.5-3.6,2.4-3,3.7-3.3c1.4-0.4,1.7-3.6,4.4-5.9
			c2.7-2.3,6.3-5.2,7.9-7.1c1.2-1.5,2.3-2.9,3.6-3.5c0.4-0.2,0.9-0.3,1.3-0.3c0,0,0.8,3.6,1.4,7c0.6,3.3,2.8,7.2,2.8,7.2
			C167.4,141.7,166.9,149.8,166.9,149.8z"/>
		<path class="st24" d="M166.9,149.8c0,0-1.2,2.5-4.6,5.9c-3.4,3.3-13.1,9.6-16.5,11.5c-3.3,1.9-6.7,2.4-7.4,0.5
			c-0.2-0.5-0.2-1.4-0.1-2.5c6.2-3.1,14-8.2,16.2-10.6c3.2-3.5,5.5-12.9,5.9-15.8c0.4-2.4-0.2-8.7,0.9-12.9c0.4-0.2,0.9-0.3,1.3-0.3
			c0,0,0.8,3.6,1.4,7c0.6,3.3,2.8,7.2,2.8,7.2C167.4,141.7,166.9,149.8,166.9,149.8z"/>
	</g>
	<g>
		<path class="st20" d="M334.2,416.9c0,0-1.3,1.5-3.1,3.4c-2.1,2.3-4.9,5.2-7.1,7c-4.1,3.3-6.3,1.7-6.3,1.7
			c1.4-1.2,6.3-16.1,6.3-16.1l1-1.3l1.8-2.4L334.2,416.9z"/>
		<path class="st25" d="M334.2,416.9c0,0-1.3,1.5-3.1,3.4l-6.1-8.7l1.8-2.4L334.2,416.9z"/>
	</g>
	<g>
		<path class="st20" d="M221.7,425.8v3.2h-20.8c0,0,3-5.5,10-5.9c3.9-0.3,6.8,0.6,8.6,1.5C221,425.2,221.7,425.8,221.7,425.8z"/>
		<path class="st25" d="M221.7,425.8v3.2h-7.6c1.9-1.6,4-3.3,5.4-4.5C221,425.2,221.7,425.8,221.7,425.8z"/>
	</g>
	<rect x="304.9" y="73.7" class="st26" width="6.6" height="353.1"/>
	<rect x="188.8" y="73.7" class="st26" width="6.6" height="353.1"/>
	<defs>
		<filter id="Adobe_OpacityMaskFilter" filterUnits="userSpaceOnUse" x="117.2" y="73.7" width="74.9" height="353.1">
			<feFlood  style="flood-color:white;flood-opacity:1" result="back"/>
			<feBlend  in="SourceGraphic" in2="back" mode="normal"/>
		</filter>
	</defs>
	<mask maskUnits="userSpaceOnUse" x="117.2" y="73.7" width="74.9" height="353.1" id="SVGID_1_">
		<g class="st27">
			<defs>
				
					<filter id="Adobe_OpacityMaskFilter_00000065789336853538430390000014204966121285515950_" filterUnits="userSpaceOnUse" x="117.2" y="73.7" width="74.9" height="353.1">
					<feFlood  style="flood-color:white;flood-opacity:1" result="back"/>
					<feBlend  in="SourceGraphic" in2="back" mode="normal"/>
				</filter>
			</defs>
			<mask maskUnits="userSpaceOnUse" x="117.2" y="73.7" width="74.9" height="353.1" id="SVGID_1_">
				<g style="filter:url(#Adobe_OpacityMaskFilter_00000065789336853538430390000014204966121285515950_);">
				</g>
			</mask>
			
				<linearGradient id="SVGID_00000109029767792416336000000003248826928991562391_" gradientUnits="userSpaceOnUse" x1="157.1847" y1="93.837" x2="152.1742" y2="401.7684">
				<stop  offset="0" style="stop-color:#FFFFFF"/>
				<stop  offset="0.995" style="stop-color:#4D4D4D"/>
			</linearGradient>
			
				<rect x="117.2" y="73.7" style="mask:url(#SVGID_1_);fill:url(#SVGID_00000109029767792416336000000003248826928991562391_);" width="74.9" height="353.1"/>
		</g>
	</mask>
	
		<linearGradient id="SVGID_00000012443325389682766730000005281140004785974713_" gradientUnits="userSpaceOnUse" x1="157.1847" y1="93.837" x2="152.1742" y2="401.7684">
		<stop  offset="0" style="stop-color:#B3DBDB"/>
		<stop  offset="0.995" style="stop-color:#B3DBDB"/>
	</linearGradient>
	
		<rect x="117.2" y="73.7" style="opacity:0.4;fill:url(#SVGID_00000012443325389682766730000005281140004785974713_);" width="74.9" height="353.1"/>
	<rect x="193.7" y="74.8" class="st31" width="181.5" height="353.1"/>
	<path class="st32" d="M168.8,101.5c0,0-9.9,5.5-10.4,4.1c-0.5-1.4,0.2-3.9-3.8-1.9c-4,1.9-8.1,2-8.8,1.9c-0.7,0-0.7,7.6-5.2,9.5
		c-4.6,1.9-2.7-3.8-4.1-2c-1.4,1.8-2.5,7.5-3.2,6.2c-0.7-1.4-3.4,0.4-3.9,3.3c-0.5,2.9,0.9,8.4-1.1,6.8c-2.1-1.6-4.8-3.3-5.9,0.3
		c-1.1,3.5,2.5,15.9,4.3,22c1.8,6.1-2.7,12.2-2.5,14.8c0.2,2.7,5.9-0.2,5.5,2.4c-0.5,2.5-5.9,12.8-3.6,13.6c2.3,0.8,2.3,1.9,4.1,2.6
		c1.8,0.7,4.6-6.9,5.5-4.7c0.9,2.2,1,6.9,2.7,6.3c1.7-0.6,4.4-6.1,4.4-3.8c0,2.3,0.9,6.4,4.8,4.7c3.9-1.7,4.8-6.1,5.2-5
		c0.5,1,2.3,4.5,6.9,1.5c4.6-3,5.8-6.6,7.3-5.2c1.5,1.3,4.6,0.1,5.9-4.6c1.3-4.8-0.2-12,2.2-11.1c2.5,0.9,2.9,1.1,5-3.6
		c2.1-4.8-5.2-11.3-2.7-12.1c2.5-0.9,3.2-2.3,6.1-5.2c3-2.9,3.9-10.8,0.9-10.5c-3,0.3-6.4-1.3-4.3-3.1c2.1-1.8,5.7-9.8,2.1-9.3
		c-3.6,0.5-7.5-2.4-4.8-5.1c2.7-2.7-1.5-10.6-2.2-8.2c-0.7,2.4-5.1,4.4-5.5,1.7C169.1,104.7,171,102.6,168.8,101.5z"/>
	<path class="st20" d="M257.2,257.9c0,0-1.4,3.1-6,5.3c-1.4,0.7-3.1,1.3-5.2,1.7c-8.8,1.7-13.4-2.9-13.4-2.9s-3.7-22.5-4.1-28.8
		c-0.5-6.2,4.4-11.6,4.6-11.8c0,0,1.1,0,5.7-0.5c1.2-0.1,2.2-0.3,3.1-0.5c2.6-0.6,3.9-1.3,3.9-1.3c3.8,1.1,6.1,6.3,7.9,13
		C255.4,238.9,257.2,257.9,257.2,257.9z"/>
	<g>
		<path class="st20" d="M245.6,219.2c-3.1,1.9-12.7,2.2-12.7,2.2l-0.4-21.2l1.9-0.3l2.7-0.4l3.7,8.5L245.6,219.2z"/>
		<polygon class="st33" points="240.8,208.1 237.7,208.2 234.5,200 237.1,199.6 		"/>
	</g>
	<polygon class="st34" points="253.2,196.4 253.2,199.2 243.8,198.7 226.2,201.1 225.7,199.3 224.2,194 243.8,186.2 	"/>
	<path class="st33" d="M257.2,257.9c0,0-1.4,3.1-6,5.3c-0.4-6.6-1.2-17.3-2.2-25.1c-1.2-10.2-5.9-16.1-7.3-17.6
		c2.6-0.6,3.9-1.3,3.9-1.3c3.8,1.1,6.1,6.3,7.9,13C255.4,238.9,257.2,257.9,257.2,257.9z"/>
	<g>
		<path class="st2" d="M271.8,216.3c0,1.7-0.1,3-0.1,3.8c0,0.4,0,0.6,0,0.6c-3.3,2.3-22.6-0.5-22.6-0.5s-7.7,3.4-13.6,2.4
			c-2.6-0.4-3.7-1.4-4.1-2.3c-0.3-0.7-0.3-1.3-0.2-1.7c0-0.2,0.1-0.3,0.1-0.4c0-0.1,0.1-0.2,0.1-0.2c-2.9-0.9-2.6-3-2.3-4
			c0.1-0.2,0.1-0.4,0.1-0.4c0,0,0-0.1,0-0.1s-2.7-0.3-3-2.7c-0.2-1.7,2.1-2.3,3.3-2.5h0c0.4-0.1,0.7-0.1,0.7-0.1s-0.3-0.1-0.6-0.4
			c0,0,0,0,0,0c-1.1-0.7-3.2-2.2-2.4-3.4c1.2-1.6,11.4-1.4,11.4-1.4s6.5,1,12.2,0.6c5.7-0.5,18.5-1.1,18.5-1.1
			C271.8,201.2,271.9,210.5,271.8,216.3z"/>
		<g>
			<path class="st22" d="M237.7,208.2c0,0.1-0.1,0.2-0.2,0.3c-1.3,0.1-2.5,0.2-3.7,0.2c-1.8,0-3.3-0.1-4.3-0.3
				c0.4-0.1,0.7-0.1,0.7-0.1s-0.3-0.1-0.6-0.4c1.7,0.2,4.6,0.4,7.8,0.1C237.5,208,237.6,208.1,237.7,208.2z"/>
		</g>
		<g>
			<path class="st22" d="M236.1,213.8c0,0.1-0.1,0.2-0.2,0.3c-1.4,0.1-2.6,0.2-3.7,0.2c-1.4,0-2.5-0.1-3.2-0.2
				c0.1-0.2,0.1-0.4,0.1-0.4c1.3,0.2,3.6,0.3,6.8,0C236,213.6,236.1,213.7,236.1,213.8z"/>
		</g>
		<g>
			<path class="st22" d="M239.6,218.6c0,0.1-0.1,0.2-0.2,0.2c-1.1,0.1-2.1,0.1-3,0.1c-2.2,0-4-0.2-5.3-0.4c0-0.2,0.1-0.3,0.1-0.4
				c1.8,0.3,4.6,0.5,8.1,0.2C239.4,218.4,239.6,218.5,239.6,218.6z"/>
		</g>
		<path class="st3" d="M271.8,216.3c0,1.7-0.1,3-0.1,3.8c0,0.4,0,0.6,0,0.6c-3.3,2.3-22.6-0.5-22.6-0.5s-7.7,3.4-13.6,2.4
			c-2.6-0.4-3.7-1.4-4.1-2.3c3,0.2,8,0.2,11.9-1.4c6.1-2.5,8.3-3.4,8.3-3.4S263.8,218.4,271.8,216.3z"/>
	</g>
	<path class="st35" d="M253.2,198.4v0.8l-9.3-0.5l-17.7,2.4l-0.5-1.8c4.3-1.2,16.3-4.3,16.3-4.3L253.2,198.4z"/>
	<g>
		<path class="st36" d="M225.7,199.4l-3.7,0.4l-0.4-1.4l-0.4-1.4c0,0,3.6-0.9,3.6-1.2l0.4,1.6L225.7,199.4z"/>
		<polygon class="st37" points="225.7,199.4 222,199.7 221.5,198.4 225.1,197.3 		"/>
	</g>
	<g>
		<path class="st38" d="M232.1,200.3c-1.3,1.8-5.6,6.6-8.1,8.8c-0.6,0.5-1.1,0.9-1.5,1c-1.7,0.7-1.7-0.9,0-2.8
			c0.7-0.8,1.7-2.1,2.5-3.3c1.1-1.6,1.9-3.1,1.9-3.1L232.1,200.3z"/>
		<path class="st39" d="M232.1,200.3c-1.3,1.8-5.6,6.6-8.1,8.8c0.7-2,1-3.7,1-5.1c1.1-1.6,1.9-3.1,1.9-3.1L232.1,200.3z"/>
	</g>
	<path class="st40" d="M233.6,226.8c-1.8-0.3-4.5,4.3-2.5,15.5c2,11.2,4.9,7.9,5.1,6.5c0.2-1.4-0.7-5.3-0.8-10.2
		C235.2,233.6,236,227.2,233.6,226.8z"/>
</g>
</svg>
