<?xml version="1.0" encoding="utf-8"?>
<!-- Generator: Adobe Illustrator 27.0.0, SVG Export Plug-In . SVG Version: 6.00 Build 0)  -->
<svg version="1.1" id="Calque_1" xmlns="http://www.w3.org/2000/svg" xmlns:xlink="http://www.w3.org/1999/xlink" x="0px" y="0px"
	 viewBox="0 0 500 500" style="enable-background:new 0 0 500 500;" xml:space="preserve">
<style type="text/css">
	.st0{opacity:0.1;fill:#A8DAE8;}
	.st1{opacity:0.2;fill:#231F20;}
	.st2{fill:#6E1E14;}
	.st3{fill:#5C1613;}
	.st4{fill:#7DC3C8;}
	.st5{fill:#439FA1;}
	.st6{fill:#F1B5AC;}
	.st7{fill:#F2958E;}
	.st8{fill:#EE7225;}
	.st9{fill:#A55C53;}
	.st10{fill:#282F68;}
	.st11{fill:#2C92BF;}
	.st12{fill:#6E2B29;}
	.st13{fill:#FFFFFF;}
	.st14{fill:#1F1725;}
	.st15{fill:#D25D26;}
	.st16{fill:#91594E;}
	.st17{fill:#A2D0C0;}
	.st18{fill:#9AD5E6;}
	.st19{fill:#68B4D6;}
	.st20{fill:#3586BB;}
	.st21{fill:#BEE2E7;}
</style>
<path class="st0" d="M308.75,208.96c-25.6,68.8-139.82,57.34-159.11,127.87c-7.66,28.01,2.83,57.31,16.59,74.67
	c48.16,60.75,199.96,55.46,275.27-32.21c54.83-63.83,64.94-166.48,17.57-236.22C410.3,71.26,307.02,43.8,284.35,69.38
	C262.6,93.92,330.93,149.35,308.75,208.96z"/>
<path class="st1" d="M286.27,192.73c-15.19,56.32-97.53,71.99-142.06,80.46c-42.05,8-88.26,16.79-115.03-9.43
	C-7.51,227.83,10.46,143.93,53.69,95.93c8.54-9.48,52.16-55.43,113.15-49.03C240.42,54.63,301.93,134.65,286.27,192.73z"/>
<g>
	<path class="st2" d="M243.25,121.32c-0.2,2.67-6.31,10.04-8.38,12.06l-0.01-0.01c-0.02-0.05-1.73-5.31-3.64-8.8
		c-0.53-0.96-1.07-1.8-1.61-2.34c-2.15-2.22-6.27-3.27-9.67-3.76c-0.54-0.07-1.06-0.13-1.54-0.19c-0.78-0.08-1.49-0.15-2.07-0.17
		c-1.11-0.07-1.79-0.06-1.82-0.05c-0.08,0.06-3.86-0.29-6.61,6.77c-2.76,7.06-4.68,20.9-4.68,20.9s-17.94-17.55-17.47-21.85
		c0.46-4.18,5.17-0.18,5.44,0.06c-0.17-0.31-3.51-5.86-2.7-7.6c0.85-1.8,5.52,0.35,5.52,0.35s-4.55-8.97-1.91-10.66
		c2.63-1.67,5.38,3.12,5.38,3.12s-0.36-13.65,6.35-14.13c6.69-0.47,7.29,5.51,7.29,5.51s5.88-8.49,8.14-7.78
		c2.21,0.7,1.02,9.43,0.96,9.8c0.28-0.23,4.7-3.97,8.62-6.29c0.95-0.56,1.87-1.03,2.69-1.36c1.06-0.42,1.96-0.59,2.57-0.36
		c2.65,1.02-0.68,6.32-1.69,7.84c0.69-0.86,2.39-2.69,3.6-1.38c1.55,1.67-2.28,6.35-1.34,6c3.5-1.33,5.04-0.73,5.41,2.14
		c0.36,2.87-5.74,8.9-5.74,8.9c3.59-1.14,8.02,0.67,8.85,2.7C243.25,120.92,243.27,121.1,243.25,121.32z"/>
	<path class="st3" d="M231.54,94.93c-4.69,5.7-11.11,19.01-13.14,23.37c-0.78-0.08-1.49-0.15-2.07-0.17
		c-1.11-0.07-1.79-0.06-1.82-0.05c-0.08,0.06-3.86-0.29-6.61,6.77c-2.76,7.06-4.68,20.9-4.68,20.9s-17.94-17.55-17.47-21.85
		c0.46-4.18,5.17-0.18,5.44,0.06c-0.17-0.31-3.51-5.86-2.7-7.6c0.85-1.8,5.52,0.35,5.52,0.35s-4.55-8.97-1.91-10.66
		c2.63-1.67,5.38,3.12,5.38,3.12s-0.36-13.65,6.35-14.13c6.69-0.47,7.29,5.51,7.29,5.51s5.88-8.49,8.14-7.78
		c2.21,0.7,1.02,9.43,0.96,9.8c0.28-0.23,4.7-3.97,8.62-6.29C229.8,95.73,230.72,95.25,231.54,94.93z"/>
	<path class="st4" d="M235.21,166.5c-0.04,1.04-0.08,2.37-0.15,3.87c-0.31,7.64-0.95,19.88-1.87,23.81l-21.89,5
		c0,0-3.17-17.23-5.5-27.14c-0.34-1.48-0.67-2.79-0.97-3.86c4.4-1.58,8.39-2.4,10.74-2.8C223.16,164.06,229.99,165.06,235.21,166.5z
		"/>
	<path class="st5" d="M238.75,167.61c-0.89,0.87-2.1,1.84-3.7,2.75c-2.98,1.73-7.31,3.28-13.43,3.63
		c-6.9,0.39-12.16-0.68-15.84-1.97c-2.19-0.76-3.83-1.6-4.92-2.25c1.32-0.61,2.65-1.14,3.94-1.61c4.4-1.58,8.39-2.4,10.74-2.8
		c7.61-1.3,14.44-0.31,19.66,1.13C236.49,166.85,237.67,167.23,238.75,167.61z"/>
	<g>
		<path class="st6" d="M229.8,159.84c-0.21,0.94-0.51,2.32-0.91,3.87c-1.44,5.65-4.1,13.84-7.27,13.73
			c-3.74-0.13-5.2-7.33-6.24-12.96c-0.23-1.26-0.43-2.44-0.64-3.45c3.36,0.13,7.23-0.14,10.68-0.32
			C226.86,160.64,228.34,160.32,229.8,159.84z"/>
		<path class="st7" d="M229.8,159.84c-0.21,0.94-0.51,2.32-0.91,3.87c-4.95,1.62-10.42,1.22-13.51,0.77
			c-0.23-1.26-0.43-2.44-0.64-3.45c3.36,0.13,7.23-0.14,10.68-0.32C226.86,160.64,228.34,160.32,229.8,159.84z"/>
	</g>
	<path class="st6" d="M238.82,154.58c-0.87,2.58-5.35,6.1-10.16,7.68c-1.35,0.43-2.71,0.73-4.05,0.81c-3.19,0.16-6.78,0.42-9.88,0.3
		c-0.29-0.01-0.58-0.03-0.87-0.05c-2.41-0.16-4.46-0.58-5.67-1.53c-2.87-2.22-3.99-7.49-4.95-16.03c0,0,1.04-14.17,2.08-19.52
		c1.05-5.35,4.38-7.33,7.7-8.09c0.91-0.21,1.56-0.31,2.04-0.33c1.28-0.08,1.28,0.33,1.28,0.33c0.62,0.03,1.36,0.08,2.19,0.17
		c3.59,0.39,8.62,1.4,11.09,3.94c2.45,2.5,5.23,11.06,5.25,11.13C237.08,141.31,239.59,152.25,238.82,154.58z"/>
	<path class="st3" d="M243.25,121.32c-0.2,2.67-6.32,10.04-8.39,12.07l-0.01-0.01c-0.02-0.06-1.72-5.31-3.64-8.8
		C234.78,123.9,240.29,122.71,243.25,121.32z"/>
	<path class="st7" d="M213.85,163.31c-2.41-0.16-4.46-0.58-5.67-1.53c-2.87-2.22-3.99-7.49-4.95-16.03c0,0,1.04-14.17,2.08-19.52
		c1.05-5.35,4.38-7.33,7.7-8.09c0.91-0.21,1.56-0.31,2.04-0.33l1.28,0.33c0.62,0.03,1.36,0.08,2.19,0.17
		c-4.19,7.18-10.07,22.83-10.5,27.23C207.63,149.48,210.22,159.1,213.85,163.31z"/>
	<path class="st4" d="M200.38,235.69c-0.1,0.58-0.21,1.2-0.33,1.85c-0.81,4.72-1.88,11.06-2.92,17.61l-0.11,0.07
		c0,0-2.2-16.3-2.98-25.35c-0.77-9.05-6.46-16.81-9.43-23.16c-2.98-6.33-10.35-22.11-10.48-39.84c-0.13-17.71,7.68-33.75,7.68-33.75
		c1.07,2.69,2.6,4.75,4.35,6.33c6.15,5.59,14.88,5.23,14.88,5.23c-4.92,7.15-5.56,28.02-5.56,28.02c1.09-0.71,2.22-1.35,3.34-1.94
		c1.29,3.43,4.64,12.57,5.06,23.41C204.39,207.63,202.19,225.48,200.38,235.69z"/>
	<path class="st4" d="M294.75,144.75c0,0-4.35,11.4-9.4,17.61c-5.04,6.21-13.92,16.24-19.66,22.25
		c-4.55,4.76-9.96,11.38-10.88,15.52c-0.74,3.32-4.78,17.02-6.35,22.33c0,0-5.31-21.04-7.53-26.21l2.68-26.68
		c1.1,0.48,1.78,0.81,1.98,0.81c0.39,0,3.34-2.6,7.02-5.93c5.6-5.09,12.91-11.91,15.42-13.86c4.14-3.24,13.27-10.56,13.27-10.56
		c0.71,1.29,1.72,2.26,2.85,2.97C288.48,145.71,294.75,144.75,294.75,144.75z"/>
	<path class="st8" d="M293.72,270.57c-1.1,3.29-2.94,9.33-5.08,16.49c-6.26,20.95-15.05,51.58-15.05,51.58l-3.99,1.95l-0.36,0.18
		c0,0-5.69-12.42-6.39-28.45c-0.54-12.34,2.01-25.73,3.21-31.22c0.35-1.64,0.59-2.59,0.59-2.59c-0.87,0.25-1.81,0.52-2.8,0.81
		c-12.82,3.71-34.8,10.4-34.8,10.4s-6.47,21.52-11.83,40.97c-2.36,8.57-4.5,16.74-5.76,22.5c-1.1,4.94-2.84,13.32-4.81,22.98
		c-0.01,0.01-0.01,0.02-0.01,0.03c-0.11,0.6-0.24,1.2-0.36,1.8c-5.5,26.9-12.57,62.45-12.57,62.45c-0.65,1.17-3.06,1.26-4.21,1.23
		c-0.37,0-0.62-0.02-0.62-0.02s-11.9-43.64-9.83-57.61c0.88-5.97,2.68-11.05,4.45-14.92c2.37-5.18,4.69-8.19,4.69-8.19
		c0.29-3.5,0.69-9.43,1.14-16.6c1.42-22.56,3.39-57.26,4.47-66.1c0.71-5.83,1.91-13.91,3.16-21.82v-0.01
		c0.04-0.26,0.08-0.52,0.11-0.78c0.03-0.16,0.06-0.32,0.08-0.49c0.18-1.12,0.35-2.23,0.53-3.32c0.04-0.26,0.08-0.5,0.12-0.76
		c0.93-5.74,1.83-11.06,2.52-14.97v-0.01c0.03-0.14,0.05-0.27,0.08-0.39c1.82-10.21,4.01-28.06,3.49-41.51
		c-0.41-10.83-3.77-19.98-5.06-23.41c0.68-0.35,1.37-0.68,2.06-0.99c1.32-0.61,2.65-1.14,3.94-1.61c0.3,1.07,0.63,2.38,0.97,3.86
		c2.34,9.91,5.5,27.14,5.5,27.14l21.89-5c0.92-3.93,1.56-16.17,1.87-23.81c0.07-1.5,0.12-2.83,0.15-3.87
		c1.28,0.35,2.46,0.73,3.54,1.12c2.05,0.71,3.7,1.44,4.86,1.96l-2.68,26.68c2.22,5.17,7.53,26.21,7.53,26.21v0.01
		c-1.24,4.23-3.44,20.46-4.44,28c-0.04,0.33-0.08,0.64-0.12,0.93c-0.05,0.39-0.1,0.76-0.13,1.08c-0.05,0.36-0.1,0.67-0.12,0.93
		c-0.08,0.62-0.13,0.96-0.13,0.96c9.49-3.71,21.9-6.54,32.69-8.29c12.33-2,22.52-2.57,23.71-1.38
		C302.17,246.95,298.03,257.64,293.72,270.57z"/>
	<path class="st9" d="M233.6,95.52c-0.04,0.05-0.07,0.09-0.07,0.09S233.56,95.58,233.6,95.52z"/>
	<path class="st6" d="M306.65,91.04c-0.52,0.35-0.52,18.46-2.41,29.49c-1.9,11.04-9.49,24.21-9.49,24.21
		c-4.73,1.05-8.06-0.07-10.21-1.47c-2.26-1.47-3.24-3.25-3.24-3.25s0.69-6.21,4.31-21.21c3.62-15,12.42-30.01,12.42-30.01
		c-1.73-5.53-1.77-15.38-1.38-15.87c0.04-0.05,0.08-0.1,0.14-0.15c1.86-1.86,4,7.05,4,7.05s4.3-12.59,6.37-11.21
		c2.07,1.38-2.24,7.58-2.59,8.1v0.01c0.31-0.36,4.9-6.52,6.04-5.88c1.06,0.61-3.21,7.34-4.61,9.31c1.47-1.77,6.22-7.24,7.2-7.24
		c1.17,0-4.49,9.93-4.82,10.5c0.39-0.43,6.23-6.97,7.06-4.81C316.32,80.87,307.17,90.7,306.65,91.04z"/>
	<path class="st2" d="M209.81,127.48c3.15-0.54,8.26-0.72,7.3-1.67c-0.95-0.96-2.51-1.91-5.86-1.44c-3.35,0.48-5.14,3.83-5.14,3.83
		S207.55,127.87,209.81,127.48z"/>
	<path class="st2" d="M224.05,125.29c-1.18-0.21-2.01-2.79,2.51-2.69c4.53,0.1,6.04,3.29,6.04,3.29S225.72,125.58,224.05,125.29z"/>
	<path class="st10" d="M188.86,441.65c0,0-4.83,6.21-5.35,7.93h14.49c0,0-3.7-6.88-4.61-8.78L188.86,441.65z"/>
	<path class="st10" d="M269.23,340.76l1.55,4.14h18.8C289.58,344.9,284.24,330.59,269.23,340.76z"/>
	<path class="st11" d="M217.22,330.69c-2.36,8.57-4.5,16.74-5.76,22.5c-1.16,5.26-3.05,14.38-5.19,24.81c-4.35,3.38-10.52,8-11.84,8
		c-1.53,0-7.78-11.07-10.95-16.86c2.37-5.18,4.69-8.19,4.69-8.19c0.29-3.5,0.69-9.43,1.14-16.6c2.83-1.02,9.22-3.54,17.15-7.89
		C211.15,333.87,214.71,331.99,217.22,330.69z"/>
	<path class="st11" d="M293.72,270.57c-1.1,3.29-2.94,9.33-5.08,16.49c-9.93-5.14-19.15-5.89-22.58-5.97
		c0.35-1.64,0.59-2.59,0.59-2.59c-0.87,0.25-1.81,0.52-2.8,0.81c3.38-12.33,9.33-26.4,12.38-33.24c12.33-2,22.52-2.57,23.71-1.38
		C302.17,246.95,298.03,257.64,293.72,270.57z"/>
	<g>
		<g>
			<path class="st12" d="M205.09,252.94c0.25,0.04,0.5,0.09,0.76,0.14l-0.05,0.78c-0.26-0.04-0.51-0.08-0.76-0.13
				c-3.29-0.59-5.76-1.28-7.38-1.9c0.04-0.26,0.08-0.5,0.12-0.76C199.31,251.63,201.75,252.34,205.09,252.94z"/>
			<path class="st12" d="M232.49,253.44l-0.05,0.81c-0.26,0.04-0.52,0.07-0.79,0.11c-2.71,0.34-5.83,0.57-9.37,0.62
				c-0.56,0.01-1.12,0.01-1.67,0.01c-4.36,0-8.16-0.25-11.4-0.64c-0.26-0.03-0.52-0.06-0.76-0.09l0.12-0.78
				c0.26,0.03,0.52,0.07,0.77,0.09c3.6,0.43,7.93,0.71,12.94,0.63c3.58-0.05,6.72-0.29,9.44-0.64
				C231.97,253.52,232.23,253.48,232.49,253.44z"/>
			<path class="st12" d="M244.03,250.47c-0.04,0.33-0.08,0.64-0.12,0.93c-1.97,0.8-4.92,1.75-9,2.46c-0.26,0.04-0.52,0.09-0.78,0.13
				v-0.81c0.27-0.04,0.53-0.08,0.78-0.13C239.15,252.29,242.13,251.28,244.03,250.47z"/>
		</g>
		<g>
			<path class="st12" d="M205.5,258.03l-0.05,0.77c-0.26-0.05-0.52-0.11-0.76-0.16v-0.01c-3.31-0.75-6-1.59-7.75-2.19v-0.01
				c0.04-0.26,0.08-0.52,0.11-0.78c1.71,0.6,4.38,1.44,7.7,2.2v0.01C205,257.9,205.24,257.97,205.5,258.03z"/>
			<path class="st12" d="M231.38,258.4c0.27-0.07,0.54-0.15,0.8-0.23l-0.06,0.82c-0.26,0.08-0.52,0.14-0.79,0.22
				c-2.9,0.76-6.26,1.28-10.06,1.31c-0.19,0.01-0.36,0.01-0.55,0.01c-4.41,0-8.61-0.49-12.29-1.14c-0.26-0.05-0.51-0.1-0.76-0.15
				l0.13-0.75c0.25,0.04,0.49,0.09,0.76,0.13h0.01c3.79,0.69,8.14,1.18,12.7,1.13C225.1,259.73,228.48,259.18,231.38,258.4z"/>
			<path class="st12" d="M243.78,252.47l-0.12,0.93c-0.95,0.75-3.96,2.94-8.75,4.69c-0.26,0.09-0.52,0.19-0.78,0.27v-0.81
				c0.27-0.08,0.53-0.19,0.78-0.28c5.52-2.06,8.51-4.68,8.56-4.72C243.55,252.48,243.68,252.45,243.78,252.47z"/>
		</g>
		<g>
			<path class="st12" d="M209.46,251.75c-0.07-0.09-0.18-0.13-0.3-0.13h-3.62c-0.19,0-0.36,0.15-0.38,0.35l-0.07,0.97l-0.05,0.79
				l-0.29,4.12v0.01l-0.06,0.77v0.01l-0.26,3.68c-0.02,0.19,0.12,0.36,0.29,0.4l2.68,0.64c0.03,0.01,0.06,0.02,0.09,0.02
				c0.07,0,0.15-0.03,0.22-0.07c0.09-0.06,0.15-0.15,0.17-0.26l0.56-3.65l0.12-0.76h0.01l0.65-4.3l0.12-0.77l0.23-1.5
				C209.57,251.94,209.54,251.83,209.46,251.75z M208.44,254.24l-0.65,4.25l-0.13,0.75l-0.5,3.26l-1.94-0.48l0.23-3.24l0.05-0.77
				l0.3-4.18l0.05-0.78l0.05-0.68h2.82l-0.16,1.07L208.44,254.24z"/>
		</g>
		<g>
			<path class="st12" d="M231.65,254.35l-0.27,4.06c0.27-0.07,0.54-0.15,0.8-0.23l0.26-3.93
				C232.18,254.28,231.92,254.31,231.65,254.35z M234.52,251.61h-2.32c-0.21,0-0.39,0.15-0.4,0.36l-0.1,1.57l-0.05,0.8l-0.27,4.06
				l-0.05,0.81l-0.16,2.45c-0.01,0.13,0.04,0.25,0.12,0.32c0.07,0.06,0.16,0.09,0.26,0.09h0.08l2.97-0.65
				c0.19-0.04,0.31-0.2,0.31-0.39V252C234.91,251.78,234.73,251.61,234.52,251.61z M234.13,260.73l-2.16,0.47l0.15-2.21l0.06-0.82
				l0.26-3.93l0.05-0.81l0.08-1.04h1.57V260.73z"/>
		</g>
	</g>
	<g>
		<path class="st12" d="M217.73,146.04c-0.11,0-0.21-0.04-0.25-0.19c-0.03-0.11-0.04-0.17,0.22-0.28l0-0.04
			c0.04-0.01,0.16-0.04,0.16-0.04l0.01,0.01c0.45-0.15,1.38-0.39,3.29-0.88c2.83-0.73,4.27-0.69,4.99-0.5
			c-2.11-5.52-5.43-14.68-4.96-16.86c0.03-0.14,0.17-0.23,0.31-0.2c0.14,0.03,0.23,0.17,0.2,0.31c-0.32,1.5,1.58,7.83,5.08,16.91
			l0.09,0.25c0.05,0.12-0.01,0.25-0.12,0.32c-0.11,0.06-0.25,0.03-0.33-0.07l0,0c-0.01,0-0.85-0.76-5.14,0.34
			c-2.2,0.56-3.01,0.78-3.3,0.86l0.01,0.01C217.9,146.02,217.81,146.04,217.73,146.04z"/>
	</g>
	<path class="st13" d="M217.3,151.85c2.48-0.29,2.48-0.29,10.82-1.41c0,0-0.35,4.99-5.26,5.47
		C217.96,156.39,217.3,151.85,217.3,151.85z"/>
	<path class="st14" d="M216,133.39c0,1.83-0.67,3.31-1.49,3.31c-0.82,0-1.49-1.48-1.49-3.31s0.67-3.32,1.49-3.32
		C215.33,130.07,216,131.56,216,133.39z"/>
	<path class="st14" d="M229.24,131.91c0,1.69-0.62,3.07-1.38,3.07c-0.76,0-1.38-1.38-1.38-3.07c0-1.69,0.62-3.07,1.38-3.07
		C228.62,128.84,229.24,130.22,229.24,131.91z"/>
	<path class="st6" d="M238.36,71.21c-0.05,0.05-0.08,0.11-0.13,0.17c-1.64,2.14-8.84,6.56-8.84,6.56s-0.41,1.29-1.08,3.38
		c-0.01,0,0,0.01,0,0.01c-1.68,5.1-5,14.95-8.06,22.3c-4.31,10.35-19.23,41.05-19.23,41.05c-8.25,0.45-13.21-2.72-16.04-5.87
		c-2.45-2.74-3.27-5.45-3.19-5.69c0.17-0.52,7.24-15.7,15.69-27.76c8.46-12.08,21.05-26.56,21.05-26.56
		c-3.28-10.15-1.12-21.78,1.05-22.42c0.22-0.06,0.46-0.01,0.67,0.18c0.69,0.59,0.88,2.52,0.82,4.2c0.59-1.99,1.59-4.31,2.63-4.24
		c1.74,0.12,1.31,7.35,1.22,8.51c0.17-1.06,1.2-7.05,3.09-6.57c2.07,0.52,0,9.66,0.18,12.25c0.18,2.59,3.96,0.34,3.96,0.34
		C237.32,67.24,238.36,71.21,238.36,71.21z"/>
	<path class="st2" d="M221.09,145.79c-4.51,0.64-9.61,4.55-11.76,6.94c0,0,10.33-1.09,15.43-1.8c5.75-0.8,8.98-1.45,8.98-1.45
		S231.14,144.35,221.09,145.79z"/>
	<path class="st7" d="M220.55,80.61c-0.9,1.42-15.25,17.46-22.37,30.01c-5.16,9.11-10.59,21.87-13.19,28.2
		c-2.45-2.74-3.27-5.45-3.19-5.69c0.17-0.52,7.24-15.7,15.69-27.76c8.46-12.08,21.05-26.56,21.05-26.56
		c-3.28-10.15-1.12-21.78,1.05-22.42c-0.69,3.24-1.84,9.92-0.71,14.02C220.42,75.96,221.46,79.19,220.55,80.61z"/>
	<path class="st7" d="M238.23,71.38c-1.64,2.14-8.84,6.56-8.84,6.56s-0.41,1.29-1.08,3.38c0.29-2.74,0.57-5.42,0.63-5.63
		C229.03,75.36,234.85,73.38,238.23,71.38z"/>
	<path class="st7" d="M300.56,89.67c0,0-7.44,13.58-9.89,25.99c-1.58,8.01-4.24,20.71-6.13,27.62c-2.26-1.47-3.24-3.25-3.24-3.25
		s0.69-6.21,4.31-21.21c3.62-15,12.42-30.01,12.42-30.01c-1.73-5.53-1.77-15.38-1.38-15.87c0.04-0.05,0.08-0.1,0.14-0.15
		C297.31,77.26,298.81,86.48,300.56,89.67z"/>
	<path class="st5" d="M200.05,237.54c-0.81,4.72-1.88,11.06-2.92,17.61l-0.11,0.07c0,0-2.2-16.3-2.98-25.35
		c-0.77-9.05-6.46-16.81-9.43-23.16c-2.98-6.33-10.35-22.11-10.48-39.84c-0.13-17.71,7.68-33.75,7.68-33.75
		c1.07,2.69,2.6,4.75,4.35,6.33c-4.26,11.45-6.75,27.05-6.25,35.92c0.52,9.31,10.35,30.01,14.66,41.57
		C197.1,223.75,198.95,231.95,200.05,237.54z"/>
	<path class="st5" d="M284.15,143c-4.59,5.37-21.4,15.97-31.55,21.45c5.6-5.09,12.91-11.91,15.42-13.86
		c4.14-3.24,13.27-10.56,13.27-10.56C282.01,141.32,283.02,142.28,284.15,143z"/>
	<path class="st15" d="M200.05,270.57c0,0-3.6,25.7-5.83,47.08c-2.24,21.39-3.8,49.33-3.8,49.33s-6.9,13.27-6.9,29.67
		c0,14.44,4.83,39.36,5.97,45.03c-0.37,0-0.62-0.02-0.62-0.02s-11.9-43.64-9.83-57.61c0.88-5.97,2.68-11.05,4.45-14.92
		c2.37-5.18,4.69-8.19,4.69-8.19c0.29-3.5,0.69-9.43,1.14-16.6c1.42-22.56,3.39-57.26,4.47-66.1c0.71-5.83,1.91-13.91,3.16-21.82
		v-0.01c0.04-0.26,0.08-0.52,0.11-0.78c0.03-0.16,0.06-0.32,0.08-0.49c0.18-1.12,0.35-2.23,0.53-3.32c0.04-0.26,0.08-0.5,0.12-0.76
		c0.93-5.74,1.83-11.06,2.52-14.97C200.76,242.83,200.71,263.5,200.05,270.57z"/>
	<path class="st15" d="M269.6,340.59l-0.36,0.18c0,0-5.69-12.42-6.39-28.45c-0.54-12.34,2.01-25.73,3.21-31.22
		c0.35-1.64,0.59-2.59,0.59-2.59c-0.87,0.25-1.81,0.52-2.8,0.81c-12.82,3.71-34.8,10.4-34.8,10.4s-6.47,21.52-11.83,40.97
		c-2.36,8.57-4.5,16.74-5.76,22.5c-1.1,4.94-2.84,13.32-4.81,22.98c1.11-13.79,2.68-27.78,4.81-37.64
		c5.87-27.08,13.97-51.46,13.97-51.46c12.77-2.48,48.47-17.69,48.47-17.69s-2.76,15.69-5.35,34.73
		C266.47,319.32,268.45,334.42,269.6,340.59z"/>
	<g>
		<path class="st16" d="M185.24,451.14c-0.86,0-1.55-0.69-1.55-1.55c0-0.19,0.04-0.37,0.1-0.53c0.55-2.44,6.09-37.96,11.95-75.54
			c4.95-31.76,10.56-67.77,15.03-95.84c2.43-15.31,4.27-26.64,5.62-34.66c2.46-14.64,2.46-14.64,3.77-14.91
			c0.84-0.18,1.66,0.36,1.83,1.21c0.08,0.37,0.02,0.74-0.15,1.05c-1.37,4.65-13.88,84.91-23.03,143.64
			c-3.24,20.76-6.19,39.72-8.36,53.49c-1.09,6.89-1.98,12.48-2.61,16.35c-0.32,1.94-0.57,3.45-0.75,4.47
			C186.75,450.19,186.59,451.14,185.24,451.14z M221.27,230.94c-0.14,0.09-0.3,0.15-0.48,0.19
			C220.98,231.09,221.13,231.03,221.27,230.94z"/>
	</g>
	<g>
		<path class="st16" d="M301.65,451.14c-0.85,0-1.55-0.69-1.55-1.55V229.61c0-0.86,0.7-1.55,1.55-1.55c0.86,0,1.56,0.69,1.56,1.55
			v219.97C303.21,450.44,302.51,451.14,301.65,451.14z"/>
	</g>
	<g>
		<path class="st16" d="M249.28,451.14c-0.64,0-1.24-0.39-1.46-1.03c-0.4-1.12-12.31-99.45-19.37-157.96
			c-0.06-0.44,0.08-0.88,0.38-1.22c0.3-0.33,0.72-0.52,1.16-0.52h72.87c0.73,0,1.37,0.52,1.52,1.23l32.94,157.62
			c0.17,0.84-0.36,1.66-1.21,1.84c-0.83,0.18-1.66-0.36-1.84-1.2L301.6,293.51h-69.85c6.47,53.59,18.46,152.55,19.04,155.7
			c0.19,0.76-0.23,1.56-0.99,1.84C249.63,451.11,249.46,451.14,249.28,451.14z"/>
	</g>
	<g>
		<rect x="205.86" y="291.96" class="st17" width="97" height="8.8"/>
		<rect x="198.01" y="348.87" class="st17" width="102.55" height="6.72"/>
		<rect x="189.66" y="412.77" class="st17" width="113.2" height="6.73"/>
	</g>
	<rect x="218.35" y="225.56" class="st17" width="85.19" height="6.03"/>
	<path class="st18" d="M309.34,61.39c0,3.71-9.4,6.95-23.36,8.67c-6.8,0.85-14.68,1.33-23.06,1.33c-25.65,0-46.44-4.48-46.44-10
		c0-5.53,20.79-10.01,46.44-10.01c6.22,0,12.15,0.26,17.56,0.75C297.41,53.61,309.34,57.19,309.34,61.39z"/>
	<path class="st19" d="M274.06,61.12c0,2.14-5.37,3.88-11.99,3.88c-6.62,0-11.98-1.74-11.98-3.88c0-2.14,5.37-3.88,11.98-3.88
		C268.69,57.24,274.06,58.98,274.06,61.12z"/>
	<g>
		<path class="st19" d="M309.34,55.34v6.04c0-4.17-11.84-7.74-28.66-9.24v-0.01c-5.47-0.49-11.48-0.76-17.77-0.76
			c-25.65,0-46.44,4.48-46.44,10.01v-6.73c0,0,11.88-6.73,47.41-6.73c5.43,0,10.26,0.18,14.55,0.47
			C302.21,50.02,309.34,55.34,309.34,55.34z"/>
		<path class="st20" d="M309.34,55.34v6.04c0-4.17-11.84-7.74-28.66-9.24v-0.01c-0.79-1.32-1.57-2.66-2.25-3.74
			C302.21,50.02,309.34,55.34,309.34,55.34z"/>
	</g>
	<path class="st21" d="M309.34,61.39c0,3.71-9.4,6.95-23.36,8.67c-0.57-6.05-4.1-14.67-5.5-17.93
		C297.41,53.61,309.34,57.19,309.34,61.39z"/>
</g>
</svg>
