<?xml version="1.0" encoding="utf-8"?>
<!-- Generator: Adobe Illustrator 27.0.0, SVG Export Plug-In . SVG Version: 6.00 Build 0)  -->
<svg version="1.1" id="Calque_1" xmlns="http://www.w3.org/2000/svg" xmlns:xlink="http://www.w3.org/1999/xlink" x="0px" y="0px"
	 viewBox="0 0 500 500" style="enable-background:new 0 0 500 500;" xml:space="preserve">
<style type="text/css">
	.st0{opacity:0.1;fill:#6BC4CB;}
	.st1{opacity:0.2;fill:#231F20;}
	.st2{fill:#D65027;}
	.st3{fill:#BF3C27;}
	.st4{fill:#2A56A3;}
	.st5{fill:#214387;}
	.st6{fill:#A8DAE8;}
	.st7{fill:#6BC4CB;}
	.st8{fill:#9E5F56;}
	.st9{fill:#844842;}
	.st10{fill:#7CC7CA;}
	.st11{fill:#C83048;}
	.st12{fill:#6E2C28;}
	.st13{fill:#EE7225;}
	.st14{fill:#CF8787;}
	.st15{fill:#F1B5AC;}
	.st16{fill:#2C92BF;}
	.st17{fill:#AC3425;}
	.st18{fill:#F2958E;}
	.st19{fill:#4B4063;}
	.st20{fill:#F4973B;}
	.st21{fill:#EE8224;}
	.st22{fill:#EE7E27;}
	.st23{fill:#5C1537;}
	.st24{fill:#6D5A65;}
	.st25{fill:#F49923;}
	.st26{fill:#FDC312;}
	.st27{fill:#EDD261;}
	.st28{fill:#F5E38F;}
	.st29{fill:#CDE4E1;}
	.st30{fill:#5A201A;}
	.st31{fill:#983222;}
	.st32{fill:#3C1515;}
	.st33{fill:#471814;}
</style>
<path class="st0" d="M339.24,172.91c-95.2,15.35-139.27,103.62-191.8,83.84c-27.43-10.32-26.29-38.48-52.61-42.2
	c-37.31-5.27-90.46,44.15-89.87,94.8c0.62,53.16,60.21,89.68,100.83,101.38c52.92,15.25,69.55-12.8,151.8-6.58
	c68.53,5.18,75.01,26.02,110.7,18.63c79.33-16.42,153.06-141.23,115.63-204.95C459.31,175.96,389.27,164.84,339.24,172.91z"/>
<path class="st1" d="M241.27,71.45c-49.29,8.93-71,66.28-82.21,95.89c-6.88,18.18-23.64,62.43-8.09,74.81
	c21.44,17.07,88.61-38.98,94.66-44.1c18.93-16,80.38-67.95,65.42-102.23C301.88,74.81,266.8,66.82,241.27,71.45z"/>
<g>
	<g>
		<path class="st2" d="M278.49,294.53c-1.57,1.82-2.67-4.58-2.67-4.58s-0.23,3.61-1.32,3.86c-1.09,0.23-2.66-4.35-2.66-4.35
			s0.12,2.42-1.08,2.42c-0.68,0-1.43-1.43-1.96-2.7c0-0.01,0-0.02-0.01-0.03c-0.41-0.99-0.69-1.88-0.69-1.88s-2.65-5.79-1.45-9.77
			c0,0-2.17-7.6-3.5-10.73c-1.33-3.15-3.5-7.01-3.5-7.01c0.48-0.32,0.99-0.71,1.54-1.15c1.42-1.13,3.12-2.59,5.35-4.13
			c2.41-1.65,5.44-3.37,9.45-4.84c0.57-0.2,1.15-0.4,1.76-0.61c0,0-2.16,24.98-1.93,25.35c0.26,0.35,3.75,4.46,4.11,6.51
			C280.3,282.95,280.06,292.72,278.49,294.53z"/>
		<path class="st3" d="M268.8,289.16c-0.41-0.99-0.69-1.88-0.69-1.88s-2.65-5.79-1.45-9.77c0,0-2.17-7.6-3.5-10.73
			c-1.33-3.15-3.5-7.01-3.5-7.01c0.48-0.32,0.99-0.71,1.54-1.15c1.42-1.13,3.12-2.59,5.35-4.13c0.16,5.76,0.93,19.2,2.24,22.06
			C268.79,276.56,267.61,282.88,268.8,289.16z"/>
	</g>
	<path class="st4" d="M267.75,306.48c0,0,1.69,13.14,0.97,34.86c-0.72,21.71-4.1,60.1-4.1,60.1h-3.62c0,0-15.09-55.02-17.25-66.37
		c-2.18-11.33,2.42-19.42,2.42-19.42s-14.12-20.38-18.71-27.75c-4.58-7.37-20.64-32.46-20.64-32.46l-7.84,5.79
		c0,0-1.93,13.16-3.86,22.69c-1.93,9.53-6.28,39.46-6.28,39.46c7.24,21.61,1.45,42.35-0.59,49.11
		c-2.06,6.75-10.14,31.96-10.14,31.96l-1.09-0.17l-3.51-0.56c0,0-3.38-68.41-3.61-79.15c-0.08-3.21-0.23-8.42-0.42-14.65
		c-0.42-14.64-0.93-34.84-0.68-47.37c0.29-14.35,2.37-33.61,3.5-47.39c0.03-0.3,0.05-0.6,0.08-0.9c0.23-3.01,0.43-5.74,0.53-8.07
		c0.02-0.45,0.05-0.92,0.08-1.37c0.02-0.37,0.04-0.72,0.07-1.09c0.72-10.57,2.88-21.34,3.48-24.19c0-0.01,0-0.02,0.01-0.03
		c0.04-0.05,0.07-0.22,0.11-0.5c0-0.04,0.01-0.07,0.01-0.1c0.01-0.07,0.02-0.1,0.02-0.1s2.19-1.02,6.1-3.1
		c2.43-1.29,5.53-2.99,9.18-5.12c9.53-5.55,15.93-9.9,15.93-9.9s5.07-10.73,8.69-18.45c2.83-6.03,5.73-12.51,6.86-15.06
		c2.25,0.42,4.45,0.86,6.59,1.31c-1.31,2.24-4.37,7.6-6.94,13.38c-3.38,7.61-8.8,19.43-8.8,19.43c5.06,1.57,24.25,13.76,24.25,13.76
		c13.95-17.16,25.99-26.52,30.59-29.78c1.99,1.53,3.75,3.03,5.25,4.4c-3.72,2.8-12.49,9.5-17.26,13.91
		c-6.15,5.67-15.45,15.81-15.45,15.81c0.54,1.76,1.31,6.16,1.86,9.65c0.42,2.7,0.74,4.89,0.74,4.89s-0.02,0.02-0.06,0.07
		c-0.52,0.69-4.86,6.39-8.7,11.94c-2.31,3.32-5.42,8.77-7.7,12.91c-0.16,0.31-0.33,0.62-0.48,0.91c-1.27,2.3-2.2,4.05-2.48,4.59
		c-0.01,0.03-0.02,0.05-0.03,0.08c-0.03,0.06-0.05,0.08-0.05,0.08l0.03,0.04c0,0.01,0.01,0.02,0.01,0.03l0.34,0.65L267.75,306.48z"
		/>
	<path class="st5" d="M182.8,175.73c-2.82,12.07-8.02,49.63-9.09,62.21c-0.81,9.67-3.05,50.29-4.23,71.98
		c-0.42-14.64-0.93-34.84-0.68-47.37c0.29-14.35,2.37-33.61,3.5-47.39c0.03-0.3,0.05-0.6,0.08-0.9c0.23-3.01,0.43-5.74,0.53-8.07
		c0.02-0.45,0.05-0.92,0.08-1.37c0.02-0.37,0.04-0.72,0.07-1.09c0.72-10.57,2.88-21.34,3.48-24.19c0-0.01,0-0.02,0.01-0.03
		c0.04-0.05,0.07-0.22,0.11-0.5c0-0.04,0.01-0.07,0.01-0.1c0.01-0.07,0.02-0.1,0.02-0.1S178.89,177.82,182.8,175.73z"/>
	<path class="st5" d="M261.68,401.44h-0.69c0,0-15.09-55.02-17.25-66.37c-2.18-11.33,2.42-19.42,2.42-19.42
		s-14.12-20.38-18.71-27.75c-4.58-7.37-20.64-32.46-20.64-32.46l-7.84,5.79c0,0-1.93,13.16-3.86,22.69
		c-1.93,9.53-6.28,39.46-6.28,39.46c7.24,21.61,1.45,42.35-0.59,49.11c-2.06,6.75-10.14,31.96-10.14,31.96l-1.09-0.17
		c3.09-10.99,9.12-33.19,10.54-44.07c1.94-14.8-1.45-34.43-1.45-34.43s0.64-6.43,2.57-21.7c1.93-15.26,8.05-42.66,8.05-42.66
		l9.65-7.56c0,0,7.07,8.52,15.19,18.58c8.11,10.06,32.11,41.91,32.11,41.91s-0.49,8.36-1.14,19.74
		c-0.64,11.39,3.54,32.54,5.63,44.45C259.67,387.05,261.17,396.53,261.68,401.44z"/>
	<path class="st5" d="M244.3,193.97c0,0-0.02,0.02-0.06,0.07c-0.52,0.69-4.86,6.39-8.7,11.94c-2.31,3.32-5.42,8.77-7.7,12.91
		c-0.16,0.31-0.33,0.62-0.48,0.91c-1.27,2.3-2.2,4.05-2.48,4.59c0.89-2.92,14.97-30.73,18.68-35.3
		C243.98,191.79,244.3,193.97,244.3,193.97z"/>
	<path class="st6" d="M223.46,127.21c-1.13,2.55-4.04,9.03-6.86,15.06c-3.62,7.72-8.69,18.45-8.69,18.45s-6.4,4.35-15.93,9.9
		c-3.67,2.13-6.77,3.84-9.22,5.13c-3.89,2.08-6.06,3.08-6.06,3.08c0.43-3.04,1.57-15.24,6.83-24.5c0,0-15.45-4.47-24.13-3.75
		c0,0-3.92,13.92-2.8,27.36c-0.68-0.07-1.45-0.15-2.29-0.22c-3.72-0.31-8.54-0.55-12.2-0.12c-0.76-3.75-4.26-21.2-4.8-29.67
		c-0.6-9.53,0.61-17.25,0.61-17.25s11.82-5.19,34.87-7.12C186.87,122.38,206.44,124.08,223.46,127.21z"/>
	<path class="st6" d="M280.54,184.62c-1.93,10.74-3.26,21.95-3.26,21.95s1.09,5.68,0.74,14.37c-0.33,7.82-1.73,25.29-2.01,28.71
		c-5.74,2.11-9.5,4.75-12.27,6.94c-0.94,0.74-1.77,1.42-2.53,2.03c-0.57-1.28-9.35-21.46-4.8-30.09c0,0-1.33-11.22-1.45-19.92
		c-0.12-8.68,1.08-23.28,1.08-23.28l-2.29-0.48l-9.46,9.11c0,0-0.23-1.62-0.57-3.81c-0.57-3.61-1.44-8.79-2.04-10.73
		c0,0,9.3-10.14,15.45-15.81c4.77-4.4,13.54-11.11,17.26-13.91c3.67,3.38,5.85,6.06,6.15,6.91
		C281.27,158.68,282.47,173.87,280.54,184.62z"/>
	<path class="st6" d="M269.14,145.31c-4.6,3.26-16.64,12.62-30.59,29.78c0,0-19.19-12.19-24.25-13.76c0,0,5.43-11.82,8.8-19.43
		c2.57-5.78,5.63-11.14,6.94-13.38c1.35,0.29,2.67,0.59,3.97,0.9c6.55,1.54,12.35,3.3,16.77,5.13c6.06,2.5,11.47,5.73,15.94,8.96
		C267.57,144.1,268.37,144.71,269.14,145.31z"/>
	<path class="st7" d="M190.61,151.81c0,0-5.19,13.95-7.85,23.95c-3.89,2.08-6.06,3.08-6.06,3.08c0.43-3.04,1.57-15.24,6.83-24.5
		c0,0-15.45-4.47-24.13-3.75c0,0-3.92,13.92-2.8,27.36c-0.68-0.07-1.45-0.15-2.29-0.22c-1.21-6.03-3.59-21.2,0.58-31.32
		C154.89,146.41,176.61,146.1,190.61,151.81z"/>
	<path class="st7" d="M263.74,256.6c-0.94,0.74-1.77,1.42-2.53,2.03c-0.57-1.28-9.35-21.46-4.8-30.09c0,0-1.33-11.22-1.45-19.92
		c-0.12-8.68,1.08-23.28,1.08-23.28l-2.29-0.48l-9.46,9.11c0,0-0.23-1.62-0.57-3.81c3.56-3.77,8.63-9.05,9.67-9.65
		c1.65-0.97,8.24-3.14,8.24-3.14c-1.85,8.45,0,50.12,0,50.12C259.99,234.06,262.44,249.48,263.74,256.6z"/>
	<path class="st7" d="M266.73,143.51c-4.56,0.53-13.31,0.96-21.03-2.09c-8.4-3.3-10.95-9.32-11.68-12
		c6.55,1.54,12.35,3.3,16.77,5.13C256.84,137.05,262.25,140.28,266.73,143.51z"/>
	<path class="st8" d="M176.53,179.55c0,0,0,0,0.01,0.01c0-0.01,0-0.02,0.01-0.03C176.54,179.54,176.54,179.55,176.53,179.55z"/>
	<path class="st9" d="M176.55,179.53c0.04-0.05,0.07-0.22,0.11-0.5C176.63,179.14,176.6,179.31,176.55,179.53z"/>
	<path class="st10" d="M292.12,413.75c0,0.24-4.83,0.96-6.39,3.38c-1.57,2.42-0.72,4.59,1.45,4.71c2.17,0.12,5.07,0.84,4.94,1.69
		c-0.12,0.84,1.45-0.96,2.18-0.72c0.72,0.24-0.61,3.14,1.33,3.86c1.93,0.72,1.45,2.39,6.51,3c5.07,0.62,7.48-3,9.23-3.85
		c1.75-0.84,6.57-1.21,9.59-0.24c3.02,0.96,3.5,0.72,5.43-0.49c1.93-1.21,4.46-0.11,6.03-1.45c1.57-1.32,2.53-3.85,4.59-3.98
		c2.05-0.12,5.31,0.36,6.39-1.33c1.09-1.69,0.72-3.02,2.65-2.9c1.93,0.12,3.62,0.36,4.23-1.08c0.6-1.45-1.93-3.86,0-4.23
		c1.93-0.36,3.93-3.5,0.09-4.46c-3.84-0.97-6.61,1.45-6.61,1.45L292.12,413.75z"/>
	<polygon class="st2" points="307.93,417.12 344.85,405.66 332.91,401.44 292.12,412.3 	"/>
	<path class="st11" d="M178.11,404.45c-0.72,0-4-1.8-9.36,0c-5.36,1.82-11.76,6.28-11.76,6.28h22.57L178.11,404.45z"/>
	<path class="st11" d="M261.72,410.73h23.29c0,0-13.39-9.53-24.25-10.14L261.72,410.73z"/>
	<polygon class="st12" points="292.12,412.3 292.12,415.67 307.93,420.86 307.93,417.12 	"/>
	<polygon class="st13" points="307.93,420.86 344.85,408.91 344.85,405.66 307.93,417.12 	"/>
	<g>
		<path class="st14" d="M302.13,393.25c-0.42,0-0.84-0.18-1.12-0.53L122.24,171.05c-0.5-0.62-0.4-1.53,0.22-2.04s1.53-0.4,2.04,0.22
			l178.76,221.66c0.5,0.62,0.41,1.54-0.21,2.04C302.77,393.15,302.45,393.25,302.13,393.25z"/>
	</g>
	<path class="st15" d="M250.78,128.57c0,0-0.88,1.61-2.07,3.58c-1.96,3.23-4.78,7.45-5.98,7.09c-1.93-0.56-2.49-3.21-2.66-7.55
		c-0.01-0.31-0.02-0.63-0.02-0.97c0-0.58,0.02-1.21,0.04-1.85c0.18-4.32,0.85-9.59,0.85-9.59c0.12,0.31,0.25,0.61,0.42,0.9
		c1.47,2.55,4.97,5.76,9.4,8.37L250.78,128.57z"/>
	<path class="st16" d="M299.73,394.68c0.48-0.24,4.71-5.91,4.71-5.91l18.58,19.55l-10.38,1.2L299.73,394.68z"/>
	<g>
		<path class="st6" d="M233.53,185.86c-4.65-2.39-28.6-14.36-28.84-14.48c-0.1-0.05-0.19-0.05-0.29-0.02
			c-0.1,0.04-0.17,0.11-0.21,0.2c-0.27,0.66-6.77,16.22-2.43,25.07c1.33,2.72,3.57,4.52,6.66,5.34c1.37,0.37,2.76,0.55,4.13,0.55
			c12.75,0,21.05-16.02,21.14-16.17C233.77,186.17,233.71,185.96,233.53,185.86z M212.55,201.8c-1.31,0-2.63-0.18-3.95-0.53
			c-2.87-0.75-4.96-2.43-6.2-4.96c-3.83-7.84,1.36-21.71,2.32-24.11c2.92,1.47,23.17,11.59,28.14,14.13
			C231.64,188.57,223.87,201.8,212.55,201.8z"/>
	</g>
	<path class="st6" d="M227.36,219.8c0.15-0.29,0.32-0.6,0.48-0.91c-2.23,0.66-5.16,1.45-8.47,2.1v-2.25c0-0.12-0.06-0.24-0.17-0.31
		c-0.1-0.07-0.24-0.07-0.36-0.02l-2,1c-0.12,0.06-0.2,0.18-0.2,0.32v1.75c-6.12,1-13.14,1.43-19.27-0.04
		c-4.63-1.12-8.82-3.37-12.39-5.95l0.35-1.07c0.05-0.15-0.01-0.32-0.14-0.4l-2.05-1.51c-0.09-0.07-0.23-0.08-0.34-0.05
		c-0.11,0.05-0.2,0.14-0.23,0.26l-0.18,0.77c-4.62-3.81-7.91-7.84-9.33-9.74c-0.03,0.37-0.05,0.72-0.07,1.09
		c1.68,2.15,4.88,5.91,9.22,9.43l-1.44,6.02c-3.95-2.24-6.75-4.51-8.39-6.01c-0.03,0.3-0.05,0.6-0.08,0.9
		c1.74,1.54,4.51,3.72,8.29,5.84l-0.64,2.73c-0.04,0.15,0.03,0.3,0.15,0.39l1.31,0.85c0.06,0.02,0.12,0.04,0.19,0.04
		c0.05,0,0.09,0,0.13-0.02c0.11-0.04,0.19-0.11,0.22-0.22l0.85-2.62c3.75,1.88,8.31,3.58,13.69,4.67c3.86,0.77,7.57,1.07,10.99,1.07
		c3.35,0,6.44-0.28,9.15-0.7v2.65c0,0.12,0.06,0.23,0.15,0.3c0.06,0.05,0.14,0.07,0.21,0.07c0.04,0,0.07-0.01,0.11-0.02l2.01-0.72
		c0.15-0.06,0.23-0.2,0.23-0.34v-2.42c2.35-0.46,4.32-1,5.81-1.46l-0.34-0.65c-1.42,0.44-3.27,0.94-5.47,1.38v-4.26
		C222.42,221.13,225.17,220.42,227.36,219.8z M181.42,224.11l-0.7-0.45l0.54-2.29l0.18-0.73l1.4-5.88l0.18-0.77l0.15-0.59l1.4,1.02
		l-0.19,0.6l-0.23,0.72l-1.75,5.4l-0.23,0.68L181.42,224.11z M196.63,226.13c-5.36-1.07-9.89-2.78-13.6-4.64l1.72-5.28
		c3.59,2.56,7.8,4.79,12.45,5.91c2.9,0.71,6,0.99,9.09,0.99c3.52,0,7.05-0.36,10.35-0.9v4.27
		C211.2,227.33,204.22,227.64,196.63,226.13z M218.65,226.14v0.72v2.01l-1.28,0.47v-2.25v-0.74v-4.27v-0.74v-1.4l1.28-0.63v1.82
		v0.73V226.14z"/>
	<g>
		<path class="st17" d="M274.25,294.05c-0.25,0-0.57-0.15-0.93-0.63c-2.11-2.93-3.92-11.04-3.8-11.63c0.04-0.2,0.23-0.33,0.43-0.28
			c0.19,0.04,0.31,0.21,0.29,0.4c0.01,0.7,1.68,8.33,3.67,11.09c0.22,0.31,0.34,0.33,0.34,0.33c0.83-0.37,0.9-8,0.27-11.4
			c-0.04-0.2,0.09-0.39,0.29-0.42c0.19-0.04,0.39,0.09,0.42,0.28c0.41,2.21,0.98,11.48-0.7,12.2
			C274.44,294.03,274.35,294.05,274.25,294.05z"/>
	</g>
	<path class="st18" d="M250.78,128.57c0,0-0.88,1.61-2.07,3.58c-3.15-0.58-6.74-2.29-8.62-3.28c0.18-4.32,0.85-9.59,0.85-9.59
		c0.12,0.31,0.25,0.61,0.42,0.9c1.47,2.55,4.97,5.76,9.4,8.37L250.78,128.57z"/>
	<g>
		<path class="st2" d="M163.08,213.33c-0.26,0.23-0.53,0.33-0.78,0.25c-0.7-0.23-1.69-1.96-2.42-3.17
			c-0.02-0.03-0.04-0.05-0.05-0.08c-0.38-0.63-0.68-1.1-0.8-1.1c0,0-0.01,0.01-0.02,0.02c-0.02,0-0.05,0.04-0.08,0.09
			c0,0-0.01,0-0.01,0.01c-0.58,0.99-2.56,7.59-4.24,7.59c-0.64,0-1.97-0.62-3.52-1.59c-2.85-1.75-6.46-4.58-7.94-6.61
			c-2.29-3.13,0.61-8.2,0.61-8.2s-0.36-4.47-1.69-8.68c-1.32-4.22-4.06-13.25-3.38-13.52c0.91-0.35,2.06-0.58,3.35-0.73
			c3.79-0.45,8.83-0.18,12.6,0.15c0.67,0.06,1.31,0.13,1.89,0.19c2.05,0.2,3.4,0.39,3.4,0.39l-0.23,19.91c0,0,4.46,8.56,4.7,10.61
			C164.65,210.43,163.92,212.57,163.08,213.33z"/>
		<path class="st3" d="M163.08,213.33c-0.97-4.56-3.61-11.06-4.96-14.47c-1.25-3.11-2.77-15.56-3.41-21.09
			c0.67,0.06,1.31,0.13,1.89,0.19c2.05,0.2,3.4,0.39,3.4,0.39l-0.23,19.91c0,0,4.46,8.56,4.7,10.61
			C164.65,210.43,163.92,212.57,163.08,213.33z"/>
		<path class="st3" d="M158.93,209.35c-0.58,0.99-2.56,7.59-4.24,7.59c-0.64,0-1.97-0.62-3.52-1.59
			C155.25,213.35,158.33,210.03,158.93,209.35z"/>
	</g>
	<g>
		<g>
			<g>
				<path class="st19" d="M368.5,400.32c-0.53,0-0.96-0.43-0.96-0.96v-7.5c0-0.53,0.43-0.96,0.96-0.96c0.53,0,0.97,0.43,0.97,0.96
					v7.5C369.47,399.88,369.03,400.32,368.5,400.32z"/>
			</g>
			<g>
				<path class="st19" d="M407.47,404.17c-0.53,0-0.97-0.43-0.97-0.97v-6.88c0-0.53,0.43-0.96,0.97-0.96c0.53,0,0.96,0.43,0.96,0.96
					v6.88C408.44,403.74,408.01,404.17,407.47,404.17z"/>
			</g>
			<g>
				<path class="st19" d="M447.05,404.17c-0.53,0-0.96-0.43-0.96-0.97v-7.6c0-0.53,0.43-0.96,0.96-0.96c0.53,0,0.96,0.43,0.96,0.96
					v7.6C448.01,403.74,447.58,404.17,447.05,404.17z"/>
			</g>
		</g>
		<path class="st20" d="M456.34,342.98c-0.58,1.66-1.15,4.42-1.71,7.82c-0.91,5.51-1.78,12.75-2.52,19.87
			c-0.28,2.65-0.55,5.29-0.79,7.81c-0.98,10.29-1.61,18.69-1.61,18.69s-13.27,2.29-43.68,1.33c-1.97-0.07-3.85-0.14-5.63-0.24
			c-25.85-1.26-33.35-5-33.35-5.79c0-0.78-5.86-54.11-6.76-62.2c-0.07-0.67-0.11-1.03-0.11-1.03s3.97,2.1,12.73,4.73
			c5.67,1.7,13.36,3.62,23.26,5.33c2.11,0.36,4.34,0.72,6.67,1.06c1.34,0.21,2.74,0.4,4.15,0.58
			C439.92,345.29,456.34,342.98,456.34,342.98z"/>
		<path class="st21" d="M456.34,342.98c-0.58,1.66-1.15,4.42-1.71,7.82c-7.16,1.04-18.17,1.42-35.09,0.03
			c-34.13-2.8-52-14.4-59.25-20.57c-0.07-0.67-0.11-1.03-0.11-1.03s3.97,2.1,12.73,4.73c5.67,1.7,13.36,3.62,23.26,5.33
			c2.11,0.36,4.34,0.72,6.67,1.06c1.34,0.21,2.74,0.4,4.15,0.58C439.92,345.29,456.34,342.98,456.34,342.98z"/>
		<g>
			<path class="st22" d="M422.8,298.58l-28.48,0.5l-13.28,0.23l-31.48-9.17l34.38-3.26c0.95,0.17,2.1,0.41,3.38,0.72
				C399.05,290.42,422.8,298.58,422.8,298.58z"/>
			<path class="st2" d="M394.32,299.09l-13.28,0.23l-31.48-9.17l34.38-3.26c0.95,0.17,2.1,0.41,3.38,0.72
				C388.93,291.16,391.75,295.47,394.32,299.09z"/>
		</g>
		<path class="st21" d="M400.4,398.26c-25.85-1.26-33.35-5-33.35-5.79c0-0.84-6.87-63.22-6.87-63.22s3.97,2.1,12.73,4.73
			C378.11,350.97,388.61,382,400.4,398.26z"/>
		<polygon class="st23" points="380.35,284.54 363.8,247.79 368.86,247.79 384.91,284.54 		"/>
		<path class="st24" d="M373.43,403.73c0,2.89-2.34,5.23-5.21,5.23c-2.88,0-5.21-2.34-5.21-5.23c0-2.89,2.33-5.23,5.21-5.23
			C371.09,398.5,373.43,400.83,373.43,403.73z"/>
		<path class="st24" d="M413.08,406.22c0,3.11-2.51,5.63-5.61,5.63c-3.1,0-5.61-2.52-5.61-5.63c0-3.11,2.51-5.63,5.61-5.63
			C410.57,400.59,413.08,403.11,413.08,406.22z"/>
		<ellipse class="st24" cx="446.89" cy="403.32" rx="5.61" ry="5.63"/>
		<path class="st2" d="M409.34,329.02l-2.74,8.96c0,0-9.74-1.39-23.07-3.56c-13.33-2.17-19.71-5.72-19.48-8.04l11.58,1.65
			L409.34,329.02z"/>
		<path class="st10" d="M437.88,304.45c0,1.23-0.97,2.23-2.17,2.23c-1.2,0-2.17-1-2.17-2.23c0-1.23,0.97-2.23,2.17-2.23
			C436.9,302.22,437.88,303.21,437.88,304.45z"/>
		<path class="st10" d="M461.05,316.93c0,1.54-1.4,2.77-3.14,2.77c-1.73,0-3.13-1.23-3.13-2.77c0-1.53,1.41-2.77,3.13-2.77
			C459.64,314.16,461.05,315.4,461.05,316.93z"/>
		<path class="st10" d="M471.9,328.53c0,1.19-0.89,2.15-1.99,2.15c-1.1,0-1.99-0.96-1.99-2.15c0-1.19,0.89-2.15,1.99-2.15
			C471.01,326.38,471.9,327.34,471.9,328.53z"/>
		<polygon class="st25" points="345.57,290.27 361.26,325.98 375.62,328.03 380.44,301.73 		"/>
		<polygon class="st26" points="375.62,328.03 416.76,329.24 424.48,301.37 380.44,301.73 		"/>
		<polygon class="st27" points="380.35,302.22 381.05,299.31 344.85,288.78 346.19,291.66 		"/>
		<polygon class="st28" points="380.35,302.22 424.48,301.37 425.94,297.86 381.05,299.31 		"/>
		<polygon class="st28" points="349.56,290.15 383.94,286.88 383.94,284.11 344.85,288.78 		"/>
		<polygon class="st27" points="383.94,286.88 421.59,298.01 425.94,297.86 383.94,284.11 		"/>
		<polygon class="st23" points="327.59,250.45 355.83,305.22 360.18,304.5 331.58,248.88 		"/>
		<g>
			<path class="st29" d="M406.51,338.37c0,0,2.26-10.78,7.88-19.79c5.63-9.01,7.16-10.18,10.09-9.43c2.94,0.75,5.35,8.3,5.35,8.3
				s3.38-7.56,9.49-5.79c6.11,1.77,5.31,11.1,5.31,11.1s2.26-4.5,5.31-3.86c3.05,0.64,2.25,6.92,2.25,6.92s2.26-4.31,6.28-2.15
				c4.02,2.15,2.73,7.78,2.73,7.78s5.63-3.7,5.79,2.58c0.16,6.27,1.76,8.97-22.52,8.68C420.19,342.43,406.51,338.37,406.51,338.37z"
				/>
			<path class="st10" d="M455.5,333.46c0,1.54-1.24,2.78-2.78,2.78c-1.53,0-2.77-1.25-2.77-2.78c0-1.53,1.24-2.77,2.77-2.77
				C454.26,330.68,455.5,331.92,455.5,333.46z"/>
			<path class="st10" d="M436.79,332.49c0,2.46-2,4.46-4.46,4.46c-2.46,0-4.46-2-4.46-4.46c0-2.46,2-4.46,4.46-4.46
				C434.79,328.03,436.79,330.03,436.79,332.49z"/>
			<circle class="st10" cx="425.33" cy="321.28" r="2.53"/>
		</g>
		<path class="st21" d="M452.11,370.67c-0.28,2.65-0.55,5.29-0.79,7.81c-6.88-0.21-16.94-2.04-28.51-8.82
			c-14.42-8.45-22.68-22.08-26.63-30.36c2.11,0.36,4.34,0.72,6.67,1.06c5.4,8.21,14.3,20.31,22.68,25.22
			C432.89,369.91,443.86,370.76,452.11,370.67z"/>
		<g>
			<path class="st23" d="M451.56,371.66c-8.28,0-17.66-2.04-26.05-6.08c-16.8-8.1-27.48-23.25-27.58-23.4
				c-0.3-0.44-0.2-1.04,0.24-1.35c0.44-0.3,1.04-0.2,1.34,0.24c0.1,0.15-55.63-7.62,26.84,22.78c16.45,6.05,35.04,7.95,42.9,0.75
				c1.94-1.77,2.79-4.14,2.53-7.03c-0.58-6.3-6.31-13.52-10.17-15.93c-0.45-0.29-0.59-0.88-0.31-1.33c0.28-0.46,0.88-0.59,1.33-0.31
				c4.11,2.56,10.42,10.24,11.07,17.39c0.32,3.53-0.74,6.43-3.15,8.63C466.45,369.79,459.51,371.66,451.56,371.66z"/>
		</g>
		<g>
			<path class="st26" d="M456.34,343.84c-1.79,1.48-12.83,2.58-36,0.8c-8.5-0.64-17.04-2.03-24.85-3.66
				c-13.45-2.81-24.7-6.34-29.69-8.07c-7.87-2.74-6.75-6.6-5.11-8.24l4.48,2.28c-0.41,2.2,6.82,4.99,27.86,8.77
				c3.56,0.64,7.53,1.31,11.92,2.01c30.28,4.83,51.39,3.7,51.39,3.7S458.13,342.37,456.34,343.84z"/>
			<path class="st25" d="M395.49,340.97c-13.45-2.81-24.7-6.34-29.69-8.07c-7.87-2.74-6.75-6.6-5.11-8.24l4.48,2.28
				c-0.41,2.2,6.82,4.99,27.86,8.77C393.74,337.58,394.61,339.36,395.49,340.97z"/>
		</g>
	</g>
	<g>
		<path class="st15" d="M276.23,103.09c-1.94,3.88-8.6,24.41-9.77,26.93c-1.05,2.25-2.68,5.15-8.01,4.12
			c-0.9-0.17-1.91-0.45-3.04-0.87c-0.64-0.23-1.25-0.48-1.86-0.75c-1.65-0.71-3.23-1.52-4.72-2.41c-0.3-0.18-0.6-0.36-0.89-0.53
			c-4.42-2.74-7.87-5.98-9.36-8.59c-0.19-0.32-0.32-0.64-0.46-0.98c-1.5-3.83,0.2-8.57,0.2-8.57c-1.49-0.45-2.63-1.69-3.42-3.27
			c-2.11-4.29-1.75-11.19,0.78-12.58c0.17-0.09,0.34-0.16,0.54-0.2c0.35-0.09,0.67-0.11,0.98-0.1c3.02,0.7,3.92,4.65,3.92,4.65
			s1.73-5.07,3.95-8.24c1.4-2,4.52-3.84,6.63-4.94c1.25-0.65,2.15-1.03,2.15-1.03c2.37,5.35,9.29,11.4,15.52,14.65
			C271.85,101.68,274.18,102.58,276.23,103.09z"/>
		<path class="st18" d="M241.55,113.2c-0.12,5.19,3.56,11.95,6.38,16.37c-4.42-2.74-7.87-5.98-9.36-8.59
			c-0.19-0.32-0.32-0.64-0.46-0.98c-1.5-3.83,0.2-8.57,0.2-8.57c-1.49-0.45-2.63-1.69-3.42-3.27c1.07-4.48,1.64-9.14,0.78-12.58
			c0.17-0.09,0.34-0.16,0.54-0.2c0.35-0.09,0.67-0.11,0.98-0.1c3.02,0.7,3.92,4.65,3.92,4.65s1.73-5.07,3.95-8.24
			c1.4-2,4.52-3.84,6.63-4.94C245.62,94.13,241.71,105.68,241.55,113.2z"/>
	</g>
	<path class="st8" d="M247.96,99.59c-0.44-0.61,2.45-3.24,6.57-2.37c4.12,0.88,5.27,4.3,5.27,4.3s-2.72-0.88-6.32-1.49
		C249.89,99.42,247.96,99.59,247.96,99.59z"/>
	<path class="st8" d="M268.12,105.82c-0.17-0.86,1.23-2.36,4.21-1.49c2.98,0.87,1.8,4.01,1.8,4.01s-1.1-1.38-2.59-1.64
		C270.06,106.43,268.22,106.31,268.12,105.82z"/>
	<path class="st30" d="M283.54,102.31c-0.1,0.15-0.22,0.26-0.33,0.35c-1.47,1.05-3.92,1.19-6.98,0.43c-2.05-0.5-4.38-1.41-6.87-2.7
		c-6.23-3.25-13.15-9.3-15.52-14.65c0,0-6.55,2.79-8.78,5.97c-2.22,3.17-3.95,8.24-3.95,8.24s-0.9-3.94-3.92-4.65
		c-0.01,0-0.02-0.01-0.03-0.01c0,0-1.92-8.31,1.42-12.35c2.64-3.2,6.24-6.85,15.08-9.88c2.29-0.79,4.91-1.53,7.98-2.22
		c14.91-3.33,21.05,7.02,22.27,10.96C285.08,85.55,285.61,99.46,283.54,102.31z"/>
	<path class="st31" d="M237.4,98.47c-0.05-0.13-0.2-0.21-0.33-0.16c-0.14,0.05-0.21,0.2-0.17,0.34c0.01,0.02,0.46,1.37,0.69,3.23
		c-0.74,0.3-2.69,1.2-2.34,2.27c0.31,0.95,1.78,1.06,2.44,1.07c-0.06,0.67-0.16,1.36-0.34,2.03c-0.04,0.14,0.05,0.28,0.19,0.32
		c0.02,0.01,0.04,0.01,0.07,0.01c0.12,0,0.23-0.07,0.25-0.2C238.99,103.21,237.46,98.66,237.4,98.47z M235.75,103.98
		c-0.15-0.47,0.95-1.15,1.9-1.56c0.07,0.71,0.1,1.48,0.07,2.26C237.1,104.69,235.94,104.56,235.75,103.98z"/>
	<g>
		<path class="st31" d="M262.93,122.24c-0.02,0-0.04,0-0.05-0.01c-0.18-0.04-4.29-0.95-7-2.73c-0.12-0.08-0.15-0.24-0.07-0.37
			c0.08-0.12,0.24-0.15,0.37-0.08c2.24,1.47,5.59,2.37,6.55,2.6c0.77-4.2,3.09-13.85,3.11-13.95c0.03-0.14,0.17-0.23,0.31-0.19
			c0.14,0.03,0.23,0.17,0.2,0.32c-0.02,0.1-2.44,10.16-3.15,14.19c-0.01,0.07-0.05,0.13-0.11,0.17
			C263.03,122.22,262.98,122.24,262.93,122.24z"/>
	</g>
	<g>
		<path class="st32" d="M259.96,125.96c-4.32,0-6.76-2.05-6.87-2.15c-0.11-0.1-0.12-0.26-0.03-0.37c0.1-0.11,0.26-0.12,0.37-0.03
			c0.03,0.02,2.82,2.34,7.6,1.98c0.15-0.01,0.27,0.1,0.28,0.24c0.01,0.15-0.09,0.27-0.24,0.28
			C260.69,125.95,260.32,125.96,259.96,125.96z"/>
	</g>
	<path class="st32" d="M254.45,107.27c-1.1,1.59-1.4,3.29-0.68,3.79c0.72,0.5,2.2-0.39,3.3-1.98c1.1-1.59,1.4-3.29,0.68-3.79
		C257.02,104.79,255.55,105.67,254.45,107.27z"/>
	<path class="st32" d="M267.65,111.11c-1.07,1.56-1.4,3.19-0.74,3.65c0.66,0.46,2.07-0.44,3.14-1.99c1.07-1.56,1.41-3.18,0.75-3.64
		C270.14,108.66,268.72,109.55,267.65,111.11z"/>
	<path class="st30" d="M258.45,134.14c-0.9-0.17-1.91-0.45-3.04-0.87c-0.64-0.23-1.25-0.48-1.86-0.75c0.69-1.43,2.52-4.77,4.45-4.29
		C259.72,128.64,259.01,132.12,258.45,134.14z"/>
	<path class="st33" d="M283.54,102.31c-0.1,0.15-0.22,0.26-0.33,0.35c-1.47,1.05-3.92,1.19-6.98,0.43c-2.05-0.5-4.38-1.41-6.87-2.7
		c-6.23-3.25-13.15-9.3-15.52-14.65c0,0-6.55,2.79-8.78,5.97c-2.22,3.17-3.95,8.24-3.95,8.24s-0.9-3.94-3.92-4.65
		c-0.01,0-0.02-0.01-0.03-0.01c0,0-1.92-8.31,1.42-12.35c2.64-3.2,6.24-6.85,15.08-9.88c-0.17,4.02,1.8,13.3,7.4,18.35
		C266.66,96.45,274.89,103.01,283.54,102.31z"/>
</g>
</svg>
