<?xml version="1.0" encoding="utf-8"?>
<!-- Generator: Adobe Illustrator 27.0.0, SVG Export Plug-In . SVG Version: 6.00 Build 0)  -->
<svg version="1.1" id="Calque_1" xmlns="http://www.w3.org/2000/svg" xmlns:xlink="http://www.w3.org/1999/xlink" x="0px" y="0px"
	 viewBox="0 0 500 500" style="enable-background:new 0 0 500 500;" xml:space="preserve">
<style type="text/css">
	.st0{opacity:0.1;fill:#6BC4CB;}
	.st1{fill:#F1B5AC;}
	.st2{fill:#F2958E;}
	.st3{fill:#20509E;}
	.st4{fill:#1D4380;}
	.st5{fill:#8A2F29;}
	.st6{fill:#273C7E;}
	.st7{fill:#252D5F;}
	.st8{fill:#F4973B;}
	.st9{fill:#E57E25;}
	.st10{fill:#A8DAE8;}
	.st11{fill:#D65027;}
	.st12{fill:#431413;}
	.st13{fill:#5A1915;}
	.st14{fill:#B25126;}
	.st15{fill:#AC473F;}
	.st16{fill:#6BC4CB;}
	.st17{fill:#E69549;}
	.st18{fill:#A4D3B6;}
	.st19{fill:#713F3F;}
	.st20{fill:#E78233;}
	.st21{fill:#601314;}
	.st22{fill:#983222;}
	.st23{fill:#FFFFFF;}
	.st24{fill:#2C92BF;}
	.st25{fill:#0D4F8E;}
	.st26{fill:#D3843B;}
	.st27{fill:#D55926;}
	.st28{fill:#D1412B;}
	.st29{fill:#C12E26;}
	.st30{fill:#8AC09C;}
</style>
<path class="st0" d="M206.41,69.56C133.77,101.21-1.18,190.32,10.23,310.14c1.37,14.36,4.64,48.68,29.87,76.69
	c66.28,73.59,217.9,30.21,296.28-8.07c85.07-41.55,168.33-118.33,153.39-154.19c-16.32-39.18-137.66-0.21-173.57-60.55
	c-22.87-38.43,8.36-84.46-16.95-105.76C276.88,39.44,232.22,58.32,206.41,69.56z"/>
<g>
	<g>
		<path class="st1" d="M300.23,131.66c0,0-0.67,9.69-3.18,11.64c0,0-2.97-3.09-7.54-1.37c-3.09,1.15-5.19,3.15-6.23,4.32
			c-0.48,0.56-0.74,0.93-0.74,0.93s-4.57,1.26-8.22-5.7c-3.66-6.98-6.51-10.86-7.31-16.8c-0.1-0.77-0.15-1.53-0.15-2.27
			c0.01-4.87,2.13-8.68,3.81-10.17c1.95-1.72,3.66-1.26,7.2-0.35c0.84,0.22,1.86,0.38,2.97,0.48c0.01,0,0.01,0,0.02,0.01
			c3.54,0.34,7.91,0.06,9.92-1.06c2.65-1.49,6.73-3.48,6.98-1.75c0.02,0.13,0.04,0.3,0.04,0.51c0.06,1.15,0.03,3.38,0.09,5.81
			c0.07,2.86,0.28,6.01,0.92,7.97C299.24,126.48,299.77,129.21,300.23,131.66z"/>
		<path class="st2" d="M283.27,146.24c-0.48,0.56-0.74,0.93-0.74,0.93s-4.57,1.26-8.22-5.7c-3.66-6.98-6.51-10.86-7.31-16.8
			c-0.1-0.77-0.15-1.53-0.15-2.27c2.05,4.62,5.31,10.6,8.16,15.3C276.9,140.85,279.49,144.06,283.27,146.24z"/>
		<path class="st2" d="M297.79,110.07c-2.22,2.5-7.35,5.75-16.94,2.3c3.54,0.34,7.91,0.06,9.92-1.06c2.65-1.49,6.73-3.48,6.98-1.75
			C297.76,109.69,297.78,109.86,297.79,110.07z"/>
	</g>
	<g>
		<path class="st1" d="M161.57,259.96c-2.52,8.68-8.92,26.51-8.92,26.51s0.35,7.48-0.35,10.17c-0.08,0.36-0.19,0.62-0.33,0.79
			c-1.15,1.37-1.77-0.35-1.77-0.35s-1.66,10.06-3.6,9.03c-1.94-1.04,0.23-16,0.91-18.74c0.69-2.74,2.74-22.62,3.2-30.28
			c0.46-7.65,2.74-29.13,3.88-31.64c0,0,1.08,0.27,5.65,1.19c1.52,0.3,2.81,0.65,3.86,1.01c2.13,0.68,3.27,1.31,3.27,1.31
			C166.92,232.27,164.08,251.27,161.57,259.96z"/>
		<path class="st2" d="M161.57,259.96c-2.52,8.68-8.92,26.51-8.92,26.51s0.35,7.48-0.35,10.17c0.04-3.95-0.3-10.5-0.22-10.75
			c0.11-0.34,8-27.19,9.15-35.41c1.08-7.72,1.74-16.15,2.87-22.82c2.13,0.68,3.27,1.31,3.27,1.31
			C166.92,232.27,164.08,251.27,161.57,259.96z"/>
	</g>
	<path class="st3" d="M329.6,421.93l-3.45,2.07l-0.4,0.24l-0.38,0.23c0,0-0.69-1.8-1.82-4.79c-4.54-12.1-16.14-43.6-17.6-53.95
		c-1.83-12.92,3.66-21.02,3.66-21.02s-5.15-14.29-8.23-27.88c-1.95-8.58-6.03-22.93-8.78-32.3l-0.05-0.16
		c-0.67-2.28-1.25-4.24-1.7-5.77v-0.01c-0.62-2.09-1-3.32-1-3.32l-0.18,0.09l-0.02,0.01l-0.02,0.01l-0.63,0.32l-1.51,0.79
		c-0.02,0.07-0.04,0.14-0.06,0.22c-8.3,29.73-8.31,29.56-11.43,44.45c-2.97,14.17-7.54,26.96-10.74,39.98
		c-1.64,6.67-5.5,22.68-8.88,36.69c-3.21,13.34-5.98,24.88-5.98,24.88l-2.14,0.34l-0.46,0.08l-2.54,0.41c0,0-7.2-48.22-4.92-60.34
		c2.28-12.11,10.74-22.62,10.74-22.62s-1.83-39.64-1.37-53.92c0.09-2.82,0.3-5.85,0.59-8.91c0.01-0.2,0.04-0.4,0.06-0.6
		c0.79-8.34,2.1-16.79,2.86-21.38c0.03-0.16,0.05-0.32,0.08-0.46c0.32-1.91,0.52-3.03,0.52-3.03s0.62,0.09,1.74,0.26
		c2.37,0.34,6.99,0.94,12.68,1.39c0.15,0.01,0.31,0.03,0.46,0.04c4.83,0.36,10.38,0.61,15.96,0.48c2.62-0.05,5.25-0.26,7.8-0.57
		c0.18-0.03,0.34-0.05,0.51-0.07c4.96-0.62,9.64-1.63,13.47-2.58c0.15-0.05,0.31-0.09,0.47-0.12c5.46-1.4,9.06-2.71,9.06-2.71
		s0.19,1.29,0.49,3.37c0.03,0.15,0.05,0.3,0.07,0.45c0.64,4.25,1.7,11.31,2.64,17.43c0.04,0.25,0.08,0.49,0.12,0.74
		c0.36,2.39,0.72,4.62,1.01,6.44c1.48,9.14,5.48,48.89,6.4,62.14C327.66,352.24,329.6,421.93,329.6,421.93z"/>
	<path class="st4" d="M256.41,397.84c-3.21,13.34-5.98,24.88-5.98,24.88l-2.14,0.34l-0.46,0.08l-2.54,0.41c0,0-7.2-48.22-4.92-60.34
		c2.28-12.11,10.74-22.62,10.74-22.62s-1.83-39.64-1.37-53.92c0.09-2.82,0.3-5.85,0.59-8.91c0.01-0.2,0.04-0.4,0.06-0.6
		c0.79-8.34,2.1-16.79,2.86-21.38c0.03-0.16,0.05-0.32,0.08-0.46c0.32-1.91,0.52-3.03,0.52-3.03s0.62,0.09,1.74,0.26
		c-0.39,11.7-0.7,37.68-0.32,61.77c0.41,25.13-0.68,32.9-0.68,32.9S245.22,375.33,256.41,397.84z"/>
	<path class="st5" d="M289.65,275.26l0.04,0.1l-0.02,0.01C289.66,275.29,289.65,275.26,289.65,275.26z"/>
	<path class="st4" d="M323.56,419.67c-4.54-12.1-16.14-43.6-17.6-53.95c-1.83-12.92,3.66-21.02,3.66-21.02s-5.15-14.29-8.23-27.88
		c-1.95-8.58-6.03-22.93-8.78-32.3l-0.05-0.16c-0.67-2.28-1.25-4.24-1.7-5.77l23.41,64.56c0,0-1,9.08-0.77,27.93
		C313.66,384.4,319.9,407.34,323.56,419.67z"/>
	<path class="st6" d="M220.63,357.74c2.39,8.91,1.94,21.36-0.8,31.54c-2.74,10.17-6.85,28.44-6.85,28.44
		c-0.1,0.05-0.19,0.1-0.28,0.14c-0.27,0.14-0.52,0.26-0.75,0.36c-0.02,0.01-0.03,0.01-0.04,0.02c-0.17,0.06-0.31,0.11-0.46,0.15
		c-2.14,0.68-2.69-0.57-2.69-0.57s-3.09-17.93-4.46-32.55c-1.37-14.62-5.37-36.55-6.74-53.81c-1.23-15.47-4.94-43.72-5.69-49.37
		c-0.08-0.66-0.13-1.01-0.13-1.01s-0.07,0.19-0.2,0.54c0,0.01,0,0.01,0,0.01c-1.05,2.9-6.03,16.64-9.29,25.5
		c-3.66,9.93-12.23,32.33-12.23,32.33s4.11,7.65,6.52,16.67c2.41,9.03,0.79,19.65-1.49,29.59c-2.29,9.94-7.19,33.01-7.19,33.01
		c-0.15,0.06-0.29,0.12-0.43,0.18c-0.16,0.07-0.32,0.11-0.48,0.15c-0.06,0.02-0.11,0.03-0.16,0.04c-2.39,0.53-4.28-0.95-4.28-0.95
		s-0.02-0.12-0.05-0.35c-0.26-2.43-1.91-17.82-3.27-30.61c-1.49-13.94-5.48-44.22-5.48-44.22s1.94-21.94,4.23-36.83
		c0.49-3.26,1.28-7.39,2.21-11.88c1.19-5.75,2.61-12.07,4.01-17.91c0.7-2.96,1.41-5.8,2.07-8.35c0.06-0.29,0.14-0.58,0.21-0.86
		c0.87-3.39,1.65-6.27,2.24-8.27c0.04-0.15,0.09-0.29,0.14-0.43c0.39-1.31,0.7-2.19,0.89-2.51c0,0,3.83,2.79,16.83,1.78
		c15.68-1.22,21.89-8.64,21.89-8.64s-0.07-0.22-0.2-0.59c0.05-0.04,0.09-0.06,0.09-0.06s1.17,1.42,2.84,3.66l0.28,0.36
		c1.54,2.06,3.44,4.72,5.24,7.55c0.09,0.12,0.17,0.27,0.26,0.4c1.65,2.6,3.2,5.33,4.29,7.85c3.77,8.66-0.68,29.15-2.28,40.23
		c-1.59,11.07-5.48,32.1-5.48,32.1S218.24,348.84,220.63,357.74z"/>
	<path class="st7" d="M220.63,357.74c2.39,8.91,1.94,21.36-0.8,31.54c-2.74,10.17-6.85,28.44-6.85,28.44
		c-0.1,0.05-0.19,0.1-0.28,0.14c-0.27,0.14-0.52,0.26-0.75,0.36c-0.02,0.01-0.03,0.01-0.04,0.02c1.27-8.19,5.09-34.54,3.94-50.22
		c-1.37-18.74-6.17-21.71-6.17-21.71l-0.7,2.54c0.18-0.68,0.48-1.79,0.92-3.45c2.51-9.37,5.94-43.41,5.94-43.41
		s-10.97-21.47-18.89-29.48c-7.93-8-16.53-4.84-22.75,1.83c-4.21,4.52-10.24,14.15-14.06,19.95c1.19-5.75,2.61-12.07,4.01-17.91
		c0.7-2.96,1.41-5.8,2.07-8.35c0.06-0.29,0.14-0.58,0.21-0.86c0.87-3.39,1.65-6.27,2.24-8.27c0.04-0.15,0.09-0.29,0.14-0.43
		c0.39-1.31,0.7-2.19,0.89-2.51c0,0,3.83,2.79,16.83,1.78c15.68-1.22,21.89-8.64,21.89-8.64s-0.07-0.22-0.2-0.59
		c0.05-0.04,0.09-0.06,0.09-0.06s1.17,1.42,2.84,3.66l0.28,0.36c1.54,2.06,3.44,4.72,5.24,7.55c0.09,0.12,0.17,0.27,0.26,0.4
		c1.65,2.6,3.2,5.33,4.29,7.85c3.77,8.66-0.68,29.15-2.28,40.23c-1.59,11.07-5.48,32.1-5.48,32.1S218.24,348.84,220.63,357.74z"/>
	<path class="st7" d="M182.25,307.14c-3.66,9.93-12.23,32.33-12.23,32.33s4.11,7.65,6.52,16.67c2.41,9.03,0.79,19.65-1.49,29.59
		c-2.29,9.94-7.19,33.01-7.19,33.01c-0.15,0.06-0.29,0.12-0.43,0.18c-0.16,0.07-0.32,0.11-0.48,0.15c-0.06,0.02-0.11,0.03-0.16,0.04
		c2.01-9.2,6.42-29.34,6-40.82c-0.57-15.08-6.56-37.69-6.56-37.69s12.13-30.2,17.4-44.57c5.27-14.37,7.92-14.39,7.92-14.39
		C190.48,284.54,185.5,298.29,182.25,307.14z"/>
	<path class="st8" d="M205.93,216.4v-0.01l-0.14-0.29c0,0.47-0.07,0.92-0.18,1.34c-0.01,0.05-0.03,0.09-0.05,0.14
		c-0.36,1.39-1.18,2.45-1.78,3.1c-0.04,0.03-0.06,0.07-0.1,0.1c-0.38,0.37-0.64,0.57-0.64,0.57s0,0.03,0,0.08
		c0.02,0.68,0.2,5.99,1.37,12.72c1.05,6.04,3.14,12.46,3.79,14.38c0.13,0.37,0.2,0.59,0.2,0.59s-1.06,1.26-3.4,2.83
		c-3.34,2.23-9.28,5.09-18.49,5.81c-1.99,0.15-3.77,0.22-5.36,0.22c-8.73,0-11.47-2-11.47-2c0.92-7.49-1.66-25.57-2.2-29.27
		c-0.05-0.31-0.08-0.52-0.09-0.61v-0.01c-0.01-0.03-0.01-0.05-0.01-0.05v2.94c-0.03-0.01-0.05-0.02-0.07-0.03
		c-0.8-0.41-1.84-0.8-2.97-1.17c-4.21-1.35-9.73-2.31-9.73-2.31s0.09-0.82,0.27-2.17c0.02-0.14,0.04-0.3,0.05-0.46
		c0.53-4.21,1.67-12.54,3-17.83c1.83-7.31,3.87-19.53,7.42-21.81c3.39-2.19,8.64-4,13.32-4.58c0.2-0.02,0.39-0.04,0.59-0.06
		c0.02-0.01,0.03-0.01,0.04-0.01c3.02-0.3,5.72-0.45,8.15-0.49c0.17-0.01,0.33-0.01,0.49-0.01c10.97-0.13,16.09,2.02,17.84,2.97
		c0.15,0.09,0.29,0.16,0.39,0.23c0.07,0.04,0.14,0.08,0.19,0.11c1.03,0.69,3.54,4.34,7.18,11.31c2.55,4.9,5.3,13.07,6.72,17.49
		c0.04,0.15,0.1,0.3,0.15,0.45v0.01c0.51,1.6,0.8,2.61,0.8,2.61c-5.42,0.27-9.8,2.2-12.2,3.66c-1.29,0.79-2,1.44-2,1.64
		L205.93,216.4z"/>
	<path class="st9" d="M167.3,228.93c-0.8-0.41-1.84-0.8-2.97-1.17l0.62-3.99c0,0,2.2,0.62,2.31,2.9
		C167.29,227.26,167.3,228.06,167.3,228.93z"/>
	<path class="st9" d="M208.2,248.52c0.13,0.37,0.2,0.59,0.2,0.59s-1.06,1.26-3.4,2.83c-1.29-3.61-3.16-9.81-3.79-16.59
		c-0.99-10.66-1.65-12.53-1.65-12.53s5.74-6.17,4.13-10.45l5.31,4.52c-1.29,0.79-2,1.44-2,1.64l-1.07-2.13v-0.01l-0.14-0.29
		c0,0.47-0.07,0.92-0.18,1.34c-0.01,0.05-0.03,0.09-0.05,0.14c-0.36,1.39-1.18,2.45-1.78,3.1c-0.04,0.03-0.06,0.07-0.1,0.1
		c-0.38,0.37-0.64,0.57-0.64,0.57s0,0.03,0,0.08c0.02,0.68,0.2,5.99,1.37,12.72C205.46,240.18,207.55,246.59,208.2,248.52z"/>
	<path class="st8" d="M335.34,198.91c-0.05-0.02-0.32-0.1-0.76-0.23c-0.09-0.03-0.19-0.06-0.29-0.09c-0.65-0.18-1.57-0.42-2.69-0.65
		c-0.14-0.03-0.31-0.06-0.46-0.08c-1.8-0.36-4.03-0.64-6.44-0.64c-1.83,0-3.67,0.09-5.35,0.21c-3.67,0.27-6.52,0.7-6.52,0.7
		l0.03,0.22h0.01l0.84,5.84l0.04,0.22c0,0-0.08,0-0.23,0.01c-0.57,0.01-2.12,0.02-4.31,0.04c-3.67,0.01-9.08,0.02-14.54-0.05
		c-9.6-0.12-18.17-1.15-20.57,0.05c-1.29,0.64-4.08,2.04-6.5,3.35c-1.81,0.98-3.41,1.92-4.03,2.48c-0.09,0.08-0.16,0.16-0.21,0.22
		c-0.28,0.39-0.79,1.43-1.09,2.61v0.01c-0.53,2.11-0.38,4.69,2.91,4.76c0.29,0,0.59,0,0.9-0.02c0.01,0.01,0.03,0.01,0.04,0
		c0.97-0.03,1.99-0.15,3-0.3c0.04-0.01,0.08-0.02,0.12-0.03c3.4-0.56,6.65-1.66,7.71-2.02c0.01-0.01,0.02-0.01,0.02-0.01
		c0.22-0.08,0.34-0.11,0.34-0.11s0.11,0,0.31,0.01c0.01,0,0.01,0,0.01,0c0.57,0.02,1.82,0.09,3.35,0.35
		c0.23,0.04,0.47,0.08,0.71,0.13c1.21,0.24,2.53,0.59,3.8,1.11c2.11,0.87,8.09,3.97,14.48,6.97c3.15,1.48,6.39,2.93,9.31,4.08
		c1.98,0.78,3.82,1.42,5.38,1.84c0.72,0.2,1.45,0.4,2.19,0.6c-0.42,9.36-0.81,17.92-0.81,17.92s-1.88,0.68-5,1.59
		c-5.89,1.72-16.15,4.23-26.31,4.46c-12.46,0.27-24.75-1.28-29.14-1.92c-1.09-0.16-1.69-0.25-1.69-0.25l-1.49-13.36
		c0,0,0,0,0.9-6.66v-0.01c0.19-1.42,0.42-3.12,0.7-5.21c1.59-11.88,8.04-23.08,8.04-23.08s-2.69-0.7-11.13,1.03
		c-3.55,0.73-6.73,1.6-9.21,2.38c-3.42,1.07-5.52,1.95-5.52,1.95c-0.33-1.21-0.64-2.46-0.93-3.76c-0.04-0.14-0.06-0.3-0.1-0.45
		c-2.71-12.17-3.78-26.94-1.03-31.42c0.01-0.02,0.02-0.03,0.03-0.05c0-0.01,0-0.01,0.01-0.02c3.1-5.01,9.61-10.22,22.01-13.98
		c5.16-1.58,9.15-2.82,12.4-3.78c4.6-1.36,7.73-2.17,10.68-2.5l10.05,0.76c0,0,4.9,1.78,10.71,3.95c4.83,1.8,10.3,3.89,14.08,5.45
		c8.34,3.42,12.34,8.79,14.74,15.31c1.63,4.42,4.07,12.1,5.45,16.58c0.06,0.19,0.12,0.37,0.16,0.54v0.01
		c0.35,1.09,0.6,1.93,0.76,2.45C335.28,198.71,335.33,198.89,335.34,198.91z"/>
	<path class="st9" d="M299.98,158.06c-15.53,6.98-27.23,0.71-31.43-2.22c4.6-1.36,7.73-2.17,10.68-2.5l10.05,0.76
		C289.28,154.11,294.18,155.89,299.98,158.06z"/>
	<path class="st9" d="M241.68,207.37c-3.42,1.07-5.52,1.95-5.52,1.95c-0.33-1.21-0.64-2.46-0.93-3.76c-0.04-0.14-0.06-0.3-0.1-0.45
		c-2.71-12.17-3.78-26.94-1.03-31.42c0.01-0.02,0.02-0.03,0.03-0.05C233.73,181.82,237.34,198.82,241.68,207.37z"/>
	<path class="st9" d="M316.82,230.48c-0.42,9.36-0.81,17.92-0.81,17.92s-1.88,0.68-5,1.59c0.96-5.87,2.38-14.98,2.49-18.08
		c0,0-3.82-0.76-6.78-2.59c0,0-5.95,8.12-22.9,11.14c-16.93,3.03-27.6,2.73-27.6,2.73l-0.67,9.35c-1.09-0.16-1.69-0.25-1.69-0.25
		l-1.49-13.36c0,0,0,0,0.9-6.66v-0.01c13.25-1.2,41.31-3.73,41.98-3.71c0.33,0,2.33-2.03,4.69-4.57c3.15,1.48,6.39,2.93,9.31,4.08
		c1.98,0.78,3.82,1.42,5.38,1.84C315.36,230.07,316.09,230.28,316.82,230.48z"/>
	<path class="st9" d="M309.19,204.46c0.05-2.49,0.09-5.37,0.08-8.52c-0.05-10.65,0-17.57,0-17.57l10.06,19.06
		c-3.67,0.27-6.52,0.7-6.52,0.7l0.03,0.22h0.01l0.84,5.84l0.04,0.22c0,0-0.08,0-0.23,0.01
		C312.93,204.43,311.38,204.44,309.19,204.46z"/>
	<path class="st9" d="M259.58,183.35c0.63,0.6,7.07,19.07,8.33,26.05l-8.57,5.64l3.76-4.58c0,0-0.16-5.93-1.09-12.58
		C261.1,191.24,259.58,183.35,259.58,183.35z"/>
	<g>
		<path class="st10" d="M319.22,269.66c-4.11-3.99-8.06-10.6-10.53-15.23c3.24-0.79,5.92-1.57,7.89-2.2
			c-0.02-0.15-0.05-0.3-0.07-0.45c-1.99,0.63-4.72,1.44-8.05,2.25c-0.59-1.13-1.1-2.13-1.5-2.91c-0.16,0.03-0.31,0.07-0.47,0.12
			c0.39,0.78,0.9,1.77,1.49,2.9c-4.43,1.06-9.89,2.11-16.06,2.82c0.6-1.71,1.03-3,1.1-3.13c-0.17,0.02-0.34,0.04-0.51,0.07
			c-0.18,0.52-0.57,1.64-1.09,3.12c-1.04,0.11-2.1,0.22-3.19,0.31c-7.59,0.64-14.79,0.43-20.76-0.07c0.56-1.34,0.99-2.47,1.28-3.27
			c-0.15-0.01-0.31-0.03-0.46-0.04c-0.3,0.81-0.74,1.95-1.3,3.27c-3.21-0.28-6.07-0.64-8.41-1c-0.06-0.11-0.2-0.14-0.31-0.08
			c0,0-0.02,0.02-0.03,0.04c-2.1-0.32-3.77-0.63-4.89-0.85c-0.03,0.14-0.05,0.3-0.08,0.46c1.12,0.23,2.74,0.52,4.75,0.82
			c-0.82,1.87-3.26,9.18-4.53,18.2c-1.12,0.9-2.19,1.7-3.08,2.35c-0.02,0.2-0.05,0.4-0.06,0.6c0.87-0.63,1.92-1.42,3.05-2.31
			c-0.36,2.69-0.61,5.5-0.68,8.36c-0.33,14.05-0.13,58.22-0.11,60.46c-0.68,0.8-6.79,8.44-8.65,24.09
			c-1.7,14.27,2.66,46.27,3.87,54.78l0.46-0.08c-1.22-8.48-5.57-40.44-3.87-54.64c1.94-16.33,8.51-23.84,8.58-23.91
			c0.04-0.04,0.06-0.09,0.06-0.15c-0.01-0.46-0.23-46.2,0.11-60.54c0.07-3.05,0.35-6.01,0.72-8.78c2.32-1.85,4.91-4.13,6.99-6.5
			c2.73-3.12,4.93-7.52,6.39-10.87c3.45,0.29,7.31,0.48,11.37,0.48c3.11,0,6.35-0.11,9.63-0.39c1-0.08,2-0.18,2.99-0.28
			c-0.86,2.49-1.98,5.78-3,8.79c-0.05,0.12,0.02,0.25,0.14,0.29c0.03,0.01,0.05,0.01,0.07,0.01c0.1,0,0.2-0.07,0.22-0.16
			c0.7-2.03,2.05-6.03,3.06-8.98c6.33-0.71,11.92-1.79,16.45-2.87c2.56,4.81,6.74,11.84,11.13,15.85
			C319.3,270.15,319.25,269.9,319.22,269.66z M260.54,268.23c-1.95,2.22-4.35,4.36-6.55,6.14c1.36-9.33,3.97-16.42,4.48-17.71
			c2.33,0.35,5.16,0.69,8.32,0.96C265.37,260.94,263.21,265.21,260.54,268.23z"/>
		<path class="st10" d="M326.15,424l-0.4,0.24c-0.07-0.24-0.16-0.49-0.26-0.79c-5.75-17.89-9.39-30.55-10.86-37.65
			c-0.45-2.2-0.95-4.37-1.44-6.46c-2.41-10.31-4.7-20.05-1.3-35.16l-19.28-59.66l-0.05-0.16l-2.91-8.98l-0.01-0.04
			c-0.01-0.03,0-0.06,0.01-0.08l-0.63,0.44l-1.38,0.98c-0.04,0.02-0.08,0.04-0.13,0.04c-0.02,0-0.04,0-0.06-0.02
			c-0.05-0.01-0.09-0.03-0.13-0.08c-0.07-0.1-0.05-0.25,0.05-0.32l5.31-3.76c0.1-0.07,0.24-0.05,0.32,0.05
			c0.07,0.1,0.04,0.24-0.06,0.31l-3.03,2.16c0.07,0.02,0.13,0.06,0.15,0.14l22.27,68.89c0.01,0.04,0.01,0.08,0,0.11
			c-3.38,15.06-1.12,24.75,1.3,35.02c0.48,2.1,1,4.27,1.45,6.48c1.44,7.08,5.09,19.75,10.84,37.61
			C326.02,423.58,326.09,423.81,326.15,424z"/>
	</g>
	<path class="st6" d="M84.65,421.86c-2.7,0.85-7.65,3.97-8.83,11.51H90.7c0,0,1.57-7.97,2.84-10.53L84.65,421.86z"/>
	<path class="st1" d="M307.3,227.25c-1.61,1.1-18.23,10.16-33.11,12.01c-15.64,1.94-23.41,2.17-28.68-4.23
		c-5.24-6.4-9.36-25.71-9.36-25.71s0.81-1.1,4.96-2.57c1.65-0.59,3.82-1.23,6.68-1.87c10.05-2.29,14.97-1.5,14.97-1.5
		c0.1,1.74,0.34,4.54,0.57,7.14c-0.79,1.09-3.31,7.27,1.83,7.38c5.15,0.1,12.11-2.5,12.11-2.5s4.31,0.01,8.15,1.59
		c0.01,0.01,0.03,0.01,0.04,0.02c2.41,1,9.78,4.84,17.07,8.16C304.14,225.9,305.76,226.61,307.3,227.25z"/>
	<path class="st1" d="M340.65,223.45c-0.11,2.72-0.73,4.98-2.13,6.43c-4.72,4.93-13.64,2.75-21.7,0.6c-0.73-0.2-1.46-0.4-2.19-0.6
		c-2.06-0.55-4.61-1.48-7.34-2.63c-8.55-3.57-18.9-9.03-21.83-10.24c-0.01-0.01-0.01-0.01-0.01-0.01c-0.01,0-0.02-0.01-0.03-0.01
		c-3.85-1.58-8.15-1.59-8.15-1.59s-6.97,2.6-12.11,2.5c-1.35-0.03-2.17-0.49-2.64-1.15c-1.29-1.88,0.23-5.42,0.81-6.23
		c0.8-1.08,8.34-4.85,10.74-6.05c2.4-1.21,10.97-0.18,20.57-0.05c9.59,0.11,19.07,0,19.07,0l-0.05-0.32v-0.02l-0.87-5.94
		c0,0,2.56-0.38,5.94-0.65c1.83-0.15,3.89-0.26,5.94-0.26c5.66,0,10.38,1.6,10.65,1.69v0.01
		C337.73,206.27,340.93,216.41,340.65,223.45z"/>
	<path class="st11" d="M162.48,418.18c0,0-0.01-0.12-0.04-0.35c-1.07-0.01-2.21,0.08-3.39,0.35c-4.57,1.03-11.99,7.5-11.99,7.5
		l20.79,0.04c0,0-0.16-6.23,0-6.97C164.99,420.12,162.48,418.18,162.48,418.18z"/>
	<path class="st11" d="M208.75,417.83l-3.32,8.91c0,0,5.14,0.23,10.27,0.05c0,0-1.25-5.53-2.73-9.07c0,0-0.1,0.06-0.29,0.15
		C209.51,419.55,208.75,417.83,208.75,417.83z"/>
	<path class="st1" d="M261.52,123.3c-2.25,1.12-0.95,11.87,6.4,10.68c-1.13-4.01-3.09-7.72-4.72-10.65
		C262.68,123.07,262.11,123,261.52,123.3z"/>
	<path class="st12" d="M271.34,121.7c-0.57-1.14,1.48-2.86,5.48-3.43c4-0.57,5.49,0.91,5.49,0.91s0.32,0.91-3.67,1.26
		C274.65,120.79,271.34,121.7,271.34,121.7z"/>
	<path class="st12" d="M292.02,118.62c-0.99-0.63,2.86-3.2,6.63-2.74v1.79C298.64,117.67,293.28,119.42,292.02,118.62z"/>
	<path class="st11" d="M245.3,423.55c0,0,5.83-3.11,11.19-2.88c5.37,0.23,7.42,5.29,7.42,5.29l-18.62,0.08V423.55z"/>
	<path class="st11" d="M325.38,424.46c0,0,4.23-4.91,9.94-4.79c5.71,0.11,10.39,6.07,10.39,6.07s-18.73,0.43-20.33,0.26V424.46z"/>
	<path class="st13" d="M300.23,131.66c1.92,4.83,2.99,10.37-2.5,14.95c-0.5,0.42-1.05,0.81-1.63,1.17
		c-1.69,1.05-3.66,1.85-5.72,2.42c-3.7,1.02-7.69,1.23-10.81,0.68c-0.25-0.05-0.5-0.08-0.73-0.14c-0.3-0.07-0.56-0.14-0.84-0.23
		c-0.46-0.14-0.89-0.29-1.28-0.47c-5.03-2.28-6.97-7.65-8.34-14.22c-0.13-0.62-0.28-1.22-0.46-1.83c-1.12-4.02-3.08-7.72-4.71-10.65
		c-0.74-1.34-1.41-2.51-1.9-3.46c-1.76-3.38-1.26-9.58,3.96-15.74h0.01c0.01-0.02,0.01-0.02,0.02-0.03
		c5.25-6.17,10.86-8.08,16.45-8.45c5.15-0.34,13.71,1.49,17.7,4.11c0.8,0.52,1.35,1.32,1.73,2.29c1.55,3.9,0.19,10.62-0.39,13.36
		c-0.36,1.71-0.86,3.82-1.26,5.49c-0.41,1.68-0.72,2.94-0.72,2.94c-1.3-3.93-0.81-12.56-1.06-14.29c-0.26-1.73-4.34,0.26-6.98,1.75
		c-2.64,1.48-9.36,1.48-12.91,0.57c-3.54-0.91-5.25-1.37-7.2,0.35c-1.76,1.55-4,5.66-3.79,10.86v0.01c0.02,0.52,0.06,1.03,0.14,1.57
		c0.8,5.94,3.66,9.83,7.31,16.8c1.95,3.71,4.16,5.09,5.8,5.56c0.01,0,0.01,0,0.02,0.01c1.43,0.4,2.41,0.12,2.41,0.12
		s2.4-3.54,6.98-5.24c4.57-1.72,7.54,1.37,7.54,1.37C299.56,141.35,300.23,131.66,300.23,131.66z"/>
	<polygon class="st6" points="183.62,199.75 183.62,203.64 198.81,201.7 198.81,197.7 	"/>
	<path class="st11" d="M290.19,186.7l1.03,5.71c0,0,12.57-3.2,16.91-2.86l-1.94-5.37C306.19,184.19,299.9,184.07,290.19,186.7z"/>
	<g>
		<path class="st14" d="M219.87,422.17c-0.63,0-1.16-0.07-1.54-0.16c-2.17-0.46-3.73-1.99-4.29-4.2
			c-1.09-4.23,1.64-10.52,6.36-14.61c3.28-2.84,6.72-4.51,10.86-5.39c2.65-13.47,4.29-36.45,3.43-51.01
			c-1.16-19.84-8.83-41.92-20.51-59.05c-12.74-18.68-26.97-23.89-35.43-20.76c-5.94,2.2-15.74,16.14-26.2,37.28
			c-5.49,11.07-27.1,55.31-32.71,69.51c-5.53,14-18.27,45.98-18.4,46.3c-0.46,1.18-1.79,1.75-2.96,1.28
			c-1.17-0.46-1.75-1.79-1.28-2.97c0.13-0.31,12.86-32.29,18.39-46.29c5.67-14.34,27.36-58.75,32.87-69.86
			c7.99-16.14,19.46-36.11,28.72-39.53c5.51-2.04,12.36-1.25,19.27,2.22c7.67,3.85,15.11,10.85,21.52,20.25
			c12.13,17.79,20.09,40.73,21.3,61.36c0.84,14.29-0.7,36.56-3.23,50.6c3.75-0.29,8.06-0.19,13.2,0.14
			c1.26,0.08,2.22,1.16,2.14,2.42c-0.08,1.26-1.13,2.2-2.43,2.14c-5.88-0.37-10.32-0.41-13.87-0.02c-0.23,0.97-0.46,1.88-0.7,2.71
			C229.94,419.96,223.3,422.17,219.87,422.17z M230.1,402.82c-2.6,0.82-4.68,2.07-6.71,3.83c-4.01,3.48-5.43,8.05-4.93,10.02
			c0.16,0.61,0.42,0.78,0.82,0.87c3.1,0.65,7.6-3.49,10.7-14.28C230.01,403.12,230.06,402.97,230.1,402.82z"/>
	</g>
	<path class="st15" d="M97.51,417.56c-1.91,0.75-14.31,3.5-14.2,5.71c0.11,2.22,16.76-1.86,16.76-1.86L97.51,417.56z"/>
	<path class="st10" d="M302.4,373.02l-1.37,14.43l-1.06,11.2l-2.12,22.36c0,3.35-10.57,6.06-23.61,6.06c-1.4,0-2.77-0.03-4.1-0.09
		c-11.08-0.49-19.5-2.97-19.5-5.97c0,0-1.16-10.91-2.39-22.31c-0.05-0.46-0.1-0.92-0.14-1.39c-0.36-3.31-0.71-6.63-1.05-9.69
		c-0.86-7.93-1.56-14.17-1.64-14.32c0.66,1.69,4.58,3.18,10.44,4.19c4.92,0.85,11.18,1.36,18.01,1.36
		C289.28,378.85,301.85,376.26,302.4,373.02z"/>
	<path class="st16" d="M270.13,426.97c-11.08-0.49-19.5-2.97-19.5-5.97c0,0-1.16-10.91-2.39-22.31c-0.05-0.46-0.1-0.92-0.14-1.39
		c-0.36-3.31-0.71-6.63-1.05-9.69c-0.86-7.93-1.56-14.17-1.64-14.32c0.66,1.69,4.58,3.18,10.44,4.19
		C258.99,393.29,264.3,416.77,270.13,426.97z"/>
	<path class="st17" d="M302.42,372.8c0,3.35-12.8,6.05-28.57,6.05c-6.96,0-13.31-0.53-18.27-1.4c-5.71-1.02-9.53-2.49-10.18-4.15
		c-0.06-0.17-0.1-0.33-0.1-0.5c0-2.11,5.08-3.97,12.79-5.05c4.52-0.64,9.94-1.01,15.76-1.01
		C289.62,366.75,302.42,369.46,302.42,372.8z"/>
	<path class="st18" d="M301.03,387.45l-1.06,11.2c-4.02,1.01-12.12,2.49-26.69,3.05c-4.7,0.18-8.69,0.08-12.04-0.2
		c-6.33-0.55-10.44-1.71-13-2.8c-0.05-0.46-0.1-0.92-0.14-1.39c-0.36-3.31-0.71-6.63-1.05-9.69c2.39,0.96,6.14,2.13,11.57,2.89
		c4.09,0.57,9.14,0.92,15.29,0.79C288.02,391.02,296.58,388.97,301.03,387.45z"/>
	<path class="st19" d="M283.66,424.46c0-6.64,5.38-12.01,12.02-12.01c6.64,0,12.02,5.38,12.02,12.01s-5.38,12.02-12.02,12.02
		C289.04,436.48,283.66,431.09,283.66,424.46z"/>
	<path class="st20" d="M295.67,433.74c-5.11,0-9.28-4.16-9.28-9.28c0-5.11,4.16-9.28,9.28-9.28c5.12,0,9.28,4.16,9.28,9.28
		C304.95,429.58,300.79,433.74,295.67,433.74z"/>
	<path class="st19" d="M248.38,426.88c0-3.44,2.79-6.23,6.23-6.23c3.44,0,6.22,2.79,6.22,6.23s-2.79,6.23-6.22,6.23
		C251.17,433.11,248.38,430.32,248.38,426.88z"/>
	<path class="st20" d="M254.61,430.37c-1.92,0-3.49-1.57-3.49-3.49c0-1.92,1.56-3.49,3.49-3.49c1.92,0,3.48,1.56,3.48,3.49
		C258.09,428.8,256.53,430.37,254.61,430.37z"/>
	<g>
		<path class="st21" d="M206.16,181.24c-2.83,5.24-4.48,16.92-4.5,17.05c-0.02,0.12-0.12,0.2-0.23,0.2h-0.03
			c-0.13-0.02-0.22-0.13-0.2-0.26c0.09-0.56,1.69-11.93,4.56-17.23C205.93,181.1,206.07,181.18,206.16,181.24z"/>
	</g>
	<g>
		<path class="st21" d="M180.19,190.28l-0.08,2.96l-0.02,0.53l-0.57,20.15c-0.01,0.13-0.11,0.22-0.23,0.22c-0.01,0-0.01,0-0.01,0
			c-0.13,0-0.23-0.1-0.22-0.23l0.67-23.53l-6.87-4.72c-0.06-0.04-0.09-0.1-0.09-0.16c-0.01-0.07,0.01-0.12,0.05-0.18
			c1.91-2.1,4.77-5.33,5.83-6.71c0.2-0.02,0.39-0.04,0.59-0.06c-0.91,1.32-3.9,4.68-5.91,6.88l6.75,4.65
			C180.15,190.13,180.19,190.19,180.19,190.28z"/>
	</g>
	<g>
		<path class="st21" d="M179.96,193.81c-0.08,0-0.16-0.04-0.2-0.11c-0.06-0.11-0.03-0.25,0.08-0.31l11.09-6.31l-3.47-8.97
			c-0.04-0.12,0.01-0.25,0.13-0.3c0.12-0.04,0.25,0.02,0.29,0.14l3.54,9.15c0.04,0.11-0.01,0.23-0.1,0.28l-11.25,6.4
			C180.04,193.8,180,193.81,179.96,193.81z"/>
	</g>
	<path class="st10" d="M218.69,370.17c-1.09-11.44-7.5-22.82-8.06-23.79c0.1-0.96,1.14-11.06,1.89-25.41
		c0.27-5.07,0.94-10.56,1.59-15.89c1.3-10.63,2.64-21.61,0.81-29.65c-1.31-5.73-3.03-10.78-4.52-14.5c0.67,0.09,1.35,0.13,2.06,0.13
		c1.42,0,2.92-0.18,4.45-0.64c-0.08-0.13-0.16-0.28-0.26-0.4c-2.29,0.66-4.48,0.7-6.45,0.43c-1.23-3.03-2.27-5.08-2.71-5.77
		c1.54-0.77,2.86-1.54,3.93-2.21l-0.28-0.36c-3.91,2.42-11.05,6.03-20.7,7.41c-10.87,1.57-18.32-0.04-21.64-1.06
		c-0.05,0.14-0.09,0.28-0.14,0.43c0.9,0.28,2.1,0.59,3.59,0.89c-0.51,0.78-3.07,4.65-5.83,7.38c-0.07,0.28-0.14,0.57-0.21,0.86
		c3.27-3.04,6.35-7.89,6.51-8.15c2.34,0.43,5.3,0.76,8.87,0.76c2.65,0,5.63-0.19,8.92-0.66c4.02-0.58,7.61-1.54,10.72-2.64
		c0.58,0.42,3.99,2.8,8.63,3.52c1.49,3.71,3.27,8.83,4.62,14.68c1.82,7.95,0.47,18.9-0.81,29.49c-0.66,5.33-1.33,10.83-1.59,15.92
		c-0.79,15-1.9,25.36-1.91,25.45c-0.01,0.05,0.01,0.1,0.03,0.14c0.07,0.11,6.93,11.86,8.05,23.67c1.01,10.55-5.37,41.41-6.8,48.18
		c0.15-0.04,0.32-0.11,0.5-0.18C213.48,410.92,219.68,380.64,218.69,370.17z M201.76,257.15c1.99-0.73,3.76-1.51,5.33-2.28
		c0.3,0.44,1.31,2.42,2.57,5.5C205.71,259.7,202.72,257.83,201.76,257.15z"/>
	<g>
		<path class="st10" d="M192.06,281.84c0.02,0.13-0.07,0.24-0.2,0.26c-0.12,0.01-0.24-0.07-0.26-0.19
			c-0.01-0.07-0.03-0.15-0.07-0.27c0,0,0,0,0-0.01c-0.23-0.71-0.99-2.18-1.48-3.08c-1.22,3.21-8.41,22.3-12.04,33.9
			c-2.28,7.3-5.4,15.62-7.47,21.12c-1.31,3.48-2.43,6.49-2.47,6.95c1.28,1.48,5.8,13.93,6.36,25.21c0.52,10.62-5.11,42.79-7,53.2
			c-0.16,0.07-0.32,0.11-0.48,0.15c1.84-10.14,7.55-42.68,7.03-53.33c-0.6-12.2-5.47-24.14-6.2-24.93
			c-0.05-0.02-0.08-0.05-0.11-0.09c-0.17-0.23-0.01-0.74,2.46-7.31c2.06-5.5,5.18-13.81,7.46-21.1
			c3.95-12.65,12.15-34.18,12.23-34.39c0.03-0.08,0.11-0.14,0.19-0.14c0.1-0.01,0.18,0.04,0.22,0.11
			C190.39,278.21,191.95,281.04,192.06,281.84z"/>
	</g>
	<g>
		<path class="st21" d="M284.77,187.62c-0.1,0-0.19-0.06-0.22-0.15c-2.4-7.26-6.08-18.23-6.47-18.87c-0.07-0.07-0.09-0.18-0.04-0.26
			c0.06-0.11,0.2-0.15,0.31-0.1c0.11,0.06,0.39,0.21,6.33,18.18l2.6-17.31c0.02-0.12,0.12-0.22,0.26-0.19
			c0.12,0.02,0.21,0.13,0.19,0.26L285,187.42c-0.02,0.11-0.1,0.19-0.21,0.2C284.78,187.62,284.77,187.62,284.77,187.62z"/>
	</g>
	<g>
		<path class="st21" d="M284.77,187.62c-0.11,0-0.21-0.08-0.23-0.2l-1.89-16.22c-0.01-0.13,0.08-0.24,0.2-0.26
			c0.12-0.01,0.24,0.08,0.26,0.2l1.89,16.22c0.02,0.13-0.08,0.24-0.2,0.26C284.79,187.62,284.78,187.62,284.77,187.62z"/>
	</g>
	<g>
		<path class="st21" d="M313.72,204.64c-0.12,0-0.22-0.1-0.23-0.22c-0.01-0.13,0.09-0.24,0.22-0.24c0.04,0,3.9-0.2,6.03-0.49
			c0.13-0.02,0.24,0.07,0.26,0.19c0.02,0.13-0.07,0.24-0.2,0.26c-2.15,0.3-6.03,0.5-6.07,0.51
			C313.73,204.64,313.73,204.64,313.72,204.64z"/>
	</g>
	<path class="st22" d="M262.6,125.7c-0.1-0.07-0.24-0.05-0.32,0.06c-0.07,0.1-0.05,0.25,0.05,0.31c0.02,0.02,0.92,0.68,1.78,1.81
		c-0.03,0.02-0.06,0.02-0.08,0.04c-0.28,0.33-1.15,1.44-0.68,2c0.18,0.22,0.51,0.28,0.87,0.28c0.4,0,0.83-0.08,1.1-0.15
		c0.15,0.42,0.28,0.87,0.35,1.36c0.01,0.11,0.11,0.2,0.22,0.2c0.01,0,0.02,0,0.03,0c0.13-0.02,0.21-0.14,0.2-0.26
		C265.66,127.93,262.73,125.79,262.6,125.7z M263.71,129.63c-0.14-0.18,0.23-0.88,0.66-1.39c0.28,0.41,0.55,0.88,0.78,1.38
		C264.58,129.76,263.87,129.82,263.71,129.63z"/>
	<g>
		<path class="st22" d="M290.93,134.37c-1.02,0-2.24-0.23-3.53-0.96c-0.11-0.07-0.15-0.21-0.09-0.31c0.06-0.11,0.2-0.15,0.31-0.09
			c2.63,1.51,4.96,0.74,5.71,0.43c-0.55-0.7-2.19-2.88-3.17-5.71c-1.19-3.45-0.05-8.37-0.01-8.58c0.03-0.12,0.15-0.2,0.28-0.17
			c0.12,0.03,0.2,0.15,0.17,0.27c-0.01,0.05-1.16,5-0.01,8.33c1.16,3.35,3.25,5.76,3.27,5.79c0.04,0.05,0.06,0.12,0.05,0.19
			c-0.02,0.07-0.05,0.13-0.11,0.16C293.73,133.74,292.59,134.37,290.93,134.37z"/>
	</g>
	<path class="st23" d="M280.82,135.34c0.23,0,4.95,1.45,8.75,0.76c3.81-0.69,5.67-0.76,5.67-0.76s-1.94,5.63-6.35,5.86
		C284.48,141.42,280.82,135.34,280.82,135.34z"/>
	<path class="st21" d="M278.29,125.07c0.08,1.6-0.27,2.91-0.79,2.93c-0.53,0.03-1.02-1.24-1.11-2.83c-0.08-1.59,0.27-2.91,0.8-2.93
		C277.71,122.21,278.21,123.48,278.29,125.07z"/>
	<path class="st21" d="M293.77,123.05c0.08,1.59-0.27,2.9-0.8,2.93c-0.53,0.03-1.02-1.24-1.1-2.83c-0.08-1.59,0.27-2.9,0.79-2.93
		C293.19,120.2,293.69,121.47,293.77,123.05z"/>
	<g>
		<path class="st21" d="M247.81,205.1c-0.1,0-0.2-0.08-0.22-0.19c-0.03-0.12,0.05-0.24,0.18-0.27c10.54-2.27,14.86-1.65,15.03-1.62
			c0.13,0.02,0.21,0.13,0.19,0.26c-0.02,0.13-0.14,0.21-0.26,0.19c-0.04-0.01-4.42-0.63-14.87,1.62
			C247.84,205.1,247.82,205.1,247.81,205.1z"/>
	</g>
	<g>
		<path class="st21" d="M262.25,199.65c-0.01,0.03-0.02,0.06-0.04,0.08c-0.04,0.08-0.14,0.13-0.23,0.11
			c-0.14-0.03-13.26-2.08-26.76,5.71c-0.04-0.14-0.06-0.3-0.1-0.45c13.61-7.8,26.79-5.73,26.93-5.72c0.05,0.01,0.1,0.04,0.13,0.08
			C262.24,199.51,262.26,199.57,262.25,199.65z"/>
	</g>
	<g>
		<path class="st21" d="M334.42,195.94c-8.41-3.29-20.31-1.14-22.07-0.79c-0.14,0.03-0.22,0.05-0.23,0.05
			c-0.11,0.03-0.23-0.05-0.27-0.15c0-0.01-0.01-0.02-0.01-0.03c-0.01-0.03-0.01-0.04-0.01-0.06c0.01-0.1,0.09-0.18,0.18-0.21
			c0.01,0,0.09-0.02,0.23-0.05c1.76-0.35,13.49-2.46,22.01,0.71C334.32,195.59,334.38,195.77,334.42,195.94z"/>
	</g>
	<g>
		<path class="st21" d="M167.55,226.64c-0.02,0.03-0.05,0.05-0.07,0.05c-0.03,0.02-0.07,0.03-0.1,0.03c-0.04,0-0.07-0.01-0.11-0.03
			c-4.16-2.24-9.94-3.11-12.4-3.39c0.02-0.14,0.04-0.3,0.05-0.46c2.35,0.28,7.67,1.07,11.8,3.06l-0.17-0.27
			c-0.77-0.47-10.22-6.71-6.41-21.36c0.03-0.11,0.16-0.19,0.28-0.16c0.13,0.04,0.2,0.15,0.16,0.28
			c-3.86,14.85,6.14,20.82,6.24,20.87c0.04,0.02,0.06,0.05,0.08,0.07l0.47,0.74l0.01,0.01v0.01l0.18,0.29
			C167.63,226.44,167.61,226.56,167.55,226.64z"/>
	</g>
	<path class="st21" d="M220.39,210.61c-8.33-0.3-14.02,5.21-14.41,5.59c-0.02,0.07-0.03,0.13-0.06,0.18c0.01,0.01,0.01,0.01,0,0.01
		c-0.09,0.36-0.2,0.71-0.32,1.03c-0.01,0.05-0.03,0.09-0.05,0.14c-0.45,1.21-1.04,2.24-1.78,3.1c-0.04,0.03-0.06,0.07-0.1,0.1
		c-0.19,0.23-0.41,0.45-0.64,0.65c-0.44,0.39-0.92,0.73-1.43,1.03c-1.8,1.03-3.78,1.33-5.44,1.33c-2.1,0-3.7-0.47-3.82-0.51
		c-0.12-0.03-0.18-0.15-0.15-0.28c0.03-0.11,0.16-0.18,0.29-0.14c0.04,0.01,5.02,1.43,8.9-0.79c2.06-1.18,3.45-3.18,4.16-5.93
		l-5.06-10.21c-0.05-0.1-0.01-0.25,0.11-0.3c0.11-0.06,0.24-0.01,0.3,0.1l4.94,10c1.13-1.05,6.65-5.77,14.4-5.55
		C220.29,210.31,220.35,210.46,220.39,210.61z"/>
	<path class="st24" d="M282.88,171.17c-0.1-0.11-0.28-0.25-0.53-0.42c-2.33-1.6-10.56-5.52-10.56-5.52s1.06-2.58,2.29-5.57
		c1.73-4.17,3.8-9.16,3.88-9.16h0.03c0.28,0.08,0.54,0.16,0.84,0.23c0.23,0.06,0.48,0.09,0.73,0.14c-0.03,1.36-0.04,6.36,1.05,10.4
		c0.01,0.05,0.03,0.09,0.04,0.13C281.96,166.14,282.88,171.17,282.88,171.17z"/>
	<path class="st24" d="M297.5,164.88c-3.7,1.47-13.83,5.93-14.58,6.27c0.55-0.36,2.31-4.93,4.02-9.94c1.38-4.03,2.73-8.33,3.4-10.91
		l0.04-0.1l1.05-0.31l3.96,9.81L297.5,164.88z"/>
	<path class="st12" d="M296.1,147.77c-1.69,1.05-3.66,1.85-5.72,2.42c-3.7,1.02-7.69,1.23-10.81,0.68c-0.25-0.05-0.5-0.08-0.73-0.14
		c-0.3-0.07-0.56-0.14-0.84-0.23c-0.46-0.14-0.89-0.29-1.28-0.47c-5.03-2.28-6.97-7.65-8.34-14.22c-0.13-0.62-0.28-1.22-0.46-1.83
		c-1.12-4.02-3.08-7.72-4.71-10.65c-0.74-1.34-1.41-2.51-1.9-3.46c-1.76-3.38-1.26-9.58,3.96-15.74c-1.2,5.43-0.96,12.03,1.6,18.95
		v0.01c0.02,0.52,0.06,1.03,0.14,1.57c0.8,5.94,3.66,9.83,7.31,16.8c1.95,3.71,4.16,5.09,5.8,5.56c0.01,0,0.01,0,0.02,0.01
		C283.08,148.61,289.17,149.76,296.1,147.77z"/>
	<path class="st12" d="M300.78,115.42c-0.36,1.71-0.86,3.82-1.26,5.49c-0.41,1.68-0.72,2.94-0.72,2.94
		c-1.3-3.93-0.81-12.56-1.06-14.29c1.38-2.08,2.6-4.67,3.43-7.5C302.72,105.95,301.36,112.67,300.78,115.42z"/>
	<path class="st25" d="M280.61,161.26c-2.82-0.27-4.94-0.91-6.53-1.61c1.73-4.17,3.8-9.16,3.88-9.16h0.03
		c0.28,0.08,0.54,0.16,0.84,0.23c0.23,0.06,0.48,0.09,0.73,0.14C279.54,152.23,279.53,157.23,280.61,161.26z"/>
	<path class="st25" d="M295.4,159.69c-3.17,0.82-5.98,1.3-8.45,1.53c1.38-4.03,2.73-8.33,3.4-10.91l0.04-0.1l1.05-0.31L295.4,159.69
		z"/>
	<path class="st26" d="M255.58,377.45c-5.71-1.02-9.53-2.49-10.18-4.15c-0.06-0.17-0.1-0.33-0.1-0.5c0-2.11,5.08-3.97,12.79-5.05
		C255.46,371.07,255.25,374.74,255.58,377.45z"/>
	<g>
		<path class="st27" d="M252.83,372.46c-0.17,0-0.35-0.03-0.52-0.1c-0.7-0.29-1.04-1.09-0.75-1.79l4.8-11.77
			c0.2-0.49,0.66-0.82,1.19-0.85l30.84-1.72c0.61-0.03,1.2,0.37,1.39,0.96l3.77,12.34c0.22,0.72-0.19,1.49-0.91,1.71
			s-1.49-0.19-1.71-0.91l-3.45-11.31l-28.91,1.61l-4.47,10.96C253.89,372.14,253.38,372.46,252.83,372.46z"/>
	</g>
	<g>
		<path class="st1" d="M226.12,229.34c-0.16,0.73-1.44,3.56-3.59,7.09c-2.55,4.19-6.33,9.35-10.92,13.14
			c-8.45,6.96-22.73,12.44-22.73,12.44c-0.45,3.2-3.2,7.32-4.45,7.2c-0.07-0.01-0.13-0.02-0.2-0.04c-0.97-0.37-0.26-2.7-0.26-2.7
			s-2.41,4.57-3.78,4.35c-1.3-0.21,0.71-4.28,0.9-4.68c-1.61,2.18-4.43,5.35-5.35,4.54c-0.91-0.8,3.77-8.57,3.77-8.57
			s-3.43,2.28-4.11,1.83c-0.69-0.45,1.37-2.62,3.42-4.68c2.06-2.05,6.52-2.51,7.54-2.63c1.02-0.11,5.48-4.91,11.31-11.53
			c0.09-0.1,0.17-0.2,0.27-0.3c0,0,0,0,0.01-0.01c5.79-6.65,13.65-17.06,13.65-17.06c-0.57-0.8-4.79-9.59-4.79-9.59
			s0.51-0.47,1.84-1.25c1.1-0.64,2.74-1.48,5.13-2.4c5.25-2.06,7.42-1.26,7.42-1.26C222.35,214.6,226.46,227.74,226.12,229.34z"/>
		<path class="st2" d="M213.21,228.42c0,0-8.47,10.26-15.26,16.37c5.79-6.65,13.65-17.06,13.65-17.06c-0.57-0.8-4.79-9.59-4.79-9.59
			s0.51-0.47,1.84-1.25C212.13,222.36,213.09,226.55,213.21,228.42z"/>
		<path class="st2" d="M222.52,236.43c-2.55,4.19-6.33,9.35-10.92,13.14c-8.45,6.96-22.73,12.44-22.73,12.44
			c-0.45,3.2-3.2,7.32-4.45,7.2c-0.07-0.01-0.13-0.02-0.2-0.04c2.08-3.42,3.68-8.3,3.68-8.3s8.74-3.77,19.13-10.85
			C214.14,245.17,219.65,239.74,222.52,236.43z"/>
	</g>
	<path class="st2" d="M307.3,227.25c-1.61,1.1-18.23,10.16-33.11,12.01c-15.64,1.94-23.41,2.17-28.68-4.23
		c-5.24-6.4-9.36-25.71-9.36-25.71s0.81-1.1,4.96-2.57c1.03,4.85,3.64,20.66,12.17,27.14c0,0,15.32,3.43,28.17,0
		c9.42-2.51,17.47-6.68,21.08-8.72C304.14,225.9,305.76,226.61,307.3,227.25z"/>
	<path class="st2" d="M261.51,224.52c0,0,0,0,0.01,0c0,0.01,0,0.01,0,0.01C261.51,224.53,261.51,224.52,261.51,224.52z"/>
	<path class="st2" d="M340.65,223.45c-0.11,2.72-0.73,4.98-2.13,6.43c-4.72,4.93-13.64,2.75-21.7,0.6c-0.73-0.2-1.46-0.4-2.19-0.6
		c-2.06-0.55-4.61-1.48-7.34-2.63c-8.55-3.57-18.9-9.03-21.83-10.24c-0.01-0.01-0.01-0.01-0.01-0.01c-0.01,0-0.02-0.01-0.03-0.01
		c-3.85-1.58-8.15-1.59-8.15-1.59s-6.97,2.6-12.11,2.5c-1.35-0.03-2.17-0.49-2.64-1.15c2.6-0.48,7.77-1.55,10.19-2.96
		c3.31-1.93,6.51-2.63,8.11-2.39c1.6,0.22,11.65,5.25,31.87,10.05C327.52,224.94,335.82,225.07,340.65,223.45z"/>
	<path class="st2" d="M318.79,203.8l-5.07,0.38l-0.04-0.09v-0.02l-0.87-5.94c0,0,2.56-0.38,5.94-0.65
		C318.66,200.77,318.79,203.8,318.79,203.8z"/>
	<g>
		<path class="st21" d="M309.04,228.19c-0.03,0-0.05-0.01-0.08-0.02c-3.15-1.16-14.01-6.36-22.58-10.52
			c-5.08-2.47-6.93-2.13-9.49-1.67c-0.42,0.07-0.87,0.16-1.35,0.23c-1.14,0.17-2.32,0.56-3.57,0.96c-2.42,0.79-4.92,1.61-7.32,0.9
			c-1.3-0.4-2.18-1.02-2.62-1.87c-0.53-1.03-0.2-2-0.19-2.04c0-0.04,0.26-2.06,1.26-3.72c-0.06-0.73-0.5-6.03-0.53-6.53
			c-0.01-0.13-0.92-13.44-3.22-21.39c-0.04-0.13,0.03-0.25,0.15-0.28c0.13-0.04,0.25,0.03,0.28,0.15
			c2.32,8.01,3.23,21.36,3.24,21.49c0.03,0.52,0.53,6.54,0.54,6.59c0.01,0.05-0.01,0.1-0.04,0.14c-0.99,1.59-1.25,3.62-1.25,3.64
			c-0.01,0.06-0.29,0.88,0.15,1.74c0.38,0.73,1.17,1.28,2.34,1.63c2.27,0.68,4.7-0.12,7.06-0.89c1.27-0.42,2.46-0.8,3.64-0.98
			c0.47-0.07,0.91-0.15,1.34-0.23c2.64-0.49,4.55-0.84,9.77,1.7c8.55,4.16,19.41,9.35,22.54,10.5c0.12,0.05,0.18,0.18,0.14,0.29
			C309.22,228.14,309.13,228.19,309.04,228.19z"/>
	</g>
	<g>
		<path class="st21" d="M335.34,198.91c-0.05-0.02-0.32-0.1-0.76-0.23c-0.09-0.03-0.19-0.06-0.29-0.09
			c-0.72-0.23-1.61-0.46-2.69-0.65c-0.14-0.03-0.31-0.06-0.46-0.08c-1.45-0.23-3.2-0.4-5.26-0.4h-0.1
			c-7.49,0.02-12.87,0.88-12.92,0.89h-0.01c-0.13,0.02-0.22-0.06-0.25-0.16c-0.22-0.85-0.46-1.93-0.73-3.15
			c0-0.03-0.01-0.06-0.02-0.09c-1.35-6.35-3.03-16.32-3.03-16.59c0-0.13,0.1-0.23,0.22-0.23c0.13,0,0.23,0.1,0.24,0.23
			c0.02,0.32,1.63,9.99,2.98,16.33c0.04,0.15,0.06,0.3,0.1,0.45c0.22,1.04,0.44,1.95,0.63,2.73c1.05-0.16,6.08-0.85,12.79-0.86h0.1
			c4.61,0,7.63,0.77,9.31,1.39C335.28,198.71,335.33,198.89,335.34,198.91z"/>
	</g>
	<g>
		<path class="st1" d="M187.73,175.69v0.07c-0.23,2.64,0.46,4.35-1.37,7.77c-1.83,3.43-4.68,7.09-6.4,6.74
			c-1.72-0.35-1.02-7.66-0.67-10.63c0.13-1.08-0.17-2.45-0.61-3.74c-0.47-1.4-1.11-2.72-1.52-3.5c0.14-0.03,0.27-0.05,0.4-0.07
			c3.86-0.77,7.71-4.1,10.19-7.45C187.81,167.52,187.9,173.58,187.73,175.69z"/>
		<path class="st2" d="M187.73,175.69c-3.31,1.24-6.89,0.74-9.05,0.22c-0.47-1.4-1.11-2.72-1.52-3.5c0.14-0.03,0.27-0.05,0.4-0.07
			c3.86-0.77,7.71-4.1,10.19-7.45C187.81,167.52,187.9,173.58,187.73,175.69z"/>
	</g>
	<g>
		<path class="st1" d="M290.37,150.19c-0.01,0.04-0.02,0.08-0.03,0.11c-0.54,2.13-1.57,5.46-2.69,8.81
			c-1.96,5.89-4.2,11.93-4.78,12.05c0,0-0.92-5.03-2.23-9.77c-0.14-0.52-0.27-1.06-0.38-1.6c-0.74-3.71-0.73-7.73-0.7-8.93
			C282.69,151.42,286.67,151.21,290.37,150.19z"/>
		<path class="st2" d="M290.37,150.19c-0.01,0.04-0.02,0.08-0.03,0.11c-0.54,2.13-1.57,5.46-2.69,8.81
			c-3.13,0.85-5.72,0.8-7.39,0.68c-0.74-3.71-0.73-7.73-0.7-8.93C282.69,151.42,286.67,151.21,290.37,150.19z"/>
	</g>
	<path class="st28" d="M211.47,168.57c-2.17,1.14-4.39,1.5-6.44,1.23c-4.19-0.53-7.65-3.63-8.45-7.83
		c-1.2-6.25,0.48-16.93,0.12-19.75c-0.36-2.83-0.74-2.7-1.99-2.83c0,0-2.32-3.8-2.1-6.12c0.02-0.15,0-1.59,0.55-3.25
		c0.8-2.41,2.8-5.28,7.87-5.28c8.53,0,12.49,9.13,11.88,16.33c-0.6,7.2-5.16,16.45-3.49,18.26c1.69,1.8,5.65,0.11,6.49-1.69
		C215.92,157.65,218.07,165.09,211.47,168.57z"/>
	<path class="st29" d="M205.03,169.8c-4.19-0.53-7.65-3.63-8.45-7.83c-1.2-6.25,0.48-16.93,0.12-19.75
		c-0.36-2.83-0.74-2.7-1.99-2.83c0,0-2.32-3.8-2.1-6.12c0.02-0.15,0-1.59,0.55-3.25c4.73-1.5,10.35-0.88,10.15,8.65
		c-0.24,11.21-4.81,17.32-2.53,24C201.82,165.7,203.5,168.09,205.03,169.8z"/>
	<g>
		<path class="st1" d="M198.37,156.21c-1.31,3.12-6.6,6.24-6.6,6.24c-0.43,1.4-1.36,3.1-2.61,4.78c-0.54,0.72-1.13,1.44-1.77,2.14
			c-2.5,2.7-5.72,5.04-8.94,5.69c-0.14,0.02-0.28,0.04-0.43,0.06c-5.82,1.02-10.82-1.07-14.11-7.39c-3.36-6.49-2.88-21.49-1.2-23.41
			c8.41,1.56,16.89-1.64,19.54-2.37c2.64-0.72,3.16,0.08,5.56,3.44c0.43,0.61,0.85,1.35,1.22,2.16c0,0,0,0,0,0.01
			c1.7,3.62,2.75,8.52,2.75,8.52c0-1.09,1.33-3,2.84-4.32c0.82-0.72,1.69-1.27,2.44-1.44C199.22,149.83,199.7,153.08,198.37,156.21z
			"/>
		<path class="st2" d="M198.37,156.21c-1.31,3.12-6.6,6.24-6.6,6.24c-0.43,1.4-1.36,3.1-2.61,4.78c-0.54,0.72-1.13,1.44-1.77,2.14
			c3.28-7.32,2.3-17.42,1.64-21.81c1.7,3.62,2.75,8.52,2.75,8.52c0-1.09,1.33-3,2.84-4.32c0.82-0.72,1.69-1.27,2.44-1.44
			C199.22,149.83,199.7,153.08,198.37,156.21z"/>
	</g>
	<path class="st6" d="M195.22,133.07c-1.94-0.64-3.76,0.54-4.46,1.39c0.96,1.8,1.74,3.85,2.35,5.91
		C198.78,139.15,197.82,133.93,195.22,133.07z"/>
	<path class="st28" d="M194.61,151.76c-1.52,1.32-2.84,3.23-2.84,4.32c0,0-0.73-3.42-1.97-6.66c-0.57-1.51-1.24-2.96-2-4.03
		c-2.4-3.36-2.92-4.16-5.56-3.44c-2.64,0.72-11.13,3.92-19.54,2.37c-2.39-0.45-3.2-4.21-1.29-7.33c1.89-3.12,15.95-10.33,23.39-8.29
		c2.46,0.68,4.43,2.91,5.95,5.75c0.03,0.06,0.07,0.12,0.1,0.19c0.92,1.75,1.67,3.73,2.26,5.73
		C194.44,144.95,194.93,149.6,194.61,151.76z"/>
	<path class="st22" d="M195.22,153.39c-0.1-0.09-0.25-0.08-0.34,0.02c-0.1,0.11-2.54,2.84-2.86,5.1c-0.02,0.13,0.07,0.25,0.2,0.27
		c0.01,0,0.02,0,0.03,0c0.12,0,0.22-0.09,0.24-0.2c0.04-0.29,0.12-0.6,0.23-0.9c0.19,0.08,0.43,0.15,0.68,0.15
		c0.28,0,0.57-0.08,0.81-0.32c0.62-0.59,0.21-2.13,0.06-2.6c0.52-0.7,0.94-1.18,0.95-1.2C195.32,153.63,195.32,153.47,195.22,153.39
		z M193.89,157.17c-0.32,0.31-0.75,0.18-0.98,0.07c0.28-0.64,0.65-1.26,1.02-1.81C194.08,156.09,194.17,156.9,193.89,157.17z"/>
	<g>
		<path class="st22" d="M170,166.18c-1.06,0-1.93-0.03-1.93-0.03c-0.08,0-0.15-0.04-0.19-0.11c-0.04-0.06-0.05-0.14-0.03-0.21
			c0,0,3.52-10.31,3.6-10.55c0.05-0.13,0.18-0.2,0.3-0.15c0.13,0.05,0.2,0.18,0.15,0.3c-0.07,0.22-2.91,8.53-3.5,10.25
			c0.62,0.01,2.02,0.04,3.26-0.02c0.75-0.03,1.08-0.23,1.23-0.39c0.14-0.15,0.13-0.29,0.13-0.3c-0.01-0.13,0.1-0.24,0.23-0.25
			c0.13-0.01,0.24,0.08,0.26,0.22c0,0.04,0.02,0.34-0.24,0.64c-0.3,0.35-0.84,0.53-1.59,0.56
			C171.13,166.18,170.54,166.18,170,166.18z"/>
	</g>
	<path class="st23" d="M171.84,169.42c0,0,2.6,0.48,5.47-0.48c2.86-0.96,4.78-1.7,4.78-1.7s-2.4,4.02-5.85,4.74
		C172.8,172.7,171.84,169.42,171.84,169.42z"/>
	<path class="st28" d="M176.96,152.37c-0.16-0.57,1.92-2.8,4.65-2.96c2.72-0.16,5.27,1.48,5.27,1.48s-3.43-0.12-5.92,0.36
		C178.48,151.73,176.96,152.37,176.96,152.37z"/>
	<path class="st28" d="M170.68,153.46c0,0-1.32-1.78-3.64-2.13c-2.32-0.36-4.01,1.07-4.01,1.07s1.32,0.54,3.83,0.62
		C169.36,153.1,170.68,153.46,170.68,153.46z"/>
	<path class="st21" d="M169.35,156.82c-0.16,1.22-0.74,2.15-1.28,2.07c-0.55-0.07-0.86-1.12-0.7-2.34c0.16-1.22,0.74-2.14,1.29-2.08
		C169.2,154.55,169.51,155.6,169.35,156.82z"/>
	<path class="st21" d="M183.08,155.32c-0.16,1.22-0.74,2.15-1.29,2.08c-0.55-0.07-0.86-1.12-0.7-2.34c0.16-1.22,0.74-2.15,1.29-2.07
		C182.93,153.05,183.24,154.1,183.08,155.32z"/>
	<path class="st29" d="M194.61,151.76c-1.52,1.32-2.84,3.23-2.84,4.32c0,0-0.73-3.42-1.97-6.66c1-5,1.09-11.16,1.05-14.79
		c0.92,1.75,1.67,3.73,2.26,5.73C194.44,144.95,194.93,149.6,194.61,151.76z"/>
	<path class="st30" d="M261.24,401.5c-6.33-0.55-10.44-1.71-13-2.8c-0.05-0.46-0.1-0.92-0.14-1.39c-0.36-3.31-0.71-6.63-1.05-9.69
		c2.39,0.96,6.14,2.13,11.57,2.89C259.3,393.49,260.37,398.07,261.24,401.5z"/>
</g>
</svg>
