<?xml version="1.0" encoding="utf-8"?>
<!-- Generator: Adobe Illustrator 27.0.0, SVG Export Plug-In . SVG Version: 6.00 Build 0)  -->
<svg version="1.1" id="Calque_1" xmlns="http://www.w3.org/2000/svg" xmlns:xlink="http://www.w3.org/1999/xlink" x="0px" y="0px"
	 viewBox="0 0 160 100" style="enable-background:new 0 0 160 100;" xml:space="preserve">
<style type="text/css">
	.st0{fill:#DE7AB5;fill-opacity:0.2;}
	.st1{fill:#EA0073;filter:url(#Adobe_OpacityMaskFilter);}
	.st2{mask:url(#mask0_16640_49752_00000141449099339544231640000000889770340532961957_);}
	.st3{clip-path:url(#SVGID_00000139976708590940176340000008108870668845675659_);}
	.st4{fill:#E0E0E0;}
	.st5{fill:#FAFAFA;}
	.st6{fill:#FFFFFF;}
	.st7{opacity:0.4;fill:#E0E0E0;enable-background:new    ;}
	.st8{fill:#EBEBEB;}
	.st9{fill:#F5F5F5;}
	.st10{fill:#B55B52;}
	.st11{fill:#DE7AB5;}
	.st12{opacity:0.2;enable-background:new    ;}
	.st13{fill:#263238;}
	.st14{fill:#A02724;}
	.st15{fill:#FF5652;}
	.st16{fill:#FF8B7B;}
	.st17{opacity:0.3;enable-background:new    ;}
	.st18{opacity:0.3;fill:#263238;enable-background:new    ;}
	.st19{opacity:0.2;fill:#FFFFFF;enable-background:new    ;}
</style>
<path class="st0" d="M-23.2-14h206.3c6.5,0,11.8,5.3,11.8,11.8v112c0,6.5-5.3,11.8-11.8,11.8H-23.2c-6.5,0-11.8-5.3-11.8-11.8v-112
	C-35-8.7-29.7-14-23.2-14z"/>
<defs>
	<filter id="Adobe_OpacityMaskFilter" filterUnits="userSpaceOnUse" x="-13.5" y="-13.5" width="176.2" height="164">
		<feColorMatrix  type="matrix" values="1 0 0 0 0  0 1 0 0 0  0 0 1 0 0  0 0 0 1 0"/>
	</filter>
</defs>
<mask maskUnits="userSpaceOnUse" x="-13.5" y="-13.5" width="176.2" height="164" id="mask0_16640_49752_00000141449099339544231640000000889770340532961957_">
	<path class="st1" d="M10,7.5h140c4.4,0,8,3.6,8,8v76c0,4.4-3.6,8-8,8H10c-4.4,0-8-3.6-8-8v-76C2,11.1,5.6,7.5,10,7.5z"/>
</mask>
<g class="st2">
	<g>
		<defs>
			<rect id="SVGID_1_" x="-13.5" y="-13.5" width="176.2" height="164"/>
		</defs>
		<clipPath id="SVGID_00000151533116271800091540000002539293669708733088_">
			<use xlink:href="#SVGID_1_"  style="overflow:visible;"/>
		</clipPath>
		<g style="clip-path:url(#SVGID_00000151533116271800091540000002539293669708733088_);">
			<path class="st4" d="M134.1,17.7H87.3v94.3h46.8V17.7z"/>
			<path class="st5" d="M130.8,21.2H90.7v90.8h40.1V21.2z"/>
			<path class="st6" d="M128.5,33.4c-1.6-0.1-2.2,0-2.8-0.7c-0.6-0.8-2.9-1.2-3.7-0.5c-0.8,0.7-1.2,1.1-2.9,0.7s-2.3-0.1-2.7,0.4
				c-0.3,0.5-4.3,0.3-3.2,1h15C128.2,34.3,130.1,33.4,128.5,33.4z"/>
			<path class="st6" d="M115,41.4c-0.7-0.7-2.7-0.9-4.7-0.4c-1.9,0.5-0.3-2.6-3.9-2.1c-5.1,0.8-3.9,3-6,2.8c-2-0.2-8.2,0.3-5.1,1.5
				h18.5C113.8,43.2,115.6,42,115,41.4z"/>
			<path class="st6" d="M123.9,57.1c-0.3-0.3-1.3-0.4-2.2-0.2c-0.9,0.2-0.1-1.3-1.9-1c-2.4,0.4-1.9,1.4-2.9,1.3
				c-1-0.1-4,0.2-2.5,0.7h8.9C123.4,57.9,124.2,57.4,123.9,57.1z"/>
			<path class="st7" d="M55.8,66.8c0,0.4-0.1,0.7-0.3,1c-0.2,0.3-0.5,0.5-0.9,0.7c-0.4,0.1-0.8,0.2-1.2,0.1c-0.4-0.1-0.7-0.2-1-0.5
				c-0.3-0.3-0.5-0.6-0.5-1c-0.1-0.4,0-0.7,0.1-1.1c0.2-0.3,0.4-0.6,0.7-0.8c0.3-0.2,0.7-0.3,1.1-0.3c0.5,0,1,0.2,1.4,0.5
				S55.8,66.3,55.8,66.8z"/>
			<path class="st4" d="M56.9,65.7c0,0.4-0.1,0.7-0.3,1s-0.5,0.5-0.9,0.7c-0.4,0.1-0.8,0.2-1.2,0.1c-0.4-0.1-0.7-0.2-1-0.5
				c-0.3-0.3-0.5-0.6-0.5-1c-0.1-0.4,0-0.7,0.1-1.1c0.2-0.3,0.4-0.6,0.7-0.8c0.3-0.2,0.7-0.3,1.1-0.3c0.3,0,0.5,0,0.8,0.1
				c0.2,0.1,0.5,0.2,0.6,0.4c0.2,0.2,0.3,0.4,0.4,0.6C56.9,65.2,56.9,65.5,56.9,65.7z"/>
			<path class="st8" d="M43.1,72l-0.2-7.1l1.2,5L43.1,72z"/>
			<path class="st8" d="M26.5,18.9H3.7v72.4h22.8V18.9z"/>
			<path class="st4" d="M26.5,91.3h0.6V18.9h-0.6V91.3z"/>
			<path class="st9" d="M24.4,89.4V20.9H5.8v68.5H24.4z"/>
			<path class="st5" d="M12.3,89.4l6.2-68.5h3.6l-6.2,68.5H12.3z"/>
			<path class="st5" d="M9.2,89.4l6.2-68.5h1.8L11,89.4H9.2z"/>
			<path class="st10" d="M66.8,40.2c-0.2,1.8-0.3,3.5-0.4,5.3c-0.1,0.9-0.1,1.8-0.2,2.7c0,0.9-0.1,1.8-0.1,2.7c0,0.4,0,0.9,0,1.3
				v0.7V53c0,0.1,0,0.2,0,0.2c0.1,0.7,0.3,1.4,0.7,2.1c0.8,1.5,1.8,2.9,3,4.2l0,0c0.1,0.2,0.2,0.3,0.2,0.5c0,0.2-0.1,0.4-0.2,0.5
				c-0.1,0.1-0.3,0.2-0.6,0.2c-0.2,0-0.4,0-0.6-0.1c-0.4-0.3-0.8-0.6-1.2-0.9c-0.4-0.3-0.8-0.6-1.1-1c-0.7-0.7-1.4-1.5-2-2.3
				c-0.6-0.9-1.1-1.9-1.3-3c0-0.1-0.1-0.3-0.1-0.4c0-0.2,0-0.3,0-0.4l0-0.7c0-0.5,0-0.9,0-1.4c0-0.9,0-1.8,0-2.7
				c0-0.9,0.1-1.8,0.1-2.7c0.1-1.8,0.2-3.6,0.4-5.4c0-0.4,0.3-0.8,0.6-1.1c0.4-0.3,0.8-0.4,1.3-0.4c0.5,0,0.9,0.3,1.2,0.6
				C66.7,39.3,66.8,39.7,66.8,40.2L66.8,40.2z"/>
			<path class="st11" d="M65.2,37.6c2.7,1.8,1.7,5.3,1.7,5.3l-5.3,2.4c0,0-1.1-4.2-0.4-6C61.8,37.4,63.1,36.2,65.2,37.6z"/>
			<path class="st12" d="M65.3,40.9c-0.6-1.1-1.9-1.3-3.5-0.7c-0.4,0.2-0.7,0.5-1,0.8c0.1,1.5,0.3,2.9,0.6,4.3l4.3-1.9
				C65.9,42.5,65.7,41.7,65.3,40.9z"/>
			<path class="st10" d="M69.2,59.3l2.5,1.3L69,62.3c0,0-1.2-1.2-1-2.5L69.2,59.3z"/>
			<path class="st10" d="M73,62.7l-2.5,1L69,62.3l2.8-1.7L73,62.7z"/>
			<path class="st11" d="M76.4,63.4l-9.1,1.7c-1.4,0.2-2.2,1.5-2,2.7l0.6,3c0.3,1.3,1.6,2.1,2.9,1.8l9.1-1.7c1.4-0.2,2.2-1.5,2-2.7
				l-0.6-3C79.1,64,77.7,63.2,76.4,63.4z"/>
			<path class="st11" d="M69.1,64.9l-0.3-1.2c-0.1-0.3,0-0.6,0.2-0.8c0.2-0.2,0.5-0.4,0.8-0.5l3.1-0.6c0.3-0.1,0.6,0,0.9,0.2
				c0.3,0.2,0.4,0.4,0.5,0.7l0.3,1.2L73.9,64l-0.3-1.2c0-0.1-0.1-0.2-0.2-0.3c-0.1-0.1-0.3-0.1-0.4-0.1L69.9,63
				c-0.1,0-0.1,0-0.2,0.1c-0.1,0-0.1,0.1-0.1,0.1c0,0.1-0.1,0.1-0.1,0.2c0,0.1,0,0.1,0,0.2l0.3,1.2L69.1,64.9z"/>
			<path class="st6" d="M79.5,65.3l-14.4,2.6l0.1,0.7l14.4-2.6L79.5,65.3z"/>
			<path class="st6" d="M74.4,67.7l-3.5,0.6l-0.7-1l4.5-0.8L74.4,67.7z"/>
			<path class="st11" d="M65.9,39.8c-0.5,2.1-2.2,6.7-7,16.4l-13.5-3.5C47,48,47.9,45,48.5,36.2c0-0.4,0.1-0.8,0.3-1.1
				s0.5-0.6,0.8-0.9c0.3-0.2,0.7-0.4,1.1-0.5c0.4-0.1,0.8-0.1,1.2-0.1c0.8,0.1,1.8,0.3,2.7,0.5c2.1,0.4,4.1,0.9,6.1,1.6
				c1.4,0.5,2.9,1.1,3.9,1.6c0.5,0.2,0.9,0.6,1.1,1.1C66,38.7,66,39.3,65.9,39.8z"/>
			<path class="st6" d="M62,37.1c0-0.2-0.1-0.4-0.2-0.5c-0.1-0.1-0.3-0.3-0.5-0.3c0,0,0.1-0.1,0.1-0.1c0,0,0.1-0.1,0.1-0.2
				c-0.3-0.1-0.6-0.2-0.9-0.3c-0.3-0.1-0.6-0.2-0.9-0.3c-1.4-0.4-2.9-0.8-4.3-1.1l-0.9-0.2c-0.3-0.1-0.6-0.1-0.9-0.2
				c0,0.1,0,0.1,0,0.2c0,0.2,0.1,0.4,0.3,0.6c0.1,0,0.1,0.1,0.2,0.1c-0.1,0.1-0.1,0.2-0.2,0.4c0,0.1,0,0.3,0,0.4
				c0,0.1,0.1,0.2,0.2,0.3c0.1,0.1,0.2,0.2,0.3,0.2c-0.1,0.1-0.1,0.2-0.1,0.4c0,0.1,0,0.3,0.1,0.4c0.1,0.1,0.1,0.2,0.2,0.3
				c0.1,0.1,0.2,0.1,0.4,0.2c0,0.1-0.1,0.2,0,0.4c0,0.1,0.1,0.2,0.1,0.4c0.1,0.1,0.2,0.2,0.3,0.3c0.1,0.1,0.2,0.1,0.4,0.1
				c0,0.1,0,0.3,0,0.4c0,0.1,0.1,0.2,0.2,0.3c0.1,0.1,0.2,0.2,0.3,0.2c0.1,0.1,0.2,0.1,0.4,0.1c0,0.1,0,0.3,0,0.4
				c0,0.1,0.1,0.2,0.2,0.3c0.1,0.1,0.2,0.2,0.3,0.2c0.1,0.1,0.3,0.1,0.4,0.1c0,0,0,0,0,0.1c0,0.2,0.1,0.5,0.3,0.6
				c0.1,0.1,0.3,0.2,0.5,0.2c0.2,0,0.4,0,0.5-0.1s0.3-0.2,0.4-0.3c0.1-0.1,0.2-0.3,0.2-0.5c0,0,0-0.1,0-0.1c0.1,0,0.2,0,0.3,0
				c0.2,0,0.3,0,0.4-0.1c0.1-0.1,0.3-0.2,0.3-0.3c0.1-0.1,0.1-0.3,0.2-0.4c0-0.1,0-0.3-0.1-0.4c0.2,0,0.4,0,0.5-0.1
				c0.2-0.1,0.3-0.2,0.4-0.4c0.1-0.2,0.1-0.3,0.1-0.5c0-0.2-0.1-0.3-0.3-0.5c0.2-0.1,0.3-0.2,0.5-0.3C61.9,37.4,62,37.3,62,37.1z"/>
			<path class="st10" d="M57.1,27.8c-0.2,1.9-0.8,5.4-2.5,6.3c0,0,0,2.8,3.9,6.6c3.9-2.5,2.2-5,2.2-5c-2.1-1.1-1.5-2.6-0.7-3.9
				L57.1,27.8z"/>
			<path class="st12" d="M57.4,28.2c-0.3,1.1-0.3,2.2-0.1,3.4c0.2,0.8,1,1.3,2,1.6c0.1-0.5,0.4-1,0.7-1.5L57.4,28.2z"/>
			<path class="st13" d="M66,25c0-1.2-0.7-2.3-1.7-2.4c-1-0.1-1.8,0.8-1.8,2c0,1.2,0.7,2.3,1.7,2.4C65.1,27.1,65.9,26.2,66,25z"/>
			<path class="st10" d="M56.3,24.1c-0.7,3.1-1,4.4,0.2,6.4c1.8,3,6.1,3.1,7.8,0.2c1.5-2.6,2.3-7.3-0.6-9.3
				c-0.6-0.4-1.4-0.7-2.2-0.8c-0.8-0.1-1.6,0-2.3,0.3c-0.7,0.3-1.4,0.7-1.9,1.3C56.8,22.7,56.4,23.4,56.3,24.1z"/>
			<path class="st13" d="M56.1,26c1.5-0.3,3.5-1.2,2.8-3.5c0.8,1.4,5.9,2.3,6.5,1.7c0.3-0.3,0.5-0.7,0.7-1s0.2-0.8,0.2-1.2
				c-0.4-1.4-4.6-2.4-7-2.2C57,20,50.7,24.5,56.1,26z"/>
			<path class="st13" d="M53.8,21.2c-1.8,0-3.9,1.5-4,2.9c-0.1,1.4,1.3,2.5,3.1,2.5c1.8,0,3.3-1.1,3.4-2.5
				C56.3,22.6,55.5,21.2,53.8,21.2z"/>
			<path class="st13" d="M67.8,20.8c0-1.2-0.7-2.3-1.7-2.4c-1-0.1-1.8,0.8-1.8,2c0,1.2,0.7,2.3,1.7,2.4C66.9,23,67.7,22.1,67.8,20.8
				z"/>
			<path class="st13" d="M66.1,18.9c0.1-1.6-0.8-3-2.1-3.2c-1.3-0.2-2.3,0.9-2.5,2.5c-0.1,1.6,0.8,3,2.1,3.2
				C64.9,21.5,66,20.4,66.1,18.9z"/>
			<path class="st13" d="M63,18.4c0.2-2-1.5-4.5-3.3-4.7c-1.8-0.2-3.4,1.2-3.6,3.2c-0.2,2,1.1,3.8,2.9,4C60.8,21,62.8,20.3,63,18.4z
				"/>
			<path class="st13" d="M56.3,19.1c-1.6-0.9-4.3-0.7-5.2,0.4c-0.9,1.2-0.4,2.9,1.2,3.8c1.6,0.9,3.5,0.7,4.5-0.5
				C57.6,21.7,57.8,20,56.3,19.1z"/>
			<path class="st13" d="M59.8,17.3c-1.1-2-4.3-3.5-6.2-2.8c-1.9,0.7-2.5,3-1.5,5c1.1,2,3.5,3,5.3,2.3C59.4,21,60.9,19.3,59.8,17.3z
				"/>
			<path class="st11" d="M54.9,26.7c0.6-1.2,2.3-3.7,4.5-4.9c0.7-0.4,1.4-0.6,2.2-0.6c0.8,0,1.6,0.1,2.3,0.4
				c1.3,0.6,1.6,1.7,1.9,2.4c0,0,0,0.1,0.1,0.1c0,0,0.1,0,0.1,0c0,0,0.1,0,0.1,0c0,0,0.1-0.1,0.1-0.1c0.2-0.3,0.2-0.6,0.3-0.9
				c0-0.7-0.2-1.3-0.6-1.8c-0.4-0.5-0.9-1-1.6-1.2c-1.1-0.5-2.2-0.6-3.4-0.5c-1.2,0.1-2.3,0.5-3.2,1.2c-3,2.2-3.5,5.6-3.3,5.9
				c0,0.1,0,0.1,0.1,0.1c0,0,0.1,0.1,0.2,0.1c0.1,0,0.1,0,0.2,0C54.8,26.7,54.8,26.7,54.9,26.7z"/>
			<path class="st11" d="M54.8,21c-1.1,0.7-2.1,0.7-2.9,0.2c1,2.2,4.7,3.6,6.7,0.9L58,20.4C57.1,20.1,55.9,20.3,54.8,21z"/>
			<path class="st12" d="M54.8,21c-1.1,0.7-2.1,0.7-2.9,0.2c1,2.2,4.7,3.6,6.7,0.9L58,20.4C57.1,20.1,55.9,20.3,54.8,21z"/>
			<path class="st11" d="M62.1,18.6c-0.2-1.2,0.9-1.9,1.6-2.2c-1.9-0.6-5,0.5-4.7,3.5l0.5,1.7c0.4,0,0.8-0.1,1.1-0.3
				c0.3-0.2,0.6-0.4,0.9-0.7c0.2-0.3,0.4-0.6,0.5-1C62.1,19.4,62.1,19,62.1,18.6z"/>
			<path class="st12" d="M62.1,18.6c-0.2-1.2,0.9-1.9,1.6-2.2c-1.9-0.6-5,0.5-4.7,3.5l0.5,1.7c0.4,0,0.8-0.1,1.1-0.3
				c0.3-0.2,0.6-0.4,0.9-0.7c0.2-0.3,0.4-0.6,0.5-1C62.1,19.4,62.1,19,62.1,18.6z"/>
			<path class="st11" d="M57.3,20.5c0.2,0.2,0.5,1.4,1.2,1.6c0.7,0.2,1.2-0.4,1.2-0.9c0-0.5-0.2-2-1.1-1.5
				C57.6,19.6,57,20.2,57.3,20.5z"/>
			<path class="st10" d="M54.5,26c-0.1,0.6,0.1,1.2,0.5,1.7c0.5,0.7,1.3,0.3,1.6-0.4c0.3-0.7,0.3-1.8-0.4-2.2
				c-0.2-0.1-0.3-0.1-0.5-0.1c-0.2,0-0.4,0-0.5,0.1c-0.2,0.1-0.3,0.2-0.4,0.3C54.6,25.7,54.6,25.9,54.5,26z"/>
			<path class="st13" d="M58.9,56.1c0,0,0.8,25.4-1.4,34.9c-2.3,10-7.4,24.2-7.4,24.2l-5.2-0.3c0,0,3.5-18.6,4.5-26.3
				C50.7,78.1,49,53.6,49,53.6L58.9,56.1z"/>
			<path class="st12" d="M53.4,66.2c-0.2-2.3-2.2-2.4-3.8-0.9c0.2,4.9,0.3,10.6,0.2,15.6C51.8,77.2,53.9,71.5,53.4,66.2z"/>
			<path class="st12" d="M48.7,37.1c-0.1,0.3-0.2,0.7-0.3,0.9c-0.4,1.3-0.9,2.5-1.5,3.7c0.4,0.1,0.8,0.1,1.2,0
				c1.6-0.2,2.9-1.2,3.3-2.3C51.5,38.7,50.3,37.4,48.7,37.1z"/>
			<path class="st13" d="M55.3,55.2c0,0-4.2,21.5-9.8,32.9C41,97.4,32,112.7,32,112.7l-4.5-1.4c0,0,6.4-18.1,9.3-24.4
				c9.2-20.4,2.6-29.7,8.6-34.1L55.3,55.2z"/>
			<path class="st13" d="M45.4,51.9l-0.9,1c-0.1,0.1,0,0.2,0.2,0.2l14.1,3.7c0.1,0,0.2,0,0.3-0.1l0.5-1.1c0-0.1-0.1-0.2-0.2-0.2
				l-13.7-3.5c0,0-0.1,0-0.1,0C45.5,51.8,45.5,51.8,45.4,51.9z"/>
			<path class="st11" d="M46.8,53.7l-0.4-0.1c-0.1,0-0.1-0.1-0.1-0.1l0.6-1.4c0,0,0.1-0.1,0.2,0l0.4,0.1c0.1,0,0.1,0.1,0.1,0.1
				L47,53.7C47,53.7,46.9,53.8,46.8,53.7z"/>
			<path class="st11" d="M57.7,56.6l-0.4-0.1c-0.1,0-0.1-0.1-0.1-0.1l0.6-1.4c0,0,0.1-0.1,0.2,0l0.4,0.1c0.1,0,0.1,0.1,0.1,0.1
				l-0.6,1.4C57.9,56.6,57.8,56.6,57.7,56.6z"/>
			<path class="st11" d="M52.3,55.2l-0.4-0.1c-0.1,0-0.1-0.1-0.1-0.1l0.6-1.4c0,0,0.1-0.1,0.2,0l0.4,0.1c0.1,0,0.1,0.1,0.1,0.1
				l-0.6,1.4C52.4,55.2,52.4,55.2,52.3,55.2z"/>
			<path class="st13" d="M61.1,26.2c-0.1,0.2,0,0.5,0.2,0.5s0.4-0.1,0.4-0.4c0.1-0.3,0-0.5-0.2-0.5C61.3,25.8,61.1,26,61.1,26.2z"/>
			<path class="st13" d="M64.1,27c-0.1,0.2,0,0.5,0.2,0.5c0.2,0,0.4-0.1,0.4-0.4c0.1-0.2,0-0.5-0.2-0.5C64.4,26.5,64.2,26.7,64.1,27
				z"/>
			<path class="st13" d="M64.5,26.6h0.7C65.2,26.6,64.7,27,64.5,26.6z"/>
			<path class="st14" d="M63.2,27.2c0.1,0.6,0.3,1.2,0.5,1.8c-0.2,0.1-0.3,0.1-0.5,0.1c-0.2,0-0.3-0.1-0.5-0.1L63.2,27.2z"/>
			<path class="st13" d="M61.5,29.7C61.5,29.7,61.5,29.7,61.5,29.7C61.5,29.7,61.6,29.7,61.5,29.7c0.1-0.1,0.1-0.1,0.1-0.1
				c0,0,0,0,0,0c-0.3-0.1-0.6-0.2-0.9-0.4c-0.3-0.2-0.5-0.5-0.6-0.8c0,0,0,0,0,0s0,0-0.1,0c0,0,0,0,0,0c0,0,0,0,0,0c0,0,0,0,0,0
				c0,0,0,0,0,0c0.1,0.3,0.4,0.6,0.6,0.8C60.7,29.5,61.1,29.7,61.5,29.7L61.5,29.7z"/>
			<path class="st13" d="M60.5,25.1C60.5,25.1,60.5,25.1,60.5,25.1c0.2-0.2,0.4-0.2,0.6-0.3c0.2,0,0.4,0,0.6,0c0,0,0.1,0,0.1,0
				c0,0,0.1,0,0.1-0.1c0,0,0,0,0-0.1c0,0,0,0,0-0.1c0,0,0,0,0,0c0,0,0,0-0.1,0c-0.2-0.1-0.5-0.1-0.8,0c-0.3,0.1-0.5,0.2-0.7,0.3
				c0,0-0.1,0.1-0.1,0.1c0,0,0,0.1,0,0.1C60.3,25.1,60.4,25.1,60.5,25.1C60.4,25.1,60.4,25.1,60.5,25.1z"/>
			<path class="st13" d="M65.9,26L65.9,26c0.1,0,0.1,0,0.1-0.1c0,0,0-0.1,0-0.1c-0.1-0.2-0.2-0.4-0.4-0.6c-0.2-0.2-0.4-0.3-0.7-0.4
				c0,0-0.1,0-0.1,0c0,0-0.1,0.1-0.1,0.1c0,0,0,0.1,0,0.1c0,0,0.1,0.1,0.1,0.1c0.2,0.1,0.4,0.2,0.5,0.3s0.2,0.3,0.3,0.5
				c0,0,0,0.1,0.1,0.1C65.8,26,65.9,26,65.9,26z"/>
			<path class="st10" d="M51.4,37.3c-0.6,0.9-1.1,1.9-1.7,2.9c-0.5,1-1.1,1.9-1.6,2.9c-0.5,1-1,2-1.4,3c-0.4,1-0.7,1.9-1,3
				c-0.2,1-0.2,1.9,0,2.9c0.2,1,0.4,2.1,0.7,3.1c0.3,1,0.7,2.1,1.2,3.1c0.4,1,0.9,2,1.4,3l-1.5,0.9c-1.5-1.9-2.7-3.9-3.6-6.1
				c-0.5-1.1-0.9-2.2-1.2-3.4c-0.1-0.6-0.2-1.2-0.3-1.9c0-0.7,0-1.3,0.1-2c0.2-1.2,0.5-2.4,0.9-3.5c0.4-1.1,0.9-2.2,1.4-3.3
				c1-2.1,2.1-4.2,3.4-6.1L51.4,37.3z"/>
			<path class="st10" d="M47.2,61.1l0.9,2.2l2.3-1.8c0,0-1.1-1.4-2.5-1.5L47.2,61.1z"/>
			<path class="st10" d="M49,64.6l2.3-0.7l-0.8-2.4l-2.3,1.8L49,64.6z"/>
			<path class="st11" d="M53.6,35c0.4,1.3-2.6,5.8-2.6,5.8l-4.4-3.6c0,0,1.3-2.4,2.4-3.1C50.9,33,53.1,33.5,53.6,35z"/>
			<path class="st13" d="M61.4,25.9h0.7C62.1,25.9,61.7,26.2,61.4,25.9z"/>
			<path class="st13" d="M93.8,62c-0.1,0.3-0.3,0.4-0.5,0.4c-0.2-0.1-0.3-0.3-0.2-0.6c0.1-0.3,0.3-0.4,0.5-0.4
				C93.8,61.4,93.9,61.7,93.8,62z"/>
			<path class="st15" d="M93.3,62.3c-0.4,0.5-0.9,0.9-1.4,1.3c0.1,0.1,0.2,0.2,0.4,0.3c0.1,0.1,0.3,0.1,0.5,0.1L93.3,62.3z"/>
			<path class="st13" d="M95.2,61.3C95.2,61.3,95.1,61.3,95.2,61.3C95.1,61.3,95.1,61.3,95.2,61.3c-0.2-0.2-0.4-0.4-0.6-0.4
				c-0.2-0.1-0.4-0.1-0.6-0.1c0,0-0.1,0-0.1,0c0,0-0.1-0.1-0.1-0.1c0,0,0,0,0-0.1c0,0,0,0,0-0.1c0,0,0,0,0.1,0c0,0,0,0,0.1,0
				c0.3,0,0.5,0.1,0.8,0.2c0.2,0.1,0.5,0.3,0.6,0.5c0,0,0,0,0,0.1c0,0,0,0,0,0.1c0,0,0,0,0,0.1c0,0,0,0,0,0
				C95.3,61.3,95.3,61.3,95.2,61.3C95.2,61.4,95.2,61.4,95.2,61.3z"/>
			<path class="st16" d="M98.3,66.2c0,1.7,0.3,3.7,1.6,4.5c0,0-0.4,1.9-4.8,2.3c-4.8,0.5-2.5-1.6-2.5-1.6c2.1-0.9,1.9-2.2,1.3-3.6
				l3.1-2.2c0.1-0.1,0.3-0.2,0.4-0.2c0.2,0,0.3,0,0.4,0.1c0.1,0.1,0.3,0.2,0.3,0.3C98.2,65.9,98.3,66,98.3,66.2z"/>
			<path class="st11" d="M100.6,71.2c0.3-0.6,0.6-1.3-0.2-1.4c-0.9-0.2-5.6,0-7.2,0.6s-1,1.7-1,1.7L100.6,71.2z"/>
			<path class="st16" d="M103.5,72.6c0.2,0.1,0.3,0.2,0.4,0.4c0.1,0.1,0.2,0.2,0.4,0.3c0.2,0.2,0.5,0.5,0.7,0.7
				c0.4,0.5,0.8,1,1.2,1.5c0.8,1,1.5,2.1,2,3.2c0.1,0.3,0.3,0.6,0.4,0.8l0.1,0.1l0.1,0.1c0,0.1,0.1,0.2,0.1,0.3
				c0.1,0.2,0.1,0.4,0.2,0.6c0.1,0.7,0.2,1.5,0,2.2c-0.2,1-0.5,1.9-1,2.8c-0.2,0.3-0.3,0.6-0.5,0.9l-1.8-0.7
				c0.1-0.5,0.1-1.1,0.2-1.6c0-0.5,0-1,0-1.5c0-0.4-0.1-0.8-0.3-1.2c0-0.1-0.1-0.2-0.1-0.2c0,0,0-0.1-0.1-0.1l-0.1-0.1
				c-0.1-0.2-0.3-0.5-0.4-0.7c-0.6-0.9-1.3-1.8-2-2.6c-0.4-0.4-0.7-0.8-1.1-1.2l-0.6-0.6l-0.3-0.3l-0.2-0.2L103.5,72.6z"/>
			<path class="st16" d="M106.9,84.5l-2,0.8l1.5,2.4c0,0,1.6-0.7,1.7-2.2L106.9,84.5z"/>
			<path class="st16" d="M103.4,87l1.9,1.5l1.1-0.8l-1.5-2.4L103.4,87z"/>
			<path class="st13" d="M102.2,70.5c2.5,0.4,5.5,5.3,5.5,5.3l-4.5,3.4c0,0-1.7-0.9-3.2-3.6C98.6,72.9,99.5,70,102.2,70.5z"/>
			<path class="st13" d="M89.2,73.8c-0.1,2.3,0,7.2,1.8,16l14.2-1.2c-0.1-1.9-1.8-7.3-1.1-15.8c0-0.3,0-0.6-0.1-0.9
				c-0.1-0.3-0.3-0.6-0.5-0.8c-0.2-0.2-0.5-0.4-0.8-0.5c-0.3-0.1-0.6-0.2-0.9-0.2c-0.7,0-1.5,0-2.2,0c-2,0.1-4,0.2-6,0.5
				c-0.8,0.1-1.5,0.3-2.1,0.5c-0.6,0.2-1.1,0.5-1.5,0.9C89.5,72.7,89.3,73.3,89.2,73.8z"/>
			<path class="st17" d="M89.3,78.7c0.1,1.6,0.4,3.4,0.7,5.7c1.5-2.9,2.4-6,2.7-9.2L89.3,78.7z"/>
			<path class="st16" d="M93.3,74.8c-0.2,0.3-0.3,0.6-0.4,0.9c-0.2,0.3-0.3,0.6-0.5,0.8c-0.3,0.6-0.7,1.1-1,1.6
				c-0.4,0.5-0.7,1-1.1,1.5c-0.4,0.5-0.8,1-1.3,1.5c-0.2,0.2-0.4,0.5-0.7,0.7L88,82.2l-0.2,0.2l-0.3,0.2c-0.7,0.5-1.4,0.9-2.3,1.1
				c-0.7,0.2-1.5,0.3-2.3,0.2c-0.4,0-0.7-0.1-1.1-0.1c-0.4-0.1-0.7-0.2-1.1-0.3l0.3-1.8l0.8-0.1c0.3-0.1,0.5-0.1,0.8-0.2
				c0.5-0.1,0.9-0.3,1.4-0.5c0.3-0.2,0.7-0.4,0.9-0.7l0.1-0.1l0.1-0.2l0.3-0.3c0.2-0.2,0.4-0.4,0.5-0.7c0.7-0.9,1.3-1.8,1.9-2.8
				c0.3-0.5,0.6-1,0.9-1.4l0.4-0.7l0.4-0.7L93.3,74.8z"/>
			<path class="st16" d="M82.5,81.9l-1.9-1l-1.1,2.6c0,0,1.5,0.7,2.9-0.1L82.5,81.9z"/>
			<path class="st16" d="M78.3,80.8l-0.2,2.4l1.3,0.4l1.1-2.6L78.3,80.8z"/>
			<path class="st13" d="M94.9,72.9c0.5,2.3-2.8,7-2.8,7l-5.4-2.8c0,0,0.3-1.8,2.4-4.1C91.1,70.7,94.3,70.3,94.9,72.9z"/>
			<path class="st11" d="M93.4,70.9c0,0-1.6,0.2-2.2,0.5c1.1,1.1,2,2.4,2.6,3.8l1.3-1.6C94.7,72.6,94.1,71.7,93.4,70.9z"/>
			<path class="st11" d="M94.1,86.5c0-0.4-0.1-0.7-0.2-1.1c0,0,0,0,0-0.1s0,0-0.1,0s0,0-0.1,0c0,0,0,0-0.1,0
				c-0.6,0.8-1.3,1.7-3.1,1.7c0,0,0,0-0.1,0c0,0,0,0,0,0c0,0,0,0,0,0c0,0,0,0,0,0.1l0.2,0.7c0,0,0,0.1,0,0.1c0,0,0.1,0,0.1,0
				C92.6,88.1,93.9,86.9,94.1,86.5C94.1,86.6,94.1,86.6,94.1,86.5C94.1,86.6,94.1,86.6,94.1,86.5z"/>
			<path class="st11" d="M102.3,70.4c0,0-1.5-0.2-2.2-0.1c0.6,1.4,0.9,2.8,0.8,4.3l1.9-1.1C102.9,72.5,102.8,71.4,102.3,70.4z"/>
			<path class="st16" d="M101.4,64c-0.9,2.3-1.3,3.7-3.2,4.5c-2.8,1.2-5.9-0.9-5.8-3.4c0.1-2.3,1.6-5.7,4.7-5.8
				C100.2,59.2,102.3,61.7,101.4,64z"/>
			<path class="st13" d="M95.3,60.8c-1,1.4-1.5,6.2,1.3,7.8c2.8,1.5,6.1-4.1,5.6-5.8c-0.5-1.7-1.9-3-3-3.2S96.3,59.2,95.3,60.8z"/>
			<path class="st13" d="M96,63c-0.2,0-0.3-0.1-0.4-0.1c-1.2-0.9-1.2-1.8-1.3-2.6c0-0.3-0.1-0.7-0.1-1c0-0.2,0-0.3,0.1-0.5
				c0.1-0.1,0.2-0.3,0.4-0.3c0.2-0.1,0.4,0,0.5,0c0.2,0.1,0.3,0.2,0.4,0.4c0.1,0.4,0.2,0.9,0.2,1.3c0,0.7,0.1,1.2,0.7,1.7
				c0.1,0.1,0.2,0.2,0.2,0.3c0,0.1,0,0.3,0,0.4c0,0.1-0.1,0.2-0.3,0.3C96.3,63,96.1,63,96,63L96,63z"/>
			<path class="st13" d="M98.9,69.6c-0.1,0-0.1,0-0.2,0c-1.8-0.4-3-1.9-3.1-3.8c0-0.2,0.1-0.4,0.2-0.5c0.1-0.1,0.3-0.2,0.5-0.2
				c0.2,0,0.4,0.1,0.5,0.2c0.1,0.1,0.2,0.3,0.2,0.5c0,1.5,1,2.3,1.9,2.5c0.2,0,0.3,0.1,0.4,0.3c0.1,0.1,0.2,0.3,0.1,0.5
				c0,0.2-0.1,0.3-0.2,0.4C99.2,69.5,99.1,69.6,98.9,69.6L98.9,69.6z"/>
			<path class="st13" d="M100.3,69.2c-0.1,0-0.2,0-0.4-0.1c-1.6-0.8-2.3-2.6-1.8-4.4c0-0.1,0.1-0.2,0.1-0.2c0.1-0.1,0.1-0.1,0.2-0.2
				c0.1,0,0.2-0.1,0.3-0.1c0.1,0,0.2,0,0.3,0c0.1,0,0.2,0.1,0.3,0.1c0.1,0.1,0.1,0.1,0.2,0.2c0,0.1,0.1,0.2,0.1,0.2
				c0,0.1,0,0.2,0,0.3c-0.4,1.4,0.2,2.5,1.1,2.9c0.1,0.1,0.3,0.2,0.3,0.3c0.1,0.1,0.1,0.3,0,0.4c0,0.1-0.1,0.3-0.3,0.4
				C100.6,69.2,100.4,69.2,100.3,69.2L100.3,69.2z"/>
			<path class="st13" d="M101.5,68.3c0,0-0.1,0-0.1,0c-2.5-0.4-3.4-1.6-3.7-2.6c0-0.1,0-0.2,0-0.3c0-0.1,0-0.2,0.1-0.3
				c0-0.1,0.1-0.1,0.2-0.2C98,65,98.1,65,98.1,65c0.1,0,0.2,0,0.3,0c0.1,0,0.2,0,0.3,0.1c0.1,0,0.2,0.1,0.2,0.2
				c0.1,0.1,0.1,0.1,0.1,0.2c0.3,0.9,1.1,1.4,2.6,1.6c0.2,0,0.3,0.1,0.5,0.2c0.1,0.1,0.2,0.3,0.2,0.5c0,0.2-0.1,0.3-0.2,0.4
				C101.9,68.3,101.7,68.4,101.5,68.3L101.5,68.3z"/>
			<path class="st13" d="M102.2,67.2c-1.7,0-2.9-0.5-3.6-1.5c-0.1-0.1-0.1-0.3-0.1-0.5c0-0.2,0.2-0.3,0.3-0.4
				c0.2-0.1,0.3-0.1,0.5-0.1c0.2,0,0.3,0.1,0.5,0.3c0.4,0.5,1,1,2.9,0.9c0.1,0,0.2,0,0.3,0c0.1,0,0.2,0.1,0.2,0.1
				c0.1,0.1,0.1,0.1,0.2,0.2c0,0.1,0.1,0.2,0.1,0.3c0,0.2,0,0.4-0.2,0.5c-0.1,0.1-0.3,0.2-0.5,0.2C102.6,67.2,102.4,67.2,102.2,67.2
				z"/>
			<path class="st13" d="M102.3,66.2c-0.6,0-1.2-0.2-1.8-0.4c-0.4-0.2-0.8-0.3-1.3-0.3c-0.1,0-0.2,0-0.3,0c-0.1,0-0.2-0.1-0.2-0.1
				c-0.1-0.1-0.1-0.1-0.2-0.2c0-0.1-0.1-0.2-0.1-0.3c0-0.1,0-0.2,0-0.3c0-0.1,0.1-0.2,0.1-0.2c0.1-0.1,0.1-0.1,0.2-0.2
				c0.1,0,0.2-0.1,0.3-0.1c0.7,0,1.4,0.1,2,0.4c0.6,0.2,1,0.4,1.7,0.3c0.1,0,0.2,0,0.3,0c0.1,0,0.2,0,0.3,0.1c0.1,0,0.2,0.1,0.2,0.2
				c0.1,0.1,0.1,0.2,0.1,0.2c0,0.1,0,0.2,0,0.3c0,0.1-0.1,0.2-0.1,0.2c0,0.1-0.1,0.1-0.2,0.2c-0.1,0.1-0.2,0.1-0.3,0.1
				C102.9,66.1,102.6,66.2,102.3,66.2z"/>
			<path class="st13" d="M96.7,62.5c-0.1,0-0.2,0-0.3-0.1c-0.1,0-0.2-0.1-0.3-0.2c-1.1-1.3-1.3-3.2-0.5-4.9c0.1-0.2,0.2-0.3,0.4-0.3
				c0.2-0.1,0.4-0.1,0.5,0c0.2,0.1,0.3,0.2,0.4,0.3c0.1,0.2,0.1,0.3,0,0.5c-0.6,1.3-0.5,2.6,0.3,3.6c0.1,0.1,0.1,0.2,0.1,0.3
				s0,0.3-0.1,0.4c-0.1,0.1-0.2,0.2-0.3,0.3C97,62.4,96.9,62.5,96.7,62.5z"/>
			<path class="st13" d="M98.8,63.3c-0.1,0-0.3,0-0.4-0.1c-0.5-0.3-0.9-0.7-1.3-1.2s-0.6-1-0.7-1.5c-0.1-0.6-0.1-1.3,0.1-1.9
				c0.2-0.6,0.5-1.2,0.9-1.7c0.1-0.1,0.3-0.2,0.5-0.3c0.2,0,0.4,0,0.5,0.1c0.2,0.1,0.3,0.3,0.3,0.4c0,0.2,0,0.4-0.1,0.5
				c-0.3,0.4-0.5,0.8-0.6,1.2c-0.1,0.5-0.1,0.9,0,1.4c0.1,0.4,0.2,0.7,0.4,1c0.2,0.3,0.5,0.6,0.8,0.8c0.1,0.1,0.2,0.2,0.3,0.3
				c0.1,0.1,0.1,0.3,0,0.4c0,0.1-0.1,0.3-0.3,0.3C99.1,63.2,99,63.3,98.8,63.3L98.8,63.3z"/>
			<path class="st13" d="M99.4,62.5c-0.1,0-0.2,0-0.3-0.1c-0.6-0.3-1.1-0.7-1.4-1.3c-0.3-0.5-0.4-1.2-0.4-1.8c0.1-0.5,0.3-1,0.7-1.4
				c0.4-0.4,0.9-0.7,1.4-0.8c0.2,0,0.4,0,0.5,0.1c0.1,0.1,0.2,0.2,0.3,0.4c0,0.2,0,0.3-0.1,0.5c-0.1,0.1-0.2,0.3-0.4,0.3
				c-0.3,0.1-0.5,0.2-0.7,0.4c-0.2,0.2-0.3,0.4-0.3,0.7c0,0.3,0,0.7,0.2,1s0.4,0.5,0.8,0.7c0.1,0.1,0.3,0.2,0.3,0.3
				c0.1,0.1,0.1,0.3,0.1,0.4c0,0.1-0.1,0.3-0.3,0.4C99.8,62.4,99.6,62.5,99.4,62.5L99.4,62.5z"/>
			<path class="st13" d="M99.4,62.5c-0.1,0-0.3,0-0.4-0.1s-0.2-0.1-0.3-0.2c-0.8-1.2-0.6-2.1-0.4-2.7c0.3-0.5,0.9-1.3,2.6-1.6
				c0.1,0,0.2,0,0.3,0c0.1,0,0.2,0,0.3,0.1c0.1,0,0.2,0.1,0.2,0.2c0.1,0.1,0.1,0.2,0.1,0.3c0,0.1,0,0.2,0,0.3s-0.1,0.2-0.1,0.3
				c-0.1,0.1-0.1,0.1-0.2,0.2c-0.1,0-0.2,0.1-0.3,0.1c-0.8,0.2-1.4,0.4-1.5,0.8c-0.2,0.4,0,1,0.3,1.4c0.1,0.1,0.1,0.2,0.1,0.3
				c0,0.1,0,0.2-0.1,0.3c-0.1,0.1-0.2,0.2-0.3,0.2C99.7,62.5,99.6,62.5,99.4,62.5L99.4,62.5z"/>
			<path class="st13" d="M99.6,65.5c-0.1,0-0.3,0-0.4-0.1c-0.1-0.1-0.2-0.1-0.3-0.3c-0.1-0.1-0.1-0.2-0.1-0.3c0-0.1,0-0.2,0.1-0.3
				c0.7-1,2-1,3-0.9c0.5,0,1.1,0.1,1.3-0.1c0.2-0.1,0.4-0.1,0.5-0.1c0.1,0,0.2,0.1,0.3,0.1c0.1,0.1,0.1,0.1,0.2,0.2
				c0.1,0.1,0.1,0.2,0.1,0.2c0,0.1,0,0.2,0,0.3c0,0.1-0.1,0.2-0.1,0.2c-0.1,0.1-0.1,0.1-0.2,0.2c-0.6,0.4-1.4,0.3-2.2,0.3
				c-0.9,0-1.5,0-1.7,0.3c-0.1,0.1-0.2,0.2-0.3,0.2C99.8,65.5,99.7,65.5,99.6,65.5z"/>
			<path class="st13" d="M102.6,64c-1.4,0-2.1-0.8-2.6-1.3c-0.1-0.2-0.3-0.3-0.5-0.5h0c-0.2,0.1-0.4,0-0.5,0
				c-0.2-0.1-0.3-0.2-0.4-0.4c-0.1-0.2-0.1-0.3,0-0.5c0.1-0.2,0.2-0.3,0.4-0.4c1.1-0.4,1.7,0.3,2.2,0.8c0.6,0.7,1.1,1.1,2.4,0.7
				c0.1,0,0.2,0,0.3,0s0.2,0,0.3,0.1s0.2,0.1,0.2,0.2c0.1,0.1,0.1,0.1,0.1,0.2c0.1,0.2,0.1,0.4,0,0.5s-0.2,0.3-0.4,0.3
				C103.5,63.9,103,64,102.6,64z"/>
			<path class="st13" d="M99.3,62.9c-0.1,0-0.3,0-0.4-0.1c-0.1-0.1-0.2-0.2-0.3-0.3s-0.1-0.2-0.1-0.4c0-0.1,0.1-0.2,0.2-0.3
				c0.8-0.8,1.8-0.6,2.6-0.5c0.7,0.2,1.5,0.3,2.2-0.1c0.1,0,0.2-0.1,0.3-0.1c0.1,0,0.2,0,0.3,0c0.1,0,0.2,0.1,0.2,0.1
				c0.1,0.1,0.1,0.1,0.2,0.2s0.1,0.2,0.1,0.3c0,0.1,0,0.2,0,0.3c0,0.1-0.1,0.2-0.1,0.2c-0.1,0.1-0.1,0.1-0.2,0.2
				c-1.2,0.6-2.4,0.4-3.2,0.2c-0.8-0.2-1-0.2-1.2,0c-0.1,0.1-0.2,0.1-0.3,0.2C99.5,62.8,99.4,62.9,99.3,62.9z"/>
			<path class="st13" d="M97.9,60.9c-0.2,0-0.3,0-0.4-0.1c-0.1-0.1-0.1-0.1-0.2-0.2c-0.1-0.1-0.1-0.2-0.1-0.2c0-0.1,0-0.2,0-0.3
				c0-0.1,0.1-0.2,0.1-0.2c0.7-0.9,1.7-0.7,2.6-0.7c0.8,0.1,1.5,0.2,2.2-0.2c0.2-0.1,0.4-0.1,0.5-0.1c0.2,0,0.3,0.2,0.4,0.3
				c0.1,0.2,0.1,0.3,0.1,0.5c0,0.2-0.2,0.3-0.3,0.4c-1.2,0.7-2.3,0.5-3.2,0.4c-0.8-0.1-1-0.1-1.2,0.1c-0.1,0.1-0.2,0.2-0.3,0.2
				C98.2,60.8,98,60.9,97.9,60.9z"/>
			<path class="st13" d="M99.2,61.7c-0.1,0-0.3,0-0.4-0.1s-0.2-0.2-0.3-0.3c-0.1-0.1-0.1-0.2-0.1-0.4c0-0.1,0.1-0.2,0.1-0.3
				c0.7-0.9,1.7-0.7,2.5-0.6c0.8,0.1,1.5,0.2,2.2-0.3c0.1-0.1,0.2-0.1,0.3-0.1c0.1,0,0.2,0,0.3,0c0.1,0,0.2,0,0.3,0.1
				c0.1,0,0.2,0.1,0.2,0.2c0.1,0.1,0.1,0.2,0.1,0.2c0,0.1,0,0.2,0,0.3c0,0.1,0,0.2-0.1,0.2c0,0.1-0.1,0.1-0.2,0.2
				c-1.2,0.8-2.4,0.6-3.3,0.5c-0.8-0.1-1-0.1-1.1,0c-0.1,0.1-0.2,0.2-0.3,0.2C99.5,61.7,99.3,61.7,99.2,61.7z"/>
			<path class="st16" d="M96.2,63.9c-0.3,0.6-0.8,1.1-1.5,1.3c-0.8,0.4-1.3-0.2-1.1-1c0.2-0.7,0.9-1.7,1.8-1.8
				C96.3,62.4,96.6,63.2,96.2,63.9z"/>
			<path class="st11" d="M96.1,89.4c0,0,1.9,7.3,5.6,13.6c4,7,11.5,9.8,11.5,9.8l2.8-3.4c0,0-6-3.6-7.6-8.9c-2.4-8.1-3.2-12-3.2-12
				L96.1,89.4z"/>
			<path class="st17" d="M97.2,92.5h-0.1c0.8,2.4,1.7,4.7,2.8,7C100.1,96.3,99.8,92.8,97.2,92.5z"/>
			<path class="st11" d="M91.1,89.8c-0.4,4.5-0.3,9.1,0.4,13.6c0.8,5.1,2.1,10,4.2,14.8l4.4-1.1c0,0-1-5.8-1.6-13.5
				c-0.6-8.4,2-14.5,2-14.5L91.1,89.8z"/>
			<path class="st11" d="M99.2,71.8l-0.6,0.1c-1.6,0.1-3.1,0.9-4.1,2C93.4,75,92.9,76.5,93,78l0.4,7.2c0,0.5,0.2,0.9,0.4,1.3
				c0.2,0.4,0.5,0.8,0.9,1.1c0.4,0.3,0.8,0.5,1.3,0.7s1,0.2,1.5,0.1l5.1-0.4c1-0.1,1.9-0.5,2.6-1.3c0.7-0.7,1-1.6,1-2.6l-0.5-7.2
				c0-0.7-0.2-1.4-0.6-2.1c-0.3-0.7-0.8-1.2-1.4-1.7c-0.6-0.5-1.3-0.8-2-1.1C100.8,71.9,100,71.8,99.2,71.8z"/>
			<path class="st18" d="M97.8,88.6c-1,0-1.9-0.4-2.6-1C94.5,87,94,86.1,94,85.2L93.5,78c-0.1-1.5,0.5-3,1.6-4.2
				c1.1-1.2,2.6-1.9,4.3-2.1c0,0,0,0,0.1,0c0,0,0,0,0.1,0c0,0,0,0,0,0c0,0,0,0,0,0.1c0,0,0,0,0,0.1c0,0,0,0,0,0c0,0,0,0,0,0
				c0,0,0,0-0.1,0c-1.6,0.1-3,0.8-4,2c-1,1.1-1.6,2.5-1.5,4l0.5,7.2c0,0.4,0.1,0.9,0.4,1.3c0.2,0.4,0.5,0.7,0.9,1
				c0.4,0.3,0.8,0.5,1.2,0.6c0.4,0.1,0.9,0.2,1.4,0.1c0,0,0,0,0.1,0c0,0,0,0,0.1,0c0,0,0,0,0,0c0,0,0,0,0,0.1c0,0,0,0.1,0,0.1
				c0,0-0.1,0-0.1,0.1C98,88.6,97.9,88.6,97.8,88.6z"/>
			<path class="st11" d="M101.4,73.7l-0.5,0c-1.4,0.1-2.7,0.8-3.6,1.8c-0.9,1-1.4,2.3-1.3,3.6l0.4,6.4c0,0.4,0.1,0.8,0.3,1.2
				c0.2,0.4,0.5,0.7,0.8,0.9c0.3,0.3,0.7,0.5,1.1,0.6c0.4,0.1,0.8,0.2,1.3,0.1l4.5-0.4c0.9-0.1,1.7-0.5,2.3-1.1
				c0.6-0.6,0.9-1.4,0.8-2.3l-0.4-6.4c0-0.6-0.2-1.3-0.5-1.8c-0.3-0.6-0.7-1.1-1.3-1.5c-0.5-0.4-1.1-0.7-1.8-0.9
				C102.8,73.7,102.1,73.6,101.4,73.7z"/>
			<path class="st19" d="M101.4,73.7l-0.5,0c-1.4,0.1-2.7,0.8-3.6,1.8c-0.9,1-1.4,2.3-1.3,3.6l0.4,6.4c0,0.4,0.1,0.8,0.3,1.2
				c0.2,0.4,0.5,0.7,0.8,0.9c0.3,0.3,0.7,0.5,1.1,0.6c0.4,0.1,0.8,0.2,1.3,0.1l4.5-0.4c0.9-0.1,1.7-0.5,2.3-1.1
				c0.6-0.6,0.9-1.4,0.8-2.3l-0.4-6.4c0-0.6-0.2-1.3-0.5-1.8c-0.3-0.6-0.7-1.1-1.3-1.5c-0.5-0.4-1.1-0.7-1.8-0.9
				C102.8,73.7,102.1,73.6,101.4,73.7z"/>
			<path class="st11" d="M100.2,88.4c-0.8,0-1.6-0.3-2.2-0.8c-0.3-0.3-0.6-0.6-0.8-1c-0.2-0.4-0.3-0.8-0.3-1.2l-0.4-6.4
				c-0.2-2.8,2.2-5.4,5.1-5.7c0,0,0,0,0.1,0c0,0,0,0,0.1,0c0,0,0,0,0,0c0,0,0,0,0,0.1c0,0,0,0.1,0,0.1c0,0-0.1,0-0.1,0.1
				c-2.8,0.2-5,2.7-4.8,5.4l0.4,6.4c0,0.4,0.1,0.8,0.3,1.1c0.2,0.3,0.4,0.6,0.7,0.9c0.3,0.2,0.7,0.4,1.1,0.6
				c0.4,0.1,0.8,0.2,1.2,0.1l3.7-0.3c0,0,0,0,0.1,0c0,0,0,0,0.1,0c0,0,0,0,0,0c0,0,0,0,0,0.1s0,0,0,0.1c0,0,0,0,0,0.1c0,0,0,0-0.1,0
				c0,0,0,0-0.1,0l-3.7,0.3C100.4,88.4,100.3,88.4,100.2,88.4z"/>
			<path class="st11" d="M102.5,76.2l-0.3,0c-0.6,0.1-1.2,0.3-1.7,0.7c-0.5,0.4-0.8,0.9-0.9,1.5c0,0.1,0,0.2,0,0.2
				c0,0.1,0.1,0.2,0.1,0.2c0.1,0.1,0.1,0.1,0.2,0.1c0.1,0,0.2,0,0.3,0l4.6-0.4c0.1,0,0.2,0,0.2-0.1c0.1,0,0.1-0.1,0.2-0.2
				c0-0.1,0.1-0.1,0.1-0.2c0-0.1,0-0.2,0-0.2c-0.2-0.5-0.6-1-1.1-1.3C103.7,76.3,103.1,76.1,102.5,76.2z"/>
			<path class="st11" d="M96.8,82c0,0-0.1,0-0.1,0c0,0,0-0.1,0-0.1c0,0,0-0.1,0-0.1c0,0,0.1,0,0.1-0.1l10.4-0.9c0,0,0,0,0.1,0
				c0,0,0,0,0.1,0c0,0,0,0,0,0c0,0,0,0,0,0.1c0,0,0,0.1,0,0.1c0,0-0.1,0-0.1,0.1L96.8,82L96.8,82z"/>
		</g>
	</g>
</g>
</svg>
