<?xml version="1.0" encoding="utf-8"?>
<!-- Generator: Adobe Illustrator 27.0.0, SVG Export Plug-In . SVG Version: 6.00 Build 0)  -->
<svg version="1.1" id="Calque_1" xmlns="http://www.w3.org/2000/svg" xmlns:xlink="http://www.w3.org/1999/xlink" x="0px" y="0px"
	 viewBox="0 0 160 100" style="enable-background:new 0 0 160 100;" xml:space="preserve">
<style type="text/css">
	.st0{fill:#4296CE;fill-opacity:0.1;}
	.st1{fill:#F5F5F5;}
	.st2{fill:#4296CE;}
	.st3{opacity:0.7;fill:#FFFFFF;enable-background:new    ;}
	.st4{fill:#263238;}
	.st5{opacity:0.4;fill:#FFFFFF;enable-background:new    ;}
	.st6{opacity:0.2;enable-background:new    ;}
	.st7{opacity:0.5;fill:#FFFFFF;enable-background:new    ;}
	.st8{opacity:0.2;fill:#FFFFFF;enable-background:new    ;}
	.st9{opacity:0.6;fill:#FAFAFA;enable-background:new    ;}
	.st10{opacity:0.3;fill:#FFFFFF;enable-background:new    ;}
	.st11{opacity:0.1;enable-background:new    ;}
	.st12{opacity:0.1;fill:#FFFFFF;enable-background:new    ;}
	.st13{fill:#EABDBD;}
	.st14{fill:#FFC3BD;}
	.st15{fill:#EEC1BB;}
	.st16{opacity:0.9;fill:#FFFFFF;enable-background:new    ;}
	.st17{fill:#D4827D;}
	.st18{opacity:0.4;enable-background:new    ;}
	.st19{opacity:0.2;}
</style>
<path class="st0" d="M-34.6-27.5h229.2c7.2,0,13.1,5.9,13.1,13.1V110c0,7.2-5.9,13.1-13.1,13.1H-34.6c-7.2,0-13.1-5.9-13.1-13.1
	V-14.4C-47.7-21.7-41.8-27.5-34.6-27.5z"/>
<path class="st1" d="M77,93.5c34.2,0,62-1.6,62-3.6c0-2-27.8-3.6-62-3.6c-34.2,0-62,1.6-62,3.6C15,91.8,42.8,93.5,77,93.5z"/>
<path class="st2" d="M76.9,15.7c0,0-1.3,1.9-2.8,1.9c-1.5,0-3.1-1.9-3.1-1.9s-3.8,2.8-4.5,3.7c-0.7,0.9-1.1,11-0.8,15.4
	C66,39.3,60.6,74,61.1,77s8.5,2,13.3,2c4.8,0,11.4,1.8,12.2-0.8c0.8-2.6-0.5-16.6-2.1-23.6c-1.7-7.1-1.8-23.3-2.1-26.7
	c-0.3-3.5-0.6-7.3-0.8-8.4C81.2,18.3,76.9,15.7,76.9,15.7z"/>
<path class="st2" d="M67.7,54.6c0.1,2.4-0.1,4.7-0.4,7.1c-0.3,1.6-0.5,2-2.2,1.6c-1.1-0.2-2.1-0.8-3.2-0.4c-0.4,0.1-0.7,0.3-1,0.5
	c-0.8,0.4-1.7,0.4-2.6,0.4H52c-1.4,0-2.9,0.3-3-1.4c-0.6-6.9-0.4-13.8,0.1-20.7c0.1-1.7,0.3-3.5,0.4-5.2c0.1-1.5,0.5-3.1,0.3-4.6
	c-0.4-2.7-0.4-5.3-0.3-8c0-1.2-0.3-3.7,0.5-4.7c0.7-0.9,5-3.4,5-3.4s1.6,1.9,3.1,1.9c1.5,0,2.8-1.9,2.8-1.9s5.3,2.9,5.5,4
	s-0.4,4.7-0.1,8.2c0.4,4.2,0.1,8.3,0.3,12.5c0.3,4.2,0.8,8.3,1,12.5C67.7,53.4,67.7,54,67.7,54.6z"/>
<path class="st2" d="M50.8,53.6c0.1,2.4-0.1,4.7-0.4,7.1c-0.3,1.6-0.5,2-2.2,1.6c-1.1-0.2-2.1-0.8-3.2-0.4c-0.4,0.1-0.7,0.3-1,0.5
	c-0.8,0.4-1.7,0.4-2.6,0.4h-6.2c-1.4,0-2.9,0.3-3-1.4c-0.6-6.9-0.4-13.8,0.1-20.7c0.1-1.7,0.3-3.5,0.4-5.2c0.1-1.5,0.6-3.1,0.3-4.6
	c-0.4-2.7,0.6-4.7,0.6-7.4c0-1.2-0.3-3.7,0.5-4.7c0.7-0.9,4.1-4,4.1-4s1.6,1.8,3.1,1.8c1.5,0,2.8-1.8,2.8-1.8s4.6,3.5,4.9,4.6
	c0.3,1.1,0.3,4.1,0.6,7.5c0.4,4.2,0.1,8.3,0.3,12.5c0.3,4.2,0.8,8.3,1,12.5C50.7,52.4,50.8,53,50.8,53.6z"/>
<path class="st3" d="M50.8,53.6c0.1,2.4-0.1,4.7-0.4,7.1c-0.3,1.6-0.5,2-2.2,1.6c-1.1-0.2-2.1-0.8-3.2-0.4c-0.4,0.1-0.7,0.3-1,0.5
	c-0.8,0.4-1.7,0.4-2.6,0.4h-6.2c-1.4,0-2.9,0.3-3-1.4c-0.6-6.9-0.4-13.8,0.1-20.7c0.1-1.7,0.3-3.5,0.4-5.2c0.1-1.5,0.6-3.1,0.3-4.6
	c-0.4-2.7,0.6-4.7,0.6-7.4c0-1.2-0.3-3.7,0.5-4.7c0.7-0.9,4.1-4,4.1-4s1.6,1.8,3.1,1.8c1.5,0,2.8-1.8,2.8-1.8s4.6,3.5,4.9,4.6
	c0.3,1.1,0.3,4.1,0.6,7.5c0.4,4.2,0.1,8.3,0.3,12.5c0.3,4.2,0.8,8.3,1,12.5C50.7,52.4,50.8,53,50.8,53.6z"/>
<path class="st3" d="M67.7,54.6c0.1,2.4-0.1,4.7-0.4,7.1c-0.3,1.6-0.5,2-2.2,1.6c-1.1-0.2-2.1-0.8-3.2-0.4c-0.4,0.1-0.7,0.3-1,0.5
	c-0.8,0.4-1.7,0.4-2.6,0.4H52c-1.4,0-2.9,0.3-3-1.4c-0.6-6.9-0.4-13.8,0.1-20.7c0.1-1.7,0.3-3.5,0.4-5.2c0.1-1.5,0.5-3.1,0.3-4.6
	c-0.4-2.7-0.4-5.3-0.3-8c0-1.2-0.3-3.7,0.5-4.7c0.7-0.9,5-3.4,5-3.4s1.6,1.9,3.1,1.9c1.5,0,2.8-1.9,2.8-1.9s5.3,2.9,5.5,4
	s-0.4,4.7-0.1,8.2c0.4,4.2,0.1,8.3,0.3,12.5c0.3,4.2,0.8,8.3,1,12.5C67.7,53.4,67.7,54,67.7,54.6z"/>
<path class="st3" d="M76.9,15.7c0,0-1.3,1.9-2.8,1.9c-1.5,0-3.1-1.9-3.1-1.9s-3.8,2.8-4.5,3.7c-0.7,0.9-1.1,11-0.8,15.4
	C66,39.3,60.6,74,61.1,77s8.5,2,13.3,2c4.8,0,11.4,1.8,12.2-0.8c0.8-2.6-0.5-16.6-2.1-23.6c-1.7-7.1-1.8-23.3-2.1-26.7
	c-0.3-3.5-0.6-7.3-0.8-8.4C81.2,18.3,76.9,15.7,76.9,15.7z"/>
<path class="st4" d="M26.5,85.9h1.1V11.5c0-0.1,0.1-0.2,0.1-0.3c0.1-0.1,0.2-0.1,0.3-0.1h59.5c0.1,0,0.2,0.1,0.3,0.1
	c0.1,0.1,0.1,0.2,0.1,0.3v74.4h1.1c0.1,0,0.2,0.1,0.3,0.1c0.1,0.1,0.1,0.2,0.1,0.3c0,0.1-0.1,0.2-0.1,0.3c-0.1,0.1-0.2,0.1-0.3,0.1
	h-3.5c-0.1,0-0.2-0.1-0.3-0.1c-0.1-0.1-0.1-0.2-0.1-0.3c0-0.1,0.1-0.2,0.1-0.3c0.1-0.1,0.2-0.1,0.3-0.1h1.5V12H28.6v73.9H30
	c0.1,0,0.2,0.1,0.3,0.1c0.1,0.1,0.1,0.2,0.1,0.3c0,0.1-0.1,0.2-0.1,0.3c-0.1,0.1-0.2,0.1-0.3,0.1h-3.5c-0.1,0-0.2-0.1-0.3-0.1
	c-0.1-0.1-0.1-0.2-0.1-0.3c0-0.1,0.1-0.2,0.1-0.3C26.3,86,26.4,85.9,26.5,85.9z"/>
<path class="st5" d="M26.5,85.9h1.1V11.5c0-0.1,0.1-0.2,0.1-0.3c0.1-0.1,0.2-0.1,0.3-0.1h59.5c0.1,0,0.2,0.1,0.3,0.1
	c0.1,0.1,0.1,0.2,0.1,0.3v74.4h1.1c0.1,0,0.2,0.1,0.3,0.1c0.1,0.1,0.1,0.2,0.1,0.3c0,0.1-0.1,0.2-0.1,0.3c-0.1,0.1-0.2,0.1-0.3,0.1
	h-3.5c-0.1,0-0.2-0.1-0.3-0.1c-0.1-0.1-0.1-0.2-0.1-0.3c0-0.1,0.1-0.2,0.1-0.3c0.1-0.1,0.2-0.1,0.3-0.1h1.5V12H28.6v73.9H30
	c0.1,0,0.2,0.1,0.3,0.1c0.1,0.1,0.1,0.2,0.1,0.3c0,0.1-0.1,0.2-0.1,0.3c-0.1,0.1-0.2,0.1-0.3,0.1h-3.5c-0.1,0-0.2-0.1-0.3-0.1
	c-0.1-0.1-0.1-0.2-0.1-0.3c0-0.1,0.1-0.2,0.1-0.3C26.3,86,26.4,85.9,26.5,85.9z"/>
<path class="st4" d="M67.3,19.6c0-0.1,0-0.2,0-0.4c0-0.1,0.1-0.2,0.2-0.3l6.3-4.6c0,0,0.1,0,0.1,0c0,0,0.1,0,0.1,0l6.7,4.6
	c0.1,0.1,0.2,0.2,0.2,0.3c0,0.1,0,0.2,0,0.4c0,0.1-0.1,0.2-0.2,0.3C80.7,20,80.5,20,80.4,20H67.8c-0.1,0-0.2,0-0.3-0.1
	C67.4,19.9,67.3,19.8,67.3,19.6z M67.7,19.3c0,0-0.1,0.1-0.1,0.1c0,0,0,0.1,0,0.2c0,0,0,0.1,0.1,0.1c0,0,0.1,0,0.1,0h12.6
	c0.1,0,0.1,0,0.1,0s0.1-0.1,0.1-0.1c0,0,0-0.1,0-0.2c0,0-0.1-0.1-0.1-0.1l-6.6-4.6L67.7,19.3z"/>
<path class="st4" d="M73.9,14.7c0,0,0.1,0,0.1,0c0,0,0-0.1,0-0.1v-1.7c0.2-0.3,0.8-1.4,0.5-2c-0.1-0.1-0.2-0.2-0.3-0.3
	s-0.3-0.1-0.4-0.1c-0.6,0-0.9,0.1-1.1,0.4c-0.1,0.1-0.1,0.2-0.1,0.3c0,0.1,0,0.2,0.1,0.3c0,0,0,0,0,0c0,0,0,0,0.1,0c0,0,0,0,0.1,0
	c0,0,0,0,0.1,0c0,0,0.1-0.1,0.1-0.1c0,0,0-0.1,0-0.1c0-0.1,0-0.1-0.1-0.2c0-0.1,0-0.1,0-0.2c0.1-0.1,0.4-0.2,0.8-0.2
	c0.3,0,0.4,0.1,0.4,0.2c0.2,0.4-0.2,1.3-0.5,1.7c0,0,0,0.1,0,0.1v1.7c0,0,0,0.1,0.1,0.1C73.8,14.6,73.9,14.7,73.9,14.7z"/>
<path class="st2" d="M77.7,21.9l0.2-5.1l1.2,0.9l-0.4,4.4L77.7,21.9z"/>
<path class="st2" d="M70.3,22.1l-0.5-5.3l-1.1,0.9l0.3,4.4H70.3z"/>
<path class="st6" d="M77.7,21.9l0.2-5.1l1.2,0.9l-0.4,4.4L77.7,21.9z"/>
<path class="st6" d="M70.3,22.1l-0.5-5.3l-1.1,0.9l0.3,4.4H70.3z"/>
<path class="st2" d="M64.6,75.9c1,0,2-0.4,3-0.1c0.5,0.2,0.9,0.5,1.4,0.7c1.2,0.5,2.5,0.2,3.6-0.3c1.2-0.5,2.3-1.1,3.5-1.2
	c2.3-0.3,4.5,1,6.7,0.9c1,0,3.2-0.5,3.4-1.7c0-0.3-0.1-0.5-0.1-0.8c-0.1-0.8-0.3-1.6-0.4-2.5l-1.3-8.1l-3.5-21.2
	c-0.5-3.3-1.1-6.5-1.6-9.8l-0.2-1.3c0-0.1,0-0.1,0-0.2l0.2-1.3c0.3-1.7,0.5-3.5,0.8-5.2l0.3-2.1c0.1-0.2,0.1-0.4,0-0.6
	c0,0,0-0.1-0.1-0.1c-0.4-0.4-1.6-0.4-2.1-0.3c-0.8,0.1-1.6,0.5-2.3,0.7c-1.7,0.5-3.5,0.5-5.2,0.1c-0.5-0.2-1.1-0.3-1.6-0.4
	c-0.6-0.1-1.5,0.1-1.5,0.8c0,0.3,0.1,0.6,0.1,0.8c0.5,2.9,1,5.7,1.4,8.6v0.1c0,0.3-0.1,0.6-0.1,0.9l-1.7,10.1
	c-1.1,6.9-2.3,13.9-3.4,20.8c-0.4,2.7-0.9,5.3-1.3,8C62.4,73.1,61.5,75.9,64.6,75.9z"/>
<path class="st6" d="M69.1,32.3c0.6,0.3,2,0.7,3.3,0.3c1.7-0.6,3.5,1.2,5.6,0.2c0.5-0.2,0.9-0.5,1.4-0.9l-0.2-1.3
	c-0.6,0.6-1.5,1.2-2.6,0.9c-2-0.4-3-0.7-4.6,0.1c-0.9,0.5-2,0.2-2.6-0.1C69.2,31.7,69.2,32,69.1,32.3z"/>
<path class="st4" d="M51.2,19.6c0-0.1,0-0.2,0-0.4c0-0.1,0.1-0.2,0.2-0.3l6.3-4.6c0,0,0.1,0,0.1,0c0,0,0.1,0,0.1,0l6.7,4.6
	c0.1,0.1,0.2,0.2,0.2,0.3c0,0.1,0,0.2,0,0.4c0,0.1-0.1,0.2-0.2,0.3C64.5,20,64.4,20,64.3,20H51.7c-0.1,0-0.2,0-0.3-0.1
	C51.3,19.9,51.2,19.8,51.2,19.6z M51.6,19.3c0,0-0.1,0.1-0.1,0.1c0,0,0,0.1,0,0.2c0,0,0,0.1,0.1,0.1c0,0,0.1,0,0.1,0h12.6
	c0.1,0,0.1,0,0.1,0c0,0,0.1-0.1,0.1-0.1c0,0,0-0.1,0-0.2c0,0,0-0.1-0.1-0.1l-6.6-4.6L51.6,19.3z"/>
<path class="st4" d="M57.8,14.7c0,0,0.1,0,0.1,0c0,0,0-0.1,0-0.1v-1.7c0.2-0.3,0.8-1.4,0.5-2c-0.1-0.1-0.2-0.2-0.3-0.3
	c-0.1-0.1-0.3-0.1-0.4-0.1c-0.5,0-0.9,0.1-1.1,0.4c-0.1,0.1-0.1,0.2-0.1,0.3c0,0.1,0,0.2,0.1,0.3c0,0,0.1,0.1,0.1,0.1
	c0,0,0.1,0,0.1,0c0,0,0.1-0.1,0.1-0.1c0,0,0-0.1,0-0.1c0-0.1,0-0.1-0.1-0.2c0-0.1,0-0.1,0-0.2c0.1-0.1,0.4-0.2,0.8-0.2
	c0.3,0,0.4,0.1,0.4,0.2c0.2,0.4-0.2,1.3-0.5,1.7c0,0,0,0.1,0,0.1v1.7c0,0,0,0.1,0.1,0.1C57.7,14.6,57.8,14.7,57.8,14.7z"/>
<path class="st4" d="M61.1,16.3c0,0-2.3,1.6-3.4,1.6c-1.2,0-2.8-1.8-2.8-1.8L52,18.1c-0.4,0.3-1.3,0.7-1.6,1.1
	c-0.4,0.7,0.5,2.2,0.9,2.8c0.1,0.1,0.2,0.3,0.3,0.5c0,0.1,0,0.3,0,0.4c0.1,1,1,1.6,1.2,2.5c0.1,0.5-0.1,1.1-0.1,1.6
	c-0.1,0.8-0.1,1.6-0.2,2.4c-0.2,2.4-0.4,4.8-0.6,7.1c-0.5,5.6-0.9,11.2-1.4,16.9c-0.2,2.2-0.4,4.3-0.5,6.5c0,0.4-0.2,1.1,0,1.4
	c0.3,0.2,0.6,0.3,0.9,0.5c0.7,0.3,1.5,0.5,2.3,0.5c2.2,0.3,4.6,0.5,6.8-0.1c0.4-0.1,0.7-0.2,1.1-0.3c1-0.2,2.1,0.2,3.1,0.1
	c0.9-0.1,1.5-0.7,2.3-0.8c-0.3-2.8-0.6-5.7-0.9-8.5c-0.6-5.5-1.1-11.1-1.7-16.6l-0.7-6.9l-0.2-2.3c-0.1-0.4-0.1-0.7-0.1-1.1
	c0-0.9,0.8-1.6,1.4-2.2c0.1-0.1,0.2-0.3,0.3-0.5c0.1-0.2,0.1-0.3,0.2-0.5c0.2-1.1,0.8-2,1.3-2.9C64.7,18.4,62.6,17.4,61.1,16.3z"/>
<path class="st7" d="M49.9,61.3c0.3,0.2,0.6,0.3,0.9,0.5c0.7,0.3,1.5,0.5,2.3,0.5c2.2,0.3,4.6,0.5,6.8-0.1c0.4-0.1,0.7-0.2,1.1-0.3
	c1-0.2,2.1,0.2,3.1,0.1c0.9-0.1,1.5-0.7,2.3-0.8c-0.3-2.8-0.6-5.7-0.9-8.5c-0.6-5.5-1.1-11.1-1.7-16.6l-0.7-6.9l-0.2-2.3
	c-0.1-0.4-0.1-0.7-0.1-1.1c0-0.2,0.1-0.5,0.2-0.7c0.3-0.6,0.7-1.1,1.2-1.5c0.1-0.1,0.2-0.3,0.3-0.5c0.1-0.2,0.1-0.3,0.2-0.5
	c0.2-1.1,0.8-2,1.3-2.9c-1.3-1.3-3.4-2.3-4.9-3.4c0,0-2.3,1.6-3.4,1.6c-1.2,0-2.8-1.8-2.8-1.8L52,18.1c-0.4,0.3-1.3,0.7-1.6,1.1
	c-0.4,0.7,0.5,2.2,0.9,2.8c0.1,0.1,0.2,0.3,0.3,0.5c0,0.1,0,0.3,0,0.4c0.1,0.9,0.8,1.4,1.1,2.2c0,0.1,0.1,0.2,0.1,0.3
	c0.1,0.5-0.1,1.1-0.1,1.6c-0.1,0.8-0.1,1.6-0.2,2.4c-0.2,2.4-0.4,4.8-0.6,7.1c-0.5,5.6-0.9,11.2-1.4,16.9c-0.2,2.2-0.4,4.3-0.5,6.5
	C49.9,60.3,49.7,61,49.9,61.3z"/>
<path class="st6" d="M49.9,61.3c0.3,0.2,0.6,0.3,0.9,0.5c0.7,0.3,1.5,0.5,2.3,0.5c2.2,0.3,4.6,0.5,6.8-0.1c0.4-0.1,0.7-0.2,1.1-0.3
	c1-0.2,2.1,0.2,3.1,0.1c0.9-0.1,1.5-0.7,2.3-0.8c-0.3-2.8-0.6-5.7-0.9-8.5c-0.6-5.5-1.1-11.1-1.7-16.6l-0.7-6.9l-0.2-2.3
	c-0.1-0.4-0.1-0.7-0.1-1.1c0-0.2,0.1-0.5,0.2-0.7c-0.9,0.1-1.8,0.1-2.7,0c-1.1-0.2-1.8-0.4-3.2,0c-1.2,0.4-3.2-0.1-4.5,0
	c0,0.1,0.1,0.2,0.1,0.3c0.1,0.5-0.1,1.1-0.1,1.6c-0.1,0.8-0.1,1.6-0.2,2.4c-0.2,2.4-0.4,4.8-0.6,7.1c-0.5,5.6-0.9,11.2-1.4,16.9
	c-0.2,2.2-0.4,4.3-0.5,6.5C49.9,60.3,49.7,61,49.9,61.3z"/>
<path class="st4" d="M34.4,19.6c0-0.1,0-0.2,0-0.4c0-0.1,0.1-0.2,0.2-0.3l6.3-4.6c0,0,0.1,0,0.1,0c0,0,0.1,0,0.1,0l6.7,4.6
	c0.1,0.1,0.2,0.2,0.2,0.3c0,0.1,0,0.2,0,0.4c0,0.1-0.1,0.2-0.2,0.3C47.8,20,47.7,20,47.5,20H34.9c-0.1,0-0.2,0-0.3-0.1
	C34.5,19.9,34.4,19.8,34.4,19.6z M34.8,19.3c0,0-0.1,0.1-0.1,0.1c0,0,0,0.1,0,0.2c0,0,0,0.1,0.1,0.1c0,0,0.1,0,0.1,0h12.6
	c0.1,0,0.1,0,0.1,0c0,0,0.1-0.1,0.1-0.1c0,0,0-0.1,0-0.2c0,0,0-0.1-0.1-0.1L41,14.7L34.8,19.3z"/>
<path class="st4" d="M41,14.7c0,0,0.1,0,0.1,0c0,0,0-0.1,0-0.1v-1.7c0.2-0.3,0.8-1.4,0.5-2c-0.1-0.1-0.2-0.2-0.3-0.3
	c-0.1-0.1-0.3-0.1-0.4-0.1c-0.5,0-0.9,0.1-1.1,0.4c0,0.1-0.1,0.2-0.1,0.3c0,0.1,0,0.2,0.1,0.3c0,0,0.1,0.1,0.1,0.1c0,0,0.1,0,0.1,0
	c0,0,0.1-0.1,0.1-0.1c0,0,0-0.1,0-0.1c0-0.1,0-0.1-0.1-0.2c0-0.1,0-0.1,0-0.2c0.1-0.1,0.4-0.2,0.8-0.2c0.3,0,0.4,0.1,0.4,0.2
	c0.2,0.4-0.2,1.3-0.5,1.7c0,0,0,0.1,0,0.1v1.7c0,0,0,0.1,0.1,0.1C41,14.6,41,14.7,41,14.7z"/>
<path class="st2" d="M46.2,17.5c0,0-0.2,2.8-0.1,3.1c0.2,0.8,0.7,1.4,0.9,2.1c0.3,1.1,0.2,2.5,0.2,3.7c0.3,4.9,0.5,9.7,0.8,14.6
	c0.1,1.2,0.1,2.4,0.2,3.6c0.1,1.6-0.1,3.3-0.1,4.9c0,1.2,0.5,3.5-0.1,4.6c-0.6,1-4,0.5-5.1,0.5l-4.6,0c-1,0-2,0-3,0
	c-0.7,0-0.7,0-1-0.6c-0.3-0.6-0.2-1.7-0.2-2.4c0-8.5,0.6-17.1,0.8-25.7l0.1-2.5c0,0,1.8-3.4,1.1-5.5l1.9-1.8c0,0,2.2,1.6,3.3,1.4
	c1.1-0.2,2.7-1.7,2.7-1.7L46.2,17.5z"/>
<path class="st6" d="M46.2,17.5c0,0-0.2,2.8-0.1,3.1c0.2,0.8,0.7,1.4,0.9,2.1c0.3,1.1,0.2,2.5,0.2,3.7c0.3,4.9,0.5,9.7,0.8,14.6
	c0.1,1.2,0.1,2.4,0.2,3.6c0.1,1.6-0.1,3.3-0.1,4.9c0,1.2,0.5,3.5-0.1,4.6c-0.6,1-4,0.5-5.1,0.5l-4.6,0c-1,0-2,0-3,0
	c-0.7,0-0.7,0-1-0.6c-0.3-0.6-0.2-1.7-0.2-2.4c0-8.5,0.6-17.1,0.8-25.7l0.1-2.5c0,0,1.8-3.4,1.1-5.5l1.9-1.8c0,0,2.2,1.6,3.3,1.4
	c1.1-0.2,2.7-1.7,2.7-1.7L46.2,17.5z"/>
<path class="st2" d="M41,17.5c0,0-1,2.6-1.6,2.6c-0.6,0-3-2.8-3-2.8s1-1.7,1.3-1.7S41,17.5,41,17.5z"/>
<path class="st2" d="M41,17.5c0,0,2.5-2,2.9-1.9c0.4,0.1,1.6,1.5,1.6,1.5s-2.1,3-2.8,3.1C42,20.1,41,17.5,41,17.5z"/>
<path class="st8" d="M50.8,53.6c0.1,2.4-0.1,4.7-0.4,7.1c-0.3,1.6-0.5,2-2.2,1.6c-1.1-0.2-2.1-0.8-3.2-0.4c-0.4,0.1-0.7,0.3-1,0.5
	c-0.8,0.4-1.7,0.4-2.6,0.4h-6.2c-1.4,0-2.9,0.3-3-1.4c-0.6-6.9-0.4-13.8,0.1-20.7c0.1-1.7,0.3-3.5,0.4-5.2c0.1-1.5,0.6-3.1,0.3-4.6
	c-0.4-2.7,0.6-4.7,0.6-7.4c0-1.2-0.3-3.7,0.5-4.7c0.7-0.9,4.1-4,4.1-4s1.6,1.8,3.1,1.8c1.5,0,2.8-1.8,2.8-1.8s4.6,3.5,4.9,4.6
	c0.3,1.1,0.3,4.1,0.6,7.5c0.4,4.2,0.1,8.3,0.3,12.5c0.3,4.2,0.8,8.3,1,12.5C50.7,52.4,50.8,53,50.8,53.6z"/>
<path class="st8" d="M67.7,54.6c0.1,2.4-0.1,4.7-0.4,7.1c-0.3,1.6-0.5,2-2.2,1.6c-1.1-0.2-2.1-0.8-3.2-0.4c-0.4,0.1-0.7,0.3-1,0.5
	c-0.8,0.4-1.7,0.4-2.6,0.4H52c-1.4,0-2.9,0.3-3-1.4c-0.6-6.9-0.4-13.8,0.1-20.7c0.1-1.7,0.3-3.5,0.4-5.2c0.1-1.5,0.5-3.1,0.3-4.6
	c-0.4-2.7-0.4-5.3-0.3-8c0-1.2-0.3-3.7,0.5-4.7c0.7-0.9,5-3.4,5-3.4s1.6,1.9,3.1,1.9c1.5,0,2.8-1.9,2.8-1.9s5.3,2.9,5.5,4
	s-0.4,4.7-0.1,8.2c0.4,4.2,0.1,8.3,0.3,12.5c0.3,4.2,0.8,8.3,1,12.5C67.7,53.4,67.7,54,67.7,54.6z"/>
<path class="st8" d="M76.9,15.7c0,0-1.3,1.9-2.8,1.9c-1.5,0-3.1-1.9-3.1-1.9s-3.8,2.8-4.5,3.7c-0.7,0.9-1.1,11-0.8,15.4
	C66,39.3,60.6,74,61.1,77s8.5,2,13.3,2c4.8,0,11.4,1.8,12.2-0.8c0.8-2.6-0.5-16.6-2.1-23.6c-1.7-7.1-1.8-23.3-2.1-26.7
	c-0.3-3.5-0.6-7.3-0.8-8.4C81.2,18.3,76.9,15.7,76.9,15.7z"/>
<path class="st2" d="M56.1,90h47.2V48.2H56.1V90z"/>
<path class="st9" d="M56.1,90h47.2V48.2H56.1V90z"/>
<path class="st10" d="M56.1,90h27.1V48.2H56.1V90z"/>
<path class="st6" d="M83.2,52.2H56.1v0.6h27.1V52.2z"/>
<path class="st6" d="M103.3,83.8H56.1v0.7h47.2V83.8z"/>
<path class="st6" d="M76.4,50.2c0,0.1,0,0.2-0.1,0.3c-0.1,0.1-0.1,0.1-0.2,0.2c-0.1,0-0.2,0-0.3,0c-0.1,0-0.2-0.1-0.2-0.1
	s-0.1-0.2-0.1-0.2c0-0.1,0-0.2,0-0.3c0-0.1,0.1-0.2,0.2-0.2c0.1-0.1,0.2-0.1,0.3-0.1c0.1,0,0.3,0.1,0.3,0.1
	C76.3,49.9,76.4,50,76.4,50.2z"/>
<path class="st6" d="M78.2,50.2c0,0.1,0,0.2-0.1,0.3c-0.1,0.1-0.1,0.1-0.2,0.2s-0.2,0-0.3,0s-0.2-0.1-0.3-0.1
	c-0.1-0.1-0.1-0.2-0.1-0.3c0-0.1,0-0.2,0-0.3c0-0.1,0.1-0.2,0.2-0.2c0.1-0.1,0.2-0.1,0.3-0.1c0.1,0,0.3,0.1,0.3,0.1
	C78.2,49.9,78.2,50,78.2,50.2z"/>
<path class="st6" d="M61,50.6c0.3,0,0.5-0.2,0.5-0.5c0-0.3-0.2-0.5-0.5-0.5c-0.3,0-0.5,0.2-0.5,0.5C60.5,50.4,60.7,50.6,61,50.6z"/>
<path class="st6" d="M63.3,50.2c0,0.1,0,0.2-0.1,0.3c-0.1,0.1-0.1,0.1-0.2,0.2c-0.1,0-0.2,0-0.3,0c-0.1,0-0.2-0.1-0.2-0.1
	s-0.1-0.2-0.1-0.2c0-0.1,0-0.2,0-0.3c0-0.1,0.1-0.2,0.2-0.2c0.1-0.1,0.2-0.1,0.3-0.1c0.1,0,0.3,0.1,0.3,0.1
	C63.3,49.9,63.3,50,63.3,50.2z"/>
<path class="st6" d="M73.3,49h-8c-0.2,0-0.3,0.2-0.3,0.3V51c0,0.2,0.2,0.3,0.3,0.3h8c0.2,0,0.3-0.2,0.3-0.3v-1.7
	C73.7,49.1,73.5,49,73.3,49z"/>
<path class="st10" d="M59.2,53.8h-1.4c-0.2,0-0.4,0.2-0.4,0.4v2.5c0,0.2,0.2,0.4,0.4,0.4h1.4c0.2,0,0.4-0.2,0.4-0.4v-2.5
	C59.6,54,59.4,53.8,59.2,53.8z"/>
<path class="st11" d="M59.2,55.2c0,0.5-0.3,1-0.7,1c-0.4,0-0.7-0.4-0.7-1c0-0.5,0.3-1,0.7-1C58.8,54.2,59.2,54.7,59.2,55.2z"/>
<path class="st11" d="M59.2,56.5h-1.5v0.2h1.5V56.5z"/>
<path class="st4" d="M69.4,80.2c4.9,0,8.8-5.4,8.8-12s-4-12-8.8-12s-8.8,5.4-8.8,12S64.5,80.2,69.4,80.2z"/>
<path class="st6" d="M78.2,68.1c0,6.7-4,12-8.8,12h-0.2c4.8-0.1,8.7-5.5,8.7-12s-3.9-11.9-8.7-12h0.2C74.2,56.1,78.2,61.5,78.2,68.1
	z"/>
<path class="st10" d="M69.4,80.2c4.9,0,8.8-5.4,8.8-12s-4-12-8.8-12s-8.8,5.4-8.8,12S64.5,80.2,69.4,80.2z"/>
<path class="st10" d="M76.7,68.1c0,5.3-2.7,9.7-6.3,10.4c-0.3,0.1-0.7,0.1-1.1,0.1c-1,0-1.9-0.3-2.7-0.8c-0.2-0.1-0.4-0.3-0.6-0.4
	c-1.2-0.9-2.2-2.2-2.8-3.6c-0.3-0.6-0.5-1.2-0.7-1.9c-0.1-0.3-0.1-0.5-0.2-0.8c-0.2-1-0.3-2.1-0.3-3.1c0-5.8,3.3-10.6,7.4-10.6
	c0.4,0,0.7,0,1.1,0.1c0.5,0.1,1.1,0.3,1.5,0.6c0.2,0.1,0.3,0.2,0.5,0.3c0.4,0.3,0.8,0.6,1.1,0.9c1,1,1.8,2.3,2.2,3.6
	c0.1,0.3,0.2,0.5,0.3,0.8C76.5,65.3,76.7,66.7,76.7,68.1z"/>
<path class="st4" d="M76.7,68.1c0,5.3-2.7,9.7-6.3,10.4c-3.5-0.7-6.3-5.1-6.3-10.4s2.7-9.7,6.3-10.4C74,58.4,76.7,62.8,76.7,68.1z"
	/>
<path class="st2" d="M53.8,80.2c5.2,0,9.4-5.4,9.4-12s-4.2-12-9.4-12s-9.4,5.4-9.4,12S48.7,80.2,53.8,80.2z"/>
<path class="st6" d="M44.4,68.1c0,6.7,4.2,12,9.4,12H54c-5.1-0.1-9.2-5.5-9.2-12c0-6.6,4.1-11.9,9.2-12h-0.2
	C48.7,56.1,44.4,61.5,44.4,68.1z"/>
<path class="st6" d="M54.5,79.3c4.7,0,8.5-5,8.5-11.1c0-6.2-3.8-11.1-8.5-11.1c-4.7,0-8.5,5-8.5,11.1C46,74.3,49.8,79.3,54.5,79.3z"
	/>
<path class="st2" d="M55.7,78.6c4.3,0,7.7-4.7,7.7-10.5c0-5.8-3.5-10.5-7.7-10.5s-7.7,4.7-7.7,10.5C47.9,73.9,51.4,78.6,55.7,78.6z"
	/>
<path class="st7" d="M62.2,68.1c0,4.9-2.8,9-6.2,9c-0.9,0-1.8-0.3-2.6-0.9c-0.2-0.1-0.4-0.3-0.6-0.5c-1.2-1.2-2.1-2.7-2.5-4.3
	c-0.2-0.7-0.3-1.5-0.4-2.2c0-0.3,0-0.7,0-1v-0.1c0-4.9,2.8-9,6.2-9c0.4,0,0.8,0.1,1.2,0.2c0.2,0.1,0.4,0.1,0.6,0.2
	c0.5,0.2,0.9,0.5,1.3,0.8c1.1,1,1.9,2.3,2.4,3.7c0.1,0.3,0.2,0.5,0.3,0.8C62,65.9,62.2,67,62.2,68.1z"/>
<path class="st6" d="M62.5,68.1c0,4.9-2.8,9-6.2,9c-0.2,0-0.4,0-0.6,0c3.1-0.5,5.5-4.4,5.5-9c0-4.6-2.5-8.5-5.5-9
	c0.2,0,0.4-0.1,0.6-0.1C59.7,59.1,62.5,63.2,62.5,68.1z"/>
<path class="st12" d="M57.2,59.3C54.4,62,52,65,49.9,68.2v-0.1c0-4.9,2.8-9,6.2-9C56.4,59.1,56.8,59.2,57.2,59.3z"/>
<path class="st12" d="M59.1,60.4c-3.4,3.3-6.3,7.1-8.8,11.1c-0.2-0.7-0.3-1.5-0.4-2.2c2.3-3.5,4.9-6.8,7.9-9.7
	C58.2,59.7,58.7,60,59.1,60.4z"/>
<path class="st12" d="M61.7,64.8c-3.2,3.4-6,7.3-8.3,11.4c-0.2-0.1-0.4-0.3-0.6-0.5c2.4-4.3,5.3-8.2,8.6-11.8
	C61.5,64.3,61.6,64.6,61.7,64.8z"/>
<path class="st13" d="M44.4,57.2c0.3,0.5,0.6,1,1,1.6c0.3,0.5,0.7,1,1,1.5c0.3,0.5,0.7,0.9,1.1,1.4c0.2,0.2,0.4,0.4,0.6,0.6
	c0.1,0.1,0.2,0.1,0.3,0.2l0.1,0.1l0.1,0c0.4,0.1,0.9,0.2,1.3,0.1c0.6-0.1,1.2-0.2,1.7-0.3c1.2-0.3,2.4-0.7,3.5-1.1h0
	c0.2-0.1,0.4-0.1,0.5,0c0.2,0.1,0.3,0.2,0.4,0.4c0.1,0.1,0.1,0.3,0,0.5c0,0.2-0.1,0.3-0.3,0.4c-1.1,0.7-2.3,1.4-3.5,1.9
	c-0.6,0.3-1.3,0.5-2,0.6c-0.4,0.1-0.8,0.1-1.1,0.2c-0.4,0-0.9,0-1.3-0.1c-0.1,0-0.3-0.1-0.4-0.1c-0.1-0.1-0.2-0.1-0.3-0.2
	c-0.2-0.1-0.4-0.2-0.5-0.3c-0.3-0.2-0.6-0.5-0.9-0.7c-0.5-0.5-1-1-1.4-1.6c-0.8-1.1-1.6-2.2-2.2-3.4c-0.2-0.3-0.2-0.7-0.1-1
	c0.1-0.4,0.3-0.7,0.6-0.8c0.3-0.2,0.7-0.2,1-0.2S44.2,56.9,44.4,57.2L44.4,57.2z"/>
<path class="st6" d="M44.4,57.2c0.3,0.5,0.6,1,1,1.6c0.3,0.5,0.7,1,1,1.5c0.3,0.5,0.7,0.9,1.1,1.4c0.2,0.2,0.4,0.4,0.6,0.6
	c0.1,0.1,0.2,0.1,0.3,0.2l0.1,0.1l0.1,0c0.4,0.1,0.9,0.2,1.3,0.1c0.6-0.1,1.2-0.2,1.7-0.3c1.2-0.3,2.4-0.7,3.5-1.1h0
	c0.2-0.1,0.4-0.1,0.5,0c0.2,0.1,0.3,0.2,0.4,0.4c0.1,0.1,0.1,0.3,0,0.5c0,0.2-0.1,0.3-0.3,0.4c-1.1,0.7-2.3,1.4-3.5,1.9
	c-0.6,0.3-1.3,0.5-2,0.6c-0.4,0.1-0.8,0.1-1.1,0.2c-0.4,0-0.9,0-1.3-0.1c-0.1,0-0.3-0.1-0.4-0.1c-0.1-0.1-0.2-0.1-0.3-0.2
	c-0.2-0.1-0.4-0.2-0.5-0.3c-0.3-0.2-0.6-0.5-0.9-0.7c-0.5-0.5-1-1-1.4-1.6c-0.8-1.1-1.6-2.2-2.2-3.4c-0.2-0.3-0.2-0.7-0.1-1
	c0.1-0.4,0.3-0.7,0.6-0.8c0.3-0.2,0.7-0.2,1-0.2S44.2,56.9,44.4,57.2L44.4,57.2z"/>
<path class="st4" d="M44,56.6c0.7,0.5,1.7,2.4,1.7,2.4L43.2,61l-1-0.8L44,56.6z"/>
<path class="st10" d="M45.7,58.9l-1.6,1.3L43.2,61L43,60.9l-0.9-0.7l1.1-2.2l0.7-1.5c0.6,0.4,1.3,1.6,1.6,2.1L45.7,58.9z"/>
<path class="st4" d="M46,59.1l-1.9,1.4l-0.9,0.7L43,60.9l0,0l1-0.9l1.6-1.3l0.1-0.1L46,59.1z"/>
<path class="st6" d="M44.1,60.5l-1,0.7L43,60.9l0,0l-0.9-0.7l1.1-2.2c0.4,0.6,0.6,1.3,0.8,2c0,0.1,0,0.2,0,0.2
	C44.1,60.3,44.1,60.4,44.1,60.5z"/>
<path class="st14" d="M54.5,61.5l1.6-1.2l0.4,2.3c0,0-1.3,0.4-2.3-0.3L54.5,61.5z"/>
<path class="st14" d="M58.1,60.4l0,1.8l-1.5,0.4l-0.4-2.3L58.1,60.4z"/>
<path class="st15" d="M33.6,85.4l-1.2,2.8l-2.8-0.4l-2.1-0.3l-2.6-0.4l1.3-1.1l2.1-0.2l2-0.1L33.6,85.4z"/>
<path class="st6" d="M30.3,85.6l-0.7,2.1l-2.1-0.3l0.8-1.7L30.3,85.6z"/>
<path class="st2" d="M27.4,86c0.1,0.1-1.6,1.7-1.6,1.7s-2.1,0-3.3,0.8c-1.2,0.8-1.3-0.4-0.2-1.5l2.7-2.8C25.8,83.4,26,84.6,27.4,86z
	"/>
<path class="st2" d="M25.7,87.7L25.7,87.7L25.7,87.7L25.7,87.7c0.2,0.3,0.2,0.6,0.2,0.9c0,0,0,0.1-0.1,0.1c0,0-0.1,0.1-0.1,0.1
	c0,0-0.1,0-0.1,0c0,0-0.1,0-0.1-0.1c-0.1-0.1-0.1-0.3,0-0.5c-0.1,0.1-0.2,0.3-0.4,0.3c0,0-0.1,0-0.1,0c0,0-0.1,0-0.1,0
	c0,0-0.1,0-0.1-0.1c0,0,0-0.1,0-0.1c0-0.1,0.1-0.1,0.1-0.2C25,88,25.3,87.8,25.7,87.7z M25.5,87.9c-0.4,0.1-0.7,0.4-0.8,0.5
	c0,0,0,0.1,0.1,0.1c0,0,0.1,0,0.1,0c0.1,0,0.2-0.1,0.2-0.2C25.3,88.2,25.4,88,25.5,87.9z M25.8,88.6c0-0.2,0-0.4-0.1-0.6
	c-0.2,0.3-0.3,0.7-0.2,0.8c0,0,0.1,0,0.1,0C25.7,88.7,25.7,88.7,25.8,88.6C25.7,88.6,25.8,88.6,25.8,88.6L25.8,88.6z"/>
<path class="st4" d="M52.1,85.9c-0.6,2.2-2.2,2.9-3.9,3c-2,0.1-19.9-1-19.9-1l0.9-2.7L45,84.6l-8.7-4.8c0,0-8.2-1.2-7.5-7
	c0.3-2.2,0.9-4.4,1.8-6.5c0.1-0.2,0.1-0.3,0.2-0.5l8.5-0.5l0.1,0.4l0.5,3l1,2.6C40.7,71.3,53.3,81.1,52.1,85.9z"/>
<path class="st6" d="M41.1,71.6l-10.9,5.3c2.2,2.3,6.1,2.8,6.1,2.8l8.7,4.8l-15.7,0.6l-0.9,2.7c0,0,17.9,1.1,19.9,1
	c1.7-0.1,3.3-0.8,3.9-3C53.2,81.6,43.2,73.3,41.1,71.6z"/>
<path class="st15" d="M49.3,80.7l-0.4,0.9l-1.8,3.6l-1.4,2.9L44.2,88l0.8-3.2l0.9-3.7l0.2-0.8L49.3,80.7z"/>
<path class="st6" d="M48.8,81.6l-1.8,3.6l-2-0.3l0.9-3.7L48.8,81.6z"/>
<path class="st4" d="M44,56.6c0,0-0.8,6.4-4.4,11.5c0,0-7.6-1-9.3-1.4c1.1-3.1,1.7-5.2,2.1-11c0.1-1.4,1.4-2.2,2.8-2
	c1.4,0.1,2.7,0.4,4,0.8C41,55,44,56.6,44,56.6z"/>
<path class="st4" d="M28.9,72.2c0,0-1,6,3.4,6.6c7.2,1,14-6.1,14.8-6.1s-2.4,11.6-2.4,11.6l3.2,0.5c0,0,5.8-14.2,4.4-17.3
	C51,64.3,34,72.3,28.9,72.2z"/>
<path class="st2" d="M44.1,87c0-0.2,2.4,0,2.4,0s1.5,1.5,2.9,1.8c1.4,0.3,0.6,1.2-1,1.2h-3.9C43.3,90,44,89,44.1,87z"/>
<path class="st2" d="M46.5,87.1L46.5,87.1C46.5,87.1,46.5,87.1,46.5,87.1C46.5,87.1,46.5,87.1,46.5,87.1
	C46.5,87.1,46.5,87,46.5,87.1c0-0.1,0.2-0.6,0.5-0.8c0,0,0.1,0,0.2,0c0.1,0,0.1,0,0.2,0c0.1,0.1,0.2,0.1,0.2,0.2
	c0,0.1-0.2,0.2-0.4,0.4c0.2,0,0.4,0,0.5,0.1c0,0,0.1,0,0.1,0.1c0,0,0,0.1,0,0.1c0,0,0,0.1,0,0.1c0,0,0,0.1-0.1,0.1
	c-0.1,0-0.1,0.1-0.2,0.1C47.1,87.4,46.8,87.3,46.5,87.1z M46.7,87.1c0.3,0.1,0.8,0.3,0.9,0.2c0,0,0,0,0-0.1c0,0,0,0,0,0c0,0,0,0,0,0
	c-0.1,0-0.2-0.1-0.3-0.1C47.1,87,46.9,87,46.7,87.1z M47,86.4c-0.2,0.1-0.3,0.3-0.4,0.5c0.4-0.1,0.7-0.3,0.7-0.4
	c0,0-0.1-0.1-0.1-0.1C47.2,86.4,47.1,86.4,47,86.4C47.1,86.4,47,86.4,47,86.4L47,86.4z"/>
<path class="st2" d="M45.4,61.3c-0.5-0.6,1.1-2.8,2.2-2.6c1,0.1,3.1,0.6,4.2-0.1c1.1-0.7,3.1,0,3.9,0.5c0.8,0.5,1.1-0.5,2.1,1.2
	c1,1.7,1.5,1.3,1.8,4.4c0.3,3.2,3.6,8.2,6.1,8.6c2.5,0.4,3.4,2.4,4.7,1.7c1.3-0.7,4.4-0.2,4.4-0.2s-1.6,3.4-5.2,3.5
	c0,0-2,5.6-6.3,4.9c-4.3-0.6-8.1-3.8-9.8-11.3c-0.5-2.2-1.5-4.3-2.9-6.1C49.2,63.9,47.4,62.4,45.4,61.3z"/>
<path class="st16" d="M74.8,74.7c0,0-1.6,3.4-5.2,3.5c0,0-2,5.6-6.3,4.9c-4.3-0.6-8.1-3.8-9.8-11.3c-1.6-6.9-7-10-7.9-10.5l-0.1-0.1
	c0-0.1-0.1-0.1-0.1-0.2c0-0.1,0-0.1,0-0.2c0.1-0.8,1.4-2.3,2.2-2.2c0.7,0.1,2,0.4,3,0.3c0.4,0,0.8-0.1,1.2-0.3
	c0.2-0.1,0.4-0.2,0.6-0.2c1.1-0.2,2.6,0.3,3.2,0.7c0.1,0.1,0.3,0.1,0.4,0.2c0.4,0.1,0.7-0.2,1.2,0.4c0.2,0.2,0.3,0.4,0.4,0.7
	c1,1.7,1.5,1.3,1.8,4.4c0.2,1.6,1.1,3.6,2.2,5.3c1,1.5,2.2,2.7,3.4,3.1c0.2,0.1,0.3,0.1,0.5,0.1c2.1,0.3,3,1.7,4,1.8
	c0.2,0,0.5,0,0.7-0.1c0.2-0.1,0.4-0.2,0.5-0.2C72.4,74.4,74.8,74.7,74.8,74.7z"/>
<path class="st11" d="M74.8,74.7c0,0-1.6,3.4-5.2,3.5c0,0-2,5.6-6.3,4.9c-4.3-0.6-8.1-3.8-9.8-11.3c-1.6-6.9-7-10-7.9-10.5
	c-0.1-0.3-0.2-0.4-0.2-0.5c0.1,0.1,1-1.1,2.6-0.8c1.6,0.3,4.1,2.5,5.1,6.8c1,4.3,2.8,13.1,7.1,15.1c4.2,2,7.9-0.5,8.5-2.1
	C69.2,78.2,71.7,74.5,74.8,74.7z"/>
<path class="st11" d="M71,74.8c-1.4,0.6-3.1,3.5-5.2,3.5c-2.1,0-4.3-2.7-3.7-2.4s2.6,1.8,4.4,0.7C68.3,75.4,71,74.8,71,74.8z"/>
<path class="st11" d="M53.9,62.8c-1-2.3-2.1-3.3-3.2-3.8c0.4,0,0.8-0.1,1.2-0.3c0.2-0.1,0.4-0.2,0.6-0.2
	C54.5,59.9,55,65.5,53.9,62.8z"/>
<path class="st11" d="M57.3,59.7c-0.1,1.4-0.8,3.2-0.8,1.6c0-0.7-0.1-1.4-0.4-2C56.5,59.3,56.8,59.1,57.3,59.7z"/>
<path class="st11" d="M65.2,73.2c-4.5,0.6-8.7-3.8-9.8-6.5c-0.4-1,3.2,2.4,5.1,3.3c0.6,0.3,1,0.2,1.3,0.1
	C62.8,71.6,64.1,72.8,65.2,73.2z"/>
<path class="st14" d="M44.6,61.6l1.7-1.1l0.3,2.3c0,0-1.3,0.4-2.3-0.4L44.6,61.6z"/>
<path class="st14" d="M48.2,60.7l-0.1,1.8l-1.6,0.4l-0.3-2.3L48.2,60.7z"/>
<path class="st10" d="M44,56.6c-0.2,1.6-0.6,3.2-1.1,4.7c-0.7,2.4-1.8,4.7-3.2,6.8c0,0-7.6-1-9.3-1.4c0.2-0.6,0.4-1.1,0.5-1.7
	c0.6-1.8,1-3.7,1.2-5.7c0.1-0.9,0.2-1.9,0.3-3.1c0-0.2,0-0.4,0-0.5c0.1-1.4,1.4-2.2,2.8-2c0.2,0,0.6,0,1.3,0.1c0.1,0,0.1,0,0.2,0
	c0.9,0.1,1.7,0.4,2.6,0.6c0.4,0.1,0.9,0.3,1.4,0.6C42.3,55.7,44,56.6,44,56.6z"/>
<path class="st15" d="M40.7,54.1c-0.3,0.3-0.5,0.7-0.6,1.1c0,0.1,0,0.2,0,0.3c0,0.1,0.1,0.2,0.1,0.3c-0.2,1-1.4,0.9-1.4,0.9
	c-1.6-1.5-1.5-2.6-1.5-2.6c0.4-0.1,0.8-0.2,1.1-0.4c0.3-0.2,0.6-0.5,0.7-0.9c0.2-0.4,0.4-0.9,0.5-1.3l1.8,1.9
	C41.1,53.6,40.9,53.8,40.7,54.1z"/>
<path class="st6" d="M41.4,53.3c-0.3,0.3-0.5,0.5-0.7,0.8c-0.3,0.3-0.5,0.7-0.6,1.1c-0.3-0.3-0.6-0.7-0.7-1.2
	c-0.2-0.4-0.2-0.9-0.2-1.4c0.2-0.4,0.4-0.9,0.5-1.3L41.4,53.3z"/>
<path class="st4" d="M41.2,45.2c0,0,0.1-1.7-1.5-1.9c-1.7-0.2-3.3,2.6-0.6,3C41.8,46.8,41.2,45.2,41.2,45.2z"/>
<path class="st2" d="M42.1,45.6c0,0-0.6-0.8-1.9-0.3s-1.5,1.9-1.2,1.9C39.2,47.1,41.8,46.2,42.1,45.6z"/>
<path class="st4" d="M40.4,52.2c0,0-3,0-2.3-4c0.7-4,6.9-3.9,6.7-0.3C44.6,51.5,40.4,52.2,40.4,52.2z"/>
<path class="st15" d="M39.4,48c-0.5,2.2-0.7,3.1,0,4.6c1.1,2.2,3.9,2.4,5,0.4c1-1.8,1.6-5.1-0.2-6.7c-0.4-0.4-0.8-0.6-1.4-0.7
	c-0.5-0.1-1-0.1-1.5,0.1c-0.5,0.2-0.9,0.5-1.3,0.9C39.7,47,39.5,47.5,39.4,48z"/>
<path class="st4" d="M41.8,47.3c-1.7,1-0.1,3.6-2.4,2.6c-2.3-1.1,0-4,1.7-4.1C42.8,45.5,41.8,47.3,41.8,47.3z"/>
<path class="st4" d="M41.1,45.7c-0.3,1.5-0.2,2,1.2,2.1c-0.1-0.4,0-0.7,0.2-1c0,0.4,0.1,0.8,0.4,1.1c0.4,0,0.8,0,1.2,0.1
	c0-0.2,0.1-0.4,0.2-0.6c0,0.3,0.1,0.5,0.2,0.8c0.4,0.2,0.7,0.4,1,0.7C46.1,47.3,44.2,44.7,41.1,45.7z"/>
<path class="st4" d="M42.5,49.7c0,0.2,0,0.4,0.1,0.4c0.1,0,0.2-0.1,0.3-0.3c0-0.2,0-0.4-0.1-0.4C42.7,49.4,42.5,49.5,42.5,49.7z"/>
<path class="st4" d="M44.6,50.4c0,0.2,0,0.4,0.1,0.4c0.1,0,0.2-0.1,0.3-0.3c0-0.2,0-0.4-0.1-0.4C44.8,50.1,44.7,50.3,44.6,50.4z"/>
<path class="st4" d="M44.9,50.2h0.5C45.3,50.2,45,50.5,44.9,50.2z"/>
<path class="st17" d="M44,50.5c0,0.5,0.2,0.9,0.3,1.4c-0.1,0-0.2,0-0.3,0s-0.2-0.1-0.3-0.1L44,50.5z"/>
<path class="st4" d="M42.5,52.2c0.1,0.1,0.2,0.1,0.3,0.1c0,0,0,0,0,0c0,0,0,0,0,0s0,0,0,0c0,0,0,0,0,0c0,0,0,0,0,0c0,0,0,0,0,0
	c-0.2-0.1-0.4-0.2-0.6-0.4c-0.2-0.2-0.3-0.4-0.4-0.6c0,0,0,0,0,0c0,0,0,0,0,0c0,0,0,0,0,0c0,0,0,0,0,0C41.8,51.7,42.1,52,42.5,52.2z
	"/>
<path class="st15" d="M38.4,49.9c0,0.2,0.1,0.4,0.2,0.6c0.1,0.2,0.2,0.4,0.4,0.5c0.4,0.3,0.9-0.1,0.9-0.7c0.1-0.6-0.1-1.4-0.6-1.5
	C38.7,48.7,38.3,49.3,38.4,49.9z"/>
<path class="st4" d="M42.3,48.5C42.3,48.5,42.3,48.5,42.3,48.5C42.4,48.5,42.4,48.5,42.3,48.5c0.2-0.1,0.3-0.1,0.5-0.1
	c0.1,0,0.3,0,0.4,0.1c0,0,0,0,0,0c0,0,0,0,0,0c0,0,0,0,0,0c0,0,0,0,0,0c0,0,0-0.1,0-0.1c0,0,0-0.1,0-0.1c-0.1-0.1-0.3-0.1-0.5-0.1
	c-0.2,0-0.3,0-0.5,0.1c0,0,0,0-0.1,0.1C42.2,48.4,42.2,48.4,42.3,48.5C42.3,48.5,42.3,48.5,42.3,48.5z"/>
<path class="st4" d="M45.5,49.6C45.5,49.6,45.6,49.6,45.5,49.6C45.6,49.6,45.6,49.6,45.5,49.6c0.1,0,0.1,0,0.1,0c0,0,0,0,0,0
	c0,0,0,0,0,0c0,0,0,0,0,0c-0.1-0.2-0.1-0.3-0.3-0.5c-0.1-0.1-0.3-0.2-0.4-0.3c0,0,0,0,0,0c0,0,0,0,0,0c0,0,0,0,0,0s0,0,0,0
	c0,0,0,0.1,0,0.1c0,0,0,0,0.1,0.1c0.1,0.1,0.3,0.1,0.3,0.2C45.4,49.3,45.4,49.4,45.5,49.6C45.5,49.6,45.5,49.6,45.5,49.6
	C45.5,49.6,45.5,49.6,45.5,49.6z"/>
<path class="st4" d="M42.7,49.4h0.5C43.2,49.4,42.9,49.7,42.7,49.4z"/>
<path class="st2" d="M44.8,67.9c-0.3,0.2-9.7,5.4-12.3,4.8c-2.6-0.6-2.7-4.6-2.7-4.6l0.8-3c0.1,0,0.2,0,0.3-0.1
	c1.5-0.7,4.3-5.4,4.3-5.4s0.5-4.4,1.3-5.8c0.1,0,0.1,0,0.2,0c-0.1,0.4-0.3,0.8-0.3,1.2c-0.1,0.7-0.4,3.5-0.4,3.5l5.9,1.1
	c-0.5-3.5-1.2-4.5-1.2-4.6c1.4,1,2.2,6.3,2.2,6.3c-0.4,2.2-1.9,5.7-2.4,6.4c-0.5,0.8-0.2,1.1-0.2,1.1L44.8,67.9z"/>
<path class="st6" d="M35.9,57c0,0-2.6,2-3.8,2.3c0.1-0.9,0.2-1.9,0.3-3.1c0.7-0.7,1.7-1.2,3.2-0.8C35.8,55.9,35.9,56.4,35.9,57z"/>
<path class="st13" d="M35.1,55.6c0.2,0.7,0.4,1.5,0.6,2.2c0.2,0.7,0.4,1.5,0.6,2.2c0.2,0.7,0.4,1.5,0.7,2.2c0.1,0.3,0.3,0.7,0.4,1
	c0,0.1,0.1,0.1,0.1,0.2l0,0.1v0v0c-0.1,0-0.1,0,0,0c0.2,0.1,0.4,0.1,0.7,0.1c0.3,0,0.7-0.1,1-0.1c0.7-0.1,1.5-0.3,2.2-0.6
	c0.7-0.2,1.5-0.5,2.2-0.8c0.7-0.3,1.5-0.6,2.2-0.9h0c0.2-0.1,0.3-0.1,0.5,0c0.2,0.1,0.3,0.2,0.4,0.3c0.1,0.2,0.1,0.3,0.1,0.5
	c0,0.2-0.1,0.3-0.3,0.4c-0.7,0.5-1.4,0.9-2.1,1.3c-0.7,0.4-1.4,0.8-2.2,1.1c-0.8,0.4-1.6,0.6-2.4,0.9c-0.4,0.1-0.9,0.2-1.3,0.3
	c-0.6,0.1-1.1,0-1.7-0.1c-0.4-0.1-0.8-0.3-1-0.6L35.5,65L35.5,65l0,0l-0.1-0.2c-0.1-0.1-0.1-0.2-0.2-0.3c-0.2-0.4-0.4-0.8-0.6-1.2
	c-0.3-0.8-0.6-1.6-0.9-2.3s-0.5-1.5-0.7-2.3c-0.2-0.8-0.4-1.6-0.6-2.4c-0.1-0.4,0-0.7,0.2-1.1c0.2-0.3,0.5-0.5,0.9-0.6
	c0.4-0.1,0.7,0,1.1,0.2C34.7,54.9,35,55.2,35.1,55.6L35.1,55.6z"/>
<path class="st4" d="M34.9,53.8c-1.3-0.5-3.4,0.5-2.8,3.6l3.5-0.5C35.6,56.9,35.9,54.3,34.9,53.8z"/>
<path class="st10" d="M34.9,53.8c-1.3-0.5-3.4,0.5-2.8,3.6l3.5-0.5C35.6,56.9,35.9,54.3,34.9,53.8z"/>
<path class="st4" d="M31.9,57.2l3.8-0.6l0,0.4L32,57.7L31.9,57.2z"/>
<path class="st2" d="M85.7,90h47.2V48.2H85.7V90z"/>
<path class="st9" d="M85.7,90h47.2V48.2H85.7V90z"/>
<path class="st10" d="M85.7,90h27.1V48.2H85.7V90z"/>
<path class="st6" d="M112.7,52.2H85.7v0.5h27.1V52.2z"/>
<path class="st6" d="M132.9,83.8H85.7v0.7h47.2V83.8z"/>
<path class="st6" d="M105.9,50.2c0,0.1,0,0.2-0.1,0.3c-0.1,0.1-0.1,0.1-0.2,0.2c-0.1,0-0.2,0-0.3,0c-0.1,0-0.2-0.1-0.2-0.1
	c-0.1-0.1-0.1-0.2-0.1-0.2c0-0.1,0-0.2,0-0.3c0-0.1,0.1-0.2,0.2-0.2c0.1-0.1,0.2-0.1,0.3-0.1c0.1,0,0.3,0.1,0.3,0.1
	C105.9,49.9,105.9,50,105.9,50.2z"/>
<path class="st6" d="M107.8,50.2c0,0.1,0,0.2-0.1,0.3c-0.1,0.1-0.1,0.1-0.2,0.2c-0.1,0-0.2,0-0.3,0s-0.2-0.1-0.3-0.1
	c-0.1-0.1-0.1-0.2-0.1-0.3c0-0.1,0-0.2,0-0.3c0-0.1,0.1-0.2,0.2-0.2c0.1-0.1,0.2-0.1,0.3-0.1c0.1,0,0.3,0.1,0.3,0.1
	C107.7,49.9,107.8,50,107.8,50.2z"/>
<path class="st6" d="M90.5,50.6c0.3,0,0.5-0.2,0.5-0.5s-0.2-0.5-0.5-0.5c-0.3,0-0.5,0.2-0.5,0.5S90.2,50.6,90.5,50.6z"/>
<path class="st6" d="M92.9,50.2c0,0.1,0,0.2-0.1,0.3c-0.1,0.1-0.1,0.1-0.2,0.2c-0.1,0-0.2,0-0.3,0c-0.1,0-0.2-0.1-0.2-0.1
	c-0.1-0.1-0.1-0.2-0.1-0.2c0-0.1,0-0.2,0-0.3c0-0.1,0.1-0.2,0.2-0.2c0.1-0.1,0.2-0.1,0.3-0.1c0.1,0,0.3,0.1,0.3,0.1
	C92.8,49.9,92.9,50,92.9,50.2z"/>
<path class="st6" d="M102.9,49h-8c-0.2,0-0.3,0.2-0.3,0.3V51c0,0.2,0.2,0.3,0.3,0.3h8c0.2,0,0.3-0.2,0.3-0.3v-1.7
	C103.2,49.1,103.1,49,102.9,49z"/>
<path class="st10" d="M88.7,53.8h-1.4c-0.2,0-0.4,0.2-0.4,0.4v2.5c0,0.2,0.2,0.4,0.4,0.4h1.4c0.2,0,0.4-0.2,0.4-0.4v-2.5
	C89.1,54,89,53.8,88.7,53.8z"/>
<path class="st11" d="M88.7,55.2c0,0.5-0.3,1-0.7,1c-0.4,0-0.7-0.4-0.7-1s0.3-1,0.7-1C88.4,54.2,88.7,54.7,88.7,55.2z"/>
<path class="st11" d="M88.8,56.5h-1.5v0.2h1.5V56.5z"/>
<path class="st2" d="M98.9,80.2c4.9,0,8.8-5.4,8.8-12c0-6.7-4-12-8.8-12c-4.9,0-8.8,5.4-8.8,12C90.1,74.8,94,80.2,98.9,80.2z"/>
<path class="st10" d="M106.3,68.1c0,5.3-2.7,9.7-6.3,10.4c-0.3,0.1-0.7,0.1-1.1,0.1c-1,0-1.9-0.3-2.7-0.7c-0.2-0.1-0.4-0.3-0.6-0.4
	c-1.2-0.9-2.2-2.2-2.8-3.6c-0.3-0.6-0.5-1.2-0.7-1.9c-0.1-0.3-0.1-0.5-0.2-0.8c-0.2-1-0.3-2.1-0.3-3.1c0-5.8,3.3-10.6,7.4-10.6
	c0.4,0,0.7,0,1.1,0.1c0.5,0.1,1.1,0.3,1.5,0.6c0.2,0.1,0.3,0.2,0.5,0.3c0.4,0.3,0.8,0.6,1.1,0.9c1,1,1.8,2.3,2.2,3.6
	c0.1,0.3,0.2,0.5,0.3,0.8C106.1,65.3,106.3,66.7,106.3,68.1z"/>
<path class="st6" d="M106.3,68.1c0,5.3-2.7,9.7-6.3,10.4c-3.5-0.7-6.3-5.1-6.3-10.4s2.7-9.7,6.3-10.4
	C103.5,58.4,106.3,62.8,106.3,68.1z"/>
<path class="st12" d="M101.5,58.3c-3.8,3.8-7.1,8.2-9.6,13c-0.2-1-0.3-2.1-0.3-3.1c0-5.8,3.3-10.6,7.4-10.6c0.4,0,0.7,0,1.1,0.1
	C100.5,57.8,101,58,101.5,58.3z"/>
<path class="st12" d="M103.1,59.5c-4.2,4.2-7.7,9.1-10.4,14.4c-0.3-0.6-0.5-1.2-0.7-1.9c2.6-5,6-9.5,9.9-13.5
	C102.4,58.8,102.8,59.1,103.1,59.5z"/>
<path class="st12" d="M105.6,63.9c-3.8,4.2-7,8.9-9.5,14c-0.2-0.1-0.4-0.3-0.6-0.4c2.5-5.3,5.8-10.1,9.8-14.4
	C105.5,63.4,105.6,63.6,105.6,63.9z"/>
<path class="st6" d="M107.7,68.1c0,6.7-4,12-8.8,12h-0.2c4.8-0.1,8.7-5.5,8.7-12c0-6.6-3.9-11.9-8.7-12h0.2
	C103.8,56.1,107.7,61.5,107.7,68.1z"/>
<path class="st4" d="M96.7,84.1c1.9-1.6,1.7-3.5-0.7-4.8c-2.4-1.3-2.7-1.4-4.6-1c-1.9,0.4-1.4-0.5-4.1-0.1c-2.7,0.4-4.6,1.3-4.2,2.5
	C83.6,82,93.6,86.6,96.7,84.1z"/>
<path class="st10" d="M96.7,84.1c1.9-1.6,1.7-3.5-0.7-4.8c-2.4-1.3-2.7-1.4-4.6-1c-1.9,0.4-1.4-0.5-4.1-0.1
	c-2.7,0.4-4.6,1.3-4.2,2.5C83.6,82,93.6,86.6,96.7,84.1z"/>
<path class="st2" d="M91.5,82.5c0.9-1.7-1.3-1.8-3-3.2c-1.8-1.4-3-3.4-4.7-2.3c-1.7,1.1-1.5,1.9-4.3,2.3c-2.8,0.4-3.4,0.5-4.7,1.1
	c-1.2,0.6-2,0.3-2,1.5c0,1.2-1.7,2.2,3.2,2.3C81,84.3,90.7,84,91.5,82.5z"/>
<path class="st7" d="M91.5,82.5c0.9-1.7-1.3-1.8-3-3.2c-1.8-1.4-3-3.4-4.7-2.3c-1.7,1.1-1.5,1.9-4.3,2.3c-2.8,0.4-3.4,0.5-4.7,1.1
	c-1.2,0.6-2,0.3-2,1.5c0,1.2-1.7,2.2,3.2,2.3C81,84.3,90.7,84,91.5,82.5z"/>
<path class="st2" d="M88.7,87.2c0.2-1-1.9-2.3-3.7-3.7c-1.7-1.4-1.7-1.4-4.4-1.2c-2.7,0.2-2.9,0.2-4.6-0.1c-1.7-0.3-2-0.3-3.4,0.1
	s-2.2,0.4-2.4,1.5c-0.2,1-1.4,5.3,1.7,5.6C75,89.6,88.5,88.5,88.7,87.2z"/>
<path class="st10" d="M88.7,87.2c0.2-1-1.9-2.3-3.7-3.7c-1.7-1.4-1.7-1.4-4.4-1.2c-2.7,0.2-2.9,0.2-4.6-0.1c-1.7-0.3-2-0.3-3.4,0.1
	s-2.2,0.4-2.4,1.5c-0.2,1-1.4,5.3,1.7,5.6C75,89.6,88.5,88.5,88.7,87.2z"/>
<path class="st4" d="M96.9,88.2c-0.1-0.8-1.8-1.4-3.6-1.6c-1.5-0.1-2.9-0.6-4.2-1.3c-1.5-0.8-2.1-0.9-3.3,0c-1.2,0.9-1.7,1.1-3.4,1
	c-0.9-0.1-1.9-0.1-2.8-0.1c-1.5,0-1.7-0.1-2.7,0.4c-1.1,0.6-1.5-0.2-2.4,0.6c-0.9,0.8-1.5,0.8-1.7,1.2c-0.2,0.4-0.7,0.7,0.2,0.9
	c0.9,0.2,23,0.4,23.3,0C96.7,88.9,96.9,88.5,96.9,88.2z"/>
<path class="st2" d="M95.6,88.1c1.7-0.5,1.7-0.6,2.1-2.5c0.4-1.9,1.7-1.8-0.3-2.5c-2-0.7-2.9-0.9-4.5-1c-1.6-0.1-2.8,0.4-4.2,0.2
	c-1.4-0.3-0.9-0.1-2.9-0.6c-2-0.4-2.6-0.8-4.1-0.1c-1.5,0.7-3.1-0.2-2.4,1.5C80.2,84.8,91.5,89.3,95.6,88.1z"/>
<path class="st18" d="M79.5,83.1c0.4,0.8,3.3,2.4,6.7,3.5c1.8,0.7,3.7,1.1,5.6,1.5c1.5,0.2,2.8,0.3,3.8,0L96,88
	c1.3-0.4,1.3-0.6,1.7-2.4c0.1-0.4,0.2-0.8,0.4-1.2c0.4-0.8,0.7-0.9-0.7-1.3c-2-0.7-2.9-0.9-4.5-1c-0.8,0-1.7,0.1-2.5,0.2
	c-0.6,0.1-1.1,0.1-1.7,0c-1.4-0.3-0.9-0.1-2.9-0.6c-1.5-0.3-2.2-0.6-3.1-0.4c-0.3,0.1-0.7,0.2-1,0.3C80.4,82.3,78.7,81.4,79.5,83.1z
	"/>
<path class="st10" d="M85.1,82.4c1.2,0.6,1.2,0.7,2.2,0.8c1,0,1.4-0.1,2.3,0.6c0.9,0.7,1.7,0.7,1.4-0.4c-0.1-0.4-0.3-0.7-0.6-1
	c-0.6,0.1-1.1,0.1-1.7,0c-1.4-0.3-0.9-0.1-2.9-0.6c-1.5-0.3-2.2-0.6-3.1-0.4C82,82,84.1,81.9,85.1,82.4z"/>
<path class="st10" d="M92.9,82.8c0.1,0.9,1.4,1.3,1.7,2.3c0.3,0.9-0.9,0.8,0.4,1.8c0.4,0.3,0.7,0.7,1,1.1c1.3-0.4,1.3-0.6,1.7-2.4
	c0.1-0.4,0.2-0.8,0.4-1.2c-0.9-0.7-1.8-0.3-3-0.8C93.4,83.1,92.8,81.9,92.9,82.8z"/>
<path class="st10" d="M85.5,85.6c0.3,0.3,0.5,0.7,0.7,1.1c1.8,0.7,3.7,1.1,5.6,1.5c0.2-1.1-0.4-1.3-1.6-2.1c-1.5-1-2-1.4-3.1-1.4
	c-1.1,0.1-1,0.3-2.1-0.5c-1.1-0.9-1.8-1.5-2.4-1.5C82.1,82.7,84.3,84,85.5,85.6z"/>
<path class="st2" d="M72.3,79.5c0,0,0-0.1,0-0.2s0-0.1,0-0.2l0.8-1.5c0.1-0.2,0.3-0.4,0.5-0.5c0.2-0.1,0.4-0.2,0.6-0.2h3.2
	c0.2,0,0.4,0,0.6,0.1c0.2,0.1,0.3,0.2,0.4,0.4l1.2,1.5c0,0,0.1,0.1,0.1,0.2c0,0.1,0,0.1,0,0.2c0,0.1-0.1,0.1-0.1,0.1
	c-0.1,0-0.1,0.1-0.2,0.1l-6.9,0.1c-0.1,0-0.1,0-0.2,0C72.3,79.6,72.3,79.5,72.3,79.5z M77.9,77.9c-0.1-0.1-0.1-0.1-0.2-0.2
	c-0.1,0-0.2-0.1-0.3-0.1h-3.2c-0.1,0-0.2,0-0.3,0.1c-0.1,0.1-0.2,0.1-0.2,0.2l-0.6,1l5.6-0.1L77.9,77.9z"/>
<path class="st2" d="M96.3,79.6l-6.9-0.1c-0.1,0-0.1,0-0.2-0.1c-0.1,0-0.1-0.1-0.1-0.1c0-0.1,0-0.1,0-0.2c0-0.1,0-0.1,0.1-0.2
	l1.2-1.5c0.1-0.2,0.3-0.3,0.4-0.4c0.2-0.1,0.4-0.1,0.6-0.1h3.2c0.2,0,0.5,0.1,0.6,0.2c0.2,0.1,0.4,0.3,0.5,0.5l0.8,1.5
	c0,0,0,0.1,0,0.2s0,0.1,0,0.2c0,0-0.1,0.1-0.1,0.1C96.5,79.6,96.4,79.6,96.3,79.6L96.3,79.6z M91.5,77.7c-0.1,0-0.2,0-0.3,0.1
	c-0.1,0-0.2,0.1-0.2,0.2l-0.8,1l5.6,0.1l-0.6-1c-0.1-0.1-0.1-0.2-0.2-0.2c-0.1-0.1-0.2-0.1-0.3-0.1L91.5,77.7z"/>
<g class="st19">
	<path d="M72.3,79.5c0,0,0-0.1,0-0.2s0-0.1,0-0.2l0.8-1.5c0.1-0.2,0.3-0.4,0.5-0.5c0.2-0.1,0.4-0.2,0.6-0.2h3.2c0.2,0,0.4,0,0.6,0.1
		c0.2,0.1,0.3,0.2,0.4,0.4l1.2,1.5c0,0,0.1,0.1,0.1,0.2c0,0.1,0,0.1,0,0.2c0,0.1-0.1,0.1-0.1,0.1c-0.1,0-0.1,0.1-0.2,0.1l-6.9,0.1
		c-0.1,0-0.1,0-0.2,0C72.3,79.6,72.3,79.5,72.3,79.5z M77.9,77.9c-0.1-0.1-0.1-0.1-0.2-0.2c-0.1,0-0.2-0.1-0.3-0.1h-3.2
		c-0.1,0-0.2,0-0.3,0.1c-0.1,0.1-0.2,0.1-0.2,0.2l-0.6,1l5.6-0.1L77.9,77.9z"/>
</g>
<g class="st19">
	<path d="M96.3,79.6l-6.9-0.1c-0.1,0-0.1,0-0.2-0.1c-0.1,0-0.1-0.1-0.1-0.1c0-0.1,0-0.1,0-0.2c0-0.1,0-0.1,0.1-0.2l1.2-1.5
		c0.1-0.2,0.3-0.3,0.4-0.4c0.2-0.1,0.4-0.1,0.6-0.1h3.2c0.2,0,0.5,0.1,0.6,0.2c0.2,0.1,0.4,0.3,0.5,0.5l0.8,1.5c0,0,0,0.1,0,0.2
		s0,0.1,0,0.2c0,0-0.1,0.1-0.1,0.1C96.5,79.6,96.4,79.6,96.3,79.6L96.3,79.6z M91.5,77.7c-0.1,0-0.2,0-0.3,0.1
		c-0.1,0-0.2,0.1-0.2,0.2l-0.8,1l5.6,0.1l-0.6-1c-0.1-0.1-0.1-0.2-0.2-0.2c-0.1-0.1-0.2-0.1-0.3-0.1L91.5,77.7z"/>
</g>
<path class="st2" d="M67.8,79.5l2.6,10c0,0.1,0.1,0.3,0.2,0.3c0.1,0.1,0.2,0.1,0.4,0.1h26.1c0.1,0,0.3,0,0.4-0.1
	c0.1-0.1,0.2-0.2,0.2-0.3l2.6-10c0-0.1,0-0.2,0-0.2c0-0.1,0-0.1-0.1-0.2c0-0.1-0.1-0.1-0.2-0.1c-0.1,0-0.1-0.1-0.2-0.1H68.3
	c-0.1,0-0.2,0-0.2,0.1c-0.1,0-0.1,0.1-0.2,0.1c0,0.1-0.1,0.1-0.1,0.2C67.8,79.4,67.8,79.5,67.8,79.5z M95.3,88.4l2.2-8
	c0,0,0-0.1,0.1-0.1c0,0,0.1-0.1,0.1-0.1c0,0,0.1,0,0.1,0c0,0,0.1,0,0.1,0c0,0,0.1,0,0.1,0.1c0,0,0.1,0.1,0.1,0.1c0,0,0,0.1,0,0.1
	c0,0,0,0.1,0,0.1l-2.2,8c0,0.1-0.1,0.1-0.1,0.2c-0.1,0-0.1,0.1-0.2,0.1h-0.1c0,0-0.1,0-0.1-0.1c0,0-0.1-0.1-0.1-0.1c0,0,0-0.1,0-0.1
	C95.3,88.5,95.3,88.5,95.3,88.4z M93.4,88.4l2-8c0,0,0-0.1,0.1-0.1c0,0,0.1-0.1,0.1-0.1c0,0,0.1,0,0.1,0c0,0,0.1,0,0.1,0
	c0,0,0.1,0,0.1,0.1c0,0,0.1,0.1,0.1,0.1s0,0.1,0,0.1c0,0,0,0.1,0,0.1l-2,8c0,0.1-0.1,0.1-0.1,0.2c-0.1,0-0.1,0.1-0.2,0.1h-0.1
	c-0.1,0-0.2-0.1-0.2-0.1C93.3,88.6,93.3,88.5,93.4,88.4L93.4,88.4z M91.4,88.4l1.7-8c0-0.1,0.1-0.2,0.1-0.2c0.1,0,0.2-0.1,0.2,0
	s0.2,0.1,0.2,0.1c0,0.1,0.1,0.2,0,0.2l-1.7,8c0,0.1-0.1,0.1-0.1,0.2c-0.1,0-0.1,0.1-0.2,0.1c0,0,0,0-0.1,0c0,0-0.1,0-0.1,0
	c0,0-0.1-0.1-0.1-0.1c0,0,0-0.1,0-0.1C91.4,88.5,91.4,88.5,91.4,88.4L91.4,88.4z M89.4,88.4l1.5-8c0-0.1,0.1-0.2,0.1-0.2
	c0.1,0,0.2-0.1,0.2-0.1c0,0,0.1,0,0.1,0c0,0,0.1,0.1,0.1,0.1c0,0,0,0.1,0,0.1c0,0,0,0.1,0,0.1l-1.5,8c0,0.1-0.1,0.1-0.1,0.2
	c-0.1,0-0.1,0.1-0.2,0.1h-0.1c-0.1,0-0.1-0.1-0.2-0.1C89.4,88.6,89.4,88.5,89.4,88.4L89.4,88.4z M87.5,88.4l1.2-8
	c0-0.1,0.1-0.2,0.1-0.2c0.1-0.1,0.2-0.1,0.2-0.1s0.2,0.1,0.2,0.1c0.1,0.1,0.1,0.2,0.1,0.2l-1.2,8c0,0.1-0.1,0.1-0.1,0.2
	c-0.1,0-0.1,0.1-0.2,0.1h0c-0.1,0-0.1-0.1-0.2-0.1C87.5,88.6,87.5,88.5,87.5,88.4L87.5,88.4z M85.5,88.4l1-8c0,0,0-0.1,0-0.1
	c0,0,0-0.1,0.1-0.1c0,0,0.1,0,0.1-0.1c0,0,0.1,0,0.1,0c0,0,0.1,0,0.1,0c0,0,0.1,0,0.1,0.1c0,0,0,0.1,0.1,0.1c0,0,0,0.1,0,0.1l-1,8
	c0,0.1,0,0.1-0.1,0.2s-0.1,0.1-0.2,0.1h0c-0.1,0-0.1,0-0.2-0.1C85.5,88.6,85.5,88.5,85.5,88.4L85.5,88.4z M80.9,88.4l0.3-8
	c0-0.1,0-0.2,0.1-0.2c0.1-0.1,0.1-0.1,0.2-0.1c0.1,0,0.2,0,0.2,0.1c0.1,0.1,0.1,0.1,0.1,0.2l-0.3,8c0,0.1,0,0.2-0.1,0.2
	c-0.1,0.1-0.1,0.1-0.2,0.1c-0.1,0-0.2,0-0.2-0.1C80.9,88.6,80.9,88.6,80.9,88.4L80.9,88.4z M79,80.5c0-0.1,0-0.2,0.1-0.2
	c0.1-0.1,0.1-0.1,0.2-0.1c0.1,0,0.2,0,0.2,0.1c0.1,0.1,0.1,0.1,0.1,0.2l0.1,8c0,0.1,0,0.2-0.1,0.2c-0.1,0.1-0.1,0.1-0.2,0.1
	c-0.1,0-0.2,0-0.2-0.1c-0.1-0.1-0.1-0.1-0.1-0.2L79,80.5z M76.8,80.5c0-0.1,0-0.2,0.1-0.2c0.1-0.1,0.1-0.1,0.2-0.1
	c0.1,0,0.2,0,0.2,0.1c0.1,0.1,0.1,0.1,0.1,0.2l0.4,8c0,0,0,0.1,0,0.1c0,0,0,0.1-0.1,0.1c0,0-0.1,0.1-0.1,0.1c0,0-0.1,0-0.1,0h0
	c-0.1,0-0.2,0-0.2-0.1c-0.1-0.1-0.1-0.1-0.1-0.2L76.8,80.5z M74.6,80.5c0,0,0-0.1,0-0.1c0,0,0-0.1,0.1-0.1c0,0,0.1-0.1,0.1-0.1
	c0,0,0.1,0,0.1,0c0.1,0,0.2,0,0.2,0.1s0.1,0.1,0.1,0.2l0.8,8c0,0,0,0.1,0,0.1c0,0,0,0.1-0.1,0.1c0,0-0.1,0.1-0.1,0.1
	c0,0-0.1,0-0.1,0h0c-0.1,0-0.2,0-0.2-0.1c-0.1-0.1-0.1-0.1-0.1-0.2L74.6,80.5z M73.6,88.6l-1.2-8c0-0.1,0-0.2,0.1-0.2
	c0.1-0.1,0.1-0.1,0.2-0.1c0,0,0.1,0,0.1,0c0,0,0.1,0,0.1,0.1c0,0,0.1,0.1,0.1,0.1c0,0,0,0.1,0,0.1l1.2,8c0,0.1,0,0.2-0.1,0.2
	c-0.1,0.1-0.1,0.1-0.2,0.1h0c-0.1,0-0.2,0-0.2-0.1C73.6,88.7,73.6,88.6,73.6,88.6L73.6,88.6z M70.1,80.5c0,0,0-0.1,0-0.1
	s0-0.1,0-0.1c0,0,0.1-0.1,0.1-0.1c0,0,0.1,0,0.1,0c0,0,0.1,0,0.1,0c0,0,0.1,0,0.1,0c0,0,0.1,0.1,0.1,0.1c0,0,0,0.1,0,0.1l1.6,8
	c0,0,0,0.1,0,0.1c0,0,0,0.1,0,0.1c0,0-0.1,0.1-0.1,0.1c0,0-0.1,0-0.1,0h-0.1c-0.1,0-0.1,0-0.2-0.1c-0.1,0-0.1-0.1-0.1-0.2L70.1,80.5
	z"/>
<path class="st6" d="M67.8,79.5l2.6,10c0,0.1,0.1,0.3,0.2,0.3c0.1,0.1,0.2,0.1,0.4,0.1h11.6c0.2,0,0.3-0.1,0.4-0.2
	c0.1-0.1,0.2-0.2,0.2-0.4l1.1-9.9c0-0.1,0-0.1,0-0.2c0-0.1-0.1-0.1-0.1-0.2c0-0.1-0.1-0.1-0.2-0.1c-0.1,0-0.1,0-0.2,0H68.3
	c-0.1,0-0.2,0-0.2,0.1c-0.1,0-0.1,0.1-0.2,0.1c0,0.1-0.1,0.1-0.1,0.2C67.8,79.4,67.8,79.5,67.8,79.5z M80.9,88.5l0.3-8
	c0-0.1,0-0.2,0.1-0.2c0.1-0.1,0.1-0.1,0.2-0.1c0.1,0,0.2,0,0.2,0.1c0.1,0.1,0.1,0.1,0.1,0.2l-0.3,8c0,0.1,0,0.2-0.1,0.2
	c-0.1,0.1-0.1,0.1-0.2,0.1c0,0-0.1,0-0.1,0c0,0-0.1,0-0.1-0.1c0,0-0.1-0.1-0.1-0.1C80.9,88.6,80.9,88.5,80.9,88.5L80.9,88.5z
	 M79,80.5c0-0.1,0-0.2,0.1-0.2c0.1-0.1,0.1-0.1,0.2-0.1s0.2,0,0.2,0.1c0.1,0.1,0.1,0.1,0.1,0.2l0.1,8c0,0.1,0,0.2-0.1,0.2
	c-0.1,0.1-0.1,0.1-0.2,0.1c-0.1,0-0.2,0-0.2-0.1c-0.1-0.1-0.1-0.1-0.1-0.2L79,80.5z M76.8,80.5c0-0.1,0-0.2,0.1-0.2
	c0.1-0.1,0.1-0.1,0.2-0.1c0.1,0,0.2,0,0.2,0.1c0.1,0.1,0.1,0.1,0.1,0.2l0.4,8c0,0,0,0.1,0,0.1s0,0.1-0.1,0.1c0,0-0.1,0.1-0.1,0.1
	c0,0-0.1,0-0.1,0h0c-0.1,0-0.2,0-0.2-0.1c-0.1-0.1-0.1-0.1-0.1-0.2L76.8,80.5z M74.6,80.5c0,0,0-0.1,0-0.1c0,0,0-0.1,0.1-0.1
	c0,0,0.1-0.1,0.1-0.1c0,0,0.1,0,0.1,0c0.1,0,0.2,0,0.2,0.1c0.1,0.1,0.1,0.1,0.1,0.2l0.8,8c0,0,0,0.1,0,0.1c0,0,0,0.1-0.1,0.1
	c0,0-0.1,0.1-0.1,0.1c0,0-0.1,0-0.1,0h0c-0.1,0-0.2,0-0.2-0.1c-0.1-0.1-0.1-0.1-0.1-0.2L74.6,80.5z M73.6,88.6l-1.2-8
	c0-0.1,0-0.2,0.1-0.2c0.1-0.1,0.1-0.1,0.2-0.1c0,0,0.1,0,0.1,0c0,0,0.1,0,0.1,0.1c0,0,0.1,0.1,0.1,0.1c0,0,0,0.1,0,0.1l1.2,8
	c0,0.1,0,0.2-0.1,0.2c-0.1,0.1-0.1,0.1-0.2,0.1h0c-0.1,0-0.2,0-0.2-0.1C73.6,88.7,73.6,88.6,73.6,88.6L73.6,88.6z M70.1,80.5
	c0,0,0-0.1,0-0.1c0,0,0-0.1,0-0.1s0.1-0.1,0.1-0.1c0,0,0.1,0,0.1,0c0,0,0.1,0,0.1,0c0,0,0.1,0,0.1,0c0,0,0.1,0.1,0.1,0.1
	c0,0,0,0.1,0,0.1l1.6,8c0,0,0,0.1,0,0.1c0,0,0,0.1,0,0.1c0,0-0.1,0.1-0.1,0.1c0,0-0.1,0-0.1,0h-0.1c-0.1,0-0.1,0-0.2-0.1
	c-0.1,0-0.1-0.1-0.1-0.2L70.1,80.5z"/>
</svg>
