<?xml version="1.0" encoding="utf-8"?>
<!-- Generator: Adobe Illustrator 27.0.0, SVG Export Plug-In . SVG Version: 6.00 Build 0)  -->
<svg version="1.1" id="Calque_1" xmlns="http://www.w3.org/2000/svg" xmlns:xlink="http://www.w3.org/1999/xlink" x="0px" y="0px"
	 viewBox="0 0 160 100" style="enable-background:new 0 0 160 100;" xml:space="preserve">
<style type="text/css">
	.st0{fill:#1FBD8F;fill-opacity:0.1;}
	.st1{fill:#1FBD8F;filter:url(#Adobe_OpacityMaskFilter);}
	.st2{mask:url(#mask0_16640_49485_00000176743196339157997060000015149506940500069823_);}
	.st3{fill:#F5F5F5;}
	.st4{fill:#E0E0E0;}
	.st5{fill:#EBEBEB;}
	.st6{fill:#FAFAFA;}
	.st7{fill:#263238;}
	.st8{fill:#455A64;}
	.st9{fill:#1FBD8F;}
	.st10{opacity:0.3;enable-background:new    ;}
	.st11{fill:#FFBE9D;}
	.st12{fill:#EB996E;}
	.st13{opacity:0.3;}
	.st14{fill:#FFFFFF;}
	.st15{opacity:0.6;fill:#FFFFFF;enable-background:new    ;}
	.st16{opacity:0.6;}
	.st17{opacity:0.4;enable-background:new    ;}
	.st18{opacity:0.4;}
	.st19{opacity:0.2;}
</style>
<path class="st0" d="M-22.9-11.7h205.9c6.5,0,11.8,5.3,11.8,11.8v111.8c0,6.5-5.3,11.8-11.8,11.8H-22.9c-6.5,0-11.8-5.3-11.8-11.8
	V0.1C-34.7-6.4-29.4-11.7-22.9-11.7z"/>
<defs>
	<filter id="Adobe_OpacityMaskFilter" filterUnits="userSpaceOnUse" x="28.9" y="12" width="103.1" height="87.7">
		<feColorMatrix  type="matrix" values="1 0 0 0 0  0 1 0 0 0  0 0 1 0 0  0 0 0 1 0"/>
	</filter>
</defs>
<mask maskUnits="userSpaceOnUse" x="28.9" y="12" width="103.1" height="87.7" id="mask0_16640_49485_00000176743196339157997060000015149506940500069823_">
	<path class="st1" d="M150,10H10c-4.4,0-8,3.6-8,8v76c0,4.4,3.6,8,8,8h140c4.4,0,8-3.6,8-8V18C158,13.6,154.4,10,150,10z"/>
</mask>
<g class="st2">
	<path class="st3" d="M44,99.3c0.4-2.9,0-7.6,0.1-10.6c0.1-3,0.6-6.1,2.5-8.4c1.9-2.3,5.3-3.5,7.9-2c-0.6-4.1,2.6-8.3,6.7-8.8
		c1.4-0.2,2.9,0.1,4.3-0.1c2.7-0.4,4.9-2.3,7.4-3.5c5.9-2.9,13.7-0.9,17.5,4.4c2.4,3.2,3.4,7.6,6.8,9.8c2.6,1.7,6,1.6,9,2.4
		c7.2,2,11.8,9.5,10,16.7H44z"/>
	<path class="st4" d="M92,99.4c0-3.3-2.3-7-5.3-8.6c0,1.1,0.7,2,1.4,2.8c0.7,0.8,1.6,1.4,2.1,2.4C90.8,97.1,90.9,98.6,92,99.4"/>
	<path class="st4" d="M92.2,99.4c0.7-0.6,1.3-1.3,1.7-2.2c0.4-0.8,0.5-1.8,0.4-2.7C93.4,96.1,92.7,97.7,92.2,99.4"/>
	<path class="st3" d="M39.7,76.3c0.1-0.8-0.5-1.4-1.1-2c-0.6-0.5-1.4-0.8-2.2-0.8c-0.8,0-1.6,0-2.4,0.1c0.6,1.1,1.4,2.1,2.5,2.8
		c0.5,0.4,1,0.6,1.6,0.7c0.3,0,0.6,0,0.9-0.1C39.3,76.7,39.5,76.5,39.7,76.3z"/>
	<path class="st3" d="M43.2,66.9c0.7,0.3,1.5-0.1,2.2-0.5c0.6-0.5,1.1-1.1,1.4-1.9c0.3-0.8,0.4-1.5,0.5-2.3C46.1,62.4,45,63,44,63.8
		c-0.5,0.4-0.8,0.8-1.1,1.4c-0.1,0.3-0.1,0.6-0.1,0.9C42.9,66.4,43,66.6,43.2,66.9z"/>
	<path class="st3" d="M39.9,67.3c0.7-0.5,0.7-1.6,0.7-2.4c-0.1-0.8-0.4-1.6-0.9-2.2c-0.5-0.6-1.1-1.2-1.7-1.6
		c-0.4,1.2-0.5,2.5-0.2,3.7c0.1,0.6,0.3,1.2,0.7,1.6C38.8,66.9,39.3,67.4,39.9,67.3"/>
	<path class="st3" d="M42.7,55.8c0.7,0.3,1.5-0.1,2.2-0.5c0.6-0.5,1.1-1.1,1.4-1.9c0.3-0.8,0.4-1.5,0.5-2.3
		c-1.2,0.3-2.4,0.8-3.3,1.7c-0.5,0.4-0.8,0.8-1.1,1.4c-0.1,0.3-0.1,0.6-0.1,0.9C42.4,55.3,42.5,55.5,42.7,55.8"/>
	<path class="st3" d="M39.9,56.9c0.2-0.4,0.2-0.9,0.2-1.3c0-0.4-0.2-0.9-0.4-1.2c-0.7-1.1-2.2-1.6-2.7-2.8c-0.5,1.1-0.6,2.4-0.1,3.5
		c0.5,1.1,1.7,1.9,2.9,1.7"/>
	<path class="st4" d="M42,38.4c0,0,0,0.1,0,0.2c0,0.1,0,0.3,0,0.5c0,0.4-0.1,1-0.1,1.8c-0.1,1.5-0.3,3.8-0.4,6.5
		c-0.3,5.5-0.5,13.1-0.3,21.6c0.1,4.2,0.3,8.2,0.5,11.9c0.2,3.6,0.2,6.9,0.2,9.7c-0.1,2.8-0.2,5-0.4,6.5c0,0.4-0.1,0.7-0.1,1
		c0,0.3-0.1,0.5-0.1,0.7c0,0.2,0,0.4-0.1,0.5c0,0.1,0,0.2,0,0.2s0-0.1,0-0.2s0-0.3,0.1-0.5l0.1-0.7c0-0.3,0.1-0.6,0.1-1
		c0.2-1.5,0.3-3.8,0.4-6.5c0.1-2.8,0-6.1-0.1-9.7c-0.1-3.6-0.4-7.7-0.4-11.9c-0.2-8.4,0-16,0.3-21.6c0.1-2.8,0.3-5,0.4-6.5
		c0.1-0.8,0.1-1.4,0.1-1.8c0-0.2,0-0.4,0-0.5C42,38.4,42,38.4,42,38.4z"/>
	<path class="st4" d="M37.8,54.1c0,0,0.3,0.3,0.7,0.8c0.5,0.6,1,1.3,1.3,2.1c0.4,0.7,0.7,1.5,0.9,2.3c0.1,0.3,0.2,0.5,0.2,0.7
		c0,0.1,0,0.2,0.1,0.3c0-0.1,0-0.2,0-0.3c0-0.2-0.1-0.4-0.2-0.7c-0.2-0.8-0.5-1.6-0.9-2.3c-0.4-0.8-0.8-1.4-1.4-2.1
		c-0.2-0.2-0.4-0.4-0.5-0.5C38,54.2,37.9,54.1,37.8,54.1z"/>
	<path class="st3" d="M40,48.4c0.2-0.4,0.2-0.9,0.2-1.3c0-0.4-0.2-0.9-0.4-1.2c-0.7-1.1-2.2-1.6-2.7-2.8c-0.5,1.1-0.6,2.4-0.1,3.5
		c0.5,1.1,1.7,1.9,2.9,1.7"/>
	<path class="st4" d="M37.9,45.6c0,0,0.3,0.3,0.7,0.8c0.5,0.6,1,1.3,1.3,2.1c0.4,0.7,0.7,1.5,0.9,2.3c0.1,0.3,0.2,0.5,0.2,0.7
		c0,0.1,0.1,0.2,0.1,0.3c0-0.1,0-0.2,0-0.3c0-0.2-0.1-0.4-0.2-0.7c-0.2-0.8-0.5-1.6-0.9-2.3c-0.4-0.8-0.8-1.4-1.4-2.1
		c-0.2-0.2-0.4-0.4-0.5-0.5C38,45.7,38,45.6,37.9,45.6z"/>
	<path class="st3" d="M42.5,44.7c-0.1-0.4-0.1-0.9,0-1.3c0.1-0.4,0.3-0.8,0.6-1.2c0.9-1,2.4-1.2,3.1-2.4c0.3,1.2,0.2,2.5-0.4,3.5
		C45.1,44.4,43.7,45.1,42.5,44.7"/>
	<path class="st3" d="M40.1,38.7c0.3-0.8,0.3-1.7-0.2-2.4c-0.7-1.1-2.2-1.6-2.7-2.8c-0.5,1.1-0.6,2.4-0.1,3.5S38.9,38.9,40.1,38.7"
		/>
	<path class="st4" d="M41,58.4c0.1-0.1,0.1-0.2,0.2-0.3c0.1-0.2,0.2-0.4,0.4-0.7c1-1.5,2.1-2.9,3.4-4.2c0.3-0.2,0.5-0.4,0.6-0.6
		c0.1-0.1,0.2-0.1,0.2-0.2c-0.1,0.1-0.2,0.1-0.2,0.2c-0.2,0.1-0.4,0.3-0.6,0.5c-1.4,1.2-2.5,2.6-3.5,4.2c-0.2,0.3-0.3,0.6-0.4,0.7
		C41.1,58.2,41,58.3,41,58.4z"/>
	<path class="st4" d="M38.7,63.6c0,0.1,0,0.2,0,0.3c0,0.2,0.1,0.4,0.2,0.7c0.2,0.6,0.4,1.3,0.7,2.2c0.3,0.7,0.6,1.4,0.9,2.1
		c0.1,0.3,0.2,0.5,0.3,0.6c0,0.1,0.1,0.2,0.1,0.2c0-0.1-0.1-0.2-0.1-0.2l-0.3-0.6c-0.2-0.5-0.6-1.3-0.9-2.1
		c-0.3-0.8-0.6-1.6-0.7-2.2l-0.2-0.7C38.8,63.7,38.7,63.7,38.7,63.6z"/>
	<path class="st4" d="M41,69.7c0.1-0.1,0.1-0.1,0.2-0.2l0.4-0.6c0.5-0.6,0.9-1.2,1.5-1.8c0.5-0.6,1.1-1.1,1.6-1.7
		c0.2-0.2,0.4-0.3,0.5-0.5c0.1-0.1,0.1-0.1,0.2-0.2c-0.1,0-0.2,0.1-0.2,0.1c-0.1,0.1-0.3,0.3-0.6,0.4c-1.2,1-2.2,2.2-3.1,3.5
		c-0.2,0.3-0.3,0.5-0.4,0.6C41.1,69.6,41,69.6,41,69.7z"/>
	<path class="st4" d="M38.5,36.8c0,0,0.3,0.3,0.7,0.8c0.3,0.3,0.5,0.6,0.7,0.9c0.3,0.4,0.5,0.8,0.7,1.2c0.2,0.4,0.4,0.9,0.5,1.3
		c0.1,0.4,0.2,0.7,0.3,1.1c0.1,0.7,0.1,1.1,0.2,1.1c0-0.1,0-0.2,0-0.3c0-0.1,0-0.2,0-0.3c0-0.1,0-0.3-0.1-0.4
		c-0.1-0.4-0.1-0.8-0.3-1.1c-0.1-0.5-0.3-0.9-0.5-1.3c-0.2-0.4-0.5-0.8-0.7-1.2c-0.2-0.3-0.5-0.6-0.7-0.9c-0.1-0.1-0.2-0.2-0.3-0.3
		c-0.1-0.1-0.2-0.2-0.3-0.2C38.7,36.9,38.6,36.9,38.5,36.8z"/>
	<path class="st4" d="M44.7,42.5c-0.1,0.1-0.2,0.1-0.3,0.2c-0.1,0.1-0.2,0.2-0.3,0.2c-0.1,0.1-0.2,0.2-0.4,0.3
		c-0.3,0.3-0.6,0.6-0.8,1c-0.3,0.4-0.6,0.9-0.8,1.4c-0.2,0.5-0.4,1-0.6,1.5c-0.1,0.4-0.2,0.8-0.3,1.3c0,0.2,0,0.4,0,0.5
		c0,0.1,0,0.3,0,0.4c0,0.1,0,0.2,0,0.3c0-0.1,0-0.2,0-0.3c0-0.1,0-0.2,0-0.4c0-0.2,0-0.3,0.1-0.5c0.1-0.4,0.2-0.9,0.3-1.3
		c0.3-1,0.8-2,1.4-2.8c0.2-0.4,0.5-0.7,0.8-1c0.1-0.1,0.2-0.3,0.3-0.4c0.1-0.1,0.2-0.2,0.3-0.3C44.6,42.6,44.6,42.6,44.7,42.5z"/>
	<path class="st4" d="M37.3,74.7c0,0,0.3,0.2,0.8,0.6c1.3,1,2.3,2.2,3,3.6c0.3,0.6,0.4,0.9,0.4,0.9c0-0.1,0-0.2-0.1-0.3
		c-0.1-0.2-0.2-0.5-0.3-0.7c-0.3-0.7-0.8-1.4-1.3-2c-0.5-0.6-1.1-1.2-1.8-1.6c-0.2-0.1-0.4-0.3-0.6-0.4
		C37.5,74.8,37.4,74.7,37.3,74.7z"/>
	<path class="st3" d="M120.3,83.2c0.1-0.6-0.3-1-0.7-1.4c-0.4-0.4-1-0.6-1.5-0.7c-0.6-0.1-1.1-0.1-1.7,0c0.4,0.8,0.9,1.5,1.7,2.1
		c0.3,0.3,0.7,0.5,1.1,0.5c0.2,0,0.4,0,0.6-0.1C120,83.5,120.1,83.4,120.3,83.2"/>
	<path class="st3" d="M123.2,76.7c0.5,0.3,1.1,0,1.6-0.3c0.5-0.3,0.9-0.8,1.1-1.3c0.2-0.5,0.4-1.1,0.5-1.6c-0.9,0.1-1.7,0.5-2.4,1
		c-0.4,0.2-0.6,0.6-0.8,1c-0.1,0.2-0.1,0.4-0.1,0.6C123,76.3,123.1,76.5,123.2,76.7"/>
	<path class="st3" d="M120.8,76.8c0.5-0.3,0.6-1.1,0.6-1.7c0-0.6-0.2-1.1-0.6-1.6c-0.3-0.5-0.7-0.9-1.2-1.2
		c-0.3,0.8-0.4,1.7-0.3,2.6c0,0.4,0.2,0.8,0.4,1.2C120,76.5,120.4,76.9,120.8,76.8"/>
	<path class="st3" d="M123.3,68.7c0.5,0.3,1.1,0,1.6-0.3c0.5-0.3,0.9-0.8,1.1-1.3c0.2-0.5,0.4-1.1,0.5-1.6c-0.9,0.1-1.7,0.5-2.4,1
		c-0.4,0.2-0.6,0.6-0.8,1c-0.1,0.2-0.1,0.4-0.1,0.6C123.1,68.3,123.2,68.5,123.3,68.7"/>
	<path class="st3" d="M121.2,69.4c0.1-0.3,0.2-0.6,0.2-0.9c0-0.3-0.1-0.6-0.3-0.9c-0.5-0.8-1.5-1.2-1.8-2.1
		c-0.4,0.8-0.5,1.7-0.2,2.5C119.5,68.8,120.3,69.4,121.2,69.4"/>
	<path class="st4" d="M123.5,56.2c0,0,0,0,0,0.1c0,0.1,0,0.2-0.1,0.3c0,0.3-0.1,0.7-0.2,1.2c-0.1,1.1-0.4,2.7-0.6,4.6
		c-0.4,3.9-0.9,9.3-1.1,15.3c-0.1,3-0.1,5.8-0.2,8.4c0,2.6-0.1,4.9-0.3,6.9c-0.1,2-0.4,3.5-0.5,4.6c0,0.3-0.1,0.5-0.1,0.7
		c0,0.2-0.1,0.4-0.1,0.5c0,0.1,0,0.2-0.1,0.3c0,0,0,0.1,0,0.1c0,0,0,0,0-0.1c0-0.1,0-0.2,0.1-0.3c0-0.1,0.1-0.3,0.1-0.5
		c0-0.2,0.1-0.4,0.1-0.7c0.2-1.1,0.4-2.7,0.6-4.6c0.1-2,0.2-4.3,0.3-6.9c0-2.6,0.1-5.4,0.2-8.4c0.2-6,0.7-11.4,1.1-15.3
		c0.2-2,0.4-3.5,0.5-4.6c0.1-0.5,0.1-1,0.2-1.3c0-0.1,0-0.2,0-0.3C123.5,56.2,123.5,56.2,123.5,56.2z"/>
	<path class="st4" d="M119.8,67.3c0,0,0.2,0.2,0.4,0.6c0.3,0.5,0.6,1,0.9,1.5c0.2,0.6,0.4,1.1,0.5,1.7c0,0.2,0.1,0.5,0.2,0.7
		c0-0.1,0-0.1,0-0.2c0-0.1,0-0.3-0.1-0.5c-0.1-0.6-0.3-1.2-0.5-1.7c-0.2-0.6-0.5-1.1-0.9-1.6c-0.1-0.1-0.2-0.3-0.4-0.4
		C120,67.4,119.9,67.3,119.8,67.3z"/>
	<path class="st3" d="M121.7,63.3c0.1-0.3,0.2-0.6,0.2-0.9c0-0.3-0.1-0.6-0.3-0.9c-0.5-0.8-1.5-1.2-1.8-2.1
		c-0.4,0.8-0.5,1.7-0.2,2.5C119.9,62.7,120.7,63.3,121.7,63.3"/>
	<path class="st4" d="M120.3,61.2c0,0,0.2,0.2,0.4,0.6c0.3,0.5,0.6,1,0.9,1.5c0.2,0.5,0.4,1.1,0.5,1.7c0,0.2,0.1,0.5,0.2,0.7
		c0-0.1,0-0.1,0-0.2c0-0.1,0-0.3-0.1-0.5c-0.1-0.6-0.3-1.2-0.5-1.7c-0.2-0.6-0.5-1.1-0.9-1.5c-0.1-0.2-0.3-0.3-0.4-0.4
		C120.3,61.2,120.3,61.2,120.3,61.2z"/>
	<path class="st3" d="M123.6,60.8c-0.1-0.3,0-0.6,0.1-0.9s0.3-0.6,0.5-0.8c0.7-0.6,1.8-0.8,2.3-1.6c0.2,0.9,0,1.8-0.5,2.5
		C125.5,60.6,124.4,61.1,123.6,60.8z"/>
	<path class="st3" d="M122.1,56.4c0.1-0.3,0.2-0.6,0.2-0.9c0-0.3-0.1-0.6-0.2-0.9c-0.5-0.8-1.5-1.2-1.8-2.1
		c-0.4,0.8-0.5,1.7-0.2,2.5C120.4,55.8,121.3,56.4,122.1,56.4"/>
	<path class="st4" d="M121.9,70.5c0,0,0.2-0.3,0.5-0.7c0.4-0.5,0.8-1,1.2-1.5c0.4-0.5,0.9-0.9,1.4-1.3c0.4-0.3,0.6-0.5,0.6-0.5
		c-0.1,0-0.1,0.1-0.2,0.1c-0.1,0.1-0.3,0.2-0.5,0.3c-0.5,0.4-1,0.9-1.4,1.3c-0.4,0.5-0.8,1-1.2,1.5c-0.1,0.2-0.2,0.4-0.3,0.5
		C122,70.4,122,70.5,121.9,70.5z"/>
	<path class="st4" d="M120.1,74.1c0,0.2,0,0.4,0.1,0.7c0.1,0.5,0.2,1.1,0.4,1.6c0.2,0.5,0.4,1,0.6,1.5c0.1,0.2,0.2,0.4,0.3,0.6
		c-0.1-0.2-0.1-0.4-0.2-0.6c-0.1-0.4-0.3-0.9-0.5-1.5c-0.2-0.6-0.3-1.2-0.4-1.6C120.2,74.6,120.2,74.3,120.1,74.1z"/>
	<path class="st4" d="M121.5,78.6c0.2-0.2,0.3-0.3,0.4-0.5c0.3-0.3,0.7-0.8,1.1-1.2c0.5-0.5,0.9-0.9,1.2-1.1
		c0.2-0.1,0.4-0.3,0.5-0.4c-0.2,0.1-0.4,0.2-0.6,0.4c-0.4,0.3-0.9,0.7-1.3,1.1c-0.4,0.4-0.8,0.8-1.1,1.3
		C121.7,78.2,121.6,78.4,121.5,78.6z"/>
	<path class="st4" d="M121.1,54.9c0,0,0.2,0.2,0.5,0.6c0.8,1,1.2,2.2,1.4,3.4c0.1,0.5,0.1,0.8,0.1,0.8c0-0.1,0-0.1,0-0.2
		c0-0.2,0-0.4,0-0.6c-0.1-1.3-0.6-2.5-1.4-3.4c-0.1-0.1-0.3-0.3-0.4-0.4C121.1,55,121.1,54.9,121.1,54.9z"/>
	<path class="st4" d="M125.3,59.3c-0.1,0-0.1,0.1-0.2,0.1c-0.2,0.1-0.3,0.3-0.5,0.4c-0.2,0.2-0.4,0.4-0.6,0.7
		c-0.2,0.3-0.5,0.6-0.6,1c-0.2,0.3-0.3,0.7-0.5,1.1c-0.1,0.3-0.2,0.6-0.2,0.9c0,0.2-0.1,0.4-0.1,0.6c0,0.1,0,0.1,0,0.2
		c0,0,0-0.3,0.2-0.8c0.1-0.3,0.1-0.6,0.3-0.9c0.1-0.4,0.3-0.7,0.5-1c0.2-0.3,0.4-0.6,0.6-0.9c0.2-0.2,0.4-0.5,0.6-0.7
		C125,59.5,125.3,59.3,125.3,59.3z"/>
	<path class="st4" d="M118.6,82c0,0,0.2,0.2,0.6,0.4c0.9,0.7,1.6,1.7,2,2.7c0.2,0.4,0.3,0.7,0.3,0.7c0-0.1,0-0.1,0-0.2
		c0-0.2-0.1-0.3-0.2-0.5c-0.2-0.5-0.5-1.1-0.8-1.5c-0.3-0.5-0.8-0.9-1.2-1.2c-0.1-0.1-0.3-0.2-0.4-0.3C118.8,82.1,118.7,82,118.6,82
		z"/>
	<path class="st3" d="M126,20h-18.8c0,0,1.7-3,6.5-2.6c4.6,0.4,4.9-1.5,7.2-1.7C123.2,15.5,125.2,17.3,126,20z"/>
	<path class="st5" d="M108.4,32.4H86.9c0,0,1.9-3.5,7.4-3c5.3,0.5,5.6-1.7,8.2-2C105.3,27.2,107.5,29.3,108.4,32.4z"/>
	<path class="st3" d="M51,17.2H37.6c0,0,1.2-2.1,4.6-1.8c3.3,0.3,3.4-1.1,5.1-1.2C49,14,50.4,15.3,51,17.2z"/>
	<path class="st6" d="M96.1,15.1H82.8c0,0,1.2-2.1,4.6-1.8c3.3,0.3,3.4-1.1,5.1-1.2C94.2,11.8,95.6,13.1,96.1,15.1z"/>
	<path class="st4" d="M91.3,99.4c-0.4-1.3-1.2-2.4-2.3-3.1s-2.4-1.1-3.7-1.1c0.2,0.8,0.9,1.5,1.6,1.9c0.7,0.4,1.6,0.7,2.4,1
		C90,98.5,90.7,98.9,91.3,99.4z"/>
	<path class="st7" d="M29.8,99.4c0,0,22.9,0.1,51.1,0.1c28.2,0,51.1,0,51.1-0.1c0,0-22.9-0.1-51.1-0.1
		C52.7,99.3,29.8,99.4,29.8,99.4z"/>
	<path class="st8" d="M126.9,99.4c2.1-2.4,3.1-6.1,2.5-9.3C127.7,92.9,126.9,96.1,126.9,99.4z"/>
	<path class="st8" d="M125.8,99.4c0.3-1.2,0.5-2.5,0.5-3.8c0-0.6-0.1-1.3-0.3-1.9c-0.4-0.8-1.2-1.3-2-1.7c-0.8-0.4-1.7-0.7-2.4-1.3
		c0.3,1,1,1.9,1.9,2.5c0.4,0.3,1,0.6,1.2,1c0.3,0.6,0.1,1.3,0.1,1.9C124.7,97.3,125.1,98.5,125.8,99.4z"/>
	<path class="st7" d="M128.2,99.4c0.3-0.8,0.9-1.6,1.5-2.3c0.7-0.6,1.4-1.1,2.3-1.5C131.1,97.2,129.7,98.4,128.2,99.4z"/>
	<path class="st9" d="M36,99.4c0.6-4.6,0.1-9.3-1.4-13.7C33.8,90.3,34.3,95.1,36,99.4z"/>
	<path class="st9" d="M34.7,99.4c0-3.7-2.6-7.6-5.8-9.4c0,1.2,0.7,2.2,1.5,3c0.8,0.8,1.8,1.6,2.3,2.6C33.4,96.9,33.5,98.5,34.7,99.4
		"/>
	<path class="st9" d="M37.3,99.4c1.1-0.8,1.9-1.8,2.5-3s0.8-2.5,0.6-3.8C39.2,94.8,38.1,97.1,37.3,99.4z"/>
	<path class="st8" d="M59.4,99.4c0.4-3.2,0.1-6.5-1-9.5C57.9,93.1,58.2,96.4,59.4,99.4z"/>
	<path class="st8" d="M59,99.3c-0.3-0.8-0.7-1.8-1.2-2.4c-0.5-0.6-1.3-1.1-2.1-1c-0.8,0.1-1.4,0.7-1.9,1.3c0,0-0.1,0.1-0.1,0.1
		c0,0.1,0.1,0.1,0.2,0.2c0.8,0.2,1.6-0.4,2.4-0.3c0.5,0.1,1,0.4,1.4,0.8C58,98.2,58.6,99.1,59,99.3"/>
	<path class="st9" d="M93.4,54c0.3-0.6,1.1-0.9,1.6-1c0.4-0.1,0.7-0.1,1.1,0c0.2,0.1,0.3,0.3,0.4,0.5c0.1,0.2,0.1,0.4,0.1,0.6
		c0,0.4-0.2,0.8-0.6,1.1c-0.3,0.3-0.7,0.6-1,0.8c0.2,0,0.3,0.1,0.4,0.1c0.1,0.1,0.2,0.2,0.3,0.3c0,0.1,0.1,0.1,0.1,0.2
		c0,0.1,0,0.2,0,0.2c0,0.1-0.1,0.1-0.1,0.2c-0.1,0.1-0.1,0.1-0.2,0.1c-0.1,0.1-0.3,0.1-0.4,0.1c-1.2,0.1-2.4-0.2-3.5-0.4
		c0-0.3,0-0.5-0.1-0.8c-0.2-0.6-0.2-1.2,0-1.8c0.1-0.3,0.2-0.6,0.5-0.8c0.2-0.2,0.5-0.4,0.8-0.5c0.1,0,0.2,0,0.3,0
		c0.1,0,0.2,0.1,0.3,0.1c0.1,0.1,0.1,0.1,0.1,0.2c0,0.1,0,0.1,0,0.2C93.5,53.7,93.4,53.9,93.4,54"/>
	<path class="st9" d="M91.9,50.6c0.3-0.1,0.6,0,0.9,0.1c0.1,0.1,0.2,0.2,0.3,0.3c0.1,0.1,0.1,0.3,0.1,0.4c0,0.1,0,0.3-0.1,0.4
		c-0.1,0.1-0.1,0.2-0.2,0.3c-0.2,0.2-0.4,0.3-0.7,0.4l-2.8,1.3c-0.6-0.6-1.1-1.3-1.6-2c-0.3-0.4-0.5-1-0.3-1.5
		c0.2-0.5,0.9-0.7,1.5-0.5c0.1-0.5,0.3-1,0.6-1.4c0.2-0.2,0.4-0.4,0.6-0.5c0.2-0.1,0.5-0.2,0.7-0.2c0.3,0,0.5,0,0.8,0.1
		c0.2,0.1,0.4,0.3,0.6,0.5c0.2,0.4,0.2,0.8,0.2,1.2c-0.1,0.4-0.2,0.8-0.4,1.2"/>
	<path class="st9" d="M86.7,59.9c0.1-0.8,0.2-1.6,0-2.4c-0.1-0.3-0.2-0.6-0.4-0.9c-0.1-0.1-0.3-0.2-0.4-0.3c-0.2-0.1-0.3-0.1-0.5,0
		c-0.2,0-0.3,0.2-0.4,0.3c-0.1,0.1-0.1,0.3-0.1,0.5c-0.7-0.5-1.5-0.8-2.3-1c-0.2-0.1-0.5-0.1-0.7,0.1c-0.2,0.2-0.2,0.5-0.2,0.8
		c0.1,0.8,0.5,1.5,1.2,2c-0.1,0-0.2,0-0.2,0.1c-0.1,0-0.1,0.1-0.2,0.2c0,0.1-0.1,0.2-0.1,0.2c0,0.1,0,0.2,0,0.3
		c0.1,0.2,0.1,0.3,0.3,0.4c0.1,0.1,0.3,0.2,0.5,0.2c0.3,0.1,0.7,0.1,1,0C85,60.2,85.8,60,86.7,59.9"/>
	<path class="st7" d="M89.5,68.2C89.5,68.1,89.5,68.1,89.5,68.2c0-0.1,0-0.1,0-0.2c0-0.1,0-0.3,0-0.6c0-0.5-0.1-1.2-0.2-2.1
		c-0.1-0.9-0.1-2-0.2-3.2c-0.1-1.2-0.1-2.5-0.1-3.9c0-1.3,0.1-2.6,0.3-3.8c0.2-1.2,0.4-2.2,0.6-3.1c0.2-0.9,0.4-1.6,0.6-2
		c0.1-0.2,0.2-0.4,0.2-0.5c0-0.1,0-0.1,0.1-0.1c0,0,0,0,0-0.1l0,0l-0.1,0.1c-0.1,0.1-0.1,0.3-0.2,0.5c-0.2,0.7-0.5,1.3-0.6,2
		c-0.2,0.9-0.4,1.9-0.6,3.1c-0.2,1.3-0.3,2.6-0.4,3.9c0,1.4,0,2.7,0.1,3.9c0.1,1.2,0.1,2.3,0.2,3.2c0.1,0.9,0.1,1.6,0.2,2.1
		c0,0.2,0,0.4,0.1,0.6C89.5,68,89.5,68.1,89.5,68.2C89.5,68.1,89.5,68.1,89.5,68.2z"/>
	<path class="st7" d="M82.8,57.2c0.1,0.1,0.1,0.1,0.2,0.2c0.1,0.1,0.3,0.3,0.6,0.5c1.4,1.1,2.9,2,4.5,2.8c0.3,0.1,0.6,0.2,0.7,0.3
		c0.1,0,0.2,0.1,0.3,0.1C89,61,88.9,61,88.8,61c-0.2-0.1-0.4-0.2-0.7-0.3c-0.8-0.4-1.6-0.8-2.3-1.2c-0.7-0.5-1.5-1-2.2-1.5
		c-0.3-0.2-0.5-0.4-0.6-0.5C82.9,57.3,82.8,57.3,82.8,57.2z"/>
	<path class="st7" d="M85.4,56.3c0,0.1,0,0.2,0,0.2c0,0.2,0,0.4,0,0.7c0,0.6,0.1,1.4,0.2,2.2l0.1-0.1h-0.1c-0.9,0-1.7,0-2.3,0.1
		l-0.7,0c-0.1,0-0.2,0-0.3,0c0.1,0,0.2,0,0.3,0h0.7c0.6,0,1.4,0,2.3,0h0.2v-0.1c-0.1-0.9-0.2-1.7-0.2-2.2c0-0.3-0.1-0.5-0.1-0.7
		C85.5,56.4,85.4,56.4,85.4,56.3z"/>
	<path class="st7" d="M82.2,58.2c0.2,0,0.4,0.1,0.6,0.1c0.3,0,0.8,0.1,1.3,0.1h0h0.1l0-0.1c-0.1-0.5-0.2-1-0.2-1.3
		c0-0.2-0.1-0.4-0.1-0.5c0,0.2,0,0.4,0.1,0.6c0,0.3,0.1,0.8,0.2,1.3l0.1-0.1h0c-0.5,0-1-0.1-1.4-0.1C82.6,58.2,82.4,58.2,82.2,58.2z
		"/>
	<path class="st9" d="M87.2,55.6c-0.4-0.4-0.4-0.9-0.4-1.5c0-0.5,0.2-1,0.1-1.6c0-0.2-0.1-0.4-0.2-0.6c-0.1-0.1-0.1-0.2-0.2-0.2
		c-0.1-0.1-0.2-0.1-0.3-0.1c-0.1,0-0.2,0-0.3,0c-0.1,0-0.2,0.1-0.3,0.1c-0.1,0.1-0.1,0.1-0.2,0.2c0,0.1-0.1,0.2-0.1,0.3
		c-0.4-0.6-1-1-1.6-1.1c-0.1,0-0.3-0.1-0.4-0.1c-0.1,0-0.3,0-0.4,0.1c-0.3,0.2-0.4,0.6-0.4,0.9c0,0.3,0.1,0.6,0.2,0.9
		c0.1,0.3,0.3,0.6,0.6,0.8c-0.2,0.1-0.3,0.3-0.4,0.5c-0.1,0.2-0.1,0.5,0,0.7c0.1,0.2,0.3,0.4,0.5,0.5c0.2,0.1,0.4,0.2,0.6,0.2
		c0.4,0.1,0.9-0.1,1.4-0.1C86,55.6,86.7,55.6,87.2,55.6"/>
	<path class="st7" d="M83.7,52.3c0,0.1,0.1,0.2,0.1,0.2c0.1,0.2,0.2,0.4,0.4,0.6c1,1.3,2.4,2.4,3.9,3c0.3,0.1,0.5,0.2,0.7,0.3
		c0.1,0,0.2,0.1,0.3,0.1c0,0-0.4-0.2-0.9-0.4c-1.5-0.7-2.8-1.8-3.9-3C83.9,52.6,83.7,52.3,83.7,52.3z"/>
	<path class="st7" d="M83.1,54.9c0.1,0,0.2,0,0.2,0l0.7,0c0.6,0,1.3,0,2.2,0h0.1v-0.1l0-0.2c-0.1-0.9-0.1-1.7-0.1-2.3
		c0-0.3,0-0.5,0-0.7c0-0.1,0-0.2,0-0.3c0,0.1,0,0.2,0,0.3c0,0.2,0,0.4-0.1,0.7c0,0.8,0,1.5,0,2.3c0,0.1,0,0.1,0,0.2l0.1-0.1
		c-0.9,0-1.6,0-2.2,0l-0.7,0C83.2,54.9,83.2,54.9,83.1,54.9z"/>
	<path class="st7" d="M82.8,53c0.2,0.1,0.3,0.2,0.5,0.2c0.3,0.1,0.8,0.2,1.3,0.4l0.1,0v-0.1v-0.1c0-0.5,0-1-0.1-1.4
		c0-0.2,0-0.4-0.1-0.6c0,0.2,0,0.4,0,0.6c0,0.4,0,0.9,0,1.4v0.1l0.1-0.1c-0.5-0.2-0.9-0.3-1.3-0.4C83.1,53,83,53,82.8,53z"/>
	<path class="st9" d="M91.1,62l0.3-1.8c0-0.4,0.2-0.8,0.4-1.2c0.1-0.2,0.3-0.3,0.4-0.4c0.2-0.1,0.4-0.1,0.6-0.1
		c0.1,0,0.2,0.1,0.3,0.1c0.1,0.1,0.2,0.1,0.2,0.2c0.1,0.1,0.1,0.2,0.1,0.3c0,0.1,0,0.2,0,0.3c0.4-0.4,0.9-0.6,1.4-0.6
		c0.5,0,1.1,0.1,1.3,0.6c0.2,0.5,0,0.9-0.3,1.3c-0.4,0.3-0.8,0.5-1.2,0.7c0.2,0.2,0.3,0.3,0.4,0.5c0.1,0.1,0.1,0.2,0.1,0.3
		c0,0.1,0,0.2,0,0.3c0,0.1-0.1,0.2-0.2,0.3c-0.1,0.1-0.2,0.1-0.3,0.2c-0.2,0.1-0.5,0.1-0.7,0C92.9,63,92,62.5,91.1,62"/>
	<path class="st7" d="M94.2,53.3c0,0.1,0,0.3,0,0.4c0,0.3,0,0.7,0.1,1.1v0h0l0.1,0c0.5,0.1,0.9,0.1,1.2,0.2c0.2,0,0.3,0,0.5,0
		C96,55.1,95.8,55,95.7,55c-0.3-0.1-0.7-0.1-1.2-0.2l-0.1,0l0,0.1c0-0.4-0.1-0.8-0.1-1.1C94.3,53.5,94.3,53.4,94.2,53.3z"/>
	<path class="st7" d="M93,53c0,0.1,0,0.2,0,0.2c0,0.2-0.1,0.4-0.1,0.7c-0.1,0.6-0.2,1.3-0.3,2.2v0.1l0.1,0l0.1,0
		c0.9,0.2,1.7,0.3,2.2,0.4l0.7,0.1c0.1,0,0.2,0,0.3,0c-0.1,0-0.2-0.1-0.2-0.1L95,56.6c-0.6-0.1-1.4-0.3-2.2-0.5l-0.1,0l0,0.1
		c0.1-0.9,0.2-1.6,0.2-2.2c0-0.3,0-0.5,0.1-0.7C93,53.2,93,53.1,93,53z"/>
	<path class="st7" d="M89,59.7c0.1-0.1,0.2-0.2,0.2-0.3c0.1-0.2,0.3-0.4,0.6-0.7c0.7-0.7,1.4-1.5,2.2-2.1c0.9-0.8,1.8-1.5,2.4-1.9
		c0.3-0.2,0.6-0.4,0.8-0.5c0.1-0.1,0.2-0.1,0.3-0.2c-0.1,0-0.2,0.1-0.3,0.2c-0.2,0.1-0.5,0.3-0.8,0.5c-0.9,0.6-1.7,1.2-2.5,1.9
		c-0.8,0.7-1.5,1.4-2.2,2.1c-0.3,0.3-0.5,0.6-0.6,0.7C89.1,59.5,89.1,59.6,89,59.7z"/>
	<path class="st7" d="M89.2,63.5c0.1,0,0.2-0.1,0.2-0.2l0.6-0.4c0.5-0.4,1.3-0.9,2.1-1.4c0.9-0.5,1.6-1,2.2-1.3l0.7-0.4
		c0.1,0,0.2-0.1,0.2-0.2c-0.1,0-0.2,0.1-0.3,0.1l-0.7,0.4c-0.6,0.3-1.4,0.8-2.2,1.3c-0.9,0.5-1.6,1-2.1,1.4
		c-0.3,0.2-0.5,0.4-0.6,0.5C89.3,63.3,89.3,63.4,89.2,63.5z"/>
	<path class="st7" d="M94.3,59.1C94.2,59.5,94,60,94,60.4v0.1l0.1,0l0.2,0c0.4,0.1,0.8,0.1,1.1,0.2c0.2,0,0.3,0,0.5,0
		c-0.1-0.1-0.3-0.1-0.4-0.1c-0.3-0.1-0.7-0.1-1.1-0.2l-0.2,0l0,0.1C94.2,60,94.3,59.5,94.3,59.1z"/>
	<path class="st7" d="M92.8,58.5c0,0.1,0,0.1-0.1,0.2c0,0.1-0.1,0.3-0.1,0.6c-0.1,0.5-0.2,1.2-0.4,2v0l0,0l0.1,0
		c0.7,0.4,1.4,0.7,1.9,0.9c0.2,0.1,0.4,0.2,0.6,0.3c0.1,0,0.1,0.1,0.2,0.1c-0.1-0.1-0.1-0.1-0.2-0.1c-0.1-0.1-0.3-0.2-0.6-0.3
		c-0.5-0.3-1.1-0.6-1.9-1l-0.1,0l0,0.1c0.1-0.8,0.2-1.5,0.3-2c0-0.3,0.1-0.5,0.1-0.6C92.8,58.7,92.8,58.6,92.8,58.5z"/>
	<path class="st7" d="M89.5,48.3c0,0.2,0.1,0.4,0.2,0.6c0.1,0.3,0.3,0.8,0.5,1.4l0,0.1l0.1,0l0.2-0.1c0.6-0.3,1.1-0.6,1.4-0.8
		c0.2-0.1,0.4-0.2,0.6-0.4c-0.2,0.1-0.4,0.2-0.6,0.3c-0.4,0.2-0.9,0.4-1.4,0.8l-0.2,0.1l0.1,0c-0.2-0.5-0.4-1-0.5-1.4
		C89.7,48.7,89.6,48.5,89.5,48.3z"/>
	<path class="st7" d="M87.8,49.9c0,0.1,0.1,0.1,0.1,0.2l0.4,0.5c0.3,0.5,0.8,1.1,1.4,1.8l0,0h0l0.2-0.1c0.9-0.3,1.7-0.5,2.3-0.7
		l0.7-0.2c0.1,0,0.2-0.1,0.3-0.1c-0.1,0-0.2,0-0.3,0.1l-0.7,0.2c-0.6,0.2-1.4,0.4-2.3,0.6l-0.2,0.1l0.1,0c-0.5-0.7-1-1.3-1.4-1.8
		c-0.2-0.2-0.3-0.4-0.4-0.5C87.9,50,87.8,49.9,87.8,49.9z"/>
	<path class="st3" d="M109.2,70.5c1.4,0.7,2.8,1.6,4,2.6c0.2,0.2,0.4,0.4,0.6,0.6c0.1,0.1,0.1,0.3,0.1,0.4c0,0.1,0,0.3-0.1,0.4
		c-0.2,0.4-0.7,0.5-1.2,0.4c-0.4,0-0.9-0.1-1.3,0.1c0.1,0,0.2,0.1,0.2,0.1s0.1,0.1,0.1,0.2c0,0.1,0,0.2,0,0.3c0,0.1-0.1,0.2-0.1,0.2
		c0.1,0,0.1-0.1,0.2-0.1c0.1,0,0.2,0,0.2,0c0.1,0,0.1,0.1,0.2,0.1c0.1,0.1,0.1,0.1,0.1,0.2c0.6,0.1,1.2,0.4,1.6,0.8
		c0.5,0.4,0.8,0.9,0.9,1.5c0.2,0.6,0.2,1.2,0,1.8c-0.2,0.6-0.5,1.1-1,1.5l-10.3-3.1l-2.2-0.6c-0.6-0.6-0.8-1.7-0.6-2.5
		c0.2-0.8,0.7-1.5,1.4-2c0.8-0.6,1.7-1,2.2-1.8c0.4-0.7,0.4-1.6,0.4-2.4c1.8,0.1,3.5,0.6,5.1,1.5"/>
	<path class="st7" d="M109.6,76.2C109.7,76.2,109.7,76.2,109.6,76.2c0.2,0.1,0.2,0.1,0.3,0.1c0.3,0.1,0.5,0.1,0.8,0
		c0.3,0,0.5-0.1,0.8-0.3c0.1,0,0.1-0.1,0.2-0.1c0,0,0.1-0.1,0.1-0.1s-0.1,0.1-0.3,0.2c-0.5,0.3-1,0.3-1.6,0.2
		C109.8,76.2,109.6,76.2,109.6,76.2z"/>
	<path class="st4" d="M111.5,75c-0.2,0.2-0.4,0.2-0.7,0.3c-0.3,0-0.5,0-0.7-0.1c-0.7-0.3-1.1-1.1-1.8-1.5c-0.1,0-0.2-0.1-0.2-0.1
		c-0.1,0-0.2,0-0.3,0c-0.1,0-0.2,0.1-0.2,0.2c0,0.1-0.1,0.2,0,0.3c0,0.3,0.3,0.5,0.6,0.7c0.7,0.5,1.3,0.8,2.1,0.7
		C110.6,75.6,111.2,75.4,111.5,75z"/>
	<path class="st7" d="M106,73.1C106,73.1,106,73.1,106,73.1l0.2,0.2l0.5,0.4l0.8,0.7c0.3,0.3,0.7,0.5,1,0.7c0.4,0.2,0.7,0.4,1.2,0.5
		c0.3,0.1,0.7,0,1,0c0.2-0.1,0.4-0.2,0.6-0.3c0,0,0.1-0.1,0.1-0.1c0,0,0,0,0-0.1c0,0-0.1,0.1-0.2,0.2c-0.2,0.1-0.4,0.2-0.6,0.3
		c-0.3,0.1-0.7,0.1-1,0c-0.4-0.1-0.8-0.2-1.1-0.5c-0.4-0.2-0.7-0.5-1-0.7c-0.3-0.2-0.6-0.4-0.8-0.6l-0.5-0.4L106,73.1L106,73.1z"/>
	<path class="st4" d="M111.7,75.9c-0.3,0.3-0.6,0.5-0.9,0.6c-0.3,0.2-0.7,0.2-1.1,0.1c-0.1,0-0.3-0.1-0.3-0.2c0,0,0-0.1,0-0.1
		c0,0,0-0.1,0-0.1c0,0,0-0.1,0-0.1c0,0,0-0.1,0.1-0.1c0.1-0.1,0.2,0,0.4,0c0.3,0.1,0.7,0.2,1,0.1C111.1,76.3,111.4,76.2,111.7,75.9"
		/>
	<path class="st4" d="M112.5,76.2c-0.1,0.4-0.2,0.8-0.5,1.2c-0.2,0.3-0.6,0.6-0.9,0.8c-0.8,0.4-1.6,0.5-2.5,0.3
		c-0.2-0.1-0.5-0.2-0.6-0.3c-0.1-0.1-0.2-0.2-0.2-0.3c-0.1-0.1-0.1-0.2-0.1-0.3c0-0.1,0-0.2,0.1-0.3c0-0.1,0.1-0.1,0.2-0.2
		c0,0,1.3,0.8,2.8,0.5C112.2,77.3,112.5,76.2,112.5,76.2z"/>
	<path class="st7" d="M107.3,76.9C107.3,76.9,107.4,76.9,107.3,76.9l0.2,0.1c0.1,0.1,0.3,0.2,0.6,0.3c0.6,0.3,1.3,0.4,2,0.4
		c0.7,0,1.4-0.3,1.9-0.8c0.2-0.2,0.3-0.3,0.4-0.5c0-0.1,0.1-0.1,0.1-0.2c-0.1,0.3-0.3,0.5-0.5,0.7c-0.5,0.5-1.2,0.8-1.9,0.8
		c-0.7,0-1.4-0.1-2-0.4c-0.2-0.1-0.4-0.2-0.6-0.3L107.3,76.9L107.3,76.9z"/>
	<path class="st4" d="M113.3,74.4c0.8-0.2-0.8-1.4-1.4-1.9c-0.6-0.5-1.2-1-1.9-1.4c-0.7-0.4-1.5-0.7-2.2-1c-0.6-0.2-1.3-0.3-1.9-0.1
		c0,0,2.6,2.7,3.4,3.2C110.1,73.8,111.5,74.8,113.3,74.4z"/>
	<path class="st9" d="M106.5,70.6c0.1-0.3,0.4-0.6,0.6-0.8c0.3-0.2,0.5-0.4,0.9-0.5c0.3-0.1,0.7-0.1,1,0c0.3,0.1,0.6,0.2,0.9,0.5
		c0.2,0.2,0.4,0.6,0.4,0.9c0,0.3-0.1,0.7-0.3,1c0.2,0,0.4,0.1,0.6,0.2c0.2,0.1,0.3,0.3,0.4,0.4c0.1,0.2,0.2,0.4,0.2,0.6
		c0,0.2,0,0.4-0.1,0.6c0.3,0,0.6,0.1,0.8,0.3c0.2,0.2,0.4,0.4,0.4,0.7c-0.8,0-1.6-0.3-2.3-0.7c-0.5-0.3-0.9-0.6-1.3-0.9
		C108,72.2,107.2,71.4,106.5,70.6z"/>
	<path class="st7" d="M105.4,69.6L105.4,69.6l0.3,0.3c0.2,0.2,0.5,0.4,0.8,0.7l1.1,1.2c0.5,0.5,0.9,0.9,1.4,1.3
		c0.5,0.4,1.1,0.8,1.7,1c0.5,0.2,1,0.3,1.6,0.4c0.4,0,0.7,0,1.1-0.1c0.1,0,0.3-0.1,0.4-0.1c0,0,0,0-0.1,0c-0.1,0-0.2,0-0.3,0.1
		c-0.4,0.1-0.7,0.1-1.1,0.1c-0.5,0-1.1-0.2-1.6-0.4c-0.6-0.3-1.2-0.6-1.7-1c-0.5-0.4-1-0.9-1.4-1.3c-0.4-0.4-0.8-0.8-1.1-1.1
		c-0.3-0.3-0.6-0.6-0.8-0.7S105.4,69.6,105.4,69.6z"/>
	<path class="st8" d="M103.3,62.4c0,0-0.7,4.9-3.7,7.7l-0.5-0.2c0,0,3.7-3.8,3.9-7.6"/>
	<path class="st7" d="M113.3,54c0.6,0.5,1.1,1.2,1.3,2c0.2,0.8,0.1,1.6-0.3,2.4c-0.6-0.7-1.3-1.4-2-2c-0.7-0.6-1.6-1-2.5-1.2
		c-0.5-0.1-1.1-0.2-1.3-0.6c0-0.1,0-0.3,0-0.4c0-0.1,0.1-0.3,0.2-0.3c0.2-0.2,0.5-0.3,0.8-0.4c0.7-0.2,1.4-0.2,2.1,0
		c0.7,0.1,1.4,0.4,1.9,0.9"/>
	<path class="st8" d="M103,62.3c0.3-2.2-0.1-4.8,0.2-7c0.2-1,0.7-1.8,1.5-2.4c0.8-0.6,1.7-1,2.6-1.2c0.5-0.1,1-0.2,1.4,0.1
		c0.4,0.2,0.7,0.8,0.4,1.2c0.8-0.2,1.5-0.2,2.3,0c0.8,0.2,1.4,0.6,2,1.1c-1-0.5-2.5-0.1-3.3,0.6c-0.9,0.8-1.4,1.9-1.9,2.9l-4.9,5
		L103,62.3z"/>
	<path class="st7" d="M103.3,61.8c0,0,0,0,0-0.1c0-0.1,0.1-0.2,0.1-0.3c0.1-0.3,0.2-0.6,0.4-1.1c0.4-0.9,1-2.2,1.7-3.5
		c0.3-0.6,0.7-1.3,1.1-1.8c0.4-0.5,0.8-0.9,1.2-1.2c0.3-0.2,0.7-0.4,1-0.6c0.1-0.1,0.2-0.1,0.3-0.1c0,0,0.1,0,0.1,0l-0.1,0
		c-0.1,0-0.2,0.1-0.3,0.1c-0.4,0.2-0.7,0.3-1,0.6c-0.5,0.3-0.9,0.8-1.3,1.2c-0.4,0.6-0.8,1.2-1.1,1.8c-0.7,1.4-1.3,2.6-1.7,3.5
		c-0.2,0.5-0.3,0.8-0.4,1.1C103.3,61.6,103.3,61.8,103.3,61.8z"/>
	<path class="st8" d="M103.3,61.4c-0.3,0.6-1,0.8-1.6,0.6c-0.6-0.2-1-0.7-1.4-1.2c-0.3-0.5-0.6-1.1-0.9-1.6c-0.6-1-1.6-1.8-2.5-2.5
		c-0.6-0.4-1.1-0.9-1.8-1.1s-1.5-0.2-2,0.3c0-0.6,0.4-1.1,0.9-1.4c0.5-0.2,1.1-0.3,1.7-0.3c1.6,0,3.3,0.3,4.7,1.1
		c1.4,0.8,2.5,2.2,2.8,3.8L103.3,61.4z"/>
	<path class="st7" d="M93.2,55.4c0,0,0,0,0.1-0.1c0.1-0.1,0.2-0.2,0.3-0.3c0.4-0.3,0.9-0.5,1.4-0.6c0.7-0.1,1.5,0,2.2,0.2
		c0.9,0.2,1.8,0.6,2.5,1.1c0.8,0.5,1.5,1.1,2,1.9c0.5,0.6,0.8,1.3,1,2c0.2,0.5,0.2,1,0.3,1.5c0,0.2,0,0.3,0,0.4c0,0.1,0,0.1,0,0.1
		s0,0,0-0.1c0-0.1,0-0.2,0-0.4c0-0.5-0.1-1-0.3-1.5c-0.2-0.7-0.6-1.4-1-2c-0.6-0.7-1.3-1.4-2-1.9c-0.8-0.5-1.6-0.9-2.5-1.1
		c-0.7-0.2-1.5-0.3-2.3-0.2c-0.5,0.1-1,0.3-1.4,0.6C93.4,55.1,93.3,55.3,93.2,55.4z"/>
	<path class="st7" d="M100.4,55.2C100.4,55.2,100.4,55.2,100.4,55.2c0.1,0.1,0.2,0.1,0.2,0.2c0.2,0.1,0.4,0.3,0.6,0.5
		c0.3,0.2,0.5,0.5,0.8,0.8c0.3,0.3,0.6,0.7,0.8,1.1c0.1,0.2,0.2,0.4,0.2,0.6c0.1,0.2,0.1,0.4,0.1,0.6c0.1,0.4,0.1,0.7,0.1,1.1
		c0,0.3,0,0.6,0,0.7c0,0.1,0,0.1,0,0.2c0,0.1,0,0.1,0,0.1c0,0,0,0,0-0.1c0-0.1,0-0.1,0-0.2c0-0.2,0-0.4,0-0.7c0-0.4-0.1-0.7-0.1-1.1
		c0-0.2-0.1-0.4-0.1-0.6c-0.1-0.2-0.1-0.4-0.2-0.7c-0.2-0.4-0.5-0.8-0.8-1.1c-0.2-0.3-0.5-0.5-0.8-0.8c-0.2-0.2-0.4-0.3-0.6-0.4
		C100.5,55.3,100.5,55.3,100.4,55.2z"/>
	<path class="st8" d="M104.4,60.1c0.9-1.2,2.5-1.8,4-1.7c1.5,0.1,2.9,0.7,4.1,1.7c1.2,0.9,2.1,2.2,2.9,3.4c-1.8,0.3-3.6,0.1-5.3-0.4
		c-1.1-0.4-2.1-0.9-3.3-1.2c-1.1-0.3-2.4-0.2-3.3,0.6C103.7,61.6,103.9,60.8,104.4,60.1"/>
	<path class="st7" d="M103.3,62.6c0,0,0,0,0.1-0.1c0-0.1,0.1-0.2,0.2-0.3c0.3-0.4,0.7-0.7,1-1c0.6-0.4,1.3-0.7,2-0.8
		c0.9-0.1,1.8-0.1,2.6,0.1c0.9,0.2,1.7,0.5,2.5,0.9c0.6,0.3,1.3,0.7,1.9,1.1c0.5,0.3,0.9,0.6,1.2,0.8l0.3,0.2
		c0.1,0.1,0.1,0.1,0.1,0.1s-0.6-0.4-1.6-1.1c-0.6-0.4-1.2-0.8-1.9-1.1c-0.8-0.4-1.6-0.7-2.5-0.9c-0.9-0.2-1.8-0.2-2.6-0.1
		c-0.7,0.1-1.4,0.4-2,0.9c-0.4,0.3-0.7,0.6-1,1c-0.1,0.1-0.2,0.2-0.2,0.3C103.3,62.5,103.3,62.6,103.3,62.6z"/>
	<path class="st7" d="M103.3,62.6c0,0,0-0.1,0.1-0.3c0.1-0.2,0.1-0.5,0.2-0.7c0.2-0.3,0.3-0.7,0.5-1c0.2-0.4,0.5-0.7,0.9-1.1
		c0.3-0.3,0.7-0.5,1.2-0.7c0.3-0.1,0.7-0.2,1.1-0.3c0.2,0,0.5-0.1,0.7-0.1h0.2h0.1c-0.3,0-0.7,0-1,0.1c-0.4,0.1-0.7,0.2-1.1,0.3
		c-0.4,0.2-0.8,0.4-1.2,0.7c-0.3,0.3-0.6,0.7-0.9,1.1c-0.2,0.3-0.4,0.6-0.5,1c-0.1,0.2-0.2,0.5-0.2,0.7
		C103.3,62.4,103.3,62.5,103.3,62.6z"/>
	<path class="st8" d="M101.4,66.9c0-0.8-0.1-1.6-0.6-2.1c-0.3-0.4-0.7-0.6-1.1-0.8c-0.4-0.2-0.9-0.3-1.3-0.4c-0.1,0-0.2,0-0.2,0
		c0,0-0.1,0.1-0.1,0.1c0,0.1,0,0.1,0,0.2c-0.1,0.5,0,1.1,0.3,1.6c0.3,0.5,0.8,0.8,1.3,1C100.3,66.5,101,66.5,101.4,66.9"/>
	<path class="st7" d="M98.1,63.6C98.1,63.7,98.2,63.7,98.1,63.6l0.2,0.1c0.1,0,0.3,0.1,0.5,0.2c0.5,0.2,1,0.5,1.4,0.9
		c0.4,0.4,0.7,0.9,1,1.4c0.1,0.2,0.1,0.3,0.2,0.5c0,0.1,0,0.2,0,0.2c0-0.2-0.1-0.5-0.2-0.7c-0.2-0.5-0.5-1-1-1.4
		c-0.4-0.4-0.9-0.7-1.4-0.9c-0.2-0.1-0.3-0.1-0.5-0.2L98.1,63.6L98.1,63.6z"/>
	<path class="st7" d="M102.6,71.2l-4,5.8l-4.5-2l2.3-6.8L102.6,71.2z"/>
	<path class="st7" d="M103.4,70.6l-7.3-3.3l-0.4,1.1l7.2,3.1l0.4-0.8"/>
	<path class="st8" d="M95.7,68.5c0,0,1.6,0.7,3.6,1.6c2,0.9,3.6,1.6,3.6,1.5c0,0-1.6-0.7-3.6-1.6C97.3,69.2,95.7,68.5,95.7,68.5z"/>
	<path class="st6" d="M95.1,71.8c0,0,1.2,0.6,2.7,1.3c1.5,0.7,2.7,1.2,2.7,1.2c0,0-1.2-0.6-2.7-1.3C96.3,72.3,95.1,71.8,95.1,71.8z"
		/>
	<path class="st6" d="M95.3,71.3c0,0,1.2,0.6,2.7,1.3c1.5,0.7,2.7,1.2,2.7,1.2c0,0-1.2-0.6-2.7-1.3C96.5,71.9,95.3,71.3,95.3,71.3z"
		/>
	<path class="st6" d="M95.4,70.9c0,0,1.2,0.6,2.8,1.3c1.5,0.7,2.8,1.3,2.8,1.3c0,0-1.2-0.6-2.8-1.3C96.7,71.4,95.4,70.9,95.4,70.9z"
		/>
	<path class="st7" d="M105.2,97.3c-2.5-2.6-2.4-6.8,0.3-9.3c2.6-2.5,6.8-2.4,9.3,0.3c2.5,2.6,2.4,6.8-0.3,9.3
		C111.8,100.1,107.6,100,105.2,97.3z"/>
	<path class="st8" d="M106.9,95.4c-1.3-1.7-1-4.1,0.6-5.4c1.7-1.3,4.1-1,5.4,0.6c1.3,1.7,1,4.1-0.6,5.4
		C110.6,97.3,108.2,97,106.9,95.4z"/>
	<path class="st9" d="M82.3,66.3c0,0-0.2,13.4,1.2,14.7c1.4,1.3,14.3,9.2,15.3,9.1c1-0.1,17.7-7.8,17.7-7.8L82.3,66.3z"/>
	<path class="st7" d="M63.8,52.3l6.6,3.8c0,0,7.3,13.9,8.1,15.3c0.8,1.4,1.8,2.5,3.1,3.4c1.2,0.9,34.5,20.8,34.5,20.8l-0.7,1.2
		L97.1,85.5c0,0-4.2-2-7.3,1.3c-3.1,3.3-5.9,6.1-8.9,4.5c-3.8-1.9-0.2-9,3.1-13.1c0,0-4-2.4-5-3.5c-1.3-1.6-2.4-3.4-3.3-5.2
		C75,67.9,69.8,58,69.5,57.5c-0.3-0.4-6.4-4-6.4-4C63.1,53.6,63.8,52.3,63.8,52.3z M81.3,85.3c-1.3,3.4-0.8,4.2-0.5,4.6
		c0.3,0.4,1.3,1.2,2.9,0.6c1.8-0.7,4.7-3.9,5.1-4.4c0.4-0.5,2.6-2.5,4.4-2.2l-8.1-5C85.1,78.9,82.5,81.9,81.3,85.3L81.3,85.3z"/>
	<path class="st7" d="M116.2,94.7c0,0,0.9,0.8,0.8,1c0,0.2-0.4,0.2-1-0.2l-0.9,1.2c0,0,2.1,1.4,3,0.5c0.9-0.8-0.4-2.3-1.9-3.3
		L116.2,94.7z"/>
	<path class="st9" d="M117,83.6c-0.2,0.1-0.4,0.2-0.6,0.2c-0.2,0-0.4,0-0.6-0.1L82.2,67.2c-0.2-0.1-0.4-0.3-0.5-0.5
		s-0.2-0.5-0.1-0.7c0-0.2,0.1-0.3,0.2-0.5c0.1-0.1,0.2-0.3,0.4-0.3c0.2-0.1,0.3-0.1,0.5-0.1c0.2,0,0.4,0,0.5,0.1L117,81.5
		c0.2,0.1,0.4,0.2,0.5,0.4c0.1,0.2,0.2,0.4,0.2,0.6c0,0.2-0.1,0.4-0.2,0.6C117.4,83.3,117.2,83.5,117,83.6z"/>
	<path class="st10" d="M114.8,83.1L82.3,67.2l0,1.4l31.2,15L114.8,83.1z"/>
	<path class="st7" d="M81.9,67c0,0,7.6,3.8,16.9,8.3c9.4,4.6,17,8.2,17,8.2c0,0-7.6-3.8-16.9-8.3C89.6,70.7,81.9,67,81.9,67z"/>
	<path class="st8" d="M104.3,88.5c0,0,0.1,0.1,0.1,0.1l0.3,0.2l1.3,0.8l4.2,2.5c1.6,1,3.1,1.9,4.2,2.5l1.3,0.8l0.3,0.2
		c0,0,0.1,0,0.1,0.1c0,0-0.1-0.1-0.1-0.1l-0.3-0.2c-0.3-0.2-0.7-0.5-1.2-0.8c-1.1-0.7-2.5-1.6-4.1-2.5c-1.6-1-3.1-1.8-4.2-2.5
		l-1.3-0.7l-0.4-0.2C104.4,88.5,104.3,88.5,104.3,88.5z"/>
	<path class="st8" d="M103.6,89.5c0,0,0.1,0.1,0.1,0.1l0.3,0.2l1.2,0.8c1.1,0.6,2.5,1.5,4.1,2.5l4.1,2.6l1.2,0.8l0.3,0.2
		c0,0,0.1,0,0.1,0.1c0,0-0.1-0.1-0.1-0.1l-0.3-0.2l-1.2-0.8c-1-0.7-2.5-1.6-4.1-2.6c-1.6-1-3-1.9-4.1-2.5c-0.5-0.3-1-0.6-1.3-0.7
		l-0.3-0.2C103.7,89.6,103.7,89.6,103.6,89.5z"/>
	<path class="st8" d="M116.2,90.8c0,0-0.1-0.2-0.4-0.3c-0.3-0.1-0.7,0-1.1,0.1c-0.4,0.1-0.7,0.3-1,0.6c-0.1,0.1-0.2,0.2-0.3,0.3
		c0.4-0.3,0.9-0.6,1.3-0.8c0.3-0.1,0.7-0.2,1-0.2C116,90.7,116.1,90.7,116.2,90.8z"/>
	<path class="st8" d="M113.7,89.3c0.2-0.1,0.4-0.3,0.6-0.4c0.2-0.1,0.4-0.2,0.7-0.2c-0.2-0.1-0.5,0-0.7,0.1
		C114,88.9,113.8,89,113.7,89.3z"/>
	<path class="st8" d="M111.3,89.5c0.2-0.5,0.4-0.9,0.7-1.4c0.3-0.4,0.7-0.7,1.1-1c-0.1,0-0.3,0.1-0.4,0.2c-0.6,0.4-1.1,1-1.3,1.7
		C111.3,89.2,111.3,89.4,111.3,89.5z"/>
	<path class="st8" d="M108.3,89.7c-0.7-0.7-1.1-1.7-1.1-2.8c0,0.1-0.1,0.3,0,0.4c0,0.7,0.3,1.5,0.8,2
		C108,89.5,108.2,89.6,108.3,89.7z"/>
	<path class="st8" d="M109.2,88c0,0,0-0.4,0.1-0.8c0.1-0.4,0.2-0.8,0.2-0.8c-0.1,0.2-0.2,0.5-0.3,0.8
		C109.1,87.4,109.1,87.7,109.2,88L109.2,88z"/>
	<path class="st8" d="M103.4,93.4c0.1,0.1,0.3,0.1,0.4,0.1c0.3,0.1,0.7,0.1,1,0.1c0.3,0,0.7-0.1,1-0.2c0.1,0,0.3-0.1,0.4-0.2
		c-0.4,0.2-0.9,0.3-1.3,0.3C104.3,93.5,103.9,93.5,103.4,93.4z"/>
	<path class="st8" d="M103.5,91.7c0,0,0.2,0.2,0.5,0.3c0.2,0.1,0.4,0.1,0.5,0c-0.2,0-0.3-0.1-0.5-0.1
		C103.8,91.7,103.7,91.7,103.5,91.7z"/>
	<path class="st8" d="M105.6,97.9c0.4-0.2,0.8-0.4,1.1-0.7c0.3-0.3,0.6-0.7,0.7-1.1c-0.2,0.4-0.5,0.7-0.8,1.1
		C106.3,97.4,105.9,97.6,105.6,97.9z"/>
	<path class="st8" d="M104.1,96c0.4-0.1,0.9-0.3,1.2-0.6c-0.2,0.1-0.4,0.2-0.6,0.3C104.5,95.8,104.3,95.9,104.1,96z"/>
	<path class="st8" d="M111.2,99.2c0.1-0.1,0.2-0.2,0.2-0.3c0.1-0.3,0.2-0.6,0.1-1c0-0.3-0.1-0.6-0.3-0.9c0-0.1-0.1-0.2-0.2-0.3
		c0,0.1,0.1,0.3,0.1,0.4c0.1,0.3,0.2,0.6,0.3,0.9c0,0.3,0,0.6-0.1,0.9C111.2,99.1,111.2,99.2,111.2,99.2z"/>
	<path class="st8" d="M108.2,99.1c0,0,0.1,0,0.2-0.1c0.1-0.1,0.3-0.2,0.4-0.3c0.1-0.1,0.1-0.3,0.2-0.5c0-0.1,0-0.2,0-0.2
		c-0.1,0.2-0.1,0.4-0.2,0.6C108.6,98.8,108.4,99,108.2,99.1z"/>
	<path class="st8" d="M113.4,97c0.1,0.2,0.2,0.4,0.3,0.5c0.1,0.2,0.2,0.4,0.3,0.5c0-0.2-0.1-0.4-0.2-0.6
		C113.7,97.2,113.6,97.1,113.4,97z"/>
	<path class="st8" d="M115.5,93.3c0.1,0.1,0.3,0.1,0.5,0.1c0.2,0,0.3,0,0.4,0l0,0c0,0,0,0.1,0,0.1c0,0,0,0,0.1,0l0,0l0,0
		c-0.1-0.1-0.3-0.1-0.4-0.1C115.8,93.2,115.6,93.3,115.5,93.3z"/>
	<path class="st6" d="M108.9,77.9L108.9,77.9l0.3,0.2l1,0.5l3.2,1.6l1.7,0.9l0.8,0.4c0.2,0.1,0.4,0.2,0.6,0.4
		c0.2,0.1,0.3,0.3,0.4,0.5c0.1,0.1,0.1,0.3,0.1,0.4c0,0.1-0.1,0.2-0.2,0.3c0,0,0.1,0,0.1-0.1c0.1-0.1,0.1-0.2,0.1-0.3
		c0-0.2,0-0.3,0-0.5c-0.1-0.2-0.2-0.4-0.4-0.5c-0.2-0.1-0.4-0.3-0.6-0.4l-0.8-0.4l-1.7-0.9l-3.2-1.6l-1-0.5L108.9,77.9
		C109,78,109,77.9,108.9,77.9z"/>
	<path class="st6" d="M106.6,77c0.2,0.1,0.4,0.2,0.7,0.3c0.2,0.1,0.4,0.2,0.7,0.3c-0.2-0.1-0.4-0.2-0.7-0.3
		C107,77.1,106.8,77,106.6,77z"/>
	<path class="st6" d="M115.4,94.3c0.1-0.3,0.2-0.6,0.3-0.9c0.1-0.3,0.1-0.7,0.1-1c0-0.8-0.1-1.7-0.4-2.4c-0.1-0.3-0.3-0.6-0.4-0.9
		c-0.2-0.3-0.3-0.5-0.5-0.7l0,0.1l0.1,0.1c0,0.1,0.1,0.1,0.2,0.2c0.1,0.1,0.1,0.2,0.2,0.3c0.2,0.3,0.3,0.6,0.4,0.9
		c0.3,0.8,0.4,1.6,0.4,2.4c0,0.3,0,0.7-0.1,1c0,0.1-0.1,0.3-0.1,0.4c0,0.1-0.1,0.2-0.1,0.3C115.4,94.1,115.4,94.2,115.4,94.3
		C115.4,94.3,115.4,94.3,115.4,94.3z"/>
	<path class="st6" d="M104.2,88.8c0,0,3,1.8,6.6,4c3.7,2.2,6.6,4,6.6,4c0,0-3-1.8-6.6-4C107.2,90.6,104.2,88.8,104.2,88.8z"/>
	<path class="st6" d="M102.7,87.9c0.1,0.1,0.2,0.2,0.3,0.3c0.1,0.1,0.3,0.2,0.4,0.2c0,0-0.2-0.1-0.4-0.2
		C102.8,88,102.7,87.9,102.7,87.9z"/>
	<path class="st7" d="M91.7,86.4c0.1,0,0.1,0.1,0.2,0.1c0.1,0,0.3,0.1,0.5,0.2c0.6,0.2,1.3,0.4,1.9,0.6c0.2,0,0.4,0.1,0.7,0.1
		c0.2,0,0.5,0,0.7,0c0.5-0.1,1-0.3,1.5-0.5c0.5-0.2,1.1-0.5,1.6-0.8c0.5-0.3,1.1-0.6,1.6-0.9c2.2-1.3,4.2-2.6,5.5-3.6
		c0.7-0.5,1.2-0.9,1.6-1.2L108,80c0.1,0,0.1-0.1,0.1-0.1c-0.1,0-0.1,0.1-0.2,0.1l-0.4,0.3c-0.4,0.3-0.9,0.7-1.6,1.2
		c-1.4,1-3.3,2.3-5.5,3.6c-0.6,0.3-1.1,0.6-1.6,1c-0.5,0.3-1,0.6-1.5,0.8c-0.5,0.2-1,0.4-1.5,0.5c-0.5,0-0.9,0-1.3-0.1
		c-0.6-0.2-1.3-0.3-1.9-0.6l-0.5-0.2C91.8,86.4,91.8,86.4,91.7,86.4z"/>
	<path class="st7" d="M62.3,20c0.7,0,1.5,0.1,2.2,0.4c0.8,0.4,1.6,1.4,1.4,2.3c-0.1,0.4-0.3,0.8-0.7,1.1c-0.5,0.6-1,1.1-1.5,1.6"/>
	<path class="st11" d="M58,24.3c0-0.5,0.1-0.9,0.3-1.3c0.2-0.4,0.5-0.8,0.8-1.1c0.3-0.3,0.7-0.6,1.2-0.7c0.4-0.2,0.9-0.2,1.4-0.2
		c1.9,0.1,3.3,1.7,3.3,3.5c0,1.6,0,3.3-0.1,3.8c-0.3,1.8-1.4,2.3-1.9,2.4c-0.2,0-0.3,0-0.5,0c0,0,0,0,0,0c0,0,0,0,0,0l0.1,2.1
		c0,1.3-0.9,2.4-2.3,2.4c-1.3,0-2.2-1.2-2.2-2.5L58,24.3z"/>
	<path class="st7" d="M64.2,25.3c0,0.1,0,0.1-0.1,0.2c-0.1,0.1-0.1,0.1-0.2,0.1c0,0-0.1,0-0.1,0c0,0-0.1,0-0.1-0.1s0-0.1-0.1-0.1
		c0,0,0-0.1,0-0.1c0-0.1,0-0.1,0.1-0.2c0.1-0.1,0.1-0.1,0.2-0.1c0,0,0.1,0,0.1,0c0,0,0.1,0,0.1,0.1c0,0,0,0.1,0.1,0.1
		C64.2,25.3,64.2,25.3,64.2,25.3z"/>
	<path class="st7" d="M64.4,24.8c0,0-0.2-0.1-0.6-0.1c-0.3,0-0.5,0.2-0.6,0.1c0,0,0-0.1,0.1-0.2c0.1-0.1,0.3-0.1,0.4-0.1
		c0.2,0,0.3,0,0.4,0.1C64.4,24.8,64.4,24.8,64.4,24.8z"/>
	<path class="st7" d="M61.3,25.3c0,0.1,0,0.1-0.1,0.2c-0.1,0.1-0.1,0.1-0.2,0.1c0,0-0.1,0-0.1,0c0,0-0.1,0-0.1-0.1
		c0,0,0-0.1-0.1-0.1c0,0,0-0.1,0-0.1c0-0.1,0-0.1,0.1-0.2c0.1-0.1,0.1-0.1,0.2-0.1c0,0,0.1,0,0.1,0c0,0,0.1,0,0.1,0.1
		c0,0,0,0.1,0.1,0.1C61.3,25.3,61.3,25.3,61.3,25.3z"/>
	<path class="st7" d="M61.4,24.9c0,0-0.2-0.1-0.6-0.1c-0.3,0-0.5,0.2-0.6,0.1s0-0.1,0.1-0.2c0.1-0.1,0.3-0.1,0.4-0.1
		c0.2,0,0.3,0,0.4,0.1C61.4,24.8,61.5,24.9,61.4,24.9z"/>
	<path class="st7" d="M62.5,27.1c0.2,0,0.3-0.1,0.5-0.1c0.1,0,0.2,0,0.2-0.1c0-0.1,0-0.2-0.1-0.2c-0.1-0.2-0.1-0.4-0.2-0.6
		c-0.2-0.5-0.4-1-0.5-1.5c0.3,0.5,0.5,1,0.6,1.5l0.2,0.6c0,0.1,0.1,0.2,0,0.3c0,0,0,0.1-0.1,0.1s0,0-0.1,0c0,0-0.1,0-0.1,0
		C62.9,27.2,62.7,27.2,62.5,27.1z"/>
	<path class="st12" d="M62.4,30.7c0,0-1.2,0.1-2.6-0.8c0,0,0.5,1.6,2.7,1.3L62.4,30.7z"/>
	<path class="st12" d="M62.4,27.9c-0.1-0.1-0.1-0.1-0.2-0.2c-0.1,0-0.2,0-0.3,0c-0.1,0-0.1,0-0.2,0.1c-0.1,0-0.1,0.1-0.2,0.1
		c0,0.1-0.1,0.1-0.1,0.2c0,0.1,0,0.1,0,0.2c0,0.1,0.1,0.1,0.2,0.1c0.1,0,0.1,0,0.2,0c0.1,0,0.3-0.1,0.4-0.2c0,0,0.1-0.1,0.1-0.1
		C62.4,28,62.4,28,62.4,27.9C62.4,27.9,62.4,27.9,62.4,27.9"/>
	<path class="st7" d="M61.6,27.4c0,0,0.1,0.3,0.3,0.6c0.3,0.2,0.6,0.2,0.6,0.2c0,0-0.1,0.1-0.2,0.1c-0.2,0-0.4-0.1-0.5-0.2
		c-0.1-0.1-0.2-0.3-0.3-0.5C61.6,27.4,61.6,27.4,61.6,27.4z"/>
	<path class="st7" d="M61.6,24.4c0,0.1-0.3,0-0.7,0.1c-0.4,0-0.6,0.1-0.7,0.1c0,0,0-0.1,0.1-0.2c0.2-0.1,0.3-0.2,0.5-0.2
		c0.2,0,0.4,0,0.5,0.1C61.5,24.3,61.6,24.3,61.6,24.4z"/>
	<path class="st7" d="M64.3,24.2c-0.1,0.1-0.3,0-0.5,0c-0.3,0-0.5,0-0.5,0c0,0,0-0.1,0.1-0.2c0.1-0.1,0.3-0.1,0.4-0.1
		c0.1,0,0.3,0,0.4,0.1C64.3,24.1,64.3,24.2,64.3,24.2z"/>
	<path class="st7" d="M57.9,19.8c-1.2-0.1-2.9,1.1-3.3,2.4c-0.4,1.2-0.6,2.5-0.1,3.6c0.5,1.1,1.2,2,2,2.8c0.5,0.4,1,0.8,1.6,1.1"/>
	<path class="st7" d="M57.5,25.1c0.6,0.1,1.2,0.1,1.9,0c0.6-0.1,1.2-0.4,1.7-0.8c0.5-0.4,0.9-0.9,1.2-1.5c0.3-0.6,0.5-1.2,0.5-1.9
		c0-0.3,0-0.9-0.2-0.9c-0.5-0.1-0.6-0.1-1,0c-1.1,0.3-2,1-2.6,1.8c-0.7,0.9-1,2-1,3.2"/>
	<path class="st7" d="M55,25.4c0-0.4-0.1-0.7-0.3-1c-0.2-0.3-0.5-0.5-0.9-0.6c-0.4-0.1-0.7-0.1-1.1,0c-0.4,0.1-0.7,0.3-0.9,0.5
		c-0.3,0.3-0.4,0.6-0.6,0.9c-0.1,0.3-0.2,0.7-0.2,1.1c0,0.7,0.3,1.3,0.8,1.8c0.2,0.2,0.5,0.4,0.8,0.5c0.3,0.1,0.7,0.1,1,0.1
		c0.4-0.1,0.8-0.3,1.1-0.6c0.3-0.3,0.5-0.7,0.6-1.1c0.1-0.4,0.1-0.9,0-1.3c-0.1-0.4-0.3-0.8-0.6-1.2"/>
	<path class="st9" d="M58,28.3c0-1.6,0.2-3.9,1-5.2c0.9-1.3,2-2.7,3.5-3.1c-1.5-0.4-2.8-0.3-4.4-0.2c-0.5,0.1-1,0.3-1.5,0.6
		c-0.4,0.3-0.8,0.8-0.9,1.3c-0.5,1.2-0.5,2.5-0.1,3.7C56.1,26.5,56.9,27.6,58,28.3"/>
	<path class="st8" d="M58.4,24.6c0.1,0,0.2,0,0.3,0c0.2-0.1,0.5-0.1,0.7-0.2c0.7-0.3,1.4-0.7,1.9-1.3c0.5-0.6,0.9-1.3,1.1-2.1
		c0.1-0.2,0.1-0.5,0.1-0.7c0-0.1,0-0.2,0-0.3c0,0,0,0.4-0.2,0.9c-0.2,0.7-0.6,1.4-1.1,2c-0.5,0.6-1.1,1-1.8,1.3
		C58.8,24.5,58.4,24.6,58.4,24.6z"/>
	<path class="st8" d="M58.8,23.4c0.1,0,0.1,0,0.2-0.1c0.2-0.1,0.3-0.2,0.4-0.2c0.9-0.6,1.8-1.4,2.4-2.3c0.1-0.1,0.2-0.3,0.2-0.4
		c0-0.1,0.1-0.1,0.1-0.2c0,0-0.1,0.2-0.4,0.6c-0.6,0.9-1.4,1.7-2.3,2.3C59.1,23.2,58.8,23.4,58.8,23.4z"/>
	<path class="st8" d="M55.5,27.5c0,0-0.2-0.2-0.4-0.5c-0.3-0.4-0.5-0.8-0.7-1.3c-0.2-0.5-0.2-0.9-0.2-1.4c0-0.4,0-0.6,0-0.6
		c0,0,0,0.1,0,0.2c0,0.1,0,0.3-0.1,0.4c0,1,0.3,2,0.9,2.7c0.1,0.1,0.2,0.2,0.3,0.3C55.5,27.4,55.5,27.5,55.5,27.5z"/>
	<path class="st8" d="M51.2,26.2c0.1-0.1,0.2-0.3,0.3-0.4c0.3-0.3,0.7-0.5,1.1-0.5c0.4,0,0.8,0,1.3,0.1c0.2,0,0.3,0.1,0.5,0.1
		c-0.2-0.1-0.3-0.1-0.5-0.1c-0.4-0.1-0.9-0.1-1.3-0.1c-0.4,0.1-0.8,0.3-1.2,0.6c-0.1,0.1-0.2,0.2-0.2,0.3
		C51.2,26.2,51.2,26.2,51.2,26.2z"/>
	<path class="st8" d="M51.8,24.1c0.5,0,0.9,0.1,1.4,0.3c0.4,0.2,0.8,0.5,1.1,0.8c-0.1-0.1-0.1-0.2-0.3-0.3c-0.2-0.2-0.5-0.4-0.8-0.6
		c-0.3-0.1-0.6-0.2-1-0.2C52.1,24.1,51.9,24.1,51.8,24.1z"/>
	<path class="st8" d="M52.1,28.3c0.2,0.1,0.4,0.1,0.5,0.1c0.5,0,0.9-0.2,1.2-0.5c0.3-0.3,0.6-0.7,0.7-1.1c0-0.2,0.1-0.4,0-0.6
		c0,0,0,0.2-0.1,0.5c-0.1,0.4-0.3,0.8-0.7,1.1c-0.3,0.3-0.7,0.4-1.2,0.5C52.3,28.3,52.1,28.3,52.1,28.3z"/>
	<g class="st13">
		<path class="st14" d="M55.9,25.7c0.1-0.1,0.3-0.1,0.4-0.2c0.1-0.1,0.1-0.2,0.2-0.3c0-0.1,0.1-0.2,0-0.4c0-0.1-0.1-0.2-0.1-0.3
			c-0.1-0.1-0.2-0.2-0.3-0.2c-0.2-0.1-0.6,0-0.7,0.1C55.4,24.4,55.6,25.4,55.9,25.7z"/>
	</g>
	<g class="st13">
		<path class="st14" d="M57.8,23.1c-0.2-0.1-0.3-0.1-0.5,0c-0.2,0.1-0.3,0.2-0.4,0.3c-0.1,0.2-0.1,0.3,0,0.5
			c0.1,0.2,0.2,0.3,0.3,0.4c0.2,0.1,0.3,0.1,0.5,0c0.2-0.1,0.3-0.2,0.4-0.3c0.1-0.1,0.1-0.3,0.1-0.5c0-0.2-0.1-0.3-0.3-0.4"/>
	</g>
	<g class="st13">
		<path class="st14" d="M57.8,20.6c-0.2-0.1-0.3-0.1-0.5,0c-0.2,0.1-0.3,0.2-0.4,0.3c-0.1,0.2-0.1,0.3,0,0.5
			c0.1,0.2,0.2,0.3,0.3,0.4c0.2,0.1,0.3,0.1,0.5,0s0.3-0.2,0.4-0.3c0.1-0.1,0.1-0.3,0.1-0.5c0-0.2-0.1-0.3-0.3-0.4"/>
	</g>
	<g class="st13">
		<path class="st14" d="M55.4,22.8c0.1-0.4,0.2-0.7,0.3-1.1c0-0.1,0-0.1,0.1-0.2c0,0,0.1,0,0.1,0l0.1,0.1c0.1,0.1,0.3,0.2,0.3,0.4
			c0,0.2,0,0.3,0,0.5c-0.1,0.2-0.2,0.3-0.4,0.3C55.8,22.8,55.6,22.8,55.4,22.8z"/>
		<path class="st14" d="M59.2,21.9c0.1-0.2,0.2-0.3,0.4-0.3c0.2-0.1,0.3-0.1,0.5,0l0.1,0.1c0,0,0,0,0,0c-0.3,0.3-0.6,0.7-0.8,1
			c-0.1-0.1-0.2-0.2-0.2-0.4S59.1,22,59.2,21.9z"/>
		<path class="st14" d="M60.3,19.7c0.1,0.1,0.1,0.2,0.2,0.3c0,0.1,0,0.2,0,0.4c0,0.1-0.1,0.2-0.2,0.3c-0.1,0.1-0.2,0.1-0.3,0.1
			c-0.1,0-0.2,0-0.4,0c-0.1,0-0.2-0.1-0.3-0.2c-0.1-0.1-0.1-0.2-0.1-0.3c0-0.1,0-0.2,0.1-0.3c0-0.1,0.1-0.1,0.1-0.2
			C59.6,19.7,59.9,19.7,60.3,19.7z"/>
		<path class="st14" d="M58.1,25.8L58.1,25.8c0,0.4-0.1,0.9-0.1,1.3c-0.1,0-0.3,0-0.4,0c-0.2-0.1-0.3-0.2-0.4-0.4
			c-0.1-0.2-0.1-0.4,0-0.5c0.1-0.2,0.2-0.3,0.4-0.4C57.8,25.7,58,25.7,58.1,25.8z"/>
	</g>
	<path class="st9" d="M56.8,28.1c-0.1-0.1-0.2-0.3-0.3-0.3s-0.3-0.1-0.5-0.1c-0.3,0-0.6,0.1-0.9,0.3c-0.6,0.3-1,0.8-1.3,1.4
		c0.4,0.2,0.8,0.3,1.3,0.3c0.4,0,0.9-0.1,1.2-0.4c0.2-0.1,0.3-0.3,0.4-0.5C56.8,28.6,56.8,28.3,56.8,28.1"/>
	<path class="st9" d="M56.8,28.1c-0.2,0-0.3,0.1-0.5,0.1c-0.1,0.1-0.3,0.2-0.3,0.3c-0.2,0.3-0.2,0.6-0.2,0.9c0,0.6,0.2,1.3,0.6,1.8
		c0.4-0.2,0.7-0.6,0.8-1c0.2-0.4,0.3-0.8,0.3-1.3c0-0.2-0.1-0.4-0.2-0.6C57.2,28.3,57,28.2,56.8,28.1"/>
	<path class="st7" d="M55.9,29.9c0,0,0-0.1,0-0.3c0-0.2,0.1-0.5,0.1-0.7c0.1-0.2,0.2-0.4,0.4-0.5c0.1-0.1,0.2-0.2,0.2-0.2
		c0,0-0.1,0-0.1,0c-0.1,0-0.1,0.1-0.2,0.1c-0.2,0.1-0.3,0.3-0.4,0.6c-0.1,0.2-0.1,0.5-0.1,0.7C55.8,29.7,55.8,29.8,55.9,29.9
		C55.9,29.9,55.9,29.9,55.9,29.9z"/>
	<path class="st9" d="M57,27.4c0.1,0,0.2,0.1,0.3,0.1c0.1,0.1,0.2,0.1,0.2,0.2c0.1,0.1,0.1,0.2,0.1,0.3c0,0.1,0,0.2-0.1,0.3
		c-0.1,0.1-0.2,0.1-0.3,0.2c-0.1,0-0.2,0.1-0.3,0c-0.1,0-0.2-0.1-0.3-0.1c-0.1-0.1-0.2-0.2-0.2-0.2c0-0.1-0.1-0.2-0.1-0.3
		c0-0.1,0.1-0.2,0.1-0.3c0.1-0.1,0.2-0.1,0.3-0.1c0.1,0,0.2,0,0.4,0"/>
	<path class="st7" d="M56.9,27.4c0.1,0.1,0.3,0.3,0.4,0.4c0.1,0.1,0.3,0.2,0.4,0.4C57.5,27.9,57.2,27.6,56.9,27.4L56.9,27.4z"/>
	<path class="st7" d="M56.9,28.5c-0.1-0.2-0.1-0.3,0-0.5c0.1-0.2,0.2-0.3,0.3-0.4c-0.1,0-0.1,0-0.1,0.1c-0.1,0.1-0.2,0.2-0.2,0.3
		c0,0.1,0,0.3,0,0.4C56.9,28.4,56.9,28.5,56.9,28.5z"/>
	<path class="st7" d="M56.4,27.8c0,0.1,0,0.1,0,0.2c0,0.2,0.1,0.3,0.3,0.4c0.1,0.1,0.3,0.2,0.5,0.1c0.1,0,0.1,0,0.2-0.1
		c0,0-0.1,0-0.2,0c-0.2,0-0.3,0-0.5-0.1c-0.1-0.1-0.2-0.2-0.3-0.4C56.4,27.9,56.4,27.8,56.4,27.8z"/>
	<path class="st7" d="M56.9,29.5c0.1-0.2,0.1-0.3,0.1-0.5c0-0.2,0-0.3,0-0.5c0,0,0,0.2,0,0.5S56.9,29.5,56.9,29.5z"/>
	<path class="st7" d="M56.6,29.3c0.1-0.2,0.2-0.5,0.2-0.8c0,0,0,0.2-0.1,0.4C56.7,29.1,56.6,29.3,56.6,29.3z"/>
	<path class="st7" d="M55.5,28.3c0,0,0.2-0.1,0.5-0.1c0.3,0,0.5,0,0.5,0c-0.2,0-0.3-0.1-0.5,0C55.8,28.1,55.6,28.2,55.5,28.3z"/>
	<g class="st13">
		<path d="M55.8,29.5c-0.1,0-0.2,0.1-0.2,0.1c-0.1,0-0.2,0-0.2,0c-0.1-0.1-0.1-0.1-0.1-0.2c0-0.1,0-0.2,0-0.2c0-0.1,0.1-0.3,0.2-0.4
			c0.1-0.1,0.2-0.2,0.3-0.3c0.1-0.1,0.3-0.1,0.4-0.2c0.1,0,0.3,0,0.4,0l0,0.1c0,0-0.4,0-0.6,0.6C55.9,29.1,55.8,29.3,55.8,29.5z"/>
	</g>
	<g class="st13">
		<path d="M57.7,28c0,0.1,0,0.2-0.1,0.2c-0.1,0.1-0.1,0.1-0.2,0.2c-0.1,0-0.2,0-0.3,0c-0.1,0-0.2-0.1-0.3-0.2
			c-0.1-0.1-0.1-0.2-0.1-0.3c0-0.1,0-0.2,0-0.3c0,0,0-0.1,0.1-0.1c0,0,0.1-0.1,0.1-0.1c0,0,0.1,0,0.1,0s0.1,0,0.1,0
			c0.1,0,0.1,0.1,0.2,0.1L57.7,28"/>
	</g>
	<path class="st7" d="M61.2,27.2C61.2,27.2,61.2,27.2,61.2,27.2C61.1,27.2,61.1,27.2,61.2,27.2C61.1,27.2,61.1,27.2,61.2,27.2
		C61.1,27.3,61.1,27.3,61.2,27.2C61.1,27.3,61.1,27.3,61.2,27.2C61.1,27.3,61.1,27.3,61.2,27.2C61.1,27.3,61.1,27.3,61.2,27.2
		C61.2,27.3,61.2,27.3,61.2,27.2C61.2,27.3,61.2,27.3,61.2,27.2C61.2,27.3,61.2,27.3,61.2,27.2C61.2,27.3,61.2,27.3,61.2,27.2
		C61.2,27.2,61.2,27.2,61.2,27.2"/>
	<path class="st7" d="M52.3,24c0-0.1,0-0.3,0.1-0.4c0.1-0.1,0.2-0.2,0.3-0.3c0.1-0.1,0.3-0.1,0.5-0.1c0.3,0,0.6,0.2,0.8,0.4
		c0.1,0.1,0.1,0.2,0.2,0.3c0,0,0-0.1,0-0.1c0-0.1-0.1-0.2-0.1-0.3c-0.2-0.2-0.5-0.4-0.8-0.4c-0.2,0-0.4,0-0.5,0.1
		c-0.1,0.1-0.2,0.2-0.3,0.3c0,0.1-0.1,0.2-0.1,0.3C52.2,23.9,52.2,23.9,52.3,24z"/>
	<path class="st7" d="M65,24c0.1,0,0.2,0,0.2,0c0.2-0.1,0.4-0.2,0.5-0.3c0.2-0.2,0.4-0.5,0.4-0.8c0-0.4-0.1-0.8-0.3-1.1
		c-0.2-0.3-0.5-0.6-0.8-0.8c-0.3-0.2-0.5-0.3-0.8-0.4c-0.2-0.1-0.4-0.2-0.6-0.2l-0.2-0.1c0,0,0,0-0.1,0c0,0,0,0,0.1,0l0.2,0.1
		c0.1,0.1,0.3,0.1,0.6,0.2c0.3,0.1,0.5,0.3,0.8,0.4c0.3,0.2,0.6,0.5,0.8,0.8c0.2,0.3,0.3,0.7,0.3,1.1c0,0.3-0.2,0.6-0.4,0.8
		c-0.1,0.1-0.3,0.3-0.5,0.3C65,24,65,24,65,24z"/>
	<path class="st7" d="M59.6,24.2c0.1,0,0.1,0,0.2,0c0.2,0,0.4,0,0.6,0c0.3,0,0.7-0.1,1-0.3c0.3-0.2,0.6-0.4,0.8-0.6
		c0.2-0.3,0.4-0.6,0.5-0.9c0.1-0.3,0.1-0.7,0.1-1c0-0.2-0.1-0.4-0.1-0.6c0-0.1,0-0.1-0.1-0.2c0,0,0,0.1,0.1,0.2
		c0.1,0.2,0.1,0.4,0.1,0.6c0,0.7-0.2,1.3-0.6,1.9c-0.4,0.5-1.1,0.8-1.7,0.9c-0.2,0-0.4,0-0.6,0C59.6,24.2,59.6,24.2,59.6,24.2z"/>
	<path class="st9" d="M45.4,92.6l1.7-2.2l0.1-0.1l2.9,2.1l-2.7,2.9l0.1,3c1.5,0.4,1.7,1.1,1.7,1.1h-3.1L43.3,94L45.4,92.6z"/>
	<path class="st15" d="M43.3,94l2.8,5.4l3.1,0L48.9,99l-2.5-0.1l-2.6-5.1L43.3,94z"/>
	<path class="st7" d="M47.5,96.9c0,0-0.2-0.1-0.4-0.1c-0.2,0-0.4,0.1-0.4,0.1c0,0,0.1-0.2,0.4-0.2C47.3,96.7,47.5,96.9,47.5,96.9z"
		/>
	<path class="st7" d="M47.4,96.2c0,0-0.2-0.2-0.4-0.2c-0.2,0-0.4,0.1-0.5,0c0,0,0-0.1,0.1-0.1c0.1-0.1,0.3-0.1,0.4-0.1
		c0.1,0,0.2,0.1,0.3,0.2C47.4,96.1,47.4,96.2,47.4,96.2z"/>
	<path class="st7" d="M47.4,95.3c0,0-0.1-0.2-0.4-0.2c-0.2-0.1-0.4,0-0.4,0s0-0.1,0.1-0.1c0.1,0,0.2,0,0.4,0c0.1,0,0.2,0.1,0.3,0.2
		C47.5,95.2,47.5,95.2,47.4,95.3z"/>
	<path class="st7" d="M48.3,94.5c0,0-0.1-0.2-0.3-0.3c-0.2-0.1-0.4-0.1-0.4-0.2c0,0,0.2-0.1,0.5,0.1C48.3,94.3,48.3,94.5,48.3,94.5z
		"/>
	<path class="st7" d="M48.7,93.9c0,0-0.1-0.1-0.3-0.3l-0.3-0.4C48.1,93.1,48,93,48,92.9c0-0.1,0-0.1,0-0.2c0,0,0-0.1,0.1-0.1
		c0,0,0.1,0,0.1,0c0.1,0,0.2,0.1,0.3,0.2c0.1,0.1,0.1,0.1,0.2,0.2c0.1,0.1,0.1,0.3,0.2,0.4c0,0.1,0,0.3-0.1,0.4c0-0.1,0-0.3,0-0.4
		c0-0.1-0.1-0.3-0.2-0.4c0-0.1-0.1-0.1-0.2-0.2c-0.1-0.1-0.1-0.1-0.2-0.1c0,0,0,0,0,0c0,0,0,0,0,0c0,0,0,0.1,0,0.1
		c0,0.1,0.1,0.2,0.1,0.2l0.2,0.4C48.6,93.6,48.6,93.8,48.7,93.9z"/>
	<path class="st7" d="M48.8,94c0,0,0-0.2,0.2-0.3c0.1-0.1,0.3-0.2,0.4-0.2c0.2,0,0.3,0,0.5,0.1c0,0,0,0,0,0.1c0,0,0,0,0,0.1
		c0,0,0,0.1,0,0.1c0,0-0.1,0.1-0.1,0.1c-0.1,0-0.1,0.1-0.2,0.1c-0.1,0.1-0.3,0.1-0.4,0.1C49,94,48.9,94,48.8,94c0,0,0.1,0,0.3-0.1
		c0.1,0,0.3-0.1,0.4-0.1c0.1,0,0.1-0.1,0.2-0.1c0,0,0.1,0,0.1-0.1c0,0,0,0,0,0c0,0-0.1,0-0.1,0c0,0-0.1,0-0.1,0c-0.1,0-0.1,0-0.2,0
		c-0.1,0-0.2,0.1-0.3,0.2C48.9,93.8,48.8,94,48.8,94z"/>
	<path class="st15" d="M45.4,94.3c-0.2,0-0.4-0.2-0.4-0.4s0.2-0.4,0.4-0.4s0.4,0.2,0.4,0.4S45.6,94.3,45.4,94.3z"/>
	<path class="st10" d="M49.8,92.7l-0.6,0.7l-2.5-2.5l0.3-0.5L49.8,92.7z"/>
	<path class="st9" d="M72.1,92.6l0.7,4.1c0,0,4.4,0.7,4.6,1.4l-7.8,1.7l-1.4-6.3L72.1,92.6z"/>
	<g class="st16">
		<path class="st14" d="M70.3,96.8c-0.1,0-0.1,0.1-0.2,0.2c0,0.1,0,0.2,0,0.2c0,0.1,0.1,0.1,0.2,0.2c0.1,0,0.2,0,0.2,0
			c0.1,0,0.1-0.1,0.2-0.2c0-0.1,0-0.2,0-0.3c0-0.1-0.1-0.1-0.2-0.1C70.4,96.8,70.3,96.8,70.3,96.8"/>
	</g>
	<path class="st15" d="M69.5,99.7l-0.1-0.6l7.6-1.4c0,0,0.4,0.1,0.4,0.3L69.5,99.7z"/>
	<path class="st7" d="M72.9,96.6c0,0-0.2,0.1-0.3,0.3c-0.2,0.2-0.2,0.3-0.3,0.3c0,0,0-0.2,0.2-0.4C72.7,96.6,72.9,96.6,72.9,96.6z"
		/>
	<path class="st7" d="M73.8,96.8c0,0-0.1,0.1-0.2,0.3c-0.1,0.2-0.1,0.4-0.1,0.4c0,0-0.1-0.2,0-0.4C73.6,96.8,73.8,96.7,73.8,96.8z"
		/>
	<path class="st7" d="M74.5,97.6c0,0-0.1-0.2-0.1-0.4c0.1-0.2,0.2-0.4,0.2-0.3c0,0-0.1,0.2-0.1,0.4C74.5,97.5,74.5,97.6,74.5,97.6z"
		/>
	<path class="st7" d="M72.6,95.7c0,0-0.2,0-0.4,0.1c-0.2,0.1-0.4,0.2-0.4,0.1c0,0,0.1-0.2,0.4-0.3C72.4,95.6,72.6,95.6,72.6,95.7z"
		/>
	<path class="st10" d="M72.2,93.4l0.1,0.7l-3.9,0.8l-0.1-0.6L72.2,93.4z"/>
	<path class="st7" d="M72.5,94.9c-0.1,0.1-0.3,0.1-0.4,0.1c-0.1,0-0.3,0-0.4,0c-0.1,0-0.2,0-0.2-0.1c0,0-0.1,0-0.1-0.1
		c0,0-0.1-0.1-0.1-0.1c0,0,0-0.1,0-0.1c0,0,0-0.1,0.1-0.1c0,0,0.1,0,0.1,0c0,0,0.1,0,0.2,0c0.1,0,0.2,0,0.3,0c0.1,0,0.3,0.1,0.4,0.2
		C72.4,94.8,72.5,94.9,72.5,94.9c0,0-0.1-0.1-0.4-0.2c-0.1-0.1-0.3-0.1-0.4-0.1c-0.1,0-0.2,0-0.2,0c-0.1,0-0.2,0-0.2,0.1
		c0,0.1,0,0,0,0c0,0,0.1,0,0.1,0c0.1,0,0.1,0.1,0.2,0.1c0.1,0,0.3,0.1,0.4,0.1C72.2,94.8,72.3,94.8,72.5,94.9z"/>
	<path class="st7" d="M72.4,94.9c-0.1-0.1-0.2-0.2-0.2-0.4c0-0.1-0.1-0.3,0-0.4c0-0.1,0-0.2,0.1-0.3c0-0.1,0-0.1,0.1-0.2
		c0,0,0.1-0.1,0.1-0.1c0,0,0.1,0,0.1,0c0,0,0.1,0,0.1,0.1c0,0,0.1,0.1,0.1,0.1c0,0.1,0.1,0.2,0.1,0.3c0,0.2,0,0.3-0.1,0.4
		C72.6,94.8,72.4,94.9,72.4,94.9c0-0.1,0.1-0.2,0.2-0.4c0-0.1,0.1-0.3,0-0.4c0-0.1,0-0.2-0.1-0.2c0-0.1-0.1-0.1-0.1-0.1
		c0,0-0.1,0.1-0.1,0.2c0,0.1,0,0.2-0.1,0.2c0,0.1,0,0.3,0,0.4C72.4,94.8,72.5,94.9,72.4,94.9z"/>
	<path class="st7" d="M65.7,52.9c0,0,3.1,9.6,5.7,20.7c1.3,5.5,2,15.1,2.2,18.3c0,0.3-0.1,0.6-0.3,0.9c-0.2,0.2-0.5,0.4-0.8,0.5
		l-5.1,1.1c-0.2,0-0.4,0-0.7,0c-0.2,0-0.4-0.1-0.6-0.3c-0.2-0.1-0.3-0.3-0.4-0.5c-0.1-0.2-0.2-0.4-0.2-0.6l-2-14.6L60.5,69
		c-1.1-3-2.6-5.2-4.5-6.8c-1.2-1.6-2-3.3-2.5-5.2c-0.3-1.5-0.4-3-0.2-4.5L65.7,52.9z"/>
	<path class="st7" d="M65.5,54.5l-1.8,21.3c-0.2,2-0.9,4.3-2.3,5.8l-9.1,11.6c-0.1,0.1-0.2,0.3-0.4,0.3c-0.2,0.1-0.3,0.1-0.5,0.2
		c-0.2,0-0.4,0-0.5-0.1c-0.2-0.1-0.3-0.1-0.5-0.3l-4.6-4.1c-0.2-0.2-0.3-0.4-0.4-0.7c0-0.3,0.1-0.5,0.2-0.8l10.8-13.9l-1.9-21.2
		l10.8,1.8"/>
	<path class="st8" d="M56.3,73.6c0,0,0.4,0.3,0.9,0.7c0.4,0.5,0.6,0.9,0.7,0.9c0,0-0.1-0.5-0.6-1C56.9,73.8,56.3,73.6,56.3,73.6z"/>
	<path class="st8" d="M56.5,73.8c0,0,0.4,0,0.9,0.1c0.5,0.1,0.9,0.1,0.9,0.1c-0.3-0.1-0.6-0.2-0.9-0.2
		C57.1,73.7,56.8,73.7,56.5,73.8z"/>
	<path class="st8" d="M53.6,57.2c0,0.1,0,0.2,0,0.2c0,0.1,0,0.2,0.1,0.3c0,0.1,0.1,0.2,0.1,0.4c0.3,0.8,0.7,1.6,1.1,2.3
		c0.6,0.9,1.4,1.9,2.3,3c0.5,0.6,0.9,1.2,1.3,1.8c0.4,0.7,0.8,1.4,1.1,2.1c0.7,1.5,1.3,3,1.7,4.3c0.5,1.4,0.9,2.6,1.2,3.6
		c0.3,1,0.6,1.9,0.8,2.5c0.1,0.3,0.2,0.5,0.2,0.7c0,0.1,0.1,0.2,0.1,0.2c0-0.1,0-0.2-0.1-0.2l-0.2-0.7c-0.2-0.6-0.4-1.4-0.7-2.5
		c-0.3-1-0.7-2.3-1.2-3.6c-0.5-1.4-1-2.8-1.7-4.4c-0.3-0.7-0.7-1.5-1.1-2.1c-0.4-0.6-0.8-1.3-1.3-1.8c-0.9-1.1-1.7-2.1-2.3-3
		c-0.5-0.7-0.9-1.5-1.2-2.3c0-0.1-0.1-0.3-0.1-0.4l-0.1-0.3C53.6,57.3,53.6,57.3,53.6,57.2z"/>
	<path class="st8" d="M65.6,92.1c0.1,0,0.2,0,0.3,0l0.9-0.1c0.7-0.1,1.7-0.3,2.8-0.5c1.1-0.2,2.1-0.4,2.8-0.6l0.9-0.2
		c0.1,0,0.2,0,0.3-0.1c-0.1,0-0.2,0-0.3,0l-0.9,0.1c-0.7,0.1-1.7,0.3-2.8,0.5c-1.1,0.2-2.1,0.4-2.8,0.6l-0.9,0.2
		C65.8,92.1,65.7,92.1,65.6,92.1z"/>
	<path class="st8" d="M66.8,90.4c0,0.3,0,0.5,0.2,0.8c0.1,0.3,0.3,0.5,0.5,0.6c0,0-0.2-0.3-0.4-0.7C66.9,90.7,66.8,90.4,66.8,90.4z"
		/>
	<path class="st8" d="M68.2,91c0,0,0,0.1,0,0.3c0,0.2,0.1,0.3,0.1,0.3c0,0,0-0.1,0-0.3C68.3,91.1,68.2,91,68.2,91z"/>
	<path class="st8" d="M46.7,86.3c0.1,0.1,0.2,0.2,0.2,0.2l0.7,0.6c0.6,0.5,1.4,1.2,2.3,2c0.9,0.8,1.7,1.5,2.3,2l0.7,0.6
		c0.1,0.1,0.2,0.1,0.3,0.2c-0.1-0.1-0.2-0.2-0.2-0.2L52.3,91c-0.6-0.5-1.4-1.2-2.3-2c-0.9-0.8-1.7-1.5-2.3-2L47,86.5
		C46.9,86.4,46.8,86.4,46.7,86.3z"/>
	<path class="st8" d="M49.7,86.8c-0.3,0.1-0.5,0.4-0.6,0.6C49,87.6,49,87.9,49,88.2C49.1,87.7,49.3,87.2,49.7,86.8z"/>
	<path class="st8" d="M48.7,86.8c0,0-0.1,0.1-0.1,0.2c-0.1,0.2-0.1,0.4,0,0.5c0,0.2,0.1,0.4,0.2,0.5c0.1,0.1,0.2,0.2,0.2,0.1
		c-0.1-0.2-0.2-0.4-0.3-0.7C48.7,87.2,48.7,87,48.7,86.8L48.7,86.8z"/>
	<path class="st11" d="M78.4,46.8l1.8,0.9l3.1,1.5c0.2,0.1,0.4,0.2,0.5,0.4l1.1,2h-2.2l-0.6-1c-0.4,0.1-0.8,0.1-1.1,0
		c-0.4-0.1-0.7-0.3-1-0.6L76.9,49L78.4,46.8z"/>
	<path class="st11" d="M82.3,50.2c0.2,0.8,0.3,1.6,0.3,2.4c0,0.1,0,0.2-0.1,0.3c-0.1,0.1-0.2-0.1-0.3-0.2c-0.1-0.2-0.7-1.1-0.7-1.1
		c-0.4,0-0.7-0.2-1-0.5c-0.3-0.3-0.4-0.6-0.4-1"/>
	<path class="st12" d="M80.3,50.1c0,0.1,0,0.1,0,0.2c0,0.2,0.1,0.3,0.1,0.4c0.1,0.2,0.2,0.4,0.4,0.6c0.2,0.2,0.5,0.3,0.8,0.3l0,0
		c0.2,0.3,0.4,0.6,0.6,0.9c0,0,0.1,0.1,0.1,0.1c0,0,0.1,0.1,0.1,0.1c0,0.1,0.1,0.1,0.2,0.1c0,0,0.1,0,0.1,0c0,0,0.1-0.1,0.1-0.1
		c0-0.1,0-0.2,0-0.3c0-0.1,0-0.2,0-0.3c0-0.3-0.1-0.7-0.1-1c-0.1-0.3-0.1-0.5-0.2-0.7c0-0.1,0-0.2-0.1-0.2c0,0.1,0,0.2,0,0.3
		c0,0.2,0.1,0.4,0.1,0.7c0,0.3,0.1,0.6,0.1,1l0,0.3c0,0.1,0,0.2,0,0.3c0,0,0,0.1-0.1,0c0,0-0.1,0-0.1-0.1l-0.1-0.1
		c0,0-0.1-0.1-0.1-0.1c-0.2-0.3-0.4-0.6-0.6-0.9l0,0h0c-0.3,0-0.6-0.1-0.8-0.3c-0.2-0.1-0.3-0.3-0.4-0.5
		C80.3,50.5,80.3,50.3,80.3,50.1z"/>
	<path class="st9" d="M63.2,32.9L58,32.8c-2.9,0.1-4,1.7-4,1.7l1.2,6.8l0.8,3.6l-2.4,9.3l12-0.3l-0.1-7.1c0,0,0.4-1.4,0.8-3.3
		c0.5,1.1,1.1,2,1.6,2.3c0.8,0.4,10.3,4,10.3,4l1.3-2.9l-9.5-4.8l-3.5-6.5c-0.4-0.7-0.8-1.2-1.4-1.7C64.6,33.4,63.9,33.1,63.2,32.9"
		/>
	<path class="st17" d="M55.2,51.3l-0.6-0.4L54.2,52L55.2,51.3z"/>
	<path class="st9" d="M63.2,32.9l-0.4-1.2l-0.2-0.1l-0.8,1l-1.1-1H58l-0.3,1.4l3.7,0.5L63.2,32.9z"/>
	<path class="st7" d="M61.7,32.5c-0.1-0.1-0.2-0.1-0.3-0.2c-0.2-0.1-0.5-0.3-0.8-0.5c0,0,0,0,0,0s0,0,0,0s0,0,0,0c0,0,0,0,0,0
		c0,0,0,0,0,0c-0.1,0.5-0.2,1-0.3,1.6c0,0.1,0,0.1,0,0.2l0.1,0c-0.7-0.3-1.3-0.5-1.8-0.6c-0.2-0.1-0.4-0.1-0.5-0.2
		c-0.1,0-0.1,0-0.2-0.1c0.1,0,0.1,0.1,0.2,0.1l0.5,0.2c0.4,0.2,1.1,0.4,1.8,0.7c0,0,0,0,0,0c0,0,0,0,0,0c0,0,0,0,0,0
		c0-0.1,0-0.1,0-0.2c0.1-0.6,0.2-1.1,0.2-1.6l-0.1,0c0.3,0.2,0.6,0.3,0.8,0.4C61.5,32.5,61.6,32.5,61.7,32.5z"/>
	<path class="st7" d="M63.2,32.9c-0.1,0.3-0.2,0.5-0.3,0.8h0.1c-0.1-0.3-0.1-0.6-0.2-0.9c-0.1-0.3-0.2-0.6-0.2-0.9c0,0,0,0,0,0
		c0,0,0,0,0,0c0,0,0,0,0,0c-0.2,0.2-0.4,0.4-0.6,0.7c0.2-0.2,0.5-0.4,0.7-0.6l-0.1,0l0.2,0.9c0.1,0.3,0.2,0.7,0.2,0.9c0,0,0,0,0,0
		c0,0,0,0,0,0c0,0,0,0,0,0c0,0,0,0,0,0C63,33.5,63.1,33.2,63.2,32.9z"/>
	<path class="st7" d="M62,35.4c0,0-0.1-0.1-0.2,0c0,0-0.1,0.1-0.1,0.1c0,0,0,0.1,0,0.1c0,0,0,0.1,0.1,0.1c0,0,0.1,0.1,0.1,0.1
		c0,0,0.1,0,0.1,0c0,0,0.1,0,0.1-0.1c0,0,0-0.1,0-0.1c0,0,0-0.1,0-0.1C62.1,35.4,62,35.4,62,35.4c0,0,0.1,0,0.1,0.1c0,0,0,0,0,0.1
		c0,0,0,0,0,0.1c0,0,0,0-0.1,0c0,0-0.1,0-0.1,0c0,0,0,0-0.1,0c0,0,0,0,0-0.1c0,0,0,0,0-0.1s0,0,0-0.1C61.9,35.4,62,35.4,62,35.4z"/>
	<path class="st7" d="M62.3,37.6c0,0-0.1-0.1-0.2,0c0,0-0.1,0.1-0.1,0.1c0,0,0,0.1,0,0.1c0,0,0,0.1,0.1,0.1s0.1,0.1,0.1,0.1
		c0,0,0.1,0,0.1,0c0,0,0.1,0,0.1-0.1c0,0,0-0.1,0-0.1c0,0,0-0.1,0-0.1C62.5,37.6,62.4,37.6,62.3,37.6c0,0,0.1,0,0.1,0.1
		c0,0,0,0,0,0.1c0,0,0,0,0,0.1c0,0,0,0-0.1,0c0,0-0.1,0-0.1,0c0,0,0,0-0.1,0c0,0,0,0,0-0.1c0,0,0,0,0-0.1c0,0,0,0,0,0
		C62.3,37.6,62.3,37.6,62.3,37.6z"/>
	<path class="st7" d="M62.6,39.6c0,0-0.1-0.1-0.2,0c0,0-0.1,0.1-0.1,0.1c0,0,0,0.1,0,0.1c0,0,0,0.1,0.1,0.1c0,0,0.1,0.1,0.1,0.1
		c0,0,0.1,0,0.1,0c0,0,0.1,0,0.1-0.1c0,0,0-0.1,0-0.1c0,0,0-0.1,0-0.1C62.7,39.6,62.6,39.6,62.6,39.6c0,0,0.1,0,0.1,0.1
		c0,0,0,0,0,0.1c0,0,0,0,0,0.1c0,0,0,0-0.1,0c0,0-0.1,0-0.1,0c0,0,0,0-0.1,0c0,0,0,0,0-0.1c0,0,0,0,0-0.1s0,0,0-0.1
		C62.5,39.6,62.6,39.6,62.6,39.6z"/>
	<path class="st7" d="M61.7,33.4c0,0-0.1-0.1-0.2,0c0,0-0.1,0.1-0.1,0.1c0,0,0,0.1,0,0.1c0,0,0,0.1,0.1,0.1c0,0,0.1,0.1,0.1,0.1
		c0,0,0.1,0,0.1,0c0,0,0.1,0,0.1-0.1c0,0,0-0.1,0-0.1c0,0,0-0.1,0-0.1C61.8,33.4,61.7,33.4,61.7,33.4c0,0,0.1,0,0.1,0.1
		c0,0,0,0,0,0.1c0,0,0,0,0,0.1c0,0,0,0-0.1,0c0,0-0.1,0-0.1,0c0,0,0,0-0.1,0c0,0,0,0,0-0.1c0,0,0,0,0-0.1c0,0,0,0,0-0.1
		C61.6,33.4,61.7,33.5,61.7,33.4z"/>
	<path class="st6" d="M60.5,33.1c0,0,0.5,0,1.1,0c0.6,0,1.1,0,1.1,0s-0.5,0-1.1,0C61,33.1,60.5,33.1,60.5,33.1z"/>
	<path class="st6" d="M57.8,32c0,0,0.6,0.2,1.3,0.4c0.7,0.2,1.3,0.3,1.3,0.3c0,0-0.6-0.2-1.3-0.4C58.4,32.1,57.9,32,57.8,32z"/>
	<path class="st6" d="M62.7,32.7c0,0,0.1-0.1,0.2-0.1c0.1-0.1,0.1-0.2,0.1-0.2c0,0-0.1,0.1-0.2,0.1C62.7,32.6,62.7,32.7,62.7,32.7z"
		/>
	<g class="st13">
		<path d="M56.8,40.5c-0.2,0.7-1,3.3-1,3.3l0.3,1.2l-0.3,1.2l1.5,1.1c0.7-1,0.6-3.5,0.4-4.7c-0.2-1.7-0.2-2.7-0.3-4
			C57.4,38.6,56.9,40.2,56.8,40.5z"/>
	</g>
	<path class="st7" d="M63.3,40.8c0-0.1,0-0.2,0-0.3c0-0.3,0-0.6,0-0.9c-0.1-1-0.2-2-0.5-3c-0.3-1.1-0.5-2.2-0.7-2.9
		c-0.1-0.4-0.2-0.7-0.2-0.9c0-0.1-0.1-0.2-0.1-0.3c0,0.1,0,0.2,0.1,0.3c0,0.2,0.1,0.5,0.2,0.9c0.2,0.7,0.4,1.8,0.7,2.9
		c0.3,1,0.4,1.9,0.5,2.9c0,0.4,0,0.7,0,0.9C63.2,40.6,63.2,40.7,63.3,40.8z"/>
	<path class="st7" d="M66.3,54.8c0,0,0.6-12.9,0.4-13.4c-0.1-0.5-8.4-0.8-8.5-0.4c0,0.3-0.1,7.9-0.7,8.9c-0.6,1-4.3,2.5-4.3,2.5
		s-0.1,2,0,2.7c0,0.4,5.9,2.1,5.9,2.1L66.3,54.8z"/>
	<path class="st8" d="M60.6,43.4c0,0,0.1,0.1,0.2,0.1c0.1,0.1,0.1,0.1,0.2,0.1c0.1,0.1,0.2,0.1,0.3,0.2c0.3,0.1,0.5,0.2,0.8,0.3
		c0.7,0.2,1.4,0.3,2.1,0.2c0.3,0,0.6-0.1,0.8-0.2c0.1,0,0.2-0.1,0.3-0.1c0.1,0,0.2-0.1,0.2-0.1c0.1,0,0.1-0.1,0.2-0.1
		c0,0-0.3,0.1-0.7,0.3c-0.3,0.1-0.5,0.1-0.8,0.2c-0.7,0.1-1.4,0-2-0.2c-0.3-0.1-0.5-0.2-0.8-0.3C60.9,43.6,60.6,43.4,60.6,43.4z"/>
	<path class="st8" d="M60.6,44.1c0,0.1,0.1,0.1,0.2,0.2c0.1,0.1,0.3,0.3,0.5,0.4c0.1,0.1,0.2,0.2,0.4,0.2s0.3,0.2,0.4,0.2
		c0.3,0.2,0.7,0.3,1.1,0.3c0.4,0,0.7,0,1.1,0c0.3-0.1,0.6-0.2,0.8-0.3c0.1-0.1,0.2-0.1,0.3-0.2c0.1,0,0.1-0.1,0.2-0.2
		c0.1,0,0.1-0.1,0.2-0.2c0,0-0.2,0.2-0.7,0.4c-0.3,0.1-0.5,0.2-0.8,0.3c-0.4,0.1-0.7,0.1-1.1,0c-0.4,0-0.7-0.1-1-0.3
		c-0.2-0.1-0.3-0.1-0.4-0.2c-0.1-0.1-0.2-0.1-0.4-0.2C60.9,44.3,60.7,44.1,60.6,44.1z"/>
	<path class="st8" d="M61,49C61,49,61,49,61,49c0.1,0.1,0.2,0.1,0.3,0.1c0.3,0.1,0.6,0.2,0.9,0.2c0.5,0,0.9-0.1,1.4-0.2
		c0.5-0.2,1-0.6,1.3-1c0.3-0.5,0.6-1,0.7-1.5c0.1-0.4,0.2-0.9,0.2-1.4c0-0.4,0-0.7,0-0.9c0-0.1,0-0.2,0-0.3c0,0.1,0,0.2,0,0.3
		c0,0.2,0,0.5-0.1,0.9c0,0.5-0.1,0.9-0.2,1.3c-0.1,0.5-0.4,1-0.7,1.5c-0.3,0.4-0.8,0.8-1.3,1c-0.4,0.2-0.9,0.3-1.3,0.3
		c-0.3,0-0.6-0.1-0.9-0.1C61.1,49,61,49,61,49z"/>
	<path class="st9" d="M57.5,37.2c-0.2-2.5-2.3-4.9-3.8-2.3c-1.4,2.3-3.5,8.2-3.7,11.9c-0.1,1.7,11,8.2,11.7,8.6c0,0,0.1-0.2,0.2-0.3
		l2.1-2.9c0,0-0.7-0.5-0.7-0.5l-8-5.9c0,0,0,0,0,0c0,0,0,0,0,0C55.3,45.2,57.6,39.1,57.5,37.2C57.5,37.2,57.5,37.2,57.5,37.2z"/>
	<path class="st7" d="M53,46.1c0,0,0.5-0.2,1.1-0.3c0.6-0.1,1.1-0.1,1.1-0.1c0,0-0.5-0.2-1.1-0.1C53.4,45.8,53,46,53,46.1z"/>
	<path class="st7" d="M53.5,46.8c0,0,0.3-0.3,0.7-0.6s0.8-0.4,0.8-0.5c0,0-0.5,0-0.9,0.3C53.7,46.4,53.5,46.8,53.5,46.8z"/>
	<path class="st7" d="M63.9,52.1c0,0-0.1-0.1-0.1-0.1l-0.4-0.3l-1.6-1.2l-5.2-3.8l-1.4-1l0,0.1c0.6-2,1.2-3.8,1.6-5
		c0.2-0.6,0.4-1.1,0.5-1.5c0.1-0.2,0.1-0.3,0.1-0.4c0,0,0-0.1,0-0.1c0,0,0,0.1-0.1,0.1c0,0.1-0.1,0.2-0.1,0.4
		c-0.1,0.4-0.3,0.9-0.5,1.5c-0.4,1.3-1,3-1.7,5c0,0,0,0,0,0c0,0,0,0,0,0l1.4,1l5.2,3.8l1.6,1.1l0.4,0.3C63.8,52,63.8,52.1,63.9,52.1
		z"/>
	<path class="st6" d="M52.9,36.3c0,0,3.1,0,7,0s7,0,7,0s-3.1,0-7,0S52.9,36.3,52.9,36.3z"/>
	<path class="st6" d="M52,38.3c0,0,3.6,0,8,0c4.4,0,8,0,8,0c0,0-3.6,0-8,0C55.6,38.3,52,38.3,52,38.3z"/>
	<path class="st6" d="M51.3,40.3c0,0,4,0.1,8.9,0.1c4.9,0,8.9,0.1,8.9,0.1c0,0-4-0.1-8.9-0.1C55.3,40.3,51.3,40.2,51.3,40.3z"/>
	<path class="st6" d="M53.7,34.7c0,0,2.7,0,6.1,0c3.4,0,6.1,0,6.1,0s-2.7,0-6.1,0C56.5,34.7,53.7,34.7,53.7,34.7z"/>
	<path class="st6" d="M50.7,42.5c0,0,1.7,0,3.8,0c2.1,0,3.8,0,3.8,0c0,0-1.7,0-3.8,0C52.4,42.5,50.7,42.5,50.7,42.5z"/>
	<path class="st6" d="M50.2,44.7c0,0,1.2,0,2.6,0c1.4,0,2.6,0,2.6,0c0,0-1.2,0-2.6,0C51.4,44.7,50.2,44.7,50.2,44.7z"/>
	<path class="st6" d="M52.6,49.5C52.6,49.5,52.6,49.5,52.6,49.5c0-0.1,0-0.1,0.1-0.2c0-0.1,0.1-0.3,0.2-0.5c0.4-1,1.1-2,1.9-2.6
		c0.2-0.1,0.3-0.2,0.4-0.3l0.1-0.1c0,0,0,0,0,0c0,0,0,0,0,0l-0.1,0.1c-0.1,0.1-0.3,0.2-0.4,0.3c-0.4,0.3-0.8,0.7-1.2,1.2
		c-0.3,0.5-0.6,0.9-0.8,1.5c-0.1,0.2-0.1,0.4-0.1,0.5L52.6,49.5C52.6,49.5,52.6,49.5,52.6,49.5z"/>
	<path class="st6" d="M55,51.1c0,0,0.6-0.8,1.3-1.8c0.7-1,1.3-1.8,1.3-1.8c0,0-0.6,0.8-1.3,1.8C55.5,50.3,55,51.1,55,51.1z"/>
	<path class="st6" d="M57.6,52.8c0,0,0.5-0.8,1.2-1.7c0.6-1,1.2-1.7,1.2-1.7c0,0-0.5,0.8-1.2,1.7C58.1,52,57.6,52.8,57.6,52.8z"/>
	<path class="st6" d="M59.9,53.9c0,0,0.5-0.7,1.1-1.5c0.6-0.8,1.1-1.5,1-1.5c0,0-0.5,0.7-1.1,1.5C60.3,53.2,59.9,53.9,59.9,53.9z"/>
	<path class="st6" d="M50.4,47.5L50.4,47.5l0.2-0.2c0.1-0.1,0.2-0.2,0.4-0.4c0.5-0.4,1-0.8,1.5-1.1c0.6-0.3,1.2-0.4,1.8-0.4
		c0.2,0,0.4,0,0.6,0.1c0.1,0,0.2,0,0.2,0c-0.2-0.1-0.5-0.1-0.8-0.1c-0.6,0-1.3,0.1-1.8,0.4c-0.6,0.3-1.1,0.6-1.5,1.1
		c-0.2,0.2-0.3,0.3-0.4,0.4L50.4,47.5C50.4,47.5,50.4,47.5,50.4,47.5z"/>
	<path class="st6" d="M66.8,42.8c0,0,0.7-0.2,1.5-0.5c0.8-0.3,1.5-0.6,1.5-0.6c0,0-0.7,0.2-1.5,0.5C67.5,42.5,66.8,42.8,66.8,42.8z"
		/>
	<path class="st6" d="M67.2,45.1c0,0,0.7-0.6,1.4-1.5c0.8-0.8,1.4-1.5,1.4-1.5c0,0-0.7,0.6-1.4,1.5C67.8,44.4,67.2,45.1,67.2,45.1z"
		/>
	<path class="st6" d="M69.5,46.4c0,0,0.1-0.1,0.1-0.1c0.1-0.1,0.1-0.2,0.2-0.4c0.2-0.3,0.4-0.7,0.7-1.2c0.3-0.5,0.5-0.9,0.6-1.3
		c0.1-0.2,0.1-0.3,0.2-0.4c0,0,0-0.1,0.1-0.1c0,0-0.1,0.1-0.1,0.1l-0.2,0.4c-0.2,0.3-0.4,0.8-0.7,1.3c-0.3,0.5-0.5,0.9-0.7,1.2
		l-0.2,0.4C69.6,46.3,69.5,46.3,69.5,46.4z"/>
	<path class="st6" d="M71.4,47.2c0,0,0.1-0.1,0.1-0.1l0.2-0.4c0.2-0.3,0.4-0.8,0.6-1.3c0.2-0.5,0.4-1,0.5-1.3l0.1-0.4
		c0,0,0-0.1,0-0.1c0,0,0,0.1-0.1,0.1l-0.2,0.4c-0.1,0.3-0.3,0.8-0.5,1.3c-0.2,0.5-0.4,0.9-0.6,1.3c-0.1,0.1-0.1,0.3-0.2,0.4
		C71.4,47.1,71.4,47.1,71.4,47.2z"/>
	<path class="st6" d="M73.5,48c0,0,0.3-0.8,0.7-1.7c0.3-1,0.6-1.7,0.6-1.8c0,0-0.3,0.8-0.7,1.7C73.7,47.2,73.5,48,73.5,48z"/>
	<path class="st6" d="M75.5,48.7c0,0,0.3-0.7,0.7-1.6s0.6-1.6,0.6-1.6c0,0-0.3,0.7-0.7,1.6C75.8,48,75.5,48.7,75.5,48.7z"/>
	<path class="st6" d="M77,49.3c0,0,0-0.1,0.1-0.1l0.2-0.3c0.1-0.3,0.3-0.6,0.5-1.1s0.3-0.8,0.4-1.1l0.1-0.3c0,0,0-0.1,0-0.1
		c0,0,0,0.1-0.1,0.1c0,0.1-0.1,0.2-0.1,0.3c-0.1,0.3-0.3,0.7-0.5,1.1c-0.2,0.4-0.4,0.8-0.5,1.1L77,49.2C77,49.3,77,49.3,77,49.3z"/>
	<path class="st6" d="M55.5,33.4c0,0,0,0.1-0.1,0.3l-0.3,0.8c-0.2,0.7-0.6,1.6-1,2.8c-0.8,2.4-1.9,5.6-3.2,9.2l0,0.1c0,0,0,0,0,0
		c0,0,0,0,0,0c3,2.3,5.8,4.3,7.8,5.7c1,0.7,1.8,1.3,2.4,1.6l0.7,0.4l0.2,0.2l-0.2-0.2l-0.7-0.4c-0.6-0.4-1.4-0.9-2.4-1.6
		c-2-1.4-4.8-3.4-7.8-5.7v0l0-0.1c1.2-3.6,2.4-6.8,3.2-9.2c0.4-1.2,0.7-2.1,1-2.8c0.1-0.3,0.2-0.6,0.3-0.8
		C55.4,33.5,55.5,33.4,55.5,33.4z"/>
	<path class="st6" d="M57.1,33.5c0,0,0,0.1-0.1,0.2c0,0.2-0.1,0.4-0.2,0.7c-0.2,0.6-0.4,1.5-0.6,2.5l-2.1,8.3L54,45.8c0,0,0,0,0,0
		c0,0,0,0,0,0c2.5,2,4.8,3.8,6.5,5.1l2,1.5l0.5,0.4l0.2,0.1c0,0-0.1-0.1-0.2-0.1l-0.5-0.4l-1.9-1.6L54,45.8v0c0-0.2,0.1-0.3,0.1-0.5
		c0.8-3.3,1.5-6.2,2.1-8.3l0.6-2.5l0.2-0.7C57.1,33.6,57.1,33.5,57.1,33.5z"/>
	<path class="st6" d="M57.1,46.9c0,0,0,0,0-0.1c0-0.1,0-0.2,0.1-0.4c0.1-0.4,0.2-0.9,0.3-1.5c0.1-0.6,0.2-1.4,0.4-2.2
		c0.1-0.4,0.2-0.8,0.2-1.3c0-0.5,0.1-0.9,0.1-1.4c0.1-1.9,0.1-3.7,0.1-4.9c0-0.6,0-1.1,0-1.5c0-0.2,0-0.3,0-0.4c0-0.1,0-0.1,0-0.1
		s0,0,0,0.1c0,0.1,0,0.2,0,0.4c0,0.4,0,0.9,0,1.5c0,1.3-0.1,3-0.2,4.9c0,0.5,0,1-0.1,1.4s-0.1,0.9-0.2,1.3c-0.1,0.8-0.3,1.6-0.4,2.2
		c-0.1,0.6-0.2,1.1-0.3,1.5c0,0.2,0,0.3-0.1,0.4C57.1,46.9,57.1,46.9,57.1,46.9z"/>
	<path class="st6" d="M60.4,32.9C60.4,32.9,60.4,32.9,60.4,32.9c0,0.1,0,0.2,0.1,0.3c0,0.2,0.1,0.5,0.2,0.8c0.1,0.7,0.3,1.7,0.4,2.8
		c0.1,1.1,0.2,2.1,0.2,2.8c0,0.4,0,0.6,0,0.8c0,0.1,0,0.2,0,0.2c0,0,0,0.1,0,0.1c0,0,0-0.1,0-0.1c0-0.1,0-0.1,0-0.2
		c0-0.2,0-0.5,0-0.8c0-0.7-0.1-1.7-0.2-2.8c-0.1-1.1-0.3-2.1-0.4-2.8c-0.1-0.3-0.1-0.6-0.2-0.8L60.4,32.9
		C60.4,32.9,60.4,32.9,60.4,32.9z"/>
	<path class="st6" d="M63.4,33.1C63.4,33.1,63.4,33.1,63.4,33.1c0,0.1,0.1,0.2,0.1,0.3c0.1,0.2,0.1,0.5,0.2,0.8
		c0.5,1.8,0.8,3.7,0.8,5.6c0,0.4,0,0.7,0,0.9c0,0.1,0,0.2,0,0.2s0,0.1,0,0.1s0,0,0-0.1s0-0.1,0-0.2c0-0.2,0-0.5,0-0.9
		c0-0.9-0.1-1.9-0.2-2.8c-0.1-0.9-0.3-1.9-0.6-2.8c-0.1-0.4-0.2-0.6-0.2-0.8L63.4,33.1C63.4,33.1,63.4,33.1,63.4,33.1z"/>
	<path class="st6" d="M78.9,48.4l-0.2-0.1l-0.6-0.2l-2.2-0.9l-7.2-3l-0.3-0.1l0,0c-0.4-2.5-1-4.9-1.9-7.3c-0.3-0.9-0.6-1.6-0.9-2.1
		c-0.2-0.5-0.3-0.8-0.3-0.8l0.1,0.2l0.2,0.6c0.2,0.5,0.5,1.2,0.8,2.1c0.9,2.4,1.5,4.8,1.9,7.3c0,0,0,0,0,0c0,0,0,0,0,0l0.3,0.1
		l7.2,3l2.2,0.9l0.6,0.2L78.9,48.4z"/>
	<path class="st6" d="M58.8,33.1c0.1-0.3,0.1-0.5,0.2-0.8c0.1-0.3,0.1-0.5,0.2-0.8c-0.1,0.3-0.1,0.5-0.2,0.8
		C58.9,32.6,58.8,32.9,58.8,33.1z"/>
	<g class="st18">
		<path d="M58.9,40.9c-0.1-1.2-0.3-2.3-0.6-3.5c-0.3-1.3-0.8-2.6-1.5-3.8c-0.1-0.1-0.2-0.3-0.1-0.5c0.1-0.1,0.4,0,0.5,0.1
			c0.9,0.9,1.5,2.1,1.9,3.3c0.3,1.2,0.4,2.5,0.5,3.8c0,0.2,0,0.5,0,0.5L58.9,40.9z"/>
	</g>
	<path class="st7" d="M57.6,32.9c0,0,3.1,3.3,2.8,9.1l-1.1-0.1c0,0-0.1-6.3-2.7-8.9C56.9,32.9,57.3,32.8,57.6,32.9z"/>
	<path class="st8" d="M59.3,40.6c0,0.2,0,0.4,0,0.6c0,0.2,0,0.5,0.1,0.7c0,0.1,0.1,0.3,0.2,0.4c0.1,0,0.1,0.1,0.2,0.1
		c0.1,0,0.2,0,0.2,0c0.1,0,0.2,0,0.2-0.1c0.1,0,0.1-0.1,0.2-0.2c0.1-0.1,0.1-0.3,0.1-0.4c0-0.3,0-0.5,0-0.7c0-0.2,0-0.4-0.1-0.6
		c0,0,0,0.2,0,0.6c0,0.2,0,0.4,0,0.7c0,0.1,0,0.2-0.1,0.4c0,0.1-0.1,0.1-0.1,0.1c-0.1,0-0.1,0.1-0.2,0.1c-0.1,0-0.3,0-0.4-0.1
		c-0.1-0.1-0.1-0.2-0.2-0.3c-0.1-0.2-0.1-0.5-0.1-0.7C59.4,41,59.3,40.8,59.3,40.6z"/>
	<path class="st8" d="M59.6,41.6c0,0,0,0.1,0,0.1c0,0,0.1,0.1,0.1,0.1c0,0,0.1,0,0.1,0c0,0,0.1,0,0.1-0.1c0,0,0.1-0.1,0.1-0.1
		c0,0,0-0.1,0-0.1c0,0,0-0.1-0.1-0.1c0,0-0.1,0-0.1,0c-0.1,0-0.1,0-0.2,0.1C59.7,41.5,59.6,41.6,59.6,41.6z"/>
	<g class="st18">
		<path d="M64.8,41c0.2-2.3-0.3-4.6-1-6.9c-0.1-0.4-0.4-0.9-0.3-1c0.1,0,0.6,0.8,0.6,0.8c1.1,2.2,1.6,4.6,1.3,7.1"/>
	</g>
	<path class="st7" d="M64.1,33.3c0,0,2.5,2.9,2.4,8.7l-1.1-0.1c0,0,0-6.4-2.3-9C63.5,32.9,63.9,33,64.1,33.3z"/>
	<path class="st8" d="M65.4,40.8c0,0.2,0,0.4,0,0.6c0,0.2,0,0.5,0.1,0.7c0,0.1,0.1,0.3,0.2,0.4c0.1,0.1,0.1,0.1,0.2,0.1
		c0.1,0,0.2,0,0.2,0c0,0,0.1,0,0.1,0l0.1-0.1c0.1,0,0.1-0.1,0.2-0.2c0.1-0.1,0.1-0.3,0.1-0.4c0-0.2,0-0.5,0-0.7c0-0.2,0-0.4-0.1-0.6
		c0,0,0,0.2,0,0.6c0,0.2,0,0.4,0,0.7c0,0.1,0,0.2-0.1,0.4c0,0.1-0.1,0.1-0.1,0.1c0,0-0.1,0-0.1,0c0,0-0.1,0-0.1,0
		c-0.1,0-0.1,0-0.2,0c-0.1,0-0.1,0-0.2-0.1c-0.1-0.1-0.1-0.2-0.1-0.3c0-0.2-0.1-0.4-0.1-0.7C65.4,41.2,65.4,41,65.4,40.8z"/>
	<path class="st8" d="M65.7,41.9c0,0,0,0.1,0,0.1c0,0,0.1,0.1,0.1,0.1c0,0,0.1,0,0.1,0c0,0,0.1,0,0.1-0.1c0,0,0.1-0.1,0.1-0.1
		c0,0,0-0.1,0-0.1c0,0,0-0.1-0.1-0.1c0,0-0.1,0-0.1,0c-0.1,0-0.1,0-0.2,0.1C65.7,41.8,65.7,41.8,65.7,41.9z"/>
	<path class="st6" d="M56,45c0,0,0.5,0,1.1,0.1c0.6,0,1.1,0,1.1,0c0,0-0.5,0-1.1-0.1C56.5,45,56,45,56,45z"/>
	<path class="st8" d="M55.2,55.1c0,0.1,0.1,0.1,0.1,0.2c0.1,0.1,0.3,0.2,0.4,0.3c0.3,0.1,0.5,0.2,0.8,0.3c0.3,0,0.6,0,0.9-0.1
		c0.3-0.1,0.6-0.2,0.8-0.4c0.2-0.2,0.4-0.4,0.6-0.7c0.1-0.2,0.2-0.3,0.2-0.5c0-0.1,0-0.1,0-0.2c-0.1,0.2-0.2,0.4-0.3,0.7
		c-0.3,0.5-0.8,0.9-1.3,1c-0.6,0.2-1.1,0.1-1.7-0.2C55.6,55.3,55.4,55.2,55.2,55.1z"/>
	<path class="st11" d="M63,55.8L61.8,55l1.6-2.2l0.2,0.2c0.4,0,0.8,0.1,1.1,0c0.2,0,0.4-0.1,0.6-0.1c0.2-0.1,0.5-0.2,0.7-0.3
		c0,0,0.1-0.1,0.1-0.1s0.1,0,0.1,0c0,0,0.1,0.1,0.1,0.1c0,0,0,0.1,0,0.1c0,0.2-0.5,0.5-1.2,0.8c-0.6,0.3-0.3,0.9,0,1.1
		c0.3,0.2,1.6,1.1,1.6,1.1l-2,0.4c-0.3,0.1-0.6,0.1-0.9,0C63.5,56.1,63.2,56,63,55.8z"/>
	<path class="st12" d="M64.4,55.2c0.2,0.3,0.5,0.4,0.8,0.5c0.3,0.1,0.6,0.2,0.9,0.1c-0.3-0.1-0.6-0.1-0.9-0.2
		C64.9,55.5,64.6,55.4,64.4,55.2z"/>
	<path class="st12" d="M63.8,55.6c0,0,0.1,0.2,0.4,0.4c0.1,0.1,0.2,0.1,0.3,0.1c0.1,0,0.2,0,0.3,0c0,0-0.2-0.1-0.5-0.2
		C64,55.8,63.9,55.6,63.8,55.6z"/>
	<path class="st9" d="M56.1,55.6c0,0,0,2,0.8,2.5c0.1,0,0.2,0.1,0.2,0.2c0,0,0,0.1,0,0.1c0,0,0,0.1,0,0.1c-0.1,0.1-0.2,0-0.3,0
		c-0.3-0.2-0.6-0.4-0.9-0.7c0,0.8,0,1.5,0,2.3c0,0.1,0,0.3,0,0.4c0,0.1-0.1,0.1-0.1,0.1c-0.1,0-0.1,0.1-0.2,0.1
		c-0.2,0-0.3-0.3-0.3-0.6c0-0.6,0-1.2,0-1.8l-0.1,1.8c0,0.2-0.1,0.5-0.3,0.5c-0.2,0-0.2-0.3-0.2-0.5l0.2-2.3
		c-0.1,0.6-0.2,1.1-0.3,1.7c0,0.1,0,0.1-0.1,0.2c0,0.1-0.1,0.1-0.1,0.2c0,0-0.1,0-0.1,0c0,0-0.1,0-0.1,0c0,0-0.1,0-0.1-0.1
		c0,0-0.1-0.1-0.1-0.1c-0.1-0.2-0.1-0.4,0-0.5c0.1-0.6,0.2-1.2,0.3-1.9c-0.1,0.5-0.2,0.9-0.4,1.3c0,0,0,0.1-0.1,0.1s-0.1,0-0.1,0
		c0,0-0.1,0-0.1,0c0,0-0.1-0.1-0.1-0.1c0,0,0,0,0,0c0-0.1,0-0.2,0-0.3l0.5-2.1c0.2-0.8,0.4-1.6,1-2.1c0.3-0.2,0.6-0.3,1-0.4
		c0.3-0.1,0.7,0,1,0.1c0.7,0.2,1.3,0.6,1.8,1C58.6,54.9,57.6,56.2,56.1,55.6z"/>
	<path class="st7" d="M57.2,54.8c0,0-0.1-0.1-0.2-0.1c-0.2,0-0.4,0.1-0.5,0.2c-0.2,0.1-0.3,0.3-0.3,0.5c0,0.1,0,0.2,0,0.2
		c0,0,0-0.1,0.1-0.2c0.1-0.2,0.2-0.3,0.3-0.4c0.1-0.1,0.3-0.2,0.5-0.2C57.1,54.9,57.2,54.9,57.2,54.8z"/>
	<path class="st7" d="M57,55.4c0,0-0.2-0.1-0.5-0.1c-0.3,0-0.4,0.2-0.4,0.2c0,0,0.2-0.1,0.4-0.1C56.8,55.3,57,55.4,57,55.4z"/>
	<g class="st19">
		<path d="M56.1,55.7c0,0,0.1,0,0.2,0.1c0.1,0,0.3,0.1,0.4,0.1c0.2,0,0.4,0,0.6,0c0,0,0.1,0,0.1,0c0,0,0.1-0.1,0.1-0.1
			c0,0,0-0.1,0-0.1c0,0,0-0.1-0.1-0.1c-0.2-0.2-0.4-0.4-0.6-0.5c-0.2,0.1-0.4,0.2-0.6,0.4C56.2,55.3,56.1,55.5,56.1,55.7z"/>
	</g>
</g>
</svg>
