<?xml version="1.0" encoding="utf-8"?>
<!-- Generator: Adobe Illustrator 27.0.0, SVG Export Plug-In . SVG Version: 6.00 Build 0)  -->
<svg version="1.1" id="Calque_1" xmlns="http://www.w3.org/2000/svg" xmlns:xlink="http://www.w3.org/1999/xlink" x="0px" y="0px"
	 viewBox="0 0 160 100" style="enable-background:new 0 0 160 100;" xml:space="preserve">
<style type="text/css">
	.st0{fill:#7897F4;fill-opacity:0.12;}
	.st1{clip-path:url(#SVGID_00000113321100229375015900000009024835793425269644_);}
	.st2{fill:#F5F5F5;}
	.st3{fill:#E0E0E0;}
	.st4{fill:#EBEBEB;}
	.st5{fill:#455A64;}
	.st6{fill:#263238;}
	.st7{fill:#FFBE9D;}
	.st8{fill:#EB996E;}
	.st9{fill:#FFFFFF;}
	.st10{fill:#4296CE;}
	.st11{opacity:0.3;}
</style>
<path class="st0" d="M-10.6-6.1h181.3c5.7,0,10.4,4.6,10.4,10.4v98.4c0,5.7-4.6,10.4-10.4,10.4H-10.6c-5.7,0-10.4-4.6-10.4-10.4V4.3
	C-21-1.4-16.3-6.1-10.6-6.1z"/>
<g>
	<defs>
		<rect id="SVGID_1_" x="7" y="13.5" width="130.7" height="86.3"/>
	</defs>
	<clipPath id="SVGID_00000148633737375628335400000005204923268607537855_">
		<use xlink:href="#SVGID_1_"  style="overflow:visible;"/>
	</clipPath>
	<g style="clip-path:url(#SVGID_00000148633737375628335400000005204923268607537855_);">
		<path class="st2" d="M96.9,18.7L85.8,36.6h5.1l10.8-17.9H96.9z"/>
		<path class="st3" d="M101.7,18.7l0.5,17.9H90.9L101.7,18.7z"/>
		<path class="st3" d="M99.9,18.7c-0.1,0.3-0.2,0.6-0.4,0.9c-0.4,0.7-0.9,1.3-1.5,1.7c-0.6,0.4-1.3,0.7-2.1,0.9
			c-0.3,0.1-0.6,0.1-0.9,0.1c0,0,0,0,0.1,0c0,0,0.1,0,0.2,0c0.2,0,0.5,0,0.7-0.1c0.8-0.1,1.5-0.4,2.1-0.9c0.6-0.4,1.1-1,1.5-1.7
			c0.1-0.2,0.2-0.4,0.3-0.6C99.8,18.9,99.9,18.8,99.9,18.7C99.9,18.8,99.9,18.7,99.9,18.7z"/>
		<path class="st3" d="M94.4,27.1C94.4,27.1,94.3,27.1,94.4,27.1c-0.1,0-0.2,0-0.2,0C94.1,27.1,94,27,94,27c0,0-0.1-0.1-0.1-0.2
			c0-0.1,0-0.1,0-0.2c0-0.3,0.2-0.6,0.5-0.9c0.3-0.3,0.6-0.6,1-0.8c0.2-0.1,0.5-0.2,0.7-0.2c0.1,0,0.3,0,0.4,0.1
			c0.1,0.1,0.2,0.2,0.3,0.3c0.1,0.3,0.1,0.6-0.1,0.9c-0.1,0.3-0.3,0.6-0.5,0.8c-0.4,0.5-0.9,1-1.5,1.3c-0.3,0.2-0.7,0.3-1,0.3
			c-0.2,0-0.4,0-0.5-0.1c-0.2-0.1-0.3-0.2-0.4-0.4c-0.2-0.3-0.2-0.7-0.2-1.1c0.1-0.4,0.2-0.7,0.4-1c0.4-0.6,0.8-1.1,1.4-1.5
			c0.5-0.4,1-0.7,1.5-1c0.5-0.3,1-0.6,1.4-0.8c0.9-0.5,1.6-0.8,2.1-1c0.5-0.2,0.8-0.3,0.8-0.3l-0.2,0.1l-0.6,0.2
			c-0.5,0.2-1.2,0.5-2.1,1c-0.4,0.2-0.9,0.5-1.4,0.8c-0.5,0.3-1,0.7-1.5,1c-0.5,0.4-1,0.9-1.4,1.5c-0.2,0.3-0.3,0.6-0.4,1
			c-0.1,0.4,0,0.7,0.2,1.1c0.1,0.2,0.2,0.3,0.4,0.4c0.2,0.1,0.3,0.1,0.5,0.1c0.4,0,0.7-0.1,1-0.3c0.6-0.3,1.1-0.8,1.5-1.3
			c0.2-0.2,0.4-0.5,0.5-0.8c0.1-0.3,0.2-0.6,0.1-0.9c0-0.1-0.1-0.2-0.2-0.3c-0.1-0.1-0.2-0.1-0.4-0.1c-0.3,0-0.5,0.1-0.7,0.2
			c-0.4,0.2-0.7,0.5-1,0.8c-0.2,0.3-0.4,0.6-0.5,0.9c0,0.1,0,0.2,0.1,0.3c0.1,0.1,0.1,0.1,0.2,0.1C94.3,27.1,94.3,27.1,94.4,27.1z"
			/>
		<path class="st3" d="M94.6,29.9c-0.2,0.2-0.4,0.3-0.6,0.5c-0.2,0.2-0.5,0.3-0.7,0.4c-0.3,0.1-0.6,0.2-1,0.3
			c-0.3,0.1-0.7,0.1-1,0.1c-0.3,0-0.6-0.1-0.8-0.1c-0.2-0.1-0.5-0.1-0.7-0.3c0,0,0,0,0,0l0.1,0.1c0.1,0,0.1,0.1,0.2,0.1
			c0.1,0,0.2,0.1,0.3,0.1C90.7,31,91,31,91.3,31c0.3,0,0.7,0,1-0.1c0.3-0.1,0.7-0.1,1-0.3c0.3-0.1,0.5-0.2,0.7-0.4
			c0.1-0.1,0.2-0.1,0.3-0.2c0.1,0,0.1-0.1,0.2-0.1L94.6,29.9C94.6,29.9,94.6,29.9,94.6,29.9z"/>
		<path class="st3" d="M93.3,32.8C93.2,32.8,93.2,32.8,93.3,32.8H93c-0.1,0-0.2,0-0.3,0c-0.1,0-0.3,0-0.4,0c-0.4,0-0.8,0.1-1.1,0.2
			c-0.9,0.2-1.8,0.6-2.6,1c-0.3,0.2-0.6,0.4-0.9,0.6c-0.1,0.1-0.2,0.2-0.3,0.3c-0.1,0.1-0.2,0.2-0.3,0.2l-0.2,0.1c0,0,0,0-0.1,0
			c0.2-0.3,0.5-0.5,0.8-0.7c0.3-0.2,0.6-0.4,0.9-0.6c0.8-0.5,1.7-0.8,2.6-1c0.4-0.1,0.7-0.1,1.1-0.2C92.6,32.7,92.9,32.7,93.3,32.8z
			"/>
		<path class="st2" d="M102.1,33.2c-0.1,0-0.2-0.1-0.3-0.1c-0.3-0.1-0.5-0.3-0.7-0.5c-0.3-0.3-0.5-0.6-0.9-1c-0.4-0.4-0.8-0.7-1.3-1
			c-0.9-0.5-1.9-0.7-2.9-0.6c-0.2,0-0.4,0-0.5,0.1c-0.1,0-0.3,0.1-0.4,0.1L95,30.2l-0.1,0l0.1,0l0.2-0.1c0.1,0,0.2-0.1,0.4-0.1
			c0.6-0.1,1.2-0.1,1.8,0c0.5,0.1,1.1,0.3,1.5,0.5c0.5,0.3,0.9,0.6,1.3,1c0.3,0.4,0.6,0.7,0.9,1c0.2,0.2,0.4,0.4,0.7,0.5
			C102,33.2,102.1,33.2,102.1,33.2z"/>
		<path class="st2" d="M98.3,24.5c0,0-0.1,0.1-0.2,0.3c-0.1,0.3-0.2,0.6-0.3,0.8c-0.1,0.4,0,0.9,0.1,1.3c0.1,0.5,0.4,1,0.7,1.4
			c0.7,0.9,1.6,1.5,2.2,1.9c0.3,0.2,0.6,0.3,0.8,0.5l0.2,0.1l0.1,0l-0.1,0l-0.2-0.1c-0.2-0.1-0.5-0.2-0.8-0.4
			c-0.6-0.4-1.6-1-2.3-1.9c-0.3-0.4-0.6-0.9-0.7-1.5c-0.1-0.4-0.1-0.9-0.1-1.3c0-0.3,0.1-0.6,0.3-0.8C98.2,24.7,98.3,24.6,98.3,24.5
			z"/>
		<path class="st2" d="M100.8,24.7C100.8,24.7,100.8,24.7,100.8,24.7c0.1,0.2,0.1,0.3,0.2,0.4c0,0.1,0.1,0.3,0.2,0.4
			c0,0.1,0.1,0.2,0.1,0.3c0,0.1,0.1,0.2,0.2,0.3c0,0,0,0,0.1,0s0.1,0,0.1,0c0,0,0.1-0.1,0.1-0.2c0-0.1,0-0.3,0-0.4
			c0-0.3-0.1-0.6-0.1-0.8c-0.1-0.3-0.2-0.6-0.4-0.9c-0.1-0.1-0.2-0.3-0.3-0.3c-0.1,0-0.2,0-0.2,0c-0.1,0-0.2,0.1-0.2,0.1
			c-0.2,0.3-0.3,0.6-0.3,0.9c0,0.3,0,0.6,0.1,0.9c0.1,0.5,0.4,1,0.7,1.4c0.2,0.3,0.4,0.6,0.7,0.8l0.2,0.2c0,0,0.1,0.1,0.1,0.1
			l-0.1-0.1l-0.2-0.2c-0.3-0.3-0.5-0.5-0.7-0.8c-0.3-0.4-0.6-0.9-0.7-1.4c-0.1-0.3-0.1-0.6-0.1-0.9c0-0.2,0-0.3,0.1-0.5
			c0-0.2,0.1-0.3,0.2-0.5c0.1-0.1,0.1-0.1,0.2-0.1c0.1,0,0.2,0,0.3,0c0.2,0.1,0.3,0.2,0.4,0.4c0.2,0.3,0.3,0.6,0.4,0.9
			c0.1,0.3,0.1,0.6,0.1,0.8c0,0.1,0,0.3,0,0.4c0,0.1,0,0.1-0.1,0.2c0,0-0.1,0-0.1,0s-0.1,0-0.1,0c-0.1-0.1-0.1-0.2-0.2-0.3l-0.1-0.3
			l-0.2-0.4C100.9,24.9,100.8,24.8,100.8,24.7C100.8,24.7,100.8,24.7,100.8,24.7z"/>
		<path class="st2" d="M97.9,34.1c0,0-0.1,0-0.2,0.1c-0.2,0-0.3,0.1-0.5,0.1c-0.3,0-0.5,0-0.8-0.1c-0.3-0.1-0.6-0.3-0.9-0.6
			c-0.1-0.1-0.3-0.3-0.3-0.5c0-0.1,0-0.2,0-0.3c0-0.1,0.1-0.2,0.1-0.3c0.2-0.2,0.4-0.3,0.6-0.3c0.2,0,0.5,0,0.7,0
			c0.5,0.1,1,0.3,1.5,0.6c0.5,0.3,0.9,0.7,1.2,1.3c0.1,0.3,0.2,0.6,0.2,0.9c0,0.1-0.1,0.3-0.1,0.4c-0.1,0.1-0.2,0.2-0.3,0.3
			c-0.2,0.1-0.5,0.2-0.8,0.2c-0.3,0-0.5,0-0.8,0c-1,0-1.9-0.2-2.6-0.5c-0.6-0.2-1.1-0.6-1.4-1.1c-0.1-0.1-0.2-0.3-0.3-0.4
			c0-0.1-0.1-0.2-0.1-0.2l0.1,0.2c0.1,0.1,0.2,0.3,0.3,0.4c0.4,0.5,0.9,0.9,1.4,1.1c0.7,0.3,1.6,0.5,2.6,0.5c0.3,0,0.5,0,0.8,0
			c0.3,0,0.5-0.1,0.8-0.2c0.1-0.1,0.2-0.2,0.3-0.3c0.1-0.1,0.1-0.3,0.1-0.4c0-0.3-0.1-0.6-0.2-0.8c-0.3-0.5-0.7-0.9-1.1-1.2
			c-0.4-0.3-0.9-0.5-1.5-0.6c-0.2,0-0.5-0.1-0.7,0c-0.2,0-0.5,0.1-0.6,0.3c-0.1,0.1-0.1,0.2-0.1,0.3c0,0.1,0,0.2,0,0.3
			c0.1,0.2,0.2,0.4,0.3,0.5c0.2,0.3,0.5,0.4,0.9,0.5c0.2,0.1,0.5,0.1,0.8,0.1c0.2,0,0.3,0,0.5-0.1L97.9,34.1z"/>
		<path class="st3" d="M120.2,18.5h-8.5v18.2h8.5V18.5z"/>
		<path class="st2" d="M120.3,27.6L120.3,27.6c-0.2,0-0.3,0-0.4,0c-0.3,0-0.7,0-1-0.2c-0.5-0.2-0.9-0.4-1.3-0.8
			c-0.4-0.4-0.8-0.9-1.2-1.3c-0.4-0.5-0.7-0.9-1.2-1.4c-0.3-0.4-0.7-0.6-1.2-0.9c-0.3-0.2-0.6-0.3-0.9-0.3c-0.2,0-0.4,0-0.4,0
			c0,0,0.1,0,0.1,0c0.1,0,0.2,0,0.3,0c0.3,0,0.6,0.1,0.9,0.3c0.4,0.2,0.8,0.5,1.2,0.9c0.4,0.4,0.8,0.9,1.2,1.4
			c0.4,0.5,0.8,0.9,1.2,1.3c0.4,0.3,0.8,0.6,1.2,0.8c0.3,0.1,0.6,0.2,1,0.2C120.1,27.6,120.3,27.6,120.3,27.6z"/>
		<path class="st2" d="M120.3,25.4h-0.1c0,0-0.1,0-0.1,0c-0.1,0-0.1,0-0.2,0c-0.4-0.1-0.7-0.2-1-0.4c-0.4-0.3-0.9-0.7-1.2-1
			c-0.5-0.4-0.9-0.9-1.4-1.4c-0.9-0.8-1.6-1.8-2.3-2.8c-0.2-0.3-0.4-0.6-0.5-1l-0.1-0.3c0-0.1,0-0.1,0-0.1l0,0.1l0.1,0.3
			c0.1,0.2,0.3,0.6,0.5,0.9c0.7,1,1.4,1.9,2.3,2.8c0.5,0.5,1,0.9,1.4,1.4c0.4,0.4,0.8,0.7,1.2,1c0.3,0.2,0.6,0.4,1,0.4
			c0.1,0,0.1,0,0.2,0c0,0,0.1,0,0.1,0L120.3,25.4z"/>
		<path class="st2" d="M119,20.9c0,0-0.1,0-0.1-0.1c-0.1-0.1-0.2-0.1-0.3-0.2c-0.2-0.1-0.3-0.3-0.4-0.4c-0.1-0.1-0.2-0.2-0.2-0.3
			c-0.1-0.1-0.1-0.3-0.1-0.4c0-0.1,0-0.2,0.1-0.2c0,0,0.1-0.1,0.1-0.1c0,0,0.1,0,0.1,0c0.2,0,0.3,0,0.5,0.1c0.3,0.2,0.6,0.4,0.9,0.7
			c0.3,0.3,0.5,0.7,0.6,1.1c0.1,0.4,0.2,0.8,0.2,1.3c0,0.1,0,0.2-0.1,0.3c0,0-0.1,0.1-0.2,0.1c-0.1,0-0.1,0-0.2,0
			c-0.1,0-0.2-0.1-0.3-0.1c-0.1,0-0.2-0.1-0.3-0.1c-0.4-0.2-0.7-0.4-1-0.7c-0.6-0.4-1-0.9-1.4-1.5c-0.3-0.4-0.5-0.8-0.7-1.2
			c-0.1-0.2-0.1-0.3-0.2-0.5l0.1,0.1c0,0.1,0.1,0.2,0.2,0.4c0.2,0.4,0.4,0.8,0.7,1.2c0.4,0.6,0.9,1.1,1.4,1.5c0.3,0.3,0.7,0.5,1,0.7
			c0.1,0.1,0.2,0.1,0.3,0.1c0.1,0.1,0.2,0.1,0.3,0.1c0,0,0.1,0,0.2,0s0.1,0,0.1-0.1c0.1-0.1,0.1-0.2,0.1-0.3c0-0.4,0-0.9-0.2-1.3
			s-0.4-0.8-0.6-1.1c-0.2-0.3-0.5-0.5-0.9-0.7c-0.1-0.1-0.3-0.1-0.5-0.1c0,0-0.1,0-0.1,0c0,0-0.1,0-0.1,0.1c0,0.1-0.1,0.1,0,0.2
			c0,0.1,0.1,0.3,0.1,0.4c0.1,0.1,0.1,0.2,0.2,0.3c0.1,0.2,0.3,0.3,0.4,0.4c0.1,0.1,0.2,0.1,0.3,0.2L119,20.9z"/>
		<path class="st2" d="M120.2,32L120.2,32l-0.2-0.3c-0.1-0.2-0.3-0.5-0.6-0.9c-0.5-0.7-1.2-1.7-2.2-2.5c-0.5-0.4-1.1-0.7-1.7-0.9
			c-0.5-0.1-1-0.2-1.5-0.2c-0.3,0-0.7,0.1-1,0.2c-0.1,0-0.2,0.1-0.3,0.1l-0.1,0c0.1-0.1,0.2-0.1,0.3-0.2c0.3-0.1,0.7-0.2,1-0.2
			c0.5,0,1,0,1.5,0.2c0.6,0.2,1.2,0.5,1.7,0.9c1.1,0.8,1.8,1.8,2.2,2.6c0.2,0.4,0.4,0.7,0.5,0.9L120.2,32L120.2,32z"/>
		<path class="st2" d="M117.5,33.7C117.5,33.7,117.5,33.7,117.5,33.7c0,0.1,0,0.1,0,0.1c0,0,0,0.1-0.1,0.1c0,0-0.1,0.1-0.1,0.1
			c0,0-0.1,0-0.1,0c-0.1-0.1-0.2-0.1-0.3-0.2c-0.3-0.2-0.5-0.5-0.8-0.8c-0.1-0.2-0.3-0.4-0.4-0.6c0-0.1-0.1-0.2,0-0.4
			c0-0.1,0.1-0.1,0.1-0.2c0,0,0.1-0.1,0.2-0.1c0.3-0.1,0.6,0,0.8,0.1c0.3,0.1,0.5,0.3,0.8,0.5c0.5,0.4,0.9,1,1.2,1.6
			c0.1,0.3,0.2,0.7,0.3,1.1c0,0.2,0,0.4-0.1,0.6c0,0.1-0.1,0.2-0.2,0.2c-0.1,0.1-0.2,0.1-0.3,0.2c-0.2,0-0.4,0-0.6,0
			c-0.2-0.1-0.4-0.1-0.5-0.2c-0.4-0.2-0.7-0.4-1-0.7c-0.6-0.5-1.2-1.1-1.6-1.8c-0.2-0.3-0.4-0.7-0.5-1c-0.1-0.3-0.2-0.7-0.1-1.1
			c0.1-0.2,0.2-0.3,0.3-0.4c0.1-0.1,0.3-0.2,0.5-0.2c0.3,0,0.7,0,1,0.1c0.6,0.1,1.1,0.3,1.6,0.6c0.8,0.4,1.4,0.9,2,1.5
			c0.2,0.2,0.3,0.4,0.4,0.5c0.1,0.1,0.1,0.2,0.1,0.2l-0.1-0.2c-0.1-0.2-0.3-0.4-0.4-0.5c-0.6-0.6-1.3-1.1-2-1.5
			c-0.5-0.3-1.1-0.4-1.6-0.6c-0.3-0.1-0.6-0.1-1-0.1c-0.2,0-0.3,0.1-0.4,0.2c-0.1,0.1-0.2,0.3-0.3,0.4c-0.1,0.3-0.1,0.7,0.1,1.1
			c0.1,0.4,0.3,0.7,0.5,1c0.4,0.7,0.9,1.3,1.6,1.8c0.3,0.2,0.7,0.5,1,0.7c0.2,0.1,0.4,0.2,0.5,0.2c0.2,0.1,0.4,0.1,0.6,0
			c0.1,0,0.2-0.1,0.2-0.1c0.1-0.1,0.1-0.1,0.1-0.2c0.1-0.2,0.1-0.4,0.1-0.5c0-0.4-0.1-0.7-0.3-1c-0.3-0.6-0.7-1.2-1.2-1.6
			c-0.2-0.2-0.5-0.4-0.8-0.5c-0.2-0.1-0.5-0.2-0.8-0.1c-0.1,0-0.1,0.1-0.2,0.1s-0.1,0.1-0.1,0.2c0,0.1,0,0.2,0,0.4
			c0.1,0.2,0.2,0.4,0.3,0.6c0.2,0.3,0.5,0.5,0.8,0.8c0.1,0.1,0.2,0.2,0.3,0.2c0,0,0.1,0,0.1,0c0,0,0.1,0,0.1-0.1c0,0,0,0,0.1-0.1
			C117.5,33.8,117.5,33.8,117.5,33.7C117.5,33.7,117.5,33.7,117.5,33.7z"/>
		<path class="st2" d="M112.7,18.5h-8.5v18.2h8.5V18.5z"/>
		<path class="st3" d="M106.4,22c0,0-0.1,0.1-0.1,0.1c-0.2,0.1-0.4,0.1-0.5,0.1h0c0.2-0.5,0.6-1,1-1.4c0.1-0.1,0.3-0.3,0.4-0.4
			c0.1-0.1,0.2-0.1,0.3-0.1c0.1,0,0.2,0.1,0.3,0.1c0.1,0.1,0.1,0.2,0.2,0.3c0,0.1,0,0.2,0,0.3c0,0.2-0.1,0.5-0.2,0.7
			c-0.2,0.5-0.6,0.9-1,1.2c-0.2,0.2-0.4,0.3-0.7,0.5c-0.1,0.1-0.3,0.1-0.4,0.1c-0.1,0-0.3,0-0.4-0.1c-0.1-0.1-0.3-0.2-0.3-0.3
			c-0.1-0.1-0.1-0.3-0.1-0.4c0-0.3,0.1-0.6,0.2-0.9c0.2-0.6,0.5-1.2,1-1.6c0.3-0.3,0.6-0.6,0.9-0.8c0.3-0.2,0.7-0.4,1.1-0.4
			c0.2,0,0.4,0,0.6,0.1c0.2,0.1,0.3,0.2,0.4,0.4c0.2,0.3,0.3,0.7,0.2,1.1c0,0.3-0.2,0.7-0.3,1c-0.2,0.3-0.3,0.6-0.5,0.9
			c-0.3,0.5-0.7,1-1.1,1.4c-0.6,0.6-1.3,1.1-2.1,1.5c-0.2,0.1-0.4,0.1-0.7,0.2c-0.2,0-0.2,0-0.2,0l0.1,0c0,0,0.1,0,0.2,0
			c0.2,0,0.5-0.1,0.7-0.2c0.8-0.3,1.5-0.8,2.1-1.5c0.4-0.4,0.7-0.9,1.1-1.4c0.2-0.3,0.3-0.6,0.5-0.9c0.2-0.3,0.3-0.6,0.3-1
			c0-0.4,0-0.7-0.2-1c-0.1-0.2-0.2-0.3-0.4-0.4c-0.2-0.1-0.4-0.1-0.5-0.1c-0.4,0-0.8,0.2-1.1,0.4c-0.3,0.2-0.7,0.5-0.9,0.8
			c-0.4,0.5-0.7,1-1,1.6c-0.1,0.3-0.2,0.6-0.2,0.9c0,0.1,0,0.3,0.1,0.4c0.1,0.1,0.2,0.2,0.3,0.3c0.1,0,0.3,0.1,0.4,0.1
			c0.1,0,0.3,0,0.4-0.1c0.2-0.1,0.5-0.3,0.7-0.5c0.4-0.3,0.7-0.7,1-1.2c0.1-0.2,0.2-0.4,0.2-0.7c0-0.1,0-0.2,0-0.3
			c0-0.1-0.1-0.2-0.2-0.3c-0.1-0.1-0.2-0.1-0.3-0.1c-0.1,0-0.2,0-0.3,0.1c-0.2,0.1-0.3,0.2-0.4,0.4c-0.4,0.4-0.7,0.9-1,1.4
			c0.2,0,0.4,0,0.5-0.1C106.3,22.1,106.4,22.1,106.4,22L106.4,22z"/>
		<path class="st3" d="M112.8,20.2c-0.2,0-0.3,0-0.5,0.1c-0.4,0.1-0.8,0.4-1.1,0.7c-0.4,0.5-0.8,1-1.1,1.5c-0.4,0.6-0.8,1.3-1.2,2
			c-0.4,0.7-0.8,1.3-1.4,1.9c-0.4,0.5-0.9,0.9-1.5,1.2c-0.4,0.2-0.8,0.4-1.2,0.5c-0.1,0-0.2,0-0.3,0.1l-0.1,0c0,0,0,0,0.1,0
			c0.1,0,0.2,0,0.3-0.1c0.4-0.1,0.8-0.3,1.2-0.5c0.5-0.3,1-0.7,1.4-1.2c0.5-0.6,1-1.2,1.4-1.9c0.4-0.7,0.8-1.4,1.2-2
			c0.3-0.5,0.7-1,1.2-1.5c0.3-0.3,0.7-0.6,1.1-0.7c0.1,0,0.2-0.1,0.4-0.1L112.8,20.2z"/>
		<path class="st3" d="M104.2,31.1h0.1c0.1,0,0.2,0,0.4,0c0.5-0.1,0.9-0.2,1.3-0.4c0.6-0.3,1.1-0.7,1.6-1.2c0.5-0.6,1-1.3,1.4-2.1
			c0.4-0.8,0.8-1.5,1.2-2.2c0.3-0.6,0.7-1.1,1.2-1.6c0.3-0.3,0.7-0.6,1-0.9c0.1-0.1,0.2-0.1,0.3-0.2l0.1-0.1c0,0,0,0-0.1,0.1
			c-0.1,0-0.2,0.1-0.3,0.2c-0.4,0.3-0.7,0.6-1,0.9c-0.5,0.5-0.8,1.1-1.2,1.6c-0.4,0.7-0.8,1.4-1.2,2.2c-0.4,0.7-0.9,1.4-1.4,2.1
			c-0.5,0.5-1,0.9-1.6,1.2c-0.4,0.2-0.9,0.4-1.3,0.4c-0.1,0-0.2,0-0.4,0L104.2,31.1z"/>
		<path class="st3" d="M110.7,30.3c0,0,0,0.1-0.1,0.2c-0.1,0.2-0.3,0.3-0.4,0.3c-0.1,0-0.1,0-0.2,0s-0.1,0-0.2-0.1
			c-0.1-0.1-0.1-0.1-0.1-0.2c0-0.1,0-0.2,0-0.2c0.1-0.4,0.3-0.7,0.5-1c0.1-0.2,0.3-0.3,0.5-0.5c0.2-0.2,0.4-0.3,0.7-0.3
			c0.1,0,0.3,0,0.4,0.1c0.1,0,0.1,0.1,0.1,0.1c0,0.1,0.1,0.1,0.1,0.2c0,0.1,0,0.3,0,0.4c0,0.1,0,0.3,0,0.4c-0.1,0.6-0.3,1.2-0.7,1.7
			c-0.3,0.5-0.8,1-1.3,1.3c-0.3,0.2-0.6,0.3-0.9,0.3c-0.2,0-0.3,0-0.5-0.1c-0.1-0.1-0.2-0.2-0.3-0.4c-0.1-0.3,0-0.6,0.1-0.9
			c0.1-0.3,0.2-0.6,0.3-0.8c0.4-0.9,1-1.8,1.7-2.5c0.5-0.5,1-0.9,1.6-1.2l0.3-0.2l0.2-0.1l0.2-0.1c0,0-0.1,0-0.2,0.1l-0.2,0.1
			l-0.3,0.2c-1.5,0.8-2.7,2.1-3.4,3.7c-0.1,0.3-0.2,0.5-0.3,0.8c-0.1,0.3-0.1,0.6-0.1,0.9c0,0.1,0.1,0.3,0.3,0.4
			c0.1,0.1,0.3,0.1,0.5,0.1c0.3,0,0.6-0.1,0.9-0.3c0.5-0.3,1-0.8,1.3-1.3c0.3-0.5,0.6-1.1,0.7-1.7c0-0.1,0-0.3,0-0.4
			c0-0.1,0-0.3,0-0.4c0-0.1,0-0.1-0.1-0.2c0-0.1-0.1-0.1-0.1-0.1c-0.1-0.1-0.2-0.1-0.4-0.1c-0.2,0-0.5,0.2-0.6,0.3
			c-0.2,0.1-0.3,0.3-0.5,0.5c-0.2,0.3-0.4,0.7-0.5,1c0,0.1,0,0.2,0,0.2c0,0.1,0.1,0.1,0.1,0.2c0.1,0,0.1,0.1,0.2,0.1s0.1,0,0.2,0
			c0.2-0.1,0.3-0.2,0.4-0.3C110.7,30.4,110.7,30.3,110.7,30.3z"/>
		<path class="st4" d="M124.1,36.4H82v3.2h42.1V36.4z"/>
		<path class="st4" d="M91.5,39.2h-2.1v3.6h2.1V39.2z"/>
		<path class="st4" d="M116.8,39.2h-2.1v3.6h2.1V39.2z"/>
		<path class="st3" d="M108.8,75.8H97.6v23.9h11.2V75.8z"/>
		<path class="st2" d="M108.8,87.8c0,0,0,0-0.1,0c-0.1,0-0.2,0-0.4,0c-0.4,0-0.9-0.1-1.3-0.2c-0.6-0.2-1.2-0.6-1.7-1
			c-0.6-0.5-1.1-1.1-1.6-1.8c-0.5-0.6-1-1.2-1.5-1.8c-0.5-0.5-1-0.9-1.5-1.2c-0.4-0.2-0.8-0.3-1.2-0.4c-0.1,0-0.2,0-0.4,0H99h0.1
			c0.1,0,0.2,0,0.4,0c0.4,0.1,0.9,0.2,1.2,0.4c0.6,0.3,1.1,0.7,1.6,1.2c0.5,0.6,1.1,1.2,1.5,1.8c0.5,0.6,1,1.2,1.6,1.8
			c0.5,0.4,1,0.8,1.6,1c0.4,0.2,0.8,0.2,1.3,0.2c0.1,0,0.2,0,0.4,0L108.8,87.8z"/>
		<path class="st2" d="M108.9,85h-0.1c-0.1,0-0.1,0-0.2,0c-0.1,0-0.2,0-0.2,0c-0.5-0.1-0.9-0.3-1.3-0.6c-0.6-0.4-1.1-0.9-1.6-1.4
			c-0.6-0.5-1.2-1.1-1.9-1.8c-1.1-1.1-2.2-2.3-3-3.7c-0.3-0.4-0.5-0.8-0.7-1.3c-0.1-0.1-0.1-0.3-0.2-0.4c0-0.1-0.1-0.1-0.1-0.1
			s0,0,0.1,0.1l0.2,0.4c0.2,0.4,0.5,0.8,0.7,1.3c0.9,1.3,1.9,2.6,3,3.7c0.7,0.7,1.3,1.2,1.9,1.8c0.5,0.5,1.1,1,1.6,1.4
			c0.4,0.3,0.8,0.5,1.3,0.6c0.1,0,0.1,0,0.2,0c0.1,0,0.1,0,0.2,0L108.9,85z"/>
		<path class="st2" d="M107.2,79c0,0-0.1,0-0.2-0.1c-0.1-0.1-0.3-0.2-0.4-0.3c-0.2-0.2-0.4-0.4-0.6-0.6c-0.1-0.1-0.2-0.3-0.3-0.4
			c-0.1-0.2-0.2-0.3-0.2-0.5c0-0.1,0-0.2,0.1-0.3c0,0,0.1-0.1,0.1-0.1c0,0,0.1,0,0.2-0.1c0.2,0,0.5,0.1,0.6,0.2
			c0.4,0.2,0.8,0.5,1.2,0.9c0.4,0.4,0.7,0.9,0.9,1.5c0.2,0.5,0.3,1.1,0.2,1.7c0,0.2-0.1,0.3-0.1,0.4c-0.1,0.1-0.1,0.1-0.2,0.1
			c-0.1,0-0.2,0-0.2,0c-0.1,0-0.3-0.1-0.4-0.2c-0.1-0.1-0.3-0.1-0.4-0.2c-0.5-0.3-0.9-0.6-1.4-0.9c-0.7-0.6-1.4-1.2-1.9-2
			c-0.4-0.5-0.7-1.1-0.9-1.6c-0.1-0.2-0.1-0.4-0.2-0.5c0-0.1-0.1-0.2-0.1-0.2s0,0.1,0.1,0.2c0,0.1,0.1,0.3,0.2,0.5
			c0.3,0.6,0.6,1.1,0.9,1.6c0.5,0.8,1.2,1.4,1.9,2c0.4,0.3,0.9,0.6,1.4,0.9c0.1,0.1,0.3,0.1,0.4,0.2c0.1,0.1,0.3,0.1,0.4,0.2
			c0.1,0,0.1,0,0.2,0c0.1,0,0.1-0.1,0.2-0.1c0.1-0.1,0.1-0.3,0.1-0.4c0-0.6,0-1.1-0.2-1.7c-0.2-0.5-0.5-1-0.8-1.4
			c-0.3-0.4-0.7-0.7-1.1-0.9c-0.2-0.1-0.4-0.2-0.6-0.2c0,0-0.1,0-0.1,0c0,0-0.1,0.1-0.1,0.1c-0.1,0.1-0.1,0.2-0.1,0.3
			c0,0.2,0.1,0.4,0.2,0.5c0.1,0.1,0.2,0.3,0.3,0.4c0.2,0.2,0.4,0.4,0.6,0.6c0.1,0.1,0.3,0.2,0.4,0.3L107.2,79z"/>
		<path class="st2" d="M108.8,93.7c0,0,0,0-0.1-0.1l-0.2-0.3c-0.2-0.3-0.4-0.7-0.7-1.2c-0.4-0.6-0.8-1.1-1.2-1.6
			c-0.5-0.6-1.1-1.2-1.8-1.7c-0.7-0.5-1.4-0.9-2.2-1.1c-0.6-0.2-1.3-0.3-2-0.2c-0.5,0-0.9,0.1-1.3,0.3c-0.1,0.1-0.3,0.1-0.3,0.2
			c-0.1,0-0.1,0.1-0.1,0.1l0.1-0.1c0.1-0.1,0.2-0.1,0.3-0.2c0.4-0.2,0.9-0.3,1.3-0.3c0.7-0.1,1.4,0,2,0.2c0.8,0.2,1.5,0.6,2.2,1.1
			c0.7,0.5,1.3,1.1,1.8,1.7c0.4,0.5,0.8,1.1,1.2,1.6c0.3,0.5,0.6,0.9,0.7,1.2L108.8,93.7C108.7,93.6,108.8,93.7,108.8,93.7z"/>
		<path class="st2" d="M105.2,95.9C105.2,95.9,105.2,95.9,105.2,95.9c0,0.1,0,0.2,0,0.2s0,0.1-0.1,0.1c0,0-0.1,0.1-0.2,0.1
			c-0.1,0-0.1,0-0.2,0c-0.2-0.1-0.3-0.2-0.4-0.3c-0.4-0.3-0.7-0.6-1-1c-0.2-0.2-0.3-0.5-0.5-0.8c-0.1-0.2-0.1-0.3,0-0.5
			c0-0.1,0.1-0.2,0.1-0.2c0.1-0.1,0.1-0.1,0.2-0.1c0.2,0,0.4,0,0.5,0c0.2,0,0.4,0.1,0.5,0.2c0.4,0.2,0.7,0.4,1,0.7
			c0.7,0.6,1.2,1.3,1.6,2.1c0.2,0.4,0.3,0.9,0.4,1.4c0,0.2,0,0.5-0.1,0.7c0,0.1-0.1,0.2-0.2,0.3c-0.1,0.1-0.2,0.2-0.3,0.2
			c-0.3,0.1-0.5,0.1-0.8,0c-0.2-0.1-0.5-0.2-0.7-0.3c-0.5-0.2-0.9-0.5-1.3-0.9c-0.8-0.7-1.5-1.5-2.1-2.4c-0.3-0.4-0.5-0.9-0.6-1.4
			c-0.2-0.5-0.2-0.9-0.1-1.4c0.1-0.2,0.2-0.4,0.4-0.6c0.2-0.2,0.4-0.3,0.6-0.3c0.4-0.1,0.9,0,1.3,0.1c0.8,0.2,1.5,0.4,2.2,0.8
			c1,0.5,1.9,1.2,2.7,2c0.2,0.2,0.4,0.5,0.6,0.7c0.1,0.2,0.2,0.3,0.2,0.3s-0.1-0.1-0.2-0.3c-0.2-0.2-0.4-0.5-0.6-0.7
			c-0.8-0.8-1.7-1.5-2.7-2c-0.7-0.3-1.4-0.6-2.2-0.7c-0.4-0.1-0.8-0.1-1.3-0.1c-0.2,0-0.4,0.1-0.6,0.3c-0.2,0.2-0.3,0.4-0.4,0.6
			c-0.1,0.5-0.1,0.9,0.1,1.4c0.2,0.5,0.4,0.9,0.6,1.3c0.5,0.9,1.2,1.7,2.1,2.3c0.4,0.3,0.9,0.6,1.3,0.9c0.2,0.1,0.5,0.2,0.7,0.3
			c0.2,0.1,0.5,0.1,0.7,0c0.1,0,0.2-0.1,0.3-0.2c0.1-0.1,0.2-0.2,0.2-0.3c0.1-0.2,0.1-0.5,0.1-0.7c0-0.5-0.2-0.9-0.3-1.4
			c-0.3-0.8-0.9-1.5-1.5-2.1c-0.3-0.3-0.6-0.5-1-0.7c-0.2-0.1-0.3-0.2-0.5-0.2c-0.2,0-0.4,0-0.5,0c-0.1,0-0.2,0.1-0.2,0.1
			c-0.1,0.1-0.1,0.1-0.1,0.2c0,0.2,0,0.3,0,0.5c0.1,0.3,0.3,0.5,0.5,0.8c0.3,0.4,0.6,0.7,1,1c0.1,0.1,0.3,0.2,0.4,0.3
			c0.1,0,0.1,0,0.2,0c0.1,0,0.1,0,0.2-0.1c0,0,0.1-0.1,0.1-0.1C105.2,96,105.2,96,105.2,95.9C105.2,95.9,105.2,95.9,105.2,95.9z"/>
		<path class="st2" d="M98.8,75.8H87.7v23.9h11.2V75.8z"/>
		<path class="st3" d="M90.6,80.5c-0.1,0.1-0.1,0.1-0.2,0.2c-0.2,0.1-0.5,0.2-0.7,0.2h0c0.3-0.7,0.7-1.3,1.3-1.9
			c0.2-0.2,0.4-0.4,0.6-0.5c0.1-0.1,0.3-0.1,0.4-0.1c0.1,0,0.3,0.1,0.4,0.2c0.1,0.1,0.2,0.2,0.2,0.4c0,0.1,0.1,0.3,0,0.4
			c-0.1,0.3-0.2,0.6-0.3,0.9c-0.3,0.6-0.8,1.1-1.3,1.6c-0.3,0.2-0.6,0.5-0.9,0.6c-0.2,0.1-0.4,0.1-0.5,0.2c-0.2,0-0.4,0-0.6-0.1
			c-0.2-0.1-0.3-0.2-0.5-0.4c-0.1-0.2-0.2-0.4-0.2-0.6c0-0.4,0.1-0.8,0.2-1.2c0.3-0.8,0.7-1.5,1.3-2.1c0.4-0.4,0.8-0.8,1.2-1.1
			c0.4-0.3,1-0.5,1.5-0.5c0.3,0,0.5,0.1,0.7,0.2c0.2,0.1,0.4,0.3,0.6,0.5c0.3,0.4,0.4,0.9,0.3,1.4c-0.1,0.5-0.2,0.9-0.4,1.3
			c-0.2,0.4-0.4,0.8-0.6,1.1c-0.4,0.7-0.9,1.3-1.4,1.9c-0.7,0.8-1.7,1.5-2.7,1.9c-0.3,0.1-0.6,0.2-0.9,0.2c-0.2,0-0.3,0-0.3,0l0.1,0
			c0.1,0,0.1,0,0.2,0c0.3-0.1,0.6-0.1,0.9-0.3c1-0.4,2-1.1,2.7-1.9c0.5-0.6,1-1.2,1.4-1.9c0.2-0.4,0.4-0.7,0.6-1.1
			c0.2-0.4,0.4-0.8,0.4-1.3c0.1-0.5,0-1-0.3-1.4c-0.1-0.2-0.3-0.4-0.5-0.5c-0.2-0.1-0.5-0.2-0.7-0.2c-0.5,0-1,0.2-1.5,0.5
			c-0.4,0.3-0.9,0.6-1.2,1c-0.6,0.6-1,1.3-1.3,2.1c-0.1,0.4-0.2,0.8-0.2,1.2c0,0.2,0.1,0.4,0.2,0.5c0.1,0.2,0.3,0.3,0.4,0.3
			c0.2,0.1,0.4,0.1,0.5,0.1c0.2,0,0.4-0.1,0.5-0.1c0.3-0.2,0.6-0.4,0.9-0.6c0.5-0.4,0.9-1,1.3-1.6c0.2-0.3,0.3-0.6,0.3-0.9
			c0-0.1,0-0.3,0-0.4c0-0.1-0.1-0.3-0.2-0.4c-0.1-0.1-0.2-0.1-0.4-0.2c-0.1,0-0.3,0-0.4,0.1c-0.2,0.1-0.4,0.3-0.6,0.5
			c-0.5,0.6-0.9,1.2-1.3,1.9v0c0.3,0,0.5,0,0.7-0.2C90.4,80.6,90.5,80.6,90.6,80.5L90.6,80.5z"/>
		<path class="st3" d="M98.9,78h-0.2c-0.2,0-0.3,0-0.4,0.1c-0.2,0.1-0.5,0.2-0.7,0.3c-0.3,0.2-0.5,0.4-0.7,0.6
			c-0.6,0.6-1.1,1.3-1.5,2c-0.5,0.8-1,1.7-1.6,2.6c-0.5,0.9-1.1,1.7-1.8,2.5c-0.6,0.6-1.2,1.2-1.9,1.6c-0.5,0.3-1,0.5-1.6,0.6
			c-0.1,0-0.3,0.1-0.5,0.1c-0.1,0-0.2,0-0.2,0l0.2,0c0.2,0,0.3,0,0.4-0.1c0.5-0.1,1.1-0.3,1.6-0.6c0.7-0.4,1.4-1,1.9-1.6
			c0.7-0.8,1.3-1.6,1.8-2.5c0.6-0.9,1.1-1.8,1.6-2.6c0.4-0.7,0.9-1.4,1.5-2c0.2-0.2,0.5-0.4,0.7-0.6c0.2-0.1,0.4-0.2,0.7-0.3
			c0.1,0,0.3-0.1,0.5-0.1L98.9,78z"/>
		<path class="st3" d="M87.7,92.5h0.2c0.2,0,0.3,0,0.5,0c0.6-0.1,1.2-0.3,1.7-0.5c0.8-0.4,1.5-1,2.1-1.6c0.7-0.8,1.3-1.7,1.9-2.7
			c0.6-1,1.1-2,1.6-2.9c0.4-0.8,1-1.5,1.6-2.2c0.4-0.4,0.9-0.8,1.4-1.2c0.2-0.1,0.3-0.2,0.4-0.3l0.2-0.1c0,0-0.1,0-0.1,0.1
			c-0.1,0.1-0.2,0.1-0.4,0.3c-0.5,0.3-1,0.7-1.4,1.2c-0.6,0.7-1.1,1.4-1.6,2.2c-0.5,0.9-1,1.9-1.6,2.9c-0.5,1-1.1,1.9-1.9,2.7
			c-0.6,0.7-1.3,1.2-2.1,1.6c-0.5,0.3-1.1,0.5-1.7,0.5c-0.2,0-0.3,0-0.5,0L87.7,92.5z"/>
		<path class="st3" d="M96.2,91.4c0,0,0,0.1-0.2,0.2c-0.1,0.1-0.1,0.2-0.2,0.2c-0.1,0.1-0.2,0.2-0.4,0.2c-0.1,0-0.2,0-0.3,0
			c-0.1,0-0.2,0-0.2-0.1c-0.1-0.1-0.1-0.2-0.2-0.3c0-0.1,0-0.2,0-0.3c0.1-0.5,0.4-1,0.7-1.4c0.2-0.2,0.4-0.5,0.6-0.7
			c0.2-0.2,0.5-0.4,0.9-0.4c0.2,0,0.4,0,0.5,0.1c0.1,0.1,0.1,0.1,0.2,0.2c0,0.1,0.1,0.2,0.1,0.3c0,0.2,0,0.4,0,0.5
			c0,0.2,0,0.4,0,0.6c-0.1,0.8-0.4,1.5-0.8,2.2c-0.5,0.7-1.1,1.3-1.8,1.8c-0.4,0.2-0.8,0.4-1.2,0.4c-0.2,0-0.4,0-0.6-0.1
			c-0.2-0.1-0.3-0.3-0.4-0.5c-0.1-0.2-0.1-0.4,0-0.6c0-0.2,0.1-0.4,0.1-0.6c0.1-0.4,0.3-0.7,0.4-1.1c0.5-1.2,1.3-2.3,2.3-3.3
			c0.6-0.6,1.4-1.2,2.2-1.6l0.4-0.2l0.3-0.1l0.2-0.1l-0.2,0.1L98.3,87l-0.4,0.2c-0.8,0.4-1.5,1-2.2,1.6c-1,0.9-1.7,2-2.3,3.3
			c-0.2,0.4-0.3,0.7-0.4,1.1c-0.1,0.2-0.1,0.4-0.1,0.6c0,0.2,0,0.4,0,0.6c0.1,0.2,0.2,0.4,0.4,0.5c0.2,0.1,0.4,0.1,0.6,0.1
			c0.4,0,0.8-0.2,1.2-0.4c0.7-0.4,1.3-1,1.8-1.8c0.4-0.7,0.7-1.4,0.8-2.2c0-0.2,0-0.4,0-0.6c0-0.2,0-0.4,0-0.5c0-0.1,0-0.2-0.1-0.2
			c0-0.1-0.1-0.1-0.2-0.2C97.3,89,97.1,88.9,97,89c-0.3,0.1-0.6,0.2-0.8,0.4c-0.2,0.2-0.4,0.4-0.6,0.6c-0.3,0.4-0.6,0.9-0.7,1.4
			c0,0.1,0,0.2,0,0.3c0,0.1,0.1,0.2,0.2,0.2c0.1,0,0.2,0.1,0.2,0.1c0.1,0,0.2,0,0.3,0c0.1,0,0.3-0.1,0.4-0.2
			c0.1-0.1,0.1-0.1,0.2-0.2C96.2,91.5,96.2,91.4,96.2,91.4z"/>
		<path class="st3" d="M137.5,65.7h-15.9v34.1h15.9V65.7z"/>
		<path class="st2" d="M137.6,82.7l-0.2,0c-0.1,0-0.1,0-0.2,0l-0.3,0c-0.6,0-1.2-0.1-1.8-0.3c-0.9-0.3-1.7-0.8-2.4-1.4
			c-0.8-0.8-1.6-1.6-2.3-2.5c-0.7-0.9-1.4-1.8-2.2-2.6c-0.6-0.7-1.4-1.2-2.2-1.6c-0.6-0.3-1.1-0.5-1.8-0.6l-0.3,0
			c-0.1,0-0.2,0-0.2,0h-0.2h0.2c0.1,0,0.1,0,0.2,0l0.3,0c0.6,0.1,1.2,0.3,1.8,0.6c0.8,0.4,1.6,1,2.2,1.6c0.8,0.8,1.5,1.7,2.2,2.6
			c0.7,0.9,1.4,1.8,2.2,2.5c0.7,0.6,1.5,1.1,2.3,1.4c0.6,0.2,1.2,0.3,1.8,0.3l0.3,0c0.1,0,0.2,0,0.2,0L137.6,82.7z"/>
		<path class="st2" d="M137.7,78.7l-0.2,0c-0.1,0-0.2,0-0.2,0c-0.1,0-0.2,0-0.3,0c-0.7-0.1-1.3-0.4-1.9-0.8
			c-0.7-0.5-1.5-1.2-2.3-1.9c-0.8-0.8-1.8-1.6-2.7-2.5c-0.9-0.9-1.7-1.8-2.5-2.7c-0.6-0.8-1.2-1.6-1.8-2.5c-0.1-0.2-0.2-0.4-0.3-0.5
			s-0.2-0.3-0.3-0.5c-0.2-0.3-0.3-0.6-0.4-0.8l-0.2-0.5l-0.1-0.2c0,0,0,0.1,0.1,0.2l0.2,0.5c0.1,0.2,0.2,0.5,0.4,0.8
			c0.1,0.2,0.2,0.3,0.3,0.5c0.1,0.2,0.2,0.3,0.3,0.5c0.5,0.9,1.1,1.7,1.8,2.4c0.7,0.9,1.6,1.8,2.5,2.7c0.9,0.9,1.9,1.8,2.7,2.5
			c0.8,0.8,1.6,1.5,2.3,1.9c0.6,0.4,1.2,0.7,1.9,0.8c0.1,0,0.2,0,0.3,0c0.1,0,0.2,0,0.2,0L137.7,78.7z"/>
		<path class="st2" d="M135.3,70.2c0,0-0.1,0-0.2-0.1c-0.2-0.1-0.4-0.2-0.6-0.4c-0.3-0.2-0.6-0.5-0.8-0.8c-0.2-0.2-0.3-0.4-0.4-0.6
			c-0.1-0.2-0.2-0.5-0.3-0.8c0-0.1,0-0.3,0.1-0.4c0-0.1,0.1-0.1,0.2-0.2c0.1,0,0.1-0.1,0.2-0.1c0.3,0,0.6,0.1,0.9,0.3
			c0.6,0.3,1.2,0.8,1.6,1.3c0.5,0.6,0.9,1.3,1.2,2c0.3,0.8,0.4,1.6,0.4,2.5c0,0.2-0.1,0.4-0.2,0.6c-0.1,0.1-0.2,0.1-0.3,0.2
			c-0.1,0-0.2,0-0.3,0c-0.2-0.1-0.4-0.1-0.6-0.2c-0.2-0.1-0.4-0.2-0.5-0.3c-0.7-0.4-1.3-0.8-1.9-1.3c-0.6-0.4-1.1-0.9-1.6-1.4
			c-0.4-0.4-0.8-0.9-1.2-1.4c-0.5-0.7-1-1.5-1.3-2.3c-0.1-0.3-0.2-0.5-0.3-0.7c-0.1-0.2-0.1-0.2-0.1-0.2s0,0.1,0.1,0.2
			c0.1,0.2,0.1,0.4,0.3,0.7c0.4,0.8,0.8,1.6,1.3,2.3c0.4,0.5,0.7,1,1.2,1.4c0.5,0.5,1,1,1.6,1.4c0.6,0.5,1.3,0.9,1.9,1.3
			c0.2,0.1,0.4,0.2,0.5,0.3c0.2,0.1,0.4,0.2,0.6,0.2c0.1,0,0.2,0,0.3,0c0.1,0,0.2-0.1,0.3-0.2c0.1-0.2,0.2-0.4,0.2-0.6
			c0.1-0.8-0.1-1.7-0.4-2.4c-0.3-0.7-0.7-1.4-1.2-2c-0.5-0.5-1-1-1.6-1.3c-0.3-0.2-0.6-0.3-0.9-0.3c-0.1,0-0.1,0-0.2,0.1
			c-0.1,0-0.1,0.1-0.2,0.1c-0.1,0.1-0.1,0.3-0.1,0.4c0,0.3,0.1,0.5,0.3,0.7c0.1,0.2,0.3,0.4,0.4,0.6c0.4,0.5,0.9,0.9,1.4,1.2
			C135.1,70.1,135.1,70.1,135.3,70.2L135.3,70.2z"/>
		<path class="st2" d="M137.5,91.1l-0.1-0.2l-0.3-0.4c-0.2-0.4-0.6-1-1-1.6c-0.5-0.8-1.1-1.6-1.7-2.3c-0.7-0.9-1.6-1.7-2.5-2.4
			c-0.9-0.7-2-1.3-3.1-1.6c-0.9-0.3-1.9-0.4-2.8-0.3c-0.6,0.1-1.3,0.2-1.9,0.4c-0.2,0.1-0.4,0.2-0.5,0.2c-0.1,0.1-0.2,0.1-0.2,0.1
			l0.2-0.1c0.1-0.1,0.3-0.1,0.5-0.2c0.6-0.2,1.2-0.4,1.9-0.5c1-0.1,1.9,0,2.9,0.3c1.1,0.3,2.2,0.9,3.1,1.6c0.9,0.7,1.8,1.5,2.5,2.5
			c0.6,0.7,1.2,1.5,1.7,2.3C137,90.2,137.5,91.1,137.5,91.1z"/>
		<path class="st2" d="M132.4,94.2C132.4,94.2,132.4,94.2,132.4,94.2c0,0.1,0,0.1,0,0.1c0,0.1,0,0.1,0,0.2c0,0.1-0.1,0.1-0.1,0.1
			c-0.1,0.1-0.1,0.1-0.2,0.1c-0.1,0-0.2,0-0.3,0c-0.2-0.1-0.4-0.2-0.6-0.4c-0.5-0.4-1-0.9-1.4-1.4c-0.3-0.3-0.5-0.7-0.7-1.1
			c-0.1-0.2-0.1-0.5,0-0.7c0-0.1,0.1-0.2,0.2-0.3c0.1-0.1,0.2-0.2,0.3-0.2c0.3-0.1,0.5-0.1,0.8,0c0.3,0.1,0.5,0.2,0.8,0.3
			c0.5,0.3,1,0.6,1.4,0.9c1,0.8,1.7,1.8,2.2,3c0.3,0.6,0.4,1.3,0.5,2c0,0.4,0,0.7-0.1,1c-0.1,0.2-0.2,0.3-0.3,0.5
			c-0.1,0.1-0.3,0.2-0.5,0.3c-0.4,0.1-0.7,0.1-1.1-0.1c-0.4-0.1-0.7-0.3-1-0.4c-0.7-0.3-1.3-0.8-1.9-1.2c-1.2-0.9-2.2-2.1-2.9-3.4
			c-0.4-0.6-0.7-1.3-0.9-1.9c-0.2-0.7-0.3-1.4-0.1-2c0.1-0.3,0.3-0.6,0.5-0.8c0.2-0.2,0.5-0.4,0.9-0.4c0.6-0.1,1.2-0.1,1.8,0.1
			c1.1,0.2,2.1,0.6,3.1,1.1c1.4,0.7,2.7,1.7,3.8,2.9c0.2,0.2,0.4,0.4,0.5,0.6c0.1,0.2,0.3,0.3,0.3,0.4c0.2,0.2,0.3,0.4,0.3,0.4
			s-0.1-0.1-0.3-0.4c-0.1-0.1-0.2-0.3-0.3-0.4c-0.1-0.2-0.3-0.4-0.5-0.6c-1.1-1.2-2.4-2.1-3.8-2.8c-1-0.5-2-0.8-3.1-1.1
			c-0.6-0.2-1.2-0.2-1.8-0.1c-0.3,0.1-0.6,0.2-0.8,0.4c-0.2,0.2-0.4,0.5-0.5,0.8c-0.2,0.6-0.1,1.3,0.1,2c0.2,0.7,0.5,1.3,0.9,1.9
			c0.8,1.3,1.8,2.4,2.9,3.3c0.6,0.5,1.2,0.9,1.9,1.2c0.3,0.2,0.7,0.3,1,0.4c0.3,0.1,0.7,0.1,1.1,0.1c0.2-0.1,0.3-0.2,0.4-0.3
			c0.1-0.1,0.2-0.3,0.3-0.4c0.1-0.3,0.2-0.7,0.1-1c-0.1-0.7-0.2-1.3-0.5-2c-0.5-1.2-1.2-2.2-2.2-3c-0.4-0.4-0.9-0.7-1.4-0.9
			c-0.2-0.1-0.5-0.2-0.7-0.3c-0.2-0.1-0.5-0.1-0.8,0c-0.1,0-0.2,0.1-0.3,0.2c-0.1,0.1-0.1,0.2-0.2,0.3c-0.1,0.2,0,0.5,0,0.7
			c0.2,0.4,0.4,0.8,0.6,1.1c0.4,0.5,0.9,1,1.4,1.4c0.2,0.2,0.4,0.3,0.6,0.4c0.1,0,0.2,0,0.3,0c0.1,0,0.1-0.1,0.2-0.1
			c0,0,0.1-0.1,0.1-0.1C132.4,94.4,132.5,94.3,132.4,94.2C132.4,94.2,132.4,94.2,132.4,94.2z"/>
		<path class="st2" d="M123.4,65.7h-15.9v34.1h15.9V65.7z"/>
		<path class="st3" d="M111.6,72.3c-0.1,0.1-0.2,0.2-0.3,0.2c-0.3,0.2-0.7,0.3-1,0.3v0c0.5-1,1.1-1.9,1.8-2.7
			c0.2-0.3,0.5-0.5,0.8-0.7c0.2-0.1,0.4-0.2,0.5-0.1c0.2,0,0.4,0.1,0.5,0.2c0.2,0.1,0.3,0.3,0.3,0.5c0.1,0.2,0.1,0.4,0.1,0.6
			c-0.1,0.4-0.2,0.9-0.5,1.2c-0.5,0.8-1.1,1.6-1.8,2.2c-0.4,0.3-0.8,0.6-1.3,0.9c-0.2,0.1-0.5,0.2-0.8,0.2c-0.3,0-0.6,0-0.8-0.1
			c-0.3-0.1-0.5-0.3-0.6-0.5c-0.2-0.2-0.2-0.5-0.2-0.8c0-0.6,0.1-1.1,0.3-1.7c0.4-1.1,1-2.2,1.8-3c0.3-0.3,0.5-0.6,0.8-0.8
			c0.3-0.3,0.6-0.5,0.9-0.7c0.6-0.4,1.4-0.6,2.1-0.7c0.4,0,0.7,0.1,1.1,0.2c0.3,0.2,0.6,0.4,0.8,0.7c0.4,0.6,0.5,1.3,0.4,2
			c-0.1,0.6-0.3,1.3-0.6,1.9c-0.3,0.6-0.6,1.1-0.9,1.6c-0.6,0.9-1.2,1.8-2,2.7c-1.1,1.2-2.4,2.1-3.9,2.7c-0.4,0.2-0.8,0.3-1.3,0.4
			c-0.3,0.1-0.4,0.1-0.4,0.1l0.1,0c0.1,0,0.2,0,0.3-0.1c0.4-0.1,0.8-0.2,1.3-0.4c1.5-0.6,2.8-1.5,3.9-2.7c0.7-0.8,1.4-1.7,2-2.7
			c0.3-0.5,0.6-1,0.9-1.6c0.3-0.6,0.5-1.2,0.6-1.9c0.1-0.7-0.1-1.4-0.4-2c-0.2-0.3-0.5-0.5-0.8-0.7c-0.3-0.2-0.7-0.2-1-0.2
			c-0.7,0-1.5,0.3-2.1,0.7c-0.3,0.2-0.6,0.4-0.9,0.7c-0.3,0.3-0.6,0.5-0.8,0.8c-0.8,0.9-1.4,1.9-1.8,3c-0.2,0.5-0.3,1.1-0.3,1.7
			c0,0.3,0.1,0.6,0.2,0.8c0.1,0.2,0.4,0.4,0.6,0.5c0.3,0.1,0.5,0.1,0.8,0.1c0.3,0,0.5-0.1,0.8-0.2c0.5-0.2,0.9-0.5,1.3-0.9
			c0.7-0.6,1.3-1.4,1.8-2.2c0.2-0.4,0.4-0.8,0.5-1.2c0-0.2,0-0.4-0.1-0.6c-0.1-0.2-0.2-0.4-0.3-0.5c-0.1-0.1-0.3-0.2-0.5-0.2
			c-0.2,0-0.4,0-0.5,0.1c-0.3,0.2-0.6,0.4-0.8,0.7c-0.7,0.8-1.3,1.7-1.8,2.6v0c0.4,0,0.7-0.1,1-0.2
			C111.4,72.4,111.5,72.4,111.6,72.3L111.6,72.3z"/>
		<path class="st3" d="M123.5,68.8h-0.2c-0.2,0-0.4,0-0.6,0.1c-0.3,0.1-0.6,0.2-0.9,0.4c-0.4,0.2-0.7,0.5-1.1,0.9
			c-0.8,0.9-1.5,1.8-2.2,2.8c-0.7,1.1-1.4,2.4-2.2,3.7c-0.4,0.7-0.8,1.3-1.2,1.9c-0.4,0.6-0.8,1.1-1.3,1.6c-0.8,0.9-1.7,1.6-2.7,2.3
			c-0.7,0.4-1.4,0.7-2.2,0.9c-0.2,0.1-0.4,0.1-0.6,0.1l-0.2,0l0.2,0c0.2,0,0.4-0.1,0.6-0.1c0.8-0.2,1.5-0.5,2.2-0.9
			c1-0.6,1.9-1.4,2.7-2.3c0.5-0.5,0.9-1.1,1.3-1.6c0.4-0.6,0.8-1.2,1.2-1.9c0.8-1.3,1.5-2.6,2.3-3.7c0.6-1,1.4-1.9,2.2-2.8
			c0.3-0.3,0.7-0.6,1.1-0.9c0.3-0.2,0.6-0.3,0.9-0.4c0.2-0.1,0.4-0.1,0.6-0.1L123.5,68.8z"/>
		<path class="st3" d="M107.5,89.4h0.2c0.1,0,0.2,0,0.3,0l0.4,0c0.9-0.1,1.7-0.4,2.4-0.8c1.1-0.6,2.1-1.4,3-2.3
			c1-1.1,1.8-2.4,2.6-3.9c0.8-1.5,1.5-2.9,2.2-4.1c0.6-1.1,1.4-2.1,2.2-3.1c0.6-0.6,1.2-1.2,1.9-1.7l0.3-0.2
			c0.1-0.1,0.2-0.1,0.3-0.1c0.1-0.1,0.2-0.1,0.2-0.1s-0.1,0-0.2,0.1c-0.1,0-0.2,0.1-0.3,0.1l-0.3,0.2c-0.7,0.5-1.4,1.1-1.9,1.7
			c-0.8,1-1.6,2-2.2,3.1c-0.7,1.2-1.4,2.7-2.2,4.1c-0.8,1.5-1.7,2.8-2.6,3.9c-0.9,1-1.9,1.7-3,2.3c-0.8,0.4-1.6,0.7-2.5,0.8l-0.4,0
			c-0.1,0-0.2,0-0.3,0L107.5,89.4z"/>
		<path class="st3" d="M119.6,87.9c0,0-0.1,0.1-0.2,0.3c-0.1,0.1-0.2,0.2-0.3,0.3c-0.1,0.1-0.3,0.2-0.5,0.3c-0.1,0-0.3,0-0.4,0
			c-0.1,0-0.2-0.1-0.4-0.1c-0.1-0.1-0.2-0.2-0.2-0.4c0-0.2,0-0.3,0-0.5c0-0.2,0.1-0.3,0.1-0.5c0.1-0.2,0.1-0.3,0.2-0.5
			c0.4-0.7,0.9-1.4,1.5-1.9c0.3-0.3,0.8-0.5,1.2-0.6c0.2,0,0.5,0,0.7,0.1c0.1,0.1,0.2,0.2,0.3,0.3c0.1,0.1,0.1,0.2,0.1,0.4
			c0,0.3,0.1,0.5,0,0.8c0,0.3,0,0.5-0.1,0.8c-0.2,1.1-0.6,2.2-1.2,3.1c-0.7,1-1.5,1.9-2.6,2.5c-0.5,0.3-1.1,0.5-1.7,0.6
			c-0.3,0-0.6-0.1-0.9-0.2c-0.3-0.2-0.5-0.4-0.5-0.7c-0.1-0.3-0.1-0.6,0-0.9c0-0.3,0.1-0.6,0.2-0.8c0.2-0.5,0.4-1,0.6-1.5
			c0.8-1.8,1.9-3.3,3.3-4.7c0.9-0.9,2-1.7,3.1-2.3l0.5-0.3l0.4-0.2l0.3-0.1l-0.3,0.2l-0.4,0.2l-0.5,0.3c-1.1,0.6-2.2,1.4-3.1,2.3
			c-1.4,1.3-2.5,2.9-3.3,4.6c-0.2,0.5-0.4,1-0.6,1.5c-0.1,0.3-0.2,0.5-0.2,0.8c-0.1,0.3,0,0.6,0,0.9c0.1,0.3,0.3,0.5,0.5,0.7
			c0.3,0.1,0.6,0.2,0.9,0.2c0.6,0,1.2-0.2,1.7-0.6c1-0.6,1.9-1.5,2.6-2.5c0.6-0.9,1-2,1.2-3.1c0-0.3,0.1-0.5,0.1-0.8
			c0-0.3,0-0.5,0-0.8c0-0.1-0.1-0.2-0.1-0.3c-0.1-0.1-0.2-0.2-0.3-0.3c-0.2-0.1-0.5-0.2-0.7-0.1c-0.5,0.1-0.9,0.3-1.2,0.6
			c-0.6,0.5-1.1,1.2-1.5,1.9c-0.1,0.2-0.2,0.3-0.2,0.5c-0.1,0.2-0.1,0.3-0.2,0.5c0,0.2,0,0.3,0,0.5c0,0.1,0.1,0.3,0.2,0.4
			c0.1,0.1,0.2,0.1,0.3,0.1c0.1,0,0.2,0,0.4,0c0.2-0.1,0.4-0.2,0.5-0.3c0.1-0.1,0.2-0.2,0.3-0.3L119.6,87.9z"/>
		<path class="st5" d="M125.1,92.7H50.6V95h74.5V92.7z"/>
		<path class="st6" d="M61.2,92.7C61.2,92.7,61.2,92.7,61.2,92.7c-0.1,0.1-0.1,0.2-0.2,0.2c0,0-0.1,0.1-0.1,0.1
			c-0.3,0.3-0.7,0.4-1.1,0.5c-0.6,0.1-1.2,0.1-1.8-0.1c-0.7-0.1-1.4-0.3-2.2-0.2c-0.4,0-0.7,0.1-1.1,0.2c-0.3,0.1-0.7,0.2-1,0.4
			c-0.6,0.3-1.2,0.5-1.6,0.7c-0.4,0.1-0.8,0.2-1.2,0.3c-0.1,0-0.3,0-0.4,0l0.1,0c0.1,0,0.2,0,0.3,0c0.4-0.1,0.8-0.2,1.2-0.3
			c0.5-0.2,1-0.4,1.6-0.7c0.3-0.1,0.6-0.3,1-0.4c0.4-0.1,0.7-0.2,1.1-0.2c0.8-0.1,1.5,0.1,2.2,0.2c0.6,0.1,1.2,0.2,1.8,0.1
			c0.4-0.1,0.8-0.2,1.1-0.5c0,0,0.1-0.1,0.1-0.1C61.1,92.8,61.1,92.8,61.2,92.7C61.2,92.7,61.2,92.7,61.2,92.7z"/>
		<path class="st6" d="M60.9,95L60.9,95l-0.3-0.1l-0.8-0.3c-0.3-0.1-0.7-0.3-1.2-0.4c-0.5-0.2-1-0.3-1.5-0.3c-0.9,0-1.8,0.1-2.6,0.5
			c-0.2,0.1-0.5,0.3-0.7,0.4L53.7,95c0,0,0,0-0.1,0c0,0,0,0,0.1,0l0.2-0.1c0.2-0.2,0.5-0.3,0.7-0.4c0.8-0.4,1.7-0.6,2.7-0.6
			c0.5,0,1,0.1,1.5,0.3c0.4,0.2,0.8,0.3,1.2,0.4l0.8,0.3L60.9,95L60.9,95z"/>
		<path class="st6" d="M67.2,94.2c0.1,0,0.2,0.1,0.3,0c0.1,0,0.3,0,0.4-0.1c0.2-0.1,0.3-0.2,0.4-0.4v0c-0.4-0.1-0.8-0.1-1.2,0
			c-0.2,0.1-0.5,0.1-0.7,0.3c-0.1,0.1-0.2,0.2-0.3,0.3c0,0.1,0,0.1,0,0.2c0,0.1,0.1,0.1,0.1,0.1c0.2,0.1,0.5,0.1,0.8,0.1
			c0.3,0,0.6,0,0.9-0.1c0.3,0,0.6-0.1,0.9-0.2c0.2,0,0.3-0.1,0.5-0.2c0.1,0,0.1-0.1,0.2-0.1c0.1-0.1,0.1-0.1,0.1-0.2
			c0-0.1,0-0.1,0-0.2c0-0.1,0-0.1-0.1-0.2c-0.1-0.1-0.2-0.2-0.3-0.3c-0.1-0.1-0.2-0.1-0.4-0.2c-0.1,0-0.2-0.1-0.4-0.1
			c-0.5-0.1-1-0.1-1.5-0.1c-0.8,0.1-1.6,0.4-2.4,0.7c-0.6,0.3-1.1,0.6-1.5,0.8l-0.4,0.2L62.9,95l0.1-0.1l0.4-0.3
			c0.5-0.3,0.9-0.6,1.4-0.9c0.7-0.4,1.6-0.7,2.4-0.8c0.5-0.1,1,0,1.5,0.1c0.1,0,0.3,0.1,0.4,0.1c0.1,0,0.2,0.1,0.4,0.2
			c0.1,0.1,0.2,0.2,0.3,0.3c0,0.1,0.1,0.1,0.1,0.2c0,0.1,0,0.1,0,0.2c0,0.1-0.1,0.2-0.1,0.2c-0.1,0.1-0.1,0.1-0.2,0.1
			c-0.2,0.1-0.3,0.1-0.5,0.2c-0.3,0.1-0.6,0.1-0.9,0.2c-0.3,0-0.6,0.1-0.9,0.1c-0.1,0-0.3,0-0.4,0c-0.1,0-0.3,0-0.4-0.1
			c-0.1,0-0.1-0.1-0.1-0.2c0-0.1,0-0.1,0-0.2c0.1-0.1,0.2-0.2,0.3-0.3c0.2-0.1,0.4-0.2,0.7-0.3c0.4-0.1,0.8-0.1,1.2,0h0v0
			c-0.1,0.2-0.3,0.3-0.4,0.4c-0.2,0.1-0.5,0.1-0.7,0.1C67.3,94.2,67.3,94.2,67.2,94.2z"/>
		<path class="st6" d="M73.7,92.7C73.7,92.7,73.7,92.7,73.7,92.7l-0.1,0.1c-0.1,0.1-0.2,0.2-0.3,0.4c-0.3,0.4-0.7,0.8-1.1,1.1
			c-0.4,0.3-0.9,0.5-1.4,0.7C70.7,95,70.5,95,70.3,95c0,0,0.1,0,0.2,0c0.2,0,0.3,0,0.5-0.1c0.5-0.1,1-0.4,1.4-0.7
			c0.4-0.3,0.8-0.7,1.1-1.1c0.1-0.2,0.2-0.3,0.3-0.4C73.7,92.8,73.7,92.7,73.7,92.7L73.7,92.7z"/>
		<path class="st6" d="M78.8,92.7L78.8,92.7l-0.3,0c-0.2,0-0.4,0-0.7,0.1c-0.8,0.1-1.5,0.3-2.2,0.6c-0.7,0.3-1.4,0.6-2,1.1
			c-0.2,0.2-0.4,0.3-0.6,0.4L72.8,95l-0.1,0c0.2-0.2,0.5-0.4,0.8-0.6c1.3-0.9,2.7-1.4,4.3-1.7C78.1,92.7,78.4,92.7,78.8,92.7z"/>
		<path class="st6" d="M88.8,92.7C88.8,92.7,88.8,92.7,88.8,92.7c-0.1,0.2-0.2,0.2-0.3,0.3c-0.3,0.3-0.6,0.5-0.9,0.6
			C87.1,93.8,86.6,94,86,94c-0.7,0-1.4,0-2.1,0c-0.7-0.1-1.4-0.1-2-0.1c-0.6,0-1.1,0.1-1.6,0.3c-0.4,0.1-0.7,0.3-1,0.5
			c-0.1,0.1-0.2,0.1-0.2,0.2c0,0.1-0.1,0.1-0.1,0.1L79,95c0-0.1,0.1-0.1,0.2-0.2c0.3-0.2,0.6-0.4,1-0.6c0.5-0.2,1.1-0.3,1.6-0.3
			c0.7,0,1.4,0,2.1,0.1c0.7,0.1,1.4,0.1,2,0c0.6,0,1.1-0.2,1.6-0.4c0.3-0.1,0.7-0.4,0.9-0.6C88.6,92.9,88.7,92.8,88.8,92.7
			L88.8,92.7z"/>
		<path class="st6" d="M95,94L95,94c-0.5-0.1-0.9,0-1.2,0.2v0c0.7,0.1,1.5,0.2,2.2,0.2c0.2,0,0.5,0,0.7,0c0.1,0,0.2-0.1,0.3-0.1
			c0,0,0,0,0-0.1c0,0,0-0.1,0-0.1c0,0,0-0.1,0-0.1c0,0,0-0.1-0.1-0.1c-0.1-0.1-0.2-0.1-0.4-0.2c-0.1,0-0.3,0-0.4,0
			c-0.3,0-0.6,0-0.9,0c-0.6,0-1.2,0-1.8,0.1c-0.3,0-0.6,0.1-1,0.1c-0.2,0-0.3,0.1-0.5,0.1c-0.1,0-0.1,0.1-0.2,0.1c0,0,0,0.1,0,0.1
			c0,0,0,0.1,0,0.1c0.1,0.1,0.3,0.2,0.4,0.2c0.2,0,0.3,0.1,0.5,0.1c0.3,0.1,0.7,0.1,1.1,0.2c0.7,0.1,1.5,0.1,2.2,0.1
			c0.5,0,1-0.1,1.5-0.2c0.2,0,0.5-0.1,0.7-0.2c0.2,0,0.5-0.1,0.7-0.3c0,0,0.1-0.1,0.1-0.1s0-0.1,0-0.2c0-0.1,0-0.1-0.1-0.2
			c0,0-0.1-0.1-0.1-0.1c-0.2-0.1-0.4-0.2-0.7-0.2c-0.2-0.1-0.4-0.1-0.7-0.2c-0.2-0.1-0.4-0.1-0.7-0.1c-1.6-0.3-3.1-0.2-4.7,0.2
			c-1,0.2-2,0.6-3,1.1l-0.4,0.2l-0.3,0.2C88.4,95,88.3,95,88.3,95l0.2-0.2l0.3-0.2l0.4-0.3c0.9-0.5,1.9-0.9,3-1.1
			c1.5-0.4,3.1-0.4,4.7-0.2c0.2,0,0.4,0.1,0.7,0.1c0.2,0.1,0.4,0.1,0.7,0.2c0.2,0.1,0.4,0.1,0.7,0.2c0.1,0,0.1,0.1,0.2,0.1
			c0,0,0.1,0.1,0.1,0.2c0,0.1,0,0.1,0,0.2c0,0.1-0.1,0.1-0.1,0.2c-0.2,0.2-0.4,0.2-0.7,0.3c-0.2,0.1-0.5,0.1-0.7,0.2
			c-0.5,0.1-1,0.1-1.5,0.2c-0.7,0-1.5,0-2.2-0.1c-0.4,0-0.7-0.1-1.1-0.2c-0.2,0-0.3-0.1-0.5-0.1c-0.2,0-0.3-0.1-0.5-0.2
			c0,0,0-0.1,0-0.1c0,0,0-0.1,0-0.1c0.1-0.1,0.1-0.1,0.2-0.2c0.2-0.1,0.3-0.1,0.5-0.1c0.3-0.1,0.7-0.1,1-0.1
			c0.6-0.1,1.2-0.1,1.9-0.1c0.3,0,0.6,0,0.9,0c0.1,0,0.3,0,0.4,0c0.1,0,0.3,0.1,0.4,0.2c0,0,0,0,0.1,0.1c0,0,0,0.1,0,0.1
			c0,0,0,0.1,0,0.1s0,0.1-0.1,0.1c-0.1,0.1-0.2,0.1-0.3,0.2c-0.2,0-0.5,0-0.7,0c-0.7,0-1.5-0.1-2.2-0.2h0h0c0.3-0.1,0.6-0.2,0.9-0.2
			C94.8,93.9,94.9,93.9,95,94z"/>
		<path class="st6" d="M102.5,92.7c0,0,0.1,0,0.2,0c0.4,0.1,0.7,0.2,1.1,0.3c0.2,0.1,0.3,0.2,0.5,0.3c0.2,0.1,0.3,0.3,0.3,0.5
			c0,0.1,0,0.2-0.1,0.3s-0.1,0.2-0.2,0.3c-0.2,0.1-0.4,0.2-0.6,0.3c-0.2,0.1-0.4,0.1-0.6,0.2c-0.3,0.1-0.7,0.1-1,0.1
			c-0.3,0-0.6,0-0.9,0h0.1h0.2c0.2,0,0.4,0,0.7,0c0.3,0,0.7-0.1,1-0.1c0.2,0,0.4-0.1,0.6-0.2c0.2-0.1,0.4-0.2,0.5-0.3
			c0.1-0.1,0.1-0.2,0.2-0.2c0-0.1,0.1-0.2,0-0.3c0-0.2-0.1-0.4-0.3-0.5c-0.1-0.1-0.3-0.2-0.4-0.3c-0.1-0.1-0.3-0.1-0.4-0.2
			c-0.2-0.1-0.4-0.1-0.6-0.2C102.7,92.7,102.6,92.7,102.5,92.7L102.5,92.7z"/>
		<path class="st6" d="M106.3,92.7C106.4,92.7,106.4,92.7,106.3,92.7c0.2,0.1,0.2,0.2,0.3,0.3c0.2,0.3,0.3,0.6,0.3,0.9
			c0,0.3-0.2,0.7-0.4,0.9c-0.1,0.1-0.1,0.1-0.2,0.2c0,0-0.1,0-0.1,0.1c0.1-0.1,0.2-0.2,0.3-0.3c0.2-0.2,0.3-0.6,0.4-0.9
			c0-0.3-0.1-0.6-0.3-0.9C106.5,92.9,106.4,92.8,106.3,92.7z"/>
		<path class="st6" d="M110.3,92.7c0,0-0.1,0-0.1,0c-0.1,0-0.2,0.1-0.4,0.1c-0.8,0.3-1.5,0.9-2,1.7c-0.1,0.1-0.1,0.2-0.2,0.3
			c0,0,0,0.1-0.1,0.1c0,0,0,0,0,0c0,0,0-0.1,0-0.1c0.1-0.1,0.1-0.2,0.2-0.4c0.5-0.8,1.2-1.4,2-1.7c0.1-0.1,0.3-0.1,0.4-0.1
			L110.3,92.7L110.3,92.7z"/>
		<path class="st6" d="M125,95h-0.2c-0.2,0-0.3,0-0.5,0c-0.2,0-0.5-0.1-0.7-0.2c-0.3-0.1-0.6-0.2-0.9-0.3c-0.4-0.1-0.8-0.2-1.2-0.3
			c-0.5-0.1-0.9-0.1-1.4,0c-0.5,0.1-1,0.3-1.5,0.3c-0.6,0-1.1-0.1-1.6-0.3c-0.5-0.2-1-0.5-1.5-0.7c-0.5-0.2-1-0.2-1.5-0.3
			c-0.5,0-0.9,0-1.4,0.1c-0.4,0.1-0.8,0.2-1.1,0.4c-0.5,0.2-1,0.5-1.5,0.9c-0.1,0.1-0.2,0.2-0.3,0.3l-0.1,0.1c0,0,0,0,0.1-0.1
			c0.1-0.1,0.2-0.2,0.3-0.3c0.4-0.4,0.9-0.7,1.5-0.9c0.4-0.2,0.8-0.3,1.2-0.4c0.5-0.1,0.9-0.1,1.4-0.1c0.5,0,1,0.1,1.5,0.3
			c0.5,0.2,1,0.4,1.5,0.7c0.5,0.2,1,0.4,1.6,0.3c0.5-0.1,1-0.2,1.5-0.3c0.5-0.1,0.9-0.1,1.4,0c0.4,0.1,0.8,0.2,1.2,0.3
			c0.3,0.1,0.7,0.2,0.9,0.3c0.2,0.1,0.5,0.1,0.7,0.2c0.2,0,0.3,0,0.5,0H125z"/>
		<path class="st6" d="M121.3,92.8L121.3,92.8l0.1,0.1c0.1,0,0.2,0.1,0.4,0.2c0.4,0.2,0.9,0.4,1.3,0.5c0.5,0.1,0.9,0.2,1.4,0.2
			c0.2,0,0.3,0,0.4,0h0.1h0c0,0,0,0,0,0h-0.1c-0.1,0-0.2,0-0.4,0c-0.5,0-0.9-0.1-1.4-0.2c-0.5-0.1-0.9-0.3-1.3-0.5
			c-0.2-0.1-0.3-0.2-0.4-0.2L121.3,92.8C121.3,92.9,121.3,92.8,121.3,92.8z"/>
		<path class="st5" d="M127.2,97.4H52.7v2.4h74.5V97.4z"/>
		<path class="st6" d="M63.4,97.4C63.4,97.4,63.3,97.4,63.4,97.4c-0.1,0.1-0.1,0.2-0.2,0.2c0,0-0.1,0.1-0.1,0.1
			c-0.3,0.3-0.7,0.4-1.1,0.5c-0.6,0.1-1.2,0.1-1.8-0.1c-0.7-0.1-1.4-0.3-2.2-0.2c-0.4,0-0.7,0.1-1.1,0.2c-0.3,0.1-0.7,0.2-1,0.4
			c-0.6,0.3-1.2,0.5-1.6,0.7c-0.4,0.1-0.8,0.2-1.2,0.3c-0.1,0-0.3,0-0.4,0l0.1,0c0.1,0,0.2,0,0.3,0c0.4-0.1,0.8-0.2,1.2-0.3
			c0.5-0.2,1-0.4,1.6-0.7c0.3-0.1,0.6-0.3,1-0.4c0.4-0.1,0.7-0.2,1.1-0.2c0.8-0.1,1.5,0.1,2.2,0.2c0.6,0.1,1.2,0.2,1.8,0.1
			c0.4-0.1,0.8-0.2,1.1-0.5c0,0,0.1-0.1,0.1-0.1C63.2,97.5,63.3,97.5,63.4,97.4C63.3,97.4,63.4,97.4,63.4,97.4z"/>
		<path class="st6" d="M63,99.7L63,99.7l-0.3-0.1l-0.8-0.3c-0.3-0.1-0.7-0.3-1.2-0.4c-0.5-0.2-1-0.3-1.5-0.3c-0.9,0-1.8,0.1-2.6,0.5
			c-0.2,0.1-0.5,0.3-0.7,0.4l-0.2,0.1c0,0,0,0-0.1,0c0,0,0,0,0.1,0l0.2-0.1c1-0.7,2.2-1,3.4-1c0.5,0,1,0.1,1.5,0.3
			c0.4,0.2,0.8,0.3,1.2,0.4l0.8,0.3L63,99.7L63,99.7z"/>
		<path class="st6" d="M69.3,98.9c0.1,0,0.2,0.1,0.3,0c0.1,0,0.3,0,0.4-0.1c0.2-0.1,0.3-0.2,0.4-0.4v0c-0.4-0.1-0.8-0.1-1.2,0
			c-0.2,0-0.5,0.1-0.7,0.3c-0.1,0.1-0.2,0.2-0.3,0.3c0,0.1,0,0.1,0,0.2c0,0.1,0.1,0.1,0.1,0.1c0.2,0.1,0.5,0.1,0.8,0.1
			c0.3,0,0.6,0,0.9-0.1c0.3,0,0.6-0.1,0.9-0.2c0.2,0,0.3-0.1,0.5-0.2c0.1,0,0.1-0.1,0.2-0.1c0.1-0.1,0.1-0.1,0.1-0.2
			c0-0.1,0-0.1,0-0.2s0-0.1-0.1-0.2c-0.1-0.1-0.2-0.2-0.3-0.3c-0.1-0.1-0.2-0.1-0.4-0.2c-0.1,0-0.2-0.1-0.4-0.1
			c-0.5-0.1-1-0.1-1.5-0.1c-0.8,0.1-1.6,0.3-2.3,0.7c-0.6,0.3-1.1,0.6-1.5,0.8l-0.4,0.2l-0.1,0.1c0,0,0,0,0.1-0.1l0.4-0.3
			c0.5-0.3,1-0.6,1.5-0.9c0.7-0.4,1.5-0.6,2.4-0.8c0.5-0.1,1,0,1.5,0.1c0.1,0,0.3,0.1,0.4,0.1c0.1,0,0.2,0.1,0.4,0.2
			c0.1,0.1,0.2,0.2,0.3,0.3c0,0.1,0.1,0.1,0.1,0.2c0,0.1,0,0.1,0,0.2c0,0.1-0.1,0.2-0.1,0.2c-0.1,0.1-0.1,0.1-0.2,0.1
			c-0.2,0.1-0.3,0.1-0.5,0.2c-0.3,0.1-0.6,0.1-0.9,0.2c-0.3,0-0.6,0.1-0.9,0.1c-0.1,0-0.3,0-0.4,0c-0.1,0-0.3,0-0.4-0.1
			c-0.1,0-0.1-0.1-0.1-0.2c0-0.1,0-0.1,0-0.2c0.1-0.1,0.2-0.2,0.3-0.3c0.2-0.1,0.4-0.2,0.7-0.3c0.4-0.1,0.8-0.1,1.2,0h0v0
			c-0.1,0.2-0.2,0.3-0.4,0.4c-0.1,0.1-0.3,0.1-0.4,0.1c-0.1,0-0.2,0-0.3,0L69.3,98.9z"/>
		<path class="st6" d="M75.9,97.4C75.9,97.4,75.9,97.4,75.9,97.4l-0.1,0.1c-0.1,0.1-0.2,0.2-0.3,0.4c-0.3,0.4-0.7,0.8-1.1,1.1
			c-0.4,0.3-0.9,0.5-1.4,0.7c-0.2,0.1-0.4,0.1-0.6,0.1c0.1,0,0.1,0,0.2,0c0.2,0,0.3,0,0.5-0.1c0.5-0.1,1-0.4,1.4-0.7
			c0.4-0.3,0.8-0.7,1.1-1.1c0.1-0.2,0.2-0.3,0.3-0.4L75.9,97.4L75.9,97.4z"/>
		<path class="st6" d="M80.9,97.4L80.9,97.4l-0.3,0c-0.2,0-0.4,0-0.7,0.1c-1.5,0.3-3,0.8-4.2,1.7c-0.2,0.2-0.4,0.3-0.6,0.4L75,99.7
			c0,0,0,0-0.1,0c0.2-0.2,0.5-0.4,0.8-0.6c1.3-0.9,2.7-1.4,4.3-1.7C80.2,97.4,80.5,97.4,80.9,97.4z"/>
		<path class="st6" d="M90.9,97.4C90.9,97.4,90.9,97.4,90.9,97.4c-0.1,0.2-0.2,0.2-0.3,0.3c-0.3,0.3-0.6,0.5-0.9,0.6
			c-0.5,0.2-1.1,0.4-1.6,0.4c-0.7,0-1.4,0-2.1,0c-0.7-0.1-1.4-0.1-2-0.1c-0.6,0-1.1,0.1-1.6,0.3c-0.4,0.1-0.7,0.3-1,0.5
			c-0.1,0.1-0.2,0.2-0.2,0.2c-0.1,0-0.1,0.1-0.1,0.1l0.1-0.1c0-0.1,0.1-0.1,0.2-0.2c0.3-0.2,0.6-0.4,1-0.6c0.5-0.2,1.1-0.3,1.6-0.3
			c0.7,0,1.4,0,2.1,0.1c0.7,0.1,1.4,0.1,2,0c0.6,0,1.1-0.2,1.6-0.4c0.3-0.1,0.7-0.4,0.9-0.6C90.7,97.6,90.8,97.5,90.9,97.4
			L90.9,97.4z"/>
		<path class="st6" d="M97.1,98.7L97.1,98.7c-0.2,0-0.2,0-0.3,0c-0.3,0-0.6,0.1-0.9,0.2v0c0.7,0.1,1.5,0.2,2.2,0.2
			c0.2,0,0.5,0,0.7,0c0.1,0,0.2-0.1,0.3-0.1c0,0,0,0,0-0.1c0,0,0-0.1,0-0.1c0,0,0-0.1,0-0.1c0,0,0-0.1-0.1-0.1
			c-0.1-0.1-0.2-0.1-0.4-0.2c-0.1,0-0.3,0-0.4,0c-0.3,0-0.6,0-0.9,0c-0.6,0-1.2,0-1.8,0.1c-0.3,0-0.6,0.1-1,0.1
			c-0.2,0-0.3,0.1-0.5,0.1c-0.1,0-0.1,0.1-0.2,0.1c0,0,0,0.1,0,0.1s0,0.1,0,0.1c0.1,0.1,0.3,0.2,0.4,0.2c0.2,0,0.3,0.1,0.5,0.1
			c0.3,0.1,0.7,0.1,1.1,0.2c1.2,0.1,2.5,0.1,3.7-0.1c0.2,0,0.5-0.1,0.7-0.2c0.2,0,0.5-0.1,0.7-0.3c0,0,0.1-0.1,0.1-0.1
			c0-0.1,0-0.1,0-0.2c0-0.1,0-0.1-0.1-0.2c0,0-0.1-0.1-0.1-0.1c-0.2-0.1-0.4-0.2-0.7-0.2c-0.2-0.1-0.4-0.1-0.7-0.2s-0.4-0.1-0.7-0.1
			c-1.6-0.3-3.1-0.2-4.7,0.2c-1,0.2-2,0.6-3,1.1L91,99.4l-0.3,0.2l-0.3,0.2l0.2-0.2l0.3-0.2l0.4-0.3c0.9-0.5,1.9-0.9,3-1.1
			c1.5-0.4,3.1-0.4,4.7-0.2c0.2,0,0.4,0.1,0.7,0.1c0.2,0.1,0.4,0.1,0.7,0.2c0.2,0.1,0.4,0.1,0.7,0.2c0.1,0,0.1,0.1,0.2,0.1
			c0,0,0.1,0.1,0.1,0.2c0,0.1,0,0.1,0,0.2c0,0.1-0.1,0.1-0.1,0.2c-0.2,0.2-0.4,0.2-0.7,0.3c-0.2,0.1-0.5,0.1-0.7,0.2
			c-0.5,0.1-1,0.1-1.5,0.2c-0.7,0-1.5,0-2.2-0.1c-0.4,0-0.7-0.1-1.1-0.2c-0.2,0-0.3-0.1-0.5-0.1c-0.2,0-0.3-0.1-0.5-0.2
			c0,0,0-0.1,0-0.1c0,0,0-0.1,0-0.1c0.1-0.1,0.1-0.1,0.2-0.2c0.2-0.1,0.3-0.1,0.5-0.1c0.3-0.1,0.7-0.1,1-0.1
			c0.6-0.1,1.2-0.1,1.9-0.1c0.3,0,0.6,0,0.9,0c0.1,0,0.3,0,0.4,0c0.1,0,0.3,0.1,0.4,0.2c0,0,0,0,0.1,0.1s0,0.1,0,0.1
			c0,0,0,0.1,0,0.1s0,0.1-0.1,0.1C99.1,99,98.9,99,98.8,99c-0.2,0-0.5,0-0.7,0c-0.7,0-1.5-0.1-2.2-0.2h0l0,0
			c0.3-0.1,0.6-0.2,0.9-0.2C96.9,98.6,97,98.6,97.1,98.7z"/>
		<path class="st6" d="M104.7,97.4c0.1,0,0.2,0,0.2,0c0.2,0,0.4,0.1,0.7,0.2c0.1,0,0.3,0.1,0.4,0.2c0.2,0.1,0.3,0.2,0.4,0.3
			c0.2,0.1,0.3,0.3,0.3,0.5c0,0.1,0,0.2,0,0.3s-0.1,0.2-0.2,0.3c-0.2,0.1-0.4,0.2-0.6,0.3c-0.2,0.1-0.4,0.1-0.6,0.2
			c-0.3,0.1-0.7,0.1-1,0.1c-0.3,0-0.6,0-0.9,0h0.1h0.2c0.2,0,0.4,0,0.7,0c0.3,0,0.7-0.1,1-0.1c0.2,0,0.4-0.1,0.6-0.2
			c0.2-0.1,0.4-0.2,0.5-0.3c0.1-0.1,0.1-0.2,0.2-0.2c0-0.1,0.1-0.2,0-0.3c0-0.2-0.1-0.4-0.3-0.5c-0.1-0.1-0.3-0.2-0.4-0.3
			c-0.3-0.2-0.7-0.3-1.1-0.3C104.8,97.4,104.8,97.4,104.7,97.4L104.7,97.4z"/>
		<path class="st6" d="M108.5,97.4C108.5,97.4,108.5,97.4,108.5,97.4c0.2,0.1,0.2,0.2,0.3,0.3c0.2,0.3,0.3,0.6,0.3,0.9
			c0,0.3-0.2,0.7-0.4,0.9c-0.1,0.1-0.1,0.1-0.2,0.2c0,0-0.1,0-0.1,0.1c0.1-0.1,0.2-0.2,0.3-0.3c0.2-0.2,0.3-0.6,0.4-0.9
			c0-0.3-0.1-0.6-0.3-0.9C108.6,97.6,108.6,97.5,108.5,97.4z"/>
		<path class="st6" d="M112.4,97.4c0,0-0.1,0-0.1,0c-0.1,0-0.2,0.1-0.4,0.1c-0.4,0.2-0.8,0.4-1.1,0.7c-0.3,0.3-0.6,0.6-0.9,1
			c-0.1,0.1-0.2,0.3-0.2,0.3c0,0,0,0.1-0.1,0.1c0,0,0,0,0,0l0-0.1c0.1-0.1,0.1-0.2,0.2-0.4c0.5-0.8,1.2-1.4,2-1.7
			c0.1,0,0.3-0.1,0.4-0.1L112.4,97.4L112.4,97.4z"/>
		<path class="st6" d="M127.1,99.7h-0.2c-0.2,0-0.3,0-0.5,0c-0.2,0-0.5-0.1-0.7-0.2c-0.3-0.1-0.6-0.2-0.9-0.3
			c-0.4-0.1-0.8-0.2-1.2-0.3c-0.5-0.1-0.9-0.1-1.4,0c-0.5,0.1-1,0.2-1.5,0.3c-0.6,0-1.1-0.1-1.6-0.3c-0.5-0.2-1-0.5-1.5-0.7
			c-0.5-0.2-1-0.2-1.5-0.3c-0.5,0-0.9,0-1.4,0.1c-0.4,0.1-0.8,0.2-1.1,0.4c-0.5,0.2-1,0.5-1.5,0.9c-0.1,0.1-0.2,0.2-0.3,0.3
			c-0.1,0.1-0.1,0.1-0.1,0.1s0,0,0.1-0.1c0.1-0.1,0.2-0.2,0.3-0.3c0.4-0.4,0.9-0.7,1.5-0.9c0.4-0.2,0.8-0.3,1.2-0.4
			c0.5-0.1,0.9-0.1,1.4-0.1c0.5,0,1,0.1,1.5,0.3c0.5,0.2,1,0.4,1.5,0.7c0.5,0.2,1,0.4,1.6,0.3c0.5,0,1-0.2,1.5-0.3
			c0.5-0.1,0.9-0.1,1.4,0c0.4,0.1,0.8,0.2,1.2,0.3c0.4,0.1,0.7,0.2,0.9,0.3c0.2,0.1,0.5,0.1,0.7,0.2c0.2,0,0.3,0,0.5,0L127.1,99.7z"
			/>
		<path class="st6" d="M123.4,97.5L123.4,97.5l0.1,0.1c0.1,0,0.2,0.1,0.4,0.2c0.4,0.2,0.9,0.4,1.3,0.5c0.5,0.1,0.9,0.2,1.4,0.2
			c0.2,0,0.3,0,0.4,0h0.1h0c0,0,0,0,0,0h-0.1c-0.1,0-0.2,0-0.4,0c-0.9,0-1.9-0.3-2.7-0.7c-0.2-0.1-0.3-0.2-0.4-0.2L123.4,97.5
			L123.4,97.5z"/>
		<path class="st6" d="M48.7,97.4h74.5V95H48.7V97.4z"/>
		<path class="st5" d="M112.6,97.4C112.6,97.4,112.6,97.4,112.6,97.4c0.1-0.1,0.1-0.2,0.2-0.2c0,0,0.1-0.1,0.1-0.1
			c0.3-0.3,0.7-0.4,1.1-0.5c0.6-0.1,1.2-0.1,1.8,0.1c0.7,0.1,1.4,0.3,2.2,0.2c0.4,0,0.7-0.1,1.1-0.2c0.3-0.1,0.7-0.2,1-0.4
			c0.6-0.3,1.2-0.5,1.6-0.7c0.4-0.1,0.8-0.2,1.2-0.3c0.1,0,0.3,0,0.4,0l-0.1,0c-0.1,0-0.2,0-0.3,0c-0.4,0.1-0.8,0.2-1.2,0.3
			c-0.5,0.2-1,0.4-1.6,0.7c-0.3,0.1-0.7,0.3-1,0.4c-0.4,0.1-0.7,0.2-1.1,0.2c-0.8,0.1-1.5-0.1-2.2-0.2c-0.6-0.1-1.2-0.2-1.8-0.1
			c-0.4,0.1-0.8,0.2-1.1,0.5c0,0-0.1,0.1-0.1,0.1C112.7,97.2,112.7,97.3,112.6,97.4L112.6,97.4z"/>
		<path class="st5" d="M112.9,95.1L112.9,95.1l0.3,0.1l0.8,0.3c0.3,0.1,0.7,0.3,1.2,0.4c0.5,0.2,1,0.3,1.5,0.3
			c0.9,0,1.8-0.1,2.6-0.5c0.2-0.1,0.5-0.3,0.7-0.4l0.2-0.1l0.1,0l-0.1,0l-0.2,0.1c-1,0.7-2.2,1-3.4,1c-0.5,0-1-0.1-1.5-0.3
			c-0.4-0.2-0.8-0.3-1.2-0.4l-0.8-0.3L112.9,95.1C113,95.1,113,95.1,112.9,95.1z"/>
		<path class="st5" d="M106.6,95.9c-0.1,0-0.2-0.1-0.3-0.1c-0.1,0-0.3,0-0.4,0.1c-0.2,0.1-0.3,0.2-0.4,0.4v0c0.4,0.1,0.8,0.1,1.2,0
			c0.2,0,0.5-0.1,0.7-0.2c0.1-0.1,0.2-0.2,0.3-0.3c0-0.1,0-0.1,0-0.2c0-0.1-0.1-0.1-0.1-0.1c-0.2-0.1-0.5-0.1-0.8-0.1
			c-0.3,0-0.6,0-0.9,0.1c-0.3,0-0.6,0.1-0.9,0.2c-0.2,0-0.3,0.1-0.5,0.2c-0.1,0-0.1,0.1-0.2,0.1c-0.1,0.1-0.1,0.1-0.1,0.2
			c0,0.1,0,0.1,0,0.2c0,0.1,0,0.1,0.1,0.2c0.1,0.1,0.2,0.2,0.3,0.3c0.1,0.1,0.2,0.1,0.4,0.2c0.1,0,0.2,0.1,0.4,0.1
			c0.5,0.1,1,0.1,1.5,0.1c0.8-0.1,1.6-0.3,2.3-0.7c0.6-0.3,1.1-0.6,1.5-0.8l0.4-0.2l0.1-0.1l-0.1,0.1l-0.4,0.3
			c-0.5,0.3-0.9,0.6-1.4,0.9c-0.7,0.4-1.5,0.6-2.4,0.7c-0.5,0.1-1,0-1.5-0.1c-0.1,0-0.3-0.1-0.4-0.1c-0.1,0-0.2-0.1-0.4-0.2
			c-0.1-0.1-0.2-0.2-0.3-0.3c0-0.1-0.1-0.1-0.1-0.2c0-0.1,0-0.1,0-0.2c0-0.1,0.1-0.2,0.1-0.2c0.1-0.1,0.1-0.1,0.2-0.1
			c0.2-0.1,0.3-0.1,0.5-0.2c0.6-0.2,1.2-0.2,1.9-0.2c0.1,0,0.3,0,0.4,0c0.1,0,0.3,0,0.4,0.1c0.1,0,0.1,0.1,0.1,0.2
			c0,0.1,0,0.1,0,0.2c-0.1,0.1-0.2,0.2-0.3,0.3c-0.2,0.1-0.4,0.2-0.7,0.3c-0.4,0.1-0.8,0.1-1.2,0h0v0c0.1-0.2,0.2-0.3,0.4-0.4
			c0.1-0.1,0.3-0.1,0.4-0.1c0.1,0,0.2,0,0.3,0L106.6,95.9z"/>
		<path class="st5" d="M100.1,97.4C100.1,97.4,100.1,97.4,100.1,97.4c0-0.1,0.1-0.1,0.1-0.1c0.1-0.1,0.2-0.2,0.3-0.4
			c0.3-0.4,0.7-0.8,1.1-1.1c0.4-0.3,0.9-0.5,1.4-0.7c0.2-0.1,0.4-0.1,0.6-0.1c-0.1,0-0.1,0-0.2,0c-0.2,0-0.3,0-0.5,0.1
			c-0.5,0.1-1,0.4-1.4,0.7c-0.4,0.3-0.8,0.7-1.1,1.1c-0.1,0.2-0.2,0.3-0.3,0.4L100.1,97.4C100.1,97.4,100.1,97.4,100.1,97.4z"/>
		<path class="st5" d="M95.1,97.4L95.1,97.4l0.3,0c0.2,0,0.4,0,0.7-0.1c0.8-0.1,1.5-0.3,2.2-0.6c0.7-0.3,1.4-0.6,2-1.1
			c0.2-0.2,0.4-0.3,0.6-0.4l0.2-0.1c0,0,0,0,0.1,0c-0.2,0.2-0.5,0.4-0.8,0.6c-0.6,0.4-1.3,0.8-2,1.1c-0.7,0.3-1.5,0.5-2.2,0.6
			C95.7,97.3,95.4,97.4,95.1,97.4z"/>
		<path class="st5" d="M85,97.4L85,97.4c0.1-0.2,0.2-0.2,0.3-0.3c0.3-0.3,0.6-0.5,0.9-0.6c0.5-0.2,1.1-0.4,1.6-0.4
			c0.7,0,1.4,0,2.1,0c0.7,0.1,1.4,0.1,2,0.1c0.6,0,1.1-0.1,1.6-0.3c0.4-0.1,0.7-0.3,1-0.5c0.1-0.1,0.2-0.2,0.2-0.2
			c0.1-0.1,0.1-0.1,0.1-0.1l-0.1,0.1c-0.1,0.1-0.1,0.1-0.2,0.2c-0.3,0.2-0.6,0.4-1,0.6c-0.5,0.2-1.1,0.3-1.6,0.3
			c-0.7,0-1.4,0-2.1-0.1c-0.7-0.1-1.4-0.1-2,0c-0.6,0-1.1,0.2-1.6,0.4c-0.3,0.1-0.7,0.4-0.9,0.6C85.2,97.2,85.1,97.3,85,97.4
			C85,97.4,85,97.4,85,97.4z"/>
		<path class="st5" d="M78.8,96.1L78.8,96.1c0.2,0,0.2,0,0.3,0c0.3,0,0.6-0.1,0.9-0.2v0c-0.7-0.1-1.5-0.2-2.2-0.2
			c-0.2,0-0.5,0-0.7,0c-0.1,0-0.2,0.1-0.3,0.1c0,0,0,0,0,0.1c0,0,0,0.1,0,0.1c0,0,0,0.1,0,0.1c0,0,0,0.1,0.1,0.1
			c0.1,0.1,0.2,0.1,0.4,0.2c0.1,0,0.3,0,0.4,0c0.3,0,0.6,0,0.9,0c0.6,0,1.2,0,1.8-0.1c0.3,0,0.6-0.1,1-0.1c0.2,0,0.3-0.1,0.5-0.1
			c0.1,0,0.1-0.1,0.2-0.1c0,0,0-0.1,0-0.1c0,0,0-0.1,0-0.1c-0.1-0.1-0.3-0.2-0.4-0.2c-0.2,0-0.3-0.1-0.5-0.1
			c-0.3-0.1-0.7-0.1-1.1-0.2c-0.7-0.1-1.5-0.1-2.2-0.1c-0.5,0-1,0.1-1.5,0.2c-0.2,0-0.5,0.1-0.7,0.2c-0.2,0-0.5,0.1-0.7,0.3
			c0,0-0.1,0.1-0.1,0.1c0,0.1,0,0.1,0,0.2c0,0.1,0,0.1,0.1,0.2c0,0,0.1,0.1,0.1,0.1c0.2,0.1,0.4,0.2,0.7,0.2
			c0.2,0.1,0.4,0.1,0.7,0.2c0.2,0.1,0.4,0.1,0.7,0.1c1.6,0.3,3.1,0.2,4.7-0.2c1-0.2,2-0.6,3-1.1l0.4-0.2l0.3-0.2l0.3-0.2
			c0,0-0.1,0.1-0.2,0.2L85,95.4l-0.4,0.3c-0.9,0.5-1.9,0.9-3,1.2c-1.5,0.4-3.1,0.4-4.7,0.2c-0.2,0-0.4-0.1-0.7-0.1
			c-0.2-0.1-0.4-0.1-0.7-0.2c-0.2-0.1-0.4-0.1-0.7-0.2c-0.1,0-0.1-0.1-0.2-0.1c0,0-0.1-0.1-0.1-0.2c0-0.1,0-0.1,0-0.2
			c0-0.1,0.1-0.1,0.1-0.2c0.2-0.2,0.4-0.2,0.7-0.3c0.2-0.1,0.5-0.1,0.7-0.2c0.5-0.1,1-0.1,1.5-0.2c0.7,0,1.5,0,2.2,0.1
			c0.4,0,0.7,0.1,1.1,0.2c0.2,0,0.3,0.1,0.5,0.1c0.2,0,0.3,0.1,0.5,0.2c0,0,0,0.1,0,0.1c0,0,0,0.1,0,0.1c-0.1,0.1-0.1,0.1-0.2,0.2
			c-0.2,0.1-0.3,0.1-0.5,0.1c-0.3,0.1-0.7,0.1-1,0.1c-0.6,0.1-1.2,0.1-1.9,0.1c-0.3,0-0.6,0-0.9,0c-0.1,0-0.3,0-0.4,0
			c-0.1,0-0.3-0.1-0.4-0.2c0,0,0,0-0.1-0.1c0,0,0-0.1,0-0.1c0,0,0-0.1,0-0.1c0,0,0-0.1,0-0.1c0.1-0.1,0.2-0.1,0.3-0.2
			c0.2,0,0.5,0,0.7,0c0.7,0,1.5,0.1,2.2,0.2h0l0,0c-0.3,0.1-0.6,0.2-0.9,0.2C79.1,96.1,78.9,96.1,78.8,96.1z"/>
		<path class="st5" d="M71.3,97.4c-0.1,0-0.2,0-0.2,0c-0.2,0-0.4-0.1-0.7-0.2c-0.1-0.1-0.3-0.1-0.4-0.2c-0.2-0.1-0.3-0.2-0.4-0.3
			c-0.2-0.1-0.3-0.3-0.3-0.5c0-0.1,0-0.2,0-0.3c0-0.1,0.1-0.2,0.2-0.3c0.2-0.1,0.4-0.2,0.6-0.3c0.2-0.1,0.4-0.1,0.6-0.2
			c0.3-0.1,0.7-0.1,1-0.1c0.3,0,0.6,0,0.9,0h-0.1h-0.2c-0.2,0-0.4,0-0.7,0c-0.3,0-0.7,0.1-1,0.2c-0.2,0-0.4,0.1-0.6,0.2
			c-0.2,0.1-0.4,0.2-0.5,0.3c-0.1,0.1-0.1,0.2-0.2,0.2c0,0.1-0.1,0.2,0,0.3c0,0.2,0.1,0.4,0.3,0.5c0.1,0.1,0.3,0.2,0.4,0.3
			c0.1,0.1,0.3,0.1,0.4,0.2c0.2,0.1,0.4,0.1,0.6,0.2C71.1,97.3,71.2,97.3,71.3,97.4C71.3,97.4,71.3,97.4,71.3,97.4z"/>
		<path class="st5" d="M67.5,97.4C67.5,97.4,67.4,97.4,67.5,97.4c-0.2-0.1-0.2-0.2-0.3-0.3c-0.2-0.3-0.3-0.6-0.3-0.9
			c0-0.3,0.2-0.7,0.4-0.9c0.1-0.1,0.1-0.1,0.2-0.2c0,0,0.1,0,0.1-0.1c-0.1,0.1-0.2,0.2-0.3,0.3c-0.2,0.2-0.3,0.6-0.4,0.9
			c0,0.3,0.1,0.6,0.3,0.9C67.3,97.2,67.4,97.3,67.5,97.4z"/>
		<path class="st5" d="M63.6,97.3c0,0,0.1,0,0.1,0c0.1,0,0.2-0.1,0.4-0.1c0.8-0.3,1.5-0.9,2-1.7c0.1-0.1,0.2-0.3,0.2-0.3
			c0,0,0-0.1,0.1-0.1c0,0,0,0,0,0l0,0.1c-0.1,0.1-0.1,0.2-0.2,0.4c-0.5,0.8-1.2,1.4-2,1.7c-0.1,0-0.3,0.1-0.4,0.1L63.6,97.3
			L63.6,97.3z"/>
		<path class="st5" d="M48.9,95.1H49c0.2,0,0.3,0,0.5,0c0.2,0,0.5,0.1,0.7,0.2c0.3,0.1,0.6,0.2,1,0.3c0.4,0.1,0.8,0.2,1.2,0.3
			c0.5,0.1,0.9,0.1,1.4,0c0.5-0.1,1-0.2,1.5-0.3c0.6,0,1.1,0.1,1.6,0.3c0.5,0.2,1,0.5,1.5,0.7c0.5,0.2,1,0.2,1.5,0.3
			c0.5,0,0.9,0,1.4-0.1c1-0.2,1.9-0.6,2.6-1.3c0.1-0.1,0.2-0.2,0.3-0.3c0.1-0.1,0.1-0.1,0.1-0.1l-0.1,0.1c-0.1,0.1-0.2,0.2-0.3,0.3
			c-0.4,0.4-0.9,0.7-1.5,0.9c-0.4,0.2-0.8,0.3-1.2,0.4c-1,0.2-2,0.2-2.9-0.1c-0.5-0.2-1-0.4-1.5-0.7c-0.5-0.2-1-0.4-1.6-0.3
			c-0.5,0.1-1,0.2-1.5,0.3c-0.5,0.1-0.9,0.1-1.4,0c-0.4-0.1-0.8-0.2-1.2-0.3c-0.3-0.1-0.7-0.2-0.9-0.3c-0.2-0.1-0.5-0.1-0.7-0.2
			c-0.2,0-0.3,0-0.5,0H48.9z"/>
		<path class="st5" d="M52.6,97.2L52.6,97.2l-0.1-0.1c-0.1,0-0.2-0.1-0.4-0.2c-0.4-0.2-0.9-0.4-1.3-0.5c-0.5-0.1-0.9-0.2-1.4-0.2
			c-0.2,0-0.3,0-0.4,0h-0.1c0,0,0,0,0,0h0h0.1c0.1,0,0.2,0,0.4,0c0.5,0,0.9,0.1,1.4,0.2c0.5,0.1,0.9,0.3,1.3,0.5
			c0.2,0.1,0.3,0.2,0.4,0.2L52.6,97.2C52.6,97.2,52.6,97.2,52.6,97.2z"/>
		<path class="st6" d="M125.1,95c0,0-16.7,0-37.3,0c-20.6,0-37.3,0-37.3,0c0,0,16.7,0,37.3,0C108.4,95,125.1,95,125.1,95z"/>
		<path class="st5" d="M68.7,90.7C68.7,90.7,68.7,90.7,68.7,90.7c-0.1,0-0.2,0-0.2,0c0,0-0.1,0-0.1-0.1c0-0.1-0.1-0.1-0.1-0.2
			c0-0.1,0-0.1,0-0.2c0-0.1,0.1-0.1,0.2-0.2c0.1,0,0.1-0.1,0.2-0.1c0.2,0,0.4,0,0.6,0.1c0.2,0.1,0.3,0.3,0.4,0.4
			C70,90.7,70,91,70,91.2c0,0.3-0.2,0.5-0.3,0.7c-0.3,0.4-0.8,0.6-1.3,0.7c-0.4,0.1-0.8,0.1-1.2,0.1c-0.3,0-0.6,0-0.8,0.1
			c-0.1,0-0.2,0-0.3,0c0.1,0,0.2-0.1,0.3-0.1c0.2,0,0.5-0.1,0.8-0.1c0.4,0,0.8-0.1,1.2-0.2c0.5-0.1,0.9-0.3,1.2-0.7
			c0.3-0.4,0.4-0.9,0.2-1.3c-0.1-0.2-0.2-0.3-0.4-0.4c-0.2-0.1-0.4-0.1-0.6-0.1c-0.1,0-0.1,0-0.2,0.1c-0.1,0-0.1,0.1-0.2,0.1
			c0,0,0,0.1,0,0.2c0,0.1,0,0.1,0,0.2c0,0,0,0.1,0.1,0.1C68.6,90.7,68.6,90.7,68.7,90.7C68.7,90.7,68.7,90.7,68.7,90.7z"/>
		<path class="st5" d="M67.1,92c0,0,0,0-0.1,0c-0.1,0-0.1,0-0.2-0.1c-0.1,0-0.1-0.1-0.1-0.2c0,0,0-0.1,0-0.2c0,0,0-0.1,0.1-0.1
			c0.1-0.1,0.2-0.1,0.3-0.2c0.1,0,0.1,0,0.2,0c0.1,0,0.1,0,0.2,0.1c0.1,0.1,0.2,0.2,0.2,0.3c0,0.1,0,0.3,0,0.4
			c0,0.1-0.1,0.2-0.2,0.3c-0.1,0.1-0.3,0.2-0.5,0.3c-0.1,0-0.3,0.1-0.4,0.1c-0.1,0-0.1,0-0.1,0s0.2,0,0.5-0.1
			c0.2-0.1,0.3-0.1,0.5-0.3c0.1-0.1,0.1-0.2,0.2-0.3c0-0.1,0-0.2,0-0.3c0-0.1-0.1-0.2-0.2-0.3c0,0-0.1-0.1-0.1-0.1c0,0-0.1,0-0.1,0
			c-0.1,0-0.2,0.1-0.2,0.1c0,0,0,0.1-0.1,0.1c0,0,0,0.1,0,0.1c0,0.1,0,0.1,0.1,0.2c0,0,0.1,0.1,0.1,0.1C67,92,67.1,92,67.1,92z"/>
		<path class="st7" d="M69.6,88.5c0,0-3.7,0.1-4.3-0.2s-2.9-2.8-2.9-2.8l-7.1-6.7l5.2-2.2L69.6,88.5z"/>
		<path class="st8" d="M63.2,86.3c-0.1-0.1-0.2-0.2-0.2-0.3c-0.1-0.3-0.2-0.6-0.3-0.9c0-0.3,0-0.6,0-1c0-0.1,0-0.3,0.1-0.4
			c0,0.4,0,0.9,0,1.3C62.9,85.4,63.1,85.9,63.2,86.3z"/>
		<path class="st6" d="M58.2,30.2c0.3,0.5,1,0.4,1.5,0.1c0.4-0.4,0.6-0.9,0.7-1.5c0.1-0.5,0.1-1.1,0.3-1.6c0.2-0.5,0.5-0.8,1-1.1
			c0.4-0.2,0.9-0.4,1.4-0.3c-0.5-1.1,0.1-2.5,1.2-2.9c0.5-0.2,1.1-0.1,1.7-0.2c0.3,0,0.6-0.1,0.9-0.2c-0.4-0.1-0.8-0.3-1.2-0.5
			c-0.3-0.2-0.5-0.5-0.6-0.8c-0.1-0.3-0.2-0.7-0.1-1c0-0.3,0.2-0.7,0.4-0.9c0.2-0.3,0.5-0.5,0.8-0.6c0.3-0.1,0.7-0.1,1,0
			c0.3,0.1,0.6,0.3,0.8,0.6c0.4,0.6,0.4,1.3,0.4,2c0,0.2,0,0.4,0,0.6c1.3-0.6,2.5-1.3,3.8-1.1c1.2,0.2,2.2,1.1,3.4,1.6
			c0.8,0.3,1.8,0.4,2.6,0.7c0.9,0.3,1.7,0.9,1.9,1.8c0.1,0.5-0.1,1.1,0,1.6c0.2,1.1,1.4,1.8,1.5,2.9c0.1,0.9-0.7,1.6-0.9,2.5
			c-0.2,0.9,0.2,1.9,0.4,2.8c0.3,0.9,0.3,2.1-0.4,2.7c-0.6,0.6-1.6,0.6-2.3,1.1c-0.5,0.4-0.6,1.1-0.9,1.6c-0.3,0.6-0.8,1.1-1.4,1
			l-7-1.4c-2.6-0.2-5.2-0.4-7.5-1.5s-4.2-3.4-4.1-6c0.3,0.1,0.7,0.2,1.1,0c-0.2-0.3-0.4-0.6-0.5-1C58.1,30.9,58.1,30.6,58.2,30.2z"
			/>
		<path class="st6" d="M62.3,34.6c0.3-1.8,0.5-3.7,1.1-5.4c0.6-1.8,1.4-3.4,2.8-4.7c0.2-0.2,1.7-1.4,2-1.3c0.2,0.1-1,1.4-1,1.6
			c0.1,1.9-0.5,3.8-1.5,5.4C64.7,31.8,63.6,33.3,62.3,34.6z"/>
		<path class="st7" d="M61.1,51c-2.5-1.3-2.7-8.3-2.7-8.3l6.8-14.5c1.9-4.2,5.9-6.6,10.1-4.6l0.4,0.2c1.8,1,3.2,2.7,3.8,4.6
			s0.5,4.1-0.3,6c-1.6,3.6-3.5,7.6-4.6,9.5c-2.2,3.8-6.4,2.3-6.4,2.3s-0.5,0.9-1,2.1C65.9,50.9,62.1,51.6,61.1,51L61.1,51z"/>
		<path class="st8" d="M68.2,46.2c0,0-2.5-1.2-4.2-4.3c0,0-0.3,3.5,3.7,5.3L68.2,46.2z"/>
		<path class="st6" d="M76,36.7c-0.1,0.1-0.2,0.3-0.4,0.3c-0.2,0-0.3,0-0.5,0c-0.1,0-0.1-0.1-0.2-0.1c-0.1-0.1-0.1-0.1-0.1-0.2
			c0-0.1,0-0.2,0-0.2c0-0.1,0-0.2,0.1-0.2c0.1-0.1,0.2-0.3,0.4-0.3c0.2,0,0.3,0,0.5,0c0.1,0,0.1,0.1,0.2,0.1
			c0.1,0.1,0.1,0.1,0.1,0.2c0,0.1,0,0.2,0,0.2C76,36.5,76,36.6,76,36.7z"/>
		<path class="st6" d="M77.5,35.5c-0.1,0-0.4-0.5-1-0.8c-0.6-0.3-1.2-0.3-1.2-0.4c0-0.1,0.1-0.1,0.4-0.2c0.4,0,0.7,0,1,0.2
			c0.3,0.2,0.6,0.4,0.7,0.8C77.5,35.4,77.5,35.5,77.5,35.5z"/>
		<path class="st6" d="M70.5,33.9c-0.1,0.1-0.2,0.3-0.4,0.3c-0.2,0-0.3,0-0.5,0c-0.1,0-0.1-0.1-0.2-0.1c-0.1-0.1-0.1-0.1-0.1-0.2
			c0-0.1,0-0.2,0-0.2c0-0.1,0-0.2,0.1-0.2c0.1-0.1,0.2-0.3,0.4-0.3c0.2,0,0.3,0,0.5,0c0.1,0,0.1,0.1,0.2,0.1
			c0.1,0.1,0.1,0.1,0.1,0.2c0,0.1,0,0.2,0,0.2C70.6,33.7,70.6,33.8,70.5,33.9z"/>
		<path class="st6" d="M71.5,32.6c-0.1,0-0.4-0.5-1-0.8c-0.6-0.3-1.2-0.3-1.2-0.4c0,0,0.1-0.1,0.4-0.2c0.4,0,0.7,0,1,0.2
			c0.3,0.2,0.6,0.4,0.7,0.8C71.6,32.4,71.6,32.6,71.5,32.6z"/>
		<path class="st6" d="M71.1,38.3c0,0,0.4,0.1,1.1,0.4c0.2,0.1,0.3,0.1,0.4,0c0.1-0.2,0.2-0.3,0.1-0.5c0.1-0.4,0.1-0.9,0.2-1.4
			c0.3-2,0.6-3.6,0.7-3.6c0.1,0-0.1,1.6-0.4,3.6c-0.1,0.5-0.1,1-0.2,1.4c0,0.2-0.1,0.5-0.3,0.6c-0.1,0-0.1,0.1-0.2,0.1
			c-0.1,0-0.1,0-0.2,0c-0.1,0-0.2-0.1-0.3-0.1C71.5,38.6,71.1,38.4,71.1,38.3z"/>
		<path class="st6" d="M69.1,37.8c0.1,0-0.3,0.7,0,1.5c0.3,0.8,1,1.1,1,1.2c0,0-0.2,0-0.5-0.1c-0.4-0.2-0.7-0.5-0.8-0.9
			c-0.2-0.4-0.2-0.8,0-1.2C68.9,37.9,69.1,37.7,69.1,37.8z"/>
		<path class="st6" d="M72.8,30.1c-0.1,0.1-0.7-0.3-1.4-0.6c-0.7-0.3-1.4-0.4-1.4-0.6c0-0.1,0.2-0.2,0.5-0.2c0.4,0,0.8,0,1.2,0.2
			c0.4,0.2,0.7,0.4,1,0.7C72.8,29.9,72.9,30.1,72.8,30.1z"/>
		<path class="st6" d="M78.3,33.4c-0.2,0.1-0.5-0.3-1-0.6c-0.5-0.3-1-0.4-1-0.6c0-0.1,0.1-0.2,0.4-0.2c0.3,0,0.7,0.1,0.9,0.2
			c0.3,0.2,0.5,0.4,0.7,0.7C78.4,33.2,78.4,33.4,78.3,33.4z"/>
		<path class="st7" d="M64,31.3c-0.1-0.1-2.2-2.3-3.6,0.4C59,34.4,62,35.2,62,35.2C62,35.1,64,31.3,64,31.3z"/>
		<path class="st8" d="M61.7,33.7c0,0-0.1,0-0.2,0c-0.1,0-0.3-0.1-0.4-0.2c-0.2-0.3-0.2-0.8,0-1.3c0.1-0.2,0.3-0.4,0.5-0.6
			c0.1-0.1,0.2-0.1,0.2-0.2c0.1,0,0.2,0,0.3,0c0.1,0,0.1,0,0.2,0.1c0,0,0.1,0.1,0.1,0.2c0,0.1,0,0.1,0,0.2c0,0,0.1,0,0.1-0.1
			c0-0.1,0-0.2,0-0.2c0,0-0.1-0.1-0.1-0.1c0,0-0.1-0.1-0.1-0.1c-0.1,0-0.3,0-0.4,0c-0.1,0-0.2,0.1-0.3,0.2c-0.2,0.2-0.4,0.4-0.5,0.7
			c-0.3,0.6-0.2,1.2,0.1,1.5c0.1,0.1,0.1,0.1,0.2,0.1c0.1,0,0.2,0,0.2,0C61.7,33.8,61.7,33.7,61.7,33.7z"/>
		<path class="st6" d="M79.7,29c0.6,0,0-2.1-0.9-3.1c-1.3-1.6-3.5-3.3-5.2-3.6c-2.1-0.4-4-0.2-5.7,0.9c-1.7,1.2-3,2.9-3.9,4.8
			c-0.3,0.6-0.5,1.2-0.4,1.9c0.1,0.8,0.6,1.5,0.2,2.3c-0.1,0.1-0.1,0.3-0.2,0.5c0,0.2,0,0.3,0,0.5c0.2,0.8,1.1,0.6,1.6,0.2
			c1.1-0.8,1.8-2,2.5-3.2c0.5-0.8,0.9-1.7,1.1-2.7c0.1-0.5,0.1-1.1,0.2-1.6c0.1-0.5,0.4-1,0.9-1.3c0.1,0,0.2-0.1,0.3-0.1
			c0.5-0.1,1.1-0.1,1.7,0c0.5,0.2,1,0.4,1.4,0.9c1.3,1.3,3.5,3.4,4.4,3.2c1.4-0.3,1.8-0.6,1.8-0.6L79.7,29z"/>
		<path class="st6" d="M73.9,22c1.7,0.2,3.4,1.1,4.4,2.5c0.5,0.8,0.9,1.7,0.7,2.6c-0.2,0.9-1,1.7-1.9,1.7h-0.1c-1.3-0.2-2-0.7-3-1.7
			c-0.8-0.8-1.4-1.9-2.2-2.7c-0.9-0.9-2-1.5-3.2-1.7C70.4,22.1,72.2,21.8,73.9,22z"/>
		<path class="st3" d="M66.7,23c0,0-0.1,0.3-0.2,0.9c-0.1,1.5,0.3,2.9,1.2,4.1c0.2,0.3,0.4,0.5,0.6,0.7c0.1,0-0.9-1.1-1.3-2.7
			C66.5,24.4,66.7,23.1,66.7,23z"/>
		<path class="st3" d="M65.3,23c-0.1,0.1-0.1,0.2-0.2,0.3c-0.1,0.3-0.2,0.6-0.3,0.9c-0.2,1-0.2,2.1,0.1,3.1c0.3,1,0.8,1.9,1.5,2.7
			c0.2,0.2,0.4,0.4,0.7,0.6c0.1,0.1,0.2,0.1,0.3,0.2c0,0-0.4-0.3-0.9-0.9c-0.7-0.8-1.2-1.7-1.4-2.6c-0.3-1-0.3-2-0.1-3
			C65.2,23.4,65.4,23,65.3,23z"/>
		<path class="st3" d="M77.1,23.3c0,0,0.2,0.2,0.6,0.6c0.9,1,1.5,2.3,1.7,3.7c0.1,0.5,0.1,0.8,0.1,0.9c0.1-0.3,0.1-0.6,0.1-0.9
			c0-0.7-0.2-1.4-0.5-2c-0.3-0.6-0.7-1.2-1.2-1.7C77.6,23.6,77.4,23.4,77.1,23.3z"/>
		<path class="st3" d="M66.4,18.5c0,0-0.3,0.8,0,1.9s0.9,1.6,0.9,1.6c0,0-0.5-0.7-0.7-1.7C66.4,19.4,66.5,18.5,66.4,18.5z"/>
		<path class="st8" d="M68.7,31.6c0,0-0.2,0.1-0.4,0c-0.2-0.1-0.3-0.2-0.3-0.2c0,0,0.2,0.1,0.3,0.1C68.6,31.6,68.7,31.6,68.7,31.6z"
			/>
		<path class="st8" d="M68.5,31.9c0,0-0.2,0-0.4,0c-0.2,0-0.4-0.1-0.4-0.1c0,0,0.2,0,0.4,0C68.3,31.8,68.5,31.9,68.5,31.9z"/>
		<path class="st8" d="M77.7,36.9c0,0-0.1-0.1-0.2-0.3c-0.1-0.2-0.1-0.3-0.1-0.3c0,0,0.1,0.1,0.2,0.3C77.7,36.7,77.7,36.9,77.7,36.9
			z"/>
		<path class="st8" d="M77.9,36.5c0,0-0.1,0-0.2-0.1c-0.1-0.1-0.2-0.2-0.2-0.2c0,0,0.1,0,0.2,0.1C77.8,36.4,77.9,36.5,77.9,36.5z"/>
		<path class="st8" d="M76.1,30.6c-0.1,0-0.2,0-0.3,0c-0.3,0-0.6-0.1-0.8-0.2c-0.3-0.1-0.5-0.3-0.7-0.5c-0.1-0.1-0.2-0.2-0.2-0.3
			c0.3,0.3,0.6,0.5,0.9,0.7C75.3,30.5,75.7,30.5,76.1,30.6L76.1,30.6z"/>
		<path class="st8" d="M76.3,30.1c-0.4,0.1-0.8,0-1.2-0.1c-0.4-0.1-0.7-0.4-1-0.7c0.3,0.2,0.6,0.4,1,0.6C75.6,30,76,30.1,76.3,30.1z
			"/>
		<path class="st3" d="M63.7,31.1c-0.1-0.1-0.3-0.2-0.4-0.3c-0.4-0.3-0.9-0.4-1.4-0.3h0v0c0.1-0.2,0.3-0.4,0.5-0.5
			c0.2-0.1,0.5-0.2,0.8-0.3c0.6-0.2,1.2-0.3,1.9-0.3c0.7-0.1,1.4-0.1,2.2-0.2l0.6,0c0.2,0,0.4,0,0.6,0c0.4,0.1,0.8,0.2,1.2,0.4
			l5,2.8l2.8,1.6l1.4,0.8l0.4,0.2c0.1,0,0.1,0.1,0.2,0.2c0,0.1,0.1,0.1,0.1,0.2c0,0.2,0,0.3-0.1,0.4l-0.2,0.4l-1.6,3.3
			c-0.1,0.1-0.1,0.3-0.2,0.4c0,0.1-0.1,0.1-0.2,0.2c-0.1,0-0.1,0.1-0.2,0.1c-0.2,0-0.3,0-0.5-0.1l-0.4-0.2c-0.5-0.3-1-0.5-1.5-0.8
			c-0.2-0.1-0.5-0.3-0.7-0.4c-0.1-0.1-0.2-0.2-0.3-0.3c-0.1-0.1-0.1-0.1-0.1-0.2c0-0.1,0-0.1,0-0.2c0-0.3-0.1-0.5-0.1-0.8
			c0-0.3,0-0.5-0.1-0.7c0,0-0.1,0-0.1-0.1c-0.1,0-0.1,0-0.2,0c-0.1,0-0.3,0-0.4,0c-0.2,0-0.5,0-0.7,0c-0.5,0-1,0-1.4,0.1h0h0
			c-1.2-0.6-2.3-1.2-3.2-1.7c-0.2-0.1-0.4-0.3-0.7-0.4c-0.2-0.2-0.3-0.4-0.3-0.6c-0.1-0.4-0.1-0.8-0.1-1.3l0,0l-1.8-1l-0.5-0.2
			C63.8,31.1,63.7,31.1,63.7,31.1c0,0,0.1,0,0.2,0.1l0.5,0.2l1.8,0.9h0v0c0,0.4,0,0.8,0.1,1.3c0,0.2,0.2,0.5,0.3,0.6
			c0.2,0.2,0.4,0.3,0.7,0.4c0.9,0.5,2,1.1,3.2,1.7h0c0.5,0,0.9-0.1,1.4-0.1c0.2,0,0.5,0,0.7,0c0.1,0,0.3,0,0.4,0c0.1,0,0.1,0,0.2,0
			c0.1,0,0.2,0,0.2,0.1c0.1,0.3,0.1,0.5,0.1,0.8c0,0.3,0,0.5,0.1,0.8c0,0.1,0,0.1,0,0.2c0,0.1,0,0.1,0.1,0.2
			c0.1,0.1,0.2,0.2,0.3,0.2c0.2,0.1,0.5,0.3,0.7,0.4c0.5,0.3,1,0.5,1.5,0.8l0.4,0.2C76.7,40,76.9,40,77,40c0.1,0,0.1,0,0.2-0.1
			c0.1,0,0.1-0.1,0.1-0.1l0.2-0.4c0.5-1.1,1-2.2,1.6-3.3l0.2-0.4c0.1-0.1,0.1-0.2,0.1-0.4c0-0.1,0-0.1-0.1-0.2
			c0-0.1-0.1-0.1-0.1-0.1l-0.4-0.2L77.3,34l-2.8-1.6l-5-2.8c-0.4-0.2-0.8-0.4-1.2-0.4c-0.4,0-0.8,0-1.2,0c-0.8,0-1.5,0.1-2.2,0.2
			c-0.6,0.1-1.2,0.2-1.8,0.3c-0.3,0.1-0.5,0.2-0.7,0.3c-0.1,0-0.2,0.1-0.3,0.2c-0.1,0.1-0.1,0.2-0.2,0.3l0,0c0.5,0,1,0.1,1.5,0.4
			c0.1,0,0.1,0.1,0.2,0.1C63.6,30.9,63.6,30.9,63.7,31.1C63.7,31,63.7,31.1,63.7,31.1z"/>
		<path class="st3" d="M69.5,35.5c-0.1,0-0.2-0.1-0.3-0.1c-0.2-0.1-0.4-0.2-0.7-0.3c-0.4-0.2-0.7-0.4-1-0.7
			c-0.2-0.2-0.3-0.4-0.5-0.6c-0.1-0.2-0.2-0.5-0.2-0.8c0-0.3,0.1-0.5,0.2-0.8c0.1-0.2,0.2-0.4,0.3-0.7c0.2-0.4,0.4-0.8,0.6-1.1
			c0.2-0.3,0.3-0.5,0.4-0.7c0-0.1,0.1-0.2,0.2-0.3c0,0.1-0.1,0.2-0.1,0.3c-0.1,0.2-0.2,0.4-0.4,0.7c-0.1,0.3-0.3,0.7-0.5,1.1
			c-0.1,0.2-0.2,0.4-0.3,0.7c-0.1,0.2-0.2,0.5-0.2,0.7c0,0.2,0.1,0.5,0.2,0.7c0.1,0.2,0.3,0.4,0.4,0.6c0.3,0.3,0.6,0.5,1,0.7
			c0.3,0.2,0.6,0.3,0.7,0.4C69.3,35.4,69.4,35.4,69.5,35.5z"/>
		<path class="st3" d="M74.1,38.1c0-0.1,0-0.1,0-0.2c0-0.1,0-0.3-0.1-0.6c0-0.2-0.1-0.5-0.1-0.8c0-0.2,0-0.3-0.1-0.5
			c0-0.1-0.1-0.1-0.2-0.2c-0.1,0-0.2-0.1-0.2-0.1c-0.6,0-1.2,0-1.9,0.1c-0.5,0-0.8,0.1-0.8,0.1c0.1,0,0.1,0,0.2,0
			c0.1,0,0.3-0.1,0.6-0.1c0.6-0.1,1.2-0.1,1.9-0.1c0.1,0,0.2,0,0.3,0.1c0.1,0,0.2,0.1,0.2,0.2c0.1,0.2,0.1,0.3,0.1,0.5
			c0,0.3,0,0.6,0.1,0.8c0,0.2,0,0.4,0,0.6C74.1,37.9,74.1,38,74.1,38.1z"/>
		<path class="st3" d="M69,29.6l8.1,4.4l0.8,0.4c0.3,0.1,0.5,0.3,0.7,0.6c0.1,0.1,0.1,0.3,0.1,0.4c0,0.2,0,0.3-0.1,0.4l-0.3,0.8
			l-0.6,1.4c-0.1,0.2-0.2,0.4-0.3,0.7c-0.1,0.2-0.2,0.4-0.4,0.6c-0.1,0.1-0.2,0.1-0.3,0.1c-0.1,0-0.2,0-0.3-0.1
			c-0.2-0.1-0.3-0.2-0.5-0.2l-0.8-0.4l-0.5-0.2l-0.1-0.1c0,0,0,0,0,0l0,0l0.1,0.1l0.5,0.2l0.8,0.4c0.1,0.1,0.3,0.2,0.5,0.2
			c0.1,0,0.2,0.1,0.3,0c0.1,0,0.2-0.1,0.2-0.1c0.1-0.2,0.3-0.3,0.3-0.5c0.1-0.2,0.2-0.4,0.3-0.7c0.2-0.5,0.4-0.9,0.6-1.4l0.3-0.8
			c0.1-0.1,0.1-0.3,0.1-0.4c0-0.1,0-0.3-0.1-0.4c-0.2-0.2-0.4-0.4-0.7-0.5l-0.8-0.4c-2.2-1.2-4.2-2.3-5.7-3.1
			c-0.7-0.4-1.3-0.7-1.7-1c-0.2-0.1-0.4-0.2-0.5-0.3L69,29.6C69,29.6,69,29.6,69,29.6z"/>
		<path class="st9" d="M74.6,34.4c-0.6,0.1-1.2,0.2-1.8,0.3c-0.6,0.1-1.2,0.2-1.8,0.2c0.6-0.1,1.2-0.2,1.8-0.3
			C73.4,34.5,74,34.4,74.6,34.4z"/>
		<path class="st9" d="M75.5,34.7c-0.5,0.1-1,0.2-1.4,0.3c-0.5,0.1-1,0.1-1.5,0.2c0.5-0.1,1-0.2,1.4-0.3
			C74.5,34.8,75,34.7,75.5,34.7z"/>
		<path class="st5" d="M42.1,44c1.1-2.9,4.3-4.2,4.9-4.5c0.1-0.1,2.4-0.2,2.6-0.1c1.5,0.2,7.1,0.7,7.1,0.7l2.8-0.5l1.9,9.2l-0.5,1.6
			l6.4-2l0,0.9c0.8,0.5,1.5,1.3,2.1,2.1c0.5,0.9,0.8,1.8,0.9,2.8c0.1,1.1,0.1,2.2-0.1,3.2c-0.5,3.2-6.8,16.9-6.8,16.9l0.6,1.3
			c0,0-8.7,4.1-9.1,3.8c-0.4-0.3-0.8-1.5-0.6-2.8c0.2-1.2,2.7-5.3,2.7-5.3l-20-2.9l0.8-12L42.1,44z"/>
		<path class="st6" d="M61,48.5c0,0-0.1,0-0.1,0l-0.3,0l-1.3,0l-0.9,0l-0.5,0c-0.1,0-0.2,0-0.3,0c-0.1,0-0.2-0.1-0.2-0.2
			c-0.1-0.1-0.1-0.2-0.1-0.3c0-0.1,0-0.2,0-0.3c0-0.2,0-0.4,0-0.6c0-0.4,0-0.8-0.1-1.2c-0.1-1.6-0.2-3.1-0.2-4.2c0-0.5,0-1-0.1-1.3
			c0-0.1,0-0.3,0-0.3c0,0,0-0.1,0-0.1c0,0,0,0.1,0,0.1c0,0.1,0,0.2,0,0.3c0,0.3,0.1,0.7,0.1,1.3c0.1,1.1,0.2,2.6,0.3,4.2
			c0,0.4,0,0.8,0.1,1.2c0,0.2,0,0.4,0,0.6c0,0.2,0,0.3,0.1,0.5c0.1,0.1,0.1,0.1,0.2,0.1c0.1,0,0.2,0,0.2,0h0.5h0.9h1.3h0.3
			C60.9,48.5,61,48.5,61,48.5z"/>
		<path class="st6" d="M67,49.4c-0.1,0.1-0.2,0.2-0.3,0.3L66,50.5c-0.4,0.4-0.8,0.7-1.2,1.1c-0.2,0.2-0.5,0.4-0.8,0.5
			c-0.3,0.2-0.6,0.3-0.9,0.4l-0.3,0.1l-0.1,0l0-0.1c0.1-0.4,0.2-0.8,0.2-1.2c0-0.4,0-0.7,0-1.1l0.1,0c-0.7,0.1-1.3,0.1-1.8,0.1
			l-0.5,0c-0.1,0-0.1,0-0.2,0c0.1,0,0.1,0,0.2,0c0.1,0,0.3,0,0.5,0c0.4,0,1,0,1.7-0.1h0v0c0,0.4,0,0.7,0,1.1c0,0.4-0.1,0.8-0.2,1.2
			l-0.1-0.1l0.3-0.1c0.3-0.1,0.6-0.2,0.9-0.4c0.3-0.2,0.5-0.3,0.8-0.5c0.5-0.4,0.8-0.7,1.2-1.1c0.3-0.3,0.6-0.6,0.8-0.7
			C66.8,49.6,66.9,49.5,67,49.4C67,49.5,67,49.5,67,49.4z"/>
		<path class="st9" d="M64.8,56.1c0,0-0.1,0-0.1,0l-0.3-0.1l-1.1-0.6c-0.9-0.5-2.3-1.1-3.7-1.8c-1.5-0.7-2.8-1.3-3.8-1.7l-1.1-0.5
			l-0.3-0.1c0,0-0.1,0-0.1-0.1c0,0,0.1,0,0.1,0l0.3,0.1c0.3,0.1,0.7,0.3,1.2,0.5c1,0.4,2.3,1,3.8,1.7c1.5,0.7,2.8,1.3,3.7,1.8
			c0.5,0.2,0.8,0.4,1.1,0.6L64.8,56.1C64.7,56.1,64.8,56.1,64.8,56.1z"/>
		<path class="st9" d="M64.2,57.4c0,0-2.4-1.1-5.3-2.5c-2.9-1.4-5.3-2.6-5.3-2.6c0,0,2.4,1.1,5.3,2.5C61.8,56.2,64.2,57.4,64.2,57.4
			z"/>
		<path class="st9" d="M66,68c-0.2-0.1-0.4-0.2-0.6-0.3l-1.4-0.9c-0.6-0.3-1.1-0.7-1.4-0.9c-0.2-0.1-0.4-0.3-0.6-0.4
			c0.2,0.1,0.4,0.2,0.6,0.3l1.4,0.9c0.6,0.3,1.1,0.7,1.4,0.9C65.6,67.7,65.8,67.8,66,68z"/>
		<path class="st9" d="M66.4,67.1c0,0-0.9-0.5-1.9-1.2c-1.1-0.7-1.9-1.3-1.9-1.3c0,0,0.9,0.5,1.9,1.2C65.6,66.5,66.4,67.1,66.4,67.1
			z"/>
		<path class="st3" d="M65.4,82.1l9.8,12.2l0.7,0.4h0.8L66.5,81.3L65.4,82.1z"/>
		<path class="st6" d="M63.3,74.7l3.8,6.7l-2,1.3l-4.7-6.1c-0.1-0.2-0.2-0.4-0.3-0.6c-0.1-0.2-0.1-0.5,0-0.7c0-0.2,0.1-0.5,0.3-0.7
			s0.3-0.4,0.5-0.5c0.2-0.1,0.4-0.2,0.6-0.2c0.2,0,0.5,0,0.7,0c0.2,0.1,0.4,0.2,0.6,0.3C63.1,74.3,63.2,74.5,63.3,74.7z"/>
		<path class="st10" d="M51.7,39.6c0,0,2.6,2.7,1.8,6.4s-4.4,9.1-4.4,9.1l2.3,1c0,0,4-7.4,4.4-10.1c0.4-2.7-1.6-6.2-1.6-6.2
			L51.7,39.6z"/>
		<path class="st10" d="M47.9,54.2l17.7,6.7l-10.8,13l3.6,27.9H24l0.4-24.1c0,0,1.7-9.7,3.8-13.1C30.3,61.2,47.9,54.2,47.9,54.2z"/>
		<path class="st6" d="M51.5,89L51.5,89h-0.2h-0.6h-0.5c-0.2,0-0.4,0-0.5,0c-0.4,0-0.8,0-1.3-0.1l-0.8-0.1c-0.3,0-0.5-0.1-0.8-0.1
			c-0.6-0.1-1.2-0.2-1.8-0.4c-1.4-0.4-2.7-0.8-4-1.4c-1.3-0.6-2.6-1.3-3.8-2c-0.5-0.4-1.1-0.7-1.5-1.1c-0.2-0.2-0.5-0.3-0.7-0.5
			l-0.6-0.5c-0.4-0.3-0.7-0.6-1-0.9c-0.1-0.1-0.3-0.3-0.4-0.4c-0.1-0.1-0.2-0.2-0.3-0.3l-0.4-0.5L32,80.6l0,0c0,0,0,0,0,0
			c0,0,0.1,0.1,0.1,0.1l0.5,0.5l0.3,0.3c0.1,0.1,0.3,0.2,0.4,0.4c0.3,0.3,0.6,0.6,1,0.9l0.6,0.5c0.2,0.2,0.4,0.3,0.7,0.5
			c0.5,0.4,1,0.7,1.5,1.1c2.4,1.5,5,2.7,7.8,3.4c0.6,0.2,1.2,0.3,1.8,0.4c0.3,0.1,0.6,0.1,0.8,0.1l0.8,0.1c0.5,0.1,0.9,0.1,1.3,0.1
			c0.2,0,0.4,0,0.5,0l0.5,0l0.6,0L51.5,89L51.5,89z"/>
		<path class="st6" d="M53.4,92.3C53.4,92.3,53.3,92.3,53.4,92.3l-0.2,0.1L53,92.6c-0.1,0.1-0.2,0.1-0.3,0.2
			c-0.6,0.4-1.4,0.6-2.1,0.7c-1.1,0.1-2.2,0.1-3.3-0.1c-0.6-0.1-1.3-0.2-1.9-0.4c-0.7-0.2-1.3-0.4-2-0.6c-2.3-0.8-4.5-1.8-6.6-3.2
			c-0.8-0.5-1.4-1-1.8-1.3l-0.5-0.4l-0.1-0.1l0,0c0,0,0,0,0,0l0.1,0.1l0.5,0.4c0.4,0.3,1,0.7,1.8,1.2c2.1,1.3,4.3,2.4,6.6,3.1
			c0.7,0.2,1.3,0.4,2,0.6c0.6,0.2,1.3,0.3,1.9,0.4c1.1,0.2,2.2,0.2,3.3,0.1c0.7-0.1,1.4-0.3,2.1-0.7l0.3-0.2l0.2-0.1L53.4,92.3
			C53.3,92.3,53.4,92.3,53.4,92.3z"/>
		<path class="st6" d="M67.9,57.1c0,0,0,0.1-0.1,0.1c0,0.1-0.1,0.2-0.2,0.3c-0.1,0.1-0.2,0.3-0.3,0.5c-0.1,0.2-0.3,0.5-0.4,0.7
			c-0.3,0.5-0.8,1.1-1.2,1.8c-0.5,0.7-1,1.4-1.6,2.1c-1.2,1.5-2.3,2.8-3.1,3.7c-0.4,0.5-0.7,0.8-1,1.1l-0.3,0.3c0,0-0.1,0.1-0.1,0.1
			c0,0,0.1-0.1,0.1-0.1l0.2-0.3l0.9-1.1c0.8-1,1.9-2.3,3.1-3.7c0.6-0.7,1.1-1.5,1.6-2.1c0.5-0.7,0.9-1.3,1.2-1.8
			c0.2-0.3,0.3-0.5,0.5-0.7c0.1-0.2,0.2-0.4,0.3-0.5l0.2-0.3C67.9,57.2,67.9,57.1,67.9,57.1z"/>
		<g class="st11">
			<path d="M53.6,75.5c-8.9-2.1-17.8-4.7-26.4-7.6l-0.6,0.6c0.5,2.1,1.5,4,2.9,5.6c1.5,1.6,3.4,2.6,5.6,2.9c1.9,0.2,3.7-0.2,5.6-0.3
				c2.2-0.1,4.4,0.5,6.6,0.7s4.5,0.3,6.5-0.6c0.3-0.1,0.5-0.3,0.5-0.6C54.4,75.7,54,75.6,53.6,75.5z"/>
		</g>
		<path class="st6" d="M51.6,55.7c0,0.1-0.1,0.2-0.2,0.2c-0.1,0.1-0.2,0.4-0.4,0.7c-0.2,0.3-0.4,0.7-0.7,0.9
			c-0.2,0.2-0.4,0.3-0.6,0.3c-0.2,0.1-0.5,0.1-0.7,0c-0.2-0.1-0.4-0.3-0.5-0.5c-0.1-0.2-0.2-0.4-0.1-0.7c0-0.4,0.2-0.8,0.4-1.1
			c0.1-0.2,0.3-0.4,0.5-0.6c0.1-0.1,0.1-0.1,0.2-0.2c0,0.1-0.1,0.2-0.2,0.2c-0.2,0.2-0.3,0.4-0.4,0.6c-0.2,0.3-0.3,0.7-0.3,1.1
			c0,0.2,0,0.4,0.1,0.6c0.1,0.2,0.3,0.4,0.5,0.5c0.2,0.1,0.5,0.1,0.7,0c0.2-0.1,0.4-0.2,0.6-0.3c0.3-0.3,0.5-0.5,0.7-0.9
			c0.1-0.2,0.3-0.4,0.4-0.6C51.5,55.8,51.5,55.7,51.6,55.7z"/>
		<path class="st6" d="M50.2,56.5c0,0,0-0.1,0-0.1c0-0.1-0.1-0.2-0.2-0.3c-0.1-0.1-0.2-0.1-0.3-0.1c-0.1,0-0.2,0-0.3,0
			c-0.1,0-0.1,0.1-0.2,0.1c-0.1,0.1-0.1,0.1-0.1,0.2s0,0.2,0,0.2c0,0.1,0,0.2,0.1,0.2c0,0.1,0.1,0.1,0.2,0.2c0.1,0,0.1,0.1,0.2,0.1
			c0.1,0,0.2,0,0.2,0c0.1,0,0.2-0.1,0.2-0.1c0.1-0.1,0.2-0.2,0.2-0.3C50.2,56.5,50.2,56.5,50.2,56.5c0,0.1,0,0.1,0,0.2
			c0,0.1-0.1,0.3-0.2,0.4c-0.1,0.1-0.2,0.1-0.3,0.1c-0.1,0-0.2,0-0.3,0c-0.1,0-0.2-0.1-0.3-0.2c-0.1-0.1-0.1-0.3-0.1-0.4
			s0-0.3,0.1-0.4c0.1-0.1,0.2-0.2,0.3-0.2c0.1,0,0.2,0,0.3,0c0.1,0,0.2,0.1,0.3,0.1c0.1,0.1,0.2,0.2,0.2,0.4
			C50.3,56.4,50.2,56.5,50.2,56.5z"/>
		<path class="st10" d="M61.7,60.3c0,0,6.6-6.7,6.3-10.4l1.1,1.3c0,0-0.2,4.4-5.5,9.8L61.7,60.3z"/>
		<path class="st6" d="M64.3,60.3c0,0.1-0.1,0.1-0.1,0.2c-0.1,0.1-0.2,0.3-0.4,0.5c-0.2,0.2-0.4,0.5-0.7,0.7
			c-0.2,0.1-0.3,0.2-0.5,0.3C62.3,62,62.1,62,61.9,62c-0.1,0-0.2-0.1-0.3-0.1c-0.1-0.1-0.2-0.1-0.2-0.2c-0.1-0.2-0.1-0.4-0.1-0.6
			c0.1-0.3,0.2-0.6,0.4-0.9c0.1-0.2,0.3-0.3,0.4-0.5c0.1-0.1,0.1-0.1,0.2-0.1c-0.2,0.2-0.4,0.4-0.6,0.7c-0.2,0.2-0.3,0.5-0.4,0.8
			c0,0.2,0,0.4,0.1,0.5c0,0.1,0.1,0.1,0.2,0.2c0.1,0.1,0.2,0.1,0.3,0.1c0.2,0,0.4,0,0.6-0.1c0.2-0.1,0.3-0.1,0.5-0.2
			c0.3-0.2,0.5-0.4,0.7-0.6C63.8,60.7,64,60.5,64.3,60.3z"/>
		<path class="st6" d="M62.9,61c0,0,0,0,0-0.1c0-0.1-0.1-0.2-0.2-0.2c-0.1,0-0.1-0.1-0.2-0.1c-0.1,0-0.1,0-0.2,0
			c-0.1,0-0.2,0.1-0.2,0.2c0,0.1-0.1,0.2-0.1,0.2s0,0.2,0.1,0.2c0,0.1,0.1,0.1,0.2,0.2c0.1,0,0.1,0,0.2,0s0.1,0,0.2-0.1
			c0.1-0.1,0.1-0.1,0.2-0.2C62.8,61,62.8,61,62.9,61c0,0,0,0,0,0.1c0,0.1-0.1,0.2-0.2,0.3c-0.1,0.1-0.1,0.1-0.2,0.1
			c-0.1,0-0.2,0-0.3,0c-0.1,0-0.2-0.1-0.3-0.2c-0.1-0.1-0.1-0.2-0.1-0.3s0-0.2,0.1-0.3c0.1-0.1,0.2-0.2,0.3-0.2c0.1,0,0.2,0,0.3,0
			c0.1,0,0.2,0.1,0.2,0.1c0.1,0.1,0.1,0.2,0.2,0.3C62.9,60.9,62.9,61,62.9,61z"/>
		<path class="st6" d="M57.3,65.6c0,0-0.1,0-0.1,0l-0.3,0c-0.2,0-0.4,0-0.5,0c-0.2,0-0.5,0-0.7,0l-0.4,0c-0.1,0-0.3,0-0.4-0.1
			c-0.3,0-0.6-0.1-1-0.2c-0.7-0.2-1.5-0.4-2.2-0.7c-0.7-0.3-1.4-0.7-2-1.1c-0.3-0.2-0.6-0.4-0.8-0.6c-0.1-0.1-0.2-0.2-0.4-0.3
			l-0.3-0.3c-0.2-0.2-0.4-0.3-0.5-0.5c-0.1-0.1-0.3-0.3-0.4-0.4l-0.2-0.3c-0.1-0.1-0.1-0.1-0.1-0.1c0,0,0.1,0,0.1,0.1l0.2,0.2
			c0.1,0.1,0.2,0.2,0.4,0.4c0.2,0.1,0.3,0.3,0.5,0.5l0.3,0.3c0.1,0.1,0.2,0.2,0.4,0.3c0.2,0.2,0.5,0.4,0.8,0.6
			c1.3,0.8,2.7,1.4,4.2,1.7c0.3,0.1,0.7,0.2,1,0.2c0.2,0,0.3,0.1,0.4,0.1l0.4,0c0.3,0,0.5,0,0.7,0c0.2,0,0.4,0,0.5,0h0.3
			C57.2,65.6,57.3,65.6,57.3,65.6z"/>
		<g class="st11">
			<path d="M32.8,81.3c2.1,1.9,4.7,3.4,7.4,4.2c2.5,0.8,5.2,1.1,7.5,2.4c0.2,0.1,0.4,0.2,0.5,0.4c0.1,0.2,0.3,0.4,0.1,0.5
				c-0.1,0.1-0.5,0-0.6,0C41.9,87.7,36.7,85.6,32.8,81.3"/>
		</g>
		<g class="st11">
			<path d="M62.2,59.6c-0.3,0.2-0.6,0.4-0.9,0.7c-0.2,0.3-0.4,0.7-0.4,1.1c0,0.3,0,0.6,0.2,0.9c0.1,0.1,0.3,0.2,0.4,0.3
				c0.2,0.1,0.3,0.1,0.5,0c0.3-0.1,0.6-0.3,0.9-0.5c0.2-0.3,0.4-0.5,0.6-0.8c-0.3,0.3-0.6,0.5-1,0.7c-0.4,0.1-0.9,0-1.1-0.4
				c-0.2-0.3-0.1-0.7,0.1-1C61.7,60.2,62,60,62.2,59.6"/>
		</g>
		<g class="st11">
			<path d="M50.5,57.2c-0.1,0.2-0.3,0.3-0.5,0.4c-0.2,0.1-0.4,0.1-0.6,0.1c-0.2,0-0.5-0.1-0.7-0.3c-0.2-0.2-0.3-0.4-0.3-0.7
				l-0.1,0.1c-0.1,0.4-0.1,0.9,0.1,1.2c0.1,0.2,0.3,0.3,0.6,0.4c0.2,0.1,0.5,0.1,0.7,0c0.5-0.2,0.8-0.5,1.1-0.9
				c0.2-0.4,0.4-0.9,0.5-1.3C51.1,56.6,50.8,56.9,50.5,57.2z"/>
		</g>
		<path class="st7" d="M66.8,80.7c0,0,2.6-0.4,3,0c0.4,0.4,0.3,1.1,0.3,1.1s1.3,0.5,1.5,1c0.1,0.3,0.1,0.6,0,1l0.1,2.4
			c0,0,1,0.7,0.8,1.4c-0.2,0.7-1.4,1.5-1.9,1.4c-0.5-0.1-1.3,0-1.4-1.1c0,0-1.1-0.1-1.2-0.6l-0.1-0.5c0,0-1.1,0-1.4-0.5
			c-0.1-0.3-0.2-0.6-0.2-0.9l0,0c-0.2-0.2-0.3-0.4-0.4-0.7c-0.1-0.3,0-0.5,0.1-0.8l1-2.4L66.8,80.7z"/>
		<path class="st8" d="M69.7,82.5c-0.1,0.2-0.2,0.5-0.3,0.7c-0.1,0.2-0.2,0.5-0.3,0.7c-0.1,0.3-0.3,0.6-0.6,0.8
			c-0.2,0.2-0.5,0.4-0.8,0.5c-0.3,0.1-0.5,0.2-0.8,0.2c-0.2,0-0.4,0-0.5,0c-0.1,0-0.1,0-0.2,0c0,0,0.3,0,0.7-0.1
			c0.3,0,0.5-0.1,0.8-0.2c0.3-0.1,0.6-0.3,0.8-0.5c0.2-0.2,0.4-0.5,0.5-0.8c0.1-0.3,0.3-0.5,0.4-0.7C69.5,82.9,69.6,82.7,69.7,82.5z
			"/>
		<path class="st8" d="M70.7,84.3c-0.1,0.2-0.2,0.3-0.3,0.5c-0.2,0.5-0.4,0.9-0.8,1.2c-0.4,0.3-0.8,0.6-1.3,0.7
			c-0.1,0-0.3,0.1-0.4,0.1c-0.1,0-0.2,0-0.2,0s0.2,0,0.6-0.1c0.4-0.1,0.9-0.4,1.2-0.7c0.3-0.3,0.6-0.7,0.8-1.2
			C70.4,84.6,70.5,84.4,70.7,84.3z"/>
		<path class="st8" d="M71.3,86.5c0,0.1,0,0.3-0.1,0.4c-0.2,0.3-0.4,0.5-0.7,0.7c-0.3,0.1-0.6,0.2-1,0.3c-0.1,0-0.3,0-0.4,0
			c0.1-0.1,0.3-0.1,0.4-0.1c0.3-0.1,0.6-0.2,0.9-0.3c0.3-0.1,0.5-0.4,0.7-0.6C71.2,86.6,71.3,86.5,71.3,86.5z"/>
		<path class="st8" d="M66.8,80.7C66.8,80.7,66.8,80.8,66.8,80.7c0,0.1,0,0.2,0,0.2c0,0.2,0,0.4,0,0.7c-0.2,0.4-0.4,0.9-0.6,1.6
			L66,83.8c-0.1,0.2-0.1,0.4-0.2,0.5c0,0.2,0,0.4,0.1,0.6c0.1,0.2,0.2,0.4,0.4,0.5l0,0v0c0,0.2,0,0.4,0.1,0.5c0,0.1,0.1,0.2,0.1,0.3
			c0,0.1,0.1,0.2,0.2,0.2c0.2,0.1,0.4,0.2,0.6,0.2c0.2,0,0.4,0.1,0.6,0h0l0,0l0.1,0.4c0,0.1,0.1,0.1,0.1,0.2c0,0.1,0.1,0.1,0.2,0.1
			c0.3,0.1,0.6,0.2,0.9,0.3h0v0c0,0.2,0.1,0.5,0.3,0.7c0.2,0.2,0.4,0.3,0.6,0.3c0.1,0,0.3,0,0.4,0.1c0.1,0,0.1,0,0.2,0
			c0.1,0,0.1,0,0.2,0c0.2-0.1,0.5-0.2,0.7-0.4c0.2-0.2,0.4-0.3,0.6-0.5c0.1-0.1,0.2-0.2,0.2-0.3c0.1-0.1,0.1-0.2,0.1-0.3
			c0-0.1,0-0.2-0.1-0.4c-0.1-0.1-0.1-0.2-0.2-0.3c-0.2-0.2-0.3-0.4-0.5-0.5l0,0v0c0-0.8,0-1.6-0.1-2.4v0c0.1-0.2,0.1-0.5,0-0.7
			c0-0.1,0-0.2-0.1-0.3c-0.1-0.1-0.1-0.2-0.2-0.2c-0.4-0.3-0.7-0.5-1.1-0.6l0,0v0c0-0.3,0-0.6-0.1-0.9c0-0.1-0.1-0.1-0.1-0.2
			c0,0-0.1-0.1-0.2-0.1c-0.1,0-0.3-0.1-0.4-0.1c-0.4,0-0.9,0-1.3,0c-0.4,0-0.6,0.1-0.8,0.1L66.8,80.7C66.8,80.7,66.8,80.7,66.8,80.7
			L66.8,80.7l0.3-0.1c0.2,0,0.5-0.1,0.8-0.1c0.4-0.1,0.9-0.1,1.3,0c0.1,0,0.3,0,0.4,0.1c0.1,0,0.1,0.1,0.2,0.1
			c0.1,0.1,0.1,0.1,0.1,0.2c0.1,0.3,0.2,0.6,0.2,0.9l0,0c0.4,0.2,0.8,0.4,1.2,0.6c0.1,0.1,0.2,0.2,0.3,0.3c0.1,0.1,0.1,0.2,0.1,0.4
			c0,0.3,0,0.5,0,0.8v0c0,0.7,0,1.5,0.1,2.4l0,0c0.2,0.2,0.4,0.3,0.6,0.5c0.1,0.1,0.2,0.2,0.2,0.3c0.1,0.1,0.1,0.3,0.1,0.4
			c0,0.1-0.1,0.3-0.1,0.4c-0.1,0.1-0.1,0.2-0.2,0.3c-0.2,0.2-0.4,0.4-0.6,0.5c-0.2,0.2-0.5,0.3-0.7,0.4c-0.1,0-0.1,0-0.2,0
			c-0.1,0-0.1,0-0.2,0c-0.1,0-0.3,0-0.4-0.1c-0.3,0-0.5-0.2-0.7-0.4c-0.2-0.2-0.3-0.5-0.3-0.7l0,0c-0.3,0-0.6-0.1-0.9-0.3
			c-0.1,0-0.1-0.1-0.2-0.2c-0.1-0.1-0.1-0.1-0.1-0.2c0-0.1-0.1-0.3-0.1-0.4l0,0c-0.2,0-0.4,0-0.7-0.1c-0.2,0-0.4-0.1-0.6-0.2
			c0,0-0.1-0.1-0.1-0.1c0,0-0.1-0.1-0.1-0.1c0-0.1-0.1-0.2-0.1-0.3c-0.1-0.2-0.1-0.4-0.1-0.6l0,0c-0.2-0.1-0.3-0.3-0.4-0.5
			c-0.1-0.2-0.1-0.4-0.1-0.7c0-0.2,0.1-0.4,0.2-0.6c0.1-0.2,0.1-0.3,0.2-0.5l0.7-1.6c0-0.3,0-0.5,0-0.7
			C66.8,80.9,66.8,80.8,66.8,80.7C66.8,80.7,66.8,80.7,66.8,80.7z"/>
		<path class="st5" d="M51,47.9c1.7-3.8,0.7-8.2-3.4-8.4c-1.8-0.1-5,0.4-8.5,3.7c-6.3,6.1-13,21.2-13.2,22.8
			c-0.2,1.6,4.5,7.9,6.7,8.1c0,0,6.5-1.4,7.7-8.1l-1.7-1.4l10-11.3L51,47.9z"/>
		<path class="st7" d="M39.9,66.3l13.6,3.8l-0.2,5.6l-18.7-2.2L39.9,66.3z"/>
		<path class="st7" d="M60.5,67.7l-7,2.4l-0.2,5.6c0,0,5.3,0.7,6.8,0.5c1.5-0.1,4.1,0,4.1,0s0.9-0.6,0.5-1.1c-0.2-0.4-0.6-0.6-1-0.8
			c0.2-0.3,0.3-0.6,0.4-1c0.1-0.4-0.1-0.7-1-0.9c0,0,0.4-0.5-0.1-1.2c0,0,1.3-0.3,1.3-0.6c0-0.3,0.4-0.5-0.1-0.8
			C63.8,69.7,61,67.5,60.5,67.7z"/>
		<path class="st8" d="M63,71.3c-0.3-0.2-0.6-0.4-0.9-0.7c-0.3-0.2-0.5-0.5-0.7-0.8c0.3,0.2,0.6,0.5,0.8,0.7
			C62.7,71,63.1,71.3,63,71.3z"/>
		<path class="st8" d="M63.2,69.4c0.1,0,0.2,0.1,0.3,0.2c0.1,0.1,0.2,0.2,0.3,0.4c0.1,0.1,0.1,0.3,0.1,0.4c0,0.2,0,0.3-0.1,0.4
			c-0.1,0.1-0.2,0.3-0.3,0.4c-0.1,0.1-0.2,0.1-0.3,0.2c0,0,0.1-0.1,0.3-0.2c0.1-0.1,0.2-0.2,0.3-0.3c0.1-0.1,0.1-0.3,0.1-0.4
			s0-0.3-0.1-0.4c-0.1-0.1-0.1-0.3-0.2-0.3C63.3,69.5,63.2,69.4,63.2,69.4z"/>
		<path class="st8" d="M63.2,72.6c-0.6-0.1-1.2-0.2-1.7-0.5c0.3,0,0.6,0.1,0.9,0.2C62.6,72.4,62.9,72.5,63.2,72.6z"/>
		<path class="st8" d="M63.8,74.4c-0.7,0-1.3-0.1-2-0.2c0.3,0,0.7,0,1,0.1C63.2,74.3,63.5,74.3,63.8,74.4z"/>
		<path class="st6" d="M51.2,41.7C51.3,41.7,51.3,41.7,51.2,41.7l0.2,0.2c0.1,0.1,0.2,0.2,0.2,0.3c0,0.1,0.1,0.1,0.1,0.2
			c0,0.1,0.1,0.1,0.1,0.2c0.3,0.6,0.5,1.7,0.5,3c0,0.7-0.1,1.4-0.3,2.1c-0.2,0.8-0.5,1.5-0.9,2.2c-0.5,0.8-1,1.5-1.6,2.2
			c-0.6,0.7-1.2,1.5-1.8,2.2c-2.5,3-4.9,5.7-6.6,7.6L39.2,64l-0.6,0.6l-0.2,0.2c0,0,0,0-0.1,0.1c0,0,0,0,0-0.1l0.1-0.2
			c0.1-0.1,0.3-0.4,0.6-0.6l2-2.3c1.7-1.9,4.1-4.6,6.6-7.6c0.6-0.8,1.2-1.5,1.8-2.2c0.6-0.7,1.1-1.4,1.5-2.2
			c0.4-0.7,0.7-1.4,0.9-2.2c0.1-0.7,0.2-1.4,0.3-2.1c0.1-1.3-0.1-2.3-0.4-3C51.8,42.2,51.5,41.9,51.2,41.7z"/>
		<path class="st6" d="M32,65.6c0.1-0.1,0.1-0.1,0.2-0.2c0.2-0.2,0.4-0.4,0.6-0.5c0.7-0.5,1.5-0.8,2.4-0.9c0.9-0.1,1.7,0,2.5,0.4
			c0.2,0.1,0.5,0.2,0.7,0.4c0.1,0,0.2,0.1,0.2,0.2c-0.3-0.2-0.6-0.3-0.9-0.5c-0.8-0.3-1.6-0.4-2.5-0.4c-0.8,0.1-1.7,0.4-2.4,0.9
			C32.6,65.1,32.3,65.3,32,65.6z"/>
		<path class="st6" d="M31.7,62.1C31.7,62.1,31.8,62.1,31.7,62.1C31.9,62,31.9,62,32,62c0.3-0.1,0.6-0.2,0.8-0.2
			c1-0.2,1.9-0.1,2.8,0.3c0.9,0.3,1.7,0.9,2.3,1.6c0.2,0.2,0.4,0.5,0.5,0.7c0.1,0.1,0.1,0.2,0.1,0.2c0,0,0,0.1,0,0.1
			c-0.1-0.1-0.1-0.2-0.2-0.3c-0.2-0.2-0.3-0.5-0.5-0.7c-0.6-0.7-1.4-1.2-2.3-1.6c-0.9-0.3-1.9-0.4-2.8-0.3c-0.3,0-0.6,0.1-0.8,0.2
			C32,62,31.9,62.1,31.7,62.1z"/>
		<path class="st9" d="M46,56.1c0,0-0.1-0.1-0.1-0.1c-0.1-0.1-0.2-0.2-0.3-0.3c-0.1-0.1-0.3-0.3-0.4-0.4c-0.2-0.2-0.4-0.4-0.6-0.6
			s-0.5-0.4-0.8-0.7c-0.3-0.2-0.6-0.5-0.9-0.7c-0.6-0.5-1.4-1-2.2-1.5c-0.8-0.5-1.5-0.9-2.3-1.2c-0.4-0.2-0.7-0.3-1.1-0.5
			c-0.3-0.1-0.6-0.3-0.9-0.4c-0.3-0.1-0.6-0.2-0.8-0.3s-0.4-0.1-0.6-0.2l-0.4-0.1c0,0-0.1,0-0.1,0c0,0,0.1,0,0.1,0l0.4,0.1
			c0.2,0,0.4,0.1,0.6,0.2c0.2,0.1,0.5,0.1,0.8,0.2c0.3,0.1,0.6,0.2,0.9,0.3c0.3,0.1,0.7,0.3,1.1,0.4c0.8,0.4,1.6,0.8,2.3,1.2
			c0.8,0.5,1.5,1,2.2,1.5c0.3,0.3,0.6,0.5,0.9,0.7c0.3,0.2,0.5,0.5,0.7,0.7c0.2,0.2,0.4,0.4,0.6,0.6c0.2,0.2,0.3,0.3,0.4,0.5
			c0.1,0.1,0.2,0.2,0.3,0.3C46,56.1,46,56.1,46,56.1z"/>
		<path class="st9" d="M46.6,55C46.6,55,46.6,55,46.6,55l-0.4-0.4c-0.1-0.1-0.3-0.3-0.4-0.4c-0.2-0.2-0.4-0.4-0.6-0.6
			c-0.2-0.2-0.5-0.4-0.7-0.7c-0.3-0.2-0.6-0.5-0.9-0.7c-0.7-0.5-1.4-1-2.2-1.5c-0.8-0.4-1.5-0.9-2.3-1.2c-0.4-0.2-0.7-0.3-1.1-0.4
			c-0.3-0.1-0.6-0.2-0.9-0.3c-0.3-0.1-0.6-0.2-0.8-0.2c-0.2-0.1-0.4-0.1-0.6-0.2l-0.4-0.1c0,0-0.1,0-0.1,0c0,0,0.1,0,0.1,0l0.4,0.1
			c0.2,0,0.4,0.1,0.6,0.2c0.2,0.1,0.5,0.1,0.8,0.2c0.3,0.1,0.6,0.2,0.9,0.3c0.3,0.1,0.7,0.3,1.1,0.4c1.6,0.7,3.1,1.6,4.5,2.7
			c0.3,0.3,0.6,0.5,0.9,0.7c0.3,0.2,0.5,0.5,0.7,0.7c0.2,0.2,0.4,0.4,0.6,0.6s0.3,0.3,0.4,0.5l0.3,0.3C46.6,55,46.6,55,46.6,55z"/>
		<path class="st9" d="M38.5,64.4c0,0-0.2-0.1-0.5-0.3c-0.4-0.2-0.9-0.4-1.3-0.5c-0.7-0.2-1.4-0.3-2.1-0.3c-0.9,0-1.7,0.1-2.6,0.4
			c-1.8,0.5-3.3,1.3-4.4,1.9l-1.3,0.7l-0.3,0.2c0,0-0.1,0-0.1,0.1c0,0,0.1-0.1,0.1-0.1l0.3-0.2c0.3-0.2,0.7-0.5,1.2-0.8
			c1.1-0.6,2.5-1.5,4.4-2c0.9-0.2,1.7-0.4,2.6-0.4c0.7,0,1.4,0.1,2.1,0.3c0.5,0.1,0.9,0.3,1.3,0.6c0.1,0.1,0.2,0.1,0.3,0.2
			C38.4,64.4,38.5,64.4,38.5,64.4z"/>
		<path class="st9" d="M34.3,63.8c-0.1,0-0.2,0.1-0.3,0.1c-0.2,0-0.5,0.1-0.9,0.2c-2,0.6-3.8,1.4-5.5,2.6c-0.3,0.2-0.6,0.4-0.8,0.5
			c-0.1,0.1-0.2,0.1-0.3,0.2c0.1-0.1,0.2-0.2,0.3-0.2c0.2-0.1,0.4-0.3,0.7-0.6c1.7-1.2,3.6-2.1,5.6-2.6c0.4-0.1,0.7-0.2,0.9-0.2
			C34,63.9,34.2,63.8,34.3,63.8z"/>
		<path class="st7" d="M61.8,81.9c0,0,1.1-1.3,2.3-0.9c1.1,0.4,2.4,1.8,2.5,2.4c0,0.6-0.2,1.3-1,1.3c-0.8-0.1-1.9-0.9-1.9-0.9
			S61.5,83.1,61.8,81.9z"/>
		<path class="st8" d="M61.8,81.9c0,0.1,0,0.1,0,0.2c0,0.1,0,0.2,0,0.2c0,0.1,0.1,0.2,0.1,0.3c0.3,0.4,0.9,0.8,1.7,1.1
			c0.5,0.3,1,0.6,1.5,0.8c0.3,0.1,0.6,0.2,0.9,0c0.1-0.1,0.2-0.2,0.3-0.3c0.1-0.1,0.1-0.3,0.1-0.4c0-0.1,0-0.2,0-0.3
			c0-0.1,0-0.2-0.1-0.3c-0.1-0.2-0.2-0.4-0.3-0.5c-0.3-0.3-0.5-0.6-0.8-0.9c-0.3-0.2-0.6-0.4-0.9-0.6c-0.1,0-0.2-0.1-0.2-0.1
			c-0.1,0-0.2,0-0.2-0.1c-0.1,0-0.2,0-0.2,0c-0.1,0-0.1,0-0.2,0c-0.3,0-0.5,0.1-0.7,0.3c-0.2,0.1-0.3,0.2-0.5,0.3
			C62.1,81.7,62,81.8,61.8,81.9C61.9,81.9,61.8,81.9,61.8,81.9c0,0,0-0.1,0.1-0.1c0.1-0.1,0.2-0.2,0.3-0.3c0.1-0.1,0.3-0.3,0.5-0.4
			c0.2-0.1,0.5-0.2,0.7-0.3c0.1,0,0.2,0,0.2,0c0.1,0,0.2,0,0.2,0c0.1,0,0.2,0,0.2,0.1c0.1,0,0.2,0.1,0.2,0.1
			c0.3,0.2,0.6,0.4,0.9,0.6c0.3,0.3,0.6,0.5,0.9,0.9c0.1,0.2,0.3,0.4,0.4,0.5c0,0.1,0,0.1,0.1,0.2c0,0.1,0,0.1,0,0.2
			c0,0.1,0,0.2,0,0.3c0,0.2-0.1,0.3-0.1,0.5c-0.1,0.2-0.2,0.3-0.4,0.4c-0.2,0.1-0.3,0.1-0.5,0.1c-0.2,0-0.3-0.1-0.5-0.1
			c-0.5-0.2-1-0.5-1.5-0.8h0c-0.8-0.3-1.5-0.7-1.7-1.1c-0.1-0.1-0.1-0.2-0.1-0.3c0-0.1,0-0.2,0-0.2C61.8,82,61.8,82,61.8,81.9z"/>
		<path class="st6" d="M136.5,99.7c0,0-29,0.1-64.7,0.1C36,99.8,7,99.8,7,99.7c0,0,29-0.1,64.7-0.1
			C107.5,99.7,136.5,99.7,136.5,99.7z"/>
	</g>
</g>
</svg>
