<?xml version="1.0" encoding="utf-8"?>
<!-- Generator: Adobe Illustrator 27.0.0, SVG Export Plug-In . SVG Version: 6.00 Build 0)  -->
<svg version="1.1" id="Calque_1" xmlns="http://www.w3.org/2000/svg" xmlns:xlink="http://www.w3.org/1999/xlink" x="0px" y="0px"
	 viewBox="0 0 160 100" style="enable-background:new 0 0 160 100;" xml:space="preserve">
<style type="text/css">
	.st0{fill:#EE9A1F;fill-opacity:0.1;}
	.st1{fill:#EBEBEB;}
	.st2{fill:#E0E0E0;}
	.st3{fill:#FAFAFA;}
	.st4{fill:#F5F5F5;}
	.st5{fill:#FFFFFF;}
	.st6{fill:#455A64;}
	.st7{fill-rule:evenodd;clip-rule:evenodd;fill:#263238;}
	.st8{fill:#263238;}
	.st9{opacity:0.3;enable-background:new    ;}
	.st10{fill:#FFBE9D;}
	.st11{fill:#EB996E;}
	.st12{fill:#EE9A1F;}
	.st13{opacity:0.2;}
	.st14{opacity:0.6;}
	.st15{opacity:0.3;}
	.st16{fill:none;stroke:#263238;stroke-width:0.198;stroke-linecap:round;}
</style>
<path class="st0" d="M-29.1-14.4h218.3c6.9,0,12.5,5.6,12.5,12.5v118.5c0,6.9-5.6,12.5-12.5,12.5H-29.1c-6.9,0-12.5-5.6-12.5-12.5
	V-2C-41.6-8.9-36-14.4-29.1-14.4z"/>
<path class="st1" d="M117.7,72.8H82.5v27.1h35.1V72.8z"/>
<path class="st2" d="M108.9,99.7c0,0-0.1-6-0.1-13.5c0-7.4,0-13.5,0.1-13.5c0,0,0.1,6,0.1,13.5S108.9,99.7,108.9,99.7z"/>
<path class="st3" d="M114.7,93.7H112v3h2.7V93.7z"/>
<path class="st2" d="M97.3,72.8h-4v5.8h4V72.8z"/>
<path class="st2" d="M97.3,94h-4v5.8h4V94z"/>
<path class="st4" d="M49.4,79v6.6H59h10.6V79H49.4z"/>
<path class="st1" d="M48.5,77.1V79h21.8v-1.8H59H48.5z"/>
<path class="st1" d="M59.5,85.6h10.2V79h0.7v-1.8H59v1.7L59.5,85.6z"/>
<path class="st2" d="M56.3,80h-4.1v1h4.1V80z"/>
<path class="st5" d="M57,82.3h-5.3v2.1H57V82.3z"/>
<path class="st4" d="M45.4,63.1v6.2h9h10v-6.2H45.4z"/>
<path class="st1" d="M44.6,61.3v1.7h20.5v-1.7H54.5H44.6z"/>
<path class="st1" d="M54.9,69.2h9.6v-6.2h0.7v-1.7H54.5v1.6L54.9,69.2z"/>
<path class="st2" d="M52,64.1h-3.9V65H52V64.1z"/>
<path class="st5" d="M52.6,66.1h-5v2h5V66.1z"/>
<path class="st4" d="M47.2,45.1v6.2h9h10v-6.2H47.2z"/>
<path class="st1" d="M46.4,43.3v1.7h20.5v-1.7H56.2H46.4z"/>
<path class="st1" d="M56.6,51.3h9.6v-6.2h0.7v-1.7H56.2v1.6L56.6,51.3z"/>
<path class="st2" d="M53.7,46.1h-3.9V47h3.9V46.1z"/>
<path class="st5" d="M54.3,48.2h-5v2h5V48.2z"/>
<path class="st4" d="M47.7,31.8h18.6V17.4H47.7V31.8z"/>
<path class="st1" d="M52.1,27.2c0,0,0-3.4,0-7.6c0-4.2,0-7.6,0-7.6c0,0,0,3.4,0,7.6C52.1,23.8,52.1,27.2,52.1,27.2z"/>
<path class="st3" d="M48.8,25.6h1.5v-1.7h-1.5V25.6z"/>
<path class="st1" d="M60.7,17.5h-2.1v3.1h2.1V17.5z"/>
<path class="st1" d="M60.7,28.7h-2.1v3.1h2.1V28.7z"/>
<path class="st2" d="M71.7,99.7L71.3,15h-1.6v16.7h-4.2L65.4,15h-1.6v16.7H49.1L49.1,15h-1.6v16.7h-4.2L43.1,15h-1.6v84.7h2
	l-0.1-11.4h4v11.4h2l-0.1-11.4h14.3v11.4h2l-0.1-11.4h4v11.4H71.7z M45.3,77.2l-1.5-6.3h3L45.3,77.2z M47.4,71.3v14.8l-1.8-7.6
	L47.4,71.3z M47.4,49.7l-1.8-7.6l1.8-7.2V49.7z M47.1,51.1h-3.7l1.9-7.7L47.1,51.1z M45.3,40.8l-1.7-7.2h3.4L45.3,40.8z M45,42.1
	l-1.7,7l-0.1-14.8L45,42.1z M43.4,71.5l1.6,7l-1.6,6.4L43.4,71.5z M45.3,79.8l1.6,6.7h-3.2L45.3,79.8z M43.4,69L43.4,69L43.4,69
	l-0.1-16.1h4.1V69H43.4z M49.2,52.9h14.5V69H49.3L49.2,52.9z M67.5,43.4l1.8,7.6h-3.7L67.5,43.4z M65.5,48.7l-0.1-13.9l1.7,7.3
	L65.5,48.7z M69.7,50.2l-1.9-8.1l1.9-7.7V50.2z M69.7,51L69.7,51l-0.1,0L69.7,51z M69.7,71.7v13.9L68,78.5L69.7,71.7z M67.7,77.2
	l-1.5-6.3h3L67.7,77.2z M67.5,40.7l-1.7-7.2h3.4L67.5,40.7z M69.7,52.9V69h-3.9l0-0.1l-0.2,0l-0.1-16.1H69.7z M67.4,78.5l-1.7,6.8
	L65.6,71L67.4,78.5z M67.7,79.8l1.6,6.7H66L67.7,79.8z M63.7,33.5V51H49.2l-0.1-17.5H63.7z M49.7,86.5h-0.3l-0.1-15.7h14.4v15.7
	H49.7z"/>
<path class="st4" d="M92.2,73h28.5V51.1H92.2V73z"/>
<path class="st1" d="M99.3,72.9c0,0,0.1-4.9,0.1-10.9c0-6,0-10.9-0.1-10.9c0,0-0.1,4.9-0.1,10.9C99.2,68,99.3,72.9,99.3,72.9z"/>
<path class="st3" d="M94.6,70.5h2.2V68h-2.2V70.5z"/>
<path class="st1" d="M111.9,51.1h-3.2v4.7h3.2V51.1z"/>
<path class="st1" d="M111.9,68.3h-3.2V73h3.2V68.3z"/>
<path class="st6" d="M70.3,77.2H52.8v22.6h17.5V77.2z"/>
<path class="st6" d="M64.5,77.2H47v22.6h17.5V77.2z"/>
<path class="st7" d="M50.6,79.4v-1h-1.7v1c0,0.2,0.1,0.4,0.2,0.5c0.1,0.2,0.3,0.2,0.5,0.3V81h-0.4c-0.1,0-0.2,0.1-0.2,0.2h1.4
	c0-0.1-0.1-0.2-0.2-0.2h-0.4v-0.9c0.2,0,0.4-0.1,0.5-0.3C50.5,79.8,50.6,79.6,50.6,79.4z"/>
<path class="st7" d="M53.7,79.3c-0.1-0.3-0.2-0.5-0.4-0.7c-0.2-0.2-0.5-0.3-0.7-0.3c-0.3,0-0.5,0.1-0.7,0.3
	c-0.2,0.2-0.4,0.4-0.4,0.7h1.1v1.5c0,0.1,0,0.1-0.1,0.2c0,0-0.1,0.1-0.2,0.1c-0.1,0-0.1,0-0.2-0.1c0,0-0.1-0.1-0.1-0.2h-0.2
	c0,0.1,0,0.2,0.1,0.3c0.1,0.1,0.2,0.1,0.3,0.1c0.1,0,0.2,0,0.3-0.1c0.1-0.1,0.1-0.2,0.1-0.3v-1.5L53.7,79.3z"/>
<path class="st8" d="M70.3,88c0,0-5.3,0.1-11.7,0.1c-6.5,0-11.7,0-11.7-0.1s5.3-0.1,11.7-0.1C65.1,87.9,70.3,88,70.3,88z"/>
<path class="st8" d="M55.8,99.9c0,0-0.1-5.1-0.1-11.4c0-6.3,0-11.4,0.1-11.4c0,0,0.1,5.1,0.1,11.4C55.8,94.8,55.8,99.9,55.8,99.9z"
	/>
<path class="st9" d="M70.3,77.2h-5.8v22.6h5.8V77.2z"/>
<path class="st8" d="M125.3,99.9c0,0-20,0.1-44.8,0.1c-24.7,0-44.8,0-44.8-0.1c0,0,20-0.1,44.8-0.1
	C105.2,99.8,125.3,99.8,125.3,99.9z"/>
<path class="st6" d="M77.1,18.4l3.7,35.3l37.6-4.7l-4.2-34.5L77.1,18.4z"/>
<path class="st8" d="M94.3,22.4l-6.3,0.7c-0.3,0-0.5,0-0.7-0.2c-0.2-0.2-0.3-0.4-0.4-0.7c0-0.3,0-0.5,0.2-0.7
	c0.2-0.2,0.4-0.3,0.7-0.4l6.3-0.7c0.3,0,0.5,0,0.7,0.2c0.2,0.2,0.3,0.4,0.4,0.7c0,0.3,0,0.5-0.2,0.7C94.8,22.3,94.6,22.4,94.3,22.4z
	"/>
<path class="st8" d="M118.5,49.1c0,0,0-0.1-0.1-0.2c0-0.1-0.1-0.3-0.2-0.5c-0.2-0.4-0.4-1-0.8-1.8c-0.7-1.6-1.7-4-2.9-6.9l-10.2-24
	l0.1,0c0.6,5.3,1.3,11.2,2,17.2c0.7,6.1,1.4,12,2,17.3h-0.1l4.3-25.6c0.5-3.2,1-5.7,1.2-7.4c0.1-0.9,0.3-1.5,0.3-2
	c0-0.2,0.1-0.4,0.1-0.5c0-0.1,0-0.2,0-0.2l0,0.2c0,0.1,0,0.3-0.1,0.5c-0.1,0.4-0.2,1.1-0.3,2c-0.3,1.7-0.7,4.2-1.2,7.4
	c-1.1,6.3-2.5,15.2-4.3,25.6c0,0,0,0,0,0c0,0,0,0,0,0c0,0,0,0,0,0c0,0,0,0,0,0c-0.6-5.4-1.3-11.2-2-17.3c-0.7-6.1-1.4-11.9-2-17.2
	c0,0,0,0,0,0c0,0,0,0,0,0c0,0,0,0,0,0c0,0,0,0,0,0c0,0,0,0,0,0c0,0,0,0,0,0c4.1,9.7,7.6,18.1,10.1,24c1.2,3,2.2,5.3,2.9,6.9
	c0.3,0.8,0.6,1.4,0.8,1.8c0.1,0.2,0.2,0.4,0.2,0.5C118.4,49,118.5,49.1,118.5,49.1z"/>
<path class="st1" d="M111.1,10.2l-3.5,0.4l0.4,3.6l3.5-0.4L111.1,10.2z"/>
<path class="st1" d="M115.2,49.5l-3.5,0.4l-0.4-3.6l3.5-0.4L115.2,49.5z"/>
<path class="st10" d="M68.1,34.2l5.6,9c0.8,1.5,2.1,2.3,3.7,1.6c1.7-0.8,1.9-1.7,1.4-3.8c-0.2-0.8-0.5-1.5-0.8-2.3
	c0,0,2.1-1.4,1.1-3.7c-0.6-1.3-2.2-4.2-3.5-6.4c-0.4-0.7-1.1-1.3-1.9-1.5c-0.8-0.3-1.6-0.2-2.4,0.1l-1.4,0.6c-0.5,0.3-1,0.7-1.4,1.2
	c-0.4,0.5-0.7,1-0.9,1.6c-0.2,0.6-0.2,1.2-0.1,1.8S67.8,33.6,68.1,34.2z"/>
<path class="st11" d="M77.9,38.6c-1.1,0.5-2.2,0.7-3.4,0.5c0,0,1.4,1.4,3.6,0.1L77.9,38.6z"/>
<path class="st8" d="M76.2,30.9c0,0.1-0.4,0-0.7,0.2c-0.4,0.2-0.5,0.5-0.6,0.4c-0.1,0,0-0.1,0.1-0.2c0.1-0.2,0.3-0.3,0.4-0.4
	c0.2-0.1,0.4-0.1,0.6-0.1C76.1,30.8,76.2,30.8,76.2,30.9z"/>
<path class="st8" d="M73.1,33.6c0,0.1,0,0.2,0,0.3c0,0.1-0.1,0.2-0.2,0.2c0,0-0.1,0-0.1,0c0,0-0.1,0-0.1,0c0,0-0.1,0-0.1-0.1
	c0,0-0.1-0.1-0.1-0.1c0-0.1,0-0.2,0-0.3c0-0.1,0.1-0.2,0.2-0.2c0,0,0.1,0,0.1,0c0,0,0.1,0,0.1,0s0.1,0,0.1,0.1
	C73.1,33.5,73.1,33.5,73.1,33.6z"/>
<path class="st8" d="M76.2,32c0,0.1,0,0.2,0,0.3c0,0.1-0.1,0.2-0.2,0.2c0,0-0.1,0-0.1,0c0,0-0.1,0-0.1,0c0,0-0.1,0-0.1-0.1
	c0,0-0.1-0.1-0.1-0.1c0-0.1,0-0.2,0-0.3c0-0.1,0.1-0.2,0.2-0.2c0,0,0.1,0,0.1,0s0.1,0,0.1,0c0,0,0.1,0,0.1,0.1
	C76.2,31.9,76.2,31.9,76.2,32z"/>
<path class="st8" d="M72.8,32.5c0,0.1-0.4,0-0.7,0.2c-0.4,0.2-0.5,0.5-0.6,0.4c0,0,0-0.1,0.1-0.2c0.1-0.2,0.3-0.3,0.4-0.4
	c0.2-0.1,0.4-0.1,0.6-0.1C72.7,32.4,72.8,32.5,72.8,32.5z"/>
<path class="st8" d="M75.3,34.6c0.2-0.1,0.3-0.3,0.5-0.4c0.1-0.1,0.2-0.1,0.1-0.2c0-0.1-0.1-0.2-0.2-0.2l-0.6-0.6
	c-0.8-0.8-1.5-1.5-1.4-1.5c0,0,0.7,0.6,1.5,1.4c0.2,0.2,0.4,0.4,0.6,0.6c0.1,0.1,0.2,0.2,0.2,0.3c0,0,0,0.1,0,0.1c0,0,0,0.1-0.1,0.1
	c0,0-0.1,0.1-0.1,0.1C75.7,34.5,75.5,34.6,75.3,34.6z"/>
<path class="st8" d="M72.2,31.6c0,0.1-0.3,0.2-0.7,0.5c-0.4,0.3-0.6,0.5-0.7,0.5c0,0,0-0.1,0-0.3c0.1-0.2,0.3-0.4,0.5-0.5
	c0.2-0.1,0.4-0.2,0.6-0.3C72.1,31.5,72.2,31.5,72.2,31.6z"/>
<path class="st8" d="M75.5,29.8c0,0.1-0.3,0.2-0.5,0.5c-0.3,0.2-0.5,0.5-0.6,0.4c-0.1,0-0.1-0.1,0-0.3c0.1-0.2,0.2-0.4,0.3-0.5
	c0.2-0.1,0.3-0.2,0.5-0.2C75.4,29.8,75.4,29.8,75.5,29.8z"/>
<path class="st10" d="M69.7,35.5c0,0-1.8,0.3-1,1.8c0.8,1.5,2.2,0.4,2.1,0.4C70.8,37.7,69.7,35.5,69.7,35.5z"/>
<path class="st11" d="M70,37.4C70,37.4,70,37.4,70,37.4c-0.1,0.1-0.2,0.2-0.3,0.2c-0.2,0-0.5-0.2-0.6-0.4c-0.1-0.1-0.1-0.3-0.1-0.4
	c0-0.1,0-0.1,0-0.2c0-0.1,0-0.1,0.1-0.1c0,0,0.1,0,0.1,0s0.1,0,0.1,0c0,0,0,0.1,0.1,0.1c0,0,0,0,0-0.1c0,0-0.1-0.1-0.1-0.1
	c0,0-0.1,0-0.1,0s-0.1,0-0.1,0c-0.1,0-0.1,0.1-0.1,0.2c0,0.1,0,0.1,0,0.2c0,0.2,0,0.3,0.1,0.5c0.2,0.3,0.5,0.5,0.7,0.5
	c0,0,0.1,0,0.1-0.1c0,0,0.1-0.1,0.1-0.1C70,37.4,70,37.4,70,37.4z"/>
<path class="st8" d="M68.8,35.9c0.1-0.1,0.3-0.1,0.5-0.1c0.2,0,0.3,0.1,0.5,0.1c0.2,0.2,0.3,0.4,0.5,0.6c0.2,0.2,0.5,0.3,0.7,0.1
	c0.1-0.1,0.1-0.1,0.1-0.2c0-0.1,0-0.2,0-0.3c0-0.2-0.1-0.4-0.2-0.5c-0.4-0.7-0.9-1.3-1.3-2.1c-0.4-0.7-0.6-1.5-0.5-2.3
	c0.1-0.8,0.6-1.6,1.4-1.9c0.5-0.2,1.1-0.1,1.6-0.3c0.3-0.1,0.6-0.3,0.8-0.5c0.2-0.2,0.4-0.5,0.5-0.8c0-0.1,0.2-0.4,0.2-0.4
	c0,0-0.2-0.3-0.4-0.4c-1.4-0.4-3.2,0.1-4.3,1C67.8,29,67,30.4,67,31.8C67,33.3,67.9,34.8,68.8,35.9"/>
<path class="st8" d="M73.2,27.9c-0.8,0.4-2.3,1.5-2.8,2.4c-0.1,0.1-0.1,0.2,0,0.3c0.1,0.1,0.2,0,0.2,0c0.8-0.3,1.6-0.6,2.5-0.7
	c0.6-0.1,1.1-0.2,1.6-0.5c0.5-0.3,0.9-0.8,0.9-1.4l0.3,0C75.1,27.4,74,27.5,73.2,27.9z"/>
<path class="st12" d="M75.4,28.1c-0.7-0.2-1.4-0.2-2.1,0c-2.1,0.7-5,2.8-5.1,7c0,0-0.9-0.9-1.2-1.6c-0.2-0.5-1.2-3.4,1.2-5.5
	C68.3,28,71.8,24.4,75.4,28.1z"/>
<g class="st13">
	<path d="M75.4,28.1c-0.7-0.3-1.6-0.3-2.3,0c-1.8,0.7-4.8,3.1-4.9,7c0,0-0.9-0.9-1.2-1.6c-0.2-0.5-1.2-3.4,1.2-5.5
		C68.3,28,71.8,24.4,75.4,28.1z"/>
</g>
<path class="st12" d="M68.3,34.6c0.2-1.8,1-3.4,2-4.9c1-1.5,2.9-3.4,4.2-4.5c0.4-0.4,0.9-0.6,1.4-0.8c0.5-0.1,1.1,0,1.5,0.4
	c0.4,0.5-0.2,1.9-0.5,2.5c-0.3,0.5-0.7,1.1-1.1,1.6c0,0-0.5-1.1-2.4-0.5C70.9,29.1,68.2,34.7,68.3,34.6z"/>
<path class="st6" d="M77.1,93.8l-2.4,3.4c0,0,4.9,1.7,4.9,2.7l-9.6,0l2.7-6.5L77.1,93.8z"/>
<g class="st14">
	<path class="st5" d="M71.7,96.6c-0.1,0-0.2,0.1-0.2,0.2c-0.1,0.1-0.1,0.2-0.1,0.3c0,0.1,0.1,0.2,0.2,0.2c0.1,0.1,0.2,0.1,0.3,0.1
		c0.1,0,0.2-0.1,0.2-0.2c0.1-0.1,0.1-0.2,0.1-0.3c0-0.1-0.1-0.2-0.2-0.2C71.9,96.6,71.8,96.6,71.7,96.6"/>
</g>
<g class="st14">
	<path class="st5" d="M69.9,99.8l0.3-0.8l9,0.3c0.1,0.1,0.2,0.1,0.2,0.2c0.1,0.1,0.1,0.2,0.1,0.3L69.9,99.8z"/>
</g>
<path class="st8" d="M74.8,97.1c0,0-0.2,0.1-0.5,0.2c-0.2,0.1-0.4,0.3-0.4,0.3c0,0,0-0.3,0.3-0.5C74.5,97,74.8,97.1,74.8,97.1z"/>
<path class="st8" d="M75.8,97.6c0,0-0.2,0.1-0.4,0.3c-0.2,0.2-0.2,0.4-0.3,0.4c0,0-0.1-0.3,0.2-0.5C75.5,97.5,75.8,97.5,75.8,97.6z"
	/>
<path class="st8" d="M76.3,98.8c0,0-0.1-0.2,0-0.5c0.1-0.3,0.4-0.3,0.4-0.3c0,0-0.1,0.2-0.2,0.4C76.4,98.6,76.4,98.8,76.3,98.8z"/>
<path class="st8" d="M75.2,96.6c0,0-0.2-0.1-0.4-0.2c-0.2-0.1-0.5-0.1-0.5-0.2c0,0,0.3-0.1,0.5,0C75.1,96.3,75.2,96.5,75.2,96.6z"/>
<path class="st8" d="M75.6,95.8c-0.2,0-0.3-0.1-0.4-0.2c-0.1-0.1-0.3-0.2-0.4-0.3c-0.1-0.1-0.1-0.2-0.2-0.2c0,0-0.1-0.1-0.1-0.2
	c0,0,0-0.1,0-0.1c0,0,0-0.1,0.1-0.1c0,0,0.1,0,0.1,0c0,0,0.1,0,0.1,0c0.1,0,0.1,0.1,0.2,0.1c0.1,0.1,0.2,0.1,0.2,0.2
	c0.1,0.1,0.2,0.3,0.3,0.4C75.6,95.5,75.6,95.6,75.6,95.8c0,0-0.1-0.2-0.2-0.4c-0.1-0.1-0.2-0.3-0.3-0.4c-0.1-0.1-0.1-0.1-0.2-0.2
	c-0.1-0.1-0.2-0.1-0.2-0.1c0,0,0,0,0,0.1c0,0,0,0.1,0.1,0.1c0.1,0.1,0.1,0.2,0.2,0.2c0.1,0.1,0.2,0.2,0.4,0.3
	C75.5,95.7,75.7,95.8,75.6,95.8z"/>
<path class="st8" d="M75.6,95.8c0-0.2,0-0.3,0.1-0.5c0.1-0.2,0.2-0.3,0.3-0.5c0.1-0.1,0.1-0.2,0.2-0.2c0,0,0.1-0.1,0.2-0.1
	s0.1,0,0.2,0c0,0,0.1,0,0.1,0.1c0,0,0,0.1,0,0.1c0,0.1,0,0.1,0,0.2c0,0.1-0.1,0.2-0.1,0.3c-0.1,0.2-0.2,0.3-0.4,0.4
	C75.8,95.8,75.6,95.8,75.6,95.8c0.2-0.2,0.3-0.2,0.5-0.3c0.1-0.1,0.2-0.2,0.3-0.4c0-0.1,0.1-0.2,0.1-0.3c0-0.1,0-0.2,0-0.2
	c0,0-0.1,0-0.1,0c0,0-0.1,0-0.1,0.1c-0.2,0.2-0.4,0.4-0.5,0.6C75.6,95.7,75.6,95.8,75.6,95.8z"/>
<path class="st6" d="M85.7,93.8l-2.3,3.4c0,0,4.9,1.6,5,2.5l-9.6,0.1l2.5-6.5L85.7,93.8z"/>
<g class="st14">
	<path class="st5" d="M80.4,96.7c-0.1,0-0.2,0.1-0.2,0.2c-0.1,0.1-0.1,0.2-0.1,0.3c0,0.1,0.1,0.2,0.2,0.2c0.1,0.1,0.2,0.1,0.3,0.1
		c0.1,0,0.2-0.1,0.2-0.2c0.1-0.1,0.1-0.2,0.1-0.3c0-0.1-0.1-0.2-0.2-0.2C80.6,96.7,80.5,96.7,80.4,96.7"/>
</g>
<g class="st14">
	<path class="st5" d="M78.7,99.9l0.3-0.8l9,0.2c0.1,0,0.2,0.1,0.2,0.2c0.1,0.1,0.1,0.2,0.1,0.3L78.7,99.9z"/>
</g>
<path class="st8" d="M83.5,97.2c0,0-0.2,0.1-0.5,0.2c-0.2,0.1-0.4,0.3-0.4,0.3c0,0,0-0.3,0.3-0.5S83.5,97.1,83.5,97.2z"/>
<path class="st8" d="M84.5,97.6c0,0-0.2,0.1-0.4,0.3c-0.2,0.2-0.2,0.4-0.3,0.4S83.8,98,84,97.8C84.2,97.6,84.5,97.6,84.5,97.6z"/>
<path class="st8" d="M85.1,98.8c0,0-0.1-0.2,0-0.5c0.1-0.3,0.3-0.4,0.4-0.3c0,0-0.1,0.2-0.2,0.4S85.1,98.8,85.1,98.8z"/>
<path class="st8" d="M83.9,96.6c0,0-0.2-0.1-0.4-0.2c-0.2-0.1-0.5-0.1-0.5-0.2c0,0,0.2-0.1,0.5,0C83.8,96.4,83.9,96.6,83.9,96.6z"/>
<path class="st8" d="M84.3,95.8c-0.2,0-0.3-0.1-0.4-0.2c-0.1-0.1-0.3-0.2-0.4-0.3c-0.1-0.1-0.1-0.2-0.2-0.2c0,0-0.1-0.1-0.1-0.2
	c0,0,0-0.1,0-0.1c0,0,0-0.1,0.1-0.1c0,0,0.1,0,0.1,0c0,0,0.1,0,0.1,0c0.1,0,0.1,0.1,0.2,0.1c0.1,0.1,0.2,0.1,0.2,0.2
	c0.1,0.1,0.2,0.3,0.3,0.4C84.3,95.5,84.3,95.7,84.3,95.8c0,0-0.1-0.2-0.2-0.4c-0.1-0.1-0.2-0.3-0.3-0.4c-0.1-0.1-0.1-0.1-0.2-0.2
	c-0.1-0.1-0.2-0.1-0.2-0.1c0,0,0,0,0,0.1c0,0,0,0.1,0.1,0.1c0.1,0.1,0.1,0.2,0.2,0.2c0.1,0.1,0.2,0.2,0.4,0.3
	C84.2,95.7,84.3,95.8,84.3,95.8z"/>
<path class="st8" d="M84.2,95.9c0-0.2,0-0.3,0.1-0.5c0.1-0.3,0.3-0.5,0.5-0.7c0,0,0.1-0.1,0.2-0.1c0.1,0,0.1,0,0.2,0
	c0,0,0.1,0,0.1,0.1c0,0,0,0.1,0,0.1c0,0.1,0,0.1,0,0.2c0,0.1-0.1,0.2-0.1,0.3c-0.1,0.2-0.2,0.3-0.4,0.4c-0.1,0.1-0.1,0.1-0.2,0.1
	C84.5,95.8,84.4,95.8,84.2,95.9c0.2-0.2,0.3-0.2,0.5-0.3c0.1-0.1,0.2-0.2,0.3-0.4c0-0.1,0.1-0.2,0.1-0.3c0-0.1,0-0.2,0-0.2
	c0,0-0.1,0-0.1,0c0,0-0.1,0-0.1,0.1c-0.1,0.1-0.1,0.1-0.2,0.2c-0.1,0.1-0.2,0.3-0.3,0.4C84.3,95.7,84.3,95.9,84.2,95.9z"/>
<path class="st10" d="M84.4,45.4l6.5,2.4c0,0,3.4,0.2,4.7,0.5c1.5,0.3,6.8,1.3,6.8,1.3l-0.8,2.9c0,0-6.5,0.3-8.8,0
	c-2-0.2-2.9-0.2-2.9-0.2l-5.9-0.6l-1.7-2.3L84.4,45.4z"/>
<path class="st2" d="M103.7,49.3c0,0,2.2-0.9,2.4-1s2.7-0.4,2.7-0.4s0,0.7-0.5,0.9c-0.5,0.3-1.6,0.3-1.6,0.7
	c0.1,0.4,0.9,0.9,0.9,0.9s1.3,0,1.5,0.4c0.2,0.3-0.1,0.8-0.1,0.8s0.3,0.4,0.1,0.7c0,0.1-0.1,0.1-0.2,0.2c-0.1,0-0.2,0.1-0.3,0.1
	c0,0,0,0.5-0.3,0.8c-0.2,0.1-0.4,0.2-0.7,0.2c0,0-0.6,0.6-1.3,0.4c-0.2,0-2.3-0.2-2.8-0.5c-0.4-0.3-0.8-1-1.2-1.1L103.7,49.3z"/>
<path class="st2" d="M103.7,49.3l-2.1-0.9l-1.1,4.5l2.4-0.1L103.7,49.3z"/>
<path class="st8" d="M108.9,51.7c-0.1,0-0.2,0.1-0.3,0.1c-0.2,0-0.5,0-0.8,0c-0.3,0-0.6,0-0.8-0.1c-0.2-0.1-0.3-0.2-0.3-0.2
	s0.1,0.1,0.3,0.1c0.3,0.1,0.5,0.1,0.8,0.1c0.3,0,0.6,0,0.8,0C108.7,51.7,108.8,51.7,108.9,51.7z"/>
<path class="st8" d="M108.6,52.7c-0.2,0.1-0.5,0.2-0.8,0.1c-0.3,0-0.5,0-0.8-0.1c0,0,0.4,0,0.8,0C108.3,52.7,108.6,52.6,108.6,52.7z
	"/>
<path class="st8" d="M107.6,53.6c-0.4,0.1-0.9,0-1.2-0.2c0.2,0,0.4,0,0.6,0.1C107.2,53.5,107.4,53.5,107.6,53.6z"/>
<path class="st2" d="M72.1,40.9c-0.1,0.1-1.2,3-1.5,5c-0.4,1.9-0.9,4.1,1,8.6c1.7,4.3,4.2,6.3,4.2,6.3l6.5,1.3l1.6-8.3l-3.4-8.9
	l-1.5-3.5C78.8,41.3,73.2,40.2,72.1,40.9z"/>
<path class="st12" d="M76.7,68c0.2,0.2,9.6,11,9.6,11l-0.2,1.6l-6.1,13.7l7.3,3.2c0,0,7.1-16.6,7.7-18.9c0.7-2.3-1.2-5.2-1.8-6.5
	c-0.7-1.6-7.2-11.4-7.2-11.4l-11.5,2.7L76.7,68z"/>
<path class="st12" d="M80.5,72l0.5,3.3L72.3,93l5.8,2.8L87,79L80.5,72z"/>
<path class="st12" d="M77.6,41.7c0,0-1.4-1-3.1-0.6c-1.7,0.4-4,5-4.3,7.5v0.1c-0.2,2.2,0.1,4.3,0.9,6.4l3.5,8.6l10.9-0.3l0.6-2.3
	l-2.4-7.2c0,0-4,6.9-5.5,6.8c-1.5-0.1-2.8,0.2-3.9-1.5c-1.2-1.6-3.5-6.1-3.5-6.3c0-0.1-0.5-2.5-0.2-3.7c0.3-1.2,2.3-5,2.3-5
	S75,40.4,77.6,41.7z"/>
<path class="st8" d="M80.1,94.3L80.1,94.3l0.1-0.3c0.1-0.2,0.2-0.4,0.3-0.7c0.3-0.6,0.7-1.5,1.2-2.7c1-2.2,2.3-5.3,3.8-8.8
	c0.2-0.5,0.4-0.9,0.6-1.4v0c0.1-0.5,0.1-1,0.2-1.5l0,0l-4.9-5.7L80,71.7l-0.4-0.4c0,0-0.1-0.1-0.1-0.1l0,0c0,0,0,0,0,0
	c0,0,0.1,0.1,0.1,0.1l0.4,0.4l1.5,1.6l4.9,5.6l0,0v0c-0.1,0.5-0.1,1-0.2,1.5v0C86,81,85.8,81.5,85.6,82c-1.5,3.4-2.9,6.5-3.9,8.8
	c-0.5,1.1-0.9,2-1.2,2.6c-0.1,0.3-0.2,0.5-0.3,0.7L80.1,94.3C80.1,94.3,80.1,94.3,80.1,94.3z"/>
<path class="st2" d="M75.3,49.1l8.5,3.7l2.4-7.1l-8.6-4.1"/>
<path class="st8" d="M77.6,41.7L77.6,41.7l0.2,0.1l0.5,0.2l1.8,0.8l6.2,2.9l0,0l0,0c-0.4,1.1-0.8,2.2-1.2,3.4l-1.2,3.6l0,0l0,0
	l-6.1-2.7l-1.8-0.8l-0.5-0.2l-0.1-0.1c0,0,0,0,0,0l0,0l0.1,0l0.5,0.2l1.8,0.8l6.1,2.7l-0.1,0c0.4-1.1,0.8-2.4,1.2-3.6l1.2-3.4l0,0.1
	L80,42.9L78.3,42l-0.5-0.2L77.6,41.7L77.6,41.7z"/>
<path class="st8" d="M77.9,57.9c0-0.1,0.1-0.2,0.2-0.2c0.1-0.1,0.2-0.3,0.4-0.6c0.5-0.7,0.8-1.3,1.2-2.1c0.3-0.7,0.6-1.5,0.7-2.3
	c0-0.1,0.1-0.3,0.1-0.4c0-0.1,0-0.2,0.1-0.3c0-0.1,0-0.2,0-0.3c0,0.1,0,0.2,0,0.3c0,0.1,0,0.2,0,0.3c0,0.1,0,0.3-0.1,0.4
	c-0.1,0.8-0.4,1.6-0.7,2.3c-0.3,0.7-0.7,1.4-1.2,2.1c-0.2,0.2-0.3,0.4-0.5,0.6C78,57.7,78,57.8,77.9,57.9z"/>
<path class="st8" d="M73.8,46.9C73.8,46.9,73.7,46.8,73.8,46.9c-0.1-0.1-0.1-0.2-0.1-0.3c-0.1-0.3-0.1-0.5-0.2-0.8
	c-0.1-0.4-0.1-0.8,0-1.2c0.1-0.5,0.2-1,0.4-1.4c0.2-0.4,0.6-0.8,1-1.1c0.3-0.2,0.7-0.4,1.1-0.5c0.3-0.1,0.5-0.1,0.8,0
	c0.1,0,0.1,0,0.2,0c0,0,0.1,0,0.1,0c-0.4-0.1-0.7,0-1.1,0c-0.4,0.1-0.8,0.3-1.1,0.5c-0.4,0.3-0.7,0.7-0.9,1.1
	c-0.2,0.4-0.4,0.9-0.4,1.4c0,0.4,0,0.8,0,1.2c0,0.3,0.1,0.5,0.2,0.8C73.7,46.7,73.7,46.8,73.8,46.9z"/>
<path class="st8" d="M80.9,65.3c0,0-0.5-1.1-1.1-2.4c-0.6-1.3-1.1-2.4-1-2.4c0,0,0.5,1.1,1.1,2.4C80.5,64.2,80.9,65.3,80.9,65.3z"/>
<path class="st8" d="M79.8,60.8C79.8,60.8,79.8,60.8,79.8,60.8c0.1-0.1,0.2-0.1,0.3,0c0.1,0,0.1,0.1,0.1,0.1c0,0,0.1,0.1,0.1,0.2
	c0,0.1,0,0.1,0,0.2c0,0.1-0.1,0.1-0.1,0.2c-0.1,0-0.1,0.1-0.2,0.1c-0.1,0-0.1,0-0.2-0.1c0,0-0.1-0.1-0.1-0.1c0-0.1,0-0.1,0-0.2
	c0-0.1,0-0.2,0.1-0.2C79.8,60.8,79.8,60.8,79.8,60.8c-0.1,0.1-0.1,0.2-0.1,0.3c0,0,0,0.1,0,0.1c0,0,0.1,0.1,0.1,0.1c0,0,0.1,0,0.2,0
	c0.1,0,0.1,0,0.2-0.1c0,0,0.1-0.1,0.1-0.1c0-0.1,0-0.1,0-0.2c0,0,0-0.1-0.1-0.1c0,0-0.1-0.1-0.1-0.1C80,60.8,79.9,60.8,79.8,60.8z"
	/>
<path class="st8" d="M81,63c0,0-0.1,0-0.2,0.2c0,0,0,0.1,0,0.1c0,0,0,0.1,0,0.1c0,0,0.1,0.1,0.1,0.1c0,0,0.1,0,0.1,0
	c0,0,0.1,0,0.1,0c0,0,0.1-0.1,0.1-0.1c0,0,0-0.1,0-0.1c0,0,0-0.1-0.1-0.1C81.1,63,81,63.1,81,63C81,63,81,63,81,63
	c0.1,0,0.2,0,0.2,0.1c0,0,0.1,0.1,0.1,0.1s0,0.1,0,0.2c0,0.1-0.1,0.1-0.1,0.2c-0.1,0-0.1,0.1-0.2,0.1c-0.1,0-0.1,0-0.2,0
	c-0.1,0-0.1-0.1-0.1-0.1c0,0,0-0.1,0-0.2c0-0.1,0-0.1,0.1-0.1C80.8,63.1,80.8,63.1,81,63C81,63,81,63,81,63z"/>
<path class="st8" d="M81,68c0,0,0,0.1,0.1,0.1c0,0.1,0.1,0.2,0.1,0.4l0.5,1.5l-0.1,0l5-3.1l0.4-0.2v0.1l-1.6-1.6h0.1l-3.2,2
	l-0.9,0.6L81,68C81.1,68,81,68,81,68C81,68,81.1,68,81,68l0.3-0.2l0.9-0.6l3.2-2.1l0,0l0,0l1.6,1.6l0,0l-0.1,0l-0.4,0.3l-5,3l0,0
	l0,0l-0.5-1.5c-0.1-0.2-0.1-0.3-0.1-0.4C81,68.1,81,68.1,81,68z"/>
<path class="st8" d="M88.8,78.5c-0.4,0.2-0.7,0.3-1.1,0.4c-0.4,0.2-0.8,0.3-1.2,0.4c0.4-0.2,0.7-0.3,1.1-0.5
	C88,78.7,88.4,78.6,88.8,78.5z"/>
<path class="st8" d="M89.1,80c-0.5-0.1-0.9-0.2-1.4-0.3c-0.5-0.1-0.9-0.3-1.3-0.4c0.5,0.1,0.9,0.2,1.4,0.3
	C88.3,79.7,88.7,79.8,89.1,80z"/>
<path class="st8" d="M75.2,62.3c0.2,0,0.4,0,0.6,0c0.4,0,0.9,0,1.5,0c0.6,0,1.1-0.1,1.5-0.1c0.2,0,0.4,0,0.6-0.1
	c-0.2,0.1-0.4,0.1-0.6,0.1c-0.5,0.1-1,0.1-1.5,0.1c-0.5,0-1,0-1.5-0.1C75.6,62.4,75.4,62.4,75.2,62.3z"/>
<path class="st8" d="M77.5,63.1c0,0,0.5-0.1,1.1-0.3s1-0.3,1-0.3c-0.3,0.2-0.7,0.3-1,0.4C78.2,63.1,77.9,63.1,77.5,63.1z"/>
<path class="st8" d="M83.8,60.1c0-0.2-0.1-0.3-0.1-0.5c-0.1-0.4-0.1-0.8-0.2-1.2c-0.1-0.4-0.2-0.8-0.3-1.2C83.1,57,83,56.9,83,56.7
	c0.1,0.1,0.2,0.3,0.2,0.5c0.3,0.8,0.5,1.6,0.6,2.4C83.8,59.7,83.8,59.9,83.8,60.1z"/>
<path class="st8" d="M88.2,95.7c0,0-1.6-0.6-3.7-1.5c-2-0.9-3.6-1.6-3.6-1.6c0,0,1.6,0.7,3.7,1.5C86.6,94.9,88.2,95.6,88.2,95.7z"/>
<path class="st8" d="M79.2,93.9c0,0-1.3-0.6-3-1.3c-1.6-0.8-3-1.4-2.9-1.4s1.3,0.6,3,1.3C77.9,93.3,79.2,93.9,79.2,93.9z"/>
<path class="st9" d="M85.1,82.7l0.2-3.8l-4.7-6.5l5.7,6.6l-0.2,1.5L85.1,82.7z"/>
<path class="st9" d="M81.9,70l0.3,0.4l4.9-3.1L86.8,67L81.9,70z"/>
<path class="st9" d="M76,49.4c0,0,2.5,1.4,3.3,1.9c0.8,0.4,1.2,0.6,1.2,0.6s0,1.9-1.8,4.8c0,0,2.7-3.4,3.1-4.3h1L76,49.4z"/>
<g class="st15">
	<path d="M79.4,62.2c-1.2,0.3-2.4,0.4-3.6,0.2c1.1,0.5,2.3,0.6,3.4,0.2c-0.4,0.2-0.7,0.4-1.1,0.5c0.4,0,0.9,0,1.3-0.1
		c0.3,0.7,0.8,1.5,1.3,2.1C80.3,64.1,79.9,63.1,79.4,62.2z"/>
</g>
<path class="st16" d="M75.3,36.5c0.8,0.2,2.2,0.2,2-1.4"/>
</svg>
