<?xml version="1.0" encoding="utf-8"?>
<!-- Generator: Adobe Illustrator 27.0.0, SVG Export Plug-In . SVG Version: 6.00 Build 0)  -->
<svg version="1.1" id="Calque_1" xmlns="http://www.w3.org/2000/svg" xmlns:xlink="http://www.w3.org/1999/xlink" x="0px" y="0px"
	 viewBox="0 0 160 100" style="enable-background:new 0 0 160 100;" xml:space="preserve">
<style type="text/css">
	.st0{fill:#EFF3FE;}
	.st1{fill:#E0E0E0;}
	.st2{fill:#FAFAFA;}
	.st3{fill:#FFFFFF;}
	.st4{fill:#F5F5F5;}
	.st5{fill:#EBEBEB;}
	.st6{fill:#263238;}
	.st7{fill:#455A64;}
	.st8{fill:#88DAF5;}
	.st9{fill:#FFBE9D;}
	.st10{fill:#EB996E;}
	.st11{opacity:0.3;}
	.st12{fill:#A36957;}
	.st13{fill:#7C3B29;}
</style>
<path class="st0" d="M-27.4-16.1h214.7c6.8,0,12.3,5.5,12.3,12.3v116.6c0,6.8-5.5,12.3-12.3,12.3H-27.4c-6.8,0-12.3-5.5-12.3-12.3
	V-3.8C-39.6-10.6-34.1-16.1-27.4-16.1z"/>
<path class="st1" d="M28.6,25.5h15.3v14.9H28.6V25.5z"/>
<path class="st2" d="M29.6,25.5h15.3v14.9H29.6V25.5z"/>
<path class="st1" d="M29.6,40.4h15.3V25.4H29.6V40.4z M44.9,40.4H29.6V25.5h15.3V40.4z"/>
<path class="st3" d="M31.7,27.5h11.2v10.9H31.7V27.5z"/>
<path class="st1" d="M42.9,38.5c0.1,0.1,0.2,0.2,0.3,0.3c0.2,0.2,0.4,0.4,0.7,0.7c0.3,0.3,0.5,0.5,0.7,0.7c0.1,0.1,0.2,0.2,0.3,0.3
	c-0.1-0.1-0.2-0.2-0.3-0.3c-0.2-0.2-0.4-0.4-0.7-0.7c-0.3-0.3-0.5-0.5-0.7-0.7C43.1,38.6,43,38.5,42.9,38.5z"/>
<path class="st1" d="M31.7,38.4c-0.1,0.1-0.2,0.2-0.3,0.3c-0.2,0.2-0.4,0.4-0.7,0.7c-0.3,0.3-0.5,0.5-0.7,0.7
	c-0.1,0.1-0.2,0.2-0.3,0.3c0.1-0.1,0.2-0.2,0.3-0.2c0.2-0.2,0.4-0.4,0.7-0.7c0.3-0.3,0.5-0.5,0.7-0.7C31.5,38.6,31.6,38.5,31.7,38.4
	z"/>
<path class="st1" d="M31.7,27.5c-0.1-0.1-0.2-0.2-0.3-0.3c-0.2-0.2-0.4-0.4-0.7-0.7c-0.3-0.3-0.5-0.5-0.7-0.7
	c-0.1-0.1-0.2-0.2-0.3-0.3c0.1,0.1,0.2,0.2,0.3,0.3c0.2,0.2,0.4,0.4,0.7,0.7c0.3,0.3,0.5,0.5,0.7,0.7C31.5,27.3,31.6,27.4,31.7,27.5
	z"/>
<path class="st1" d="M42.9,27.5c0.1-0.1,0.2-0.2,0.3-0.3c0.2-0.2,0.4-0.4,0.7-0.7c0.3-0.3,0.5-0.5,0.7-0.7c0.1-0.1,0.2-0.2,0.3-0.3
	c-0.1,0.1-0.2,0.2-0.3,0.3c-0.2,0.2-0.4,0.4-0.7,0.7c-0.3,0.3-0.5,0.5-0.7,0.7C43.1,27.3,43,27.4,42.9,27.5z"/>
<path class="st1" d="M31.7,38.4C31.7,38.4,31.7,38.3,31.7,38.4c0-0.1,0-0.1,0-0.2c0-0.1,0-0.3,0-0.6c0-0.5,0-1.3,0-2.2
	c0-1.9,0-4.6,0-7.9l0,0h11.2l0,0c0,4,0,7.8,0,10.9l0,0l-8.1,0h-2.3h-0.6h0.6l2.3,0l8.1,0h0v0c0-3.2,0-6.9,0-10.9v0h-0.1H31.7h0v0
	c0,3.3,0,6,0,7.9c0,1,0,1.7,0,2.2c0,0.3,0,0.4,0,0.6C31.7,38.2,31.7,38.3,31.7,38.4C31.7,38.3,31.7,38.4,31.7,38.4z"/>
<path class="st1" d="M37.3,33.6l1.6,0l0.3,0.7l0.8,0l-1.5-3.1h-0.8l-1.6,3l0.8,0L37.3,33.6z M37.6,33.1l0.5-1.2l0.5,1.2L37.6,33.1z"
	/>
<path class="st1" d="M34.4,33.2l0,1.1h0.3v-0.2c0.1,0.1,0.2,0.2,0.3,0.2c0.1,0,0.2,0.1,0.4,0.1c0.4,0,0.7-0.2,0.7-0.5
	c0-0.3-0.2-0.5-0.8-0.5h-0.6v-0.1c0-0.3,0.2-0.4,0.5-0.4c0.2,0,0.4,0.1,0.6,0.2l0.2-0.2c-0.2-0.2-0.5-0.2-0.8-0.2
	C34.7,32.5,34.4,32.8,34.4,33.2z M34.7,33.8v-0.2h0.6c0.4,0,0.4,0.1,0.4,0.3c0,0.1-0.2,0.3-0.4,0.3c-0.1,0-0.2,0-0.3-0.1
	C34.8,34,34.8,33.9,34.7,33.8L34.7,33.8z"/>
<path class="st1" d="M30.7,43.5h12.6v12.3H30.7V43.5z"/>
<path class="st2" d="M31.6,43.5h12.6v12.3H31.6V43.5z"/>
<path class="st1" d="M31.6,55.8h12.6V43.5H31.6V55.8z M44.1,55.8H31.6V43.5h12.5V55.8z"/>
<path class="st3" d="M33.3,45.2h9.2v9h-9.2V45.2z"/>
<path class="st1" d="M42.5,54.2c0.1,0.1,0.1,0.2,0.2,0.2c0.1,0.1,0.4,0.3,0.6,0.6c0.2,0.2,0.4,0.4,0.6,0.5c0.1,0.1,0.2,0.1,0.3,0.2
	c-0.1-0.1-0.1-0.2-0.2-0.2c-0.1-0.1-0.4-0.3-0.6-0.6c-0.2-0.2-0.4-0.4-0.6-0.5C42.6,54.3,42.6,54.3,42.5,54.2z"/>
<path class="st1" d="M33.3,54.2c-0.1,0.1-0.2,0.1-0.3,0.2c-0.2,0.1-0.4,0.3-0.6,0.5c-0.2,0.2-0.4,0.4-0.6,0.6
	c-0.1,0.1-0.2,0.2-0.2,0.2c0.1-0.1,0.2-0.1,0.3-0.2c0.2-0.1,0.4-0.3,0.6-0.5c0.2-0.2,0.4-0.4,0.6-0.6C33.1,54.4,33.2,54.3,33.3,54.2
	z"/>
<path class="st1" d="M33.3,45.2c-0.1-0.1-0.1-0.2-0.2-0.2c-0.1-0.1-0.4-0.3-0.6-0.6c-0.2-0.2-0.4-0.4-0.6-0.5
	c-0.1-0.1-0.2-0.1-0.3-0.2c0.1,0.1,0.1,0.2,0.2,0.2c0.1,0.1,0.4,0.3,0.6,0.6c0.2,0.2,0.4,0.4,0.6,0.5C33.1,45.1,33.2,45.2,33.3,45.2
	z"/>
<path class="st1" d="M42.5,45.2c0.1-0.1,0.2-0.1,0.3-0.2c0.2-0.1,0.4-0.3,0.6-0.5c0.2-0.2,0.4-0.4,0.6-0.6c0.1-0.1,0.2-0.2,0.2-0.2
	c-0.1,0.1-0.2,0.1-0.3,0.2c-0.2,0.1-0.4,0.3-0.6,0.5c-0.2,0.2-0.4,0.4-0.6,0.6C42.6,45.1,42.5,45.1,42.5,45.2z"/>
<path class="st1" d="M33.3,54.2L33.3,54.2c0-0.1,0-0.1,0-0.2c0-0.1,0-0.3,0-0.5c0-0.4,0-1,0-1.8c0-1.6,0-3.8,0-6.5l0,0h9.2l0,0
	c0,3.3,0,6.4,0,9l0,0l-6.6,0h-1.9h-0.5h0.5h1.9l6.7,0h0v0c0-2.6,0-5.7,0-9v0h0h-9.2h0v0c0,2.7,0,4.9,0,6.5c0,0.8,0,1.4,0,1.8
	c0,0.2,0,0.4,0,0.5C33.3,54,33.3,54,33.3,54.2C33.3,54.1,33.3,54.2,33.3,54.2z"/>
<path class="st1" d="M37.2,50.1c0,0.4,0.4,0.7,1.1,0.7l1.4,0l0-2.5l-1.3,0c-0.7,0-1.1,0.2-1.1,0.6c0,0.1,0,0.2,0.1,0.3
	c0.1,0.1,0.2,0.2,0.3,0.2c-0.1,0-0.3,0.1-0.4,0.2C37.2,49.8,37.2,50,37.2,50.1z M39.1,48.8v0.6h-0.6c-0.3,0-0.5-0.1-0.5-0.3
	c0-0.2,0.2-0.3,0.5-0.3H39.1z M37.8,50.1c0-0.2,0.2-0.3,0.5-0.3l0.7,0v0.6l-0.7,0C38,50.4,37.8,50.3,37.8,50.1z"/>
<path class="st1" d="M35.1,50.1c0,0.1,0,0.2,0.1,0.3c0,0.1,0.1,0.2,0.2,0.2c0.1,0.1,0.2,0.1,0.3,0.2c0.1,0,0.2,0.1,0.3,0
	c0.1,0,0.2,0,0.3-0.1c0.1,0,0.2-0.1,0.3-0.2v0.2h0.3l0-2h-0.3l0,0.8c-0.1-0.1-0.2-0.1-0.3-0.2c-0.1,0-0.2-0.1-0.3-0.1
	c-0.1,0-0.2,0-0.3,0c-0.1,0-0.2,0.1-0.3,0.2c-0.1,0.1-0.1,0.2-0.2,0.2C35.1,49.9,35.1,50,35.1,50.1z M35.4,50.1c0-0.1,0-0.2,0.1-0.3
	c0.1-0.1,0.1-0.1,0.2-0.2c0.1,0,0.2,0,0.3,0c0.1,0,0.2,0.1,0.3,0.1c0.1,0.1,0.1,0.2,0.1,0.3c0,0.1,0,0.2,0,0.3
	c0,0.1-0.1,0.2-0.2,0.2c-0.1,0.1-0.2,0.1-0.3,0.1c-0.1,0-0.1,0-0.2,0c-0.1,0-0.1-0.1-0.2-0.1c-0.1,0-0.1-0.1-0.1-0.2
	C35.4,50.2,35.4,50.1,35.4,50.1z"/>
<path class="st1" d="M48.3,20.6h64.8v43.3H48.3V20.6z"/>
<path class="st4" d="M50.3,22.3h61.2v39.9H50.3V22.3z"/>
<path class="st5" d="M44.7,63.9h70.4v1.7H44.7V63.9z"/>
<path class="st5" d="M113,20.6c-0.6,0.5-1.2,1-1.8,1.6L113,20.6z"/>
<path class="st5" d="M111.3,22.3c0.3-0.2,0.6-0.5,0.9-0.8c0.3-0.3,0.6-0.5,0.9-0.8c-0.3,0.2-0.7,0.5-0.9,0.7
	C111.8,21.6,111.5,21.9,111.3,22.3z"/>
<path class="st5" d="M50.2,22.5l-2-1.8L50.2,22.5z"/>
<path class="st5" d="M48.3,20.7c0.3,0.3,0.6,0.6,0.9,0.9c0.3,0.3,0.7,0.6,1,0.9c-0.3-0.3-0.6-0.6-0.9-0.9
	C49,21.2,48.7,20.9,48.3,20.7z"/>
<path class="st5" d="M50.1,62.3c-0.7,0.6-2,1.7-1.8,1.7L50.1,62.3z"/>
<path class="st5" d="M48.3,63.9c0.3-0.3,0.6-0.6,0.9-0.8c0.3-0.3,0.6-0.5,0.9-0.9c-0.4,0.2-0.7,0.5-1,0.8c-0.3,0.2-0.5,0.4-0.7,0.6
	C48.4,63.7,48.4,63.8,48.3,63.9C48.3,63.9,48.3,63.9,48.3,63.9C48.3,63.9,48.3,63.9,48.3,63.9z"/>
<path class="st2" d="M81.1,63.3h6.7V64h-6.7V63.3z"/>
<path class="st5" d="M108.4,56v8H93.8L108.4,56z M106.2,59.2l-6.1,3.4h6.1V59.2z"/>
<path class="st1" d="M107,56.8c0,0.2,0.1,0.3,0.3,0.5c0.1,0.2,0.2,0.3,0.4,0.4c-0.1-0.2-0.1-0.3-0.3-0.5C107.2,57,107,56.8,107,56.8
	z"/>
<path class="st1" d="M104.8,57.9c0,0.2,0.1,0.3,0.3,0.5c0.2,0.2,0.3,0.4,0.4,0.4c0-0.2-0.1-0.3-0.3-0.5
	C105,58.1,104.9,57.9,104.8,57.9z"/>
<path class="st1" d="M102.7,59.1c0.1,0.2,0.2,0.3,0.3,0.4c0.2,0.2,0.4,0.4,0.4,0.4c-0.1-0.2-0.2-0.3-0.3-0.4
	C102.9,59.3,102.7,59.1,102.7,59.1z"/>
<path class="st1" d="M100.5,60.3c0,0,0.1,0.2,0.3,0.5c0.2,0.2,0.4,0.4,0.4,0.4c-0.1-0.2-0.2-0.3-0.3-0.4
	C100.7,60.5,100.6,60.3,100.5,60.3z"/>
<path class="st1" d="M98.3,61.5c0.1,0.2,0.2,0.3,0.3,0.5c0.2,0.2,0.3,0.4,0.4,0.4c-0.1-0.2-0.2-0.3-0.3-0.5
	C98.5,61.7,98.3,61.5,98.3,61.5z"/>
<path class="st1" d="M96,62.8c0,0.2,0.1,0.3,0.3,0.5c0.2,0.2,0.3,0.4,0.3,0.4c0-0.2-0.1-0.3-0.3-0.5C96.2,62.9,96,62.8,96,62.8z"/>
<path class="st1" d="M106.3,57.2c0,0,0,0.1,0.1,0.3c0.1,0.1,0.2,0.2,0.2,0.2c0,0,0-0.1-0.1-0.3C106.4,57.2,106.3,57.1,106.3,57.2z"
	/>
<path class="st1" d="M105.6,57.5c0,0,0,0.1,0.1,0.3c0.1,0.1,0.2,0.2,0.2,0.2c0,0,0-0.1-0.1-0.3C105.7,57.6,105.6,57.5,105.6,57.5z"
	/>
<path class="st1" d="M104,58.4c0,0,0,0.1,0.1,0.3c0.1,0.1,0.2,0.2,0.2,0.2s0-0.1-0.1-0.3C104.2,58.5,104.1,58.4,104,58.4z"/>
<path class="st1" d="M103.3,58.8c0,0,0,0.1,0.1,0.3c0.1,0.1,0.2,0.2,0.2,0.2c0,0,0-0.1-0.1-0.3C103.4,58.8,103.3,58.7,103.3,58.8z"
	/>
<path class="st1" d="M101.9,59.6c0,0,0,0.1,0.1,0.3c0.1,0.1,0.2,0.2,0.2,0.2c0,0,0-0.1-0.1-0.3C102,59.7,101.9,59.6,101.9,59.6z"/>
<path class="st1" d="M101.2,60c0,0,0,0.1,0.1,0.3c0.1,0.1,0.2,0.2,0.2,0.2c0,0,0-0.1-0.1-0.3C101.3,60,101.2,59.9,101.2,60z"/>
<path class="st1" d="M99.8,60.7c0,0,0,0.1,0.1,0.3c0.1,0.1,0.2,0.2,0.2,0.2c0,0,0-0.1-0.1-0.3C99.9,60.8,99.8,60.7,99.8,60.7z"/>
<path class="st1" d="M99,61.2c0,0,0,0.1,0.1,0.3c0.1,0.1,0.2,0.2,0.2,0.2c0,0,0-0.1-0.1-0.3C99.1,61.3,99,61.2,99,61.2z"/>
<path class="st1" d="M97.6,62c0,0,0,0.1,0.1,0.3c0.1,0.1,0.2,0.2,0.2,0.2c0,0,0-0.1-0.1-0.3C97.7,62,97.6,61.9,97.6,62z"/>
<path class="st1" d="M96.7,62.4c0,0,0,0.1,0.1,0.3c0.1,0.1,0.2,0.2,0.2,0.2c0,0,0-0.1-0.1-0.3C96.9,62.5,96.8,62.4,96.7,62.4z"/>
<path class="st5" d="M37.9,79.5c-1.1-0.6-2.5-0.6-3.8-0.4c-0.7,0.1-1.4,0.3-1.9,0.8c-0.5,0.5-0.6,1.3,0,1.7c0.3,0.2,0.8,0.3,1.2,0.3
	c1,0,2.1-0.2,2.9,0.4c0.4,0.3,0.8,0.9,1.3,1c0.3,0.1,0.6,0,0.8-0.1c0.3-0.1,0.5-0.3,0.6-0.5c0.3-0.5,0.3-1,0.2-1.5
	c-0.1-0.4-0.2-0.7-0.4-1C38.5,79.9,38.2,79.6,37.9,79.5z"/>
<path class="st5" d="M40.5,74.7c-0.7,0.9-2.1,0.6-2.7,0.1s-0.9-1.4-1.1-2.2c-0.6-1.8-1.1-3.7-0.7-5.5c0.1-0.6,0.4-1.1,0.8-1.5
	c0.2-0.2,0.5-0.4,0.7-0.5c0.3-0.1,0.6-0.1,0.9,0c0.7,0.2,1.1,0.8,1.4,1.4c0.9,1.8,1.4,3.7,1.4,5.7C41.2,73,41.1,74,40.5,74.7"/>
<path class="st5" d="M42.4,76.1c-0.8-0.8-0.9-2.1-0.6-3.1c0.3-1,1.1-2,2-2.7c1-0.9,2.2-1.5,3.5-2c0.5-0.2,1-0.3,1.6-0.3
	c0.3,0,0.5,0.1,0.8,0.2c0.2,0.1,0.4,0.3,0.6,0.5c0.4,0.7,0,1.5-0.4,2.1c-0.7,1.2-1.5,2.3-2.3,3.3c-0.7,0.8-1.5,1.7-2.6,2.1
	c-1.1,0.4-2.2,0.3-2.7-0.4"/>
<path class="st1" d="M40.6,88.8c0-0.1-0.1-0.3-0.1-0.4c0-0.3-0.1-0.7-0.1-1.2c-0.1-0.6-0.2-1.1-0.3-1.7c-0.2-0.7-0.4-1.4-0.7-2
	c-0.3-0.6-0.6-1.3-1.1-1.8c-0.4-0.5-0.8-0.8-1.4-1.1c-0.4-0.2-0.8-0.3-1.2-0.3c-0.1,0-0.3,0-0.4-0.1c0.2,0,0.3,0,0.5,0
	c0.4,0,0.8,0.1,1.2,0.3c0.6,0.3,1.1,0.6,1.5,1.1c0.5,0.6,0.9,1.2,1.1,1.9c0.3,0.7,0.5,1.3,0.7,2c0.1,0.6,0.2,1.1,0.2,1.7
	c0,0.5,0.1,0.9,0.1,1.2C40.6,88.6,40.6,88.7,40.6,88.8z"/>
<path class="st1" d="M40.5,87.9c0-0.1,0-0.1,0-0.2c0-0.1,0-0.3,0-0.6c0-0.5,0-1.2,0-2.1c0-1.7-0.2-3.6-0.5-6.3
	c-0.3-2.5-0.7-5.4-1.1-7.3c-0.1-0.4-0.2-0.8-0.3-1.2c-0.1-0.3-0.1-0.6-0.2-0.9L38.2,69c0-0.1,0-0.1,0-0.2c0,0.1,0.1,0.1,0.1,0.2
	c0,0.1,0.1,0.3,0.2,0.5c0.1,0.2,0.2,0.5,0.2,0.9c0.1,0.3,0.2,0.7,0.3,1.2c0.5,2.2,0.9,4.5,1.2,6.8c0.3,2.7,0.4,5.1,0.5,6.8
	c0,0.9,0,1.6,0,2.1c0,0.2,0,0.4,0,0.6C40.5,87.8,40.5,87.9,40.5,87.9z"/>
<path class="st1" d="M40.5,83.3c0-0.2,0-0.4,0-0.6c0-0.5,0.1-1.1,0.2-1.6c0.1-0.8,0.3-1.6,0.6-2.3c0.3-0.9,0.6-1.9,1-2.7
	c0.7-1.6,1.8-3.1,3-4.4c0.2-0.2,0.5-0.4,0.7-0.6c0.1-0.1,0.2-0.2,0.3-0.2l0.3-0.2c0.2-0.1,0.3-0.2,0.5-0.3c0,0-0.8,0.5-1.7,1.5
	c-1.3,1.3-2.3,2.8-3,4.4c-0.4,0.9-0.8,1.8-1,2.7c-0.2,0.8-0.4,1.5-0.6,2.3c-0.1,0.7-0.2,1.2-0.2,1.6C40.5,82.9,40.5,83.1,40.5,83.3z
	"/>
<path class="st1" d="M45.3,91.5l-0.5,6.4H36l-0.5-6.4H45.3z"/>
<path class="st1" d="M34.4,89h11.7v2.5H34.4V89z"/>
<path class="st5" d="M46.1,97.7v0.7h-0.5H34.6v-0.7H46.1z"/>
<path class="st1" d="M45,99.6l0.5-1.2H35.1l0.6,1.2H45z"/>
<path class="st4" d="M35.7,93.6C35.7,93.6,35.7,93.6,35.7,93.6c0.1,0.1,0.1,0.2,0.2,0.2l0.5,0.6l0,0l0,0l1.3-1.6h-0.1l1.2,1.6l0,0.1
	l0,0l1.5-1.6h-0.1l0.1,0.1l1.3,1.5l0,0.1l0-0.1l1.2-1.6h-0.1c0.6,0.7,1.1,1.2,1.5,1.6l0,0l0,0l0.5-0.8l0.1-0.2c0,0,0,0,0-0.1
	c0,0,0,0-0.1,0.1l-0.1,0.2l-0.5,0.7h0L43,92.7l0,0l0,0l-1.2,1.6h0.1l-1.3-1.5l-0.1-0.1l0,0l0,0l-1.5,1.6h0.1l-1.2-1.6l0,0l0,0
	l-1.2,1.6h0l-0.5-0.6L35.7,93.6C35.7,93.6,35.7,93.6,35.7,93.6z"/>
<path class="st4" d="M35.4,91.5c0,0,2.2,0.1,4.9,0.1c2.7,0,4.9,0,4.9-0.1c0,0-2.2-0.1-4.9-0.1C37.6,91.4,35.4,91.4,35.4,91.5z"/>
<path class="st4" d="M34.9,98.4c0,0,2.4,0.1,5.3,0.1c3,0,5.3,0,5.3-0.1c0,0-2.4,0-5.3,0C37.3,98.4,34.9,98.4,34.9,98.4z"/>
<path class="st1" d="M118.3,53.7h12.6V66h-12.6V53.7z"/>
<path class="st2" d="M119.2,53.7h12.6V66h-12.6V53.7z"/>
<path class="st1" d="M119.1,66h12.6V53.7h-12.6V66z M131.7,66h-12.5V53.7h12.5V66z"/>
<path class="st3" d="M120.8,55.4h9.2v9h-9.2V55.4z"/>
<path class="st1" d="M130,64.4c0.1,0.1,0.1,0.2,0.2,0.2c0.1,0.1,0.4,0.3,0.6,0.6c0.2,0.2,0.4,0.4,0.6,0.5c0.1,0.1,0.2,0.1,0.3,0.2
	c-0.1-0.1-0.1-0.2-0.2-0.2c-0.1-0.1-0.4-0.3-0.6-0.6c-0.2-0.2-0.4-0.4-0.6-0.5C130.2,64.5,130.1,64.5,130,64.4z"/>
<path class="st1" d="M120.8,64.4c-0.1,0.1-0.2,0.1-0.3,0.2c-0.2,0.1-0.4,0.3-0.6,0.5c-0.2,0.2-0.4,0.4-0.6,0.6
	c-0.1,0.1-0.2,0.2-0.2,0.2c0.1-0.1,0.2-0.1,0.3-0.2c0.2-0.1,0.4-0.3,0.6-0.5c0.2-0.2,0.4-0.4,0.6-0.6
	C120.7,64.6,120.8,64.5,120.8,64.4z"/>
<path class="st1" d="M120.9,55.4c-0.1-0.1-0.1-0.2-0.2-0.2c-0.1-0.1-0.4-0.3-0.6-0.6c-0.2-0.2-0.4-0.4-0.6-0.5
	c-0.1-0.1-0.2-0.1-0.3-0.2c0.1,0.1,0.1,0.2,0.2,0.2c0.1,0.1,0.4,0.3,0.6,0.6c0.2,0.2,0.4,0.4,0.6,0.5
	C120.7,55.3,120.8,55.4,120.9,55.4z"/>
<path class="st1" d="M130,55.4c0.1-0.1,0.2-0.1,0.3-0.2c0.2-0.1,0.4-0.3,0.6-0.5c0.2-0.2,0.4-0.4,0.6-0.6c0.1-0.1,0.2-0.2,0.2-0.2
	c-0.1,0.1-0.2,0.1-0.3,0.2c-0.2,0.1-0.4,0.3-0.6,0.5c-0.2,0.2-0.4,0.4-0.6,0.6C130.2,55.3,130.1,55.3,130,55.4z"/>
<path class="st1" d="M120.9,64.4C120.9,64.4,120.9,64.3,120.9,64.4c0-0.1,0-0.1,0-0.2c0-0.1,0-0.3,0-0.5c0-0.4,0-1,0-1.8
	c0-1.6,0-3.8,0-6.5l0,0h9.2l0,0c0,3.3,0,6.4,0,9l0,0l-6.6,0h-1.9H121h0.5h1.9l6.7,0h0v0c0-2.6,0-5.7,0-9v0h0h-9.2h0v0
	c0,2.7,0,4.9,0,6.5c0,0.8,0,1.4,0,1.8c0,0.2,0,0.4,0,0.5C120.8,64.2,120.8,64.2,120.9,64.4C120.8,64.3,120.8,64.3,120.9,64.4z"/>
<path class="st1" d="M123.8,59.9c0,0.3,0.1,0.5,0.2,0.8c0.2,0.2,0.4,0.4,0.7,0.5c0.3,0.1,0.6,0.1,0.9,0.1c0.3-0.1,0.5-0.2,0.8-0.4
	c0.2-0.2,0.3-0.4,0.4-0.7c0.1-0.3,0-0.5-0.1-0.8c-0.1-0.3-0.3-0.5-0.5-0.6c-0.2-0.2-0.5-0.2-0.8-0.2c-0.2,0-0.4,0-0.6,0.1
	c-0.2,0.1-0.3,0.2-0.5,0.3c-0.1,0.1-0.2,0.3-0.3,0.4C123.8,59.5,123.8,59.7,123.8,59.9z"/>
<path class="st6" d="M127.1,39.4C127.1,39.4,127.1,39.3,127.1,39.4c0-0.2-0.1-0.3-0.1-0.4c-0.1-0.3-0.1-0.6-0.3-1.1
	c-0.2-0.9-0.6-2.3-1-4l-3.2-13.1l-0.1-0.2l0,0.2l-0.1,0.3c-1.2,5.2-2.4,9.9-3.2,13.3c-0.4,1.7-0.7,3.1-1,4c-0.1,0.5-0.2,0.8-0.3,1.1
	c0,0.1,0,0.2-0.1,0.3c0,0.1,0,0.1,0,0.1s0,0,0-0.1l0.1-0.3c0.1-0.3,0.2-0.6,0.3-1.1c0.2-1,0.6-2.3,1-4c0.8-3.4,2-8.1,3.2-13.3
	l0.1-0.3h-0.1l3.2,13.1l1,4c0.1,0.5,0.2,0.8,0.3,1.1C127,39.1,127,39.2,127.1,39.4C127.1,39.3,127.1,39.4,127.1,39.4z"/>
<path class="st7" d="M127.1,43.3V40h-9.4v3.3c0,0.5,0.1,1,0.3,1.5c0.2,0.5,0.5,0.9,0.9,1.2c0.4,0.4,0.8,0.6,1.3,0.8
	c0.5,0.2,1,0.3,1.6,0.3h1.2c1.1,0,2.1-0.4,2.9-1.1C126.6,45.3,127.1,44.3,127.1,43.3z"/>
<path class="st6" d="M127.1,40c0,0-0.1,0.1-0.1,0.1l-0.3,0.4l-1,1.5l-3.4,5l0,0h0.1c-1.3-2-2.4-3.7-3.3-5l-1-1.5l-0.3-0.4
	c0,0-0.1-0.1-0.1-0.1c0,0.1,0.1,0.1,0.1,0.1l0.3,0.4c0.2,0.4,0.6,0.9,1,1.5c0.8,1.3,2,3.1,3.2,5l0,0.1l0-0.1l0,0l3.3-5l1-1.5
	l0.3-0.4C127,40.1,127,40,127.1,40z"/>
<path class="st6" d="M121.5,20.8c0,0.2,0.1,0.4,0.2,0.5c0.1,0.2,0.3,0.3,0.5,0.4c0.2,0.1,0.4,0.1,0.6,0.1c0.2,0,0.4-0.1,0.5-0.3
	c0.1-0.1,0.2-0.3,0.3-0.5c0-0.2,0-0.4-0.1-0.6c-0.1-0.2-0.2-0.3-0.4-0.4c-0.2-0.1-0.4-0.2-0.6-0.2c-0.1,0-0.3,0-0.4,0.1
	c-0.1,0-0.2,0.1-0.3,0.2s-0.2,0.2-0.2,0.3C121.5,20.6,121.5,20.7,121.5,20.8z"/>
<path class="st6" d="M121.9,47.5c0,0.1,0,0.2,0.1,0.2c0,0.1,0.1,0.1,0.2,0.2c0.1,0,0.2,0,0.3,0c0.1,0,0.2-0.1,0.2-0.1
	c0.1-0.1,0.1-0.1,0.1-0.2c0-0.1,0-0.2,0-0.2c0-0.1-0.1-0.1-0.2-0.2c-0.1,0-0.2-0.1-0.2-0.1c-0.1,0-0.2,0-0.3,0.1
	C122,47.2,121.9,47.4,121.9,47.5z"/>
<path class="st6" d="M122.6,47.6L122.6,47.6c0.1,0,0.2,0.1,0.2,0.3c0.1,0.1,0.1,0.3,0.1,0.4c0,0.3,0,0.6-0.1,0.8
	c0,0.1-0.1,0.2-0.2,0.2c-0.1,0-0.1-0.1-0.1-0.2c0-0.2,0-0.3,0-0.5c0,0.2-0.1,0.4-0.2,0.6c0,0-0.1,0.1-0.1,0.1s-0.1-0.1-0.1-0.1
	c0-0.1-0.1-0.3-0.1-0.4c0,0.1-0.1,0.2-0.1,0.3c0,0,0,0-0.1,0.1c0,0-0.1,0-0.1,0c0,0-0.1,0-0.1,0c0,0-0.1,0-0.1,0c0,0,0-0.1,0-0.1
	c0,0,0-0.1,0-0.1c0.1-0.5,0.3-1,0.6-1.3"/>
<path class="st8" d="M126.5,40c0,0,4.2-4.6,3.7-4.7c-0.5-0.2-4.2,2.4-4.2,2.4s3.2-6.7,2.6-7.2c-0.6-0.5-4,6-4,6s0.5-9.4,0-9.5
	c-0.5-0.1-2.5,9.4-2.5,9.4s-2.9-8.7-3.7-8.7c-0.8,0,0.9,8.4,0.9,8.4s-3.4-5.4-3.9-4.7c-0.5,0.7,2.4,6.5,2.4,6.5s-4.3-3.3-4.4-2.9
	c-0.2,0.4,4.6,5.1,4.6,5.1L126.5,40z"/>
<path class="st6" d="M127.1,33.1c0,0-0.8,1.5-1.7,3.4c-0.9,1.9-1.6,3.4-1.6,3.4s0.8-1.5,1.7-3.4C126.4,34.7,127.1,33.1,127.1,33.1z"
	/>
<path class="st6" d="M123.7,34c0,0-0.2,1.3-0.3,3c-0.1,1.6-0.2,3-0.2,3c0,0,0.2-1.3,0.3-3C123.6,35.3,123.7,34,123.7,34z"/>
<path class="st6" d="M119,29.7c0,0,0,0.1,0,0.1c0,0.1,0.1,0.2,0.1,0.3c0.1,0.3,0.2,0.6,0.4,1.1c0.3,0.9,0.7,2.2,1.1,3.6
	c0.4,1.4,0.7,2.7,1,3.7c0.1,0.5,0.2,0.8,0.3,1.1c0,0.1,0.1,0.2,0.1,0.3c0,0,0,0.1,0,0.1c0,0,0-0.1,0-0.1c0-0.1,0-0.2-0.1-0.3
	c-0.1-0.3-0.1-0.7-0.2-1.1c-0.2-0.9-0.5-2.3-0.9-3.7s-0.8-2.7-1.1-3.6c-0.2-0.5-0.3-0.8-0.4-1.1C119.1,30,119.1,29.9,119,29.7
	C119,29.8,119,29.8,119,29.7z"/>
<path class="st6" d="M116.9,34.6c0,0,0.8,1.2,1.8,2.6c1,1.4,1.9,2.5,1.9,2.5s-0.8-1.2-1.8-2.6C117.8,35.7,117,34.6,116.9,34.6z"/>
<path class="st6" d="M125.1,39.9c0.1-0.1,0.3-0.1,0.4-0.2c0.3-0.2,0.5-0.5,0.8-0.7c0.3-0.2,0.5-0.5,0.7-0.8c0.1-0.1,0.2-0.2,0.3-0.4
	c0,0-0.5,0.5-1.1,1C125.6,39.4,125,39.9,125.1,39.9z"/>
<path class="st6" d="M122.5,38.1c-0.1,0.3-0.1,0.6-0.1,0.9c0,0.3-0.1,0.6,0,0.9c0.1-0.3,0.1-0.6,0.1-0.9
	C122.5,38.7,122.5,38.4,122.5,38.1z"/>
<path class="st3" d="M117.7,42c0.1,0,0.2,0.1,0.4,0.1c0.2,0,0.6,0.1,1,0.1c1.1,0.1,2.2,0.2,3.3,0.3c1.1,0,2.2,0,3.3-0.1
	c0.4-0.1,0.8-0.1,1-0.1c0.1,0,0.2,0,0.4-0.1c-0.1,0-0.2,0-0.4,0c-0.2,0-0.6,0.1-1,0.1c-1.1,0.1-2.2,0.1-3.3,0.1
	c-1.3,0-2.5-0.2-3.3-0.2l-1-0.1C117.9,42,117.8,42,117.7,42z"/>
<path class="st3" d="M117.7,43c0.1,0,0.2,0.1,0.4,0.1c0.2,0,0.6,0.1,1,0.1c0.8,0.1,2,0.2,3.3,0.3c1.1,0,2.2,0,3.3-0.1
	c0.4-0.1,0.8-0.1,1-0.1c0.1,0,0.2,0,0.4-0.1c-0.1,0-0.2,0-0.4,0c-0.2,0-0.6,0.1-1,0.1c-1.1,0.1-2.2,0.1-3.3,0.1
	c-1.3,0-2.5-0.2-3.3-0.2l-1-0.1C117.9,43,117.8,43,117.7,43z"/>
<path class="st2" d="M52.8,19.7c1.4,0,2.7,0.3,3.9,1c1.2,0.7,2.2,1.6,2.8,2.7c0.7,1.1,1,2.4,0.9,3.7c-0.1,1.3-0.5,2.5-1.2,3.6
	l1.1,2.6l-2.9-0.8c-1,0.7-2.1,1.1-3.3,1.3s-2.4,0.1-3.6-0.2c-1.2-0.3-2.2-0.9-3.1-1.7c-0.9-0.8-1.5-1.8-1.9-2.8
	c-0.4-1.1-0.5-2.2-0.3-3.3c0.2-1.1,0.6-2.2,1.4-3.1c0.7-0.9,1.6-1.7,2.7-2.2C50.4,20,51.6,19.7,52.8,19.7L52.8,19.7z"/>
<path class="st8" d="M50.9,28.1h1.1c0,0.1,0,0.2,0.1,0.3c0,0.1,0.1,0.2,0.2,0.3c0.1,0.1,0.2,0.1,0.3,0.2c0.1,0,0.2,0.1,0.4,0.1
	c0.2,0,0.4,0,0.5-0.1c0.1-0.1,0.3-0.2,0.3-0.4c0.1-0.1,0.1-0.3,0.1-0.4c0-0.1-0.1-0.3-0.1-0.4c-0.2-0.3-0.6-0.5-1.3-0.4V25h1v1.3
	c0.4,0.1,0.8,0.4,1.1,0.7c0.3,0.3,0.4,0.7,0.4,1.2c0,1.4-1.4,1.8-2,1.8C52.4,30,50.9,29.9,50.9,28.1z"/>
<path class="st8" d="M53.4,24.6h-1.1v-0.9h1.1V24.6z"/>
<path class="st6" d="M45.1,26.8c0,0,0-0.1,0-0.1c0-0.1,0-0.2,0-0.4c0-0.1,0-0.2,0-0.3c0-0.1,0-0.2,0-0.3c0-0.1,0-0.2,0.1-0.4
	c0-0.1,0.1-0.3,0.1-0.4c0.2-0.7,0.5-1.4,1-2c0.6-0.9,1.5-1.7,2.5-2.3c1-0.6,2.1-0.9,3.3-1c0.4,0,0.7,0,1.1,0c0.2,0,0.4,0,0.5,0
	l0.5,0.1c0.7,0.1,1.5,0.4,2.1,0.7c1.5,0.7,2.7,1.8,3.4,3.2c0.4,0.7,0.7,1.5,0.8,2.3c0,0.2,0.1,0.4,0.1,0.6c0,0.2,0,0.4,0,0.6
	c0,0.4-0.1,0.8-0.2,1.2c-0.2,0.9-0.6,1.7-1.1,2.5v-0.1c0.4,0.9,0.7,1.7,1.1,2.5l0.1,0.1l-0.2,0l-2.9-0.7l0.1,0
	c-1,0.7-2.1,1.2-3.3,1.4c-0.6,0.1-1.1,0.1-1.7,0.1c-0.3,0-0.5,0-0.8-0.1L51.3,34c-0.1,0-0.3-0.1-0.4-0.1c-1.8-0.4-3.3-1.4-4.4-2.8
	c-0.4-0.5-0.7-1.1-0.9-1.7L45.4,29c0-0.1-0.1-0.2-0.1-0.4l-0.1-0.3c0-0.1,0-0.2,0-0.3c0-0.2-0.1-0.4-0.1-0.5c0-0.1,0-0.3,0-0.4
	C45.1,27,45.1,27,45.1,26.8C45.1,26.9,45.1,26.9,45.1,26.8C45.1,26.9,45.1,26.9,45.1,26.8c0,0.1,0,0.2,0,0.3c0,0.1,0,0.2,0,0.4
	c0,0.1,0.1,0.3,0.1,0.5c0.3,1.4,0.9,2.7,1.9,3.7c1,1,2.3,1.7,3.8,2.1c0.1,0,0.2,0.1,0.4,0.1l0.4,0.1c0.3,0,0.5,0.1,0.8,0.1
	c0.6,0,1.1,0,1.7-0.1c1.2-0.2,2.3-0.7,3.2-1.3l0,0h0l2.9,0.7l-0.1,0.1l-1.1-2.5l0,0l0,0c0.8-1.1,1.2-2.4,1.3-3.7c0-0.2,0-0.4,0-0.6
	c0-0.2,0-0.4-0.1-0.6c-0.1-0.8-0.4-1.6-0.7-2.3c-0.4-0.7-0.8-1.3-1.4-1.9c-0.6-0.5-1.2-0.9-1.9-1.3c-0.7-0.3-1.4-0.6-2.1-0.7
	l-0.5-0.1c-0.2,0-0.4,0-0.5,0c-0.3,0-0.7,0-1,0c-1.2,0.1-2.3,0.4-3.3,1c-1,0.6-1.8,1.3-2.5,2.2c-0.4,0.6-0.8,1.3-1,2
	c0,0.1-0.1,0.3-0.1,0.4c0,0.1,0,0.3-0.1,0.4c0,0.1,0,0.2-0.1,0.3c0,0.1,0,0.2,0,0.3c0,0.2,0,0.3,0,0.4
	C45.1,26.7,45.1,26.8,45.1,26.8z"/>
<path class="st6" d="M83.4,67c0.1,0.4,0.7,18.5-2.9,32.8l-17.8,0c-0.2-9.8-4.2-24.9,1.5-33.3L83.4,67z"/>
<path class="st6" d="M65.5,32.5c-0.6,2-1.5,3.6-2.3,4.4c-0.9,0.8-1.8,1.8-1.8,2.9c0,0.4,0.2,0.9,0,1.3c-0.3,0.5-1,0.6-1.5,0.9
	c-0.4,0.2-0.7,0.6-0.9,0.9c-0.2,0.4-0.3,0.8-0.3,1.3c0.1,0.9,0.5,1.7,1.1,2.3c0.7,0.6,1.7,1.1,2.6,0.6c0.5-0.3,0.8-0.8,1.1-1.3
	c1.3-2.5,2.5-5.1,3.6-7.7"/>
<path class="st6" d="M70.9,23.9c0.7-0.8,1.7-1.3,2.8-1.6c1.1-0.2,2.2-0.2,3.3,0.2c1,0.4,1.9,1.1,2.6,1.9c0.6,0.9,1,1.9,0.9,2.9
	c0,1.3-0.6,2.7,0,4c0.4,0.9,1.3,1.5,1.5,2.5c0.1,1.1-0.9,2.1-0.8,3.2c0,0.7,0.5,1.4,1.1,1.9c0.6,0.5,1.2,0.9,1.7,1.5
	c1.4,1.5,1.5,3.9,0.4,5.6c-1.1,1.7-3.1,2.8-5.2,3.1c-2.1,0.2-4.3-0.3-6.2-1.3c-1.2-0.6-2.4-1.4-3.1-2.6c-0.7-1.1-1-2.6-0.4-3.7"/>
<path class="st7" d="M77.6,23.1c-0.3,0-0.6,0-0.9,0c-0.8,0.1-1.5,0.3-2.2,0.6c-0.7,0.3-1.5,0.4-2.3,0.4c-0.2,0-0.5,0-0.7-0.1
	c-0.1,0-0.2-0.1-0.2-0.1c0.3,0.1,0.6,0.1,0.9,0.1c0.8,0,1.5-0.1,2.2-0.4c0.7-0.3,1.5-0.4,2.2-0.6c0.2,0,0.5,0,0.7,0
	C77.4,23.1,77.5,23.1,77.6,23.1z"/>
<path class="st8" d="M59.7,47.9c0-0.3,0.1-0.5,0.1-0.8c0.2-1,0.7-2,1.5-2.8c0.7-0.8,1.6-1.4,2.7-1.8l5.4-2.1l6.1,0.1
	c0,0,4.6,1.9,5.5,3c0.1,0.1,0.7,0.6,0.7,0.9l4.6,12.8l5.9,3.4l-1.6,1.9l-8.7-0.8l-1.1-1.6c0.6,1.2,2.9,6.1,2.9,7.6
	c0,0-13.4,2.7-18.8,2.2c-2.3-0.2-2.9-0.4-2.9-0.4l1.6-5.5c-1.3-0.1-2.6-0.8-3.2-1.9C59.4,60.3,59.5,50.3,59.7,47.9z"/>
<path class="st1" d="M101.5,49.8h0.9L101.2,61l-10.9-0.7l1.2-9.6L101.5,49.8z"/>
<path class="st2" d="M101.5,49.2l-1,11.4L79,59.9l2.7-10.7l9.7,0.9L101.5,49.2z"/>
<path class="st6" d="M101.5,49.2l-0.2,0l-0.5,0l-2,0.2l-7.5,0.6l-9.7-0.9h0v0c-0.8,3.3-1.7,6.9-2.7,10.7l0,0.1H79l1,0l20.5,0.6h0v0
	c0.3-3.5,0.5-6.3,0.7-8.3c0.1-1,0.1-1.7,0.2-2.3c0-0.3,0-0.5,0-0.6C101.5,49.3,101.5,49.2,101.5,49.2c0,0,0,0.1,0,0.2
	c0,0.1,0,0.3-0.1,0.6c0,0.5-0.1,1.3-0.2,2.3c-0.2,2-0.4,4.8-0.7,8.3l0,0L80,59.9l-1,0L79,60c0.9-3.8,1.8-7.4,2.7-10.7l-0.1,0
	l9.7,0.9l7.4-0.7l2-0.2l0.5,0L101.5,49.2z"/>
<path class="st6" d="M89.6,60.1C89.6,60.1,89.6,60.1,89.6,60.1c0.1-0.2,0.1-0.3,0.1-0.4c0.1-0.2,0.2-0.6,0.3-1
	c0.2-0.9,0.5-2.1,0.7-3.5c0.2-1.4,0.4-2.6,0.5-3.5c0.1-0.5,0.1-0.8,0.1-1.1c0-0.1,0-0.2,0-0.3c0,0,0-0.1,0-0.1c0,0,0,0.1,0,0.1
	c0,0.1,0,0.2,0,0.3c0,0.3-0.1,0.6-0.2,1.1c-0.1,0.9-0.3,2.1-0.6,3.5c-0.2,1.4-0.5,2.6-0.7,3.5c-0.1,0.4-0.2,0.8-0.2,1.1
	C89.6,59.9,89.6,59.9,89.6,60.1C89.6,60.1,89.6,60.1,89.6,60.1z"/>
<path class="st8" d="M95.2,53.1l-0.2,4l1,0l0.2-3.2l0.8,0l0-0.7L95.2,53.1z"/>
<path class="st8" d="M83.6,55.9l-0.1,0.7l3.2,0.3l0.1-0.6l-1.5-1.6c-0.3-0.4-0.4-0.6-0.4-0.8c0-0.3,0.3-0.5,0.7-0.4
	c0.2,0,0.3,0.1,0.5,0.1c0.1,0.1,0.3,0.2,0.4,0.3l0.8-0.4c-0.2-0.3-0.4-0.5-0.7-0.6c-0.3-0.2-0.6-0.2-0.9-0.3c-0.9-0.1-1.6,0.3-1.7,1
	c0,0.4,0,0.7,0.6,1.3l0.9,0.9L83.6,55.9z"/>
<path class="st9" d="M92.6,62.8l2-1.4l-0.1-3.1c-0.2,0-0.4,0.2-0.6,0.3c-0.2,0.2-0.3,0.4-0.3,0.6c-0.1,0.7-0.2,1.4-0.2,1.4l-0.6,0.2
	l0.1-0.4l-1.5-2c0,0-0.6,0.4-0.3,0.9c-0.3-0.3-0.7,0-0.7,0.2l-0.1-0.6c0,0-0.7-0.2-0.7,0.5c0,0.3,0,0.5,0.1,0.8h-2.4
	c0,0,0.7,1.1,1.1,1.4c0.4,0.3,4.1,1.2,4.1,1.2"/>
<path class="st10" d="M92.4,62.2c0.3-0.5,0.5-1.2,0.5-1.8c0,0-0.1,0.4-0.2,0.9C92.5,61.8,92.4,62.2,92.4,62.2z"/>
<path class="st10" d="M91.6,61.7c0.1-0.4,0.2-0.8,0.2-1.2v0v0l0-0.1c-0.2-0.4-0.5-0.8-0.7-1.1c0.2,0.4,0.4,0.8,0.6,1.2l0,0.1v0
	C91.6,60.9,91.6,61.3,91.6,61.7z"/>
<path class="st10" d="M90.6,61.4c0.1-0.2,0.1-0.5,0.1-0.7v0c0-0.1-0.1-0.2-0.1-0.4c-0.1-0.4-0.2-0.7-0.3-1.1c0,0.4,0.1,0.7,0.2,1.1
	l0.1,0.4v0C90.5,60.9,90.6,61.1,90.6,61.4z"/>
<path class="st9" d="M68.2,25.6v1l-0.2,15.3c0,1.8,1.6,3.2,3.6,3.2c2,0,3.8-1.4,3.8-3.2c0.1-1.9,0.2-3.9,0.2-3.9s2.6-0.3,3.2-3.5
	C79,33,79,30.4,79,28.3c0-0.5-0.1-0.9-0.3-1.3c-0.2-0.4-0.5-0.8-0.9-1.1c-0.4-0.3-0.8-0.5-1.2-0.7c-0.5-0.1-0.9-0.2-1.4-0.2
	L68.2,25.6z"/>
<path class="st6" d="M77.7,30.6c0,0.1-0.1,0.2-0.1,0.3C77.5,31,77.4,31,77.2,31c-0.1,0-0.1,0-0.2,0s-0.1,0-0.1-0.1
	c0,0-0.1-0.1-0.1-0.1c0,0,0-0.1,0-0.2c0-0.1,0.1-0.2,0.1-0.3c0.1-0.1,0.2-0.1,0.3-0.1c0.1,0,0.1,0,0.2,0c0.1,0,0.1,0,0.1,0.1
	c0,0,0.1,0.1,0.1,0.1C77.7,30.5,77.7,30.6,77.7,30.6z"/>
<path class="st6" d="M78.3,29.7c-0.1,0-0.4-0.2-0.8-0.2c-0.5,0-0.8,0.2-0.9,0.1c0-0.1,0-0.1,0.2-0.2c0.2-0.1,0.4-0.2,0.7-0.2
	c0.2,0,0.5,0.1,0.7,0.2C78.3,29.5,78.3,29.6,78.3,29.7z"/>
<path class="st6" d="M73.1,30.6c0,0.1-0.1,0.2-0.1,0.3C72.9,31,72.8,31,72.7,31c-0.1,0-0.1,0-0.2,0s-0.1,0-0.1-0.1
	c0,0-0.1-0.1-0.1-0.1c0,0,0-0.1,0-0.2c0-0.1,0.1-0.2,0.1-0.3c0.1-0.1,0.2-0.1,0.3-0.1c0.1,0,0.1,0,0.2,0s0.1,0,0.1,0.1
	c0,0,0.1,0.1,0.1,0.1C73.1,30.5,73.1,30.6,73.1,30.6z"/>
<path class="st6" d="M73.7,29.6c-0.1,0.1-0.4-0.2-0.8-0.2c-0.5,0-0.8,0.2-0.9,0.1c0-0.1,0-0.1,0.2-0.2c0.2-0.1,0.4-0.2,0.7-0.2
	c0.2,0,0.5,0.1,0.7,0.2C73.7,29.5,73.8,29.6,73.7,29.6z"/>
<path class="st6" d="M75.3,32.9c0.2-0.1,0.5-0.1,0.8-0.1c0.1,0,0.2,0,0.3-0.1c0-0.1,0-0.2-0.1-0.3l-0.3-0.9
	c-0.4-1.2-0.8-2.2-0.7-2.2c0.1,0,0.5,1,0.9,2.2l0.3,0.9c0.1,0.1,0.1,0.3,0,0.4c0,0,0,0.1-0.1,0.1c0,0-0.1,0-0.1,0.1
	c-0.1,0-0.1,0-0.2,0C75.8,32.9,75.6,32.9,75.3,32.9z"/>
<path class="st10" d="M75.5,38.1c-1.6,0-3.1-0.5-4.5-1.2c0,0,1,2.2,4.4,2L75.5,38.1z"/>
<path class="st10" d="M75.1,33.9c-0.1-0.1-0.2-0.2-0.3-0.2c-0.1-0.1-0.3-0.1-0.4-0.1c-0.1,0-0.2,0-0.3,0.1s-0.2,0.1-0.2,0.2
	c-0.1,0.1-0.1,0.2-0.1,0.3c0,0.1,0,0.2,0.1,0.3c0.1,0.1,0.2,0.1,0.3,0.2c0.1,0,0.2,0,0.3,0c0.2-0.1,0.4-0.2,0.6-0.3
	c0.1,0,0.1-0.1,0.1-0.1C75.1,34.1,75.1,34.1,75.1,33.9C75.1,34,75.1,34,75.1,33.9"/>
<path class="st6" d="M73.9,33.2c0.1,0,0.1,0.5,0.5,0.8c0.4,0.3,1,0.3,1,0.4c0,0-0.1,0.1-0.4,0.1c-0.3,0-0.6-0.1-0.8-0.3
	c-0.2-0.2-0.3-0.4-0.4-0.7C73.8,33.3,73.9,33.2,73.9,33.2z"/>
<path class="st6" d="M73.9,27.9c0,0.1-0.5,0-1.1,0.1c-0.5,0-1,0.2-1.1,0.1c0-0.1,0.1-0.2,0.2-0.3c0.2-0.1,0.5-0.2,0.8-0.2
	c0.3,0,0.6,0,0.8,0.1C73.8,27.8,73.9,27.9,73.9,27.9z"/>
<path class="st6" d="M78.2,28.4c-0.1,0.1-0.4,0-0.8,0c-0.4,0-0.7,0-0.8-0.1c0,0,0-0.1,0.2-0.2c0.2-0.1,0.4-0.2,0.6-0.1
	c0.2,0,0.4,0.1,0.6,0.2C78.2,28.2,78.2,28.3,78.2,28.4z"/>
<path class="st6" d="M72.4,24.6c0.9,1.1,0,2.7-1.1,3.7c-1,1-2.3,2.2-2,3.6c0.3,1.6,2.7,2.6,2.3,4.2c-0.1,0.6-0.6,1.1-0.6,1.7
	c0,1.1,1.5,1.6,1.9,2.6c0.6,1.4-1,2.7-1,4.2c0,0.8,0.5,1.6,0.5,2.4c0.1,1.7-2.1,3-3.9,2.5c-1.8-0.4-3-2-3.4-3.7
	c-0.4-1.7,0.2-4,0.5-5.7l-3.1,0.7c-0.6-0.5,0.2-1.1,0.3-1.8c0.3-1.8,1.6-3.4,2.2-5.1c0.5-1.5,0.5-3.2,0.8-4.8
	c0.2-1.6,0.8-3.3,2.1-4.3s3.6-1.2,4.6,0.1"/>
<path class="st9" d="M70.4,53.9l0.9-1.2l-1.3-2.6l-0.4-6.2c0,0,0.9-0.2,1,0.7c0.1,0.6,0.1,1.1,0.1,1.1l1-0.3l1.5,0.4
	c0,0-0.1,0.7-0.7,0.6c-0.4-0.1-0.7-0.1-1.1-0.1L71,47.1v0.3l0.8-0.5h1.5l0.9,0.7c0,0-0.3,0.7-0.8,0.5c0,0,0.8,2,0.9,2.4
	c0,0,0.8,2,0,3.1c-0.6,0.8-1.2,1.5-1.9,2.1L70.4,53.9z"/>
<path class="st10" d="M70,47.9C70,47.8,70,47.7,70,47.5c0.1-0.3,0.2-0.5,0.3-0.7c0.2-0.3,0.3-0.7,0.4-1.1c-0.2,0.3-0.4,0.7-0.6,1
	C70.1,46.9,70,47,70,47.2c-0.1,0.1-0.1,0.2-0.1,0.4C69.9,47.6,69.9,47.7,70,47.9C70,47.8,70,47.9,70,47.9z"/>
<path class="st10" d="M70.4,47.7c0.2-0.1,0.5-0.2,0.7-0.4c0.4-0.2,0.6-0.5,0.6-0.5c-0.2,0.1-0.5,0.2-0.7,0.4
	C70.8,47.4,70.6,47.5,70.4,47.7z"/>
<path class="st10" d="M71.1,48.9c0.1-0.1,0.2-0.2,0.3-0.3c0.1-0.1,0.2-0.3,0.2-0.4c0-0.1,0.1-0.2,0.1-0.3c0,0,0,0,0,0c0,0,0,0,0,0
	c0,0,0.1,0,0.1,0c0.3,0,0.6-0.1,0.8-0.1h0c0.1,0,0.2,0.1,0.2,0.2c0.1,0.1,0.1,0.1,0.2,0.2c0.1,0.1,0.2,0.1,0.2,0.1
	c0,0-0.1,0-0.1-0.1L73,47.8c-0.1-0.1-0.2-0.2-0.2-0.2h0c-0.3,0-0.5,0.1-0.8,0.1c-0.1,0-0.1,0-0.2,0c0,0-0.1,0-0.1,0.1
	c0,0,0,0.1,0,0.1c0,0.1-0.1,0.2-0.1,0.3c-0.1,0.1-0.1,0.3-0.2,0.4C71.2,48.7,71.1,48.9,71.1,48.9z"/>
<path class="st10" d="M72.5,49c0-0.2,0-0.5-0.1-0.7c0-0.2-0.1-0.5-0.2-0.7c0,0.2,0,0.5,0.1,0.7C72.3,48.6,72.4,48.8,72.5,49z"/>
<path class="st10" d="M71.4,50.2c0-0.1,0-0.1,0-0.2c0-0.1,0.1-0.1,0.2-0.2c0.1,0,0.2,0,0.3,0c0.1,0,0.3,0.1,0.4,0.2
	c0.1,0.1,0.3,0.2,0.4,0.2c0.1,0,0.2,0,0.3,0c0.1,0,0.2-0.1,0.2-0.2c0,0,0-0.1,0.1-0.1c0-0.1,0-0.1,0-0.2c0-0.1-0.1-0.2-0.2-0.3
	c-0.2-0.3-0.5-0.5-0.8-0.7c-0.1-0.1-0.3-0.2-0.5-0.2c-0.2,0-0.3,0-0.4,0.1c-0.2,0.1-0.3,0.2-0.4,0.4c0,0.1-0.1,0.1-0.1,0.2
	c0.1,0,0.1-0.1,0.1-0.2c0.1-0.2,0.3-0.3,0.4-0.4c0.1-0.1,0.3-0.1,0.4-0.1c0.2,0,0.3,0.1,0.4,0.2c0.3,0.2,0.6,0.5,0.8,0.7
	c0.1,0.1,0.2,0.3,0.1,0.4c-0.1,0.1-0.1,0.1-0.2,0.1c-0.1,0-0.2,0-0.2,0c-0.3-0.1-0.5-0.3-0.8-0.4c-0.1,0-0.3,0-0.4,0
	c-0.1,0-0.2,0.1-0.2,0.2C71.3,50.1,71.4,50.2,71.4,50.2z"/>
<path class="st6" d="M61.6,63.2c0.1,0.1,0.1,0.1,0.2,0.2c0.2,0.2,0.4,0.3,0.7,0.4C63,64,63.4,64,63.9,64c0.6,0,1.2-0.1,1.7-0.3
	c0.7-0.3,1.3-0.6,1.8-1.1c0.6-0.5,1.2-1,1.9-1.5c0.7-0.6,1.3-1.2,1.9-1.8c0.6-0.7,1.1-1.5,1.6-2.3c0.1-0.2,0.2-0.3,0.3-0.5l0,0l0,0
	l-3.4-3.3l0,0l0,0c-2.2,1.3-4.1,2.4-5.4,3.2l-1.6,0.9l-0.4,0.2l-0.1,0.1l0,0c0,0,0,0,0,0l0.1-0.1l0.4-0.2c0.4-0.2,0.9-0.5,1.6-0.9
	c1.3-0.8,3.2-1.9,5.4-3.2h-0.1l3.4,3.3v-0.1c-0.1,0.2-0.2,0.3-0.3,0.5c-0.5,0.8-1,1.5-1.6,2.3c-0.6,0.7-1.2,1.3-1.9,1.8
	c-1.3,1.1-2.4,2.1-3.6,2.6C65,63.8,64.4,64,63.8,64c-0.4,0-0.9-0.1-1.3-0.2c-0.3-0.1-0.5-0.2-0.7-0.4C61.7,63.2,61.6,63.1,61.6,63.2
	z"/>
<path class="st6" d="M65.3,50c0,0.1,0,0.1,0,0.2c0,0.2,0,0.4,0,0.6c0,0.5,0,1.2,0.1,2c0,0.8,0.1,1.5,0.1,2l0,0.6c0,0.1,0,0.1,0,0.2
	c0-0.1,0-0.1,0-0.2c0-0.1,0-0.3,0-0.6c0-0.5,0-1.2-0.1-2c0-0.8-0.1-1.5-0.1-2C65.4,50.5,65.4,50.2,65.3,50z"/>
<path class="st6" d="M62.5,44.5c0,0,0.2,0.1,0.6,0.3c0.2,0.1,0.4,0.2,0.6,0.4c0.4,0.4,0.8,0.8,1.1,1.3c0.1,0.2,0.2,0.4,0.2,0.6
	c0.1,0.4,0.1,0.6,0.1,0.6c0-0.1,0-0.1,0-0.2c0-0.2,0-0.3-0.1-0.5c0-0.2-0.1-0.4-0.2-0.7c-0.2-0.5-0.6-1-1.1-1.3
	c-0.2-0.1-0.4-0.3-0.6-0.4c-0.1-0.1-0.3-0.1-0.5-0.2C62.6,44.5,62.5,44.5,62.5,44.5z"/>
<path class="st6" d="M79.8,56.1c0.1-0.1,0.1-0.2,0.2-0.3c0.1-0.2,0.2-0.5,0.4-0.9c0.3-0.8,0.7-1.9,0.7-3.2c0-0.3,0-0.6-0.1-0.9
	c-0.1-0.3-0.1-0.6-0.2-0.8c-0.2-0.5-0.3-1-0.4-1.4c-0.1-0.3-0.1-0.6-0.1-1c0-0.2,0-0.4,0-0.4c0,0,0,0.1,0,0.1c0,0.1,0,0.2,0,0.3
	c0,0.3,0,0.7,0,1c0.1,0.4,0.2,0.9,0.4,1.4c0.1,0.3,0.2,0.5,0.2,0.8c0.1,0.3,0.1,0.6,0.1,0.9c0,1.3-0.4,2.4-0.7,3.2
	c-0.1,0.4-0.3,0.7-0.3,0.9C79.9,55.8,79.8,56,79.8,56.1z"/>
<path class="st6" d="M68.9,64.5C69,64.6,69,64.6,68.9,64.5l0.4,0.1c0.3,0.1,0.6,0.2,1.1,0.3c0.5,0.1,1,0.2,1.6,0.3
	c0.6,0.1,1.3,0.2,2,0.2s1.4,0,2.1,0s1.2-0.1,1.7-0.1c0.5-0.1,0.9-0.1,1.1-0.2l0.3-0.1c0,0,0.1,0,0.1,0c0,0-0.1,0-0.1,0l-0.3,0
	c-0.3,0-0.6,0.1-1.1,0.1c-0.5,0-1,0.1-1.7,0.1c-0.6,0-1.3,0-2,0c-0.7,0-1.4-0.1-2-0.2c-0.6-0.1-1.2-0.2-1.6-0.3
	c-0.5-0.1-0.8-0.2-1.1-0.3L69,64.5C69,64.5,69,64.5,68.9,64.5z"/>
<path class="st6" d="M80.6,59.9c0,0.1,0,0.2,0.1,0.3c0.1,0.2,0.2,0.5,0.3,0.8c0.3,0.7,0.7,1.7,1.1,2.8c0.4,1.1,0.8,2.1,1,2.8
	l0.3,0.9c0,0.1,0.1,0.2,0.1,0.3c0-0.1,0-0.2-0.1-0.3c-0.1-0.2-0.1-0.5-0.3-0.9c-0.2-0.7-0.6-1.7-1-2.8c-0.4-1.1-0.8-2.1-1.2-2.8
	l-0.4-0.8C80.6,60,80.6,59.9,80.6,59.9z"/>
<path class="st7" d="M65.1,99.8C65.1,99.8,65.1,99.7,65.1,99.8c0-0.1,0-0.2,0-0.3c0-0.2,0-0.5,0-0.9c0-0.7,0-1.8,0-3.2
	c0-2.7,0-6.4,0-10.5c0-4.1,0.2-7.8,0.4-10.4c0.1-0.7,0.1-1.3,0.2-1.8c0-0.3,0.1-0.5,0.1-0.7c0-0.1,0-0.2,0-0.3c0-0.1,0-0.2,0.1-0.3
	c0.1-0.4,0.1-0.6,0.2-0.9c0-0.1,0-0.2,0-0.2c0,0,0-0.1,0-0.1c0,0,0,0,0,0.1l0,0.2c0,0.2-0.1,0.5-0.2,0.8c0,0.1,0,0.2-0.1,0.3
	c0,0.1,0,0.2,0,0.3c0,0.2-0.1,0.5-0.1,0.7c-0.1,0.5-0.1,1.1-0.2,1.8C65.2,77.2,65,80.9,65,85c0,4.1,0,7.8,0,10.5c0,1.3,0,2.4,0,3.2
	v0.9C65,99.6,65,99.7,65.1,99.8C65,99.7,65,99.8,65.1,99.8z"/>
<path class="st6" d="M67.5,25.3c0-0.3,0-0.5-0.2-0.8c-0.1-0.2-0.4-0.4-0.6-0.5c-0.3-0.1-0.6-0.2-0.9-0.1s-0.6,0.1-0.8,0.2
	c-0.3,0.2-0.6,0.4-0.8,0.7c-0.2,0.3-0.3,0.6-0.4,1c0,0.3,0,0.7,0.1,1c0.1,0.3,0.3,0.6,0.6,0.8c0.3,0.3,0.7,0.4,1.1,0.4
	c0.4,0,0.7-0.2,1-0.3c0.3-0.1,0.7-0.2,1.1-0.1"/>
<path class="st8" d="M66,28c0.2-0.5,0.4-1.1,0.6-1.5c0.3-0.5,0.6-0.9,1-1.3c-0.1,0.1-0.3,0.2-0.4,0.3c-0.6,0.6-1,1.3-1.2,2.1
	C66,27.7,66,27.8,66,28z"/>
<path class="st7" d="M66.6,26.7c0.1,0.1,0.2,0.1,0.2,0.2c0.2,0.1,0.5,0.2,0.7,0.3c0.8,0.3,1.7,0.3,2.6,0.2c0.5-0.1,1-0.2,1.4-0.4
	c0.4-0.2,0.7-0.4,0.9-0.7c0.2-0.2,0.2-0.5,0.2-0.7c0-0.1,0-0.1,0-0.2c0,0,0-0.1,0-0.1c0,0,0,0.1,0,0.3c0,0.2-0.1,0.5-0.3,0.7
	c-0.4,0.5-1.3,0.9-2.3,1.1c-0.9,0.1-1.8,0.1-2.6-0.2C67.2,27,66.9,26.8,66.6,26.7z"/>
<path class="st7" d="M66.3,27.8c0,0,0,0.1,0.1,0.1c0.1,0.1,0.2,0.2,0.3,0.3c0.8,0.7,1.8,1,2.9,1c0.2,0,0.3,0,0.5,0
	c0.1,0,0.2,0,0.2,0c0,0-0.2,0-0.6,0c-0.5,0-1-0.1-1.5-0.3c-0.5-0.2-0.9-0.4-1.3-0.7C66.5,28,66.4,27.8,66.3,27.8z"/>
<path class="st7" d="M64.2,25.5c0,0.1,0,0.3,0,0.4c0.1,0.3,0.3,0.6,0.6,0.8c0.3,0.2,0.7,0.2,1,0.2c0.1,0,0.3-0.1,0.4-0.1
	c0,0-0.2,0-0.4,0.1c-0.3,0-0.7,0-0.9-0.2c-0.3-0.2-0.5-0.4-0.6-0.7C64.3,25.7,64.3,25.5,64.2,25.5z"/>
<path class="st7" d="M40.6,92.2h83.5l0.2,2.5h-16.2v5.2h-1.6v-5.2H47.2v5.2h-1.6v-5.2h-5V92.2z"/>
<path class="st9" d="M58,73c0-0.1,1.7-7.2,1.8-7.8l-1.4-2c0,0-0.5-0.5-0.4-0.7c0.2-0.2,0.4-0.2,0.8,0c0.2,0.1,1.2,0.6,1.2,0.6
	s0.4-2.9,0.5-3.1c0.1-0.2,0.3-0.3,0.4-0.2C61.1,60.1,61,62,61,62s0.8-2.4,1-2.5c0,0,0.1,0,0.1,0c0,0,0.1,0,0.1,0c0,0,0.1,0,0.1,0.1
	c0,0,0.1,0.1,0.1,0.1c0,0.1-0.6,2.7-0.6,2.7s1.3-2.4,1.6-2.3c0.1,0,0.2,0.1,0.2,0.1c0.1,0.1,0.1,0.1,0.1,0.2c0,0.2-0.9,2.7-0.9,2.7
	s1-1.8,1.2-1.8c0.1,0,0.2,0.1,0.2,0.2c0,0.1,0.1,0.2,0,0.3c0,0.2-1.3,3.8-1.5,4.4l-0.5,8.5l-3.7,7.4l-3.3-4.3
	C55.4,77.9,58,73.2,58,73z"/>
<path class="st9" d="M53.3,75.2c0,0,0.4,6-0.4,7c-0.9,0.9-2.6,0.7-2.6,0.7l-1.1-5.1L53.3,75.2z"/>
<path class="st8" d="M55.2,77.9l-1.7,2.2l-3.8,1.9l-8.6,4.2c-0.4,0.2-0.8,0.6-1,1c-0.2,0.4-0.2,0.9-0.1,1.4l0.3,0.9l3.2,7.5l-0.2,3
	l17.1,0c0,0-3.9-11.7-4-12.5c-0.1-0.7,0.6-1.7,0.6-1.7s2.2-1.5,2.2-1.6C59.5,83.9,59.2,78.2,55.2,77.9z"/>
<path class="st6" d="M55.6,90.3c0,0,0-0.3,0-0.7c0-0.3,0.1-0.5,0.1-0.8c0.1-0.3,0.2-0.6,0.3-0.9c0.2-0.6,0.5-1.1,0.9-1.6
	c0.3-0.4,0.4-0.6,0.4-0.6c-0.1,0-0.1,0.1-0.1,0.1c-0.1,0.1-0.2,0.3-0.3,0.4c-0.4,0.5-0.7,1-0.9,1.6c-0.1,0.3-0.2,0.6-0.3,1
	c-0.1,0.3-0.1,0.5-0.1,0.8c0,0.1,0,0.2,0,0.3c0,0.1,0,0.2,0,0.2C55.6,90.2,55.6,90.3,55.6,90.3z"/>
<path class="st6" d="M45.9,96.1c0.1,0,0.2,0.1,0.3,0.1c0.2,0.1,0.5,0.2,0.9,0.3c0.8,0.2,1.9,0.5,3,0.8c1.2,0.3,2.3,0.6,3.1,0.7
	c0.4,0.1,0.7,0.2,0.9,0.2c0.1,0,0.2,0,0.3,0.1c-0.1,0-0.2-0.1-0.3-0.1L53.3,98l-3.1-0.8l-3.1-0.8l-0.9-0.2
	C46.1,96.1,46,96.1,45.9,96.1z"/>
<path class="st2" d="M40.3,88.7l0.1,0c0.1,0,0.3-0.1,0.4-0.1c0.5-0.1,1.1-0.2,1.6-0.1c0.9,0.1,1.7,0.4,2.4,0.8
	c0.4,0.3,0.8,0.7,1.1,1.1c0.4,0.5,0.6,1,0.7,1.5c0.1,0.3,0.1,0.6,0,0.9c-0.1,0.3-0.3,0.6-0.5,0.8c-0.3,0.2-0.6,0.3-1,0.3
	s-0.7-0.1-1-0.3c-0.3-0.2-0.5-0.5-0.7-0.9c-0.1-0.3-0.2-0.7-0.1-1.1c0.1-0.4,0.3-0.7,0.5-1c0.3-0.3,0.6-0.5,1-0.7
	c0.8-0.3,1.7-0.4,2.5-0.1c0.4,0.1,0.8,0.3,1.2,0.5c0.4,0.2,0.8,0.4,1.1,0.7c0.7,0.6,1.3,1.3,1.6,2.1c0.2,0.4,0.3,0.8,0.4,1.3
	c0,0.2,0,0.4,0,0.7c0,0.2-0.1,0.4-0.2,0.6c-0.1,0.1-0.2,0.2-0.3,0.2s-0.2,0.1-0.3,0.1c-0.2,0-0.5,0-0.7,0c-0.5-0.1-0.9-0.4-1.1-0.7
	c-0.3-0.4-0.4-0.8-0.3-1.2c0-0.4,0.2-0.8,0.6-1.1c0.3-0.3,0.7-0.5,1.2-0.6c0.4-0.1,0.9-0.2,1.3-0.1c0.9,0.1,1.7,0.3,2.5,0.7
	c0.7,0.4,1.3,0.9,1.8,1.5c0.5,0.6,0.8,1.3,0.8,2c0,0.3-0.1,0.7-0.3,0.9c-0.2,0.3-0.5,0.5-0.8,0.6c-0.2,0-0.3,0.1-0.5,0
	c-0.2,0-0.3-0.1-0.5-0.1c-0.3-0.1-0.5-0.4-0.7-0.6C54,96.6,53.9,96,54,95.4c0.1-0.5,0.3-1,0.6-1.4c0.5-0.8,1.3-1.3,2-1.3
	c0.3,0,0.6,0,0.9,0.1c0.2,0.1,0.4,0.2,0.6,0.3c0.1,0.1,0.3,0.3,0.3,0.4c0,0,0,0-0.1-0.1c-0.1-0.1-0.2-0.2-0.3-0.3
	c-0.2-0.2-0.5-0.3-0.7-0.4c-0.3-0.1-0.5-0.1-0.8-0.1c-0.7,0-1.6,0.5-2.1,1.4c-0.3,0.4-0.5,0.9-0.6,1.4c-0.1,0.6-0.1,1.2,0.2,1.7
	c0.2,0.3,0.4,0.5,0.7,0.7c0.2,0.1,0.3,0.1,0.5,0.2c0.2,0,0.4,0,0.5,0c0.4-0.1,0.7-0.3,0.9-0.6c0.2-0.3,0.3-0.6,0.3-1
	c0-0.7-0.3-1.4-0.8-2.1c-0.5-0.6-1.2-1.2-1.9-1.6c-0.8-0.4-1.6-0.6-2.4-0.7c-0.5,0-0.9,0-1.3,0.1c-0.5,0.1-0.9,0.3-1.2,0.6
	c-0.3,0.3-0.6,0.7-0.6,1.2c0,0.5,0.1,0.9,0.4,1.3c0.3,0.4,0.7,0.7,1.2,0.8c0.2,0.1,0.5,0.1,0.7,0c0.1,0,0.3-0.1,0.4-0.1
	c0.1-0.1,0.2-0.1,0.3-0.2c0.1-0.2,0.2-0.4,0.2-0.7c0-0.2,0-0.5,0-0.7c-0.1-0.5-0.2-0.9-0.4-1.3c-0.4-0.8-0.9-1.5-1.7-2.1
	c-0.3-0.3-0.7-0.5-1.1-0.7c-0.4-0.2-0.8-0.4-1.3-0.5c-0.9-0.2-1.8-0.2-2.6,0.1c-0.4,0.2-0.7,0.4-1,0.7c-0.3,0.3-0.5,0.7-0.5,1.1
	c-0.1,0.4-0.1,0.7,0.1,1.1c0.1,0.4,0.4,0.7,0.7,0.9c0.3,0.2,0.7,0.3,1.1,0.3c0.4,0,0.7-0.1,1.1-0.3c0.3-0.2,0.5-0.5,0.6-0.8
	c0.1-0.3,0.1-0.6,0-0.9c-0.1-0.6-0.4-1.1-0.7-1.6c-0.3-0.4-0.7-0.8-1.2-1.1c-0.6-0.4-1.3-0.7-2-0.8c-0.7-0.1-1.4-0.1-2.1,0.1
	C40.6,88.5,40.5,88.6,40.3,88.7z"/>
<path class="st2" d="M51.7,82.1c0.1,0.2,0.3,0.4,0.4,0.5c0.5,0.4,1.1,0.7,1.7,0.8c0.4,0.1,0.9,0.1,1.3,0c0.5-0.1,1-0.4,1.4-0.7
	c0.2-0.2,0.4-0.4,0.6-0.6c0.2-0.2,0.3-0.5,0.4-0.8c0-0.1,0.1-0.3,0-0.4c0-0.1-0.1-0.3-0.1-0.4c-0.1-0.1-0.2-0.2-0.4-0.3
	c-0.1-0.1-0.3-0.1-0.5-0.1c-0.3,0-0.6,0.1-0.9,0.2c-0.3,0.2-0.5,0.4-0.7,0.6c-0.3,0.5-0.5,1-0.4,1.5c0,0.3,0.1,0.5,0.1,0.7
	c0.1,0.2,0.2,0.4,0.4,0.6c0.3,0.3,0.6,0.6,1,0.8c0.6,0.3,1.3,0.4,1.9,0.3c0.2,0,0.5-0.1,0.7-0.2c-0.2,0.1-0.5,0.1-0.7,0.1
	c-0.6,0.1-1.3,0-1.9-0.3c-0.4-0.2-0.7-0.4-1-0.8c-0.1-0.2-0.3-0.4-0.3-0.6c-0.1-0.2-0.1-0.5-0.1-0.7c0-0.5,0.1-1,0.4-1.5
	c0.2-0.2,0.4-0.4,0.6-0.6c0.3-0.1,0.6-0.2,0.9-0.2c0.1,0,0.3,0,0.4,0.1c0.1,0.1,0.2,0.2,0.3,0.3c0.1,0.1,0.1,0.2,0.1,0.4
	c0,0.1,0,0.3,0,0.4c-0.1,0.3-0.2,0.5-0.3,0.7c-0.1,0.2-0.3,0.4-0.5,0.6c-0.4,0.3-0.8,0.5-1.3,0.7c-0.4,0.1-0.9,0.1-1.3,0.1
	c-0.6-0.1-1.2-0.4-1.7-0.8C52,82.5,51.9,82.3,51.7,82.1z"/>
<path class="st2" d="M43.9,99.3c0,0,0.2-0.1,0.5-0.2c0.4-0.2,0.9-0.2,1.4-0.1c0.5,0.1,0.9,0.3,1.2,0.6c0.3,0.2,0.4,0.4,0.4,0.4
	c0,0,0-0.1-0.1-0.1c-0.1-0.1-0.2-0.2-0.3-0.3c-0.4-0.3-0.8-0.5-1.3-0.6c-0.5-0.1-1,0-1.4,0.2c-0.1,0.1-0.3,0.1-0.4,0.2
	C43.9,99.2,43.9,99.2,43.9,99.3z"/>
<g class="st11">
	<path d="M46.3,82.6c1.7-0.7,3.5-0.8,5.3-1.5l2.1-1c-0.2,0.3-0.8,0.5-0.9,1c-0.1,0.5-0.1,0.9-0.1,1.4c0.1,1.2,0,2.5-0.3,3.7
		c-0.2,0.8-0.5,1.6-1.3,1.8c-0.5,0.2-1.1,0-1.6-0.1c-2.4-0.7-5.2-1.4-7.6-2C42.6,84.3,44.6,83.3,46.3,82.6z"/>
</g>
<path class="st6" d="M40.9,75.5c0.3-1.2,0.6-2.4,1.5-3.2c1-1,2.5-1.6,3.9-1.6c1.3-0.1,1.5-0.7,2.8-0.5c0.5,0.1,1,0.3,1.4,0.5
	c1.8,1,2.8,2.7,3.3,4.8c0.2,0.8,0.2,1.7-0.5,2.1c-0.5,0.3-1.2,0.3-1.7,0.6c-0.5,0.4-0.7,1.1-0.6,1.7c0.1,0.6,0.4,1.2,0.6,1.8
	c0.4,1.5,0.1,3-0.2,4.5l-9.4-0.3c-0.4,0-0.8,0-1-0.3c-0.2-0.2-0.3-0.5-0.4-0.8C40.2,81.7,40.2,78.5,40.9,75.5z"/>
<path class="st7" d="M53.2,75.6c0-0.1,0-0.2,0-0.2c0-0.1,0-0.2-0.1-0.3c0-0.1,0-0.2-0.1-0.4c-0.1-0.3-0.2-0.6-0.4-0.9
	c-0.2-0.4-0.4-0.7-0.6-1.1c-0.2-0.3-0.5-0.6-0.8-0.9c-0.2-0.2-0.5-0.4-0.8-0.6c-0.1-0.1-0.2-0.2-0.3-0.2c-0.1-0.1-0.2-0.1-0.3-0.1
	c-0.1,0-0.2-0.1-0.2-0.1c0,0,0.3,0.2,0.8,0.5c0.3,0.2,0.5,0.4,0.8,0.6c0.3,0.3,0.6,0.6,0.8,0.9c0.2,0.3,0.5,0.7,0.6,1
	c0.1,0.3,0.3,0.6,0.4,0.9C53.1,75.3,53.2,75.6,53.2,75.6z"/>
<path class="st7" d="M52.1,76.9c0-0.2,0-0.4,0-0.6c0-0.5-0.1-0.9-0.3-1.4c-0.1-0.5-0.3-0.9-0.5-1.3c-0.1-0.2-0.2-0.4-0.3-0.5
	c0.1,0.2,0.1,0.4,0.2,0.6c0.4,0.9,0.6,1.8,0.8,2.7C52,76.5,52,76.7,52.1,76.9z"/>
<path class="st7" d="M42.8,84.2c0,0,0-0.1,0-0.1c0-0.1,0.1-0.2,0.1-0.4c0.1-0.5,0.1-1,0.1-1.6c0-0.7,0-1.4-0.1-2.3
	c-0.1-0.9-0.1-1.9-0.1-2.8c0-0.9,0.2-1.9,0.5-2.7c0.3-0.7,0.8-1.4,1.3-1.9c0.4-0.4,0.9-0.6,1.4-0.8c0.1,0,0.3-0.1,0.4-0.1
	c0.1,0,0.1,0,0.2,0c-0.1,0-0.1,0-0.2,0c-0.2,0-0.3,0.1-0.4,0.1c-0.5,0.2-1,0.4-1.4,0.8c-0.6,0.5-1.1,1.2-1.4,1.9
	c-0.4,0.9-0.5,1.8-0.5,2.8c0,0.9,0,1.9,0.1,2.8c0.1,0.9,0.1,1.6,0.1,2.3c0,0.5,0,1-0.1,1.5c0,0.2,0,0.3-0.1,0.4
	C42.8,84.1,42.8,84.2,42.8,84.2z"/>
<path class="st7" d="M43.7,84.1c0-0.2,0.1-0.4,0.1-0.7c0-0.4,0-1,0-1.6c0-0.6-0.1-1.2-0.1-1.6c0-0.2,0-0.4-0.1-0.7
	c0,0.2,0,0.4,0,0.7c0,0.4,0.1,1,0.1,1.6c0,0.6,0,1.2,0,1.6C43.7,83.7,43.7,83.9,43.7,84.1z"/>
<path class="st9" d="M86.2,78.3c-0.1,1.1-0.2,2.3-0.3,3.4c0.9,0.2,1.9,0.3,2.8,0.1c0.9-0.2,1.8-0.8,2.1-1.6c0.1-0.2,0.1-0.3,0.1-0.5
	c0-0.1-0.1-0.2-0.1-0.2c-0.1-0.1-0.1-0.1-0.2-0.1"/>
<path class="st6" d="M83.7,74.6C83.6,74.2,83,74,83,73.5c0-0.4,0.6-0.7,0.8-1.1c0.3-0.6-0.6-1.3-0.4-2c0.2-0.8,1.7-0.9,2-1.7
	c0.1-0.3,0-0.7,0.3-1c0.4-0.3,1,0,1.5-0.2c0.4-0.2,0.5-0.7,1-0.9c0.4-0.2,1,0.1,1.4,0.4c0.1,0.1,0.3,0.2,0.5,0.2
	c0.7-0.2,1.9-0.2,2.4,0.2c0.6,0.4,1,1,1.7,1.3c0.6,0.3,1.3,0.4,1.8,0.9c0.8,0.8,0.4,2,0.8,3c0.1,0.3,0.4,0.6,0.5,1
	c0.2,0.3,0.2,0.7,0,1s-0.7,0.5-0.7,0.8c0,0.4,0.5,0.6,0.4,1c0,0.3-0.7,0.5-0.9,0.8c-0.3,0.4,0,1-0.3,1.5c-0.3,0.5-1.1,0.4-1.7,0.5
	c-1,0.2-1.8,1.3-2.9,1.1c-0.4-0.1-0.8-0.3-1.2-0.4c-0.5-0.1-1.1,0.2-1.6,0.2c-1,0.1-1.9-0.4-2.7-0.9c-0.4-0.3-0.9-0.5-1-1
	c-0.1-0.4,0.1-0.8-0.1-1.2c-0.2-0.4-0.7-0.4-0.9-0.8C83.2,75.8,83.9,75.2,83.7,74.6z"/>
<path class="st7" d="M94.3,70.5C94.3,70.5,94.3,70.5,94.3,70.5c0-0.2,0.1-0.2,0.1-0.3c0-0.3-0.2-0.6-0.4-0.8
	c-0.3-0.3-0.8-0.5-1.2-0.6c-0.3,0-0.6,0-0.8,0.2c-0.1,0.1-0.2,0.2-0.3,0.3c-0.1,0.1-0.1,0.3,0,0.4c0,0.1,0.1,0.1,0.1,0.2
	c0.1,0.1,0.1,0.1,0.2,0.1c0.1,0,0.2,0,0.3,0c0.1,0,0.1-0.1,0.2-0.2c0-0.1,0-0.1,0-0.2c0-0.1,0-0.1-0.1-0.2c-0.1-0.1-0.2-0.2-0.3-0.2
	c-0.2-0.1-0.5-0.1-0.7,0c-0.2,0.1-0.4,0.2-0.6,0.4c-0.2,0.3-0.2,0.6-0.2,0.9c0,0.1,0,0.2,0.1,0.2c0,0.1,0,0.1,0,0.1c0,0,0-0.1,0-0.3
	c0-0.3,0.1-0.6,0.2-0.8c0.1-0.2,0.3-0.3,0.5-0.3c0.2-0.1,0.5-0.1,0.7,0c0.1,0,0.2,0.1,0.3,0.2c0,0,0.1,0.1,0.1,0.2
	c0,0.1,0,0.1,0,0.2c0,0.1-0.1,0.1-0.1,0.1c-0.1,0-0.1,0-0.2,0c-0.1,0-0.1,0-0.2-0.1c0,0-0.1-0.1-0.1-0.1c0-0.1,0-0.2,0-0.4
	c0-0.1,0.1-0.2,0.2-0.3c0.2-0.1,0.5-0.2,0.7-0.2c0.4,0.1,0.9,0.2,1.2,0.5c0.2,0.2,0.4,0.5,0.4,0.7C94.3,70.3,94.3,70.4,94.3,70.5z"
	/>
<path class="st7" d="M95.4,74.6c0-0.1,0.1-0.1,0.1-0.2c0.1-0.3,0.1-0.5,0-0.8S95.2,73.1,95,73c-0.2-0.1-0.4-0.2-0.6-0.3
	c-0.2,0-0.4-0.1-0.6,0l0.1,0.1c0-0.2,0-0.3,0-0.5c0-0.2-0.1-0.4-0.2-0.6c-0.1-0.2-0.3-0.4-0.5-0.5c-0.3-0.2-0.6-0.3-0.9-0.3
	c-0.3,0-0.6,0.1-0.9,0.2c-0.1,0-0.1,0.1-0.2,0.1c0,0-0.1,0,0,0c0.1,0,0.2-0.1,0.2-0.1c0.2-0.1,0.5-0.2,0.7-0.2c0.4,0,0.7,0.1,1,0.3
	c0.2,0.1,0.3,0.3,0.4,0.5c0.1,0.2,0.2,0.4,0.2,0.6c0,0.1,0,0.3,0,0.4l0,0.1l0.1,0c0.2,0,0.4,0,0.6,0c0.2,0,0.4,0.1,0.5,0.2
	c0.3,0.2,0.4,0.4,0.5,0.7c0.1,0.2,0.1,0.4,0,0.6C95.4,74.5,95.4,74.6,95.4,74.6z"/>
<path class="st7" d="M87.7,68.9c0,0,0.2,0,0.4,0c0.3,0,0.6,0,0.9,0.2c0.3,0.1,0.5,0.3,0.7,0.6c0.1,0.2,0.2,0.3,0.2,0.3
	c0-0.1-0.1-0.3-0.1-0.4c-0.2-0.3-0.4-0.5-0.7-0.6c-0.3-0.1-0.6-0.2-1-0.2C87.9,68.8,87.8,68.8,87.7,68.9z"/>
<path class="st7" d="M84.5,74.4c0,0,0-0.1-0.1-0.2c-0.1-0.2-0.1-0.4-0.1-0.6c0-0.3,0.2-0.6,0.4-0.8c0.1-0.1,0.3-0.2,0.5-0.3
	c0.2-0.1,0.4-0.1,0.6-0.1c0.2,0,0.4,0.1,0.5,0.2l0.1,0.1l0-0.1c0-0.2,0-0.3,0-0.5c0-0.2,0.1-0.3,0.2-0.4c0.1-0.1,0.2-0.2,0.3-0.2
	c0.1-0.1,0.2-0.1,0.4-0.1c0.2,0,0.4,0,0.5,0.1c0.1,0,0.1,0.1,0.2,0.1c0,0-0.1-0.1-0.2-0.1c-0.2-0.1-0.4-0.1-0.5-0.1
	c-0.1,0-0.3,0-0.4,0.1c-0.1,0.1-0.3,0.1-0.3,0.2c-0.1,0.1-0.2,0.3-0.3,0.4c0,0.2,0,0.3,0,0.5l0.1-0.1c-0.2-0.1-0.4-0.2-0.6-0.2
	c-0.2,0-0.4,0-0.6,0.1c-0.2,0.1-0.4,0.2-0.6,0.3c-0.2,0.2-0.3,0.5-0.4,0.7c0,0.3,0,0.6,0.1,0.8C84.3,74.2,84.4,74.3,84.5,74.4
	C84.4,74.4,84.5,74.4,84.5,74.4z"/>
<path class="st8" d="M96.4,93.7c0,0,2.7,0.5,3.2,0.2c0.4-0.3,1.9-1.2,1.7-2.5c-0.2-1.3-3-10.3-3.6-10.9c-0.6-0.7-1.2-1.3-2.3-1.3
	c-1.2,0.1-8.8,1.6-8.8,1.6s-3.2-0.2-3.8,0.3c-0.6,0.4-2.1,1.3-2.1,2.8c0,1.5,0.3,12.1,0.3,12.1L80,99.8h16.9L96.4,93.7"/>
<path class="st6" d="M96.4,93.7c0,0,0.2-2.1,0.4-4.7c0.2-2.6,0.4-4.7,0.3-4.7c0,0-0.2,2.1-0.4,4.7C96.5,91.6,96.3,93.6,96.4,93.7z"
	/>
<path class="st2" d="M80.5,83.6c0.1,0,0.1,0,0.2,0l0.5-0.1l1.8-0.3c1.6-0.3,3.7-0.6,6.1-0.9c2.4-0.3,4.6-0.5,6.1-0.7l1.9-0.2l0.5,0
	c0.1,0,0.1,0,0.2,0c-0.1,0-0.1,0-0.2,0l-0.5,0c-0.4,0-1.1,0.1-1.9,0.1c-1.6,0.1-3.7,0.3-6.1,0.7c-2.4,0.3-4.5,0.7-6.1,0.9
	c-0.8,0.1-1.4,0.3-1.8,0.3l-0.5,0.1C80.6,83.6,80.6,83.6,80.5,83.6z"/>
<path class="st2" d="M80.8,87.5c0.1,0,0.1,0,0.2,0l0.5,0c0.4,0,1,0,1.7-0.1c1.5-0.1,3.5-0.2,5.7-0.4c2.2-0.2,4.3-0.4,5.7-0.6
	c0.7-0.1,1.3-0.2,1.7-0.2l0.5-0.1c0.1,0,0.1,0,0.2,0c-0.1,0-0.1,0-0.2,0l-0.5,0l-1.7,0.2c-1.5,0.2-3.5,0.4-5.7,0.6
	c-2.2,0.2-4.3,0.3-5.7,0.4l-1.7,0.1l-0.5,0C80.9,87.5,80.9,87.5,80.8,87.5z"/>
<path class="st2" d="M80.5,91.1c0.1,0,0.1,0,0.2,0l0.5,0.1c0.4,0.1,1,0.1,1.7,0.2c1.4,0.1,3.4,0.3,5.6,0.3c2.2,0,4.2-0.1,5.6-0.3
	c0.7-0.1,1.3-0.1,1.7-0.2l0.5-0.1c0.1,0,0.1,0,0.2,0c-0.1,0-0.1,0-0.2,0l-0.5,0c-0.4,0-1,0.1-1.7,0.2c-1.4,0.1-3.4,0.2-5.6,0.2
	c-2.2,0-4.2-0.1-5.6-0.2c-0.7-0.1-1.3-0.1-1.7-0.2l-0.5,0C80.7,91.1,80.6,91.1,80.5,91.1z"/>
<path class="st2" d="M80.8,96.3c0.1,0,0.1,0,0.2,0l0.5,0l1.7,0.1c1.4,0,3.4,0.1,5.5,0.1c2.2,0,4.1,0,5.6-0.1c0.7,0,1.3,0,1.7-0.1
	l0.5,0c0.1,0,0.1,0,0.2,0c-0.1,0-0.1,0-0.2,0h-0.5c-0.4,0-1,0-1.7,0c-1.4,0-3.4,0-5.5,0l-5.6-0.1l-1.7,0H81
	C81,96.3,80.9,96.3,80.8,96.3z"/>
<path class="st2" d="M96.8,89.1c0.6-0.1,1.2-0.3,1.8-0.4c0.6-0.1,1.2-0.3,1.7-0.5c-0.6,0.1-1.2,0.3-1.8,0.4
	C97.9,88.7,97.3,88.9,96.8,89.1z"/>
<path class="st12" d="M121.2,81.8c0.1-1.2,1.2-3.4,1.7-5.6c0.2-1.1,0.4-2.1-0.4-3c-0.6-0.7-1.6-1.2-2.4-1.7
	c-1.4-0.8-2.9-1.5-4.5-1.6c-1.1-0.1-2.2,0.2-2.9,1c-0.6,0.6-0.7,1.5-0.8,2.3c-0.2,1.3-0.3,2.7-0.3,4.1c0,0.7,0,1.4,0.2,2.1
	c0.1,0.3,0.3,0.7,0.5,0.9c0.2,0.3,0.5,0.5,0.8,0.7c0.6,0.3,1.3,0.3,1.8,0.6c0.6,0.3,1,1,0.6,1.5l3.8,1L121.2,81.8z"/>
<path class="st6" d="M122,80c-0.2,0.4-0.5,0.7-0.8,1c-0.3,0.3-0.7,0.5-1.2,0.6c-0.4,0.1-0.9,0.1-1.3,0c-0.4-0.1-0.9-0.3-1.2-0.6
	c-0.4-0.4-0.6-0.8-0.9-1.3c-0.3-0.4-0.6-0.9-1.1-1.1c-0.5-0.2-1.2-0.2-1.4,0.3c-0.1,0.1-0.1,0.3-0.3,0.4c-0.1,0-0.2,0-0.3,0
	c-0.1,0-0.2-0.1-0.2-0.2c-0.1-0.2-0.1-0.4,0-0.6c0.2-0.7,0.3-1.5,0.3-2.2c0-0.8-0.3-1.5-0.8-2.1c-0.4-0.4-1-0.7-1.5-1
	c-0.5-0.3-1-0.8-1-1.4c0-0.5,0.3-1,0.7-1.4c0.9-0.8,4.4-1.3,5.5-0.9c0,0,4.7,1.9,4.9,2.1c0.2,0.2,1.9,0.7,1.9,2.7
	C123.3,76.2,122,80,122,80z"/>
<path class="st12" d="M121.2,81.8c0.1-1.2,1.2-3.4,1.7-5.6c0.2-1.1,0.4-2.1-0.4-3c-0.6-0.7-1.6-1.2-2.4-1.7
	c-1.4-0.8-2.9-1.5-4.5-1.6c-1.1-0.1-2.2,0.2-2.9,1c-0.6,0.6-0.7,1.5-0.8,2.3c-0.2,1.3-0.3,2.7-0.3,4.1c0,0.7,0,1.4,0.2,2.1
	c0.1,0.3,0.3,0.7,0.5,0.9c0.2,0.3,0.5,0.5,0.8,0.7c0.6,0.3,1.3,0.3,1.8,0.6c0.6,0.3,1,1,0.6,1.5l3.8,1L121.2,81.8z"/>
<path class="st6" d="M110.2,70.4c0.1-0.1,0.1-0.1,0.2-0.1c0.1,0,0.2,0,0.2,0c0.1,0,0.2,0,0.2,0.1c0.1,0,0.1,0.1,0.2,0.1
	c-0.2-0.2-0.2-0.4-0.2-0.7c0-0.2,0.2-0.4,0.4-0.6c0.2-0.1,0.5-0.2,0.7-0.2c0.2,0,0.5,0.2,0.6,0.3c-0.1-0.2-0.1-0.4-0.1-0.6
	c0.1-0.2,0.2-0.4,0.4-0.5c0.2-0.1,0.4-0.2,0.6-0.2c0.2,0,0.5,0,0.7,0.1c0.4,0.1,0.8,0.3,1.2,0.6c0-0.1,0-0.3,0.1-0.4
	s0.2-0.2,0.3-0.3c0.3-0.1,0.6-0.2,0.9-0.1c0.6,0,1.2,0.2,1.6,0.5c0.5,0.3,0.9,0.7,1.2,1.2c0.3-0.1,0.6-0.1,0.9-0.1
	c0.3,0.1,0.6,0.2,0.8,0.4c0.2,0.2,0.4,0.5,0.5,0.8s0.1,0.6-0.1,0.9c0.3,0.1,0.6,0.2,0.8,0.5c0.2,0.2,0.3,0.5,0.3,0.8
	c0.4,0.5,0.5,1,0.5,1.6c0,1.9-1.3,5.7-1.3,5.7c-0.2,0.4-0.5,0.7-0.8,1c-0.3,0.3-0.7,0.5-1.2,0.6c-0.4,0.1-0.9,0.1-1.3,0
	c-0.4-0.1-0.9-0.3-1.2-0.6c-0.4-0.4-0.6-0.8-0.9-1.3c-0.3-0.4-0.6-0.9-1.1-1.1c-0.5-0.2-1-0.1-1.6,0.1c-0.5,0.1-0.5-0.2-0.5-0.5l0-2
	c0-0.8-0.3-1.5-0.8-2.1c-0.4-0.4-1-0.7-1.5-1c-0.5-0.3-1-0.8-1-1.4c0-0.1,0-0.2,0-0.3c-0.1-0.1-0.2-0.2-0.2-0.4
	c-0.1-0.1-0.1-0.3-0.1-0.4S110.1,70.5,110.2,70.4z"/>
<path class="st7" d="M116.5,73.6c0,0.1,0,0.1,0.1,0.2c0.1,0.2,0.3,0.4,0.5,0.6c0.2,0.1,0.5,0.2,0.8,0.2c0.2,0,0.4,0,0.6-0.1
	c0.2-0.1,0.4-0.2,0.5-0.3h-0.1c0.1,0.1,0.2,0.2,0.3,0.3c0.2,0.1,0.4,0.2,0.6,0.3c0.2,0.1,0.5,0.1,0.7,0c0.4-0.1,0.7-0.3,1-0.5
	c0.2-0.2,0.3-0.4,0.3-0.6c0-0.1,0-0.1,0-0.2c0,0,0-0.1,0-0.1s0,0.1-0.1,0.2c-0.1,0.2-0.2,0.4-0.3,0.6c-0.2,0.3-0.6,0.4-0.9,0.5
	c-0.2,0-0.4,0-0.6,0c-0.2-0.1-0.4-0.1-0.6-0.3c-0.1-0.1-0.2-0.2-0.3-0.3l0-0.1l0,0.1c-0.1,0.1-0.3,0.2-0.4,0.3
	c-0.2,0.1-0.4,0.1-0.5,0.1c-0.3,0-0.6-0.1-0.8-0.3c-0.2-0.1-0.3-0.3-0.4-0.4C116.5,73.7,116.5,73.6,116.5,73.6z"/>
<path class="st7" d="M113.4,72.3c0,0.1-0.1,0.1-0.1,0.2c0,0.1,0,0.1,0,0.2c0,0.1,0.1,0.3,0.2,0.3c0.1,0.1,0.3,0.2,0.4,0.2
	c0.3,0.1,0.6,0,0.9-0.1c0.1,0,0.2-0.1,0.3-0.2c-0.1,0-0.2,0.1-0.4,0.1c-0.3,0.1-0.6,0.1-0.9,0.1c-0.2,0-0.3-0.1-0.4-0.2
	c-0.1-0.1-0.2-0.2-0.2-0.3C113.4,72.5,113.4,72.4,113.4,72.3z"/>
<path class="st7" d="M111.3,71.6c0,0.1,0,0.2,0.1,0.3c0.1,0.3,0.3,0.5,0.6,0.6c0.3,0.1,0.6,0.1,0.9,0c0.1,0,0.2-0.1,0.3-0.2
	c0,0-0.1,0.1-0.3,0.1c-0.3,0.1-0.6,0-0.8-0.1c-0.3-0.1-0.5-0.3-0.6-0.6C111.3,71.7,111.3,71.6,111.3,71.6z"/>
<path class="st7" d="M113.9,70.2c0.2-0.1,0.4-0.2,0.7-0.3c0.3,0,0.6,0,0.8,0.1c0.3,0.1,0.5,0.3,0.6,0.6c0.1,0.1,0.1,0.3,0.1,0.5
	l0.1,0c0-0.1,0-0.2,0.1-0.3c0.1-0.1,0.2-0.1,0.3-0.2c0.2,0,0.4,0,0.6,0.1c0.1,0.1,0.3,0.2,0.4,0.3c0,0,0,0-0.1-0.1
	c-0.1-0.1-0.2-0.2-0.3-0.3c-0.1-0.1-0.2-0.1-0.3-0.1c-0.1,0-0.2,0-0.3,0c-0.1,0-0.3,0.1-0.4,0.2c-0.1,0-0.1,0.1-0.1,0.2s0,0.1,0,0.2
	l0.1,0c0-0.3-0.1-0.5-0.3-0.7s-0.4-0.4-0.6-0.5c-0.3-0.1-0.5-0.1-0.8-0.1c-0.2,0-0.3,0.1-0.5,0.2C113.9,70.2,113.9,70.2,113.9,70.2z
	"/>
<path class="st7" d="M116,68.7c0,0,0.1,0,0.3,0.1c0.2,0.1,0.4,0.2,0.5,0.3c0.1,0.2,0.2,0.3,0.2,0.5c0,0.1,0,0.2,0,0.3
	c0,0,0.1-0.1,0.1-0.3c0-0.2-0.1-0.4-0.2-0.6c-0.1-0.2-0.3-0.3-0.6-0.3C116.1,68.7,116,68.7,116,68.7z"/>
<path class="st7" d="M120.3,71.1c0,0,0-0.2-0.2-0.3c-0.1-0.1-0.3-0.1-0.4-0.2c-0.2,0-0.4,0-0.5,0c-0.3,0.1-0.6,0.3-0.8,0.5
	c-0.2,0.2-0.3,0.3-0.2,0.3c0.1-0.1,0.2-0.1,0.3-0.2c0.2-0.2,0.5-0.3,0.8-0.4c0.2,0,0.3-0.1,0.5-0.1c0.1,0,0.3,0.1,0.4,0.1
	C120.2,71,120.3,71.1,120.3,71.1z"/>
<path class="st7" d="M118.1,72.8c0.1-0.2,0.1-0.4,0.1-0.6s-0.2-0.4-0.4-0.5c0.1,0.2,0.2,0.3,0.2,0.5C118,72.4,118.1,72.6,118.1,72.8
	z"/>
<path class="st12" d="M105.6,80.8l3.2,1l-0.6,5.5l0.2,0.4l2.4,3.7c0,0.1-2.4,0.6-3.4,0.8c-1.2,0.2-4.2,0-3.8-3.6
	C104,86.1,105.6,80.8,105.6,80.8z"/>
<path class="st12" d="M109.1,76.9c0.3,0.1,0.5,0.3,0.6,0.5c0.2,0.2,0.2,0.5,0.3,0.7c0,0.1,0,0.1,0,0.2c0,0.1-0.1,0.1-0.2,0.1
	c-0.1,0-0.1,0-0.2,0c-0.1-0.1-0.2-0.2-0.3-0.3"/>
<path class="st13" d="M109.2,78.1C109.2,78.1,109.2,78.2,109.2,78.1c0.1,0.2,0.2,0.2,0.3,0.3c0.1,0,0.1,0.1,0.2,0.1c0,0,0.1,0,0.1,0
	s0.1,0,0.1-0.1c0.1-0.1,0.1-0.2,0.1-0.3c0-0.1,0-0.2,0-0.3c-0.1-0.3-0.3-0.6-0.5-0.8c-0.1-0.1-0.2-0.2-0.4-0.2c0,0,0.1,0.1,0.3,0.2
	c0.2,0.2,0.4,0.5,0.5,0.8c0,0.1,0,0.2,0,0.3c0,0.1,0,0.1,0,0.2c0,0-0.1,0.1-0.2,0.1c-0.1,0-0.1,0-0.2,0
	C109.4,78.3,109.4,78.3,109.2,78.1C109.3,78.2,109.2,78.1,109.2,78.1z"/>
<path class="st12" d="M107.2,76.9c0,0,1.6,0.6,1.8,1.1s0.6,2.3,0.6,2.3l-0.7,1.7l-3.2-0.6c0,0-0.5-3.5-0.5-3.6c0,0-1.1-2.9-1.1-3.2
	c0-0.4,0.3-0.5,0.7-0.1c0.4,0.4,1.2,2.1,1.2,2.1L107.2,76.9z"/>
<path class="st12" d="M107.5,76.2c0.3,0,0.6,0,0.9,0.1c0.3,0.1,0.5,0.4,0.6,0.7c0.1,0.3,0.2,0.6,0.2,0.8c0,0.2,0,0.5-0.1,0.6
	c0,0-0.1,0.1-0.2,0.1c-0.1,0-0.1,0-0.2,0c-0.1,0-0.1-0.1-0.1-0.1c0,0-0.1-0.1-0.1-0.1"/>
<path class="st13" d="M108.5,78.2c0,0,0,0.1,0,0.2c0,0.1,0.1,0.1,0.2,0.1c0.1,0,0.2,0,0.3,0c0.1,0,0.1-0.1,0.1-0.1s0.1-0.1,0.1-0.1
	c0-0.1,0-0.2,0-0.3c0-0.3-0.1-0.5-0.1-0.8c-0.1-0.3-0.2-0.5-0.4-0.7c-0.2-0.2-0.4-0.3-0.6-0.3c-0.1,0-0.3,0-0.4,0
	c-0.1,0-0.1,0-0.2,0c0,0,0.2,0,0.6,0.1c0.2,0,0.4,0.1,0.6,0.3c0.2,0.2,0.3,0.4,0.4,0.6c0.1,0.2,0.1,0.5,0.1,0.7c0,0.1,0,0.2,0,0.3
	c0,0,0,0.1-0.1,0.1c0,0-0.1,0.1-0.1,0.1c-0.1,0-0.1,0-0.2,0c-0.1,0-0.1,0-0.2-0.1C108.6,78.3,108.6,78.2,108.5,78.2z"/>
<path class="st12" d="M106,76.4c0.2-0.2,0.4-0.4,0.7-0.4c0.2,0,0.3,0,0.5,0c0.1,0,0.3,0.1,0.4,0.2c0.2,0.2,0.4,0.5,0.5,0.7
	c0.1,0.2,0.2,0.4,0.3,0.7c0.1,0.1,0.1,0.2,0.1,0.4c0,0.1,0,0.1,0,0.2c0,0.1-0.1,0.1-0.1,0.2c-0.1,0.1-0.2,0.1-0.3,0.1
	c-0.1,0-0.2,0-0.3-0.1c-0.2-0.1-0.3-0.3-0.4-0.5"/>
<path class="st13" d="M107.5,78c0,0.1,0,0.1,0.1,0.2c0,0.1,0.1,0.2,0.2,0.2c0.1,0.1,0.2,0.1,0.3,0.1c0.1,0,0.2,0,0.2,0
	c0.1,0,0.1-0.1,0.2-0.1c0.1-0.1,0.1-0.1,0.1-0.2c0-0.1,0-0.2,0-0.2c0-0.2-0.1-0.3-0.2-0.5c-0.1-0.2-0.2-0.3-0.2-0.5
	c-0.1-0.3-0.4-0.6-0.6-0.9c-0.1-0.1-0.3-0.2-0.4-0.2c-0.2,0-0.3,0-0.5,0c-0.2,0.1-0.4,0.2-0.5,0.3c-0.1,0.1-0.1,0.2-0.1,0.2
	c0.1,0,0.1-0.1,0.2-0.1c0.1-0.1,0.3-0.2,0.5-0.3c0.1,0,0.3,0,0.4,0c0.1,0,0.3,0.1,0.4,0.2c0.3,0.2,0.5,0.5,0.6,0.8l0.2,0.5
	c0.1,0.1,0.1,0.3,0.2,0.5c0,0.1,0,0.1,0,0.2c0,0.1-0.1,0.1-0.1,0.2c0,0-0.1,0.1-0.2,0.1c-0.1,0-0.1,0-0.2,0c-0.1,0-0.2,0-0.3-0.1
	c-0.1,0-0.1-0.1-0.2-0.2C107.5,78.1,107.5,78,107.5,78z"/>
<path class="st12" d="M107.1,79.1l0.2-1c0.4-0.1,0.8-0.2,1.1-0.4c0.1-0.3,0-0.4-0.4-0.5c-0.4-0.1-1.7,0.1-1.8,0.1
	c-0.5,0.2-0.5,0.9-0.6,1.4"/>
<path class="st13" d="M105.6,78.7c0-0.1,0-0.2,0.1-0.2c0-0.2,0.1-0.4,0.2-0.6c0.1-0.1,0.1-0.3,0.3-0.4c0.1-0.1,0.1-0.1,0.2-0.1
	c0.1,0,0.2,0,0.3-0.1c0.4-0.1,0.8-0.1,1.3-0.1c0.2,0,0.3,0.1,0.4,0.1c0.1,0,0.1,0.1,0.1,0.2c0,0.1,0,0.1,0,0.2l0,0
	c-0.3,0.2-0.7,0.4-1.1,0.4h0v0c-0.1,0.3-0.1,0.5-0.1,0.7c0,0.1,0,0.2,0,0.3c0-0.1,0.1-0.2,0.1-0.3c0-0.2,0.1-0.4,0.2-0.7l0,0
	c0.4-0.1,0.8-0.2,1.1-0.4v0c0-0.1,0-0.2,0-0.2c0-0.1-0.1-0.2-0.2-0.2c-0.2-0.1-0.3-0.2-0.5-0.2c-0.4,0-0.9,0-1.3,0.1
	c-0.1,0-0.2,0-0.3,0.1c-0.1,0-0.2,0.1-0.2,0.1c-0.1,0.1-0.2,0.3-0.3,0.4c-0.1,0.2-0.1,0.4-0.1,0.7C105.6,78.5,105.6,78.6,105.6,78.7
	z"/>
<path class="st13" d="M107.5,78.8c0.1,0,0.2,0,0.3,0c0.2,0,0.5,0.1,0.6,0.2c0.2,0.1,0.4,0.3,0.5,0.5c0.1,0.1,0.1,0.3,0.1,0.2
	c0,0,0-0.1-0.1-0.3c-0.1-0.2-0.3-0.4-0.5-0.5c-0.2-0.1-0.5-0.2-0.7-0.2C107.6,78.7,107.5,78.8,107.5,78.8z"/>
<path class="st13" d="M106.3,88.3c0.3-0.1,0.7-0.2,1-0.4c0.3-0.1,0.7-0.2,1-0.4c-0.4,0.1-0.7,0.2-1,0.3
	C106.9,87.9,106.6,88.1,106.3,88.3z"/>
<path class="st8" d="M117.1,82.4c-0.2-0.1-3.4,0.5-4.3,0.9c-0.5,0.2-5,3.6-5,3.6l3.3,5l2.1-0.7l0,8.8l13.3,0l-0.3-14
	c0,0-1-3.7-2.6-4.1C122.1,81.3,117.1,82.4,117.1,82.4z"/>
<path class="st6" d="M113.5,91.3c0,0,0.1,0,0.1,0c0.1,0,0.2,0,0.3-0.1c0.4-0.1,0.7-0.3,1.1-0.5c0.5-0.3,0.9-0.7,1.2-1.1
	c0.4-0.5,0.7-1.2,0.7-1.9c0.1-0.7-0.1-1.3-0.4-1.9c-0.2-0.5-0.6-0.9-1-1.3c-0.3-0.3-0.6-0.5-1-0.6c-0.1,0-0.2-0.1-0.3-0.1
	c0,0-0.1,0-0.1,0c0.5,0.2,0.9,0.5,1.3,0.8c0.4,0.4,0.7,0.8,1,1.3c0.3,0.6,0.4,1.2,0.4,1.9c-0.1,0.7-0.3,1.3-0.7,1.8
	c-0.3,0.4-0.7,0.8-1.2,1.1C114.5,90.9,114,91.1,113.5,91.3z"/>
<path class="st6" d="M115.8,99.3c0,0,0-1.8-0.2-3.9c-0.1-2.2-0.3-3.9-0.3-3.9c0,0,0,1.8,0.2,3.9C115.6,97.5,115.8,99.3,115.8,99.3z"
	/>
<path class="st6" d="M119.2,94.1c0.1,0.1,0.1,0.1,0.2,0.2c0.1,0.1,0.3,0.3,0.5,0.5c0.5,0.4,1.1,0.9,1.9,1.4c0.8,0.5,1.5,1,2,1.3
	c0.3,0.2,0.5,0.3,0.6,0.4c0.1,0,0.2,0.1,0.2,0.1c-0.1-0.1-0.1-0.1-0.2-0.2l-0.6-0.4c-0.5-0.3-1.2-0.8-2-1.3c-0.8-0.5-1.4-1-1.9-1.4
	l-0.6-0.4C119.3,94.2,119.3,94.1,119.2,94.1z"/>
<path class="st2" d="M124.4,85.6c0,0-0.2-0.4-0.5-0.8c-0.3-0.5-0.4-0.9-0.5-0.9c0.1,0.3,0.2,0.6,0.4,0.9
	C124,85.1,124.2,85.4,124.4,85.6z"/>
<path class="st2" d="M123.5,90.3c0.3-0.2,0.5-0.5,0.7-0.8c0.2-0.3,0.4-0.6,0.5-0.9c-0.2,0.3-0.4,0.5-0.6,0.8
	C123.9,89.7,123.7,90,123.5,90.3z"/>
<path class="st2" d="M120,86.1c0.2,0.3,0.5,0.6,0.7,0.9c0.2,0.3,0.5,0.5,0.8,0.8c-0.2-0.3-0.5-0.6-0.7-0.9
	C120.5,86.6,120.3,86.3,120,86.1z"/>
<path class="st2" d="M118.9,91.6c0,0-0.2-0.5-0.5-1.2c-0.2-0.6-0.4-1.2-0.5-1.2C118.1,90.1,118.4,90.9,118.9,91.6z"/>
<path class="st2" d="M121.2,94c0.1-0.3,0.1-0.6,0.1-0.9c0-0.3,0-0.6,0-0.9c-0.1,0.3-0.1,0.6-0.1,0.9C121.1,93.4,121.1,93.7,121.2,94
	z"/>
<path class="st2" d="M123.3,96.8c0.3-0.3,0.5-0.5,0.8-0.8c0.3-0.3,0.5-0.6,0.7-0.9c-0.3,0.3-0.5,0.5-0.8,0.8
	C123.7,96.1,123.5,96.4,123.3,96.8z"/>
<path class="st2" d="M120.4,98.5c0.1-0.5,0.2-0.9,0.1-1.4C120.4,97.5,120.4,98,120.4,98.5z"/>
<path class="st2" d="M117.2,97.2c0.2-0.2,0.4-0.5,0.6-0.8c0.2-0.3,0.4-0.5,0.5-0.8c-0.2,0.2-0.4,0.5-0.6,0.8
	C117.5,96.6,117.3,96.9,117.2,97.2z"/>
<path class="st2" d="M116,93.1c0.2,0,0.3,0,0.5,0c0.2,0,0.3,0,0.5-0.1c-0.2,0-0.3,0-0.5,0C116.3,92.9,116.2,93,116,93.1z"/>
<path class="st2" d="M113.7,95.4c0.2-0.2,0.4-0.5,0.6-0.8c0.2-0.3,0.4-0.6,0.5-0.9c-0.2,0.2-0.4,0.5-0.6,0.8
	C114,94.8,113.9,95.1,113.7,95.4z"/>
<path class="st2" d="M113.8,97.3c0.1,0.3,0.1,0.5,0.3,0.7c0.1,0.2,0.2,0.5,0.4,0.7c-0.1-0.3-0.1-0.5-0.3-0.7
	C114.1,97.8,114,97.5,113.8,97.3z"/>
<path class="st2" d="M115.2,88.4c0.2-0.3,0.3-0.5,0.3-0.8c0.1-0.3,0.1-0.6,0-0.9c0,0-0.1,0.4-0.1,0.9
	C115.3,88,115.2,88.4,115.2,88.4z"/>
<path class="st2" d="M113.9,85.3c-0.2-0.1-0.4-0.2-0.6-0.3c-0.2-0.1-0.4-0.2-0.6-0.2c0.2,0.1,0.4,0.2,0.6,0.3
	C113.5,85.2,113.7,85.3,113.9,85.3z"/>
<path class="st2" d="M112.3,88c0.2-0.2,0.3-0.4,0.4-0.7c0.1-0.2,0.3-0.5,0.3-0.7c-0.2,0.2-0.3,0.4-0.4,0.7
	C112.5,87.5,112.4,87.8,112.3,88z"/>
<path class="st2" d="M110.1,87.2c0.2-0.2,0.4-0.4,0.5-0.7c0.2-0.2,0.3-0.5,0.4-0.7c-0.2,0.2-0.4,0.4-0.5,0.7
	C110.4,86.7,110.2,86.9,110.1,87.2z"/>
<path class="st2" d="M110.8,89.7c0.3,0.1,0.6,0.2,0.9,0.3c0.3,0.1,0.6,0.2,0.9,0.2c-0.3-0.1-0.6-0.2-0.9-0.3
	C111.4,89.7,111.1,89.7,110.8,89.7z"/>
<path class="st2" d="M117.7,84.2c0.3-0.1,0.6-0.2,0.8-0.4c0.3-0.2,0.5-0.4,0.7-0.6c0,0-0.3,0.3-0.7,0.5S117.7,84.2,117.7,84.2z"/>
<path class="st2" d="M122.5,82.6c0.2,0,0.5,0,0.7,0c0.2,0,0.4-0.1,0.6-0.3c-0.2,0-0.4,0.1-0.6,0.2C122.9,82.5,122.7,82.5,122.5,82.6
	z"/>
<path class="st6" d="M29.8,99.9c0,0,22.9,0.1,51.1,0.1c28.2,0,51.1,0,51.1-0.1c0,0-22.9-0.1-51.1-0.1C52.6,99.8,29.8,99.8,29.8,99.9
	z"/>
</svg>
