<?xml version="1.0" encoding="utf-8"?>
<!-- Generator: Adobe Illustrator 27.0.0, SVG Export Plug-In . SVG Version: 6.00 Build 0)  -->
<svg version="1.1" id="Calque_1" xmlns="http://www.w3.org/2000/svg" xmlns:xlink="http://www.w3.org/1999/xlink" x="0px" y="0px"
	 viewBox="0 0 52 53" style="enable-background:new 0 0 52 53;" xml:space="preserve">
<style type="text/css">
	.st0{fill:#EB003D;}
</style>
<path class="st0" d="M48.7,15.3L31.3,1.8C29.8,0.6,27.9,0,26,0s-3.8,0.6-5.3,1.8L3.3,15.3c-1,0.8-1.9,1.8-2.5,3
	C0.3,19.5,0,20.8,0,22.1v23.4c0,1.7,0.7,3.4,1.9,4.6C3.1,51.4,4.8,52,6.5,52h39c1.7,0,3.4-0.7,4.6-1.9c1.2-1.2,1.9-2.9,1.9-4.6V22.1
	C52,19.5,50.8,16.9,48.7,15.3z"/>
</svg>
