<?xml version="1.0" encoding="utf-8"?>
<!-- Generator: Adobe Illustrator 27.0.0, SVG Export Plug-In . SVG Version: 6.00 Build 0)  -->
<svg version="1.1" id="Calque_1" xmlns="http://www.w3.org/2000/svg" xmlns:xlink="http://www.w3.org/1999/xlink" x="0px" y="0px"
	 viewBox="0 0 119 119" style="enable-background:new 0 0 119 119;" xml:space="preserve">
<style type="text/css">
	.st0{fill-rule:evenodd;clip-rule:evenodd;fill:#EB003D;}
</style>
<path class="st0" d="M111.2,35L71.6,4.2C68.1,1.5,63.9,0,59.4,0C55,0,50.8,1.5,47.3,4.2L7.6,35c-2.4,1.9-4.3,4.2-5.6,6.9
	c-1.3,2.7-2,5.7-2,8.7v53.5c0,3.9,1.6,7.7,4.4,10.5c2.8,2.8,6.6,4.4,10.5,4.4H104c3.9,0,7.7-1.6,10.5-4.4c2.8-2.8,4.4-6.6,4.4-10.5
	V50.6C118.9,44.5,116.1,38.7,111.2,35z M66.8,63.1L52.3,34.4c-1.4-2.7-4.1-4.4-7.2-4.4c-6,0-9.9,6.2-7.2,11.4l11,21.7
	c1.1,2.2,1.1,4.8,0,7l-11,21.7c-2.7,5.3,1.2,11.4,7.2,11.4c3.1,0,5.8-1.7,7.2-4.4l14.5-28.7C67.9,68,67.9,65.3,66.8,63.1z M71.2,30
	c-7.3,0-12,7.6-8.7,13.9L69,56.8c1,1.6,3.4,1.6,4.4,0L80,43.7C83.1,37.4,78.4,30,71.2,30z"/>
</svg>
